%TF.GenerationSoftware,KiCad,Pcbnew,5.1.10-88a1d61d58~90~ubuntu20.04.1*%
%TF.CreationDate,2021-11-04T14:23:52-05:00*%
%TF.ProjectId,Backup,4261636b-7570-42e6-9b69-6361645f7063,rev?*%
%TF.SameCoordinates,Original*%
%TF.FileFunction,Copper,L2,Bot*%
%TF.FilePolarity,Positive*%
%FSLAX46Y46*%
G04 Gerber Fmt 4.6, Leading zero omitted, Abs format (unit mm)*
G04 Created by KiCad (PCBNEW 5.1.10-88a1d61d58~90~ubuntu20.04.1) date 2021-11-04 14:23:52*
%MOMM*%
%LPD*%
G01*
G04 APERTURE LIST*
%TA.AperFunction,ComponentPad*%
%ADD10C,1.700000*%
%TD*%
%TA.AperFunction,ComponentPad*%
%ADD11R,1.700000X1.700000*%
%TD*%
%TA.AperFunction,ComponentPad*%
%ADD12O,1.700000X1.700000*%
%TD*%
G04 APERTURE END LIST*
D10*
%TO.P,U1,148*%
%TO.N,N/C*%
X138141001Y-43163001D03*
%TO.P,U1,147*%
X138141001Y-40623001D03*
%TO.P,U1,146*%
X74641001Y-43163001D03*
%TO.P,U1,145*%
X74641001Y-40623001D03*
%TO.P,U1,144*%
%TO.N,GND*%
X138141001Y-157463001D03*
%TO.P,U1,143*%
X135601001Y-157463001D03*
%TO.P,U1,142*%
%TO.N,Net-(U1-Pad142)*%
X138141001Y-154923001D03*
%TO.P,U1,141*%
%TO.N,Net-(U1-Pad141)*%
X135601001Y-154923001D03*
%TO.P,U1,140*%
%TO.N,Net-(U1-Pad140)*%
X138141001Y-152383001D03*
%TO.P,U1,139*%
%TO.N,Net-(U1-Pad139)*%
X135601001Y-152383001D03*
%TO.P,U1,138*%
%TO.N,Net-(U1-Pad138)*%
X138141001Y-149843001D03*
%TO.P,U1,137*%
%TO.N,Net-(U1-Pad137)*%
X135601001Y-149843001D03*
%TO.P,U1,136*%
%TO.N,Net-(U1-Pad136)*%
X138141001Y-147303001D03*
%TO.P,U1,135*%
%TO.N,GND*%
X135601001Y-147303001D03*
%TO.P,U1,134*%
%TO.N,Net-(U1-Pad134)*%
X138141001Y-144763001D03*
%TO.P,U1,133*%
%TO.N,Net-(U1-Pad133)*%
X135601001Y-144763001D03*
%TO.P,U1,132*%
%TO.N,Net-(U1-Pad132)*%
X138141001Y-142223001D03*
%TO.P,U1,131*%
%TO.N,Net-(U1-Pad131)*%
X135601001Y-142223001D03*
%TO.P,U1,130*%
%TO.N,Net-(U1-Pad130)*%
X138141001Y-139683001D03*
%TO.P,U1,129*%
%TO.N,Net-(U1-Pad129)*%
X135601001Y-139683001D03*
%TO.P,U1,128*%
%TO.N,Net-(U1-Pad128)*%
X138141001Y-137143001D03*
%TO.P,U1,127*%
%TO.N,Net-(U1-Pad127)*%
X135601001Y-137143001D03*
%TO.P,U1,126*%
%TO.N,GND*%
X138141001Y-134603001D03*
%TO.P,U1,125*%
%TO.N,Net-(U1-Pad125)*%
X135601001Y-134603001D03*
%TO.P,U1,124*%
%TO.N,Net-(U1-Pad124)*%
X138141001Y-132063001D03*
%TO.P,U1,123*%
%TO.N,Net-(U1-Pad123)*%
X135601001Y-132063001D03*
%TO.P,U1,122*%
%TO.N,Net-(U1-Pad122)*%
X138141001Y-129523001D03*
%TO.P,U1,121*%
%TO.N,Net-(U1-Pad121)*%
X135601001Y-129523001D03*
%TO.P,U1,120*%
%TO.N,Net-(U1-Pad120)*%
X138141001Y-126983001D03*
%TO.P,U1,119*%
%TO.N,Net-(U1-Pad119)*%
X135601001Y-126983001D03*
%TO.P,U1,118*%
%TO.N,Net-(U1-Pad118)*%
X138141001Y-124443001D03*
%TO.P,U1,117*%
%TO.N,Net-(U1-Pad117)*%
X135601001Y-124443001D03*
%TO.P,U1,116*%
%TO.N,Net-(U1-Pad116)*%
X138141001Y-121903001D03*
%TO.P,U1,115*%
%TO.N,Net-(U1-Pad115)*%
X135601001Y-121903001D03*
%TO.P,U1,114*%
%TO.N,Net-(U1-Pad114)*%
X138141001Y-119363001D03*
%TO.P,U1,113*%
%TO.N,Net-(U1-Pad113)*%
X135601001Y-119363001D03*
%TO.P,U1,112*%
%TO.N,Net-(U1-Pad112)*%
X138141001Y-116823001D03*
%TO.P,U1,111*%
%TO.N,GND*%
X135601001Y-116823001D03*
%TO.P,U1,110*%
%TO.N,Net-(U1-Pad110)*%
X138141001Y-114283001D03*
%TO.P,U1,109*%
%TO.N,Net-(U1-Pad109)*%
X135601001Y-114283001D03*
%TO.P,U1,108*%
%TO.N,Net-(U1-Pad108)*%
X138141001Y-111743001D03*
%TO.P,U1,107*%
%TO.N,Net-(U1-Pad107)*%
X135601001Y-111743001D03*
%TO.P,U1,106*%
%TO.N,Net-(U1-Pad106)*%
X138141001Y-109203001D03*
%TO.P,U1,105*%
%TO.N,Net-(U1-Pad105)*%
X135601001Y-109203001D03*
%TO.P,U1,104*%
%TO.N,Net-(U1-Pad104)*%
X138141001Y-106663001D03*
%TO.P,U1,103*%
%TO.N,Net-(U1-Pad103)*%
X135601001Y-106663001D03*
%TO.P,U1,102*%
%TO.N,Net-(U1-Pad102)*%
X138141001Y-104123001D03*
%TO.P,U1,101*%
%TO.N,Net-(U1-Pad101)*%
X135601001Y-104123001D03*
%TO.P,U1,100*%
%TO.N,Net-(U1-Pad100)*%
X138141001Y-101583001D03*
%TO.P,U1,99*%
%TO.N,Net-(U1-Pad99)*%
X135601001Y-101583001D03*
%TO.P,U1,98*%
%TO.N,Net-(U1-Pad98)*%
X138141001Y-99043001D03*
%TO.P,U1,97*%
%TO.N,Net-(U1-Pad97)*%
X135601001Y-99043001D03*
%TO.P,U1,96*%
%TO.N,Net-(U1-Pad96)*%
X138141001Y-96503001D03*
%TO.P,U1,95*%
%TO.N,Net-(U1-Pad95)*%
X135601001Y-96503001D03*
%TO.P,U1,94*%
%TO.N,Net-(U1-Pad94)*%
X138141001Y-93963001D03*
%TO.P,U1,93*%
%TO.N,Net-(U1-Pad93)*%
X135601001Y-93963001D03*
%TO.P,U1,92*%
%TO.N,GND*%
X138141001Y-91423001D03*
%TO.P,U1,91*%
%TO.N,Net-(U1-Pad91)*%
X135601001Y-91423001D03*
%TO.P,U1,90*%
%TO.N,Net-(U1-Pad90)*%
X138141001Y-88883001D03*
%TO.P,U1,89*%
%TO.N,Net-(U1-Pad89)*%
X135601001Y-88883001D03*
%TO.P,U1,88*%
%TO.N,Net-(U1-Pad88)*%
X138141001Y-86343001D03*
%TO.P,U1,87*%
%TO.N,Net-(U1-Pad87)*%
X135601001Y-86343001D03*
%TO.P,U1,86*%
%TO.N,Net-(U1-Pad86)*%
X138141001Y-83803001D03*
%TO.P,U1,85*%
%TO.N,Net-(U1-Pad85)*%
X135601001Y-83803001D03*
%TO.P,U1,84*%
%TO.N,Net-(U1-Pad84)*%
X138141001Y-81263001D03*
%TO.P,U1,83*%
%TO.N,Net-(U1-Pad83)*%
X135601001Y-81263001D03*
%TO.P,U1,82*%
%TO.N,Net-(U1-Pad82)*%
X138141001Y-78723001D03*
%TO.P,U1,81*%
%TO.N,GND*%
X135601001Y-78723001D03*
%TO.P,U1,80*%
%TO.N,Net-(U1-Pad80)*%
X138141001Y-76183001D03*
%TO.P,U1,79*%
%TO.N,Net-(U1-Pad79)*%
X135601001Y-76183001D03*
%TO.P,U1,78*%
%TO.N,Net-(U1-Pad78)*%
X138141001Y-73643001D03*
%TO.P,U1,77*%
%TO.N,GY80_I2C_SDA*%
X135601001Y-73643001D03*
%TO.P,U1,76*%
%TO.N,Net-(U1-Pad76)*%
X138141001Y-71103001D03*
%TO.P,U1,75*%
%TO.N,GY80_I2C_SCL*%
X135601001Y-71103001D03*
%TO.P,U1,74*%
%TO.N,Net-(U1-Pad74)*%
X138141001Y-68563001D03*
%TO.P,U1,73*%
%TO.N,Net-(U1-Pad73)*%
X135601001Y-68563001D03*
%TO.P,U1,72*%
%TO.N,GND*%
X77181001Y-157463001D03*
%TO.P,U1,71*%
X74641001Y-157463001D03*
%TO.P,U1,70*%
%TO.N,Net-(U1-Pad70)*%
X77181001Y-154923001D03*
%TO.P,U1,69*%
%TO.N,Net-(U1-Pad69)*%
X74641001Y-154923001D03*
%TO.P,U1,68*%
%TO.N,Net-(U1-Pad68)*%
X77181001Y-152383001D03*
%TO.P,U1,67*%
%TO.N,Net-(U1-Pad67)*%
X74641001Y-152383001D03*
%TO.P,U1,66*%
%TO.N,Net-(U1-Pad66)*%
X77181001Y-149843001D03*
%TO.P,U1,65*%
%TO.N,Net-(U1-Pad65)*%
X74641001Y-149843001D03*
%TO.P,U1,64*%
%TO.N,Net-(U1-Pad64)*%
X77181001Y-147303001D03*
%TO.P,U1,63*%
%TO.N,Net-(U1-Pad63)*%
X74641001Y-147303001D03*
%TO.P,U1,62*%
%TO.N,SD_SPI_MOSI*%
X77181001Y-144763001D03*
%TO.P,U1,61*%
%TO.N,Net-(U1-Pad61)*%
X74641001Y-144763001D03*
%TO.P,U1,60*%
%TO.N,GND*%
X77181001Y-142223001D03*
%TO.P,U1,59*%
%TO.N,Net-(U1-Pad59)*%
X74641001Y-142223001D03*
%TO.P,U1,58*%
%TO.N,Net-(U1-Pad58)*%
X77181001Y-139683001D03*
%TO.P,U1,57*%
%TO.N,Net-(U1-Pad57)*%
X74641001Y-139683001D03*
%TO.P,U1,56*%
%TO.N,Net-(U1-Pad56)*%
X77181001Y-137143001D03*
%TO.P,U1,55*%
%TO.N,Net-(U1-Pad55)*%
X74641001Y-137143001D03*
%TO.P,U1,54*%
%TO.N,Net-(U1-Pad54)*%
X77181001Y-134603001D03*
%TO.P,U1,53*%
%TO.N,Net-(U1-Pad53)*%
X74641001Y-134603001D03*
%TO.P,U1,52*%
%TO.N,Net-(U1-Pad52)*%
X77181001Y-132063001D03*
%TO.P,U1,51*%
%TO.N,Net-(U1-Pad51)*%
X74641001Y-132063001D03*
%TO.P,U1,50*%
%TO.N,SD_SPI_MISO*%
X77181001Y-129523001D03*
%TO.P,U1,49*%
%TO.N,GND*%
X74641001Y-129523001D03*
%TO.P,U1,48*%
%TO.N,SD_SPI_CS*%
X77181001Y-126983001D03*
%TO.P,U1,47*%
%TO.N,Net-(U1-Pad47)*%
X74641001Y-126983001D03*
%TO.P,U1,46*%
%TO.N,SD_SPI_SCK*%
X77181001Y-124443001D03*
%TO.P,U1,45*%
%TO.N,Net-(U1-Pad45)*%
X74641001Y-124443001D03*
%TO.P,U1,44*%
%TO.N,Net-(U1-Pad44)*%
X77181001Y-121903001D03*
%TO.P,U1,43*%
%TO.N,HC05_UART_TX*%
X74641001Y-121903001D03*
%TO.P,U1,42*%
%TO.N,Net-(U1-Pad42)*%
X77181001Y-119363001D03*
%TO.P,U1,41*%
%TO.N,HC05_UART_RX*%
X74641001Y-119363001D03*
%TO.P,U1,40*%
%TO.N,Net-(U1-Pad40)*%
X77181001Y-116823001D03*
%TO.P,U1,39*%
%TO.N,Net-(U1-Pad39)*%
X74641001Y-116823001D03*
%TO.P,U1,38*%
%TO.N,Net-(U1-Pad38)*%
X77181001Y-114283001D03*
%TO.P,U1,37*%
%TO.N,Net-(U1-Pad37)*%
X74641001Y-114283001D03*
%TO.P,U1,36*%
%TO.N,Net-(U1-Pad36)*%
X77181001Y-111743001D03*
%TO.P,U1,35*%
%TO.N,Net-(U1-Pad35)*%
X74641001Y-111743001D03*
%TO.P,U1,34*%
%TO.N,Net-(U1-Pad34)*%
X77181001Y-109203001D03*
%TO.P,U1,33*%
%TO.N,Net-(U1-Pad33)*%
X74641001Y-109203001D03*
%TO.P,U1,32*%
%TO.N,Net-(U1-Pad32)*%
X77181001Y-106663001D03*
%TO.P,U1,31*%
%TO.N,Net-(U1-Pad31)*%
X74641001Y-106663001D03*
%TO.P,U1,30*%
%TO.N,Net-(U1-Pad30)*%
X77181001Y-104123001D03*
%TO.P,U1,29*%
%TO.N,Net-(U1-Pad29)*%
X74641001Y-104123001D03*
%TO.P,U1,28*%
%TO.N,Net-(U1-Pad28)*%
X77181001Y-101583001D03*
%TO.P,U1,27*%
%TO.N,Net-(U1-Pad27)*%
X74641001Y-101583001D03*
%TO.P,U1,26*%
%TO.N,Net-(U1-Pad26)*%
X77181001Y-99043001D03*
%TO.P,U1,25*%
%TO.N,Net-(U1-Pad25)*%
X74641001Y-99043001D03*
%TO.P,U1,24*%
%TO.N,Net-(U1-Pad24)*%
X77181001Y-96503001D03*
%TO.P,U1,23*%
%TO.N,Net-(U1-Pad23)*%
X74641001Y-96503001D03*
%TO.P,U1,22*%
%TO.N,GND*%
X77181001Y-93963001D03*
%TO.P,U1,21*%
%TO.N,Net-(U1-Pad21)*%
X74641001Y-93963001D03*
%TO.P,U1,20*%
%TO.N,GND*%
X77181001Y-91423001D03*
%TO.P,U1,19*%
X74641001Y-91423001D03*
%TO.P,U1,18*%
%TO.N,+5V*%
X77181001Y-88883001D03*
%TO.P,U1,17*%
%TO.N,Net-(U1-Pad17)*%
X74641001Y-88883001D03*
%TO.P,U1,16*%
%TO.N,+3V3*%
X77181001Y-86343001D03*
%TO.P,U1,15*%
%TO.N,Net-(U1-Pad15)*%
X74641001Y-86343001D03*
%TO.P,U1,14*%
%TO.N,Net-(U1-Pad14)*%
X77181001Y-83803001D03*
%TO.P,U1,13*%
%TO.N,Net-(U1-Pad13)*%
X74641001Y-83803001D03*
%TO.P,U1,12*%
%TO.N,Net-(U1-Pad12)*%
X77181001Y-81263001D03*
%TO.P,U1,11*%
%TO.N,GPS_UART_RX*%
X74641001Y-81263001D03*
%TO.P,U1,10*%
%TO.N,Net-(U1-Pad10)*%
X77181001Y-78723001D03*
%TO.P,U1,9*%
%TO.N,GPS_UART_TX*%
X74641001Y-78723001D03*
%TO.P,U1,8*%
%TO.N,GND*%
X77181001Y-76183001D03*
%TO.P,U1,7*%
%TO.N,Net-(U1-Pad7)*%
X74641001Y-76183001D03*
%TO.P,U1,6*%
%TO.N,Net-(U1-Pad6)*%
X77181001Y-73643001D03*
%TO.P,U1,5*%
%TO.N,Net-(U1-Pad5)*%
X74641001Y-73643001D03*
%TO.P,U1,4*%
%TO.N,Net-(U1-Pad4)*%
X77181001Y-71103001D03*
%TO.P,U1,3*%
%TO.N,Net-(U1-Pad3)*%
X74641001Y-71103001D03*
%TO.P,U1,2*%
%TO.N,Net-(U1-Pad2)*%
X77181001Y-68563001D03*
%TO.P,U1,1*%
%TO.N,Net-(U1-Pad1)*%
X74641001Y-68563001D03*
%TD*%
D11*
%TO.P,IMU,1*%
%TO.N,+5V*%
X113030000Y-81788000D03*
D12*
%TO.P,IMU,2*%
%TO.N,Net-(J1-Pad2)*%
X113030000Y-84328000D03*
%TO.P,IMU,3*%
%TO.N,GND*%
X113030000Y-86868000D03*
%TO.P,IMU,4*%
%TO.N,GY80_I2C_SCL*%
X113030000Y-89408000D03*
%TO.P,IMU,5*%
%TO.N,GY80_I2C_SDA*%
X113030000Y-91948000D03*
%TO.P,IMU,6*%
%TO.N,Net-(J1-Pad6)*%
X113030000Y-94488000D03*
%TO.P,IMU,7*%
%TO.N,Net-(J1-Pad7)*%
X113030000Y-97028000D03*
%TO.P,IMU,8*%
%TO.N,Net-(J1-Pad8)*%
X113030000Y-99568000D03*
%TO.P,IMU,9*%
%TO.N,Net-(J1-Pad9)*%
X113030000Y-102108000D03*
%TO.P,IMU,10*%
%TO.N,Net-(J1-Pad10)*%
X113030000Y-104648000D03*
%TD*%
D11*
%TO.P,GPS,1*%
%TO.N,+3V3*%
X89916000Y-46990000D03*
D12*
%TO.P,GPS,2*%
%TO.N,GPS_UART_TX*%
X89916000Y-49530000D03*
%TO.P,GPS,3*%
%TO.N,GPS_UART_RX*%
X89916000Y-52070000D03*
%TO.P,GPS,4*%
%TO.N,GND*%
X89916000Y-54610000D03*
%TD*%
D11*
%TO.P,BLUETOOTH,1*%
%TO.N,Net-(J3-Pad1)*%
X93726000Y-92710000D03*
D12*
%TO.P,BLUETOOTH,2*%
%TO.N,HC05_UART_RX*%
X93726000Y-95250000D03*
%TO.P,BLUETOOTH,3*%
%TO.N,HC05_UART_TX*%
X93726000Y-97790000D03*
%TO.P,BLUETOOTH,4*%
%TO.N,GND*%
X93726000Y-100330000D03*
%TO.P,BLUETOOTH,5*%
%TO.N,+5V*%
X93726000Y-102870000D03*
%TO.P,BLUETOOTH,6*%
%TO.N,Net-(J3-Pad6)*%
X93726000Y-105410000D03*
%TD*%
%TO.P,SD,6*%
%TO.N,GND*%
X115062000Y-137668000D03*
%TO.P,SD,5*%
%TO.N,+5V*%
X115062000Y-135128000D03*
%TO.P,SD,4*%
%TO.N,SD_SPI_MISO*%
X115062000Y-132588000D03*
%TO.P,SD,3*%
%TO.N,SD_SPI_MOSI*%
X115062000Y-130048000D03*
%TO.P,SD,2*%
%TO.N,SD_SPI_SCK*%
X115062000Y-127508000D03*
D11*
%TO.P,SD,1*%
%TO.N,SD_SPI_CS*%
X115062000Y-124968000D03*
%TD*%
M02*
