%TF.GenerationSoftware,KiCad,Pcbnew,5.1.10-88a1d61d58~90~ubuntu20.04.1*%
%TF.CreationDate,2021-11-04T14:23:52-05:00*%
%TF.ProjectId,Backup,4261636b-7570-42e6-9b69-6361645f7063,rev?*%
%TF.SameCoordinates,Original*%
%TF.FileFunction,Copper,L1,Top*%
%TF.FilePolarity,Positive*%
%FSLAX46Y46*%
G04 Gerber Fmt 4.6, Leading zero omitted, Abs format (unit mm)*
G04 Created by KiCad (PCBNEW 5.1.10-88a1d61d58~90~ubuntu20.04.1) date 2021-11-04 14:23:52*
%MOMM*%
%LPD*%
G01*
G04 APERTURE LIST*
%TA.AperFunction,ComponentPad*%
%ADD10C,1.700000*%
%TD*%
%TA.AperFunction,ComponentPad*%
%ADD11R,1.700000X1.700000*%
%TD*%
%TA.AperFunction,ComponentPad*%
%ADD12O,1.700000X1.700000*%
%TD*%
%TA.AperFunction,Conductor*%
%ADD13C,0.250000*%
%TD*%
%TA.AperFunction,NonConductor*%
%ADD14C,0.254000*%
%TD*%
%TA.AperFunction,NonConductor*%
%ADD15C,0.100000*%
%TD*%
G04 APERTURE END LIST*
D10*
%TO.P,U1,148*%
%TO.N,N/C*%
X138141001Y-43163001D03*
%TO.P,U1,147*%
X138141001Y-40623001D03*
%TO.P,U1,146*%
X74641001Y-43163001D03*
%TO.P,U1,145*%
X74641001Y-40623001D03*
%TO.P,U1,144*%
%TO.N,GND*%
X138141001Y-157463001D03*
%TO.P,U1,143*%
X135601001Y-157463001D03*
%TO.P,U1,142*%
%TO.N,Net-(U1-Pad142)*%
X138141001Y-154923001D03*
%TO.P,U1,141*%
%TO.N,Net-(U1-Pad141)*%
X135601001Y-154923001D03*
%TO.P,U1,140*%
%TO.N,Net-(U1-Pad140)*%
X138141001Y-152383001D03*
%TO.P,U1,139*%
%TO.N,Net-(U1-Pad139)*%
X135601001Y-152383001D03*
%TO.P,U1,138*%
%TO.N,Net-(U1-Pad138)*%
X138141001Y-149843001D03*
%TO.P,U1,137*%
%TO.N,Net-(U1-Pad137)*%
X135601001Y-149843001D03*
%TO.P,U1,136*%
%TO.N,Net-(U1-Pad136)*%
X138141001Y-147303001D03*
%TO.P,U1,135*%
%TO.N,GND*%
X135601001Y-147303001D03*
%TO.P,U1,134*%
%TO.N,Net-(U1-Pad134)*%
X138141001Y-144763001D03*
%TO.P,U1,133*%
%TO.N,Net-(U1-Pad133)*%
X135601001Y-144763001D03*
%TO.P,U1,132*%
%TO.N,Net-(U1-Pad132)*%
X138141001Y-142223001D03*
%TO.P,U1,131*%
%TO.N,Net-(U1-Pad131)*%
X135601001Y-142223001D03*
%TO.P,U1,130*%
%TO.N,Net-(U1-Pad130)*%
X138141001Y-139683001D03*
%TO.P,U1,129*%
%TO.N,Net-(U1-Pad129)*%
X135601001Y-139683001D03*
%TO.P,U1,128*%
%TO.N,Net-(U1-Pad128)*%
X138141001Y-137143001D03*
%TO.P,U1,127*%
%TO.N,Net-(U1-Pad127)*%
X135601001Y-137143001D03*
%TO.P,U1,126*%
%TO.N,GND*%
X138141001Y-134603001D03*
%TO.P,U1,125*%
%TO.N,Net-(U1-Pad125)*%
X135601001Y-134603001D03*
%TO.P,U1,124*%
%TO.N,Net-(U1-Pad124)*%
X138141001Y-132063001D03*
%TO.P,U1,123*%
%TO.N,Net-(U1-Pad123)*%
X135601001Y-132063001D03*
%TO.P,U1,122*%
%TO.N,Net-(U1-Pad122)*%
X138141001Y-129523001D03*
%TO.P,U1,121*%
%TO.N,Net-(U1-Pad121)*%
X135601001Y-129523001D03*
%TO.P,U1,120*%
%TO.N,Net-(U1-Pad120)*%
X138141001Y-126983001D03*
%TO.P,U1,119*%
%TO.N,Net-(U1-Pad119)*%
X135601001Y-126983001D03*
%TO.P,U1,118*%
%TO.N,Net-(U1-Pad118)*%
X138141001Y-124443001D03*
%TO.P,U1,117*%
%TO.N,Net-(U1-Pad117)*%
X135601001Y-124443001D03*
%TO.P,U1,116*%
%TO.N,Net-(U1-Pad116)*%
X138141001Y-121903001D03*
%TO.P,U1,115*%
%TO.N,Net-(U1-Pad115)*%
X135601001Y-121903001D03*
%TO.P,U1,114*%
%TO.N,Net-(U1-Pad114)*%
X138141001Y-119363001D03*
%TO.P,U1,113*%
%TO.N,Net-(U1-Pad113)*%
X135601001Y-119363001D03*
%TO.P,U1,112*%
%TO.N,Net-(U1-Pad112)*%
X138141001Y-116823001D03*
%TO.P,U1,111*%
%TO.N,GND*%
X135601001Y-116823001D03*
%TO.P,U1,110*%
%TO.N,Net-(U1-Pad110)*%
X138141001Y-114283001D03*
%TO.P,U1,109*%
%TO.N,Net-(U1-Pad109)*%
X135601001Y-114283001D03*
%TO.P,U1,108*%
%TO.N,Net-(U1-Pad108)*%
X138141001Y-111743001D03*
%TO.P,U1,107*%
%TO.N,Net-(U1-Pad107)*%
X135601001Y-111743001D03*
%TO.P,U1,106*%
%TO.N,Net-(U1-Pad106)*%
X138141001Y-109203001D03*
%TO.P,U1,105*%
%TO.N,Net-(U1-Pad105)*%
X135601001Y-109203001D03*
%TO.P,U1,104*%
%TO.N,Net-(U1-Pad104)*%
X138141001Y-106663001D03*
%TO.P,U1,103*%
%TO.N,Net-(U1-Pad103)*%
X135601001Y-106663001D03*
%TO.P,U1,102*%
%TO.N,Net-(U1-Pad102)*%
X138141001Y-104123001D03*
%TO.P,U1,101*%
%TO.N,Net-(U1-Pad101)*%
X135601001Y-104123001D03*
%TO.P,U1,100*%
%TO.N,Net-(U1-Pad100)*%
X138141001Y-101583001D03*
%TO.P,U1,99*%
%TO.N,Net-(U1-Pad99)*%
X135601001Y-101583001D03*
%TO.P,U1,98*%
%TO.N,Net-(U1-Pad98)*%
X138141001Y-99043001D03*
%TO.P,U1,97*%
%TO.N,Net-(U1-Pad97)*%
X135601001Y-99043001D03*
%TO.P,U1,96*%
%TO.N,Net-(U1-Pad96)*%
X138141001Y-96503001D03*
%TO.P,U1,95*%
%TO.N,Net-(U1-Pad95)*%
X135601001Y-96503001D03*
%TO.P,U1,94*%
%TO.N,Net-(U1-Pad94)*%
X138141001Y-93963001D03*
%TO.P,U1,93*%
%TO.N,Net-(U1-Pad93)*%
X135601001Y-93963001D03*
%TO.P,U1,92*%
%TO.N,GND*%
X138141001Y-91423001D03*
%TO.P,U1,91*%
%TO.N,Net-(U1-Pad91)*%
X135601001Y-91423001D03*
%TO.P,U1,90*%
%TO.N,Net-(U1-Pad90)*%
X138141001Y-88883001D03*
%TO.P,U1,89*%
%TO.N,Net-(U1-Pad89)*%
X135601001Y-88883001D03*
%TO.P,U1,88*%
%TO.N,Net-(U1-Pad88)*%
X138141001Y-86343001D03*
%TO.P,U1,87*%
%TO.N,Net-(U1-Pad87)*%
X135601001Y-86343001D03*
%TO.P,U1,86*%
%TO.N,Net-(U1-Pad86)*%
X138141001Y-83803001D03*
%TO.P,U1,85*%
%TO.N,Net-(U1-Pad85)*%
X135601001Y-83803001D03*
%TO.P,U1,84*%
%TO.N,Net-(U1-Pad84)*%
X138141001Y-81263001D03*
%TO.P,U1,83*%
%TO.N,Net-(U1-Pad83)*%
X135601001Y-81263001D03*
%TO.P,U1,82*%
%TO.N,Net-(U1-Pad82)*%
X138141001Y-78723001D03*
%TO.P,U1,81*%
%TO.N,GND*%
X135601001Y-78723001D03*
%TO.P,U1,80*%
%TO.N,Net-(U1-Pad80)*%
X138141001Y-76183001D03*
%TO.P,U1,79*%
%TO.N,Net-(U1-Pad79)*%
X135601001Y-76183001D03*
%TO.P,U1,78*%
%TO.N,Net-(U1-Pad78)*%
X138141001Y-73643001D03*
%TO.P,U1,77*%
%TO.N,GY80_I2C_SDA*%
X135601001Y-73643001D03*
%TO.P,U1,76*%
%TO.N,Net-(U1-Pad76)*%
X138141001Y-71103001D03*
%TO.P,U1,75*%
%TO.N,GY80_I2C_SCL*%
X135601001Y-71103001D03*
%TO.P,U1,74*%
%TO.N,Net-(U1-Pad74)*%
X138141001Y-68563001D03*
%TO.P,U1,73*%
%TO.N,Net-(U1-Pad73)*%
X135601001Y-68563001D03*
%TO.P,U1,72*%
%TO.N,GND*%
X77181001Y-157463001D03*
%TO.P,U1,71*%
X74641001Y-157463001D03*
%TO.P,U1,70*%
%TO.N,Net-(U1-Pad70)*%
X77181001Y-154923001D03*
%TO.P,U1,69*%
%TO.N,Net-(U1-Pad69)*%
X74641001Y-154923001D03*
%TO.P,U1,68*%
%TO.N,Net-(U1-Pad68)*%
X77181001Y-152383001D03*
%TO.P,U1,67*%
%TO.N,Net-(U1-Pad67)*%
X74641001Y-152383001D03*
%TO.P,U1,66*%
%TO.N,Net-(U1-Pad66)*%
X77181001Y-149843001D03*
%TO.P,U1,65*%
%TO.N,Net-(U1-Pad65)*%
X74641001Y-149843001D03*
%TO.P,U1,64*%
%TO.N,Net-(U1-Pad64)*%
X77181001Y-147303001D03*
%TO.P,U1,63*%
%TO.N,Net-(U1-Pad63)*%
X74641001Y-147303001D03*
%TO.P,U1,62*%
%TO.N,SD_SPI_MOSI*%
X77181001Y-144763001D03*
%TO.P,U1,61*%
%TO.N,Net-(U1-Pad61)*%
X74641001Y-144763001D03*
%TO.P,U1,60*%
%TO.N,GND*%
X77181001Y-142223001D03*
%TO.P,U1,59*%
%TO.N,Net-(U1-Pad59)*%
X74641001Y-142223001D03*
%TO.P,U1,58*%
%TO.N,Net-(U1-Pad58)*%
X77181001Y-139683001D03*
%TO.P,U1,57*%
%TO.N,Net-(U1-Pad57)*%
X74641001Y-139683001D03*
%TO.P,U1,56*%
%TO.N,Net-(U1-Pad56)*%
X77181001Y-137143001D03*
%TO.P,U1,55*%
%TO.N,Net-(U1-Pad55)*%
X74641001Y-137143001D03*
%TO.P,U1,54*%
%TO.N,Net-(U1-Pad54)*%
X77181001Y-134603001D03*
%TO.P,U1,53*%
%TO.N,Net-(U1-Pad53)*%
X74641001Y-134603001D03*
%TO.P,U1,52*%
%TO.N,Net-(U1-Pad52)*%
X77181001Y-132063001D03*
%TO.P,U1,51*%
%TO.N,Net-(U1-Pad51)*%
X74641001Y-132063001D03*
%TO.P,U1,50*%
%TO.N,SD_SPI_MISO*%
X77181001Y-129523001D03*
%TO.P,U1,49*%
%TO.N,GND*%
X74641001Y-129523001D03*
%TO.P,U1,48*%
%TO.N,SD_SPI_CS*%
X77181001Y-126983001D03*
%TO.P,U1,47*%
%TO.N,Net-(U1-Pad47)*%
X74641001Y-126983001D03*
%TO.P,U1,46*%
%TO.N,SD_SPI_SCK*%
X77181001Y-124443001D03*
%TO.P,U1,45*%
%TO.N,Net-(U1-Pad45)*%
X74641001Y-124443001D03*
%TO.P,U1,44*%
%TO.N,Net-(U1-Pad44)*%
X77181001Y-121903001D03*
%TO.P,U1,43*%
%TO.N,HC05_UART_TX*%
X74641001Y-121903001D03*
%TO.P,U1,42*%
%TO.N,Net-(U1-Pad42)*%
X77181001Y-119363001D03*
%TO.P,U1,41*%
%TO.N,HC05_UART_RX*%
X74641001Y-119363001D03*
%TO.P,U1,40*%
%TO.N,Net-(U1-Pad40)*%
X77181001Y-116823001D03*
%TO.P,U1,39*%
%TO.N,Net-(U1-Pad39)*%
X74641001Y-116823001D03*
%TO.P,U1,38*%
%TO.N,Net-(U1-Pad38)*%
X77181001Y-114283001D03*
%TO.P,U1,37*%
%TO.N,Net-(U1-Pad37)*%
X74641001Y-114283001D03*
%TO.P,U1,36*%
%TO.N,Net-(U1-Pad36)*%
X77181001Y-111743001D03*
%TO.P,U1,35*%
%TO.N,Net-(U1-Pad35)*%
X74641001Y-111743001D03*
%TO.P,U1,34*%
%TO.N,Net-(U1-Pad34)*%
X77181001Y-109203001D03*
%TO.P,U1,33*%
%TO.N,Net-(U1-Pad33)*%
X74641001Y-109203001D03*
%TO.P,U1,32*%
%TO.N,Net-(U1-Pad32)*%
X77181001Y-106663001D03*
%TO.P,U1,31*%
%TO.N,Net-(U1-Pad31)*%
X74641001Y-106663001D03*
%TO.P,U1,30*%
%TO.N,Net-(U1-Pad30)*%
X77181001Y-104123001D03*
%TO.P,U1,29*%
%TO.N,Net-(U1-Pad29)*%
X74641001Y-104123001D03*
%TO.P,U1,28*%
%TO.N,Net-(U1-Pad28)*%
X77181001Y-101583001D03*
%TO.P,U1,27*%
%TO.N,Net-(U1-Pad27)*%
X74641001Y-101583001D03*
%TO.P,U1,26*%
%TO.N,Net-(U1-Pad26)*%
X77181001Y-99043001D03*
%TO.P,U1,25*%
%TO.N,Net-(U1-Pad25)*%
X74641001Y-99043001D03*
%TO.P,U1,24*%
%TO.N,Net-(U1-Pad24)*%
X77181001Y-96503001D03*
%TO.P,U1,23*%
%TO.N,Net-(U1-Pad23)*%
X74641001Y-96503001D03*
%TO.P,U1,22*%
%TO.N,GND*%
X77181001Y-93963001D03*
%TO.P,U1,21*%
%TO.N,Net-(U1-Pad21)*%
X74641001Y-93963001D03*
%TO.P,U1,20*%
%TO.N,GND*%
X77181001Y-91423001D03*
%TO.P,U1,19*%
X74641001Y-91423001D03*
%TO.P,U1,18*%
%TO.N,+5V*%
X77181001Y-88883001D03*
%TO.P,U1,17*%
%TO.N,Net-(U1-Pad17)*%
X74641001Y-88883001D03*
%TO.P,U1,16*%
%TO.N,+3V3*%
X77181001Y-86343001D03*
%TO.P,U1,15*%
%TO.N,Net-(U1-Pad15)*%
X74641001Y-86343001D03*
%TO.P,U1,14*%
%TO.N,Net-(U1-Pad14)*%
X77181001Y-83803001D03*
%TO.P,U1,13*%
%TO.N,Net-(U1-Pad13)*%
X74641001Y-83803001D03*
%TO.P,U1,12*%
%TO.N,Net-(U1-Pad12)*%
X77181001Y-81263001D03*
%TO.P,U1,11*%
%TO.N,GPS_UART_RX*%
X74641001Y-81263001D03*
%TO.P,U1,10*%
%TO.N,Net-(U1-Pad10)*%
X77181001Y-78723001D03*
%TO.P,U1,9*%
%TO.N,GPS_UART_TX*%
X74641001Y-78723001D03*
%TO.P,U1,8*%
%TO.N,GND*%
X77181001Y-76183001D03*
%TO.P,U1,7*%
%TO.N,Net-(U1-Pad7)*%
X74641001Y-76183001D03*
%TO.P,U1,6*%
%TO.N,Net-(U1-Pad6)*%
X77181001Y-73643001D03*
%TO.P,U1,5*%
%TO.N,Net-(U1-Pad5)*%
X74641001Y-73643001D03*
%TO.P,U1,4*%
%TO.N,Net-(U1-Pad4)*%
X77181001Y-71103001D03*
%TO.P,U1,3*%
%TO.N,Net-(U1-Pad3)*%
X74641001Y-71103001D03*
%TO.P,U1,2*%
%TO.N,Net-(U1-Pad2)*%
X77181001Y-68563001D03*
%TO.P,U1,1*%
%TO.N,Net-(U1-Pad1)*%
X74641001Y-68563001D03*
%TD*%
D11*
%TO.P,IMU,1*%
%TO.N,+5V*%
X113030000Y-81788000D03*
D12*
%TO.P,IMU,2*%
%TO.N,Net-(J1-Pad2)*%
X113030000Y-84328000D03*
%TO.P,IMU,3*%
%TO.N,GND*%
X113030000Y-86868000D03*
%TO.P,IMU,4*%
%TO.N,GY80_I2C_SCL*%
X113030000Y-89408000D03*
%TO.P,IMU,5*%
%TO.N,GY80_I2C_SDA*%
X113030000Y-91948000D03*
%TO.P,IMU,6*%
%TO.N,Net-(J1-Pad6)*%
X113030000Y-94488000D03*
%TO.P,IMU,7*%
%TO.N,Net-(J1-Pad7)*%
X113030000Y-97028000D03*
%TO.P,IMU,8*%
%TO.N,Net-(J1-Pad8)*%
X113030000Y-99568000D03*
%TO.P,IMU,9*%
%TO.N,Net-(J1-Pad9)*%
X113030000Y-102108000D03*
%TO.P,IMU,10*%
%TO.N,Net-(J1-Pad10)*%
X113030000Y-104648000D03*
%TD*%
D11*
%TO.P,GPS,1*%
%TO.N,+3V3*%
X89916000Y-46990000D03*
D12*
%TO.P,GPS,2*%
%TO.N,GPS_UART_TX*%
X89916000Y-49530000D03*
%TO.P,GPS,3*%
%TO.N,GPS_UART_RX*%
X89916000Y-52070000D03*
%TO.P,GPS,4*%
%TO.N,GND*%
X89916000Y-54610000D03*
%TD*%
D11*
%TO.P,BLUETOOTH,1*%
%TO.N,Net-(J3-Pad1)*%
X93726000Y-92710000D03*
D12*
%TO.P,BLUETOOTH,2*%
%TO.N,HC05_UART_RX*%
X93726000Y-95250000D03*
%TO.P,BLUETOOTH,3*%
%TO.N,HC05_UART_TX*%
X93726000Y-97790000D03*
%TO.P,BLUETOOTH,4*%
%TO.N,GND*%
X93726000Y-100330000D03*
%TO.P,BLUETOOTH,5*%
%TO.N,+5V*%
X93726000Y-102870000D03*
%TO.P,BLUETOOTH,6*%
%TO.N,Net-(J3-Pad6)*%
X93726000Y-105410000D03*
%TD*%
%TO.P,SD,6*%
%TO.N,GND*%
X115062000Y-137668000D03*
%TO.P,SD,5*%
%TO.N,+5V*%
X115062000Y-135128000D03*
%TO.P,SD,4*%
%TO.N,SD_SPI_MISO*%
X115062000Y-132588000D03*
%TO.P,SD,3*%
%TO.N,SD_SPI_MOSI*%
X115062000Y-130048000D03*
%TO.P,SD,2*%
%TO.N,SD_SPI_SCK*%
X115062000Y-127508000D03*
D11*
%TO.P,SD,1*%
%TO.N,SD_SPI_CS*%
X115062000Y-124968000D03*
%TD*%
D13*
%TO.N,+5V*%
X92184003Y-88883001D02*
X92201002Y-88900000D01*
X77181001Y-88883001D02*
X92184003Y-88883001D01*
X92201002Y-88900000D02*
X98298000Y-88900000D01*
X105410000Y-81788000D02*
X98298000Y-88900000D01*
X113030000Y-81788000D02*
X105410000Y-81788000D01*
X117016002Y-133173998D02*
X115062000Y-135128000D01*
X117016002Y-124000590D02*
X117016002Y-133173998D01*
X95885412Y-102870000D02*
X117016002Y-124000590D01*
X93726000Y-102870000D02*
X95885412Y-102870000D01*
X74077000Y-158638002D02*
X73015991Y-157576993D01*
X91551998Y-158638002D02*
X74077000Y-158638002D01*
X115062000Y-135128000D02*
X91551998Y-158638002D01*
X74266998Y-90058002D02*
X72898000Y-91427000D01*
X76006000Y-90058002D02*
X74266998Y-90058002D01*
X77181001Y-88883001D02*
X76006000Y-90058002D01*
X73015991Y-91544991D02*
X73015991Y-94097991D01*
X72898000Y-91427000D02*
X73015991Y-91544991D01*
X73015991Y-94097991D02*
X73015991Y-93849009D01*
X73015991Y-157576993D02*
X73015991Y-94097991D01*
%TO.N,GND*%
X89916000Y-63448002D02*
X89916000Y-54610000D01*
X77181001Y-76183001D02*
X89916000Y-63448002D01*
X77181001Y-76183001D02*
X77181001Y-76983999D01*
X94901001Y-99154999D02*
X93726000Y-100330000D01*
X94178003Y-93963001D02*
X94901001Y-94685999D01*
X77181001Y-93963001D02*
X94178003Y-93963001D01*
X116094999Y-78723001D02*
X116078000Y-78740000D01*
X116078000Y-83820000D02*
X113030000Y-86868000D01*
X74641001Y-157463001D02*
X77181001Y-157463001D01*
X76006000Y-143398002D02*
X77181001Y-142223001D01*
X76006000Y-156288000D02*
X76006000Y-143398002D01*
X77181001Y-157463001D02*
X76006000Y-156288000D01*
X120982000Y-143588000D02*
X131886000Y-143588000D01*
X115062000Y-137668000D02*
X120982000Y-143588000D01*
X135037000Y-135968000D02*
X132080000Y-138925000D01*
X137577000Y-135968000D02*
X135037000Y-135968000D01*
X138141001Y-135403999D02*
X137577000Y-135968000D01*
X138141001Y-134603001D02*
X138141001Y-135403999D01*
X132080000Y-140441002D02*
X132071000Y-140450002D01*
X132071000Y-140450002D02*
X132071000Y-143773000D01*
X132080000Y-138925000D02*
X132080000Y-140441002D01*
X132071000Y-143773000D02*
X135601001Y-147303001D01*
X131886000Y-143588000D02*
X132071000Y-143773000D01*
X134426000Y-156288000D02*
X135601001Y-157463001D01*
X134426000Y-154359000D02*
X134426000Y-156288000D01*
X135037000Y-153748000D02*
X134426000Y-154359000D01*
X136066000Y-153748000D02*
X135037000Y-153748000D01*
X136776002Y-153037998D02*
X136066000Y-153748000D01*
X136776002Y-148478002D02*
X136776002Y-153037998D01*
X135601001Y-147303001D02*
X136776002Y-148478002D01*
X135601001Y-157463001D02*
X138141001Y-157463001D01*
X136776002Y-117998002D02*
X135601001Y-116823001D01*
X136776002Y-119927002D02*
X136776002Y-117998002D01*
X136776002Y-121339000D02*
X136652000Y-121214998D01*
X136652000Y-121214998D02*
X136652000Y-120051004D01*
X136776002Y-129897004D02*
X136776002Y-121339000D01*
X137577000Y-130698002D02*
X136776002Y-129897004D01*
X137577000Y-130888000D02*
X137577000Y-130698002D01*
X136652000Y-120051004D02*
X136776002Y-119927002D01*
X136966000Y-131499000D02*
X137577000Y-130888000D01*
X136966000Y-133428000D02*
X136966000Y-131499000D01*
X138141001Y-134603001D02*
X136966000Y-133428000D01*
X136966000Y-115458002D02*
X135601001Y-116823001D01*
X136966000Y-92598002D02*
X136966000Y-115458002D01*
X138141001Y-91423001D02*
X136966000Y-92598002D01*
X136776002Y-90058002D02*
X138141001Y-91423001D01*
X136776002Y-79898002D02*
X136776002Y-90058002D01*
X135601001Y-78723001D02*
X136776002Y-79898002D01*
X136165002Y-69928000D02*
X125144000Y-69928000D01*
X125144000Y-69928000D02*
X116078000Y-78994000D01*
X136776002Y-70539000D02*
X136165002Y-69928000D01*
X136776002Y-77548000D02*
X136776002Y-70539000D01*
X135601001Y-78723001D02*
X136776002Y-77548000D01*
X116078000Y-78994000D02*
X116078000Y-83820000D01*
X116078000Y-78740000D02*
X116078000Y-78994000D01*
X113030000Y-86868000D02*
X103886000Y-96012000D01*
X103886000Y-96012000D02*
X96227002Y-96012000D01*
X95052001Y-94836999D02*
X94901001Y-94836999D01*
X96227002Y-96012000D02*
X95052001Y-94836999D01*
X94901001Y-94836999D02*
X94901001Y-99154999D01*
X94901001Y-94685999D02*
X94901001Y-94836999D01*
X73466000Y-130698002D02*
X74641001Y-129523001D01*
X73466000Y-137707002D02*
X73466000Y-130698002D01*
X74077000Y-138318002D02*
X73466000Y-137707002D01*
X77555004Y-138318002D02*
X74077000Y-138318002D01*
X78356002Y-139119000D02*
X77555004Y-138318002D01*
X78356002Y-141048000D02*
X78356002Y-139119000D01*
X77181001Y-142223001D02*
X78356002Y-141048000D01*
X92550999Y-101505001D02*
X93726000Y-100330000D01*
X92550999Y-108272005D02*
X92550999Y-101505001D01*
X77745002Y-123078002D02*
X92550999Y-108272005D01*
X76819998Y-123078002D02*
X77745002Y-123078002D01*
X76006000Y-128158002D02*
X76006000Y-123892000D01*
X76006000Y-123892000D02*
X76819998Y-123078002D01*
X74641001Y-129523001D02*
X76006000Y-128158002D01*
X77181001Y-91423001D02*
X77181001Y-93963001D01*
X77181001Y-91423001D02*
X74641001Y-91423001D01*
X78356002Y-77358002D02*
X77181001Y-76183001D01*
X76617000Y-79898002D02*
X77745002Y-79898002D01*
X76006000Y-80509002D02*
X76617000Y-79898002D01*
X76006000Y-81637004D02*
X76006000Y-80509002D01*
X75205002Y-82438002D02*
X76006000Y-81637004D01*
X74266998Y-82438002D02*
X75205002Y-82438002D01*
X78356002Y-79287002D02*
X78356002Y-77358002D01*
X73466000Y-83239000D02*
X74266998Y-82438002D01*
X77745002Y-79898002D02*
X78356002Y-79287002D01*
X73466000Y-84367002D02*
X73466000Y-83239000D01*
X75015004Y-84978002D02*
X74077000Y-84978002D01*
X75816002Y-85779000D02*
X75015004Y-84978002D01*
X75816002Y-86717004D02*
X75816002Y-85779000D01*
X76617000Y-87518002D02*
X75816002Y-86717004D01*
X77745002Y-87518002D02*
X76617000Y-87518002D01*
X114140001Y-80612999D02*
X84650005Y-80612999D01*
X114205001Y-80677999D02*
X114140001Y-80612999D01*
X114140001Y-82963001D02*
X114205001Y-82898001D01*
X111919999Y-82963001D02*
X114140001Y-82963001D01*
X114205001Y-82898001D02*
X114205001Y-80677999D01*
X103459999Y-91423001D02*
X111919999Y-82963001D01*
X74077000Y-84978002D02*
X73466000Y-84367002D01*
X84650005Y-80612999D02*
X77745002Y-87518002D01*
X77181001Y-91423001D02*
X103459999Y-91423001D01*
%TO.N,GY80_I2C_SCL*%
X117296002Y-89408000D02*
X135601001Y-71103001D01*
X113030000Y-89408000D02*
X117296002Y-89408000D01*
%TO.N,GY80_I2C_SDA*%
X117296002Y-91948000D02*
X135601001Y-73643001D01*
X113030000Y-91948000D02*
X117296002Y-91948000D01*
%TO.N,+3V3*%
X93218000Y-70306002D02*
X77181001Y-86343001D01*
X93218000Y-50292000D02*
X93218000Y-70306002D01*
X89916000Y-46990000D02*
X93218000Y-50292000D01*
%TO.N,GPS_UART_TX*%
X75816002Y-77548000D02*
X75816002Y-50929998D01*
X74641001Y-78723001D02*
X75816002Y-77548000D01*
X77216000Y-49530000D02*
X89916000Y-49530000D01*
X75816002Y-50929998D02*
X77216000Y-49530000D01*
%TO.N,GPS_UART_RX*%
X72406999Y-81263001D02*
X72406999Y-49005001D01*
X74641001Y-81263001D02*
X72406999Y-81263001D01*
X91091001Y-50894999D02*
X89916000Y-52070000D01*
X91091001Y-48965999D02*
X91091001Y-50894999D01*
X90480001Y-48354999D02*
X91091001Y-48965999D01*
X84422999Y-48354999D02*
X90480001Y-48354999D01*
X72406999Y-49005001D02*
X78359000Y-43053000D01*
X79121000Y-43053000D02*
X84422999Y-48354999D01*
X78359000Y-43053000D02*
X79121000Y-43053000D01*
X78359000Y-43053000D02*
X78486000Y-42926000D01*
%TO.N,HC05_UART_RX*%
X73466000Y-118188000D02*
X74641001Y-119363001D01*
X73466000Y-111179000D02*
X73466000Y-118188000D01*
X78408000Y-110568000D02*
X74077000Y-110568000D01*
X74077000Y-110568000D02*
X73466000Y-111179000D01*
X93726000Y-95250000D02*
X78408000Y-110568000D01*
%TO.N,HC05_UART_TX*%
X75816002Y-120728000D02*
X74641001Y-121903001D01*
X75816002Y-113908998D02*
X75816002Y-120728000D01*
X76617000Y-113108000D02*
X75816002Y-113908998D01*
X78408000Y-113108000D02*
X76617000Y-113108000D01*
X93726000Y-97790000D02*
X78408000Y-113108000D01*
%TO.N,SD_SPI_MISO*%
X77181001Y-129523001D02*
X80247001Y-129523001D01*
X83312000Y-132588000D02*
X109982000Y-132588000D01*
X80247001Y-129523001D02*
X83312000Y-132588000D01*
X116237001Y-131412999D02*
X115062000Y-132588000D01*
X116237001Y-129483999D02*
X116237001Y-131412999D01*
X115626001Y-128872999D02*
X116237001Y-129483999D01*
X113697001Y-128872999D02*
X115626001Y-128872999D01*
X109982000Y-132588000D02*
X113697001Y-128872999D01*
%TO.N,SD_SPI_MOSI*%
X100346999Y-144763001D02*
X115062000Y-130048000D01*
X77181001Y-144763001D02*
X100346999Y-144763001D01*
%TO.N,SD_SPI_SCK*%
X77831003Y-123792999D02*
X77181001Y-124443001D01*
X116172001Y-123792999D02*
X77831003Y-123792999D01*
X116237001Y-123857999D02*
X116172001Y-123792999D01*
X116237001Y-126332999D02*
X116237001Y-123857999D01*
X115062000Y-127508000D02*
X116237001Y-126332999D01*
%TO.N,SD_SPI_CS*%
X113046999Y-126983001D02*
X115062000Y-124968000D01*
X77181001Y-126983001D02*
X113046999Y-126983001D01*
%TD*%
D14*
X144340001Y-159967572D02*
X144340000Y-159967582D01*
X144340001Y-174340000D01*
X70660000Y-174340000D01*
X70660000Y-81263001D01*
X71643322Y-81263001D01*
X71657996Y-81411987D01*
X71701453Y-81555248D01*
X71772025Y-81687277D01*
X71854686Y-81788000D01*
X71866998Y-81803002D01*
X71982723Y-81897975D01*
X72114752Y-81968547D01*
X72258013Y-82012004D01*
X72406999Y-82026678D01*
X72444332Y-82023001D01*
X73362823Y-82023001D01*
X73460705Y-82169493D01*
X72954998Y-82675201D01*
X72926000Y-82698999D01*
X72902202Y-82727997D01*
X72902201Y-82727998D01*
X72831026Y-82814724D01*
X72760454Y-82946754D01*
X72740660Y-83012010D01*
X72717250Y-83089185D01*
X72716998Y-83090015D01*
X72702324Y-83239000D01*
X72706001Y-83276332D01*
X72706000Y-84329679D01*
X72702324Y-84367002D01*
X72706000Y-84404324D01*
X72706000Y-84404334D01*
X72716997Y-84515987D01*
X72760454Y-84659248D01*
X72831026Y-84791278D01*
X72861996Y-84829015D01*
X72925999Y-84907003D01*
X72955002Y-84930805D01*
X73460705Y-85436510D01*
X73325011Y-85639590D01*
X73213069Y-85909843D01*
X73156001Y-86196741D01*
X73156001Y-86489261D01*
X73213069Y-86776159D01*
X73325011Y-87046412D01*
X73487526Y-87289633D01*
X73694369Y-87496476D01*
X73868761Y-87613001D01*
X73694369Y-87729526D01*
X73487526Y-87936369D01*
X73325011Y-88179590D01*
X73213069Y-88449843D01*
X73156001Y-88736741D01*
X73156001Y-89029261D01*
X73213069Y-89316159D01*
X73325011Y-89586412D01*
X73460705Y-89789493D01*
X72387003Y-90863196D01*
X72357999Y-90886999D01*
X72273597Y-90989843D01*
X72263026Y-91002724D01*
X72192454Y-91134754D01*
X72148998Y-91278015D01*
X72134324Y-91427000D01*
X72148998Y-91575985D01*
X72192454Y-91719246D01*
X72255991Y-91838115D01*
X72255992Y-93811667D01*
X72255991Y-93811676D01*
X72255991Y-94135323D01*
X72255992Y-94135333D01*
X72255991Y-157539671D01*
X72252315Y-157576993D01*
X72255991Y-157614315D01*
X72255991Y-157614325D01*
X72266988Y-157725978D01*
X72310445Y-157869239D01*
X72381017Y-158001269D01*
X72382461Y-158003028D01*
X72475990Y-158116994D01*
X72504993Y-158140797D01*
X73513201Y-159149005D01*
X73536999Y-159178003D01*
X73652724Y-159272976D01*
X73784753Y-159343548D01*
X73928014Y-159387005D01*
X74039667Y-159398002D01*
X74039676Y-159398002D01*
X74076999Y-159401678D01*
X74114322Y-159398002D01*
X91514676Y-159398002D01*
X91551998Y-159401678D01*
X91589320Y-159398002D01*
X91589331Y-159398002D01*
X91700984Y-159387005D01*
X91844245Y-159343548D01*
X91976274Y-159272976D01*
X92091999Y-159178003D01*
X92115802Y-159148999D01*
X113577000Y-137687802D01*
X113577000Y-137814260D01*
X113634068Y-138101158D01*
X113746010Y-138371411D01*
X113908525Y-138614632D01*
X114115368Y-138821475D01*
X114358589Y-138983990D01*
X114628842Y-139095932D01*
X114915740Y-139153000D01*
X115208260Y-139153000D01*
X115428408Y-139109209D01*
X120418200Y-144099002D01*
X120441999Y-144128001D01*
X120557724Y-144222974D01*
X120689753Y-144293546D01*
X120833014Y-144337003D01*
X120944667Y-144348000D01*
X120944676Y-144348000D01*
X120981999Y-144351676D01*
X121019322Y-144348000D01*
X131571199Y-144348000D01*
X134159791Y-146936593D01*
X134116001Y-147156741D01*
X134116001Y-147449261D01*
X134173069Y-147736159D01*
X134285011Y-148006412D01*
X134447526Y-148249633D01*
X134654369Y-148456476D01*
X134828761Y-148573001D01*
X134654369Y-148689526D01*
X134447526Y-148896369D01*
X134285011Y-149139590D01*
X134173069Y-149409843D01*
X134116001Y-149696741D01*
X134116001Y-149989261D01*
X134173069Y-150276159D01*
X134285011Y-150546412D01*
X134447526Y-150789633D01*
X134654369Y-150996476D01*
X134828761Y-151113001D01*
X134654369Y-151229526D01*
X134447526Y-151436369D01*
X134285011Y-151679590D01*
X134173069Y-151949843D01*
X134116001Y-152236741D01*
X134116001Y-152529261D01*
X134173069Y-152816159D01*
X134285011Y-153086412D01*
X134420705Y-153289492D01*
X133915002Y-153795197D01*
X133885999Y-153818999D01*
X133830871Y-153886174D01*
X133791026Y-153934724D01*
X133768766Y-153976369D01*
X133720454Y-154066754D01*
X133676997Y-154210015D01*
X133666000Y-154321668D01*
X133666000Y-154321678D01*
X133662324Y-154359000D01*
X133666000Y-154396323D01*
X133666001Y-156250668D01*
X133662324Y-156288000D01*
X133676998Y-156436985D01*
X133720454Y-156580246D01*
X133791026Y-156712276D01*
X133862201Y-156799002D01*
X133886000Y-156828001D01*
X133914998Y-156851799D01*
X134159792Y-157096593D01*
X134116001Y-157316741D01*
X134116001Y-157609261D01*
X134173069Y-157896159D01*
X134285011Y-158166412D01*
X134447526Y-158409633D01*
X134654369Y-158616476D01*
X134897590Y-158778991D01*
X135167843Y-158890933D01*
X135454741Y-158948001D01*
X135747261Y-158948001D01*
X136034159Y-158890933D01*
X136304412Y-158778991D01*
X136547633Y-158616476D01*
X136754476Y-158409633D01*
X136871001Y-158235241D01*
X136987526Y-158409633D01*
X137194369Y-158616476D01*
X137437590Y-158778991D01*
X137707843Y-158890933D01*
X137994741Y-158948001D01*
X138287261Y-158948001D01*
X138574159Y-158890933D01*
X138844412Y-158778991D01*
X139087633Y-158616476D01*
X139294476Y-158409633D01*
X139456991Y-158166412D01*
X139568933Y-157896159D01*
X139626001Y-157609261D01*
X139626001Y-157316741D01*
X139568933Y-157029843D01*
X139456991Y-156759590D01*
X139294476Y-156516369D01*
X139087633Y-156309526D01*
X138913241Y-156193001D01*
X139087633Y-156076476D01*
X139294476Y-155869633D01*
X139456991Y-155626412D01*
X139568933Y-155356159D01*
X139626001Y-155069261D01*
X139626001Y-154776741D01*
X139568933Y-154489843D01*
X139456991Y-154219590D01*
X139294476Y-153976369D01*
X139087633Y-153769526D01*
X138913241Y-153653001D01*
X139087633Y-153536476D01*
X139294476Y-153329633D01*
X139456991Y-153086412D01*
X139568933Y-152816159D01*
X139626001Y-152529261D01*
X139626001Y-152236741D01*
X139568933Y-151949843D01*
X139456991Y-151679590D01*
X139294476Y-151436369D01*
X139087633Y-151229526D01*
X138913241Y-151113001D01*
X139087633Y-150996476D01*
X139294476Y-150789633D01*
X139456991Y-150546412D01*
X139568933Y-150276159D01*
X139626001Y-149989261D01*
X139626001Y-149696741D01*
X139568933Y-149409843D01*
X139456991Y-149139590D01*
X139294476Y-148896369D01*
X139087633Y-148689526D01*
X138913241Y-148573001D01*
X139087633Y-148456476D01*
X139294476Y-148249633D01*
X139456991Y-148006412D01*
X139568933Y-147736159D01*
X139626001Y-147449261D01*
X139626001Y-147156741D01*
X139568933Y-146869843D01*
X139456991Y-146599590D01*
X139294476Y-146356369D01*
X139087633Y-146149526D01*
X138913241Y-146033001D01*
X139087633Y-145916476D01*
X139294476Y-145709633D01*
X139456991Y-145466412D01*
X139568933Y-145196159D01*
X139626001Y-144909261D01*
X139626001Y-144616741D01*
X139568933Y-144329843D01*
X139456991Y-144059590D01*
X139294476Y-143816369D01*
X139087633Y-143609526D01*
X138913241Y-143493001D01*
X139087633Y-143376476D01*
X139294476Y-143169633D01*
X139456991Y-142926412D01*
X139568933Y-142656159D01*
X139626001Y-142369261D01*
X139626001Y-142076741D01*
X139568933Y-141789843D01*
X139456991Y-141519590D01*
X139294476Y-141276369D01*
X139087633Y-141069526D01*
X138913241Y-140953001D01*
X139087633Y-140836476D01*
X139294476Y-140629633D01*
X139456991Y-140386412D01*
X139568933Y-140116159D01*
X139626001Y-139829261D01*
X139626001Y-139536741D01*
X139568933Y-139249843D01*
X139456991Y-138979590D01*
X139294476Y-138736369D01*
X139087633Y-138529526D01*
X138913241Y-138413001D01*
X139087633Y-138296476D01*
X139294476Y-138089633D01*
X139456991Y-137846412D01*
X139568933Y-137576159D01*
X139626001Y-137289261D01*
X139626001Y-136996741D01*
X139568933Y-136709843D01*
X139456991Y-136439590D01*
X139294476Y-136196369D01*
X139087633Y-135989526D01*
X138913241Y-135873001D01*
X139087633Y-135756476D01*
X139294476Y-135549633D01*
X139456991Y-135306412D01*
X139568933Y-135036159D01*
X139626001Y-134749261D01*
X139626001Y-134456741D01*
X139568933Y-134169843D01*
X139456991Y-133899590D01*
X139294476Y-133656369D01*
X139087633Y-133449526D01*
X138913241Y-133333001D01*
X139087633Y-133216476D01*
X139294476Y-133009633D01*
X139456991Y-132766412D01*
X139568933Y-132496159D01*
X139626001Y-132209261D01*
X139626001Y-131916741D01*
X139568933Y-131629843D01*
X139456991Y-131359590D01*
X139294476Y-131116369D01*
X139087633Y-130909526D01*
X138913241Y-130793001D01*
X139087633Y-130676476D01*
X139294476Y-130469633D01*
X139456991Y-130226412D01*
X139568933Y-129956159D01*
X139626001Y-129669261D01*
X139626001Y-129376741D01*
X139568933Y-129089843D01*
X139456991Y-128819590D01*
X139294476Y-128576369D01*
X139087633Y-128369526D01*
X138913241Y-128253001D01*
X139087633Y-128136476D01*
X139294476Y-127929633D01*
X139456991Y-127686412D01*
X139568933Y-127416159D01*
X139626001Y-127129261D01*
X139626001Y-126836741D01*
X139568933Y-126549843D01*
X139456991Y-126279590D01*
X139294476Y-126036369D01*
X139087633Y-125829526D01*
X138913241Y-125713001D01*
X139087633Y-125596476D01*
X139294476Y-125389633D01*
X139456991Y-125146412D01*
X139568933Y-124876159D01*
X139626001Y-124589261D01*
X139626001Y-124296741D01*
X139568933Y-124009843D01*
X139456991Y-123739590D01*
X139294476Y-123496369D01*
X139087633Y-123289526D01*
X138913241Y-123173001D01*
X139087633Y-123056476D01*
X139294476Y-122849633D01*
X139456991Y-122606412D01*
X139568933Y-122336159D01*
X139626001Y-122049261D01*
X139626001Y-121756741D01*
X139568933Y-121469843D01*
X139456991Y-121199590D01*
X139294476Y-120956369D01*
X139087633Y-120749526D01*
X138913241Y-120633001D01*
X139087633Y-120516476D01*
X139294476Y-120309633D01*
X139456991Y-120066412D01*
X139568933Y-119796159D01*
X139626001Y-119509261D01*
X139626001Y-119216741D01*
X139568933Y-118929843D01*
X139456991Y-118659590D01*
X139294476Y-118416369D01*
X139087633Y-118209526D01*
X138913241Y-118093001D01*
X139087633Y-117976476D01*
X139294476Y-117769633D01*
X139456991Y-117526412D01*
X139568933Y-117256159D01*
X139626001Y-116969261D01*
X139626001Y-116676741D01*
X139568933Y-116389843D01*
X139456991Y-116119590D01*
X139294476Y-115876369D01*
X139087633Y-115669526D01*
X138913241Y-115553001D01*
X139087633Y-115436476D01*
X139294476Y-115229633D01*
X139456991Y-114986412D01*
X139568933Y-114716159D01*
X139626001Y-114429261D01*
X139626001Y-114136741D01*
X139568933Y-113849843D01*
X139456991Y-113579590D01*
X139294476Y-113336369D01*
X139087633Y-113129526D01*
X138913241Y-113013001D01*
X139087633Y-112896476D01*
X139294476Y-112689633D01*
X139456991Y-112446412D01*
X139568933Y-112176159D01*
X139626001Y-111889261D01*
X139626001Y-111596741D01*
X139568933Y-111309843D01*
X139456991Y-111039590D01*
X139294476Y-110796369D01*
X139087633Y-110589526D01*
X138913241Y-110473001D01*
X139087633Y-110356476D01*
X139294476Y-110149633D01*
X139456991Y-109906412D01*
X139568933Y-109636159D01*
X139626001Y-109349261D01*
X139626001Y-109056741D01*
X139568933Y-108769843D01*
X139456991Y-108499590D01*
X139294476Y-108256369D01*
X139087633Y-108049526D01*
X138913241Y-107933001D01*
X139087633Y-107816476D01*
X139294476Y-107609633D01*
X139456991Y-107366412D01*
X139568933Y-107096159D01*
X139626001Y-106809261D01*
X139626001Y-106516741D01*
X139568933Y-106229843D01*
X139456991Y-105959590D01*
X139294476Y-105716369D01*
X139087633Y-105509526D01*
X138913241Y-105393001D01*
X139087633Y-105276476D01*
X139294476Y-105069633D01*
X139456991Y-104826412D01*
X139568933Y-104556159D01*
X139626001Y-104269261D01*
X139626001Y-103976741D01*
X139568933Y-103689843D01*
X139456991Y-103419590D01*
X139294476Y-103176369D01*
X139087633Y-102969526D01*
X138913241Y-102853001D01*
X139087633Y-102736476D01*
X139294476Y-102529633D01*
X139456991Y-102286412D01*
X139568933Y-102016159D01*
X139626001Y-101729261D01*
X139626001Y-101436741D01*
X139568933Y-101149843D01*
X139456991Y-100879590D01*
X139294476Y-100636369D01*
X139087633Y-100429526D01*
X138913241Y-100313001D01*
X139087633Y-100196476D01*
X139294476Y-99989633D01*
X139456991Y-99746412D01*
X139568933Y-99476159D01*
X139626001Y-99189261D01*
X139626001Y-98896741D01*
X139568933Y-98609843D01*
X139456991Y-98339590D01*
X139294476Y-98096369D01*
X139087633Y-97889526D01*
X138913241Y-97773001D01*
X139087633Y-97656476D01*
X139294476Y-97449633D01*
X139456991Y-97206412D01*
X139568933Y-96936159D01*
X139626001Y-96649261D01*
X139626001Y-96356741D01*
X139568933Y-96069843D01*
X139456991Y-95799590D01*
X139294476Y-95556369D01*
X139087633Y-95349526D01*
X138913241Y-95233001D01*
X139087633Y-95116476D01*
X139294476Y-94909633D01*
X139456991Y-94666412D01*
X139568933Y-94396159D01*
X139626001Y-94109261D01*
X139626001Y-93816741D01*
X139568933Y-93529843D01*
X139456991Y-93259590D01*
X139294476Y-93016369D01*
X139087633Y-92809526D01*
X138913241Y-92693001D01*
X139087633Y-92576476D01*
X139294476Y-92369633D01*
X139456991Y-92126412D01*
X139568933Y-91856159D01*
X139626001Y-91569261D01*
X139626001Y-91276741D01*
X139568933Y-90989843D01*
X139456991Y-90719590D01*
X139294476Y-90476369D01*
X139087633Y-90269526D01*
X138913241Y-90153001D01*
X139087633Y-90036476D01*
X139294476Y-89829633D01*
X139456991Y-89586412D01*
X139568933Y-89316159D01*
X139626001Y-89029261D01*
X139626001Y-88736741D01*
X139568933Y-88449843D01*
X139456991Y-88179590D01*
X139294476Y-87936369D01*
X139087633Y-87729526D01*
X138913241Y-87613001D01*
X139087633Y-87496476D01*
X139294476Y-87289633D01*
X139456991Y-87046412D01*
X139568933Y-86776159D01*
X139626001Y-86489261D01*
X139626001Y-86196741D01*
X139568933Y-85909843D01*
X139456991Y-85639590D01*
X139294476Y-85396369D01*
X139087633Y-85189526D01*
X138913241Y-85073001D01*
X139087633Y-84956476D01*
X139294476Y-84749633D01*
X139456991Y-84506412D01*
X139568933Y-84236159D01*
X139626001Y-83949261D01*
X139626001Y-83656741D01*
X139568933Y-83369843D01*
X139456991Y-83099590D01*
X139294476Y-82856369D01*
X139087633Y-82649526D01*
X138913241Y-82533001D01*
X139087633Y-82416476D01*
X139294476Y-82209633D01*
X139456991Y-81966412D01*
X139568933Y-81696159D01*
X139626001Y-81409261D01*
X139626001Y-81116741D01*
X139568933Y-80829843D01*
X139456991Y-80559590D01*
X139294476Y-80316369D01*
X139087633Y-80109526D01*
X138913241Y-79993001D01*
X139087633Y-79876476D01*
X139294476Y-79669633D01*
X139456991Y-79426412D01*
X139568933Y-79156159D01*
X139626001Y-78869261D01*
X139626001Y-78576741D01*
X139568933Y-78289843D01*
X139456991Y-78019590D01*
X139294476Y-77776369D01*
X139087633Y-77569526D01*
X138913241Y-77453001D01*
X139087633Y-77336476D01*
X139294476Y-77129633D01*
X139456991Y-76886412D01*
X139568933Y-76616159D01*
X139626001Y-76329261D01*
X139626001Y-76036741D01*
X139568933Y-75749843D01*
X139456991Y-75479590D01*
X139294476Y-75236369D01*
X139087633Y-75029526D01*
X138913241Y-74913001D01*
X139087633Y-74796476D01*
X139294476Y-74589633D01*
X139456991Y-74346412D01*
X139568933Y-74076159D01*
X139626001Y-73789261D01*
X139626001Y-73496741D01*
X139568933Y-73209843D01*
X139456991Y-72939590D01*
X139294476Y-72696369D01*
X139087633Y-72489526D01*
X138913241Y-72373001D01*
X139087633Y-72256476D01*
X139294476Y-72049633D01*
X139456991Y-71806412D01*
X139568933Y-71536159D01*
X139626001Y-71249261D01*
X139626001Y-70956741D01*
X139568933Y-70669843D01*
X139456991Y-70399590D01*
X139294476Y-70156369D01*
X139087633Y-69949526D01*
X138913241Y-69833001D01*
X139087633Y-69716476D01*
X139294476Y-69509633D01*
X139456991Y-69266412D01*
X139568933Y-68996159D01*
X139626001Y-68709261D01*
X139626001Y-68416741D01*
X139568933Y-68129843D01*
X139456991Y-67859590D01*
X139294476Y-67616369D01*
X139087633Y-67409526D01*
X138844412Y-67247011D01*
X138574159Y-67135069D01*
X138287261Y-67078001D01*
X137994741Y-67078001D01*
X137707843Y-67135069D01*
X137437590Y-67247011D01*
X137194369Y-67409526D01*
X136987526Y-67616369D01*
X136871001Y-67790761D01*
X136754476Y-67616369D01*
X136547633Y-67409526D01*
X136304412Y-67247011D01*
X136034159Y-67135069D01*
X135747261Y-67078001D01*
X135454741Y-67078001D01*
X135167843Y-67135069D01*
X134897590Y-67247011D01*
X134654369Y-67409526D01*
X134447526Y-67616369D01*
X134285011Y-67859590D01*
X134173069Y-68129843D01*
X134116001Y-68416741D01*
X134116001Y-68709261D01*
X134173069Y-68996159D01*
X134244248Y-69168000D01*
X125181322Y-69168000D01*
X125143999Y-69164324D01*
X125106676Y-69168000D01*
X125106667Y-69168000D01*
X124995014Y-69178997D01*
X124851753Y-69222454D01*
X124719723Y-69293026D01*
X124636083Y-69361668D01*
X124603999Y-69387999D01*
X124580201Y-69416997D01*
X116031633Y-77965566D01*
X115946013Y-77973999D01*
X115802753Y-78017455D01*
X115670723Y-78088028D01*
X115583997Y-78159202D01*
X115567003Y-78176196D01*
X115537999Y-78199999D01*
X115494055Y-78253546D01*
X115443026Y-78315724D01*
X115381540Y-78430755D01*
X115372454Y-78447754D01*
X115328997Y-78591015D01*
X115318000Y-78702668D01*
X115318000Y-78702678D01*
X115314324Y-78740000D01*
X115318000Y-78777322D01*
X115318000Y-78956678D01*
X115314324Y-78994000D01*
X115318000Y-79031323D01*
X115318001Y-83505197D01*
X114515000Y-84308198D01*
X114515000Y-84181740D01*
X114457932Y-83894842D01*
X114371794Y-83686885D01*
X114432248Y-83668547D01*
X114564277Y-83597975D01*
X114680002Y-83503002D01*
X114703805Y-83473998D01*
X114715999Y-83461804D01*
X114745002Y-83438002D01*
X114839975Y-83322277D01*
X114910547Y-83190248D01*
X114954004Y-83046987D01*
X114965001Y-82935334D01*
X114965001Y-82935323D01*
X114968677Y-82898001D01*
X114965001Y-82860678D01*
X114965001Y-80715322D01*
X114968677Y-80677999D01*
X114965001Y-80640677D01*
X114965001Y-80640666D01*
X114954004Y-80529013D01*
X114910547Y-80385752D01*
X114839975Y-80253723D01*
X114745002Y-80137998D01*
X114715998Y-80114195D01*
X114703805Y-80102002D01*
X114680002Y-80072998D01*
X114564277Y-79978025D01*
X114432248Y-79907453D01*
X114288987Y-79863996D01*
X114177334Y-79852999D01*
X114177323Y-79852999D01*
X114140001Y-79849323D01*
X114102679Y-79852999D01*
X84745805Y-79852999D01*
X93729008Y-70869797D01*
X93758001Y-70846003D01*
X93781795Y-70817010D01*
X93781799Y-70817006D01*
X93852973Y-70730279D01*
X93875580Y-70687985D01*
X93923546Y-70598249D01*
X93967003Y-70454988D01*
X93978000Y-70343335D01*
X93978000Y-70343326D01*
X93981676Y-70306003D01*
X93978000Y-70268680D01*
X93978000Y-65852722D01*
X128406001Y-65852722D01*
X128406001Y-66273280D01*
X128488048Y-66685757D01*
X128648989Y-67074303D01*
X128882638Y-67423984D01*
X129180018Y-67721364D01*
X129529699Y-67955013D01*
X129918245Y-68115954D01*
X130330722Y-68198001D01*
X130751280Y-68198001D01*
X131163757Y-68115954D01*
X131552303Y-67955013D01*
X131901984Y-67721364D01*
X132199364Y-67423984D01*
X132433013Y-67074303D01*
X132593954Y-66685757D01*
X132676001Y-66273280D01*
X132676001Y-65852722D01*
X132593954Y-65440245D01*
X132433013Y-65051699D01*
X132199364Y-64702018D01*
X131901984Y-64404638D01*
X131552303Y-64170989D01*
X131163757Y-64010048D01*
X130751280Y-63928001D01*
X130330722Y-63928001D01*
X129918245Y-64010048D01*
X129529699Y-64170989D01*
X129180018Y-64404638D01*
X128882638Y-64702018D01*
X128648989Y-65051699D01*
X128488048Y-65440245D01*
X128406001Y-65852722D01*
X93978000Y-65852722D01*
X93978000Y-50329322D01*
X93981676Y-50291999D01*
X93978000Y-50254676D01*
X93978000Y-50254667D01*
X93967003Y-50143014D01*
X93923546Y-49999753D01*
X93852974Y-49867724D01*
X93758001Y-49751999D01*
X93729004Y-49728202D01*
X91404072Y-47403271D01*
X91404072Y-46140000D01*
X91391812Y-46015518D01*
X91355502Y-45895820D01*
X91296537Y-45785506D01*
X91217185Y-45688815D01*
X91120494Y-45609463D01*
X91010180Y-45550498D01*
X90890482Y-45514188D01*
X90766000Y-45501928D01*
X89066000Y-45501928D01*
X88941518Y-45514188D01*
X88821820Y-45550498D01*
X88711506Y-45609463D01*
X88614815Y-45688815D01*
X88535463Y-45785506D01*
X88476498Y-45895820D01*
X88440188Y-46015518D01*
X88427928Y-46140000D01*
X88427928Y-47594999D01*
X84737801Y-47594999D01*
X79684804Y-42542003D01*
X79661001Y-42512999D01*
X79545276Y-42418026D01*
X79413247Y-42347454D01*
X79269986Y-42303997D01*
X79158333Y-42293000D01*
X79158322Y-42293000D01*
X79121000Y-42289324D01*
X79083678Y-42293000D01*
X78912681Y-42293000D01*
X78910276Y-42291026D01*
X78778246Y-42220454D01*
X78634985Y-42176998D01*
X78485999Y-42162324D01*
X78337014Y-42176998D01*
X78193754Y-42220454D01*
X78061724Y-42291026D01*
X77974998Y-42362201D01*
X77848003Y-42489196D01*
X77818999Y-42512999D01*
X77795201Y-42541997D01*
X71895997Y-48441202D01*
X71866999Y-48465000D01*
X71843201Y-48493998D01*
X71843200Y-48493999D01*
X71772025Y-48580725D01*
X71701453Y-48712755D01*
X71685204Y-48766324D01*
X71657997Y-48856015D01*
X71647000Y-48967668D01*
X71643323Y-49005001D01*
X71647000Y-49042334D01*
X71646999Y-81225668D01*
X71643322Y-81263001D01*
X70660000Y-81263001D01*
X70660000Y-40476741D01*
X73156001Y-40476741D01*
X73156001Y-40769261D01*
X73213069Y-41056159D01*
X73325011Y-41326412D01*
X73487526Y-41569633D01*
X73694369Y-41776476D01*
X73868761Y-41893001D01*
X73694369Y-42009526D01*
X73487526Y-42216369D01*
X73325011Y-42459590D01*
X73213069Y-42729843D01*
X73156001Y-43016741D01*
X73156001Y-43309261D01*
X73213069Y-43596159D01*
X73325011Y-43866412D01*
X73487526Y-44109633D01*
X73694369Y-44316476D01*
X73937590Y-44478991D01*
X74207843Y-44590933D01*
X74494741Y-44648001D01*
X74787261Y-44648001D01*
X75074159Y-44590933D01*
X75344412Y-44478991D01*
X75587633Y-44316476D01*
X75794476Y-44109633D01*
X75956991Y-43866412D01*
X76068933Y-43596159D01*
X76126001Y-43309261D01*
X76126001Y-43016741D01*
X76068933Y-42729843D01*
X75956991Y-42459590D01*
X75794476Y-42216369D01*
X75587633Y-42009526D01*
X75413241Y-41893001D01*
X75587633Y-41776476D01*
X75794476Y-41569633D01*
X75956991Y-41326412D01*
X76068933Y-41056159D01*
X76126001Y-40769261D01*
X76126001Y-40476741D01*
X136656001Y-40476741D01*
X136656001Y-40769261D01*
X136713069Y-41056159D01*
X136825011Y-41326412D01*
X136987526Y-41569633D01*
X137194369Y-41776476D01*
X137368761Y-41893001D01*
X137194369Y-42009526D01*
X136987526Y-42216369D01*
X136825011Y-42459590D01*
X136713069Y-42729843D01*
X136656001Y-43016741D01*
X136656001Y-43309261D01*
X136713069Y-43596159D01*
X136825011Y-43866412D01*
X136987526Y-44109633D01*
X137194369Y-44316476D01*
X137437590Y-44478991D01*
X137707843Y-44590933D01*
X137994741Y-44648001D01*
X138287261Y-44648001D01*
X138574159Y-44590933D01*
X138844412Y-44478991D01*
X139087633Y-44316476D01*
X139294476Y-44109633D01*
X139456991Y-43866412D01*
X139568933Y-43596159D01*
X139626001Y-43309261D01*
X139626001Y-43016741D01*
X139568933Y-42729843D01*
X139456991Y-42459590D01*
X139294476Y-42216369D01*
X139087633Y-42009526D01*
X138913241Y-41893001D01*
X139087633Y-41776476D01*
X139294476Y-41569633D01*
X139456991Y-41326412D01*
X139568933Y-41056159D01*
X139626001Y-40769261D01*
X139626001Y-40476741D01*
X139568933Y-40189843D01*
X139456991Y-39919590D01*
X139294476Y-39676369D01*
X139087633Y-39469526D01*
X138844412Y-39307011D01*
X138574159Y-39195069D01*
X138287261Y-39138001D01*
X137994741Y-39138001D01*
X137707843Y-39195069D01*
X137437590Y-39307011D01*
X137194369Y-39469526D01*
X136987526Y-39676369D01*
X136825011Y-39919590D01*
X136713069Y-40189843D01*
X136656001Y-40476741D01*
X76126001Y-40476741D01*
X76068933Y-40189843D01*
X75956991Y-39919590D01*
X75794476Y-39676369D01*
X75587633Y-39469526D01*
X75344412Y-39307011D01*
X75074159Y-39195069D01*
X74787261Y-39138001D01*
X74494741Y-39138001D01*
X74207843Y-39195069D01*
X73937590Y-39307011D01*
X73694369Y-39469526D01*
X73487526Y-39676369D01*
X73325011Y-39919590D01*
X73213069Y-40189843D01*
X73156001Y-40476741D01*
X70660000Y-40476741D01*
X70660000Y-35660000D01*
X144340000Y-35660000D01*
X144340001Y-159967572D01*
%TA.AperFunction,NonConductor*%
D15*
G36*
X144340001Y-159967572D02*
G01*
X144340000Y-159967582D01*
X144340001Y-174340000D01*
X70660000Y-174340000D01*
X70660000Y-81263001D01*
X71643322Y-81263001D01*
X71657996Y-81411987D01*
X71701453Y-81555248D01*
X71772025Y-81687277D01*
X71854686Y-81788000D01*
X71866998Y-81803002D01*
X71982723Y-81897975D01*
X72114752Y-81968547D01*
X72258013Y-82012004D01*
X72406999Y-82026678D01*
X72444332Y-82023001D01*
X73362823Y-82023001D01*
X73460705Y-82169493D01*
X72954998Y-82675201D01*
X72926000Y-82698999D01*
X72902202Y-82727997D01*
X72902201Y-82727998D01*
X72831026Y-82814724D01*
X72760454Y-82946754D01*
X72740660Y-83012010D01*
X72717250Y-83089185D01*
X72716998Y-83090015D01*
X72702324Y-83239000D01*
X72706001Y-83276332D01*
X72706000Y-84329679D01*
X72702324Y-84367002D01*
X72706000Y-84404324D01*
X72706000Y-84404334D01*
X72716997Y-84515987D01*
X72760454Y-84659248D01*
X72831026Y-84791278D01*
X72861996Y-84829015D01*
X72925999Y-84907003D01*
X72955002Y-84930805D01*
X73460705Y-85436510D01*
X73325011Y-85639590D01*
X73213069Y-85909843D01*
X73156001Y-86196741D01*
X73156001Y-86489261D01*
X73213069Y-86776159D01*
X73325011Y-87046412D01*
X73487526Y-87289633D01*
X73694369Y-87496476D01*
X73868761Y-87613001D01*
X73694369Y-87729526D01*
X73487526Y-87936369D01*
X73325011Y-88179590D01*
X73213069Y-88449843D01*
X73156001Y-88736741D01*
X73156001Y-89029261D01*
X73213069Y-89316159D01*
X73325011Y-89586412D01*
X73460705Y-89789493D01*
X72387003Y-90863196D01*
X72357999Y-90886999D01*
X72273597Y-90989843D01*
X72263026Y-91002724D01*
X72192454Y-91134754D01*
X72148998Y-91278015D01*
X72134324Y-91427000D01*
X72148998Y-91575985D01*
X72192454Y-91719246D01*
X72255991Y-91838115D01*
X72255992Y-93811667D01*
X72255991Y-93811676D01*
X72255991Y-94135323D01*
X72255992Y-94135333D01*
X72255991Y-157539671D01*
X72252315Y-157576993D01*
X72255991Y-157614315D01*
X72255991Y-157614325D01*
X72266988Y-157725978D01*
X72310445Y-157869239D01*
X72381017Y-158001269D01*
X72382461Y-158003028D01*
X72475990Y-158116994D01*
X72504993Y-158140797D01*
X73513201Y-159149005D01*
X73536999Y-159178003D01*
X73652724Y-159272976D01*
X73784753Y-159343548D01*
X73928014Y-159387005D01*
X74039667Y-159398002D01*
X74039676Y-159398002D01*
X74076999Y-159401678D01*
X74114322Y-159398002D01*
X91514676Y-159398002D01*
X91551998Y-159401678D01*
X91589320Y-159398002D01*
X91589331Y-159398002D01*
X91700984Y-159387005D01*
X91844245Y-159343548D01*
X91976274Y-159272976D01*
X92091999Y-159178003D01*
X92115802Y-159148999D01*
X113577000Y-137687802D01*
X113577000Y-137814260D01*
X113634068Y-138101158D01*
X113746010Y-138371411D01*
X113908525Y-138614632D01*
X114115368Y-138821475D01*
X114358589Y-138983990D01*
X114628842Y-139095932D01*
X114915740Y-139153000D01*
X115208260Y-139153000D01*
X115428408Y-139109209D01*
X120418200Y-144099002D01*
X120441999Y-144128001D01*
X120557724Y-144222974D01*
X120689753Y-144293546D01*
X120833014Y-144337003D01*
X120944667Y-144348000D01*
X120944676Y-144348000D01*
X120981999Y-144351676D01*
X121019322Y-144348000D01*
X131571199Y-144348000D01*
X134159791Y-146936593D01*
X134116001Y-147156741D01*
X134116001Y-147449261D01*
X134173069Y-147736159D01*
X134285011Y-148006412D01*
X134447526Y-148249633D01*
X134654369Y-148456476D01*
X134828761Y-148573001D01*
X134654369Y-148689526D01*
X134447526Y-148896369D01*
X134285011Y-149139590D01*
X134173069Y-149409843D01*
X134116001Y-149696741D01*
X134116001Y-149989261D01*
X134173069Y-150276159D01*
X134285011Y-150546412D01*
X134447526Y-150789633D01*
X134654369Y-150996476D01*
X134828761Y-151113001D01*
X134654369Y-151229526D01*
X134447526Y-151436369D01*
X134285011Y-151679590D01*
X134173069Y-151949843D01*
X134116001Y-152236741D01*
X134116001Y-152529261D01*
X134173069Y-152816159D01*
X134285011Y-153086412D01*
X134420705Y-153289492D01*
X133915002Y-153795197D01*
X133885999Y-153818999D01*
X133830871Y-153886174D01*
X133791026Y-153934724D01*
X133768766Y-153976369D01*
X133720454Y-154066754D01*
X133676997Y-154210015D01*
X133666000Y-154321668D01*
X133666000Y-154321678D01*
X133662324Y-154359000D01*
X133666000Y-154396323D01*
X133666001Y-156250668D01*
X133662324Y-156288000D01*
X133676998Y-156436985D01*
X133720454Y-156580246D01*
X133791026Y-156712276D01*
X133862201Y-156799002D01*
X133886000Y-156828001D01*
X133914998Y-156851799D01*
X134159792Y-157096593D01*
X134116001Y-157316741D01*
X134116001Y-157609261D01*
X134173069Y-157896159D01*
X134285011Y-158166412D01*
X134447526Y-158409633D01*
X134654369Y-158616476D01*
X134897590Y-158778991D01*
X135167843Y-158890933D01*
X135454741Y-158948001D01*
X135747261Y-158948001D01*
X136034159Y-158890933D01*
X136304412Y-158778991D01*
X136547633Y-158616476D01*
X136754476Y-158409633D01*
X136871001Y-158235241D01*
X136987526Y-158409633D01*
X137194369Y-158616476D01*
X137437590Y-158778991D01*
X137707843Y-158890933D01*
X137994741Y-158948001D01*
X138287261Y-158948001D01*
X138574159Y-158890933D01*
X138844412Y-158778991D01*
X139087633Y-158616476D01*
X139294476Y-158409633D01*
X139456991Y-158166412D01*
X139568933Y-157896159D01*
X139626001Y-157609261D01*
X139626001Y-157316741D01*
X139568933Y-157029843D01*
X139456991Y-156759590D01*
X139294476Y-156516369D01*
X139087633Y-156309526D01*
X138913241Y-156193001D01*
X139087633Y-156076476D01*
X139294476Y-155869633D01*
X139456991Y-155626412D01*
X139568933Y-155356159D01*
X139626001Y-155069261D01*
X139626001Y-154776741D01*
X139568933Y-154489843D01*
X139456991Y-154219590D01*
X139294476Y-153976369D01*
X139087633Y-153769526D01*
X138913241Y-153653001D01*
X139087633Y-153536476D01*
X139294476Y-153329633D01*
X139456991Y-153086412D01*
X139568933Y-152816159D01*
X139626001Y-152529261D01*
X139626001Y-152236741D01*
X139568933Y-151949843D01*
X139456991Y-151679590D01*
X139294476Y-151436369D01*
X139087633Y-151229526D01*
X138913241Y-151113001D01*
X139087633Y-150996476D01*
X139294476Y-150789633D01*
X139456991Y-150546412D01*
X139568933Y-150276159D01*
X139626001Y-149989261D01*
X139626001Y-149696741D01*
X139568933Y-149409843D01*
X139456991Y-149139590D01*
X139294476Y-148896369D01*
X139087633Y-148689526D01*
X138913241Y-148573001D01*
X139087633Y-148456476D01*
X139294476Y-148249633D01*
X139456991Y-148006412D01*
X139568933Y-147736159D01*
X139626001Y-147449261D01*
X139626001Y-147156741D01*
X139568933Y-146869843D01*
X139456991Y-146599590D01*
X139294476Y-146356369D01*
X139087633Y-146149526D01*
X138913241Y-146033001D01*
X139087633Y-145916476D01*
X139294476Y-145709633D01*
X139456991Y-145466412D01*
X139568933Y-145196159D01*
X139626001Y-144909261D01*
X139626001Y-144616741D01*
X139568933Y-144329843D01*
X139456991Y-144059590D01*
X139294476Y-143816369D01*
X139087633Y-143609526D01*
X138913241Y-143493001D01*
X139087633Y-143376476D01*
X139294476Y-143169633D01*
X139456991Y-142926412D01*
X139568933Y-142656159D01*
X139626001Y-142369261D01*
X139626001Y-142076741D01*
X139568933Y-141789843D01*
X139456991Y-141519590D01*
X139294476Y-141276369D01*
X139087633Y-141069526D01*
X138913241Y-140953001D01*
X139087633Y-140836476D01*
X139294476Y-140629633D01*
X139456991Y-140386412D01*
X139568933Y-140116159D01*
X139626001Y-139829261D01*
X139626001Y-139536741D01*
X139568933Y-139249843D01*
X139456991Y-138979590D01*
X139294476Y-138736369D01*
X139087633Y-138529526D01*
X138913241Y-138413001D01*
X139087633Y-138296476D01*
X139294476Y-138089633D01*
X139456991Y-137846412D01*
X139568933Y-137576159D01*
X139626001Y-137289261D01*
X139626001Y-136996741D01*
X139568933Y-136709843D01*
X139456991Y-136439590D01*
X139294476Y-136196369D01*
X139087633Y-135989526D01*
X138913241Y-135873001D01*
X139087633Y-135756476D01*
X139294476Y-135549633D01*
X139456991Y-135306412D01*
X139568933Y-135036159D01*
X139626001Y-134749261D01*
X139626001Y-134456741D01*
X139568933Y-134169843D01*
X139456991Y-133899590D01*
X139294476Y-133656369D01*
X139087633Y-133449526D01*
X138913241Y-133333001D01*
X139087633Y-133216476D01*
X139294476Y-133009633D01*
X139456991Y-132766412D01*
X139568933Y-132496159D01*
X139626001Y-132209261D01*
X139626001Y-131916741D01*
X139568933Y-131629843D01*
X139456991Y-131359590D01*
X139294476Y-131116369D01*
X139087633Y-130909526D01*
X138913241Y-130793001D01*
X139087633Y-130676476D01*
X139294476Y-130469633D01*
X139456991Y-130226412D01*
X139568933Y-129956159D01*
X139626001Y-129669261D01*
X139626001Y-129376741D01*
X139568933Y-129089843D01*
X139456991Y-128819590D01*
X139294476Y-128576369D01*
X139087633Y-128369526D01*
X138913241Y-128253001D01*
X139087633Y-128136476D01*
X139294476Y-127929633D01*
X139456991Y-127686412D01*
X139568933Y-127416159D01*
X139626001Y-127129261D01*
X139626001Y-126836741D01*
X139568933Y-126549843D01*
X139456991Y-126279590D01*
X139294476Y-126036369D01*
X139087633Y-125829526D01*
X138913241Y-125713001D01*
X139087633Y-125596476D01*
X139294476Y-125389633D01*
X139456991Y-125146412D01*
X139568933Y-124876159D01*
X139626001Y-124589261D01*
X139626001Y-124296741D01*
X139568933Y-124009843D01*
X139456991Y-123739590D01*
X139294476Y-123496369D01*
X139087633Y-123289526D01*
X138913241Y-123173001D01*
X139087633Y-123056476D01*
X139294476Y-122849633D01*
X139456991Y-122606412D01*
X139568933Y-122336159D01*
X139626001Y-122049261D01*
X139626001Y-121756741D01*
X139568933Y-121469843D01*
X139456991Y-121199590D01*
X139294476Y-120956369D01*
X139087633Y-120749526D01*
X138913241Y-120633001D01*
X139087633Y-120516476D01*
X139294476Y-120309633D01*
X139456991Y-120066412D01*
X139568933Y-119796159D01*
X139626001Y-119509261D01*
X139626001Y-119216741D01*
X139568933Y-118929843D01*
X139456991Y-118659590D01*
X139294476Y-118416369D01*
X139087633Y-118209526D01*
X138913241Y-118093001D01*
X139087633Y-117976476D01*
X139294476Y-117769633D01*
X139456991Y-117526412D01*
X139568933Y-117256159D01*
X139626001Y-116969261D01*
X139626001Y-116676741D01*
X139568933Y-116389843D01*
X139456991Y-116119590D01*
X139294476Y-115876369D01*
X139087633Y-115669526D01*
X138913241Y-115553001D01*
X139087633Y-115436476D01*
X139294476Y-115229633D01*
X139456991Y-114986412D01*
X139568933Y-114716159D01*
X139626001Y-114429261D01*
X139626001Y-114136741D01*
X139568933Y-113849843D01*
X139456991Y-113579590D01*
X139294476Y-113336369D01*
X139087633Y-113129526D01*
X138913241Y-113013001D01*
X139087633Y-112896476D01*
X139294476Y-112689633D01*
X139456991Y-112446412D01*
X139568933Y-112176159D01*
X139626001Y-111889261D01*
X139626001Y-111596741D01*
X139568933Y-111309843D01*
X139456991Y-111039590D01*
X139294476Y-110796369D01*
X139087633Y-110589526D01*
X138913241Y-110473001D01*
X139087633Y-110356476D01*
X139294476Y-110149633D01*
X139456991Y-109906412D01*
X139568933Y-109636159D01*
X139626001Y-109349261D01*
X139626001Y-109056741D01*
X139568933Y-108769843D01*
X139456991Y-108499590D01*
X139294476Y-108256369D01*
X139087633Y-108049526D01*
X138913241Y-107933001D01*
X139087633Y-107816476D01*
X139294476Y-107609633D01*
X139456991Y-107366412D01*
X139568933Y-107096159D01*
X139626001Y-106809261D01*
X139626001Y-106516741D01*
X139568933Y-106229843D01*
X139456991Y-105959590D01*
X139294476Y-105716369D01*
X139087633Y-105509526D01*
X138913241Y-105393001D01*
X139087633Y-105276476D01*
X139294476Y-105069633D01*
X139456991Y-104826412D01*
X139568933Y-104556159D01*
X139626001Y-104269261D01*
X139626001Y-103976741D01*
X139568933Y-103689843D01*
X139456991Y-103419590D01*
X139294476Y-103176369D01*
X139087633Y-102969526D01*
X138913241Y-102853001D01*
X139087633Y-102736476D01*
X139294476Y-102529633D01*
X139456991Y-102286412D01*
X139568933Y-102016159D01*
X139626001Y-101729261D01*
X139626001Y-101436741D01*
X139568933Y-101149843D01*
X139456991Y-100879590D01*
X139294476Y-100636369D01*
X139087633Y-100429526D01*
X138913241Y-100313001D01*
X139087633Y-100196476D01*
X139294476Y-99989633D01*
X139456991Y-99746412D01*
X139568933Y-99476159D01*
X139626001Y-99189261D01*
X139626001Y-98896741D01*
X139568933Y-98609843D01*
X139456991Y-98339590D01*
X139294476Y-98096369D01*
X139087633Y-97889526D01*
X138913241Y-97773001D01*
X139087633Y-97656476D01*
X139294476Y-97449633D01*
X139456991Y-97206412D01*
X139568933Y-96936159D01*
X139626001Y-96649261D01*
X139626001Y-96356741D01*
X139568933Y-96069843D01*
X139456991Y-95799590D01*
X139294476Y-95556369D01*
X139087633Y-95349526D01*
X138913241Y-95233001D01*
X139087633Y-95116476D01*
X139294476Y-94909633D01*
X139456991Y-94666412D01*
X139568933Y-94396159D01*
X139626001Y-94109261D01*
X139626001Y-93816741D01*
X139568933Y-93529843D01*
X139456991Y-93259590D01*
X139294476Y-93016369D01*
X139087633Y-92809526D01*
X138913241Y-92693001D01*
X139087633Y-92576476D01*
X139294476Y-92369633D01*
X139456991Y-92126412D01*
X139568933Y-91856159D01*
X139626001Y-91569261D01*
X139626001Y-91276741D01*
X139568933Y-90989843D01*
X139456991Y-90719590D01*
X139294476Y-90476369D01*
X139087633Y-90269526D01*
X138913241Y-90153001D01*
X139087633Y-90036476D01*
X139294476Y-89829633D01*
X139456991Y-89586412D01*
X139568933Y-89316159D01*
X139626001Y-89029261D01*
X139626001Y-88736741D01*
X139568933Y-88449843D01*
X139456991Y-88179590D01*
X139294476Y-87936369D01*
X139087633Y-87729526D01*
X138913241Y-87613001D01*
X139087633Y-87496476D01*
X139294476Y-87289633D01*
X139456991Y-87046412D01*
X139568933Y-86776159D01*
X139626001Y-86489261D01*
X139626001Y-86196741D01*
X139568933Y-85909843D01*
X139456991Y-85639590D01*
X139294476Y-85396369D01*
X139087633Y-85189526D01*
X138913241Y-85073001D01*
X139087633Y-84956476D01*
X139294476Y-84749633D01*
X139456991Y-84506412D01*
X139568933Y-84236159D01*
X139626001Y-83949261D01*
X139626001Y-83656741D01*
X139568933Y-83369843D01*
X139456991Y-83099590D01*
X139294476Y-82856369D01*
X139087633Y-82649526D01*
X138913241Y-82533001D01*
X139087633Y-82416476D01*
X139294476Y-82209633D01*
X139456991Y-81966412D01*
X139568933Y-81696159D01*
X139626001Y-81409261D01*
X139626001Y-81116741D01*
X139568933Y-80829843D01*
X139456991Y-80559590D01*
X139294476Y-80316369D01*
X139087633Y-80109526D01*
X138913241Y-79993001D01*
X139087633Y-79876476D01*
X139294476Y-79669633D01*
X139456991Y-79426412D01*
X139568933Y-79156159D01*
X139626001Y-78869261D01*
X139626001Y-78576741D01*
X139568933Y-78289843D01*
X139456991Y-78019590D01*
X139294476Y-77776369D01*
X139087633Y-77569526D01*
X138913241Y-77453001D01*
X139087633Y-77336476D01*
X139294476Y-77129633D01*
X139456991Y-76886412D01*
X139568933Y-76616159D01*
X139626001Y-76329261D01*
X139626001Y-76036741D01*
X139568933Y-75749843D01*
X139456991Y-75479590D01*
X139294476Y-75236369D01*
X139087633Y-75029526D01*
X138913241Y-74913001D01*
X139087633Y-74796476D01*
X139294476Y-74589633D01*
X139456991Y-74346412D01*
X139568933Y-74076159D01*
X139626001Y-73789261D01*
X139626001Y-73496741D01*
X139568933Y-73209843D01*
X139456991Y-72939590D01*
X139294476Y-72696369D01*
X139087633Y-72489526D01*
X138913241Y-72373001D01*
X139087633Y-72256476D01*
X139294476Y-72049633D01*
X139456991Y-71806412D01*
X139568933Y-71536159D01*
X139626001Y-71249261D01*
X139626001Y-70956741D01*
X139568933Y-70669843D01*
X139456991Y-70399590D01*
X139294476Y-70156369D01*
X139087633Y-69949526D01*
X138913241Y-69833001D01*
X139087633Y-69716476D01*
X139294476Y-69509633D01*
X139456991Y-69266412D01*
X139568933Y-68996159D01*
X139626001Y-68709261D01*
X139626001Y-68416741D01*
X139568933Y-68129843D01*
X139456991Y-67859590D01*
X139294476Y-67616369D01*
X139087633Y-67409526D01*
X138844412Y-67247011D01*
X138574159Y-67135069D01*
X138287261Y-67078001D01*
X137994741Y-67078001D01*
X137707843Y-67135069D01*
X137437590Y-67247011D01*
X137194369Y-67409526D01*
X136987526Y-67616369D01*
X136871001Y-67790761D01*
X136754476Y-67616369D01*
X136547633Y-67409526D01*
X136304412Y-67247011D01*
X136034159Y-67135069D01*
X135747261Y-67078001D01*
X135454741Y-67078001D01*
X135167843Y-67135069D01*
X134897590Y-67247011D01*
X134654369Y-67409526D01*
X134447526Y-67616369D01*
X134285011Y-67859590D01*
X134173069Y-68129843D01*
X134116001Y-68416741D01*
X134116001Y-68709261D01*
X134173069Y-68996159D01*
X134244248Y-69168000D01*
X125181322Y-69168000D01*
X125143999Y-69164324D01*
X125106676Y-69168000D01*
X125106667Y-69168000D01*
X124995014Y-69178997D01*
X124851753Y-69222454D01*
X124719723Y-69293026D01*
X124636083Y-69361668D01*
X124603999Y-69387999D01*
X124580201Y-69416997D01*
X116031633Y-77965566D01*
X115946013Y-77973999D01*
X115802753Y-78017455D01*
X115670723Y-78088028D01*
X115583997Y-78159202D01*
X115567003Y-78176196D01*
X115537999Y-78199999D01*
X115494055Y-78253546D01*
X115443026Y-78315724D01*
X115381540Y-78430755D01*
X115372454Y-78447754D01*
X115328997Y-78591015D01*
X115318000Y-78702668D01*
X115318000Y-78702678D01*
X115314324Y-78740000D01*
X115318000Y-78777322D01*
X115318000Y-78956678D01*
X115314324Y-78994000D01*
X115318000Y-79031323D01*
X115318001Y-83505197D01*
X114515000Y-84308198D01*
X114515000Y-84181740D01*
X114457932Y-83894842D01*
X114371794Y-83686885D01*
X114432248Y-83668547D01*
X114564277Y-83597975D01*
X114680002Y-83503002D01*
X114703805Y-83473998D01*
X114715999Y-83461804D01*
X114745002Y-83438002D01*
X114839975Y-83322277D01*
X114910547Y-83190248D01*
X114954004Y-83046987D01*
X114965001Y-82935334D01*
X114965001Y-82935323D01*
X114968677Y-82898001D01*
X114965001Y-82860678D01*
X114965001Y-80715322D01*
X114968677Y-80677999D01*
X114965001Y-80640677D01*
X114965001Y-80640666D01*
X114954004Y-80529013D01*
X114910547Y-80385752D01*
X114839975Y-80253723D01*
X114745002Y-80137998D01*
X114715998Y-80114195D01*
X114703805Y-80102002D01*
X114680002Y-80072998D01*
X114564277Y-79978025D01*
X114432248Y-79907453D01*
X114288987Y-79863996D01*
X114177334Y-79852999D01*
X114177323Y-79852999D01*
X114140001Y-79849323D01*
X114102679Y-79852999D01*
X84745805Y-79852999D01*
X93729008Y-70869797D01*
X93758001Y-70846003D01*
X93781795Y-70817010D01*
X93781799Y-70817006D01*
X93852973Y-70730279D01*
X93875580Y-70687985D01*
X93923546Y-70598249D01*
X93967003Y-70454988D01*
X93978000Y-70343335D01*
X93978000Y-70343326D01*
X93981676Y-70306003D01*
X93978000Y-70268680D01*
X93978000Y-65852722D01*
X128406001Y-65852722D01*
X128406001Y-66273280D01*
X128488048Y-66685757D01*
X128648989Y-67074303D01*
X128882638Y-67423984D01*
X129180018Y-67721364D01*
X129529699Y-67955013D01*
X129918245Y-68115954D01*
X130330722Y-68198001D01*
X130751280Y-68198001D01*
X131163757Y-68115954D01*
X131552303Y-67955013D01*
X131901984Y-67721364D01*
X132199364Y-67423984D01*
X132433013Y-67074303D01*
X132593954Y-66685757D01*
X132676001Y-66273280D01*
X132676001Y-65852722D01*
X132593954Y-65440245D01*
X132433013Y-65051699D01*
X132199364Y-64702018D01*
X131901984Y-64404638D01*
X131552303Y-64170989D01*
X131163757Y-64010048D01*
X130751280Y-63928001D01*
X130330722Y-63928001D01*
X129918245Y-64010048D01*
X129529699Y-64170989D01*
X129180018Y-64404638D01*
X128882638Y-64702018D01*
X128648989Y-65051699D01*
X128488048Y-65440245D01*
X128406001Y-65852722D01*
X93978000Y-65852722D01*
X93978000Y-50329322D01*
X93981676Y-50291999D01*
X93978000Y-50254676D01*
X93978000Y-50254667D01*
X93967003Y-50143014D01*
X93923546Y-49999753D01*
X93852974Y-49867724D01*
X93758001Y-49751999D01*
X93729004Y-49728202D01*
X91404072Y-47403271D01*
X91404072Y-46140000D01*
X91391812Y-46015518D01*
X91355502Y-45895820D01*
X91296537Y-45785506D01*
X91217185Y-45688815D01*
X91120494Y-45609463D01*
X91010180Y-45550498D01*
X90890482Y-45514188D01*
X90766000Y-45501928D01*
X89066000Y-45501928D01*
X88941518Y-45514188D01*
X88821820Y-45550498D01*
X88711506Y-45609463D01*
X88614815Y-45688815D01*
X88535463Y-45785506D01*
X88476498Y-45895820D01*
X88440188Y-46015518D01*
X88427928Y-46140000D01*
X88427928Y-47594999D01*
X84737801Y-47594999D01*
X79684804Y-42542003D01*
X79661001Y-42512999D01*
X79545276Y-42418026D01*
X79413247Y-42347454D01*
X79269986Y-42303997D01*
X79158333Y-42293000D01*
X79158322Y-42293000D01*
X79121000Y-42289324D01*
X79083678Y-42293000D01*
X78912681Y-42293000D01*
X78910276Y-42291026D01*
X78778246Y-42220454D01*
X78634985Y-42176998D01*
X78485999Y-42162324D01*
X78337014Y-42176998D01*
X78193754Y-42220454D01*
X78061724Y-42291026D01*
X77974998Y-42362201D01*
X77848003Y-42489196D01*
X77818999Y-42512999D01*
X77795201Y-42541997D01*
X71895997Y-48441202D01*
X71866999Y-48465000D01*
X71843201Y-48493998D01*
X71843200Y-48493999D01*
X71772025Y-48580725D01*
X71701453Y-48712755D01*
X71685204Y-48766324D01*
X71657997Y-48856015D01*
X71647000Y-48967668D01*
X71643323Y-49005001D01*
X71647000Y-49042334D01*
X71646999Y-81225668D01*
X71643322Y-81263001D01*
X70660000Y-81263001D01*
X70660000Y-40476741D01*
X73156001Y-40476741D01*
X73156001Y-40769261D01*
X73213069Y-41056159D01*
X73325011Y-41326412D01*
X73487526Y-41569633D01*
X73694369Y-41776476D01*
X73868761Y-41893001D01*
X73694369Y-42009526D01*
X73487526Y-42216369D01*
X73325011Y-42459590D01*
X73213069Y-42729843D01*
X73156001Y-43016741D01*
X73156001Y-43309261D01*
X73213069Y-43596159D01*
X73325011Y-43866412D01*
X73487526Y-44109633D01*
X73694369Y-44316476D01*
X73937590Y-44478991D01*
X74207843Y-44590933D01*
X74494741Y-44648001D01*
X74787261Y-44648001D01*
X75074159Y-44590933D01*
X75344412Y-44478991D01*
X75587633Y-44316476D01*
X75794476Y-44109633D01*
X75956991Y-43866412D01*
X76068933Y-43596159D01*
X76126001Y-43309261D01*
X76126001Y-43016741D01*
X76068933Y-42729843D01*
X75956991Y-42459590D01*
X75794476Y-42216369D01*
X75587633Y-42009526D01*
X75413241Y-41893001D01*
X75587633Y-41776476D01*
X75794476Y-41569633D01*
X75956991Y-41326412D01*
X76068933Y-41056159D01*
X76126001Y-40769261D01*
X76126001Y-40476741D01*
X136656001Y-40476741D01*
X136656001Y-40769261D01*
X136713069Y-41056159D01*
X136825011Y-41326412D01*
X136987526Y-41569633D01*
X137194369Y-41776476D01*
X137368761Y-41893001D01*
X137194369Y-42009526D01*
X136987526Y-42216369D01*
X136825011Y-42459590D01*
X136713069Y-42729843D01*
X136656001Y-43016741D01*
X136656001Y-43309261D01*
X136713069Y-43596159D01*
X136825011Y-43866412D01*
X136987526Y-44109633D01*
X137194369Y-44316476D01*
X137437590Y-44478991D01*
X137707843Y-44590933D01*
X137994741Y-44648001D01*
X138287261Y-44648001D01*
X138574159Y-44590933D01*
X138844412Y-44478991D01*
X139087633Y-44316476D01*
X139294476Y-44109633D01*
X139456991Y-43866412D01*
X139568933Y-43596159D01*
X139626001Y-43309261D01*
X139626001Y-43016741D01*
X139568933Y-42729843D01*
X139456991Y-42459590D01*
X139294476Y-42216369D01*
X139087633Y-42009526D01*
X138913241Y-41893001D01*
X139087633Y-41776476D01*
X139294476Y-41569633D01*
X139456991Y-41326412D01*
X139568933Y-41056159D01*
X139626001Y-40769261D01*
X139626001Y-40476741D01*
X139568933Y-40189843D01*
X139456991Y-39919590D01*
X139294476Y-39676369D01*
X139087633Y-39469526D01*
X138844412Y-39307011D01*
X138574159Y-39195069D01*
X138287261Y-39138001D01*
X137994741Y-39138001D01*
X137707843Y-39195069D01*
X137437590Y-39307011D01*
X137194369Y-39469526D01*
X136987526Y-39676369D01*
X136825011Y-39919590D01*
X136713069Y-40189843D01*
X136656001Y-40476741D01*
X76126001Y-40476741D01*
X76068933Y-40189843D01*
X75956991Y-39919590D01*
X75794476Y-39676369D01*
X75587633Y-39469526D01*
X75344412Y-39307011D01*
X75074159Y-39195069D01*
X74787261Y-39138001D01*
X74494741Y-39138001D01*
X74207843Y-39195069D01*
X73937590Y-39307011D01*
X73694369Y-39469526D01*
X73487526Y-39676369D01*
X73325011Y-39919590D01*
X73213069Y-40189843D01*
X73156001Y-40476741D01*
X70660000Y-40476741D01*
X70660000Y-35660000D01*
X144340000Y-35660000D01*
X144340001Y-159967572D01*
G37*
%TD.AperFunction*%
D14*
X113577000Y-132734260D02*
X113634068Y-133021158D01*
X113746010Y-133291411D01*
X113908525Y-133534632D01*
X114115368Y-133741475D01*
X114289760Y-133858000D01*
X114115368Y-133974525D01*
X113908525Y-134181368D01*
X113746010Y-134424589D01*
X113634068Y-134694842D01*
X113577000Y-134981740D01*
X113577000Y-135274260D01*
X113620790Y-135494408D01*
X91237197Y-157878002D01*
X78612545Y-157878002D01*
X78666001Y-157609261D01*
X78666001Y-157316741D01*
X78608933Y-157029843D01*
X78496991Y-156759590D01*
X78334476Y-156516369D01*
X78127633Y-156309526D01*
X77953241Y-156193001D01*
X78127633Y-156076476D01*
X78334476Y-155869633D01*
X78496991Y-155626412D01*
X78608933Y-155356159D01*
X78666001Y-155069261D01*
X78666001Y-154776741D01*
X78608933Y-154489843D01*
X78496991Y-154219590D01*
X78334476Y-153976369D01*
X78127633Y-153769526D01*
X77953241Y-153653001D01*
X78127633Y-153536476D01*
X78334476Y-153329633D01*
X78496991Y-153086412D01*
X78608933Y-152816159D01*
X78666001Y-152529261D01*
X78666001Y-152236741D01*
X78608933Y-151949843D01*
X78496991Y-151679590D01*
X78334476Y-151436369D01*
X78127633Y-151229526D01*
X77953241Y-151113001D01*
X78127633Y-150996476D01*
X78334476Y-150789633D01*
X78496991Y-150546412D01*
X78608933Y-150276159D01*
X78666001Y-149989261D01*
X78666001Y-149696741D01*
X78608933Y-149409843D01*
X78496991Y-149139590D01*
X78334476Y-148896369D01*
X78127633Y-148689526D01*
X77953241Y-148573001D01*
X78127633Y-148456476D01*
X78334476Y-148249633D01*
X78496991Y-148006412D01*
X78608933Y-147736159D01*
X78666001Y-147449261D01*
X78666001Y-147156741D01*
X78608933Y-146869843D01*
X78496991Y-146599590D01*
X78334476Y-146356369D01*
X78127633Y-146149526D01*
X77953241Y-146033001D01*
X78127633Y-145916476D01*
X78334476Y-145709633D01*
X78459179Y-145523001D01*
X100309677Y-145523001D01*
X100346999Y-145526677D01*
X100384321Y-145523001D01*
X100384332Y-145523001D01*
X100495985Y-145512004D01*
X100639246Y-145468547D01*
X100771275Y-145397975D01*
X100887000Y-145303002D01*
X100910803Y-145273998D01*
X113577000Y-132607802D01*
X113577000Y-132734260D01*
%TA.AperFunction,NonConductor*%
D15*
G36*
X113577000Y-132734260D02*
G01*
X113634068Y-133021158D01*
X113746010Y-133291411D01*
X113908525Y-133534632D01*
X114115368Y-133741475D01*
X114289760Y-133858000D01*
X114115368Y-133974525D01*
X113908525Y-134181368D01*
X113746010Y-134424589D01*
X113634068Y-134694842D01*
X113577000Y-134981740D01*
X113577000Y-135274260D01*
X113620790Y-135494408D01*
X91237197Y-157878002D01*
X78612545Y-157878002D01*
X78666001Y-157609261D01*
X78666001Y-157316741D01*
X78608933Y-157029843D01*
X78496991Y-156759590D01*
X78334476Y-156516369D01*
X78127633Y-156309526D01*
X77953241Y-156193001D01*
X78127633Y-156076476D01*
X78334476Y-155869633D01*
X78496991Y-155626412D01*
X78608933Y-155356159D01*
X78666001Y-155069261D01*
X78666001Y-154776741D01*
X78608933Y-154489843D01*
X78496991Y-154219590D01*
X78334476Y-153976369D01*
X78127633Y-153769526D01*
X77953241Y-153653001D01*
X78127633Y-153536476D01*
X78334476Y-153329633D01*
X78496991Y-153086412D01*
X78608933Y-152816159D01*
X78666001Y-152529261D01*
X78666001Y-152236741D01*
X78608933Y-151949843D01*
X78496991Y-151679590D01*
X78334476Y-151436369D01*
X78127633Y-151229526D01*
X77953241Y-151113001D01*
X78127633Y-150996476D01*
X78334476Y-150789633D01*
X78496991Y-150546412D01*
X78608933Y-150276159D01*
X78666001Y-149989261D01*
X78666001Y-149696741D01*
X78608933Y-149409843D01*
X78496991Y-149139590D01*
X78334476Y-148896369D01*
X78127633Y-148689526D01*
X77953241Y-148573001D01*
X78127633Y-148456476D01*
X78334476Y-148249633D01*
X78496991Y-148006412D01*
X78608933Y-147736159D01*
X78666001Y-147449261D01*
X78666001Y-147156741D01*
X78608933Y-146869843D01*
X78496991Y-146599590D01*
X78334476Y-146356369D01*
X78127633Y-146149526D01*
X77953241Y-146033001D01*
X78127633Y-145916476D01*
X78334476Y-145709633D01*
X78459179Y-145523001D01*
X100309677Y-145523001D01*
X100346999Y-145526677D01*
X100384321Y-145523001D01*
X100384332Y-145523001D01*
X100495985Y-145512004D01*
X100639246Y-145468547D01*
X100771275Y-145397975D01*
X100887000Y-145303002D01*
X100910803Y-145273998D01*
X113577000Y-132607802D01*
X113577000Y-132734260D01*
G37*
%TD.AperFunction*%
D14*
X136987526Y-155869633D02*
X137194369Y-156076476D01*
X137368761Y-156193001D01*
X137194369Y-156309526D01*
X136987526Y-156516369D01*
X136871001Y-156690761D01*
X136754476Y-156516369D01*
X136547633Y-156309526D01*
X136373241Y-156193001D01*
X136547633Y-156076476D01*
X136754476Y-155869633D01*
X136871001Y-155695241D01*
X136987526Y-155869633D01*
%TA.AperFunction,NonConductor*%
D15*
G36*
X136987526Y-155869633D02*
G01*
X137194369Y-156076476D01*
X137368761Y-156193001D01*
X137194369Y-156309526D01*
X136987526Y-156516369D01*
X136871001Y-156690761D01*
X136754476Y-156516369D01*
X136547633Y-156309526D01*
X136373241Y-156193001D01*
X136547633Y-156076476D01*
X136754476Y-155869633D01*
X136871001Y-155695241D01*
X136987526Y-155869633D01*
G37*
%TD.AperFunction*%
D14*
X73868761Y-156193001D02*
X73775991Y-156254988D01*
X73775991Y-156131014D01*
X73868761Y-156193001D01*
%TA.AperFunction,NonConductor*%
D15*
G36*
X73868761Y-156193001D02*
G01*
X73775991Y-156254988D01*
X73775991Y-156131014D01*
X73868761Y-156193001D01*
G37*
%TD.AperFunction*%
D14*
X137368761Y-153653001D02*
X137194369Y-153769526D01*
X136987526Y-153976369D01*
X136871001Y-154150761D01*
X136817745Y-154071057D01*
X137287010Y-153601793D01*
X137289305Y-153599910D01*
X137368761Y-153653001D01*
%TA.AperFunction,NonConductor*%
D15*
G36*
X137368761Y-153653001D02*
G01*
X137194369Y-153769526D01*
X136987526Y-153976369D01*
X136871001Y-154150761D01*
X136817745Y-154071057D01*
X137287010Y-153601793D01*
X137289305Y-153599910D01*
X137368761Y-153653001D01*
G37*
%TD.AperFunction*%
D14*
X73868761Y-153653001D02*
X73775991Y-153714988D01*
X73775991Y-153591014D01*
X73868761Y-153653001D01*
%TA.AperFunction,NonConductor*%
D15*
G36*
X73868761Y-153653001D02*
G01*
X73775991Y-153714988D01*
X73775991Y-153591014D01*
X73868761Y-153653001D01*
G37*
%TD.AperFunction*%
D14*
X73868761Y-151113001D02*
X73775991Y-151174988D01*
X73775991Y-151051014D01*
X73868761Y-151113001D01*
%TA.AperFunction,NonConductor*%
D15*
G36*
X73868761Y-151113001D02*
G01*
X73775991Y-151174988D01*
X73775991Y-151051014D01*
X73868761Y-151113001D01*
G37*
%TD.AperFunction*%
D14*
X73868761Y-148573001D02*
X73775991Y-148634988D01*
X73775991Y-148511014D01*
X73868761Y-148573001D01*
%TA.AperFunction,NonConductor*%
D15*
G36*
X73868761Y-148573001D02*
G01*
X73775991Y-148634988D01*
X73775991Y-148511014D01*
X73868761Y-148573001D01*
G37*
%TD.AperFunction*%
D14*
X136987526Y-145709633D02*
X137194369Y-145916476D01*
X137368761Y-146033001D01*
X137194369Y-146149526D01*
X136987526Y-146356369D01*
X136871001Y-146530761D01*
X136754476Y-146356369D01*
X136547633Y-146149526D01*
X136373241Y-146033001D01*
X136547633Y-145916476D01*
X136754476Y-145709633D01*
X136871001Y-145535241D01*
X136987526Y-145709633D01*
%TA.AperFunction,NonConductor*%
D15*
G36*
X136987526Y-145709633D02*
G01*
X137194369Y-145916476D01*
X137368761Y-146033001D01*
X137194369Y-146149526D01*
X136987526Y-146356369D01*
X136871001Y-146530761D01*
X136754476Y-146356369D01*
X136547633Y-146149526D01*
X136373241Y-146033001D01*
X136547633Y-145916476D01*
X136754476Y-145709633D01*
X136871001Y-145535241D01*
X136987526Y-145709633D01*
G37*
%TD.AperFunction*%
D14*
X73868761Y-146033001D02*
X73775991Y-146094988D01*
X73775991Y-145971014D01*
X73868761Y-146033001D01*
%TA.AperFunction,NonConductor*%
D15*
G36*
X73868761Y-146033001D02*
G01*
X73775991Y-146094988D01*
X73775991Y-145971014D01*
X73868761Y-146033001D01*
G37*
%TD.AperFunction*%
D14*
X134285011Y-137846412D02*
X134447526Y-138089633D01*
X134654369Y-138296476D01*
X134828761Y-138413001D01*
X134654369Y-138529526D01*
X134447526Y-138736369D01*
X134285011Y-138979590D01*
X134173069Y-139249843D01*
X134116001Y-139536741D01*
X134116001Y-139829261D01*
X134173069Y-140116159D01*
X134285011Y-140386412D01*
X134447526Y-140629633D01*
X134654369Y-140836476D01*
X134828761Y-140953001D01*
X134654369Y-141069526D01*
X134447526Y-141276369D01*
X134285011Y-141519590D01*
X134173069Y-141789843D01*
X134116001Y-142076741D01*
X134116001Y-142369261D01*
X134173069Y-142656159D01*
X134285011Y-142926412D01*
X134447526Y-143169633D01*
X134654369Y-143376476D01*
X134828761Y-143493001D01*
X134654369Y-143609526D01*
X134447526Y-143816369D01*
X134285011Y-144059590D01*
X134173069Y-144329843D01*
X134116001Y-144616741D01*
X134116001Y-144743200D01*
X132831000Y-143458199D01*
X132831000Y-140569712D01*
X132840000Y-140478335D01*
X132840000Y-140478324D01*
X132843676Y-140441002D01*
X132840000Y-140403679D01*
X132840000Y-139239801D01*
X134269891Y-137809910D01*
X134285011Y-137846412D01*
%TA.AperFunction,NonConductor*%
D15*
G36*
X134285011Y-137846412D02*
G01*
X134447526Y-138089633D01*
X134654369Y-138296476D01*
X134828761Y-138413001D01*
X134654369Y-138529526D01*
X134447526Y-138736369D01*
X134285011Y-138979590D01*
X134173069Y-139249843D01*
X134116001Y-139536741D01*
X134116001Y-139829261D01*
X134173069Y-140116159D01*
X134285011Y-140386412D01*
X134447526Y-140629633D01*
X134654369Y-140836476D01*
X134828761Y-140953001D01*
X134654369Y-141069526D01*
X134447526Y-141276369D01*
X134285011Y-141519590D01*
X134173069Y-141789843D01*
X134116001Y-142076741D01*
X134116001Y-142369261D01*
X134173069Y-142656159D01*
X134285011Y-142926412D01*
X134447526Y-143169633D01*
X134654369Y-143376476D01*
X134828761Y-143493001D01*
X134654369Y-143609526D01*
X134447526Y-143816369D01*
X134285011Y-144059590D01*
X134173069Y-144329843D01*
X134116001Y-144616741D01*
X134116001Y-144743200D01*
X132831000Y-143458199D01*
X132831000Y-140569712D01*
X132840000Y-140478335D01*
X132840000Y-140478324D01*
X132843676Y-140441002D01*
X132840000Y-140403679D01*
X132840000Y-139239801D01*
X134269891Y-137809910D01*
X134285011Y-137846412D01*
G37*
%TD.AperFunction*%
D14*
X113577000Y-130194260D02*
X113620790Y-130414408D01*
X100032198Y-144003001D01*
X78459179Y-144003001D01*
X78334476Y-143816369D01*
X78127633Y-143609526D01*
X77953241Y-143493001D01*
X78127633Y-143376476D01*
X78334476Y-143169633D01*
X78496991Y-142926412D01*
X78608933Y-142656159D01*
X78666001Y-142369261D01*
X78666001Y-142076741D01*
X78622211Y-141856593D01*
X78867006Y-141611798D01*
X78896003Y-141588001D01*
X78990976Y-141472276D01*
X79061548Y-141340247D01*
X79105005Y-141196986D01*
X79116002Y-141085333D01*
X79116002Y-141085324D01*
X79119678Y-141048001D01*
X79116002Y-141010678D01*
X79116002Y-140742722D01*
X81396001Y-140742722D01*
X81396001Y-141163280D01*
X81478048Y-141575757D01*
X81638989Y-141964303D01*
X81872638Y-142313984D01*
X82170018Y-142611364D01*
X82519699Y-142845013D01*
X82908245Y-143005954D01*
X83320722Y-143088001D01*
X83741280Y-143088001D01*
X84153757Y-143005954D01*
X84542303Y-142845013D01*
X84891984Y-142611364D01*
X85189364Y-142313984D01*
X85423013Y-141964303D01*
X85583954Y-141575757D01*
X85666001Y-141163280D01*
X85666001Y-140742722D01*
X85583954Y-140330245D01*
X85423013Y-139941699D01*
X85189364Y-139592018D01*
X84891984Y-139294638D01*
X84542303Y-139060989D01*
X84153757Y-138900048D01*
X83741280Y-138818001D01*
X83320722Y-138818001D01*
X82908245Y-138900048D01*
X82519699Y-139060989D01*
X82170018Y-139294638D01*
X81872638Y-139592018D01*
X81638989Y-139941699D01*
X81478048Y-140330245D01*
X81396001Y-140742722D01*
X79116002Y-140742722D01*
X79116002Y-139156322D01*
X79119678Y-139118999D01*
X79116002Y-139081676D01*
X79116002Y-139081667D01*
X79105005Y-138970014D01*
X79061548Y-138826753D01*
X78990976Y-138694724D01*
X78896003Y-138578999D01*
X78867004Y-138555201D01*
X78361297Y-138049493D01*
X78496991Y-137846412D01*
X78608933Y-137576159D01*
X78666001Y-137289261D01*
X78666001Y-136996741D01*
X78608933Y-136709843D01*
X78496991Y-136439590D01*
X78334476Y-136196369D01*
X78127633Y-135989526D01*
X77953241Y-135873001D01*
X78127633Y-135756476D01*
X78334476Y-135549633D01*
X78496991Y-135306412D01*
X78608933Y-135036159D01*
X78666001Y-134749261D01*
X78666001Y-134456741D01*
X78608933Y-134169843D01*
X78496991Y-133899590D01*
X78334476Y-133656369D01*
X78127633Y-133449526D01*
X77953241Y-133333001D01*
X78127633Y-133216476D01*
X78334476Y-133009633D01*
X78496991Y-132766412D01*
X78608933Y-132496159D01*
X78666001Y-132209261D01*
X78666001Y-131916741D01*
X78608933Y-131629843D01*
X78496991Y-131359590D01*
X78334476Y-131116369D01*
X78127633Y-130909526D01*
X77953241Y-130793001D01*
X78127633Y-130676476D01*
X78334476Y-130469633D01*
X78459179Y-130283001D01*
X79932200Y-130283001D01*
X82748201Y-133099003D01*
X82771999Y-133128001D01*
X82800997Y-133151799D01*
X82887723Y-133222974D01*
X82992568Y-133279015D01*
X83019753Y-133293546D01*
X83163014Y-133337003D01*
X83274667Y-133348000D01*
X83274676Y-133348000D01*
X83311999Y-133351676D01*
X83349322Y-133348000D01*
X109944678Y-133348000D01*
X109982000Y-133351676D01*
X110019322Y-133348000D01*
X110019333Y-133348000D01*
X110130986Y-133337003D01*
X110274247Y-133293546D01*
X110406276Y-133222974D01*
X110522001Y-133128001D01*
X110545804Y-133098997D01*
X113577000Y-130067802D01*
X113577000Y-130194260D01*
%TA.AperFunction,NonConductor*%
D15*
G36*
X113577000Y-130194260D02*
G01*
X113620790Y-130414408D01*
X100032198Y-144003001D01*
X78459179Y-144003001D01*
X78334476Y-143816369D01*
X78127633Y-143609526D01*
X77953241Y-143493001D01*
X78127633Y-143376476D01*
X78334476Y-143169633D01*
X78496991Y-142926412D01*
X78608933Y-142656159D01*
X78666001Y-142369261D01*
X78666001Y-142076741D01*
X78622211Y-141856593D01*
X78867006Y-141611798D01*
X78896003Y-141588001D01*
X78990976Y-141472276D01*
X79061548Y-141340247D01*
X79105005Y-141196986D01*
X79116002Y-141085333D01*
X79116002Y-141085324D01*
X79119678Y-141048001D01*
X79116002Y-141010678D01*
X79116002Y-140742722D01*
X81396001Y-140742722D01*
X81396001Y-141163280D01*
X81478048Y-141575757D01*
X81638989Y-141964303D01*
X81872638Y-142313984D01*
X82170018Y-142611364D01*
X82519699Y-142845013D01*
X82908245Y-143005954D01*
X83320722Y-143088001D01*
X83741280Y-143088001D01*
X84153757Y-143005954D01*
X84542303Y-142845013D01*
X84891984Y-142611364D01*
X85189364Y-142313984D01*
X85423013Y-141964303D01*
X85583954Y-141575757D01*
X85666001Y-141163280D01*
X85666001Y-140742722D01*
X85583954Y-140330245D01*
X85423013Y-139941699D01*
X85189364Y-139592018D01*
X84891984Y-139294638D01*
X84542303Y-139060989D01*
X84153757Y-138900048D01*
X83741280Y-138818001D01*
X83320722Y-138818001D01*
X82908245Y-138900048D01*
X82519699Y-139060989D01*
X82170018Y-139294638D01*
X81872638Y-139592018D01*
X81638989Y-139941699D01*
X81478048Y-140330245D01*
X81396001Y-140742722D01*
X79116002Y-140742722D01*
X79116002Y-139156322D01*
X79119678Y-139118999D01*
X79116002Y-139081676D01*
X79116002Y-139081667D01*
X79105005Y-138970014D01*
X79061548Y-138826753D01*
X78990976Y-138694724D01*
X78896003Y-138578999D01*
X78867004Y-138555201D01*
X78361297Y-138049493D01*
X78496991Y-137846412D01*
X78608933Y-137576159D01*
X78666001Y-137289261D01*
X78666001Y-136996741D01*
X78608933Y-136709843D01*
X78496991Y-136439590D01*
X78334476Y-136196369D01*
X78127633Y-135989526D01*
X77953241Y-135873001D01*
X78127633Y-135756476D01*
X78334476Y-135549633D01*
X78496991Y-135306412D01*
X78608933Y-135036159D01*
X78666001Y-134749261D01*
X78666001Y-134456741D01*
X78608933Y-134169843D01*
X78496991Y-133899590D01*
X78334476Y-133656369D01*
X78127633Y-133449526D01*
X77953241Y-133333001D01*
X78127633Y-133216476D01*
X78334476Y-133009633D01*
X78496991Y-132766412D01*
X78608933Y-132496159D01*
X78666001Y-132209261D01*
X78666001Y-131916741D01*
X78608933Y-131629843D01*
X78496991Y-131359590D01*
X78334476Y-131116369D01*
X78127633Y-130909526D01*
X77953241Y-130793001D01*
X78127633Y-130676476D01*
X78334476Y-130469633D01*
X78459179Y-130283001D01*
X79932200Y-130283001D01*
X82748201Y-133099003D01*
X82771999Y-133128001D01*
X82800997Y-133151799D01*
X82887723Y-133222974D01*
X82992568Y-133279015D01*
X83019753Y-133293546D01*
X83163014Y-133337003D01*
X83274667Y-133348000D01*
X83274676Y-133348000D01*
X83311999Y-133351676D01*
X83349322Y-133348000D01*
X109944678Y-133348000D01*
X109982000Y-133351676D01*
X110019322Y-133348000D01*
X110019333Y-133348000D01*
X110130986Y-133337003D01*
X110274247Y-133293546D01*
X110406276Y-133222974D01*
X110522001Y-133128001D01*
X110545804Y-133098997D01*
X113577000Y-130067802D01*
X113577000Y-130194260D01*
G37*
%TD.AperFunction*%
D14*
X136987526Y-143169633D02*
X137194369Y-143376476D01*
X137368761Y-143493001D01*
X137194369Y-143609526D01*
X136987526Y-143816369D01*
X136871001Y-143990761D01*
X136754476Y-143816369D01*
X136547633Y-143609526D01*
X136373241Y-143493001D01*
X136547633Y-143376476D01*
X136754476Y-143169633D01*
X136871001Y-142995241D01*
X136987526Y-143169633D01*
%TA.AperFunction,NonConductor*%
D15*
G36*
X136987526Y-143169633D02*
G01*
X137194369Y-143376476D01*
X137368761Y-143493001D01*
X137194369Y-143609526D01*
X136987526Y-143816369D01*
X136871001Y-143990761D01*
X136754476Y-143816369D01*
X136547633Y-143609526D01*
X136373241Y-143493001D01*
X136547633Y-143376476D01*
X136754476Y-143169633D01*
X136871001Y-142995241D01*
X136987526Y-143169633D01*
G37*
%TD.AperFunction*%
D14*
X73868761Y-143493001D02*
X73775991Y-143554988D01*
X73775991Y-143431014D01*
X73868761Y-143493001D01*
%TA.AperFunction,NonConductor*%
D15*
G36*
X73868761Y-143493001D02*
G01*
X73775991Y-143554988D01*
X73775991Y-143431014D01*
X73868761Y-143493001D01*
G37*
%TD.AperFunction*%
D14*
X134116001Y-76329261D02*
X134173069Y-76616159D01*
X134285011Y-76886412D01*
X134447526Y-77129633D01*
X134654369Y-77336476D01*
X134828761Y-77453001D01*
X134654369Y-77569526D01*
X134447526Y-77776369D01*
X134285011Y-78019590D01*
X134173069Y-78289843D01*
X134116001Y-78576741D01*
X134116001Y-78869261D01*
X134173069Y-79156159D01*
X134285011Y-79426412D01*
X134447526Y-79669633D01*
X134654369Y-79876476D01*
X134828761Y-79993001D01*
X134654369Y-80109526D01*
X134447526Y-80316369D01*
X134285011Y-80559590D01*
X134173069Y-80829843D01*
X134116001Y-81116741D01*
X134116001Y-81409261D01*
X134173069Y-81696159D01*
X134285011Y-81966412D01*
X134447526Y-82209633D01*
X134654369Y-82416476D01*
X134828761Y-82533001D01*
X134654369Y-82649526D01*
X134447526Y-82856369D01*
X134285011Y-83099590D01*
X134173069Y-83369843D01*
X134116001Y-83656741D01*
X134116001Y-83949261D01*
X134173069Y-84236159D01*
X134285011Y-84506412D01*
X134447526Y-84749633D01*
X134654369Y-84956476D01*
X134828761Y-85073001D01*
X134654369Y-85189526D01*
X134447526Y-85396369D01*
X134285011Y-85639590D01*
X134173069Y-85909843D01*
X134116001Y-86196741D01*
X134116001Y-86489261D01*
X134173069Y-86776159D01*
X134285011Y-87046412D01*
X134447526Y-87289633D01*
X134654369Y-87496476D01*
X134828761Y-87613001D01*
X134654369Y-87729526D01*
X134447526Y-87936369D01*
X134285011Y-88179590D01*
X134173069Y-88449843D01*
X134116001Y-88736741D01*
X134116001Y-89029261D01*
X134173069Y-89316159D01*
X134285011Y-89586412D01*
X134447526Y-89829633D01*
X134654369Y-90036476D01*
X134828761Y-90153001D01*
X134654369Y-90269526D01*
X134447526Y-90476369D01*
X134285011Y-90719590D01*
X134173069Y-90989843D01*
X134116001Y-91276741D01*
X134116001Y-91569261D01*
X134173069Y-91856159D01*
X134285011Y-92126412D01*
X134447526Y-92369633D01*
X134654369Y-92576476D01*
X134828761Y-92693001D01*
X134654369Y-92809526D01*
X134447526Y-93016369D01*
X134285011Y-93259590D01*
X134173069Y-93529843D01*
X134116001Y-93816741D01*
X134116001Y-94109261D01*
X134173069Y-94396159D01*
X134285011Y-94666412D01*
X134447526Y-94909633D01*
X134654369Y-95116476D01*
X134828761Y-95233001D01*
X134654369Y-95349526D01*
X134447526Y-95556369D01*
X134285011Y-95799590D01*
X134173069Y-96069843D01*
X134116001Y-96356741D01*
X134116001Y-96649261D01*
X134173069Y-96936159D01*
X134285011Y-97206412D01*
X134447526Y-97449633D01*
X134654369Y-97656476D01*
X134828761Y-97773001D01*
X134654369Y-97889526D01*
X134447526Y-98096369D01*
X134285011Y-98339590D01*
X134173069Y-98609843D01*
X134116001Y-98896741D01*
X134116001Y-99189261D01*
X134173069Y-99476159D01*
X134285011Y-99746412D01*
X134447526Y-99989633D01*
X134654369Y-100196476D01*
X134828761Y-100313001D01*
X134654369Y-100429526D01*
X134447526Y-100636369D01*
X134285011Y-100879590D01*
X134173069Y-101149843D01*
X134116001Y-101436741D01*
X134116001Y-101729261D01*
X134173069Y-102016159D01*
X134285011Y-102286412D01*
X134447526Y-102529633D01*
X134654369Y-102736476D01*
X134828761Y-102853001D01*
X134654369Y-102969526D01*
X134447526Y-103176369D01*
X134285011Y-103419590D01*
X134173069Y-103689843D01*
X134116001Y-103976741D01*
X134116001Y-104269261D01*
X134173069Y-104556159D01*
X134285011Y-104826412D01*
X134447526Y-105069633D01*
X134654369Y-105276476D01*
X134828761Y-105393001D01*
X134654369Y-105509526D01*
X134447526Y-105716369D01*
X134285011Y-105959590D01*
X134173069Y-106229843D01*
X134116001Y-106516741D01*
X134116001Y-106809261D01*
X134173069Y-107096159D01*
X134285011Y-107366412D01*
X134447526Y-107609633D01*
X134654369Y-107816476D01*
X134828761Y-107933001D01*
X134654369Y-108049526D01*
X134447526Y-108256369D01*
X134285011Y-108499590D01*
X134173069Y-108769843D01*
X134116001Y-109056741D01*
X134116001Y-109349261D01*
X134173069Y-109636159D01*
X134285011Y-109906412D01*
X134447526Y-110149633D01*
X134654369Y-110356476D01*
X134828761Y-110473001D01*
X134654369Y-110589526D01*
X134447526Y-110796369D01*
X134285011Y-111039590D01*
X134173069Y-111309843D01*
X134116001Y-111596741D01*
X134116001Y-111889261D01*
X134173069Y-112176159D01*
X134285011Y-112446412D01*
X134447526Y-112689633D01*
X134654369Y-112896476D01*
X134828761Y-113013001D01*
X134654369Y-113129526D01*
X134447526Y-113336369D01*
X134285011Y-113579590D01*
X134173069Y-113849843D01*
X134116001Y-114136741D01*
X134116001Y-114429261D01*
X134173069Y-114716159D01*
X134285011Y-114986412D01*
X134447526Y-115229633D01*
X134654369Y-115436476D01*
X134828761Y-115553001D01*
X134654369Y-115669526D01*
X134447526Y-115876369D01*
X134285011Y-116119590D01*
X134173069Y-116389843D01*
X134116001Y-116676741D01*
X134116001Y-116969261D01*
X134173069Y-117256159D01*
X134285011Y-117526412D01*
X134447526Y-117769633D01*
X134654369Y-117976476D01*
X134828761Y-118093001D01*
X134654369Y-118209526D01*
X134447526Y-118416369D01*
X134285011Y-118659590D01*
X134173069Y-118929843D01*
X134116001Y-119216741D01*
X134116001Y-119509261D01*
X134173069Y-119796159D01*
X134285011Y-120066412D01*
X134447526Y-120309633D01*
X134654369Y-120516476D01*
X134828761Y-120633001D01*
X134654369Y-120749526D01*
X134447526Y-120956369D01*
X134285011Y-121199590D01*
X134173069Y-121469843D01*
X134116001Y-121756741D01*
X134116001Y-122049261D01*
X134173069Y-122336159D01*
X134285011Y-122606412D01*
X134447526Y-122849633D01*
X134654369Y-123056476D01*
X134828761Y-123173001D01*
X134654369Y-123289526D01*
X134447526Y-123496369D01*
X134285011Y-123739590D01*
X134173069Y-124009843D01*
X134116001Y-124296741D01*
X134116001Y-124589261D01*
X134173069Y-124876159D01*
X134285011Y-125146412D01*
X134447526Y-125389633D01*
X134654369Y-125596476D01*
X134828761Y-125713001D01*
X134654369Y-125829526D01*
X134447526Y-126036369D01*
X134285011Y-126279590D01*
X134173069Y-126549843D01*
X134116001Y-126836741D01*
X134116001Y-127129261D01*
X134173069Y-127416159D01*
X134285011Y-127686412D01*
X134447526Y-127929633D01*
X134654369Y-128136476D01*
X134828761Y-128253001D01*
X134654369Y-128369526D01*
X134447526Y-128576369D01*
X134285011Y-128819590D01*
X134173069Y-129089843D01*
X134116001Y-129376741D01*
X134116001Y-129669261D01*
X134173069Y-129956159D01*
X134285011Y-130226412D01*
X134447526Y-130469633D01*
X134654369Y-130676476D01*
X134828761Y-130793001D01*
X134654369Y-130909526D01*
X134447526Y-131116369D01*
X134285011Y-131359590D01*
X134173069Y-131629843D01*
X134116001Y-131916741D01*
X134116001Y-132209261D01*
X134173069Y-132496159D01*
X134285011Y-132766412D01*
X134447526Y-133009633D01*
X134654369Y-133216476D01*
X134828761Y-133333001D01*
X134654369Y-133449526D01*
X134447526Y-133656369D01*
X134285011Y-133899590D01*
X134173069Y-134169843D01*
X134116001Y-134456741D01*
X134116001Y-134749261D01*
X134173069Y-135036159D01*
X134285011Y-135306412D01*
X134420705Y-135509493D01*
X131569003Y-138361196D01*
X131539999Y-138384999D01*
X131484871Y-138452174D01*
X131445026Y-138500724D01*
X131376995Y-138628001D01*
X131374454Y-138632754D01*
X131330997Y-138776015D01*
X131320000Y-138887668D01*
X131320000Y-138887678D01*
X131316324Y-138925000D01*
X131320000Y-138962323D01*
X131320001Y-140321283D01*
X131311000Y-140412670D01*
X131311000Y-140412680D01*
X131310126Y-140421549D01*
X131293954Y-140340245D01*
X131133013Y-139951699D01*
X130899364Y-139602018D01*
X130601984Y-139304638D01*
X130252303Y-139070989D01*
X129863757Y-138910048D01*
X129451280Y-138828001D01*
X129030722Y-138828001D01*
X128618245Y-138910048D01*
X128229699Y-139070989D01*
X127880018Y-139304638D01*
X127582638Y-139602018D01*
X127348989Y-139951699D01*
X127188048Y-140340245D01*
X127106001Y-140752722D01*
X127106001Y-141173280D01*
X127188048Y-141585757D01*
X127348989Y-141974303D01*
X127582638Y-142323984D01*
X127880018Y-142621364D01*
X128189271Y-142828000D01*
X121296802Y-142828000D01*
X116503209Y-138034408D01*
X116547000Y-137814260D01*
X116547000Y-137521740D01*
X116489932Y-137234842D01*
X116377990Y-136964589D01*
X116215475Y-136721368D01*
X116008632Y-136514525D01*
X115834240Y-136398000D01*
X116008632Y-136281475D01*
X116215475Y-136074632D01*
X116377990Y-135831411D01*
X116489932Y-135561158D01*
X116547000Y-135274260D01*
X116547000Y-134981740D01*
X116503209Y-134761592D01*
X117527005Y-133737797D01*
X117556003Y-133713999D01*
X117603299Y-133656369D01*
X117650976Y-133598275D01*
X117721548Y-133466245D01*
X117721825Y-133465332D01*
X117765005Y-133322984D01*
X117776002Y-133211331D01*
X117776002Y-133211322D01*
X117779678Y-133173999D01*
X117776002Y-133136676D01*
X117776002Y-124037913D01*
X117779678Y-124000590D01*
X117776002Y-123963267D01*
X117776002Y-123963257D01*
X117765005Y-123851604D01*
X117721548Y-123708343D01*
X117650976Y-123576313D01*
X117579801Y-123489587D01*
X117556003Y-123460589D01*
X117527006Y-123436792D01*
X110742936Y-116652722D01*
X113056001Y-116652722D01*
X113056001Y-117073280D01*
X113138048Y-117485757D01*
X113298989Y-117874303D01*
X113532638Y-118223984D01*
X113830018Y-118521364D01*
X114179699Y-118755013D01*
X114568245Y-118915954D01*
X114980722Y-118998001D01*
X115401280Y-118998001D01*
X115813757Y-118915954D01*
X116202303Y-118755013D01*
X116551984Y-118521364D01*
X116849364Y-118223984D01*
X117083013Y-117874303D01*
X117243954Y-117485757D01*
X117326001Y-117073280D01*
X117326001Y-116652722D01*
X117243954Y-116240245D01*
X117083013Y-115851699D01*
X116849364Y-115502018D01*
X116551984Y-115204638D01*
X116202303Y-114970989D01*
X115813757Y-114810048D01*
X115401280Y-114728001D01*
X114980722Y-114728001D01*
X114568245Y-114810048D01*
X114179699Y-114970989D01*
X113830018Y-115204638D01*
X113532638Y-115502018D01*
X113298989Y-115851699D01*
X113138048Y-116240245D01*
X113056001Y-116652722D01*
X110742936Y-116652722D01*
X96449216Y-102359003D01*
X96425413Y-102329999D01*
X96309688Y-102235026D01*
X96177659Y-102164454D01*
X96034398Y-102120997D01*
X95922745Y-102110000D01*
X95922734Y-102110000D01*
X95885412Y-102106324D01*
X95848090Y-102110000D01*
X95004178Y-102110000D01*
X94879475Y-101923368D01*
X94672632Y-101716525D01*
X94498240Y-101600000D01*
X94672632Y-101483475D01*
X94879475Y-101276632D01*
X95041990Y-101033411D01*
X95153932Y-100763158D01*
X95211000Y-100476260D01*
X95211000Y-100183740D01*
X95167210Y-99963592D01*
X95412004Y-99718798D01*
X95441002Y-99695000D01*
X95535975Y-99579275D01*
X95606547Y-99447246D01*
X95650004Y-99303985D01*
X95661001Y-99192332D01*
X95661001Y-99192323D01*
X95664677Y-99155000D01*
X95661001Y-99117677D01*
X95661001Y-96520801D01*
X95663203Y-96523003D01*
X95687001Y-96552001D01*
X95802726Y-96646974D01*
X95934755Y-96717546D01*
X96078016Y-96761003D01*
X96189669Y-96772000D01*
X96189678Y-96772000D01*
X96227001Y-96775676D01*
X96264324Y-96772000D01*
X103848678Y-96772000D01*
X103886000Y-96775676D01*
X103923322Y-96772000D01*
X103923333Y-96772000D01*
X104034986Y-96761003D01*
X104178247Y-96717546D01*
X104310276Y-96646974D01*
X104426001Y-96552001D01*
X104449804Y-96522997D01*
X111545000Y-89427802D01*
X111545000Y-89554260D01*
X111602068Y-89841158D01*
X111714010Y-90111411D01*
X111876525Y-90354632D01*
X112083368Y-90561475D01*
X112257760Y-90678000D01*
X112083368Y-90794525D01*
X111876525Y-91001368D01*
X111714010Y-91244589D01*
X111602068Y-91514842D01*
X111545000Y-91801740D01*
X111545000Y-92094260D01*
X111602068Y-92381158D01*
X111714010Y-92651411D01*
X111876525Y-92894632D01*
X112083368Y-93101475D01*
X112257760Y-93218000D01*
X112083368Y-93334525D01*
X111876525Y-93541368D01*
X111714010Y-93784589D01*
X111602068Y-94054842D01*
X111545000Y-94341740D01*
X111545000Y-94634260D01*
X111602068Y-94921158D01*
X111714010Y-95191411D01*
X111876525Y-95434632D01*
X112083368Y-95641475D01*
X112257760Y-95758000D01*
X112083368Y-95874525D01*
X111876525Y-96081368D01*
X111714010Y-96324589D01*
X111602068Y-96594842D01*
X111545000Y-96881740D01*
X111545000Y-97174260D01*
X111602068Y-97461158D01*
X111714010Y-97731411D01*
X111876525Y-97974632D01*
X112083368Y-98181475D01*
X112257760Y-98298000D01*
X112083368Y-98414525D01*
X111876525Y-98621368D01*
X111714010Y-98864589D01*
X111602068Y-99134842D01*
X111545000Y-99421740D01*
X111545000Y-99714260D01*
X111602068Y-100001158D01*
X111714010Y-100271411D01*
X111876525Y-100514632D01*
X112083368Y-100721475D01*
X112257760Y-100838000D01*
X112083368Y-100954525D01*
X111876525Y-101161368D01*
X111714010Y-101404589D01*
X111602068Y-101674842D01*
X111545000Y-101961740D01*
X111545000Y-102254260D01*
X111602068Y-102541158D01*
X111714010Y-102811411D01*
X111876525Y-103054632D01*
X112083368Y-103261475D01*
X112257760Y-103378000D01*
X112083368Y-103494525D01*
X111876525Y-103701368D01*
X111714010Y-103944589D01*
X111602068Y-104214842D01*
X111545000Y-104501740D01*
X111545000Y-104794260D01*
X111602068Y-105081158D01*
X111714010Y-105351411D01*
X111876525Y-105594632D01*
X112083368Y-105801475D01*
X112326589Y-105963990D01*
X112596842Y-106075932D01*
X112883740Y-106133000D01*
X113176260Y-106133000D01*
X113463158Y-106075932D01*
X113733411Y-105963990D01*
X113976632Y-105801475D01*
X114183475Y-105594632D01*
X114345990Y-105351411D01*
X114457932Y-105081158D01*
X114515000Y-104794260D01*
X114515000Y-104501740D01*
X114457932Y-104214842D01*
X114345990Y-103944589D01*
X114183475Y-103701368D01*
X113976632Y-103494525D01*
X113802240Y-103378000D01*
X113976632Y-103261475D01*
X114183475Y-103054632D01*
X114345990Y-102811411D01*
X114457932Y-102541158D01*
X114515000Y-102254260D01*
X114515000Y-101961740D01*
X114457932Y-101674842D01*
X114345990Y-101404589D01*
X114183475Y-101161368D01*
X113976632Y-100954525D01*
X113802240Y-100838000D01*
X113976632Y-100721475D01*
X114183475Y-100514632D01*
X114345990Y-100271411D01*
X114457932Y-100001158D01*
X114515000Y-99714260D01*
X114515000Y-99421740D01*
X114457932Y-99134842D01*
X114345990Y-98864589D01*
X114183475Y-98621368D01*
X113976632Y-98414525D01*
X113802240Y-98298000D01*
X113976632Y-98181475D01*
X114183475Y-97974632D01*
X114345990Y-97731411D01*
X114457932Y-97461158D01*
X114515000Y-97174260D01*
X114515000Y-96881740D01*
X114457932Y-96594842D01*
X114345990Y-96324589D01*
X114183475Y-96081368D01*
X113976632Y-95874525D01*
X113802240Y-95758000D01*
X113976632Y-95641475D01*
X114183475Y-95434632D01*
X114345990Y-95191411D01*
X114457932Y-94921158D01*
X114515000Y-94634260D01*
X114515000Y-94341740D01*
X114457932Y-94054842D01*
X114345990Y-93784589D01*
X114183475Y-93541368D01*
X113976632Y-93334525D01*
X113802240Y-93218000D01*
X113976632Y-93101475D01*
X114183475Y-92894632D01*
X114308178Y-92708000D01*
X117258680Y-92708000D01*
X117296002Y-92711676D01*
X117333324Y-92708000D01*
X117333335Y-92708000D01*
X117444988Y-92697003D01*
X117588249Y-92653546D01*
X117720278Y-92582974D01*
X117836003Y-92488001D01*
X117859806Y-92458997D01*
X134116001Y-76202803D01*
X134116001Y-76329261D01*
%TA.AperFunction,NonConductor*%
D15*
G36*
X134116001Y-76329261D02*
G01*
X134173069Y-76616159D01*
X134285011Y-76886412D01*
X134447526Y-77129633D01*
X134654369Y-77336476D01*
X134828761Y-77453001D01*
X134654369Y-77569526D01*
X134447526Y-77776369D01*
X134285011Y-78019590D01*
X134173069Y-78289843D01*
X134116001Y-78576741D01*
X134116001Y-78869261D01*
X134173069Y-79156159D01*
X134285011Y-79426412D01*
X134447526Y-79669633D01*
X134654369Y-79876476D01*
X134828761Y-79993001D01*
X134654369Y-80109526D01*
X134447526Y-80316369D01*
X134285011Y-80559590D01*
X134173069Y-80829843D01*
X134116001Y-81116741D01*
X134116001Y-81409261D01*
X134173069Y-81696159D01*
X134285011Y-81966412D01*
X134447526Y-82209633D01*
X134654369Y-82416476D01*
X134828761Y-82533001D01*
X134654369Y-82649526D01*
X134447526Y-82856369D01*
X134285011Y-83099590D01*
X134173069Y-83369843D01*
X134116001Y-83656741D01*
X134116001Y-83949261D01*
X134173069Y-84236159D01*
X134285011Y-84506412D01*
X134447526Y-84749633D01*
X134654369Y-84956476D01*
X134828761Y-85073001D01*
X134654369Y-85189526D01*
X134447526Y-85396369D01*
X134285011Y-85639590D01*
X134173069Y-85909843D01*
X134116001Y-86196741D01*
X134116001Y-86489261D01*
X134173069Y-86776159D01*
X134285011Y-87046412D01*
X134447526Y-87289633D01*
X134654369Y-87496476D01*
X134828761Y-87613001D01*
X134654369Y-87729526D01*
X134447526Y-87936369D01*
X134285011Y-88179590D01*
X134173069Y-88449843D01*
X134116001Y-88736741D01*
X134116001Y-89029261D01*
X134173069Y-89316159D01*
X134285011Y-89586412D01*
X134447526Y-89829633D01*
X134654369Y-90036476D01*
X134828761Y-90153001D01*
X134654369Y-90269526D01*
X134447526Y-90476369D01*
X134285011Y-90719590D01*
X134173069Y-90989843D01*
X134116001Y-91276741D01*
X134116001Y-91569261D01*
X134173069Y-91856159D01*
X134285011Y-92126412D01*
X134447526Y-92369633D01*
X134654369Y-92576476D01*
X134828761Y-92693001D01*
X134654369Y-92809526D01*
X134447526Y-93016369D01*
X134285011Y-93259590D01*
X134173069Y-93529843D01*
X134116001Y-93816741D01*
X134116001Y-94109261D01*
X134173069Y-94396159D01*
X134285011Y-94666412D01*
X134447526Y-94909633D01*
X134654369Y-95116476D01*
X134828761Y-95233001D01*
X134654369Y-95349526D01*
X134447526Y-95556369D01*
X134285011Y-95799590D01*
X134173069Y-96069843D01*
X134116001Y-96356741D01*
X134116001Y-96649261D01*
X134173069Y-96936159D01*
X134285011Y-97206412D01*
X134447526Y-97449633D01*
X134654369Y-97656476D01*
X134828761Y-97773001D01*
X134654369Y-97889526D01*
X134447526Y-98096369D01*
X134285011Y-98339590D01*
X134173069Y-98609843D01*
X134116001Y-98896741D01*
X134116001Y-99189261D01*
X134173069Y-99476159D01*
X134285011Y-99746412D01*
X134447526Y-99989633D01*
X134654369Y-100196476D01*
X134828761Y-100313001D01*
X134654369Y-100429526D01*
X134447526Y-100636369D01*
X134285011Y-100879590D01*
X134173069Y-101149843D01*
X134116001Y-101436741D01*
X134116001Y-101729261D01*
X134173069Y-102016159D01*
X134285011Y-102286412D01*
X134447526Y-102529633D01*
X134654369Y-102736476D01*
X134828761Y-102853001D01*
X134654369Y-102969526D01*
X134447526Y-103176369D01*
X134285011Y-103419590D01*
X134173069Y-103689843D01*
X134116001Y-103976741D01*
X134116001Y-104269261D01*
X134173069Y-104556159D01*
X134285011Y-104826412D01*
X134447526Y-105069633D01*
X134654369Y-105276476D01*
X134828761Y-105393001D01*
X134654369Y-105509526D01*
X134447526Y-105716369D01*
X134285011Y-105959590D01*
X134173069Y-106229843D01*
X134116001Y-106516741D01*
X134116001Y-106809261D01*
X134173069Y-107096159D01*
X134285011Y-107366412D01*
X134447526Y-107609633D01*
X134654369Y-107816476D01*
X134828761Y-107933001D01*
X134654369Y-108049526D01*
X134447526Y-108256369D01*
X134285011Y-108499590D01*
X134173069Y-108769843D01*
X134116001Y-109056741D01*
X134116001Y-109349261D01*
X134173069Y-109636159D01*
X134285011Y-109906412D01*
X134447526Y-110149633D01*
X134654369Y-110356476D01*
X134828761Y-110473001D01*
X134654369Y-110589526D01*
X134447526Y-110796369D01*
X134285011Y-111039590D01*
X134173069Y-111309843D01*
X134116001Y-111596741D01*
X134116001Y-111889261D01*
X134173069Y-112176159D01*
X134285011Y-112446412D01*
X134447526Y-112689633D01*
X134654369Y-112896476D01*
X134828761Y-113013001D01*
X134654369Y-113129526D01*
X134447526Y-113336369D01*
X134285011Y-113579590D01*
X134173069Y-113849843D01*
X134116001Y-114136741D01*
X134116001Y-114429261D01*
X134173069Y-114716159D01*
X134285011Y-114986412D01*
X134447526Y-115229633D01*
X134654369Y-115436476D01*
X134828761Y-115553001D01*
X134654369Y-115669526D01*
X134447526Y-115876369D01*
X134285011Y-116119590D01*
X134173069Y-116389843D01*
X134116001Y-116676741D01*
X134116001Y-116969261D01*
X134173069Y-117256159D01*
X134285011Y-117526412D01*
X134447526Y-117769633D01*
X134654369Y-117976476D01*
X134828761Y-118093001D01*
X134654369Y-118209526D01*
X134447526Y-118416369D01*
X134285011Y-118659590D01*
X134173069Y-118929843D01*
X134116001Y-119216741D01*
X134116001Y-119509261D01*
X134173069Y-119796159D01*
X134285011Y-120066412D01*
X134447526Y-120309633D01*
X134654369Y-120516476D01*
X134828761Y-120633001D01*
X134654369Y-120749526D01*
X134447526Y-120956369D01*
X134285011Y-121199590D01*
X134173069Y-121469843D01*
X134116001Y-121756741D01*
X134116001Y-122049261D01*
X134173069Y-122336159D01*
X134285011Y-122606412D01*
X134447526Y-122849633D01*
X134654369Y-123056476D01*
X134828761Y-123173001D01*
X134654369Y-123289526D01*
X134447526Y-123496369D01*
X134285011Y-123739590D01*
X134173069Y-124009843D01*
X134116001Y-124296741D01*
X134116001Y-124589261D01*
X134173069Y-124876159D01*
X134285011Y-125146412D01*
X134447526Y-125389633D01*
X134654369Y-125596476D01*
X134828761Y-125713001D01*
X134654369Y-125829526D01*
X134447526Y-126036369D01*
X134285011Y-126279590D01*
X134173069Y-126549843D01*
X134116001Y-126836741D01*
X134116001Y-127129261D01*
X134173069Y-127416159D01*
X134285011Y-127686412D01*
X134447526Y-127929633D01*
X134654369Y-128136476D01*
X134828761Y-128253001D01*
X134654369Y-128369526D01*
X134447526Y-128576369D01*
X134285011Y-128819590D01*
X134173069Y-129089843D01*
X134116001Y-129376741D01*
X134116001Y-129669261D01*
X134173069Y-129956159D01*
X134285011Y-130226412D01*
X134447526Y-130469633D01*
X134654369Y-130676476D01*
X134828761Y-130793001D01*
X134654369Y-130909526D01*
X134447526Y-131116369D01*
X134285011Y-131359590D01*
X134173069Y-131629843D01*
X134116001Y-131916741D01*
X134116001Y-132209261D01*
X134173069Y-132496159D01*
X134285011Y-132766412D01*
X134447526Y-133009633D01*
X134654369Y-133216476D01*
X134828761Y-133333001D01*
X134654369Y-133449526D01*
X134447526Y-133656369D01*
X134285011Y-133899590D01*
X134173069Y-134169843D01*
X134116001Y-134456741D01*
X134116001Y-134749261D01*
X134173069Y-135036159D01*
X134285011Y-135306412D01*
X134420705Y-135509493D01*
X131569003Y-138361196D01*
X131539999Y-138384999D01*
X131484871Y-138452174D01*
X131445026Y-138500724D01*
X131376995Y-138628001D01*
X131374454Y-138632754D01*
X131330997Y-138776015D01*
X131320000Y-138887668D01*
X131320000Y-138887678D01*
X131316324Y-138925000D01*
X131320000Y-138962323D01*
X131320001Y-140321283D01*
X131311000Y-140412670D01*
X131311000Y-140412680D01*
X131310126Y-140421549D01*
X131293954Y-140340245D01*
X131133013Y-139951699D01*
X130899364Y-139602018D01*
X130601984Y-139304638D01*
X130252303Y-139070989D01*
X129863757Y-138910048D01*
X129451280Y-138828001D01*
X129030722Y-138828001D01*
X128618245Y-138910048D01*
X128229699Y-139070989D01*
X127880018Y-139304638D01*
X127582638Y-139602018D01*
X127348989Y-139951699D01*
X127188048Y-140340245D01*
X127106001Y-140752722D01*
X127106001Y-141173280D01*
X127188048Y-141585757D01*
X127348989Y-141974303D01*
X127582638Y-142323984D01*
X127880018Y-142621364D01*
X128189271Y-142828000D01*
X121296802Y-142828000D01*
X116503209Y-138034408D01*
X116547000Y-137814260D01*
X116547000Y-137521740D01*
X116489932Y-137234842D01*
X116377990Y-136964589D01*
X116215475Y-136721368D01*
X116008632Y-136514525D01*
X115834240Y-136398000D01*
X116008632Y-136281475D01*
X116215475Y-136074632D01*
X116377990Y-135831411D01*
X116489932Y-135561158D01*
X116547000Y-135274260D01*
X116547000Y-134981740D01*
X116503209Y-134761592D01*
X117527005Y-133737797D01*
X117556003Y-133713999D01*
X117603299Y-133656369D01*
X117650976Y-133598275D01*
X117721548Y-133466245D01*
X117721825Y-133465332D01*
X117765005Y-133322984D01*
X117776002Y-133211331D01*
X117776002Y-133211322D01*
X117779678Y-133173999D01*
X117776002Y-133136676D01*
X117776002Y-124037913D01*
X117779678Y-124000590D01*
X117776002Y-123963267D01*
X117776002Y-123963257D01*
X117765005Y-123851604D01*
X117721548Y-123708343D01*
X117650976Y-123576313D01*
X117579801Y-123489587D01*
X117556003Y-123460589D01*
X117527006Y-123436792D01*
X110742936Y-116652722D01*
X113056001Y-116652722D01*
X113056001Y-117073280D01*
X113138048Y-117485757D01*
X113298989Y-117874303D01*
X113532638Y-118223984D01*
X113830018Y-118521364D01*
X114179699Y-118755013D01*
X114568245Y-118915954D01*
X114980722Y-118998001D01*
X115401280Y-118998001D01*
X115813757Y-118915954D01*
X116202303Y-118755013D01*
X116551984Y-118521364D01*
X116849364Y-118223984D01*
X117083013Y-117874303D01*
X117243954Y-117485757D01*
X117326001Y-117073280D01*
X117326001Y-116652722D01*
X117243954Y-116240245D01*
X117083013Y-115851699D01*
X116849364Y-115502018D01*
X116551984Y-115204638D01*
X116202303Y-114970989D01*
X115813757Y-114810048D01*
X115401280Y-114728001D01*
X114980722Y-114728001D01*
X114568245Y-114810048D01*
X114179699Y-114970989D01*
X113830018Y-115204638D01*
X113532638Y-115502018D01*
X113298989Y-115851699D01*
X113138048Y-116240245D01*
X113056001Y-116652722D01*
X110742936Y-116652722D01*
X96449216Y-102359003D01*
X96425413Y-102329999D01*
X96309688Y-102235026D01*
X96177659Y-102164454D01*
X96034398Y-102120997D01*
X95922745Y-102110000D01*
X95922734Y-102110000D01*
X95885412Y-102106324D01*
X95848090Y-102110000D01*
X95004178Y-102110000D01*
X94879475Y-101923368D01*
X94672632Y-101716525D01*
X94498240Y-101600000D01*
X94672632Y-101483475D01*
X94879475Y-101276632D01*
X95041990Y-101033411D01*
X95153932Y-100763158D01*
X95211000Y-100476260D01*
X95211000Y-100183740D01*
X95167210Y-99963592D01*
X95412004Y-99718798D01*
X95441002Y-99695000D01*
X95535975Y-99579275D01*
X95606547Y-99447246D01*
X95650004Y-99303985D01*
X95661001Y-99192332D01*
X95661001Y-99192323D01*
X95664677Y-99155000D01*
X95661001Y-99117677D01*
X95661001Y-96520801D01*
X95663203Y-96523003D01*
X95687001Y-96552001D01*
X95802726Y-96646974D01*
X95934755Y-96717546D01*
X96078016Y-96761003D01*
X96189669Y-96772000D01*
X96189678Y-96772000D01*
X96227001Y-96775676D01*
X96264324Y-96772000D01*
X103848678Y-96772000D01*
X103886000Y-96775676D01*
X103923322Y-96772000D01*
X103923333Y-96772000D01*
X104034986Y-96761003D01*
X104178247Y-96717546D01*
X104310276Y-96646974D01*
X104426001Y-96552001D01*
X104449804Y-96522997D01*
X111545000Y-89427802D01*
X111545000Y-89554260D01*
X111602068Y-89841158D01*
X111714010Y-90111411D01*
X111876525Y-90354632D01*
X112083368Y-90561475D01*
X112257760Y-90678000D01*
X112083368Y-90794525D01*
X111876525Y-91001368D01*
X111714010Y-91244589D01*
X111602068Y-91514842D01*
X111545000Y-91801740D01*
X111545000Y-92094260D01*
X111602068Y-92381158D01*
X111714010Y-92651411D01*
X111876525Y-92894632D01*
X112083368Y-93101475D01*
X112257760Y-93218000D01*
X112083368Y-93334525D01*
X111876525Y-93541368D01*
X111714010Y-93784589D01*
X111602068Y-94054842D01*
X111545000Y-94341740D01*
X111545000Y-94634260D01*
X111602068Y-94921158D01*
X111714010Y-95191411D01*
X111876525Y-95434632D01*
X112083368Y-95641475D01*
X112257760Y-95758000D01*
X112083368Y-95874525D01*
X111876525Y-96081368D01*
X111714010Y-96324589D01*
X111602068Y-96594842D01*
X111545000Y-96881740D01*
X111545000Y-97174260D01*
X111602068Y-97461158D01*
X111714010Y-97731411D01*
X111876525Y-97974632D01*
X112083368Y-98181475D01*
X112257760Y-98298000D01*
X112083368Y-98414525D01*
X111876525Y-98621368D01*
X111714010Y-98864589D01*
X111602068Y-99134842D01*
X111545000Y-99421740D01*
X111545000Y-99714260D01*
X111602068Y-100001158D01*
X111714010Y-100271411D01*
X111876525Y-100514632D01*
X112083368Y-100721475D01*
X112257760Y-100838000D01*
X112083368Y-100954525D01*
X111876525Y-101161368D01*
X111714010Y-101404589D01*
X111602068Y-101674842D01*
X111545000Y-101961740D01*
X111545000Y-102254260D01*
X111602068Y-102541158D01*
X111714010Y-102811411D01*
X111876525Y-103054632D01*
X112083368Y-103261475D01*
X112257760Y-103378000D01*
X112083368Y-103494525D01*
X111876525Y-103701368D01*
X111714010Y-103944589D01*
X111602068Y-104214842D01*
X111545000Y-104501740D01*
X111545000Y-104794260D01*
X111602068Y-105081158D01*
X111714010Y-105351411D01*
X111876525Y-105594632D01*
X112083368Y-105801475D01*
X112326589Y-105963990D01*
X112596842Y-106075932D01*
X112883740Y-106133000D01*
X113176260Y-106133000D01*
X113463158Y-106075932D01*
X113733411Y-105963990D01*
X113976632Y-105801475D01*
X114183475Y-105594632D01*
X114345990Y-105351411D01*
X114457932Y-105081158D01*
X114515000Y-104794260D01*
X114515000Y-104501740D01*
X114457932Y-104214842D01*
X114345990Y-103944589D01*
X114183475Y-103701368D01*
X113976632Y-103494525D01*
X113802240Y-103378000D01*
X113976632Y-103261475D01*
X114183475Y-103054632D01*
X114345990Y-102811411D01*
X114457932Y-102541158D01*
X114515000Y-102254260D01*
X114515000Y-101961740D01*
X114457932Y-101674842D01*
X114345990Y-101404589D01*
X114183475Y-101161368D01*
X113976632Y-100954525D01*
X113802240Y-100838000D01*
X113976632Y-100721475D01*
X114183475Y-100514632D01*
X114345990Y-100271411D01*
X114457932Y-100001158D01*
X114515000Y-99714260D01*
X114515000Y-99421740D01*
X114457932Y-99134842D01*
X114345990Y-98864589D01*
X114183475Y-98621368D01*
X113976632Y-98414525D01*
X113802240Y-98298000D01*
X113976632Y-98181475D01*
X114183475Y-97974632D01*
X114345990Y-97731411D01*
X114457932Y-97461158D01*
X114515000Y-97174260D01*
X114515000Y-96881740D01*
X114457932Y-96594842D01*
X114345990Y-96324589D01*
X114183475Y-96081368D01*
X113976632Y-95874525D01*
X113802240Y-95758000D01*
X113976632Y-95641475D01*
X114183475Y-95434632D01*
X114345990Y-95191411D01*
X114457932Y-94921158D01*
X114515000Y-94634260D01*
X114515000Y-94341740D01*
X114457932Y-94054842D01*
X114345990Y-93784589D01*
X114183475Y-93541368D01*
X113976632Y-93334525D01*
X113802240Y-93218000D01*
X113976632Y-93101475D01*
X114183475Y-92894632D01*
X114308178Y-92708000D01*
X117258680Y-92708000D01*
X117296002Y-92711676D01*
X117333324Y-92708000D01*
X117333335Y-92708000D01*
X117444988Y-92697003D01*
X117588249Y-92653546D01*
X117720278Y-92582974D01*
X117836003Y-92488001D01*
X117859806Y-92458997D01*
X134116001Y-76202803D01*
X134116001Y-76329261D01*
G37*
%TD.AperFunction*%
D14*
X131311001Y-142828000D02*
X130292731Y-142828000D01*
X130601984Y-142621364D01*
X130899364Y-142323984D01*
X131133013Y-141974303D01*
X131293954Y-141585757D01*
X131311000Y-141500060D01*
X131311001Y-142828000D01*
%TA.AperFunction,NonConductor*%
D15*
G36*
X131311001Y-142828000D02*
G01*
X130292731Y-142828000D01*
X130601984Y-142621364D01*
X130899364Y-142323984D01*
X131133013Y-141974303D01*
X131293954Y-141585757D01*
X131311000Y-141500060D01*
X131311001Y-142828000D01*
G37*
%TD.AperFunction*%
D14*
X136987526Y-140629633D02*
X137194369Y-140836476D01*
X137368761Y-140953001D01*
X137194369Y-141069526D01*
X136987526Y-141276369D01*
X136871001Y-141450761D01*
X136754476Y-141276369D01*
X136547633Y-141069526D01*
X136373241Y-140953001D01*
X136547633Y-140836476D01*
X136754476Y-140629633D01*
X136871001Y-140455241D01*
X136987526Y-140629633D01*
%TA.AperFunction,NonConductor*%
D15*
G36*
X136987526Y-140629633D02*
G01*
X137194369Y-140836476D01*
X137368761Y-140953001D01*
X137194369Y-141069526D01*
X136987526Y-141276369D01*
X136871001Y-141450761D01*
X136754476Y-141276369D01*
X136547633Y-141069526D01*
X136373241Y-140953001D01*
X136547633Y-140836476D01*
X136754476Y-140629633D01*
X136871001Y-140455241D01*
X136987526Y-140629633D01*
G37*
%TD.AperFunction*%
D14*
X76027526Y-140629633D02*
X76234369Y-140836476D01*
X76408761Y-140953001D01*
X76234369Y-141069526D01*
X76027526Y-141276369D01*
X75911001Y-141450761D01*
X75794476Y-141276369D01*
X75587633Y-141069526D01*
X75413241Y-140953001D01*
X75587633Y-140836476D01*
X75794476Y-140629633D01*
X75911001Y-140455241D01*
X76027526Y-140629633D01*
%TA.AperFunction,NonConductor*%
D15*
G36*
X76027526Y-140629633D02*
G01*
X76234369Y-140836476D01*
X76408761Y-140953001D01*
X76234369Y-141069526D01*
X76027526Y-141276369D01*
X75911001Y-141450761D01*
X75794476Y-141276369D01*
X75587633Y-141069526D01*
X75413241Y-140953001D01*
X75587633Y-140836476D01*
X75794476Y-140629633D01*
X75911001Y-140455241D01*
X76027526Y-140629633D01*
G37*
%TD.AperFunction*%
D14*
X73868761Y-140953001D02*
X73775991Y-141014988D01*
X73775991Y-140891014D01*
X73868761Y-140953001D01*
%TA.AperFunction,NonConductor*%
D15*
G36*
X73868761Y-140953001D02*
G01*
X73775991Y-141014988D01*
X73775991Y-140891014D01*
X73868761Y-140953001D01*
G37*
%TD.AperFunction*%
D14*
X136987526Y-138089633D02*
X137194369Y-138296476D01*
X137368761Y-138413001D01*
X137194369Y-138529526D01*
X136987526Y-138736369D01*
X136871001Y-138910761D01*
X136754476Y-138736369D01*
X136547633Y-138529526D01*
X136373241Y-138413001D01*
X136547633Y-138296476D01*
X136754476Y-138089633D01*
X136871001Y-137915241D01*
X136987526Y-138089633D01*
%TA.AperFunction,NonConductor*%
D15*
G36*
X136987526Y-138089633D02*
G01*
X137194369Y-138296476D01*
X137368761Y-138413001D01*
X137194369Y-138529526D01*
X136987526Y-138736369D01*
X136871001Y-138910761D01*
X136754476Y-138736369D01*
X136547633Y-138529526D01*
X136373241Y-138413001D01*
X136547633Y-138296476D01*
X136754476Y-138089633D01*
X136871001Y-137915241D01*
X136987526Y-138089633D01*
G37*
%TD.AperFunction*%
D14*
X76027526Y-135549633D02*
X76234369Y-135756476D01*
X76408761Y-135873001D01*
X76234369Y-135989526D01*
X76027526Y-136196369D01*
X75911001Y-136370761D01*
X75794476Y-136196369D01*
X75587633Y-135989526D01*
X75413241Y-135873001D01*
X75587633Y-135756476D01*
X75794476Y-135549633D01*
X75911001Y-135375241D01*
X76027526Y-135549633D01*
%TA.AperFunction,NonConductor*%
D15*
G36*
X76027526Y-135549633D02*
G01*
X76234369Y-135756476D01*
X76408761Y-135873001D01*
X76234369Y-135989526D01*
X76027526Y-136196369D01*
X75911001Y-136370761D01*
X75794476Y-136196369D01*
X75587633Y-135989526D01*
X75413241Y-135873001D01*
X75587633Y-135756476D01*
X75794476Y-135549633D01*
X75911001Y-135375241D01*
X76027526Y-135549633D01*
G37*
%TD.AperFunction*%
D14*
X76027526Y-133009633D02*
X76234369Y-133216476D01*
X76408761Y-133333001D01*
X76234369Y-133449526D01*
X76027526Y-133656369D01*
X75911001Y-133830761D01*
X75794476Y-133656369D01*
X75587633Y-133449526D01*
X75413241Y-133333001D01*
X75587633Y-133216476D01*
X75794476Y-133009633D01*
X75911001Y-132835241D01*
X76027526Y-133009633D01*
%TA.AperFunction,NonConductor*%
D15*
G36*
X76027526Y-133009633D02*
G01*
X76234369Y-133216476D01*
X76408761Y-133333001D01*
X76234369Y-133449526D01*
X76027526Y-133656369D01*
X75911001Y-133830761D01*
X75794476Y-133656369D01*
X75587633Y-133449526D01*
X75413241Y-133333001D01*
X75587633Y-133216476D01*
X75794476Y-133009633D01*
X75911001Y-132835241D01*
X76027526Y-133009633D01*
G37*
%TD.AperFunction*%
D14*
X113577000Y-127654260D02*
X113634068Y-127941158D01*
X113704010Y-128110013D01*
X113697001Y-128109323D01*
X113659676Y-128112999D01*
X113659668Y-128112999D01*
X113548015Y-128123996D01*
X113404754Y-128167453D01*
X113272725Y-128238025D01*
X113157000Y-128332998D01*
X113133202Y-128361996D01*
X109667199Y-131828000D01*
X83626802Y-131828000D01*
X80810805Y-129012004D01*
X80787002Y-128983000D01*
X80671277Y-128888027D01*
X80539248Y-128817455D01*
X80395987Y-128773998D01*
X80284334Y-128763001D01*
X80284323Y-128763001D01*
X80247001Y-128759325D01*
X80209679Y-128763001D01*
X78459179Y-128763001D01*
X78334476Y-128576369D01*
X78127633Y-128369526D01*
X77953241Y-128253001D01*
X78127633Y-128136476D01*
X78334476Y-127929633D01*
X78459179Y-127743001D01*
X113009677Y-127743001D01*
X113046999Y-127746677D01*
X113084321Y-127743001D01*
X113084332Y-127743001D01*
X113195985Y-127732004D01*
X113339246Y-127688547D01*
X113471275Y-127617975D01*
X113577000Y-127531209D01*
X113577000Y-127654260D01*
%TA.AperFunction,NonConductor*%
D15*
G36*
X113577000Y-127654260D02*
G01*
X113634068Y-127941158D01*
X113704010Y-128110013D01*
X113697001Y-128109323D01*
X113659676Y-128112999D01*
X113659668Y-128112999D01*
X113548015Y-128123996D01*
X113404754Y-128167453D01*
X113272725Y-128238025D01*
X113157000Y-128332998D01*
X113133202Y-128361996D01*
X109667199Y-131828000D01*
X83626802Y-131828000D01*
X80810805Y-129012004D01*
X80787002Y-128983000D01*
X80671277Y-128888027D01*
X80539248Y-128817455D01*
X80395987Y-128773998D01*
X80284334Y-128763001D01*
X80284323Y-128763001D01*
X80247001Y-128759325D01*
X80209679Y-128763001D01*
X78459179Y-128763001D01*
X78334476Y-128576369D01*
X78127633Y-128369526D01*
X77953241Y-128253001D01*
X78127633Y-128136476D01*
X78334476Y-127929633D01*
X78459179Y-127743001D01*
X113009677Y-127743001D01*
X113046999Y-127746677D01*
X113084321Y-127743001D01*
X113084332Y-127743001D01*
X113195985Y-127732004D01*
X113339246Y-127688547D01*
X113471275Y-127617975D01*
X113577000Y-127531209D01*
X113577000Y-127654260D01*
G37*
%TD.AperFunction*%
D14*
X76027526Y-130469633D02*
X76234369Y-130676476D01*
X76408761Y-130793001D01*
X76234369Y-130909526D01*
X76027526Y-131116369D01*
X75911001Y-131290761D01*
X75794476Y-131116369D01*
X75587633Y-130909526D01*
X75413241Y-130793001D01*
X75587633Y-130676476D01*
X75794476Y-130469633D01*
X75911001Y-130295241D01*
X76027526Y-130469633D01*
%TA.AperFunction,NonConductor*%
D15*
G36*
X76027526Y-130469633D02*
G01*
X76234369Y-130676476D01*
X76408761Y-130793001D01*
X76234369Y-130909526D01*
X76027526Y-131116369D01*
X75911001Y-131290761D01*
X75794476Y-131116369D01*
X75587633Y-130909526D01*
X75413241Y-130793001D01*
X75587633Y-130676476D01*
X75794476Y-130469633D01*
X75911001Y-130295241D01*
X76027526Y-130469633D01*
G37*
%TD.AperFunction*%
D14*
X136597197Y-130793001D02*
X136507493Y-130882705D01*
X136373241Y-130793001D01*
X136507493Y-130703297D01*
X136597197Y-130793001D01*
%TA.AperFunction,NonConductor*%
D15*
G36*
X136597197Y-130793001D02*
G01*
X136507493Y-130882705D01*
X136373241Y-130793001D01*
X136507493Y-130703297D01*
X136597197Y-130793001D01*
G37*
%TD.AperFunction*%
D14*
X116256002Y-128428199D02*
X116242296Y-128414492D01*
X116256002Y-128393978D01*
X116256002Y-128428199D01*
%TA.AperFunction,NonConductor*%
D15*
G36*
X116256002Y-128428199D02*
G01*
X116242296Y-128414492D01*
X116256002Y-128393978D01*
X116256002Y-128428199D01*
G37*
%TD.AperFunction*%
D14*
X73868761Y-128253001D02*
X73775991Y-128314988D01*
X73775991Y-128191014D01*
X73868761Y-128253001D01*
%TA.AperFunction,NonConductor*%
D15*
G36*
X73868761Y-128253001D02*
G01*
X73775991Y-128314988D01*
X73775991Y-128191014D01*
X73868761Y-128253001D01*
G37*
%TD.AperFunction*%
D14*
X113573928Y-125381270D02*
X112732198Y-126223001D01*
X78459179Y-126223001D01*
X78334476Y-126036369D01*
X78127633Y-125829526D01*
X77953241Y-125713001D01*
X78127633Y-125596476D01*
X78334476Y-125389633D01*
X78496991Y-125146412D01*
X78608933Y-124876159D01*
X78666001Y-124589261D01*
X78666001Y-124552999D01*
X113573928Y-124552999D01*
X113573928Y-125381270D01*
%TA.AperFunction,NonConductor*%
D15*
G36*
X113573928Y-125381270D02*
G01*
X112732198Y-126223001D01*
X78459179Y-126223001D01*
X78334476Y-126036369D01*
X78127633Y-125829526D01*
X77953241Y-125713001D01*
X78127633Y-125596476D01*
X78334476Y-125389633D01*
X78496991Y-125146412D01*
X78608933Y-124876159D01*
X78666001Y-124589261D01*
X78666001Y-124552999D01*
X113573928Y-124552999D01*
X113573928Y-125381270D01*
G37*
%TD.AperFunction*%
D14*
X73868761Y-125713001D02*
X73775991Y-125774988D01*
X73775991Y-125651014D01*
X73868761Y-125713001D01*
%TA.AperFunction,NonConductor*%
D15*
G36*
X73868761Y-125713001D02*
G01*
X73775991Y-125774988D01*
X73775991Y-125651014D01*
X73868761Y-125713001D01*
G37*
%TD.AperFunction*%
D14*
X76005912Y-122817286D02*
X75555286Y-123267913D01*
X75413241Y-123173001D01*
X75587633Y-123056476D01*
X75794476Y-122849633D01*
X75911001Y-122675241D01*
X76005912Y-122817286D01*
%TA.AperFunction,NonConductor*%
D15*
G36*
X76005912Y-122817286D02*
G01*
X75555286Y-123267913D01*
X75413241Y-123173001D01*
X75587633Y-123056476D01*
X75794476Y-122849633D01*
X75911001Y-122675241D01*
X76005912Y-122817286D01*
G37*
%TD.AperFunction*%
D14*
X73868761Y-123173001D02*
X73775991Y-123234988D01*
X73775991Y-123111014D01*
X73868761Y-123173001D01*
%TA.AperFunction,NonConductor*%
D15*
G36*
X73868761Y-123173001D02*
G01*
X73775991Y-123234988D01*
X73775991Y-123111014D01*
X73868761Y-123173001D01*
G37*
%TD.AperFunction*%
D14*
X114973609Y-123032999D02*
X78864806Y-123032999D01*
X93062003Y-108835803D01*
X93091000Y-108812006D01*
X93185973Y-108696281D01*
X93256545Y-108564252D01*
X93300002Y-108420991D01*
X93310999Y-108309338D01*
X93310999Y-108309330D01*
X93314675Y-108272005D01*
X93310999Y-108234680D01*
X93310999Y-106841544D01*
X93579740Y-106895000D01*
X93872260Y-106895000D01*
X94159158Y-106837932D01*
X94429411Y-106725990D01*
X94672632Y-106563475D01*
X94879475Y-106356632D01*
X95041990Y-106113411D01*
X95153932Y-105843158D01*
X95211000Y-105556260D01*
X95211000Y-105263740D01*
X95153932Y-104976842D01*
X95041990Y-104706589D01*
X94879475Y-104463368D01*
X94672632Y-104256525D01*
X94498240Y-104140000D01*
X94672632Y-104023475D01*
X94879475Y-103816632D01*
X95004178Y-103630000D01*
X95570611Y-103630000D01*
X114973609Y-123032999D01*
%TA.AperFunction,NonConductor*%
D15*
G36*
X114973609Y-123032999D02*
G01*
X78864806Y-123032999D01*
X93062003Y-108835803D01*
X93091000Y-108812006D01*
X93185973Y-108696281D01*
X93256545Y-108564252D01*
X93300002Y-108420991D01*
X93310999Y-108309338D01*
X93310999Y-108309330D01*
X93314675Y-108272005D01*
X93310999Y-108234680D01*
X93310999Y-106841544D01*
X93579740Y-106895000D01*
X93872260Y-106895000D01*
X94159158Y-106837932D01*
X94429411Y-106725990D01*
X94672632Y-106563475D01*
X94879475Y-106356632D01*
X95041990Y-106113411D01*
X95153932Y-105843158D01*
X95211000Y-105556260D01*
X95211000Y-105263740D01*
X95153932Y-104976842D01*
X95041990Y-104706589D01*
X94879475Y-104463368D01*
X94672632Y-104256525D01*
X94498240Y-104140000D01*
X94672632Y-104023475D01*
X94879475Y-103816632D01*
X95004178Y-103630000D01*
X95570611Y-103630000D01*
X114973609Y-123032999D01*
G37*
%TD.AperFunction*%
D14*
X92241000Y-100476260D02*
X92284791Y-100696408D01*
X92039997Y-100941202D01*
X92010999Y-100965000D01*
X91987201Y-100993998D01*
X91987200Y-100993999D01*
X91916025Y-101080725D01*
X91845453Y-101212755D01*
X91801997Y-101356016D01*
X91787323Y-101505001D01*
X91791000Y-101542333D01*
X91790999Y-107957203D01*
X78512111Y-121236092D01*
X78496991Y-121199590D01*
X78334476Y-120956369D01*
X78127633Y-120749526D01*
X77953241Y-120633001D01*
X78127633Y-120516476D01*
X78334476Y-120309633D01*
X78496991Y-120066412D01*
X78608933Y-119796159D01*
X78666001Y-119509261D01*
X78666001Y-119216741D01*
X78608933Y-118929843D01*
X78496991Y-118659590D01*
X78334476Y-118416369D01*
X78127633Y-118209526D01*
X77953241Y-118093001D01*
X78127633Y-117976476D01*
X78334476Y-117769633D01*
X78496991Y-117526412D01*
X78608933Y-117256159D01*
X78666001Y-116969261D01*
X78666001Y-116676741D01*
X78608933Y-116389843D01*
X78496991Y-116119590D01*
X78334476Y-115876369D01*
X78127633Y-115669526D01*
X77953241Y-115553001D01*
X78127633Y-115436476D01*
X78334476Y-115229633D01*
X78496991Y-114986412D01*
X78608933Y-114716159D01*
X78666001Y-114429261D01*
X78666001Y-114136741D01*
X78608933Y-113849843D01*
X78605769Y-113842205D01*
X78700247Y-113813546D01*
X78832276Y-113742974D01*
X78948001Y-113648001D01*
X78971804Y-113618997D01*
X92241000Y-100349802D01*
X92241000Y-100476260D01*
%TA.AperFunction,NonConductor*%
D15*
G36*
X92241000Y-100476260D02*
G01*
X92284791Y-100696408D01*
X92039997Y-100941202D01*
X92010999Y-100965000D01*
X91987201Y-100993998D01*
X91987200Y-100993999D01*
X91916025Y-101080725D01*
X91845453Y-101212755D01*
X91801997Y-101356016D01*
X91787323Y-101505001D01*
X91791000Y-101542333D01*
X91790999Y-107957203D01*
X78512111Y-121236092D01*
X78496991Y-121199590D01*
X78334476Y-120956369D01*
X78127633Y-120749526D01*
X77953241Y-120633001D01*
X78127633Y-120516476D01*
X78334476Y-120309633D01*
X78496991Y-120066412D01*
X78608933Y-119796159D01*
X78666001Y-119509261D01*
X78666001Y-119216741D01*
X78608933Y-118929843D01*
X78496991Y-118659590D01*
X78334476Y-118416369D01*
X78127633Y-118209526D01*
X77953241Y-118093001D01*
X78127633Y-117976476D01*
X78334476Y-117769633D01*
X78496991Y-117526412D01*
X78608933Y-117256159D01*
X78666001Y-116969261D01*
X78666001Y-116676741D01*
X78608933Y-116389843D01*
X78496991Y-116119590D01*
X78334476Y-115876369D01*
X78127633Y-115669526D01*
X77953241Y-115553001D01*
X78127633Y-115436476D01*
X78334476Y-115229633D01*
X78496991Y-114986412D01*
X78608933Y-114716159D01*
X78666001Y-114429261D01*
X78666001Y-114136741D01*
X78608933Y-113849843D01*
X78605769Y-113842205D01*
X78700247Y-113813546D01*
X78832276Y-113742974D01*
X78948001Y-113648001D01*
X78971804Y-113618997D01*
X92241000Y-100349802D01*
X92241000Y-100476260D01*
G37*
%TD.AperFunction*%
D14*
X73868761Y-120633001D02*
X73775991Y-120694988D01*
X73775991Y-120571014D01*
X73868761Y-120633001D01*
%TA.AperFunction,NonConductor*%
D15*
G36*
X73868761Y-120633001D02*
G01*
X73775991Y-120694988D01*
X73775991Y-120571014D01*
X73868761Y-120633001D01*
G37*
%TD.AperFunction*%
D14*
X76000705Y-112649493D02*
X75547493Y-113102705D01*
X75413241Y-113013001D01*
X75587633Y-112896476D01*
X75794476Y-112689633D01*
X75911001Y-112515241D01*
X76000705Y-112649493D01*
%TA.AperFunction,NonConductor*%
D15*
G36*
X76000705Y-112649493D02*
G01*
X75547493Y-113102705D01*
X75413241Y-113013001D01*
X75587633Y-112896476D01*
X75794476Y-112689633D01*
X75911001Y-112515241D01*
X76000705Y-112649493D01*
G37*
%TD.AperFunction*%
D14*
X92241000Y-97936260D02*
X92284790Y-98156408D01*
X78666001Y-111775198D01*
X78666001Y-111596741D01*
X78608933Y-111309843D01*
X78605769Y-111302205D01*
X78700247Y-111273546D01*
X78832276Y-111202974D01*
X78948001Y-111108001D01*
X78971804Y-111078997D01*
X92241000Y-97809802D01*
X92241000Y-97936260D01*
%TA.AperFunction,NonConductor*%
D15*
G36*
X92241000Y-97936260D02*
G01*
X92284790Y-98156408D01*
X78666001Y-111775198D01*
X78666001Y-111596741D01*
X78608933Y-111309843D01*
X78605769Y-111302205D01*
X78700247Y-111273546D01*
X78832276Y-111202974D01*
X78948001Y-111108001D01*
X78971804Y-111078997D01*
X92241000Y-97809802D01*
X92241000Y-97936260D01*
G37*
%TD.AperFunction*%
D14*
X92298068Y-94816842D02*
X92241000Y-95103740D01*
X92241000Y-95396260D01*
X92284790Y-95616408D01*
X78666001Y-109235198D01*
X78666001Y-109056741D01*
X78608933Y-108769843D01*
X78496991Y-108499590D01*
X78334476Y-108256369D01*
X78127633Y-108049526D01*
X77953241Y-107933001D01*
X78127633Y-107816476D01*
X78334476Y-107609633D01*
X78496991Y-107366412D01*
X78608933Y-107096159D01*
X78666001Y-106809261D01*
X78666001Y-106516741D01*
X78608933Y-106229843D01*
X78496991Y-105959590D01*
X78334476Y-105716369D01*
X78127633Y-105509526D01*
X77953241Y-105393001D01*
X78127633Y-105276476D01*
X78334476Y-105069633D01*
X78496991Y-104826412D01*
X78608933Y-104556159D01*
X78666001Y-104269261D01*
X78666001Y-103976741D01*
X78608933Y-103689843D01*
X78496991Y-103419590D01*
X78334476Y-103176369D01*
X78127633Y-102969526D01*
X77953241Y-102853001D01*
X78127633Y-102736476D01*
X78334476Y-102529633D01*
X78496991Y-102286412D01*
X78608933Y-102016159D01*
X78666001Y-101729261D01*
X78666001Y-101436741D01*
X78608933Y-101149843D01*
X78496991Y-100879590D01*
X78334476Y-100636369D01*
X78127633Y-100429526D01*
X77953241Y-100313001D01*
X78127633Y-100196476D01*
X78334476Y-99989633D01*
X78496991Y-99746412D01*
X78608933Y-99476159D01*
X78666001Y-99189261D01*
X78666001Y-98896741D01*
X78608933Y-98609843D01*
X78496991Y-98339590D01*
X78334476Y-98096369D01*
X78127633Y-97889526D01*
X77953241Y-97773001D01*
X78127633Y-97656476D01*
X78334476Y-97449633D01*
X78496991Y-97206412D01*
X78608933Y-96936159D01*
X78666001Y-96649261D01*
X78666001Y-96356741D01*
X78608933Y-96069843D01*
X78496991Y-95799590D01*
X78334476Y-95556369D01*
X78127633Y-95349526D01*
X77953241Y-95233001D01*
X78127633Y-95116476D01*
X78334476Y-94909633D01*
X78459179Y-94723001D01*
X92336938Y-94723001D01*
X92298068Y-94816842D01*
%TA.AperFunction,NonConductor*%
D15*
G36*
X92298068Y-94816842D02*
G01*
X92241000Y-95103740D01*
X92241000Y-95396260D01*
X92284790Y-95616408D01*
X78666001Y-109235198D01*
X78666001Y-109056741D01*
X78608933Y-108769843D01*
X78496991Y-108499590D01*
X78334476Y-108256369D01*
X78127633Y-108049526D01*
X77953241Y-107933001D01*
X78127633Y-107816476D01*
X78334476Y-107609633D01*
X78496991Y-107366412D01*
X78608933Y-107096159D01*
X78666001Y-106809261D01*
X78666001Y-106516741D01*
X78608933Y-106229843D01*
X78496991Y-105959590D01*
X78334476Y-105716369D01*
X78127633Y-105509526D01*
X77953241Y-105393001D01*
X78127633Y-105276476D01*
X78334476Y-105069633D01*
X78496991Y-104826412D01*
X78608933Y-104556159D01*
X78666001Y-104269261D01*
X78666001Y-103976741D01*
X78608933Y-103689843D01*
X78496991Y-103419590D01*
X78334476Y-103176369D01*
X78127633Y-102969526D01*
X77953241Y-102853001D01*
X78127633Y-102736476D01*
X78334476Y-102529633D01*
X78496991Y-102286412D01*
X78608933Y-102016159D01*
X78666001Y-101729261D01*
X78666001Y-101436741D01*
X78608933Y-101149843D01*
X78496991Y-100879590D01*
X78334476Y-100636369D01*
X78127633Y-100429526D01*
X77953241Y-100313001D01*
X78127633Y-100196476D01*
X78334476Y-99989633D01*
X78496991Y-99746412D01*
X78608933Y-99476159D01*
X78666001Y-99189261D01*
X78666001Y-98896741D01*
X78608933Y-98609843D01*
X78496991Y-98339590D01*
X78334476Y-98096369D01*
X78127633Y-97889526D01*
X77953241Y-97773001D01*
X78127633Y-97656476D01*
X78334476Y-97449633D01*
X78496991Y-97206412D01*
X78608933Y-96936159D01*
X78666001Y-96649261D01*
X78666001Y-96356741D01*
X78608933Y-96069843D01*
X78496991Y-95799590D01*
X78334476Y-95556369D01*
X78127633Y-95349526D01*
X77953241Y-95233001D01*
X78127633Y-95116476D01*
X78334476Y-94909633D01*
X78459179Y-94723001D01*
X92336938Y-94723001D01*
X92298068Y-94816842D01*
G37*
%TD.AperFunction*%
D14*
X76027526Y-107609633D02*
X76234369Y-107816476D01*
X76408761Y-107933001D01*
X76234369Y-108049526D01*
X76027526Y-108256369D01*
X75911001Y-108430761D01*
X75794476Y-108256369D01*
X75587633Y-108049526D01*
X75413241Y-107933001D01*
X75587633Y-107816476D01*
X75794476Y-107609633D01*
X75911001Y-107435241D01*
X76027526Y-107609633D01*
%TA.AperFunction,NonConductor*%
D15*
G36*
X76027526Y-107609633D02*
G01*
X76234369Y-107816476D01*
X76408761Y-107933001D01*
X76234369Y-108049526D01*
X76027526Y-108256369D01*
X75911001Y-108430761D01*
X75794476Y-108256369D01*
X75587633Y-108049526D01*
X75413241Y-107933001D01*
X75587633Y-107816476D01*
X75794476Y-107609633D01*
X75911001Y-107435241D01*
X76027526Y-107609633D01*
G37*
%TD.AperFunction*%
D14*
X73868761Y-107933001D02*
X73775991Y-107994988D01*
X73775991Y-107871014D01*
X73868761Y-107933001D01*
%TA.AperFunction,NonConductor*%
D15*
G36*
X73868761Y-107933001D02*
G01*
X73775991Y-107994988D01*
X73775991Y-107871014D01*
X73868761Y-107933001D01*
G37*
%TD.AperFunction*%
D14*
X76027526Y-105069633D02*
X76234369Y-105276476D01*
X76408761Y-105393001D01*
X76234369Y-105509526D01*
X76027526Y-105716369D01*
X75911001Y-105890761D01*
X75794476Y-105716369D01*
X75587633Y-105509526D01*
X75413241Y-105393001D01*
X75587633Y-105276476D01*
X75794476Y-105069633D01*
X75911001Y-104895241D01*
X76027526Y-105069633D01*
%TA.AperFunction,NonConductor*%
D15*
G36*
X76027526Y-105069633D02*
G01*
X76234369Y-105276476D01*
X76408761Y-105393001D01*
X76234369Y-105509526D01*
X76027526Y-105716369D01*
X75911001Y-105890761D01*
X75794476Y-105716369D01*
X75587633Y-105509526D01*
X75413241Y-105393001D01*
X75587633Y-105276476D01*
X75794476Y-105069633D01*
X75911001Y-104895241D01*
X76027526Y-105069633D01*
G37*
%TD.AperFunction*%
D14*
X73868761Y-105393001D02*
X73775991Y-105454988D01*
X73775991Y-105331014D01*
X73868761Y-105393001D01*
%TA.AperFunction,NonConductor*%
D15*
G36*
X73868761Y-105393001D02*
G01*
X73775991Y-105454988D01*
X73775991Y-105331014D01*
X73868761Y-105393001D01*
G37*
%TD.AperFunction*%
D14*
X76027526Y-102529633D02*
X76234369Y-102736476D01*
X76408761Y-102853001D01*
X76234369Y-102969526D01*
X76027526Y-103176369D01*
X75911001Y-103350761D01*
X75794476Y-103176369D01*
X75587633Y-102969526D01*
X75413241Y-102853001D01*
X75587633Y-102736476D01*
X75794476Y-102529633D01*
X75911001Y-102355241D01*
X76027526Y-102529633D01*
%TA.AperFunction,NonConductor*%
D15*
G36*
X76027526Y-102529633D02*
G01*
X76234369Y-102736476D01*
X76408761Y-102853001D01*
X76234369Y-102969526D01*
X76027526Y-103176369D01*
X75911001Y-103350761D01*
X75794476Y-103176369D01*
X75587633Y-102969526D01*
X75413241Y-102853001D01*
X75587633Y-102736476D01*
X75794476Y-102529633D01*
X75911001Y-102355241D01*
X76027526Y-102529633D01*
G37*
%TD.AperFunction*%
D14*
X73868761Y-102853001D02*
X73775991Y-102914988D01*
X73775991Y-102791014D01*
X73868761Y-102853001D01*
%TA.AperFunction,NonConductor*%
D15*
G36*
X73868761Y-102853001D02*
G01*
X73775991Y-102914988D01*
X73775991Y-102791014D01*
X73868761Y-102853001D01*
G37*
%TD.AperFunction*%
D14*
X76027526Y-99989633D02*
X76234369Y-100196476D01*
X76408761Y-100313001D01*
X76234369Y-100429526D01*
X76027526Y-100636369D01*
X75911001Y-100810761D01*
X75794476Y-100636369D01*
X75587633Y-100429526D01*
X75413241Y-100313001D01*
X75587633Y-100196476D01*
X75794476Y-99989633D01*
X75911001Y-99815241D01*
X76027526Y-99989633D01*
%TA.AperFunction,NonConductor*%
D15*
G36*
X76027526Y-99989633D02*
G01*
X76234369Y-100196476D01*
X76408761Y-100313001D01*
X76234369Y-100429526D01*
X76027526Y-100636369D01*
X75911001Y-100810761D01*
X75794476Y-100636369D01*
X75587633Y-100429526D01*
X75413241Y-100313001D01*
X75587633Y-100196476D01*
X75794476Y-99989633D01*
X75911001Y-99815241D01*
X76027526Y-99989633D01*
G37*
%TD.AperFunction*%
D14*
X73868761Y-100313001D02*
X73775991Y-100374988D01*
X73775991Y-100251014D01*
X73868761Y-100313001D01*
%TA.AperFunction,NonConductor*%
D15*
G36*
X73868761Y-100313001D02*
G01*
X73775991Y-100374988D01*
X73775991Y-100251014D01*
X73868761Y-100313001D01*
G37*
%TD.AperFunction*%
D14*
X76027526Y-97449633D02*
X76234369Y-97656476D01*
X76408761Y-97773001D01*
X76234369Y-97889526D01*
X76027526Y-98096369D01*
X75911001Y-98270761D01*
X75794476Y-98096369D01*
X75587633Y-97889526D01*
X75413241Y-97773001D01*
X75587633Y-97656476D01*
X75794476Y-97449633D01*
X75911001Y-97275241D01*
X76027526Y-97449633D01*
%TA.AperFunction,NonConductor*%
D15*
G36*
X76027526Y-97449633D02*
G01*
X76234369Y-97656476D01*
X76408761Y-97773001D01*
X76234369Y-97889526D01*
X76027526Y-98096369D01*
X75911001Y-98270761D01*
X75794476Y-98096369D01*
X75587633Y-97889526D01*
X75413241Y-97773001D01*
X75587633Y-97656476D01*
X75794476Y-97449633D01*
X75911001Y-97275241D01*
X76027526Y-97449633D01*
G37*
%TD.AperFunction*%
D14*
X73868761Y-97773001D02*
X73775991Y-97834988D01*
X73775991Y-97711014D01*
X73868761Y-97773001D01*
%TA.AperFunction,NonConductor*%
D15*
G36*
X73868761Y-97773001D02*
G01*
X73775991Y-97834988D01*
X73775991Y-97711014D01*
X73868761Y-97773001D01*
G37*
%TD.AperFunction*%
D14*
X76027526Y-94909633D02*
X76234369Y-95116476D01*
X76408761Y-95233001D01*
X76234369Y-95349526D01*
X76027526Y-95556369D01*
X75911001Y-95730761D01*
X75794476Y-95556369D01*
X75587633Y-95349526D01*
X75413241Y-95233001D01*
X75587633Y-95116476D01*
X75794476Y-94909633D01*
X75911001Y-94735241D01*
X76027526Y-94909633D01*
%TA.AperFunction,NonConductor*%
D15*
G36*
X76027526Y-94909633D02*
G01*
X76234369Y-95116476D01*
X76408761Y-95233001D01*
X76234369Y-95349526D01*
X76027526Y-95556369D01*
X75911001Y-95730761D01*
X75794476Y-95556369D01*
X75587633Y-95349526D01*
X75413241Y-95233001D01*
X75587633Y-95116476D01*
X75794476Y-94909633D01*
X75911001Y-94735241D01*
X76027526Y-94909633D01*
G37*
%TD.AperFunction*%
D14*
X73868761Y-95233001D02*
X73775991Y-95294988D01*
X73775991Y-95171014D01*
X73868761Y-95233001D01*
%TA.AperFunction,NonConductor*%
D15*
G36*
X73868761Y-95233001D02*
G01*
X73775991Y-95294988D01*
X73775991Y-95171014D01*
X73868761Y-95233001D01*
G37*
%TD.AperFunction*%
D14*
X111545000Y-84474260D02*
X111602068Y-84761158D01*
X111714010Y-85031411D01*
X111876525Y-85274632D01*
X112083368Y-85481475D01*
X112257760Y-85598000D01*
X112083368Y-85714525D01*
X111876525Y-85921368D01*
X111714010Y-86164589D01*
X111602068Y-86434842D01*
X111545000Y-86721740D01*
X111545000Y-87014260D01*
X111588790Y-87234408D01*
X103571199Y-95252000D01*
X96541804Y-95252000D01*
X95615805Y-94326002D01*
X95592002Y-94296998D01*
X95509066Y-94228934D01*
X95464800Y-94174996D01*
X95441002Y-94145998D01*
X95412005Y-94122201D01*
X95140590Y-93850786D01*
X95165502Y-93804180D01*
X95201812Y-93684482D01*
X95214072Y-93560000D01*
X95214072Y-92183001D01*
X103422677Y-92183001D01*
X103459999Y-92186677D01*
X103497321Y-92183001D01*
X103497332Y-92183001D01*
X103608985Y-92172004D01*
X103752246Y-92128547D01*
X103884275Y-92057975D01*
X104000000Y-91963002D01*
X104023803Y-91933998D01*
X111545000Y-84412802D01*
X111545000Y-84474260D01*
%TA.AperFunction,NonConductor*%
D15*
G36*
X111545000Y-84474260D02*
G01*
X111602068Y-84761158D01*
X111714010Y-85031411D01*
X111876525Y-85274632D01*
X112083368Y-85481475D01*
X112257760Y-85598000D01*
X112083368Y-85714525D01*
X111876525Y-85921368D01*
X111714010Y-86164589D01*
X111602068Y-86434842D01*
X111545000Y-86721740D01*
X111545000Y-87014260D01*
X111588790Y-87234408D01*
X103571199Y-95252000D01*
X96541804Y-95252000D01*
X95615805Y-94326002D01*
X95592002Y-94296998D01*
X95509066Y-94228934D01*
X95464800Y-94174996D01*
X95441002Y-94145998D01*
X95412005Y-94122201D01*
X95140590Y-93850786D01*
X95165502Y-93804180D01*
X95201812Y-93684482D01*
X95214072Y-93560000D01*
X95214072Y-92183001D01*
X103422677Y-92183001D01*
X103459999Y-92186677D01*
X103497321Y-92183001D01*
X103497332Y-92183001D01*
X103608985Y-92172004D01*
X103752246Y-92128547D01*
X103884275Y-92057975D01*
X104000000Y-91963002D01*
X104023803Y-91933998D01*
X111545000Y-84412802D01*
X111545000Y-84474260D01*
G37*
%TD.AperFunction*%
D14*
X92237928Y-93203001D02*
X78459179Y-93203001D01*
X78334476Y-93016369D01*
X78127633Y-92809526D01*
X77953241Y-92693001D01*
X78127633Y-92576476D01*
X78334476Y-92369633D01*
X78459179Y-92183001D01*
X92237928Y-92183001D01*
X92237928Y-93203001D01*
%TA.AperFunction,NonConductor*%
D15*
G36*
X92237928Y-93203001D02*
G01*
X78459179Y-93203001D01*
X78334476Y-93016369D01*
X78127633Y-92809526D01*
X77953241Y-92693001D01*
X78127633Y-92576476D01*
X78334476Y-92369633D01*
X78459179Y-92183001D01*
X92237928Y-92183001D01*
X92237928Y-93203001D01*
G37*
%TD.AperFunction*%
D14*
X76027526Y-92369633D02*
X76234369Y-92576476D01*
X76408761Y-92693001D01*
X76234369Y-92809526D01*
X76027526Y-93016369D01*
X75911001Y-93190761D01*
X75794476Y-93016369D01*
X75587633Y-92809526D01*
X75413241Y-92693001D01*
X75587633Y-92576476D01*
X75794476Y-92369633D01*
X75911001Y-92195241D01*
X76027526Y-92369633D01*
%TA.AperFunction,NonConductor*%
D15*
G36*
X76027526Y-92369633D02*
G01*
X76234369Y-92576476D01*
X76408761Y-92693001D01*
X76234369Y-92809526D01*
X76027526Y-93016369D01*
X75911001Y-93190761D01*
X75794476Y-93016369D01*
X75587633Y-92809526D01*
X75413241Y-92693001D01*
X75587633Y-92576476D01*
X75794476Y-92369633D01*
X75911001Y-92195241D01*
X76027526Y-92369633D01*
G37*
%TD.AperFunction*%
D14*
X73868761Y-92693001D02*
X73775991Y-92754988D01*
X73775991Y-92631014D01*
X73868761Y-92693001D01*
%TA.AperFunction,NonConductor*%
D15*
G36*
X73868761Y-92693001D02*
G01*
X73775991Y-92754988D01*
X73775991Y-92631014D01*
X73868761Y-92693001D01*
G37*
%TD.AperFunction*%
D14*
X134116001Y-73789261D02*
X134159791Y-74009409D01*
X116981201Y-91188000D01*
X114308178Y-91188000D01*
X114183475Y-91001368D01*
X113976632Y-90794525D01*
X113802240Y-90678000D01*
X113976632Y-90561475D01*
X114183475Y-90354632D01*
X114308178Y-90168000D01*
X117258680Y-90168000D01*
X117296002Y-90171676D01*
X117333324Y-90168000D01*
X117333335Y-90168000D01*
X117444988Y-90157003D01*
X117588249Y-90113546D01*
X117720278Y-90042974D01*
X117836003Y-89948001D01*
X117859806Y-89918997D01*
X134116001Y-73662803D01*
X134116001Y-73789261D01*
%TA.AperFunction,NonConductor*%
D15*
G36*
X134116001Y-73789261D02*
G01*
X134159791Y-74009409D01*
X116981201Y-91188000D01*
X114308178Y-91188000D01*
X114183475Y-91001368D01*
X113976632Y-90794525D01*
X113802240Y-90678000D01*
X113976632Y-90561475D01*
X114183475Y-90354632D01*
X114308178Y-90168000D01*
X117258680Y-90168000D01*
X117296002Y-90171676D01*
X117333324Y-90168000D01*
X117333335Y-90168000D01*
X117444988Y-90157003D01*
X117588249Y-90113546D01*
X117720278Y-90042974D01*
X117836003Y-89948001D01*
X117859806Y-89918997D01*
X134116001Y-73662803D01*
X134116001Y-73789261D01*
G37*
%TD.AperFunction*%
D14*
X103145198Y-90663001D02*
X78459179Y-90663001D01*
X78334476Y-90476369D01*
X78127633Y-90269526D01*
X77953241Y-90153001D01*
X78127633Y-90036476D01*
X78334476Y-89829633D01*
X78459179Y-89643001D01*
X92032230Y-89643001D01*
X92052016Y-89649003D01*
X92163669Y-89660000D01*
X92163679Y-89660000D01*
X92201001Y-89663676D01*
X92238324Y-89660000D01*
X98260678Y-89660000D01*
X98298000Y-89663676D01*
X98335322Y-89660000D01*
X98335333Y-89660000D01*
X98446986Y-89649003D01*
X98590247Y-89605546D01*
X98722276Y-89534974D01*
X98838001Y-89440001D01*
X98861804Y-89410997D01*
X105724802Y-82548000D01*
X111260198Y-82548000D01*
X103145198Y-90663001D01*
%TA.AperFunction,NonConductor*%
D15*
G36*
X103145198Y-90663001D02*
G01*
X78459179Y-90663001D01*
X78334476Y-90476369D01*
X78127633Y-90269526D01*
X77953241Y-90153001D01*
X78127633Y-90036476D01*
X78334476Y-89829633D01*
X78459179Y-89643001D01*
X92032230Y-89643001D01*
X92052016Y-89649003D01*
X92163669Y-89660000D01*
X92163679Y-89660000D01*
X92201001Y-89663676D01*
X92238324Y-89660000D01*
X98260678Y-89660000D01*
X98298000Y-89663676D01*
X98335322Y-89660000D01*
X98335333Y-89660000D01*
X98446986Y-89649003D01*
X98590247Y-89605546D01*
X98722276Y-89534974D01*
X98838001Y-89440001D01*
X98861804Y-89410997D01*
X105724802Y-82548000D01*
X111260198Y-82548000D01*
X103145198Y-90663001D01*
G37*
%TD.AperFunction*%
D14*
X134116001Y-70956741D02*
X134116001Y-71249261D01*
X134159791Y-71469409D01*
X116981201Y-88648000D01*
X114308178Y-88648000D01*
X114183475Y-88461368D01*
X113976632Y-88254525D01*
X113802240Y-88138000D01*
X113976632Y-88021475D01*
X114183475Y-87814632D01*
X114345990Y-87571411D01*
X114457932Y-87301158D01*
X114515000Y-87014260D01*
X114515000Y-86721740D01*
X114471209Y-86501592D01*
X116589003Y-84383799D01*
X116618001Y-84360001D01*
X116644332Y-84327917D01*
X116712974Y-84244277D01*
X116783546Y-84112247D01*
X116827003Y-83968986D01*
X116838000Y-83857333D01*
X116838000Y-83857323D01*
X116841676Y-83820000D01*
X116838000Y-83782677D01*
X116838000Y-79308801D01*
X125458802Y-70688000D01*
X134169457Y-70688000D01*
X134116001Y-70956741D01*
%TA.AperFunction,NonConductor*%
D15*
G36*
X134116001Y-70956741D02*
G01*
X134116001Y-71249261D01*
X134159791Y-71469409D01*
X116981201Y-88648000D01*
X114308178Y-88648000D01*
X114183475Y-88461368D01*
X113976632Y-88254525D01*
X113802240Y-88138000D01*
X113976632Y-88021475D01*
X114183475Y-87814632D01*
X114345990Y-87571411D01*
X114457932Y-87301158D01*
X114515000Y-87014260D01*
X114515000Y-86721740D01*
X114471209Y-86501592D01*
X116589003Y-84383799D01*
X116618001Y-84360001D01*
X116644332Y-84327917D01*
X116712974Y-84244277D01*
X116783546Y-84112247D01*
X116827003Y-83968986D01*
X116838000Y-83857333D01*
X116838000Y-83857323D01*
X116841676Y-83820000D01*
X116838000Y-83782677D01*
X116838000Y-79308801D01*
X125458802Y-70688000D01*
X134169457Y-70688000D01*
X134116001Y-70956741D01*
G37*
%TD.AperFunction*%
D14*
X97983199Y-88140000D02*
X92352775Y-88140000D01*
X92332989Y-88133998D01*
X92221336Y-88123001D01*
X92221325Y-88123001D01*
X92184003Y-88119325D01*
X92146681Y-88123001D01*
X78459179Y-88123001D01*
X78361296Y-87976509D01*
X84964807Y-81372999D01*
X104750199Y-81372999D01*
X97983199Y-88140000D01*
%TA.AperFunction,NonConductor*%
D15*
G36*
X97983199Y-88140000D02*
G01*
X92352775Y-88140000D01*
X92332989Y-88133998D01*
X92221336Y-88123001D01*
X92221325Y-88123001D01*
X92184003Y-88119325D01*
X92146681Y-88123001D01*
X78459179Y-88123001D01*
X78361296Y-87976509D01*
X84964807Y-81372999D01*
X104750199Y-81372999D01*
X97983199Y-88140000D01*
G37*
%TD.AperFunction*%
D14*
X76000705Y-87976509D02*
X75911001Y-88110761D01*
X75794476Y-87936369D01*
X75587633Y-87729526D01*
X75413241Y-87613001D01*
X75547493Y-87523297D01*
X76000705Y-87976509D01*
%TA.AperFunction,NonConductor*%
D15*
G36*
X76000705Y-87976509D02*
G01*
X75911001Y-88110761D01*
X75794476Y-87936369D01*
X75587633Y-87729526D01*
X75413241Y-87613001D01*
X75547493Y-87523297D01*
X76000705Y-87976509D01*
G37*
%TD.AperFunction*%
D14*
X76027526Y-84749633D02*
X76234369Y-84956476D01*
X76408761Y-85073001D01*
X76274509Y-85162705D01*
X75821297Y-84709493D01*
X75911001Y-84575241D01*
X76027526Y-84749633D01*
%TA.AperFunction,NonConductor*%
D15*
G36*
X76027526Y-84749633D02*
G01*
X76234369Y-84956476D01*
X76408761Y-85073001D01*
X76274509Y-85162705D01*
X75821297Y-84709493D01*
X75911001Y-84575241D01*
X76027526Y-84749633D01*
G37*
%TD.AperFunction*%
D14*
X92458000Y-50606802D02*
X92458001Y-69991198D01*
X78666001Y-83783200D01*
X78666001Y-83656741D01*
X78608933Y-83369843D01*
X78496991Y-83099590D01*
X78334476Y-82856369D01*
X78127633Y-82649526D01*
X77953241Y-82533001D01*
X78127633Y-82416476D01*
X78334476Y-82209633D01*
X78496991Y-81966412D01*
X78608933Y-81696159D01*
X78666001Y-81409261D01*
X78666001Y-81116741D01*
X78608933Y-80829843D01*
X78496991Y-80559590D01*
X78361297Y-80356509D01*
X78867011Y-79850796D01*
X78896003Y-79827003D01*
X78919797Y-79798010D01*
X78919801Y-79798006D01*
X78990975Y-79711279D01*
X78990976Y-79711278D01*
X79061548Y-79579249D01*
X79105005Y-79435988D01*
X79116002Y-79324335D01*
X79116002Y-79324326D01*
X79119678Y-79287003D01*
X79116002Y-79249680D01*
X79116002Y-77395324D01*
X79119678Y-77358001D01*
X79116002Y-77320678D01*
X79116002Y-77320669D01*
X79105005Y-77209016D01*
X79061548Y-77065755D01*
X78990976Y-76933726D01*
X78896003Y-76818001D01*
X78867005Y-76794203D01*
X78622211Y-76549409D01*
X78666001Y-76329261D01*
X78666001Y-76036741D01*
X78622210Y-75816593D01*
X90427004Y-64011800D01*
X90456001Y-63988003D01*
X90550974Y-63872278D01*
X90621546Y-63740249D01*
X90665003Y-63596988D01*
X90676000Y-63485335D01*
X90676000Y-63485326D01*
X90679676Y-63448003D01*
X90676000Y-63410680D01*
X90676000Y-55888178D01*
X90862632Y-55763475D01*
X91069475Y-55556632D01*
X91231990Y-55313411D01*
X91343932Y-55043158D01*
X91401000Y-54756260D01*
X91401000Y-54463740D01*
X91343932Y-54176842D01*
X91231990Y-53906589D01*
X91069475Y-53663368D01*
X90862632Y-53456525D01*
X90688240Y-53340000D01*
X90862632Y-53223475D01*
X91069475Y-53016632D01*
X91231990Y-52773411D01*
X91343932Y-52503158D01*
X91401000Y-52216260D01*
X91401000Y-51923740D01*
X91357210Y-51703592D01*
X91602004Y-51458798D01*
X91631002Y-51435000D01*
X91725975Y-51319275D01*
X91796547Y-51187246D01*
X91840004Y-51043985D01*
X91851001Y-50932332D01*
X91851001Y-50932323D01*
X91854677Y-50895000D01*
X91851001Y-50857677D01*
X91851001Y-49999803D01*
X92458000Y-50606802D01*
%TA.AperFunction,NonConductor*%
D15*
G36*
X92458000Y-50606802D02*
G01*
X92458001Y-69991198D01*
X78666001Y-83783200D01*
X78666001Y-83656741D01*
X78608933Y-83369843D01*
X78496991Y-83099590D01*
X78334476Y-82856369D01*
X78127633Y-82649526D01*
X77953241Y-82533001D01*
X78127633Y-82416476D01*
X78334476Y-82209633D01*
X78496991Y-81966412D01*
X78608933Y-81696159D01*
X78666001Y-81409261D01*
X78666001Y-81116741D01*
X78608933Y-80829843D01*
X78496991Y-80559590D01*
X78361297Y-80356509D01*
X78867011Y-79850796D01*
X78896003Y-79827003D01*
X78919797Y-79798010D01*
X78919801Y-79798006D01*
X78990975Y-79711279D01*
X78990976Y-79711278D01*
X79061548Y-79579249D01*
X79105005Y-79435988D01*
X79116002Y-79324335D01*
X79116002Y-79324326D01*
X79119678Y-79287003D01*
X79116002Y-79249680D01*
X79116002Y-77395324D01*
X79119678Y-77358001D01*
X79116002Y-77320678D01*
X79116002Y-77320669D01*
X79105005Y-77209016D01*
X79061548Y-77065755D01*
X78990976Y-76933726D01*
X78896003Y-76818001D01*
X78867005Y-76794203D01*
X78622211Y-76549409D01*
X78666001Y-76329261D01*
X78666001Y-76036741D01*
X78622210Y-75816593D01*
X90427004Y-64011800D01*
X90456001Y-63988003D01*
X90550974Y-63872278D01*
X90621546Y-63740249D01*
X90665003Y-63596988D01*
X90676000Y-63485335D01*
X90676000Y-63485326D01*
X90679676Y-63448003D01*
X90676000Y-63410680D01*
X90676000Y-55888178D01*
X90862632Y-55763475D01*
X91069475Y-55556632D01*
X91231990Y-55313411D01*
X91343932Y-55043158D01*
X91401000Y-54756260D01*
X91401000Y-54463740D01*
X91343932Y-54176842D01*
X91231990Y-53906589D01*
X91069475Y-53663368D01*
X90862632Y-53456525D01*
X90688240Y-53340000D01*
X90862632Y-53223475D01*
X91069475Y-53016632D01*
X91231990Y-52773411D01*
X91343932Y-52503158D01*
X91401000Y-52216260D01*
X91401000Y-51923740D01*
X91357210Y-51703592D01*
X91602004Y-51458798D01*
X91631002Y-51435000D01*
X91725975Y-51319275D01*
X91796547Y-51187246D01*
X91840004Y-51043985D01*
X91851001Y-50932332D01*
X91851001Y-50932323D01*
X91854677Y-50895000D01*
X91851001Y-50857677D01*
X91851001Y-49999803D01*
X92458000Y-50606802D01*
G37*
%TD.AperFunction*%
D14*
X76408761Y-82533001D02*
X76234369Y-82649526D01*
X76027526Y-82856369D01*
X75911001Y-83030761D01*
X75821296Y-82896509D01*
X76274509Y-82443297D01*
X76408761Y-82533001D01*
%TA.AperFunction,NonConductor*%
D15*
G36*
X76408761Y-82533001D02*
G01*
X76234369Y-82649526D01*
X76027526Y-82856369D01*
X75911001Y-83030761D01*
X75821296Y-82896509D01*
X76274509Y-82443297D01*
X76408761Y-82533001D01*
G37*
%TD.AperFunction*%
D14*
X73213069Y-79156159D02*
X73325011Y-79426412D01*
X73487526Y-79669633D01*
X73694369Y-79876476D01*
X73868761Y-79993001D01*
X73694369Y-80109526D01*
X73487526Y-80316369D01*
X73362823Y-80503001D01*
X73166999Y-80503001D01*
X73166999Y-78924551D01*
X73213069Y-79156159D01*
%TA.AperFunction,NonConductor*%
D15*
G36*
X73213069Y-79156159D02*
G01*
X73325011Y-79426412D01*
X73487526Y-79669633D01*
X73694369Y-79876476D01*
X73868761Y-79993001D01*
X73694369Y-80109526D01*
X73487526Y-80316369D01*
X73362823Y-80503001D01*
X73166999Y-80503001D01*
X73166999Y-78924551D01*
X73213069Y-79156159D01*
G37*
%TD.AperFunction*%
D14*
X75494997Y-79945204D02*
X75466000Y-79969001D01*
X75442202Y-79997999D01*
X75442201Y-79998000D01*
X75434594Y-80007269D01*
X75413241Y-79993001D01*
X75515582Y-79924619D01*
X75494997Y-79945204D01*
%TA.AperFunction,NonConductor*%
D15*
G36*
X75494997Y-79945204D02*
G01*
X75466000Y-79969001D01*
X75442202Y-79997999D01*
X75442201Y-79998000D01*
X75434594Y-80007269D01*
X75413241Y-79993001D01*
X75515582Y-79924619D01*
X75494997Y-79945204D01*
G37*
%TD.AperFunction*%
D14*
X75924603Y-79515597D02*
X75842621Y-79597579D01*
X75911001Y-79495241D01*
X75924603Y-79515597D01*
%TA.AperFunction,NonConductor*%
D15*
G36*
X75924603Y-79515597D02*
G01*
X75842621Y-79597579D01*
X75911001Y-79495241D01*
X75924603Y-79515597D01*
G37*
%TD.AperFunction*%
D14*
X73213069Y-76616159D02*
X73325011Y-76886412D01*
X73487526Y-77129633D01*
X73694369Y-77336476D01*
X73868761Y-77453001D01*
X73694369Y-77569526D01*
X73487526Y-77776369D01*
X73325011Y-78019590D01*
X73213069Y-78289843D01*
X73166999Y-78521451D01*
X73166999Y-76384551D01*
X73213069Y-76616159D01*
%TA.AperFunction,NonConductor*%
D15*
G36*
X73213069Y-76616159D02*
G01*
X73325011Y-76886412D01*
X73487526Y-77129633D01*
X73694369Y-77336476D01*
X73868761Y-77453001D01*
X73694369Y-77569526D01*
X73487526Y-77776369D01*
X73325011Y-78019590D01*
X73213069Y-78289843D01*
X73166999Y-78521451D01*
X73166999Y-76384551D01*
X73213069Y-76616159D01*
G37*
%TD.AperFunction*%
D14*
X73213069Y-74076159D02*
X73325011Y-74346412D01*
X73487526Y-74589633D01*
X73694369Y-74796476D01*
X73868761Y-74913001D01*
X73694369Y-75029526D01*
X73487526Y-75236369D01*
X73325011Y-75479590D01*
X73213069Y-75749843D01*
X73166999Y-75981451D01*
X73166999Y-73844551D01*
X73213069Y-74076159D01*
%TA.AperFunction,NonConductor*%
D15*
G36*
X73213069Y-74076159D02*
G01*
X73325011Y-74346412D01*
X73487526Y-74589633D01*
X73694369Y-74796476D01*
X73868761Y-74913001D01*
X73694369Y-75029526D01*
X73487526Y-75236369D01*
X73325011Y-75479590D01*
X73213069Y-75749843D01*
X73166999Y-75981451D01*
X73166999Y-73844551D01*
X73213069Y-74076159D01*
G37*
%TD.AperFunction*%
D14*
X88762525Y-50476632D02*
X88969368Y-50683475D01*
X89143760Y-50800000D01*
X88969368Y-50916525D01*
X88762525Y-51123368D01*
X88600010Y-51366589D01*
X88488068Y-51636842D01*
X88431000Y-51923740D01*
X88431000Y-52216260D01*
X88488068Y-52503158D01*
X88600010Y-52773411D01*
X88762525Y-53016632D01*
X88969368Y-53223475D01*
X89143760Y-53340000D01*
X88969368Y-53456525D01*
X88762525Y-53663368D01*
X88600010Y-53906589D01*
X88488068Y-54176842D01*
X88431000Y-54463740D01*
X88431000Y-54756260D01*
X88488068Y-55043158D01*
X88600010Y-55313411D01*
X88762525Y-55556632D01*
X88969368Y-55763475D01*
X89156001Y-55888179D01*
X89156000Y-63133200D01*
X78666001Y-73623200D01*
X78666001Y-73496741D01*
X78608933Y-73209843D01*
X78496991Y-72939590D01*
X78334476Y-72696369D01*
X78127633Y-72489526D01*
X77953241Y-72373001D01*
X78127633Y-72256476D01*
X78334476Y-72049633D01*
X78496991Y-71806412D01*
X78608933Y-71536159D01*
X78666001Y-71249261D01*
X78666001Y-70956741D01*
X78608933Y-70669843D01*
X78496991Y-70399590D01*
X78334476Y-70156369D01*
X78127633Y-69949526D01*
X77953241Y-69833001D01*
X78127633Y-69716476D01*
X78334476Y-69509633D01*
X78496991Y-69266412D01*
X78608933Y-68996159D01*
X78666001Y-68709261D01*
X78666001Y-68416741D01*
X78608933Y-68129843D01*
X78496991Y-67859590D01*
X78334476Y-67616369D01*
X78127633Y-67409526D01*
X77884412Y-67247011D01*
X77614159Y-67135069D01*
X77327261Y-67078001D01*
X77034741Y-67078001D01*
X76747843Y-67135069D01*
X76576002Y-67206248D01*
X76576002Y-64542722D01*
X80126001Y-64542722D01*
X80126001Y-64963280D01*
X80208048Y-65375757D01*
X80368989Y-65764303D01*
X80602638Y-66113984D01*
X80900018Y-66411364D01*
X81249699Y-66645013D01*
X81638245Y-66805954D01*
X82050722Y-66888001D01*
X82471280Y-66888001D01*
X82883757Y-66805954D01*
X83272303Y-66645013D01*
X83621984Y-66411364D01*
X83919364Y-66113984D01*
X84153013Y-65764303D01*
X84313954Y-65375757D01*
X84396001Y-64963280D01*
X84396001Y-64542722D01*
X84313954Y-64130245D01*
X84153013Y-63741699D01*
X83919364Y-63392018D01*
X83621984Y-63094638D01*
X83272303Y-62860989D01*
X82883757Y-62700048D01*
X82471280Y-62618001D01*
X82050722Y-62618001D01*
X81638245Y-62700048D01*
X81249699Y-62860989D01*
X80900018Y-63094638D01*
X80602638Y-63392018D01*
X80368989Y-63741699D01*
X80208048Y-64130245D01*
X80126001Y-64542722D01*
X76576002Y-64542722D01*
X76576002Y-51244799D01*
X77530802Y-50290000D01*
X88637822Y-50290000D01*
X88762525Y-50476632D01*
%TA.AperFunction,NonConductor*%
D15*
G36*
X88762525Y-50476632D02*
G01*
X88969368Y-50683475D01*
X89143760Y-50800000D01*
X88969368Y-50916525D01*
X88762525Y-51123368D01*
X88600010Y-51366589D01*
X88488068Y-51636842D01*
X88431000Y-51923740D01*
X88431000Y-52216260D01*
X88488068Y-52503158D01*
X88600010Y-52773411D01*
X88762525Y-53016632D01*
X88969368Y-53223475D01*
X89143760Y-53340000D01*
X88969368Y-53456525D01*
X88762525Y-53663368D01*
X88600010Y-53906589D01*
X88488068Y-54176842D01*
X88431000Y-54463740D01*
X88431000Y-54756260D01*
X88488068Y-55043158D01*
X88600010Y-55313411D01*
X88762525Y-55556632D01*
X88969368Y-55763475D01*
X89156001Y-55888179D01*
X89156000Y-63133200D01*
X78666001Y-73623200D01*
X78666001Y-73496741D01*
X78608933Y-73209843D01*
X78496991Y-72939590D01*
X78334476Y-72696369D01*
X78127633Y-72489526D01*
X77953241Y-72373001D01*
X78127633Y-72256476D01*
X78334476Y-72049633D01*
X78496991Y-71806412D01*
X78608933Y-71536159D01*
X78666001Y-71249261D01*
X78666001Y-70956741D01*
X78608933Y-70669843D01*
X78496991Y-70399590D01*
X78334476Y-70156369D01*
X78127633Y-69949526D01*
X77953241Y-69833001D01*
X78127633Y-69716476D01*
X78334476Y-69509633D01*
X78496991Y-69266412D01*
X78608933Y-68996159D01*
X78666001Y-68709261D01*
X78666001Y-68416741D01*
X78608933Y-68129843D01*
X78496991Y-67859590D01*
X78334476Y-67616369D01*
X78127633Y-67409526D01*
X77884412Y-67247011D01*
X77614159Y-67135069D01*
X77327261Y-67078001D01*
X77034741Y-67078001D01*
X76747843Y-67135069D01*
X76576002Y-67206248D01*
X76576002Y-64542722D01*
X80126001Y-64542722D01*
X80126001Y-64963280D01*
X80208048Y-65375757D01*
X80368989Y-65764303D01*
X80602638Y-66113984D01*
X80900018Y-66411364D01*
X81249699Y-66645013D01*
X81638245Y-66805954D01*
X82050722Y-66888001D01*
X82471280Y-66888001D01*
X82883757Y-66805954D01*
X83272303Y-66645013D01*
X83621984Y-66411364D01*
X83919364Y-66113984D01*
X84153013Y-65764303D01*
X84313954Y-65375757D01*
X84396001Y-64963280D01*
X84396001Y-64542722D01*
X84313954Y-64130245D01*
X84153013Y-63741699D01*
X83919364Y-63392018D01*
X83621984Y-63094638D01*
X83272303Y-62860989D01*
X82883757Y-62700048D01*
X82471280Y-62618001D01*
X82050722Y-62618001D01*
X81638245Y-62700048D01*
X81249699Y-62860989D01*
X80900018Y-63094638D01*
X80602638Y-63392018D01*
X80368989Y-63741699D01*
X80208048Y-64130245D01*
X80126001Y-64542722D01*
X76576002Y-64542722D01*
X76576002Y-51244799D01*
X77530802Y-50290000D01*
X88637822Y-50290000D01*
X88762525Y-50476632D01*
G37*
%TD.AperFunction*%
D14*
X73213069Y-71536159D02*
X73325011Y-71806412D01*
X73487526Y-72049633D01*
X73694369Y-72256476D01*
X73868761Y-72373001D01*
X73694369Y-72489526D01*
X73487526Y-72696369D01*
X73325011Y-72939590D01*
X73213069Y-73209843D01*
X73166999Y-73441451D01*
X73166999Y-71304551D01*
X73213069Y-71536159D01*
%TA.AperFunction,NonConductor*%
D15*
G36*
X73213069Y-71536159D02*
G01*
X73325011Y-71806412D01*
X73487526Y-72049633D01*
X73694369Y-72256476D01*
X73868761Y-72373001D01*
X73694369Y-72489526D01*
X73487526Y-72696369D01*
X73325011Y-72939590D01*
X73213069Y-73209843D01*
X73166999Y-73441451D01*
X73166999Y-71304551D01*
X73213069Y-71536159D01*
G37*
%TD.AperFunction*%
D14*
X73213069Y-68996159D02*
X73325011Y-69266412D01*
X73487526Y-69509633D01*
X73694369Y-69716476D01*
X73868761Y-69833001D01*
X73694369Y-69949526D01*
X73487526Y-70156369D01*
X73325011Y-70399590D01*
X73213069Y-70669843D01*
X73166999Y-70901451D01*
X73166999Y-68764551D01*
X73213069Y-68996159D01*
%TA.AperFunction,NonConductor*%
D15*
G36*
X73213069Y-68996159D02*
G01*
X73325011Y-69266412D01*
X73487526Y-69509633D01*
X73694369Y-69716476D01*
X73868761Y-69833001D01*
X73694369Y-69949526D01*
X73487526Y-70156369D01*
X73325011Y-70399590D01*
X73213069Y-70669843D01*
X73166999Y-70901451D01*
X73166999Y-68764551D01*
X73213069Y-68996159D01*
G37*
%TD.AperFunction*%
D14*
X136987526Y-69509633D02*
X137194369Y-69716476D01*
X137368761Y-69833001D01*
X137234510Y-69922705D01*
X136781297Y-69469493D01*
X136871001Y-69335241D01*
X136987526Y-69509633D01*
%TA.AperFunction,NonConductor*%
D15*
G36*
X136987526Y-69509633D02*
G01*
X137194369Y-69716476D01*
X137368761Y-69833001D01*
X137234510Y-69922705D01*
X136781297Y-69469493D01*
X136871001Y-69335241D01*
X136987526Y-69509633D01*
G37*
%TD.AperFunction*%
D14*
X83763198Y-48770000D02*
X77253322Y-48770000D01*
X77215999Y-48766324D01*
X77178676Y-48770000D01*
X77178667Y-48770000D01*
X77067014Y-48780997D01*
X76923753Y-48824454D01*
X76791724Y-48895026D01*
X76675999Y-48989999D01*
X76652201Y-49018997D01*
X75305000Y-50366199D01*
X75276002Y-50389997D01*
X75252204Y-50418995D01*
X75252203Y-50418996D01*
X75181028Y-50505722D01*
X75110456Y-50637752D01*
X75067000Y-50781013D01*
X75052326Y-50929998D01*
X75056003Y-50967331D01*
X75056002Y-67131457D01*
X74787261Y-67078001D01*
X74494741Y-67078001D01*
X74207843Y-67135069D01*
X73937590Y-67247011D01*
X73694369Y-67409526D01*
X73487526Y-67616369D01*
X73325011Y-67859590D01*
X73213069Y-68129843D01*
X73166999Y-68361451D01*
X73166999Y-49319802D01*
X78673802Y-43813000D01*
X78806199Y-43813000D01*
X83763198Y-48770000D01*
%TA.AperFunction,NonConductor*%
D15*
G36*
X83763198Y-48770000D02*
G01*
X77253322Y-48770000D01*
X77215999Y-48766324D01*
X77178676Y-48770000D01*
X77178667Y-48770000D01*
X77067014Y-48780997D01*
X76923753Y-48824454D01*
X76791724Y-48895026D01*
X76675999Y-48989999D01*
X76652201Y-49018997D01*
X75305000Y-50366199D01*
X75276002Y-50389997D01*
X75252204Y-50418995D01*
X75252203Y-50418996D01*
X75181028Y-50505722D01*
X75110456Y-50637752D01*
X75067000Y-50781013D01*
X75052326Y-50929998D01*
X75056003Y-50967331D01*
X75056002Y-67131457D01*
X74787261Y-67078001D01*
X74494741Y-67078001D01*
X74207843Y-67135069D01*
X73937590Y-67247011D01*
X73694369Y-67409526D01*
X73487526Y-67616369D01*
X73325011Y-67859590D01*
X73213069Y-68129843D01*
X73166999Y-68361451D01*
X73166999Y-49319802D01*
X78673802Y-43813000D01*
X78806199Y-43813000D01*
X83763198Y-48770000D01*
G37*
%TD.AperFunction*%
M02*
