M48
; DRILL file {KiCad 5.1.10-88a1d61d58~90~ubuntu20.04.1} date Thu Nov  4 14:23:54 2021
; FORMAT={-:-/ absolute / metric / decimal}
; #@! TF.CreationDate,2021-11-04T14:23:54-05:00
; #@! TF.GenerationSoftware,Kicad,Pcbnew,5.1.10-88a1d61d58~90~ubuntu20.04.1
FMAT,2
METRIC
T1C1.000
T2C3.000
%
G90
G05
T1
X74.641Y-40.623
X74.641Y-43.163
X74.641Y-68.563
X74.641Y-71.103
X74.641Y-73.643
X74.641Y-76.183
X74.641Y-78.723
X74.641Y-81.263
X74.641Y-83.803
X74.641Y-86.343
X74.641Y-88.883
X74.641Y-91.423
X74.641Y-93.963
X74.641Y-96.503
X74.641Y-99.043
X74.641Y-101.583
X74.641Y-104.123
X74.641Y-106.663
X74.641Y-109.203
X74.641Y-111.743
X74.641Y-114.283
X74.641Y-116.823
X74.641Y-119.363
X74.641Y-121.903
X74.641Y-124.443
X74.641Y-126.983
X74.641Y-129.523
X74.641Y-132.063
X74.641Y-134.603
X74.641Y-137.143
X74.641Y-139.683
X74.641Y-142.223
X74.641Y-144.763
X74.641Y-147.303
X74.641Y-149.843
X74.641Y-152.383
X74.641Y-154.923
X74.641Y-157.463
X77.181Y-68.563
X77.181Y-71.103
X77.181Y-73.643
X77.181Y-76.183
X77.181Y-78.723
X77.181Y-81.263
X77.181Y-83.803
X77.181Y-86.343
X77.181Y-88.883
X77.181Y-91.423
X77.181Y-93.963
X77.181Y-96.503
X77.181Y-99.043
X77.181Y-101.583
X77.181Y-104.123
X77.181Y-106.663
X77.181Y-109.203
X77.181Y-111.743
X77.181Y-114.283
X77.181Y-116.823
X77.181Y-119.363
X77.181Y-121.903
X77.181Y-124.443
X77.181Y-126.983
X77.181Y-129.523
X77.181Y-132.063
X77.181Y-134.603
X77.181Y-137.143
X77.181Y-139.683
X77.181Y-142.223
X77.181Y-144.763
X77.181Y-147.303
X77.181Y-149.843
X77.181Y-152.383
X77.181Y-154.923
X77.181Y-157.463
X89.916Y-46.99
X89.916Y-49.53
X89.916Y-52.07
X89.916Y-54.61
X93.726Y-92.71
X93.726Y-95.25
X93.726Y-97.79
X93.726Y-100.33
X93.726Y-102.87
X93.726Y-105.41
X113.03Y-81.788
X113.03Y-84.328
X113.03Y-86.868
X113.03Y-89.408
X113.03Y-91.948
X113.03Y-94.488
X113.03Y-97.028
X113.03Y-99.568
X113.03Y-102.108
X113.03Y-104.648
X115.062Y-124.968
X115.062Y-127.508
X115.062Y-130.048
X115.062Y-132.588
X115.062Y-135.128
X115.062Y-137.668
X135.601Y-68.563
X135.601Y-71.103
X135.601Y-73.643
X135.601Y-76.183
X135.601Y-78.723
X135.601Y-81.263
X135.601Y-83.803
X135.601Y-86.343
X135.601Y-88.883
X135.601Y-91.423
X135.601Y-93.963
X135.601Y-96.503
X135.601Y-99.043
X135.601Y-101.583
X135.601Y-104.123
X135.601Y-106.663
X135.601Y-109.203
X135.601Y-111.743
X135.601Y-114.283
X135.601Y-116.823
X135.601Y-119.363
X135.601Y-121.903
X135.601Y-124.443
X135.601Y-126.983
X135.601Y-129.523
X135.601Y-132.063
X135.601Y-134.603
X135.601Y-137.143
X135.601Y-139.683
X135.601Y-142.223
X135.601Y-144.763
X135.601Y-147.303
X135.601Y-149.843
X135.601Y-152.383
X135.601Y-154.923
X135.601Y-157.463
X138.141Y-40.623
X138.141Y-43.163
X138.141Y-68.563
X138.141Y-71.103
X138.141Y-73.643
X138.141Y-76.183
X138.141Y-78.723
X138.141Y-81.263
X138.141Y-83.803
X138.141Y-86.343
X138.141Y-88.883
X138.141Y-91.423
X138.141Y-93.963
X138.141Y-96.503
X138.141Y-99.043
X138.141Y-101.583
X138.141Y-104.123
X138.141Y-106.663
X138.141Y-109.203
X138.141Y-111.743
X138.141Y-114.283
X138.141Y-116.823
X138.141Y-119.363
X138.141Y-121.903
X138.141Y-124.443
X138.141Y-126.983
X138.141Y-129.523
X138.141Y-132.063
X138.141Y-134.603
X138.141Y-137.143
X138.141Y-139.683
X138.141Y-142.223
X138.141Y-144.763
X138.141Y-147.303
X138.141Y-149.843
X138.141Y-152.383
X138.141Y-154.923
X138.141Y-157.463
T2
X82.261Y-64.753
X83.531Y-140.953
X115.191Y-116.863
X129.241Y-140.963
X130.541Y-66.063
T0
M30
