%TF.GenerationSoftware,KiCad,Pcbnew,5.1.10-88a1d61d58~90~ubuntu20.04.1*%
%TF.CreationDate,2021-11-04T14:23:52-05:00*%
%TF.ProjectId,Backup,4261636b-7570-42e6-9b69-6361645f7063,rev?*%
%TF.SameCoordinates,Original*%
%TF.FileFunction,Soldermask,Bot*%
%TF.FilePolarity,Negative*%
%FSLAX46Y46*%
G04 Gerber Fmt 4.6, Leading zero omitted, Abs format (unit mm)*
G04 Created by KiCad (PCBNEW 5.1.10-88a1d61d58~90~ubuntu20.04.1) date 2021-11-04 14:23:52*
%MOMM*%
%LPD*%
G01*
G04 APERTURE LIST*
%ADD10C,3.000000*%
%ADD11C,1.700000*%
%ADD12R,1.700000X1.700000*%
%ADD13O,1.700000X1.700000*%
G04 APERTURE END LIST*
D10*
%TO.C,U1*%
X115191001Y-116863001D03*
X130541001Y-66063001D03*
X82261001Y-64753001D03*
X83531001Y-140953001D03*
X129241001Y-140963001D03*
D11*
X138141001Y-43163001D03*
X138141001Y-40623001D03*
X74641001Y-43163001D03*
X74641001Y-40623001D03*
X138141001Y-157463001D03*
X135601001Y-157463001D03*
X138141001Y-154923001D03*
X135601001Y-154923001D03*
X138141001Y-152383001D03*
X135601001Y-152383001D03*
X138141001Y-149843001D03*
X135601001Y-149843001D03*
X138141001Y-147303001D03*
X135601001Y-147303001D03*
X138141001Y-144763001D03*
X135601001Y-144763001D03*
X138141001Y-142223001D03*
X135601001Y-142223001D03*
X138141001Y-139683001D03*
X135601001Y-139683001D03*
X138141001Y-137143001D03*
X135601001Y-137143001D03*
X138141001Y-134603001D03*
X135601001Y-134603001D03*
X138141001Y-132063001D03*
X135601001Y-132063001D03*
X138141001Y-129523001D03*
X135601001Y-129523001D03*
X138141001Y-126983001D03*
X135601001Y-126983001D03*
X138141001Y-124443001D03*
X135601001Y-124443001D03*
X138141001Y-121903001D03*
X135601001Y-121903001D03*
X138141001Y-119363001D03*
X135601001Y-119363001D03*
X138141001Y-116823001D03*
X135601001Y-116823001D03*
X138141001Y-114283001D03*
X135601001Y-114283001D03*
X138141001Y-111743001D03*
X135601001Y-111743001D03*
X138141001Y-109203001D03*
X135601001Y-109203001D03*
X138141001Y-106663001D03*
X135601001Y-106663001D03*
X138141001Y-104123001D03*
X135601001Y-104123001D03*
X138141001Y-101583001D03*
X135601001Y-101583001D03*
X138141001Y-99043001D03*
X135601001Y-99043001D03*
X138141001Y-96503001D03*
X135601001Y-96503001D03*
X138141001Y-93963001D03*
X135601001Y-93963001D03*
X138141001Y-91423001D03*
X135601001Y-91423001D03*
X138141001Y-88883001D03*
X135601001Y-88883001D03*
X138141001Y-86343001D03*
X135601001Y-86343001D03*
X138141001Y-83803001D03*
X135601001Y-83803001D03*
X138141001Y-81263001D03*
X135601001Y-81263001D03*
X138141001Y-78723001D03*
X135601001Y-78723001D03*
X138141001Y-76183001D03*
X135601001Y-76183001D03*
X138141001Y-73643001D03*
X135601001Y-73643001D03*
X138141001Y-71103001D03*
X135601001Y-71103001D03*
X138141001Y-68563001D03*
X135601001Y-68563001D03*
X77181001Y-157463001D03*
X74641001Y-157463001D03*
X77181001Y-154923001D03*
X74641001Y-154923001D03*
X77181001Y-152383001D03*
X74641001Y-152383001D03*
X77181001Y-149843001D03*
X74641001Y-149843001D03*
X77181001Y-147303001D03*
X74641001Y-147303001D03*
X77181001Y-144763001D03*
X74641001Y-144763001D03*
X77181001Y-142223001D03*
X74641001Y-142223001D03*
X77181001Y-139683001D03*
X74641001Y-139683001D03*
X77181001Y-137143001D03*
X74641001Y-137143001D03*
X77181001Y-134603001D03*
X74641001Y-134603001D03*
X77181001Y-132063001D03*
X74641001Y-132063001D03*
X77181001Y-129523001D03*
X74641001Y-129523001D03*
X77181001Y-126983001D03*
X74641001Y-126983001D03*
X77181001Y-124443001D03*
X74641001Y-124443001D03*
X77181001Y-121903001D03*
X74641001Y-121903001D03*
X77181001Y-119363001D03*
X74641001Y-119363001D03*
X77181001Y-116823001D03*
X74641001Y-116823001D03*
X77181001Y-114283001D03*
X74641001Y-114283001D03*
X77181001Y-111743001D03*
X74641001Y-111743001D03*
X77181001Y-109203001D03*
X74641001Y-109203001D03*
X77181001Y-106663001D03*
X74641001Y-106663001D03*
X77181001Y-104123001D03*
X74641001Y-104123001D03*
X77181001Y-101583001D03*
X74641001Y-101583001D03*
X77181001Y-99043001D03*
X74641001Y-99043001D03*
X77181001Y-96503001D03*
X74641001Y-96503001D03*
X77181001Y-93963001D03*
X74641001Y-93963001D03*
X77181001Y-91423001D03*
X74641001Y-91423001D03*
X77181001Y-88883001D03*
X74641001Y-88883001D03*
X77181001Y-86343001D03*
X74641001Y-86343001D03*
X77181001Y-83803001D03*
X74641001Y-83803001D03*
X77181001Y-81263001D03*
X74641001Y-81263001D03*
X77181001Y-78723001D03*
X74641001Y-78723001D03*
X77181001Y-76183001D03*
X74641001Y-76183001D03*
X77181001Y-73643001D03*
X74641001Y-73643001D03*
X77181001Y-71103001D03*
X74641001Y-71103001D03*
X77181001Y-68563001D03*
X74641001Y-68563001D03*
%TD*%
D12*
%TO.C,IMU*%
X113030000Y-81788000D03*
D13*
X113030000Y-84328000D03*
X113030000Y-86868000D03*
X113030000Y-89408000D03*
X113030000Y-91948000D03*
X113030000Y-94488000D03*
X113030000Y-97028000D03*
X113030000Y-99568000D03*
X113030000Y-102108000D03*
X113030000Y-104648000D03*
%TD*%
D12*
%TO.C,GPS*%
X89916000Y-46990000D03*
D13*
X89916000Y-49530000D03*
X89916000Y-52070000D03*
X89916000Y-54610000D03*
%TD*%
D12*
%TO.C,BLUETOOTH*%
X93726000Y-92710000D03*
D13*
X93726000Y-95250000D03*
X93726000Y-97790000D03*
X93726000Y-100330000D03*
X93726000Y-102870000D03*
X93726000Y-105410000D03*
%TD*%
%TO.C,SD*%
X115062000Y-137668000D03*
X115062000Y-135128000D03*
X115062000Y-132588000D03*
X115062000Y-130048000D03*
X115062000Y-127508000D03*
D12*
X115062000Y-124968000D03*
%TD*%
M02*
