M48
; DRILL file {KiCad (5.1.10)-1} date 10/27/21 16:42:18
; FORMAT={-:-/ absolute / metric / decimal}
; #@! TF.CreationDate,2021-10-27T16:42:18-05:00
; #@! TF.GenerationSoftware,Kicad,Pcbnew,(5.1.10)-1
; #@! TF.FileFunction,Plated,1,4,PTH
FMAT,2
METRIC
T1C0.400
T2C1.000
T3C3.200
%
G90
G05
T1
X-24.311Y-10.481
X-24.057Y-25.848
X-21.898Y-25.848
X-20.628Y-25.848
X-15.802Y-25.848
X-15.548Y-9.719
X-15.421Y-4.893
X-14.786Y-36.008
X-14.786Y-36.897
X-14.786Y-45.279
X-14.786Y-46.549
X-14.405Y-25.848
X-13.643Y-11.37
X-11.865Y-9.719
X-11.611Y-4.893
X-10.214Y-16.323
X-10.214Y-17.593
X-10.11Y-33.02
X-9.96Y-18.863
X-9.96Y-20.387
X-9.96Y-21.911
X-9.04Y-33.88
X-8.563Y-25.213
X-8.055Y-17.212
X-7.71Y-7.02
X-6.912Y-8.449
X-6.81Y-17.52
X-6.71Y-33.82
X-6.531Y-29.404
X-5.95Y-33.033
X-5.769Y-20.387
X-5.366Y-7.964
X-5.261Y-29.404
X-4.499Y-24.451
X-4.245Y-0.575
X-2.975Y-28.388
X-2.467Y-27.499
X-2.213Y-18.482
X-1.324Y-16.323
X-1.07Y-26.737
X0.2Y-16.323
X0.327Y-27.88
X0.962Y-12.259
X1.355Y-23.082
X2.105Y-36.008
X2.105Y-36.897
X2.261Y-22.659
X2.359Y-12.259
X2.718Y-0.829
X2.74Y-45.279
X2.74Y-46.422
X3.281Y-22.443
X4.01Y-12.259
X4.7Y-33.286
X4.772Y-42.231
X5.026Y-38.929
X5.19Y-16.02
X5.407Y-32.579
X5.589Y-24.844
X5.903Y-21.557
X5.915Y-36.262
X5.915Y-44.136
X6.02Y-2.226
X6.02Y-4.131
X6.189Y-24.044
X6.224Y-20.61
X6.296Y-25.594
X6.68Y-32.62
X6.905Y-1.76
X7.058Y-34.738
X7.59Y-16.32
X7.693Y-17.72
X7.693Y-19.117
X7.693Y-29.277
X8.29Y-27.42
X8.582Y-33.988
X8.836Y-7.306
X9.79Y-29.52
X9.979Y-33.214
X10.09Y-25.52
X10.39Y-28.72
X10.84Y-33.14
X11.122Y-16.323
X11.122Y-17.847
X11.122Y-19.371
X11.884Y-32.452
X11.99Y-5.62
X14.39Y-5.62
X14.805Y-26.82
X15.09Y-43.92
X15.29Y-39.92
X15.29Y-41.12
X15.44Y-42.866
X15.44Y-44.898
X15.79Y-5.62
X15.821Y-25.975
X17.09Y-5.62
X17.218Y-29.15
X18.234Y-44.72
X18.29Y-40.12
X18.361Y-31.436
X19.09Y-44.32
X19.19Y-40.62
X19.79Y-42.22
X19.885Y-28.769
X19.885Y-33.722
X19.89Y-41.22
X19.89Y-44.12
X20.29Y-15.02
X20.49Y-44.82
X20.59Y-41.82
X20.79Y-25.213
X21.409Y-40.707
X21.409Y-45.533
X21.99Y-43.42
X22.298Y-40.707
X22.298Y-45.533
X22.69Y-42.82
X23.187Y-40.707
X23.187Y-45.533
X23.568Y-29.15
X24.203Y-13.783
X24.33Y-35.754
X24.965Y-42.739
X24.965Y-43.628
X26.108Y-2.861
X26.489Y-32.071
X26.489Y-33.595
X26.616Y-17.847
X27.505Y-17.847
X28.394Y-17.847
X28.775Y-25.34
T2
X-11.0Y-46.25
X-3.0Y-46.25
T3
X-21.644Y-1.845
X-21.644Y-44.898
X30.934Y-1.845
X30.934Y-44.898
T0
M30
