G04 #@! TF.GenerationSoftware,KiCad,Pcbnew,(5.1.10)-1*
G04 #@! TF.CreationDate,2021-10-27T16:42:24-05:00*
G04 #@! TF.ProjectId,Board,426f6172-642e-46b6-9963-61645f706362,rev?*
G04 #@! TF.SameCoordinates,PX88abcb0PY37c5580*
G04 #@! TF.FileFunction,Soldermask,Top*
G04 #@! TF.FilePolarity,Negative*
%FSLAX46Y46*%
G04 Gerber Fmt 4.6, Leading zero omitted, Abs format (unit mm)*
G04 Created by KiCad (PCBNEW (5.1.10)-1) date 2021-10-27 16:42:24*
%MOMM*%
%LPD*%
G01*
G04 APERTURE LIST*
%ADD10R,0.750000X2.400000*%
%ADD11R,2.400000X0.750000*%
%ADD12R,0.700000X1.600000*%
%ADD13R,1.200000X1.500000*%
%ADD14R,1.200000X2.200000*%
%ADD15R,1.600000X1.500000*%
%ADD16C,1.000000*%
%ADD17R,2.440000X1.120000*%
%ADD18R,0.740000X2.400000*%
%ADD19C,5.500000*%
%ADD20R,0.600000X0.450000*%
%ADD21R,0.500000X0.400000*%
%ADD22R,1.200000X1.400000*%
%ADD23R,1.900000X1.000000*%
%ADD24R,1.900000X1.800000*%
%ADD25R,1.300000X1.650000*%
%ADD26R,1.550000X1.425000*%
%ADD27R,1.380000X0.450000*%
%ADD28R,1.000000X1.000000*%
%ADD29R,2.200000X1.050000*%
%ADD30R,0.900000X0.800000*%
%ADD31R,1.060000X0.650000*%
%ADD32R,2.700000X2.700000*%
G04 APERTURE END LIST*
D10*
X-24449000Y-12197000D03*
X-23199000Y-12197000D03*
X-21949000Y-12197000D03*
X-20699000Y-12197000D03*
X-19449000Y-12197000D03*
X-18199000Y-12197000D03*
X-16949000Y-12197000D03*
X-15699000Y-12197000D03*
X-14449000Y-24197000D03*
X-15699000Y-24197000D03*
X-16949000Y-24197000D03*
X-18199000Y-24197000D03*
X-19449000Y-24197000D03*
X-20699000Y-24197000D03*
X-21949000Y-24197000D03*
X-23199000Y-24197000D03*
D11*
X-11899000Y-13822000D03*
X-11899000Y-15072000D03*
X-11899000Y-16322000D03*
X-11899000Y-17572000D03*
X-11899000Y-18822000D03*
X-11899000Y-20072000D03*
X-11899000Y-21322000D03*
D10*
X-14449000Y-12197000D03*
D11*
X-11899000Y-22572000D03*
D10*
X-24449000Y-24197000D03*
D12*
X-3800000Y-35250000D03*
X-4900000Y-35250000D03*
X-6000000Y-35250000D03*
X-7100000Y-35250000D03*
X-8200000Y-35250000D03*
X-9300000Y-35250000D03*
X-10400000Y-35250000D03*
X-11500000Y-35250000D03*
D13*
X-13800000Y-36250000D03*
D14*
X-13800000Y-45850000D03*
X1700000Y-45850000D03*
D15*
X800000Y-36250000D03*
D16*
X-11000000Y-46250000D03*
X-3000000Y-46250000D03*
D12*
X-12600000Y-35250000D03*
D17*
X21895000Y-1520000D03*
X13285000Y-1520000D03*
D18*
X17030000Y-7470000D03*
X17030000Y-11370000D03*
X15760000Y-7470000D03*
X15760000Y-11370000D03*
X14490000Y-7470000D03*
X14490000Y-11370000D03*
X13220000Y-7470000D03*
X13220000Y-11370000D03*
X11950000Y-7470000D03*
X11950000Y-11370000D03*
G36*
G01*
X1265500Y-19808000D02*
X1265500Y-18483000D01*
G75*
G02*
X1340500Y-18408000I75000J0D01*
G01*
X1490500Y-18408000D01*
G75*
G02*
X1565500Y-18483000I0J-75000D01*
G01*
X1565500Y-19808000D01*
G75*
G02*
X1490500Y-19883000I-75000J0D01*
G01*
X1340500Y-19883000D01*
G75*
G02*
X1265500Y-19808000I0J75000D01*
G01*
G37*
G36*
G01*
X1765500Y-19808000D02*
X1765500Y-18483000D01*
G75*
G02*
X1840500Y-18408000I75000J0D01*
G01*
X1990500Y-18408000D01*
G75*
G02*
X2065500Y-18483000I0J-75000D01*
G01*
X2065500Y-19808000D01*
G75*
G02*
X1990500Y-19883000I-75000J0D01*
G01*
X1840500Y-19883000D01*
G75*
G02*
X1765500Y-19808000I0J75000D01*
G01*
G37*
G36*
G01*
X2265500Y-19808000D02*
X2265500Y-18483000D01*
G75*
G02*
X2340500Y-18408000I75000J0D01*
G01*
X2490500Y-18408000D01*
G75*
G02*
X2565500Y-18483000I0J-75000D01*
G01*
X2565500Y-19808000D01*
G75*
G02*
X2490500Y-19883000I-75000J0D01*
G01*
X2340500Y-19883000D01*
G75*
G02*
X2265500Y-19808000I0J75000D01*
G01*
G37*
G36*
G01*
X2765500Y-19808000D02*
X2765500Y-18483000D01*
G75*
G02*
X2840500Y-18408000I75000J0D01*
G01*
X2990500Y-18408000D01*
G75*
G02*
X3065500Y-18483000I0J-75000D01*
G01*
X3065500Y-19808000D01*
G75*
G02*
X2990500Y-19883000I-75000J0D01*
G01*
X2840500Y-19883000D01*
G75*
G02*
X2765500Y-19808000I0J75000D01*
G01*
G37*
G36*
G01*
X3265500Y-19808000D02*
X3265500Y-18483000D01*
G75*
G02*
X3340500Y-18408000I75000J0D01*
G01*
X3490500Y-18408000D01*
G75*
G02*
X3565500Y-18483000I0J-75000D01*
G01*
X3565500Y-19808000D01*
G75*
G02*
X3490500Y-19883000I-75000J0D01*
G01*
X3340500Y-19883000D01*
G75*
G02*
X3265500Y-19808000I0J75000D01*
G01*
G37*
G36*
G01*
X3765500Y-19808000D02*
X3765500Y-18483000D01*
G75*
G02*
X3840500Y-18408000I75000J0D01*
G01*
X3990500Y-18408000D01*
G75*
G02*
X4065500Y-18483000I0J-75000D01*
G01*
X4065500Y-19808000D01*
G75*
G02*
X3990500Y-19883000I-75000J0D01*
G01*
X3840500Y-19883000D01*
G75*
G02*
X3765500Y-19808000I0J75000D01*
G01*
G37*
G36*
G01*
X4265500Y-19808000D02*
X4265500Y-18483000D01*
G75*
G02*
X4340500Y-18408000I75000J0D01*
G01*
X4490500Y-18408000D01*
G75*
G02*
X4565500Y-18483000I0J-75000D01*
G01*
X4565500Y-19808000D01*
G75*
G02*
X4490500Y-19883000I-75000J0D01*
G01*
X4340500Y-19883000D01*
G75*
G02*
X4265500Y-19808000I0J75000D01*
G01*
G37*
G36*
G01*
X4765500Y-19808000D02*
X4765500Y-18483000D01*
G75*
G02*
X4840500Y-18408000I75000J0D01*
G01*
X4990500Y-18408000D01*
G75*
G02*
X5065500Y-18483000I0J-75000D01*
G01*
X5065500Y-19808000D01*
G75*
G02*
X4990500Y-19883000I-75000J0D01*
G01*
X4840500Y-19883000D01*
G75*
G02*
X4765500Y-19808000I0J75000D01*
G01*
G37*
G36*
G01*
X5265500Y-19808000D02*
X5265500Y-18483000D01*
G75*
G02*
X5340500Y-18408000I75000J0D01*
G01*
X5490500Y-18408000D01*
G75*
G02*
X5565500Y-18483000I0J-75000D01*
G01*
X5565500Y-19808000D01*
G75*
G02*
X5490500Y-19883000I-75000J0D01*
G01*
X5340500Y-19883000D01*
G75*
G02*
X5265500Y-19808000I0J75000D01*
G01*
G37*
G36*
G01*
X5765500Y-19808000D02*
X5765500Y-18483000D01*
G75*
G02*
X5840500Y-18408000I75000J0D01*
G01*
X5990500Y-18408000D01*
G75*
G02*
X6065500Y-18483000I0J-75000D01*
G01*
X6065500Y-19808000D01*
G75*
G02*
X5990500Y-19883000I-75000J0D01*
G01*
X5840500Y-19883000D01*
G75*
G02*
X5765500Y-19808000I0J75000D01*
G01*
G37*
G36*
G01*
X6265500Y-19808000D02*
X6265500Y-18483000D01*
G75*
G02*
X6340500Y-18408000I75000J0D01*
G01*
X6490500Y-18408000D01*
G75*
G02*
X6565500Y-18483000I0J-75000D01*
G01*
X6565500Y-19808000D01*
G75*
G02*
X6490500Y-19883000I-75000J0D01*
G01*
X6340500Y-19883000D01*
G75*
G02*
X6265500Y-19808000I0J75000D01*
G01*
G37*
G36*
G01*
X6765500Y-19808000D02*
X6765500Y-18483000D01*
G75*
G02*
X6840500Y-18408000I75000J0D01*
G01*
X6990500Y-18408000D01*
G75*
G02*
X7065500Y-18483000I0J-75000D01*
G01*
X7065500Y-19808000D01*
G75*
G02*
X6990500Y-19883000I-75000J0D01*
G01*
X6840500Y-19883000D01*
G75*
G02*
X6765500Y-19808000I0J75000D01*
G01*
G37*
G36*
G01*
X7590500Y-20633000D02*
X7590500Y-20483000D01*
G75*
G02*
X7665500Y-20408000I75000J0D01*
G01*
X8990500Y-20408000D01*
G75*
G02*
X9065500Y-20483000I0J-75000D01*
G01*
X9065500Y-20633000D01*
G75*
G02*
X8990500Y-20708000I-75000J0D01*
G01*
X7665500Y-20708000D01*
G75*
G02*
X7590500Y-20633000I0J75000D01*
G01*
G37*
G36*
G01*
X7590500Y-21133000D02*
X7590500Y-20983000D01*
G75*
G02*
X7665500Y-20908000I75000J0D01*
G01*
X8990500Y-20908000D01*
G75*
G02*
X9065500Y-20983000I0J-75000D01*
G01*
X9065500Y-21133000D01*
G75*
G02*
X8990500Y-21208000I-75000J0D01*
G01*
X7665500Y-21208000D01*
G75*
G02*
X7590500Y-21133000I0J75000D01*
G01*
G37*
G36*
G01*
X7590500Y-21633000D02*
X7590500Y-21483000D01*
G75*
G02*
X7665500Y-21408000I75000J0D01*
G01*
X8990500Y-21408000D01*
G75*
G02*
X9065500Y-21483000I0J-75000D01*
G01*
X9065500Y-21633000D01*
G75*
G02*
X8990500Y-21708000I-75000J0D01*
G01*
X7665500Y-21708000D01*
G75*
G02*
X7590500Y-21633000I0J75000D01*
G01*
G37*
G36*
G01*
X7590500Y-22133000D02*
X7590500Y-21983000D01*
G75*
G02*
X7665500Y-21908000I75000J0D01*
G01*
X8990500Y-21908000D01*
G75*
G02*
X9065500Y-21983000I0J-75000D01*
G01*
X9065500Y-22133000D01*
G75*
G02*
X8990500Y-22208000I-75000J0D01*
G01*
X7665500Y-22208000D01*
G75*
G02*
X7590500Y-22133000I0J75000D01*
G01*
G37*
G36*
G01*
X7590500Y-22633000D02*
X7590500Y-22483000D01*
G75*
G02*
X7665500Y-22408000I75000J0D01*
G01*
X8990500Y-22408000D01*
G75*
G02*
X9065500Y-22483000I0J-75000D01*
G01*
X9065500Y-22633000D01*
G75*
G02*
X8990500Y-22708000I-75000J0D01*
G01*
X7665500Y-22708000D01*
G75*
G02*
X7590500Y-22633000I0J75000D01*
G01*
G37*
G36*
G01*
X7590500Y-23133000D02*
X7590500Y-22983000D01*
G75*
G02*
X7665500Y-22908000I75000J0D01*
G01*
X8990500Y-22908000D01*
G75*
G02*
X9065500Y-22983000I0J-75000D01*
G01*
X9065500Y-23133000D01*
G75*
G02*
X8990500Y-23208000I-75000J0D01*
G01*
X7665500Y-23208000D01*
G75*
G02*
X7590500Y-23133000I0J75000D01*
G01*
G37*
G36*
G01*
X7590500Y-23633000D02*
X7590500Y-23483000D01*
G75*
G02*
X7665500Y-23408000I75000J0D01*
G01*
X8990500Y-23408000D01*
G75*
G02*
X9065500Y-23483000I0J-75000D01*
G01*
X9065500Y-23633000D01*
G75*
G02*
X8990500Y-23708000I-75000J0D01*
G01*
X7665500Y-23708000D01*
G75*
G02*
X7590500Y-23633000I0J75000D01*
G01*
G37*
G36*
G01*
X7590500Y-24133000D02*
X7590500Y-23983000D01*
G75*
G02*
X7665500Y-23908000I75000J0D01*
G01*
X8990500Y-23908000D01*
G75*
G02*
X9065500Y-23983000I0J-75000D01*
G01*
X9065500Y-24133000D01*
G75*
G02*
X8990500Y-24208000I-75000J0D01*
G01*
X7665500Y-24208000D01*
G75*
G02*
X7590500Y-24133000I0J75000D01*
G01*
G37*
G36*
G01*
X7590500Y-24633000D02*
X7590500Y-24483000D01*
G75*
G02*
X7665500Y-24408000I75000J0D01*
G01*
X8990500Y-24408000D01*
G75*
G02*
X9065500Y-24483000I0J-75000D01*
G01*
X9065500Y-24633000D01*
G75*
G02*
X8990500Y-24708000I-75000J0D01*
G01*
X7665500Y-24708000D01*
G75*
G02*
X7590500Y-24633000I0J75000D01*
G01*
G37*
G36*
G01*
X7590500Y-25133000D02*
X7590500Y-24983000D01*
G75*
G02*
X7665500Y-24908000I75000J0D01*
G01*
X8990500Y-24908000D01*
G75*
G02*
X9065500Y-24983000I0J-75000D01*
G01*
X9065500Y-25133000D01*
G75*
G02*
X8990500Y-25208000I-75000J0D01*
G01*
X7665500Y-25208000D01*
G75*
G02*
X7590500Y-25133000I0J75000D01*
G01*
G37*
G36*
G01*
X7590500Y-25633000D02*
X7590500Y-25483000D01*
G75*
G02*
X7665500Y-25408000I75000J0D01*
G01*
X8990500Y-25408000D01*
G75*
G02*
X9065500Y-25483000I0J-75000D01*
G01*
X9065500Y-25633000D01*
G75*
G02*
X8990500Y-25708000I-75000J0D01*
G01*
X7665500Y-25708000D01*
G75*
G02*
X7590500Y-25633000I0J75000D01*
G01*
G37*
G36*
G01*
X7590500Y-26133000D02*
X7590500Y-25983000D01*
G75*
G02*
X7665500Y-25908000I75000J0D01*
G01*
X8990500Y-25908000D01*
G75*
G02*
X9065500Y-25983000I0J-75000D01*
G01*
X9065500Y-26133000D01*
G75*
G02*
X8990500Y-26208000I-75000J0D01*
G01*
X7665500Y-26208000D01*
G75*
G02*
X7590500Y-26133000I0J75000D01*
G01*
G37*
G36*
G01*
X6765500Y-28133000D02*
X6765500Y-26808000D01*
G75*
G02*
X6840500Y-26733000I75000J0D01*
G01*
X6990500Y-26733000D01*
G75*
G02*
X7065500Y-26808000I0J-75000D01*
G01*
X7065500Y-28133000D01*
G75*
G02*
X6990500Y-28208000I-75000J0D01*
G01*
X6840500Y-28208000D01*
G75*
G02*
X6765500Y-28133000I0J75000D01*
G01*
G37*
G36*
G01*
X6265500Y-28133000D02*
X6265500Y-26808000D01*
G75*
G02*
X6340500Y-26733000I75000J0D01*
G01*
X6490500Y-26733000D01*
G75*
G02*
X6565500Y-26808000I0J-75000D01*
G01*
X6565500Y-28133000D01*
G75*
G02*
X6490500Y-28208000I-75000J0D01*
G01*
X6340500Y-28208000D01*
G75*
G02*
X6265500Y-28133000I0J75000D01*
G01*
G37*
G36*
G01*
X5765500Y-28133000D02*
X5765500Y-26808000D01*
G75*
G02*
X5840500Y-26733000I75000J0D01*
G01*
X5990500Y-26733000D01*
G75*
G02*
X6065500Y-26808000I0J-75000D01*
G01*
X6065500Y-28133000D01*
G75*
G02*
X5990500Y-28208000I-75000J0D01*
G01*
X5840500Y-28208000D01*
G75*
G02*
X5765500Y-28133000I0J75000D01*
G01*
G37*
G36*
G01*
X5265500Y-28133000D02*
X5265500Y-26808000D01*
G75*
G02*
X5340500Y-26733000I75000J0D01*
G01*
X5490500Y-26733000D01*
G75*
G02*
X5565500Y-26808000I0J-75000D01*
G01*
X5565500Y-28133000D01*
G75*
G02*
X5490500Y-28208000I-75000J0D01*
G01*
X5340500Y-28208000D01*
G75*
G02*
X5265500Y-28133000I0J75000D01*
G01*
G37*
G36*
G01*
X4765500Y-28133000D02*
X4765500Y-26808000D01*
G75*
G02*
X4840500Y-26733000I75000J0D01*
G01*
X4990500Y-26733000D01*
G75*
G02*
X5065500Y-26808000I0J-75000D01*
G01*
X5065500Y-28133000D01*
G75*
G02*
X4990500Y-28208000I-75000J0D01*
G01*
X4840500Y-28208000D01*
G75*
G02*
X4765500Y-28133000I0J75000D01*
G01*
G37*
G36*
G01*
X4265500Y-28133000D02*
X4265500Y-26808000D01*
G75*
G02*
X4340500Y-26733000I75000J0D01*
G01*
X4490500Y-26733000D01*
G75*
G02*
X4565500Y-26808000I0J-75000D01*
G01*
X4565500Y-28133000D01*
G75*
G02*
X4490500Y-28208000I-75000J0D01*
G01*
X4340500Y-28208000D01*
G75*
G02*
X4265500Y-28133000I0J75000D01*
G01*
G37*
G36*
G01*
X3765500Y-28133000D02*
X3765500Y-26808000D01*
G75*
G02*
X3840500Y-26733000I75000J0D01*
G01*
X3990500Y-26733000D01*
G75*
G02*
X4065500Y-26808000I0J-75000D01*
G01*
X4065500Y-28133000D01*
G75*
G02*
X3990500Y-28208000I-75000J0D01*
G01*
X3840500Y-28208000D01*
G75*
G02*
X3765500Y-28133000I0J75000D01*
G01*
G37*
G36*
G01*
X3265500Y-28133000D02*
X3265500Y-26808000D01*
G75*
G02*
X3340500Y-26733000I75000J0D01*
G01*
X3490500Y-26733000D01*
G75*
G02*
X3565500Y-26808000I0J-75000D01*
G01*
X3565500Y-28133000D01*
G75*
G02*
X3490500Y-28208000I-75000J0D01*
G01*
X3340500Y-28208000D01*
G75*
G02*
X3265500Y-28133000I0J75000D01*
G01*
G37*
G36*
G01*
X2765500Y-28133000D02*
X2765500Y-26808000D01*
G75*
G02*
X2840500Y-26733000I75000J0D01*
G01*
X2990500Y-26733000D01*
G75*
G02*
X3065500Y-26808000I0J-75000D01*
G01*
X3065500Y-28133000D01*
G75*
G02*
X2990500Y-28208000I-75000J0D01*
G01*
X2840500Y-28208000D01*
G75*
G02*
X2765500Y-28133000I0J75000D01*
G01*
G37*
G36*
G01*
X2265500Y-28133000D02*
X2265500Y-26808000D01*
G75*
G02*
X2340500Y-26733000I75000J0D01*
G01*
X2490500Y-26733000D01*
G75*
G02*
X2565500Y-26808000I0J-75000D01*
G01*
X2565500Y-28133000D01*
G75*
G02*
X2490500Y-28208000I-75000J0D01*
G01*
X2340500Y-28208000D01*
G75*
G02*
X2265500Y-28133000I0J75000D01*
G01*
G37*
G36*
G01*
X1765500Y-28133000D02*
X1765500Y-26808000D01*
G75*
G02*
X1840500Y-26733000I75000J0D01*
G01*
X1990500Y-26733000D01*
G75*
G02*
X2065500Y-26808000I0J-75000D01*
G01*
X2065500Y-28133000D01*
G75*
G02*
X1990500Y-28208000I-75000J0D01*
G01*
X1840500Y-28208000D01*
G75*
G02*
X1765500Y-28133000I0J75000D01*
G01*
G37*
G36*
G01*
X1265500Y-28133000D02*
X1265500Y-26808000D01*
G75*
G02*
X1340500Y-26733000I75000J0D01*
G01*
X1490500Y-26733000D01*
G75*
G02*
X1565500Y-26808000I0J-75000D01*
G01*
X1565500Y-28133000D01*
G75*
G02*
X1490500Y-28208000I-75000J0D01*
G01*
X1340500Y-28208000D01*
G75*
G02*
X1265500Y-28133000I0J75000D01*
G01*
G37*
G36*
G01*
X-734500Y-26133000D02*
X-734500Y-25983000D01*
G75*
G02*
X-659500Y-25908000I75000J0D01*
G01*
X665500Y-25908000D01*
G75*
G02*
X740500Y-25983000I0J-75000D01*
G01*
X740500Y-26133000D01*
G75*
G02*
X665500Y-26208000I-75000J0D01*
G01*
X-659500Y-26208000D01*
G75*
G02*
X-734500Y-26133000I0J75000D01*
G01*
G37*
G36*
G01*
X-734500Y-25633000D02*
X-734500Y-25483000D01*
G75*
G02*
X-659500Y-25408000I75000J0D01*
G01*
X665500Y-25408000D01*
G75*
G02*
X740500Y-25483000I0J-75000D01*
G01*
X740500Y-25633000D01*
G75*
G02*
X665500Y-25708000I-75000J0D01*
G01*
X-659500Y-25708000D01*
G75*
G02*
X-734500Y-25633000I0J75000D01*
G01*
G37*
G36*
G01*
X-734500Y-25133000D02*
X-734500Y-24983000D01*
G75*
G02*
X-659500Y-24908000I75000J0D01*
G01*
X665500Y-24908000D01*
G75*
G02*
X740500Y-24983000I0J-75000D01*
G01*
X740500Y-25133000D01*
G75*
G02*
X665500Y-25208000I-75000J0D01*
G01*
X-659500Y-25208000D01*
G75*
G02*
X-734500Y-25133000I0J75000D01*
G01*
G37*
G36*
G01*
X-734500Y-24633000D02*
X-734500Y-24483000D01*
G75*
G02*
X-659500Y-24408000I75000J0D01*
G01*
X665500Y-24408000D01*
G75*
G02*
X740500Y-24483000I0J-75000D01*
G01*
X740500Y-24633000D01*
G75*
G02*
X665500Y-24708000I-75000J0D01*
G01*
X-659500Y-24708000D01*
G75*
G02*
X-734500Y-24633000I0J75000D01*
G01*
G37*
G36*
G01*
X-734500Y-24133000D02*
X-734500Y-23983000D01*
G75*
G02*
X-659500Y-23908000I75000J0D01*
G01*
X665500Y-23908000D01*
G75*
G02*
X740500Y-23983000I0J-75000D01*
G01*
X740500Y-24133000D01*
G75*
G02*
X665500Y-24208000I-75000J0D01*
G01*
X-659500Y-24208000D01*
G75*
G02*
X-734500Y-24133000I0J75000D01*
G01*
G37*
G36*
G01*
X-734500Y-23633000D02*
X-734500Y-23483000D01*
G75*
G02*
X-659500Y-23408000I75000J0D01*
G01*
X665500Y-23408000D01*
G75*
G02*
X740500Y-23483000I0J-75000D01*
G01*
X740500Y-23633000D01*
G75*
G02*
X665500Y-23708000I-75000J0D01*
G01*
X-659500Y-23708000D01*
G75*
G02*
X-734500Y-23633000I0J75000D01*
G01*
G37*
G36*
G01*
X-734500Y-23133000D02*
X-734500Y-22983000D01*
G75*
G02*
X-659500Y-22908000I75000J0D01*
G01*
X665500Y-22908000D01*
G75*
G02*
X740500Y-22983000I0J-75000D01*
G01*
X740500Y-23133000D01*
G75*
G02*
X665500Y-23208000I-75000J0D01*
G01*
X-659500Y-23208000D01*
G75*
G02*
X-734500Y-23133000I0J75000D01*
G01*
G37*
G36*
G01*
X-734500Y-22633000D02*
X-734500Y-22483000D01*
G75*
G02*
X-659500Y-22408000I75000J0D01*
G01*
X665500Y-22408000D01*
G75*
G02*
X740500Y-22483000I0J-75000D01*
G01*
X740500Y-22633000D01*
G75*
G02*
X665500Y-22708000I-75000J0D01*
G01*
X-659500Y-22708000D01*
G75*
G02*
X-734500Y-22633000I0J75000D01*
G01*
G37*
G36*
G01*
X-734500Y-22133000D02*
X-734500Y-21983000D01*
G75*
G02*
X-659500Y-21908000I75000J0D01*
G01*
X665500Y-21908000D01*
G75*
G02*
X740500Y-21983000I0J-75000D01*
G01*
X740500Y-22133000D01*
G75*
G02*
X665500Y-22208000I-75000J0D01*
G01*
X-659500Y-22208000D01*
G75*
G02*
X-734500Y-22133000I0J75000D01*
G01*
G37*
G36*
G01*
X-734500Y-21633000D02*
X-734500Y-21483000D01*
G75*
G02*
X-659500Y-21408000I75000J0D01*
G01*
X665500Y-21408000D01*
G75*
G02*
X740500Y-21483000I0J-75000D01*
G01*
X740500Y-21633000D01*
G75*
G02*
X665500Y-21708000I-75000J0D01*
G01*
X-659500Y-21708000D01*
G75*
G02*
X-734500Y-21633000I0J75000D01*
G01*
G37*
G36*
G01*
X-734500Y-21133000D02*
X-734500Y-20983000D01*
G75*
G02*
X-659500Y-20908000I75000J0D01*
G01*
X665500Y-20908000D01*
G75*
G02*
X740500Y-20983000I0J-75000D01*
G01*
X740500Y-21133000D01*
G75*
G02*
X665500Y-21208000I-75000J0D01*
G01*
X-659500Y-21208000D01*
G75*
G02*
X-734500Y-21133000I0J75000D01*
G01*
G37*
G36*
G01*
X-734500Y-20633000D02*
X-734500Y-20483000D01*
G75*
G02*
X-659500Y-20408000I75000J0D01*
G01*
X665500Y-20408000D01*
G75*
G02*
X740500Y-20483000I0J-75000D01*
G01*
X740500Y-20633000D01*
G75*
G02*
X665500Y-20708000I-75000J0D01*
G01*
X-659500Y-20708000D01*
G75*
G02*
X-734500Y-20633000I0J75000D01*
G01*
G37*
D19*
X-21644000Y-1845000D03*
X30934000Y-1845000D03*
X30934000Y-44898000D03*
X-21644000Y-44898000D03*
G36*
G01*
X21260000Y-14420000D02*
X21260000Y-13920000D01*
G75*
G02*
X21485000Y-13695000I225000J0D01*
G01*
X21935000Y-13695000D01*
G75*
G02*
X22160000Y-13920000I0J-225000D01*
G01*
X22160000Y-14420000D01*
G75*
G02*
X21935000Y-14645000I-225000J0D01*
G01*
X21485000Y-14645000D01*
G75*
G02*
X21260000Y-14420000I0J225000D01*
G01*
G37*
G36*
G01*
X22810000Y-14420000D02*
X22810000Y-13920000D01*
G75*
G02*
X23035000Y-13695000I225000J0D01*
G01*
X23485000Y-13695000D01*
G75*
G02*
X23710000Y-13920000I0J-225000D01*
G01*
X23710000Y-14420000D01*
G75*
G02*
X23485000Y-14645000I-225000J0D01*
G01*
X23035000Y-14645000D01*
G75*
G02*
X22810000Y-14420000I0J225000D01*
G01*
G37*
G36*
G01*
X24842000Y-16661000D02*
X25342000Y-16661000D01*
G75*
G02*
X25567000Y-16886000I0J-225000D01*
G01*
X25567000Y-17336000D01*
G75*
G02*
X25342000Y-17561000I-225000J0D01*
G01*
X24842000Y-17561000D01*
G75*
G02*
X24617000Y-17336000I0J225000D01*
G01*
X24617000Y-16886000D01*
G75*
G02*
X24842000Y-16661000I225000J0D01*
G01*
G37*
G36*
G01*
X24842000Y-15111000D02*
X25342000Y-15111000D01*
G75*
G02*
X25567000Y-15336000I0J-225000D01*
G01*
X25567000Y-15786000D01*
G75*
G02*
X25342000Y-16011000I-225000J0D01*
G01*
X24842000Y-16011000D01*
G75*
G02*
X24617000Y-15786000I0J225000D01*
G01*
X24617000Y-15336000D01*
G75*
G02*
X24842000Y-15111000I225000J0D01*
G01*
G37*
G36*
G01*
X4215000Y-6070000D02*
X4215000Y-5570000D01*
G75*
G02*
X4440000Y-5345000I225000J0D01*
G01*
X4890000Y-5345000D01*
G75*
G02*
X5115000Y-5570000I0J-225000D01*
G01*
X5115000Y-6070000D01*
G75*
G02*
X4890000Y-6295000I-225000J0D01*
G01*
X4440000Y-6295000D01*
G75*
G02*
X4215000Y-6070000I0J225000D01*
G01*
G37*
G36*
G01*
X2665000Y-6070000D02*
X2665000Y-5570000D01*
G75*
G02*
X2890000Y-5345000I225000J0D01*
G01*
X3340000Y-5345000D01*
G75*
G02*
X3565000Y-5570000I0J-225000D01*
G01*
X3565000Y-6070000D01*
G75*
G02*
X3340000Y-6295000I-225000J0D01*
G01*
X2890000Y-6295000D01*
G75*
G02*
X2665000Y-6070000I0J225000D01*
G01*
G37*
G36*
G01*
X5594000Y-352000D02*
X5594000Y-852000D01*
G75*
G02*
X5369000Y-1077000I-225000J0D01*
G01*
X4919000Y-1077000D01*
G75*
G02*
X4694000Y-852000I0J225000D01*
G01*
X4694000Y-352000D01*
G75*
G02*
X4919000Y-127000I225000J0D01*
G01*
X5369000Y-127000D01*
G75*
G02*
X5594000Y-352000I0J-225000D01*
G01*
G37*
G36*
G01*
X4044000Y-352000D02*
X4044000Y-852000D01*
G75*
G02*
X3819000Y-1077000I-225000J0D01*
G01*
X3369000Y-1077000D01*
G75*
G02*
X3144000Y-852000I0J225000D01*
G01*
X3144000Y-352000D01*
G75*
G02*
X3369000Y-127000I225000J0D01*
G01*
X3819000Y-127000D01*
G75*
G02*
X4044000Y-352000I0J-225000D01*
G01*
G37*
G36*
G01*
X8233000Y-16573000D02*
X8233000Y-16073000D01*
G75*
G02*
X8458000Y-15848000I225000J0D01*
G01*
X8908000Y-15848000D01*
G75*
G02*
X9133000Y-16073000I0J-225000D01*
G01*
X9133000Y-16573000D01*
G75*
G02*
X8908000Y-16798000I-225000J0D01*
G01*
X8458000Y-16798000D01*
G75*
G02*
X8233000Y-16573000I0J225000D01*
G01*
G37*
G36*
G01*
X9783000Y-16573000D02*
X9783000Y-16073000D01*
G75*
G02*
X10008000Y-15848000I225000J0D01*
G01*
X10458000Y-15848000D01*
G75*
G02*
X10683000Y-16073000I0J-225000D01*
G01*
X10683000Y-16573000D01*
G75*
G02*
X10458000Y-16798000I-225000J0D01*
G01*
X10008000Y-16798000D01*
G75*
G02*
X9783000Y-16573000I0J225000D01*
G01*
G37*
G36*
G01*
X-7275000Y-18810000D02*
X-7275000Y-18310000D01*
G75*
G02*
X-7050000Y-18085000I225000J0D01*
G01*
X-6600000Y-18085000D01*
G75*
G02*
X-6375000Y-18310000I0J-225000D01*
G01*
X-6375000Y-18810000D01*
G75*
G02*
X-6600000Y-19035000I-225000J0D01*
G01*
X-7050000Y-19035000D01*
G75*
G02*
X-7275000Y-18810000I0J225000D01*
G01*
G37*
G36*
G01*
X-8825000Y-18810000D02*
X-8825000Y-18310000D01*
G75*
G02*
X-8600000Y-18085000I225000J0D01*
G01*
X-8150000Y-18085000D01*
G75*
G02*
X-7925000Y-18310000I0J-225000D01*
G01*
X-7925000Y-18810000D01*
G75*
G02*
X-8150000Y-19035000I-225000J0D01*
G01*
X-8600000Y-19035000D01*
G75*
G02*
X-8825000Y-18810000I0J225000D01*
G01*
G37*
G36*
G01*
X8233000Y-19621000D02*
X8233000Y-19121000D01*
G75*
G02*
X8458000Y-18896000I225000J0D01*
G01*
X8908000Y-18896000D01*
G75*
G02*
X9133000Y-19121000I0J-225000D01*
G01*
X9133000Y-19621000D01*
G75*
G02*
X8908000Y-19846000I-225000J0D01*
G01*
X8458000Y-19846000D01*
G75*
G02*
X8233000Y-19621000I0J225000D01*
G01*
G37*
G36*
G01*
X9783000Y-19621000D02*
X9783000Y-19121000D01*
G75*
G02*
X10008000Y-18896000I225000J0D01*
G01*
X10458000Y-18896000D01*
G75*
G02*
X10683000Y-19121000I0J-225000D01*
G01*
X10683000Y-19621000D01*
G75*
G02*
X10458000Y-19846000I-225000J0D01*
G01*
X10008000Y-19846000D01*
G75*
G02*
X9783000Y-19621000I0J225000D01*
G01*
G37*
G36*
G01*
X-6335000Y-24074000D02*
X-6335000Y-24574000D01*
G75*
G02*
X-6560000Y-24799000I-225000J0D01*
G01*
X-7010000Y-24799000D01*
G75*
G02*
X-7235000Y-24574000I0J225000D01*
G01*
X-7235000Y-24074000D01*
G75*
G02*
X-7010000Y-23849000I225000J0D01*
G01*
X-6560000Y-23849000D01*
G75*
G02*
X-6335000Y-24074000I0J-225000D01*
G01*
G37*
G36*
G01*
X-7885000Y-24074000D02*
X-7885000Y-24574000D01*
G75*
G02*
X-8110000Y-24799000I-225000J0D01*
G01*
X-8560000Y-24799000D01*
G75*
G02*
X-8785000Y-24574000I0J225000D01*
G01*
X-8785000Y-24074000D01*
G75*
G02*
X-8560000Y-23849000I225000J0D01*
G01*
X-8110000Y-23849000D01*
G75*
G02*
X-7885000Y-24074000I0J-225000D01*
G01*
G37*
G36*
G01*
X9783000Y-18097000D02*
X9783000Y-17597000D01*
G75*
G02*
X10008000Y-17372000I225000J0D01*
G01*
X10458000Y-17372000D01*
G75*
G02*
X10683000Y-17597000I0J-225000D01*
G01*
X10683000Y-18097000D01*
G75*
G02*
X10458000Y-18322000I-225000J0D01*
G01*
X10008000Y-18322000D01*
G75*
G02*
X9783000Y-18097000I0J225000D01*
G01*
G37*
G36*
G01*
X8233000Y-18097000D02*
X8233000Y-17597000D01*
G75*
G02*
X8458000Y-17372000I225000J0D01*
G01*
X8908000Y-17372000D01*
G75*
G02*
X9133000Y-17597000I0J-225000D01*
G01*
X9133000Y-18097000D01*
G75*
G02*
X8908000Y-18322000I-225000J0D01*
G01*
X8458000Y-18322000D01*
G75*
G02*
X8233000Y-18097000I0J225000D01*
G01*
G37*
G36*
G01*
X-1074000Y-19212000D02*
X-1574000Y-19212000D01*
G75*
G02*
X-1799000Y-18987000I0J225000D01*
G01*
X-1799000Y-18537000D01*
G75*
G02*
X-1574000Y-18312000I225000J0D01*
G01*
X-1074000Y-18312000D01*
G75*
G02*
X-849000Y-18537000I0J-225000D01*
G01*
X-849000Y-18987000D01*
G75*
G02*
X-1074000Y-19212000I-225000J0D01*
G01*
G37*
G36*
G01*
X-1074000Y-17662000D02*
X-1574000Y-17662000D01*
G75*
G02*
X-1799000Y-17437000I0J225000D01*
G01*
X-1799000Y-16987000D01*
G75*
G02*
X-1574000Y-16762000I225000J0D01*
G01*
X-1074000Y-16762000D01*
G75*
G02*
X-849000Y-16987000I0J-225000D01*
G01*
X-849000Y-17437000D01*
G75*
G02*
X-1074000Y-17662000I-225000J0D01*
G01*
G37*
G36*
G01*
X6238000Y-29916000D02*
X6238000Y-30416000D01*
G75*
G02*
X6013000Y-30641000I-225000J0D01*
G01*
X5563000Y-30641000D01*
G75*
G02*
X5338000Y-30416000I0J225000D01*
G01*
X5338000Y-29916000D01*
G75*
G02*
X5563000Y-29691000I225000J0D01*
G01*
X6013000Y-29691000D01*
G75*
G02*
X6238000Y-29916000I0J-225000D01*
G01*
G37*
G36*
G01*
X7788000Y-29916000D02*
X7788000Y-30416000D01*
G75*
G02*
X7563000Y-30641000I-225000J0D01*
G01*
X7113000Y-30641000D01*
G75*
G02*
X6888000Y-30416000I0J225000D01*
G01*
X6888000Y-29916000D01*
G75*
G02*
X7113000Y-29691000I225000J0D01*
G01*
X7563000Y-29691000D01*
G75*
G02*
X7788000Y-29916000I0J-225000D01*
G01*
G37*
G36*
G01*
X450000Y-19212000D02*
X-50000Y-19212000D01*
G75*
G02*
X-275000Y-18987000I0J225000D01*
G01*
X-275000Y-18537000D01*
G75*
G02*
X-50000Y-18312000I225000J0D01*
G01*
X450000Y-18312000D01*
G75*
G02*
X675000Y-18537000I0J-225000D01*
G01*
X675000Y-18987000D01*
G75*
G02*
X450000Y-19212000I-225000J0D01*
G01*
G37*
G36*
G01*
X450000Y-17662000D02*
X-50000Y-17662000D01*
G75*
G02*
X-275000Y-17437000I0J225000D01*
G01*
X-275000Y-16987000D01*
G75*
G02*
X-50000Y-16762000I225000J0D01*
G01*
X450000Y-16762000D01*
G75*
G02*
X675000Y-16987000I0J-225000D01*
G01*
X675000Y-17437000D01*
G75*
G02*
X450000Y-17662000I-225000J0D01*
G01*
G37*
G36*
G01*
X6238000Y-31440000D02*
X6238000Y-31940000D01*
G75*
G02*
X6013000Y-32165000I-225000J0D01*
G01*
X5563000Y-32165000D01*
G75*
G02*
X5338000Y-31940000I0J225000D01*
G01*
X5338000Y-31440000D01*
G75*
G02*
X5563000Y-31215000I225000J0D01*
G01*
X6013000Y-31215000D01*
G75*
G02*
X6238000Y-31440000I0J-225000D01*
G01*
G37*
G36*
G01*
X7788000Y-31440000D02*
X7788000Y-31940000D01*
G75*
G02*
X7563000Y-32165000I-225000J0D01*
G01*
X7113000Y-32165000D01*
G75*
G02*
X6888000Y-31940000I0J225000D01*
G01*
X6888000Y-31440000D01*
G75*
G02*
X7113000Y-31215000I225000J0D01*
G01*
X7563000Y-31215000D01*
G75*
G02*
X7788000Y-31440000I0J-225000D01*
G01*
G37*
G36*
G01*
X-1836000Y-24901000D02*
X-2336000Y-24901000D01*
G75*
G02*
X-2561000Y-24676000I0J225000D01*
G01*
X-2561000Y-24226000D01*
G75*
G02*
X-2336000Y-24001000I225000J0D01*
G01*
X-1836000Y-24001000D01*
G75*
G02*
X-1611000Y-24226000I0J-225000D01*
G01*
X-1611000Y-24676000D01*
G75*
G02*
X-1836000Y-24901000I-225000J0D01*
G01*
G37*
G36*
G01*
X-1836000Y-26451000D02*
X-2336000Y-26451000D01*
G75*
G02*
X-2561000Y-26226000I0J225000D01*
G01*
X-2561000Y-25776000D01*
G75*
G02*
X-2336000Y-25551000I225000J0D01*
G01*
X-1836000Y-25551000D01*
G75*
G02*
X-1611000Y-25776000I0J-225000D01*
G01*
X-1611000Y-26226000D01*
G75*
G02*
X-1836000Y-26451000I-225000J0D01*
G01*
G37*
G36*
G01*
X-3360000Y-24901000D02*
X-3860000Y-24901000D01*
G75*
G02*
X-4085000Y-24676000I0J225000D01*
G01*
X-4085000Y-24226000D01*
G75*
G02*
X-3860000Y-24001000I225000J0D01*
G01*
X-3360000Y-24001000D01*
G75*
G02*
X-3135000Y-24226000I0J-225000D01*
G01*
X-3135000Y-24676000D01*
G75*
G02*
X-3360000Y-24901000I-225000J0D01*
G01*
G37*
G36*
G01*
X-3360000Y-26451000D02*
X-3860000Y-26451000D01*
G75*
G02*
X-4085000Y-26226000I0J225000D01*
G01*
X-4085000Y-25776000D01*
G75*
G02*
X-3860000Y-25551000I225000J0D01*
G01*
X-3360000Y-25551000D01*
G75*
G02*
X-3135000Y-25776000I0J-225000D01*
G01*
X-3135000Y-26226000D01*
G75*
G02*
X-3360000Y-26451000I-225000J0D01*
G01*
G37*
G36*
G01*
X5570000Y-41895000D02*
X5070000Y-41895000D01*
G75*
G02*
X4845000Y-41670000I0J225000D01*
G01*
X4845000Y-41220000D01*
G75*
G02*
X5070000Y-40995000I225000J0D01*
G01*
X5570000Y-40995000D01*
G75*
G02*
X5795000Y-41220000I0J-225000D01*
G01*
X5795000Y-41670000D01*
G75*
G02*
X5570000Y-41895000I-225000J0D01*
G01*
G37*
G36*
G01*
X5570000Y-40345000D02*
X5070000Y-40345000D01*
G75*
G02*
X4845000Y-40120000I0J225000D01*
G01*
X4845000Y-39670000D01*
G75*
G02*
X5070000Y-39445000I225000J0D01*
G01*
X5570000Y-39445000D01*
G75*
G02*
X5795000Y-39670000I0J-225000D01*
G01*
X5795000Y-40120000D01*
G75*
G02*
X5570000Y-40345000I-225000J0D01*
G01*
G37*
G36*
G01*
X9856000Y-31875000D02*
X10356000Y-31875000D01*
G75*
G02*
X10581000Y-32100000I0J-225000D01*
G01*
X10581000Y-32550000D01*
G75*
G02*
X10356000Y-32775000I-225000J0D01*
G01*
X9856000Y-32775000D01*
G75*
G02*
X9631000Y-32550000I0J225000D01*
G01*
X9631000Y-32100000D01*
G75*
G02*
X9856000Y-31875000I225000J0D01*
G01*
G37*
G36*
G01*
X9856000Y-30325000D02*
X10356000Y-30325000D01*
G75*
G02*
X10581000Y-30550000I0J-225000D01*
G01*
X10581000Y-31000000D01*
G75*
G02*
X10356000Y-31225000I-225000J0D01*
G01*
X9856000Y-31225000D01*
G75*
G02*
X9631000Y-31000000I0J225000D01*
G01*
X9631000Y-30550000D01*
G75*
G02*
X9856000Y-30325000I225000J0D01*
G01*
G37*
G36*
G01*
X16514000Y-30797000D02*
X16514000Y-30297000D01*
G75*
G02*
X16739000Y-30072000I225000J0D01*
G01*
X17189000Y-30072000D01*
G75*
G02*
X17414000Y-30297000I0J-225000D01*
G01*
X17414000Y-30797000D01*
G75*
G02*
X17189000Y-31022000I-225000J0D01*
G01*
X16739000Y-31022000D01*
G75*
G02*
X16514000Y-30797000I0J225000D01*
G01*
G37*
G36*
G01*
X18064000Y-30797000D02*
X18064000Y-30297000D01*
G75*
G02*
X18289000Y-30072000I225000J0D01*
G01*
X18739000Y-30072000D01*
G75*
G02*
X18964000Y-30297000I0J-225000D01*
G01*
X18964000Y-30797000D01*
G75*
G02*
X18739000Y-31022000I-225000J0D01*
G01*
X18289000Y-31022000D01*
G75*
G02*
X18064000Y-30797000I0J225000D01*
G01*
G37*
D20*
X28682000Y-9084000D03*
X26582000Y-9084000D03*
G36*
G01*
X23181500Y-21913250D02*
X23181500Y-21400750D01*
G75*
G02*
X23400250Y-21182000I218750J0D01*
G01*
X23837750Y-21182000D01*
G75*
G02*
X24056500Y-21400750I0J-218750D01*
G01*
X24056500Y-21913250D01*
G75*
G02*
X23837750Y-22132000I-218750J0D01*
G01*
X23400250Y-22132000D01*
G75*
G02*
X23181500Y-21913250I0J218750D01*
G01*
G37*
G36*
G01*
X21606500Y-21913250D02*
X21606500Y-21400750D01*
G75*
G02*
X21825250Y-21182000I218750J0D01*
G01*
X22262750Y-21182000D01*
G75*
G02*
X22481500Y-21400750I0J-218750D01*
G01*
X22481500Y-21913250D01*
G75*
G02*
X22262750Y-22132000I-218750J0D01*
G01*
X21825250Y-22132000D01*
G75*
G02*
X21606500Y-21913250I0J218750D01*
G01*
G37*
G36*
G01*
X-17560500Y-2482250D02*
X-17560500Y-1969750D01*
G75*
G02*
X-17341750Y-1751000I218750J0D01*
G01*
X-16904250Y-1751000D01*
G75*
G02*
X-16685500Y-1969750I0J-218750D01*
G01*
X-16685500Y-2482250D01*
G75*
G02*
X-16904250Y-2701000I-218750J0D01*
G01*
X-17341750Y-2701000D01*
G75*
G02*
X-17560500Y-2482250I0J218750D01*
G01*
G37*
G36*
G01*
X-15985500Y-2482250D02*
X-15985500Y-1969750D01*
G75*
G02*
X-15766750Y-1751000I218750J0D01*
G01*
X-15329250Y-1751000D01*
G75*
G02*
X-15110500Y-1969750I0J-218750D01*
G01*
X-15110500Y-2482250D01*
G75*
G02*
X-15329250Y-2701000I-218750J0D01*
G01*
X-15766750Y-2701000D01*
G75*
G02*
X-15985500Y-2482250I0J218750D01*
G01*
G37*
G36*
G01*
X-12175500Y-2482250D02*
X-12175500Y-1969750D01*
G75*
G02*
X-11956750Y-1751000I218750J0D01*
G01*
X-11519250Y-1751000D01*
G75*
G02*
X-11300500Y-1969750I0J-218750D01*
G01*
X-11300500Y-2482250D01*
G75*
G02*
X-11519250Y-2701000I-218750J0D01*
G01*
X-11956750Y-2701000D01*
G75*
G02*
X-12175500Y-2482250I0J218750D01*
G01*
G37*
G36*
G01*
X-13750500Y-2482250D02*
X-13750500Y-1969750D01*
G75*
G02*
X-13531750Y-1751000I218750J0D01*
G01*
X-13094250Y-1751000D01*
G75*
G02*
X-12875500Y-1969750I0J-218750D01*
G01*
X-12875500Y-2482250D01*
G75*
G02*
X-13094250Y-2701000I-218750J0D01*
G01*
X-13531750Y-2701000D01*
G75*
G02*
X-13750500Y-2482250I0J218750D01*
G01*
G37*
D21*
X-2848000Y-1972000D03*
X-2848000Y-1272000D03*
X-4148000Y-1972000D03*
X-4148000Y-1272000D03*
G36*
G01*
X-17763500Y-7308250D02*
X-17763500Y-6795750D01*
G75*
G02*
X-17544750Y-6577000I218750J0D01*
G01*
X-17107250Y-6577000D01*
G75*
G02*
X-16888500Y-6795750I0J-218750D01*
G01*
X-16888500Y-7308250D01*
G75*
G02*
X-17107250Y-7527000I-218750J0D01*
G01*
X-17544750Y-7527000D01*
G75*
G02*
X-17763500Y-7308250I0J218750D01*
G01*
G37*
G36*
G01*
X-16188500Y-7308250D02*
X-16188500Y-6795750D01*
G75*
G02*
X-15969750Y-6577000I218750J0D01*
G01*
X-15532250Y-6577000D01*
G75*
G02*
X-15313500Y-6795750I0J-218750D01*
G01*
X-15313500Y-7308250D01*
G75*
G02*
X-15532250Y-7527000I-218750J0D01*
G01*
X-15969750Y-7527000D01*
G75*
G02*
X-16188500Y-7308250I0J218750D01*
G01*
G37*
G36*
G01*
X-12378500Y-7308250D02*
X-12378500Y-6795750D01*
G75*
G02*
X-12159750Y-6577000I218750J0D01*
G01*
X-11722250Y-6577000D01*
G75*
G02*
X-11503500Y-6795750I0J-218750D01*
G01*
X-11503500Y-7308250D01*
G75*
G02*
X-11722250Y-7527000I-218750J0D01*
G01*
X-12159750Y-7527000D01*
G75*
G02*
X-12378500Y-7308250I0J218750D01*
G01*
G37*
G36*
G01*
X-13953500Y-7308250D02*
X-13953500Y-6795750D01*
G75*
G02*
X-13734750Y-6577000I218750J0D01*
G01*
X-13297250Y-6577000D01*
G75*
G02*
X-13078500Y-6795750I0J-218750D01*
G01*
X-13078500Y-7308250D01*
G75*
G02*
X-13297250Y-7527000I-218750J0D01*
G01*
X-13734750Y-7527000D01*
G75*
G02*
X-13953500Y-7308250I0J218750D01*
G01*
G37*
G36*
G01*
X24470000Y-9836000D02*
X24470000Y-8586000D01*
G75*
G02*
X24720000Y-8336000I250000J0D01*
G01*
X25470000Y-8336000D01*
G75*
G02*
X25720000Y-8586000I0J-250000D01*
G01*
X25720000Y-9836000D01*
G75*
G02*
X25470000Y-10086000I-250000J0D01*
G01*
X24720000Y-10086000D01*
G75*
G02*
X24470000Y-9836000I0J250000D01*
G01*
G37*
G36*
G01*
X21670000Y-9836000D02*
X21670000Y-8586000D01*
G75*
G02*
X21920000Y-8336000I250000J0D01*
G01*
X22670000Y-8336000D01*
G75*
G02*
X22920000Y-8586000I0J-250000D01*
G01*
X22920000Y-9836000D01*
G75*
G02*
X22670000Y-10086000I-250000J0D01*
G01*
X21920000Y-10086000D01*
G75*
G02*
X21670000Y-9836000I0J250000D01*
G01*
G37*
G36*
G01*
X8237000Y-2785750D02*
X8237000Y-3698250D01*
G75*
G02*
X7993250Y-3942000I-243750J0D01*
G01*
X7505750Y-3942000D01*
G75*
G02*
X7262000Y-3698250I0J243750D01*
G01*
X7262000Y-2785750D01*
G75*
G02*
X7505750Y-2542000I243750J0D01*
G01*
X7993250Y-2542000D01*
G75*
G02*
X8237000Y-2785750I0J-243750D01*
G01*
G37*
G36*
G01*
X10112000Y-2785750D02*
X10112000Y-3698250D01*
G75*
G02*
X9868250Y-3942000I-243750J0D01*
G01*
X9380750Y-3942000D01*
G75*
G02*
X9137000Y-3698250I0J243750D01*
G01*
X9137000Y-2785750D01*
G75*
G02*
X9380750Y-2542000I243750J0D01*
G01*
X9868250Y-2542000D01*
G75*
G02*
X10112000Y-2785750I0J-243750D01*
G01*
G37*
G36*
G01*
X-5312750Y-28972500D02*
X-6225250Y-28972500D01*
G75*
G02*
X-6469000Y-28728750I0J243750D01*
G01*
X-6469000Y-28241250D01*
G75*
G02*
X-6225250Y-27997500I243750J0D01*
G01*
X-5312750Y-27997500D01*
G75*
G02*
X-5069000Y-28241250I0J-243750D01*
G01*
X-5069000Y-28728750D01*
G75*
G02*
X-5312750Y-28972500I-243750J0D01*
G01*
G37*
G36*
G01*
X-5312750Y-27097500D02*
X-6225250Y-27097500D01*
G75*
G02*
X-6469000Y-26853750I0J243750D01*
G01*
X-6469000Y-26366250D01*
G75*
G02*
X-6225250Y-26122500I243750J0D01*
G01*
X-5312750Y-26122500D01*
G75*
G02*
X-5069000Y-26366250I0J-243750D01*
G01*
X-5069000Y-26853750D01*
G75*
G02*
X-5312750Y-27097500I-243750J0D01*
G01*
G37*
D22*
X-6863000Y-20346000D03*
X-6863000Y-22546000D03*
X-8563000Y-22546000D03*
X-8563000Y-20346000D03*
D23*
X32642000Y-25060000D03*
D24*
X32642000Y-27760000D03*
D25*
X32642000Y-23235000D03*
X32642000Y-29985000D03*
D26*
X30067000Y-24122500D03*
X30067000Y-29097500D03*
D27*
X29982000Y-25310000D03*
X29982000Y-25960000D03*
X29982000Y-26610000D03*
X29982000Y-27260000D03*
X29982000Y-27910000D03*
G36*
G01*
X29950000Y-15620000D02*
X31200000Y-15620000D01*
G75*
G02*
X31350000Y-15770000I0J-150000D01*
G01*
X31350000Y-16070000D01*
G75*
G02*
X31200000Y-16220000I-150000J0D01*
G01*
X29950000Y-16220000D01*
G75*
G02*
X29800000Y-16070000I0J150000D01*
G01*
X29800000Y-15770000D01*
G75*
G02*
X29950000Y-15620000I150000J0D01*
G01*
G37*
G36*
G01*
X29950000Y-16620000D02*
X31200000Y-16620000D01*
G75*
G02*
X31350000Y-16770000I0J-150000D01*
G01*
X31350000Y-17070000D01*
G75*
G02*
X31200000Y-17220000I-150000J0D01*
G01*
X29950000Y-17220000D01*
G75*
G02*
X29800000Y-17070000I0J150000D01*
G01*
X29800000Y-16770000D01*
G75*
G02*
X29950000Y-16620000I150000J0D01*
G01*
G37*
G36*
G01*
X32449999Y-14020000D02*
X33750001Y-14020000D01*
G75*
G02*
X34000000Y-14269999I0J-249999D01*
G01*
X34000000Y-14970001D01*
G75*
G02*
X33750001Y-15220000I-249999J0D01*
G01*
X32449999Y-15220000D01*
G75*
G02*
X32200000Y-14970001I0J249999D01*
G01*
X32200000Y-14269999D01*
G75*
G02*
X32449999Y-14020000I249999J0D01*
G01*
G37*
G36*
G01*
X32449999Y-17620000D02*
X33750001Y-17620000D01*
G75*
G02*
X34000000Y-17869999I0J-249999D01*
G01*
X34000000Y-18570001D01*
G75*
G02*
X33750001Y-18820000I-249999J0D01*
G01*
X32449999Y-18820000D01*
G75*
G02*
X32200000Y-18570001I0J249999D01*
G01*
X32200000Y-17869999D01*
G75*
G02*
X32449999Y-17620000I249999J0D01*
G01*
G37*
D28*
X20798000Y-43120000D03*
X23798000Y-43120000D03*
D29*
X22298000Y-44595000D03*
X22298000Y-41645000D03*
G36*
G01*
X18998250Y-42135000D02*
X18485750Y-42135000D01*
G75*
G02*
X18267000Y-41916250I0J218750D01*
G01*
X18267000Y-41478750D01*
G75*
G02*
X18485750Y-41260000I218750J0D01*
G01*
X18998250Y-41260000D01*
G75*
G02*
X19217000Y-41478750I0J-218750D01*
G01*
X19217000Y-41916250D01*
G75*
G02*
X18998250Y-42135000I-218750J0D01*
G01*
G37*
G36*
G01*
X18998250Y-43710000D02*
X18485750Y-43710000D01*
G75*
G02*
X18267000Y-43491250I0J218750D01*
G01*
X18267000Y-43053750D01*
G75*
G02*
X18485750Y-42835000I218750J0D01*
G01*
X18998250Y-42835000D01*
G75*
G02*
X19217000Y-43053750I0J-218750D01*
G01*
X19217000Y-43491250D01*
G75*
G02*
X18998250Y-43710000I-218750J0D01*
G01*
G37*
D30*
X26600000Y-6290000D03*
X24600000Y-7240000D03*
X24600000Y-5340000D03*
G36*
G01*
X24057000Y-4025000D02*
X24057000Y-3475000D01*
G75*
G02*
X24257000Y-3275000I200000J0D01*
G01*
X24657000Y-3275000D01*
G75*
G02*
X24857000Y-3475000I0J-200000D01*
G01*
X24857000Y-4025000D01*
G75*
G02*
X24657000Y-4225000I-200000J0D01*
G01*
X24257000Y-4225000D01*
G75*
G02*
X24057000Y-4025000I0J200000D01*
G01*
G37*
G36*
G01*
X25707000Y-4025000D02*
X25707000Y-3475000D01*
G75*
G02*
X25907000Y-3275000I200000J0D01*
G01*
X26307000Y-3275000D01*
G75*
G02*
X26507000Y-3475000I0J-200000D01*
G01*
X26507000Y-4025000D01*
G75*
G02*
X26307000Y-4225000I-200000J0D01*
G01*
X25907000Y-4225000D01*
G75*
G02*
X25707000Y-4025000I0J200000D01*
G01*
G37*
G36*
G01*
X19935000Y-16475000D02*
X19385000Y-16475000D01*
G75*
G02*
X19185000Y-16275000I0J200000D01*
G01*
X19185000Y-15875000D01*
G75*
G02*
X19385000Y-15675000I200000J0D01*
G01*
X19935000Y-15675000D01*
G75*
G02*
X20135000Y-15875000I0J-200000D01*
G01*
X20135000Y-16275000D01*
G75*
G02*
X19935000Y-16475000I-200000J0D01*
G01*
G37*
G36*
G01*
X19935000Y-18125000D02*
X19385000Y-18125000D01*
G75*
G02*
X19185000Y-17925000I0J200000D01*
G01*
X19185000Y-17525000D01*
G75*
G02*
X19385000Y-17325000I200000J0D01*
G01*
X19935000Y-17325000D01*
G75*
G02*
X20135000Y-17525000I0J-200000D01*
G01*
X20135000Y-17925000D01*
G75*
G02*
X19935000Y-18125000I-200000J0D01*
G01*
G37*
G36*
G01*
X8440000Y-945000D02*
X8440000Y-1495000D01*
G75*
G02*
X8240000Y-1695000I-200000J0D01*
G01*
X7840000Y-1695000D01*
G75*
G02*
X7640000Y-1495000I0J200000D01*
G01*
X7640000Y-945000D01*
G75*
G02*
X7840000Y-745000I200000J0D01*
G01*
X8240000Y-745000D01*
G75*
G02*
X8440000Y-945000I0J-200000D01*
G01*
G37*
G36*
G01*
X10090000Y-945000D02*
X10090000Y-1495000D01*
G75*
G02*
X9890000Y-1695000I-200000J0D01*
G01*
X9490000Y-1695000D01*
G75*
G02*
X9290000Y-1495000I0J200000D01*
G01*
X9290000Y-945000D01*
G75*
G02*
X9490000Y-745000I200000J0D01*
G01*
X9890000Y-745000D01*
G75*
G02*
X10090000Y-945000I0J-200000D01*
G01*
G37*
G36*
G01*
X24031000Y-19096000D02*
X24031000Y-19646000D01*
G75*
G02*
X23831000Y-19846000I-200000J0D01*
G01*
X23431000Y-19846000D01*
G75*
G02*
X23231000Y-19646000I0J200000D01*
G01*
X23231000Y-19096000D01*
G75*
G02*
X23431000Y-18896000I200000J0D01*
G01*
X23831000Y-18896000D01*
G75*
G02*
X24031000Y-19096000I0J-200000D01*
G01*
G37*
G36*
G01*
X22381000Y-19096000D02*
X22381000Y-19646000D01*
G75*
G02*
X22181000Y-19846000I-200000J0D01*
G01*
X21781000Y-19846000D01*
G75*
G02*
X21581000Y-19646000I0J200000D01*
G01*
X21581000Y-19096000D01*
G75*
G02*
X21781000Y-18896000I200000J0D01*
G01*
X22181000Y-18896000D01*
G75*
G02*
X22381000Y-19096000I0J-200000D01*
G01*
G37*
G36*
G01*
X-17598000Y-4279000D02*
X-17598000Y-3729000D01*
G75*
G02*
X-17398000Y-3529000I200000J0D01*
G01*
X-16998000Y-3529000D01*
G75*
G02*
X-16798000Y-3729000I0J-200000D01*
G01*
X-16798000Y-4279000D01*
G75*
G02*
X-16998000Y-4479000I-200000J0D01*
G01*
X-17398000Y-4479000D01*
G75*
G02*
X-17598000Y-4279000I0J200000D01*
G01*
G37*
G36*
G01*
X-15948000Y-4279000D02*
X-15948000Y-3729000D01*
G75*
G02*
X-15748000Y-3529000I200000J0D01*
G01*
X-15348000Y-3529000D01*
G75*
G02*
X-15148000Y-3729000I0J-200000D01*
G01*
X-15148000Y-4279000D01*
G75*
G02*
X-15348000Y-4479000I-200000J0D01*
G01*
X-15748000Y-4479000D01*
G75*
G02*
X-15948000Y-4279000I0J200000D01*
G01*
G37*
G36*
G01*
X-5979000Y-4279000D02*
X-5979000Y-3729000D01*
G75*
G02*
X-5779000Y-3529000I200000J0D01*
G01*
X-5379000Y-3529000D01*
G75*
G02*
X-5179000Y-3729000I0J-200000D01*
G01*
X-5179000Y-4279000D01*
G75*
G02*
X-5379000Y-4479000I-200000J0D01*
G01*
X-5779000Y-4479000D01*
G75*
G02*
X-5979000Y-4279000I0J200000D01*
G01*
G37*
G36*
G01*
X-7629000Y-4279000D02*
X-7629000Y-3729000D01*
G75*
G02*
X-7429000Y-3529000I200000J0D01*
G01*
X-7029000Y-3529000D01*
G75*
G02*
X-6829000Y-3729000I0J-200000D01*
G01*
X-6829000Y-4279000D01*
G75*
G02*
X-7029000Y-4479000I-200000J0D01*
G01*
X-7429000Y-4479000D01*
G75*
G02*
X-7629000Y-4279000I0J200000D01*
G01*
G37*
G36*
G01*
X-12012000Y-4279000D02*
X-12012000Y-3729000D01*
G75*
G02*
X-11812000Y-3529000I200000J0D01*
G01*
X-11412000Y-3529000D01*
G75*
G02*
X-11212000Y-3729000I0J-200000D01*
G01*
X-11212000Y-4279000D01*
G75*
G02*
X-11412000Y-4479000I-200000J0D01*
G01*
X-11812000Y-4479000D01*
G75*
G02*
X-12012000Y-4279000I0J200000D01*
G01*
G37*
G36*
G01*
X-13662000Y-4279000D02*
X-13662000Y-3729000D01*
G75*
G02*
X-13462000Y-3529000I200000J0D01*
G01*
X-13062000Y-3529000D01*
G75*
G02*
X-12862000Y-3729000I0J-200000D01*
G01*
X-12862000Y-4279000D01*
G75*
G02*
X-13062000Y-4479000I-200000J0D01*
G01*
X-13462000Y-4479000D01*
G75*
G02*
X-13662000Y-4279000I0J200000D01*
G01*
G37*
G36*
G01*
X-4644000Y-4279000D02*
X-4644000Y-3729000D01*
G75*
G02*
X-4444000Y-3529000I200000J0D01*
G01*
X-4044000Y-3529000D01*
G75*
G02*
X-3844000Y-3729000I0J-200000D01*
G01*
X-3844000Y-4279000D01*
G75*
G02*
X-4044000Y-4479000I-200000J0D01*
G01*
X-4444000Y-4479000D01*
G75*
G02*
X-4644000Y-4279000I0J200000D01*
G01*
G37*
G36*
G01*
X-2994000Y-4279000D02*
X-2994000Y-3729000D01*
G75*
G02*
X-2794000Y-3529000I200000J0D01*
G01*
X-2394000Y-3529000D01*
G75*
G02*
X-2194000Y-3729000I0J-200000D01*
G01*
X-2194000Y-4279000D01*
G75*
G02*
X-2394000Y-4479000I-200000J0D01*
G01*
X-2794000Y-4479000D01*
G75*
G02*
X-2994000Y-4279000I0J200000D01*
G01*
G37*
G36*
G01*
X35000Y-4279000D02*
X35000Y-3729000D01*
G75*
G02*
X235000Y-3529000I200000J0D01*
G01*
X635000Y-3529000D01*
G75*
G02*
X835000Y-3729000I0J-200000D01*
G01*
X835000Y-4279000D01*
G75*
G02*
X635000Y-4479000I-200000J0D01*
G01*
X235000Y-4479000D01*
G75*
G02*
X35000Y-4279000I0J200000D01*
G01*
G37*
G36*
G01*
X-1615000Y-4279000D02*
X-1615000Y-3729000D01*
G75*
G02*
X-1415000Y-3529000I200000J0D01*
G01*
X-1015000Y-3529000D01*
G75*
G02*
X-815000Y-3729000I0J-200000D01*
G01*
X-815000Y-4279000D01*
G75*
G02*
X-1015000Y-4479000I-200000J0D01*
G01*
X-1415000Y-4479000D01*
G75*
G02*
X-1615000Y-4279000I0J200000D01*
G01*
G37*
G36*
G01*
X-17726000Y-9105000D02*
X-17726000Y-8555000D01*
G75*
G02*
X-17526000Y-8355000I200000J0D01*
G01*
X-17126000Y-8355000D01*
G75*
G02*
X-16926000Y-8555000I0J-200000D01*
G01*
X-16926000Y-9105000D01*
G75*
G02*
X-17126000Y-9305000I-200000J0D01*
G01*
X-17526000Y-9305000D01*
G75*
G02*
X-17726000Y-9105000I0J200000D01*
G01*
G37*
G36*
G01*
X-16076000Y-9105000D02*
X-16076000Y-8555000D01*
G75*
G02*
X-15876000Y-8355000I200000J0D01*
G01*
X-15476000Y-8355000D01*
G75*
G02*
X-15276000Y-8555000I0J-200000D01*
G01*
X-15276000Y-9105000D01*
G75*
G02*
X-15476000Y-9305000I-200000J0D01*
G01*
X-15876000Y-9305000D01*
G75*
G02*
X-16076000Y-9105000I0J200000D01*
G01*
G37*
G36*
G01*
X-4479000Y-22271000D02*
X-4479000Y-22821000D01*
G75*
G02*
X-4679000Y-23021000I-200000J0D01*
G01*
X-5079000Y-23021000D01*
G75*
G02*
X-5279000Y-22821000I0J200000D01*
G01*
X-5279000Y-22271000D01*
G75*
G02*
X-5079000Y-22071000I200000J0D01*
G01*
X-4679000Y-22071000D01*
G75*
G02*
X-4479000Y-22271000I0J-200000D01*
G01*
G37*
G36*
G01*
X-2829000Y-22271000D02*
X-2829000Y-22821000D01*
G75*
G02*
X-3029000Y-23021000I-200000J0D01*
G01*
X-3429000Y-23021000D01*
G75*
G02*
X-3629000Y-22821000I0J200000D01*
G01*
X-3629000Y-22271000D01*
G75*
G02*
X-3429000Y-22071000I200000J0D01*
G01*
X-3029000Y-22071000D01*
G75*
G02*
X-2829000Y-22271000I0J-200000D01*
G01*
G37*
G36*
G01*
X-12266000Y-9105000D02*
X-12266000Y-8555000D01*
G75*
G02*
X-12066000Y-8355000I200000J0D01*
G01*
X-11666000Y-8355000D01*
G75*
G02*
X-11466000Y-8555000I0J-200000D01*
G01*
X-11466000Y-9105000D01*
G75*
G02*
X-11666000Y-9305000I-200000J0D01*
G01*
X-12066000Y-9305000D01*
G75*
G02*
X-12266000Y-9105000I0J200000D01*
G01*
G37*
G36*
G01*
X-13916000Y-9105000D02*
X-13916000Y-8555000D01*
G75*
G02*
X-13716000Y-8355000I200000J0D01*
G01*
X-13316000Y-8355000D01*
G75*
G02*
X-13116000Y-8555000I0J-200000D01*
G01*
X-13116000Y-9105000D01*
G75*
G02*
X-13316000Y-9305000I-200000J0D01*
G01*
X-13716000Y-9305000D01*
G75*
G02*
X-13916000Y-9105000I0J200000D01*
G01*
G37*
G36*
G01*
X3735000Y-12749000D02*
X4285000Y-12749000D01*
G75*
G02*
X4485000Y-12949000I0J-200000D01*
G01*
X4485000Y-13349000D01*
G75*
G02*
X4285000Y-13549000I-200000J0D01*
G01*
X3735000Y-13549000D01*
G75*
G02*
X3535000Y-13349000I0J200000D01*
G01*
X3535000Y-12949000D01*
G75*
G02*
X3735000Y-12749000I200000J0D01*
G01*
G37*
G36*
G01*
X3735000Y-14399000D02*
X4285000Y-14399000D01*
G75*
G02*
X4485000Y-14599000I0J-200000D01*
G01*
X4485000Y-14999000D01*
G75*
G02*
X4285000Y-15199000I-200000J0D01*
G01*
X3735000Y-15199000D01*
G75*
G02*
X3535000Y-14999000I0J200000D01*
G01*
X3535000Y-14599000D01*
G75*
G02*
X3735000Y-14399000I200000J0D01*
G01*
G37*
G36*
G01*
X2211000Y-14399000D02*
X2761000Y-14399000D01*
G75*
G02*
X2961000Y-14599000I0J-200000D01*
G01*
X2961000Y-14999000D01*
G75*
G02*
X2761000Y-15199000I-200000J0D01*
G01*
X2211000Y-15199000D01*
G75*
G02*
X2011000Y-14999000I0J200000D01*
G01*
X2011000Y-14599000D01*
G75*
G02*
X2211000Y-14399000I200000J0D01*
G01*
G37*
G36*
G01*
X2211000Y-12749000D02*
X2761000Y-12749000D01*
G75*
G02*
X2961000Y-12949000I0J-200000D01*
G01*
X2961000Y-13349000D01*
G75*
G02*
X2761000Y-13549000I-200000J0D01*
G01*
X2211000Y-13549000D01*
G75*
G02*
X2011000Y-13349000I0J200000D01*
G01*
X2011000Y-12949000D01*
G75*
G02*
X2211000Y-12749000I200000J0D01*
G01*
G37*
G36*
G01*
X1237000Y-15199000D02*
X687000Y-15199000D01*
G75*
G02*
X487000Y-14999000I0J200000D01*
G01*
X487000Y-14599000D01*
G75*
G02*
X687000Y-14399000I200000J0D01*
G01*
X1237000Y-14399000D01*
G75*
G02*
X1437000Y-14599000I0J-200000D01*
G01*
X1437000Y-14999000D01*
G75*
G02*
X1237000Y-15199000I-200000J0D01*
G01*
G37*
G36*
G01*
X1237000Y-13549000D02*
X687000Y-13549000D01*
G75*
G02*
X487000Y-13349000I0J200000D01*
G01*
X487000Y-12949000D01*
G75*
G02*
X687000Y-12749000I200000J0D01*
G01*
X1237000Y-12749000D01*
G75*
G02*
X1437000Y-12949000I0J-200000D01*
G01*
X1437000Y-13349000D01*
G75*
G02*
X1237000Y-13549000I-200000J0D01*
G01*
G37*
D31*
X21282000Y-17715000D03*
X21282000Y-15815000D03*
X23482000Y-15815000D03*
X23482000Y-16765000D03*
X23482000Y-17715000D03*
X24160000Y-25213000D03*
X24160000Y-24263000D03*
X24160000Y-26163000D03*
X21960000Y-26163000D03*
X21960000Y-25213000D03*
X21960000Y-24263000D03*
D30*
X5115000Y-4192000D03*
X5115000Y-2292000D03*
X3115000Y-3242000D03*
G36*
G01*
X15861000Y-36355000D02*
X15861000Y-36005000D01*
G75*
G02*
X16036000Y-35830000I175000J0D01*
G01*
X17486000Y-35830000D01*
G75*
G02*
X17661000Y-36005000I0J-175000D01*
G01*
X17661000Y-36355000D01*
G75*
G02*
X17486000Y-36530000I-175000J0D01*
G01*
X16036000Y-36530000D01*
G75*
G02*
X15861000Y-36355000I0J175000D01*
G01*
G37*
G36*
G01*
X15861000Y-37480000D02*
X15861000Y-37080000D01*
G75*
G02*
X16061000Y-36880000I200000J0D01*
G01*
X17461000Y-36880000D01*
G75*
G02*
X17661000Y-37080000I0J-200000D01*
G01*
X17661000Y-37480000D01*
G75*
G02*
X17461000Y-37680000I-200000J0D01*
G01*
X16061000Y-37680000D01*
G75*
G02*
X15861000Y-37480000I0J200000D01*
G01*
G37*
G36*
G01*
X15861000Y-38580000D02*
X15861000Y-38180000D01*
G75*
G02*
X16061000Y-37980000I200000J0D01*
G01*
X17461000Y-37980000D01*
G75*
G02*
X17661000Y-38180000I0J-200000D01*
G01*
X17661000Y-38580000D01*
G75*
G02*
X17461000Y-38780000I-200000J0D01*
G01*
X16061000Y-38780000D01*
G75*
G02*
X15861000Y-38580000I0J200000D01*
G01*
G37*
G36*
G01*
X15861000Y-39680000D02*
X15861000Y-39280000D01*
G75*
G02*
X16061000Y-39080000I200000J0D01*
G01*
X17461000Y-39080000D01*
G75*
G02*
X17661000Y-39280000I0J-200000D01*
G01*
X17661000Y-39680000D01*
G75*
G02*
X17461000Y-39880000I-200000J0D01*
G01*
X16061000Y-39880000D01*
G75*
G02*
X15861000Y-39680000I0J200000D01*
G01*
G37*
G36*
G01*
X15861000Y-40780000D02*
X15861000Y-40380000D01*
G75*
G02*
X16061000Y-40180000I200000J0D01*
G01*
X17461000Y-40180000D01*
G75*
G02*
X17661000Y-40380000I0J-200000D01*
G01*
X17661000Y-40780000D01*
G75*
G02*
X17461000Y-40980000I-200000J0D01*
G01*
X16061000Y-40980000D01*
G75*
G02*
X15861000Y-40780000I0J200000D01*
G01*
G37*
G36*
G01*
X15861000Y-41880000D02*
X15861000Y-41480000D01*
G75*
G02*
X16061000Y-41280000I200000J0D01*
G01*
X17461000Y-41280000D01*
G75*
G02*
X17661000Y-41480000I0J-200000D01*
G01*
X17661000Y-41880000D01*
G75*
G02*
X17461000Y-42080000I-200000J0D01*
G01*
X16061000Y-42080000D01*
G75*
G02*
X15861000Y-41880000I0J200000D01*
G01*
G37*
G36*
G01*
X15861000Y-42980000D02*
X15861000Y-42580000D01*
G75*
G02*
X16061000Y-42380000I200000J0D01*
G01*
X17461000Y-42380000D01*
G75*
G02*
X17661000Y-42580000I0J-200000D01*
G01*
X17661000Y-42980000D01*
G75*
G02*
X17461000Y-43180000I-200000J0D01*
G01*
X16061000Y-43180000D01*
G75*
G02*
X15861000Y-42980000I0J200000D01*
G01*
G37*
G36*
G01*
X15861000Y-44080000D02*
X15861000Y-43680000D01*
G75*
G02*
X16061000Y-43480000I200000J0D01*
G01*
X17461000Y-43480000D01*
G75*
G02*
X17661000Y-43680000I0J-200000D01*
G01*
X17661000Y-44080000D01*
G75*
G02*
X17461000Y-44280000I-200000J0D01*
G01*
X16061000Y-44280000D01*
G75*
G02*
X15861000Y-44080000I0J200000D01*
G01*
G37*
G36*
G01*
X15861000Y-45155000D02*
X15861000Y-44805000D01*
G75*
G02*
X16036000Y-44630000I175000J0D01*
G01*
X17486000Y-44630000D01*
G75*
G02*
X17661000Y-44805000I0J-175000D01*
G01*
X17661000Y-45155000D01*
G75*
G02*
X17486000Y-45330000I-175000J0D01*
G01*
X16036000Y-45330000D01*
G75*
G02*
X15861000Y-45155000I0J175000D01*
G01*
G37*
G36*
G01*
X6361000Y-45155000D02*
X6361000Y-44805000D01*
G75*
G02*
X6536000Y-44630000I175000J0D01*
G01*
X7986000Y-44630000D01*
G75*
G02*
X8161000Y-44805000I0J-175000D01*
G01*
X8161000Y-45155000D01*
G75*
G02*
X7986000Y-45330000I-175000J0D01*
G01*
X6536000Y-45330000D01*
G75*
G02*
X6361000Y-45155000I0J175000D01*
G01*
G37*
G36*
G01*
X6361000Y-44080000D02*
X6361000Y-43680000D01*
G75*
G02*
X6561000Y-43480000I200000J0D01*
G01*
X7961000Y-43480000D01*
G75*
G02*
X8161000Y-43680000I0J-200000D01*
G01*
X8161000Y-44080000D01*
G75*
G02*
X7961000Y-44280000I-200000J0D01*
G01*
X6561000Y-44280000D01*
G75*
G02*
X6361000Y-44080000I0J200000D01*
G01*
G37*
G36*
G01*
X6361000Y-42980000D02*
X6361000Y-42580000D01*
G75*
G02*
X6561000Y-42380000I200000J0D01*
G01*
X7961000Y-42380000D01*
G75*
G02*
X8161000Y-42580000I0J-200000D01*
G01*
X8161000Y-42980000D01*
G75*
G02*
X7961000Y-43180000I-200000J0D01*
G01*
X6561000Y-43180000D01*
G75*
G02*
X6361000Y-42980000I0J200000D01*
G01*
G37*
G36*
G01*
X6361000Y-41880000D02*
X6361000Y-41480000D01*
G75*
G02*
X6561000Y-41280000I200000J0D01*
G01*
X7961000Y-41280000D01*
G75*
G02*
X8161000Y-41480000I0J-200000D01*
G01*
X8161000Y-41880000D01*
G75*
G02*
X7961000Y-42080000I-200000J0D01*
G01*
X6561000Y-42080000D01*
G75*
G02*
X6361000Y-41880000I0J200000D01*
G01*
G37*
G36*
G01*
X6361000Y-40780000D02*
X6361000Y-40380000D01*
G75*
G02*
X6561000Y-40180000I200000J0D01*
G01*
X7961000Y-40180000D01*
G75*
G02*
X8161000Y-40380000I0J-200000D01*
G01*
X8161000Y-40780000D01*
G75*
G02*
X7961000Y-40980000I-200000J0D01*
G01*
X6561000Y-40980000D01*
G75*
G02*
X6361000Y-40780000I0J200000D01*
G01*
G37*
G36*
G01*
X6361000Y-39680000D02*
X6361000Y-39280000D01*
G75*
G02*
X6561000Y-39080000I200000J0D01*
G01*
X7961000Y-39080000D01*
G75*
G02*
X8161000Y-39280000I0J-200000D01*
G01*
X8161000Y-39680000D01*
G75*
G02*
X7961000Y-39880000I-200000J0D01*
G01*
X6561000Y-39880000D01*
G75*
G02*
X6361000Y-39680000I0J200000D01*
G01*
G37*
G36*
G01*
X6361000Y-38580000D02*
X6361000Y-38180000D01*
G75*
G02*
X6561000Y-37980000I200000J0D01*
G01*
X7961000Y-37980000D01*
G75*
G02*
X8161000Y-38180000I0J-200000D01*
G01*
X8161000Y-38580000D01*
G75*
G02*
X7961000Y-38780000I-200000J0D01*
G01*
X6561000Y-38780000D01*
G75*
G02*
X6361000Y-38580000I0J200000D01*
G01*
G37*
G36*
G01*
X6361000Y-37480000D02*
X6361000Y-37080000D01*
G75*
G02*
X6561000Y-36880000I200000J0D01*
G01*
X7961000Y-36880000D01*
G75*
G02*
X8161000Y-37080000I0J-200000D01*
G01*
X8161000Y-37480000D01*
G75*
G02*
X7961000Y-37680000I-200000J0D01*
G01*
X6561000Y-37680000D01*
G75*
G02*
X6361000Y-37480000I0J200000D01*
G01*
G37*
G36*
G01*
X6361000Y-36355000D02*
X6361000Y-36005000D01*
G75*
G02*
X6536000Y-35830000I175000J0D01*
G01*
X7986000Y-35830000D01*
G75*
G02*
X8161000Y-36005000I0J-175000D01*
G01*
X8161000Y-36355000D01*
G75*
G02*
X7986000Y-36530000I-175000J0D01*
G01*
X6536000Y-36530000D01*
G75*
G02*
X6361000Y-36355000I0J175000D01*
G01*
G37*
G36*
G01*
X15060000Y-28610000D02*
X15060000Y-28460000D01*
G75*
G02*
X15135000Y-28385000I75000J0D01*
G01*
X15835000Y-28385000D01*
G75*
G02*
X15910000Y-28460000I0J-75000D01*
G01*
X15910000Y-28610000D01*
G75*
G02*
X15835000Y-28685000I-75000J0D01*
G01*
X15135000Y-28685000D01*
G75*
G02*
X15060000Y-28610000I0J75000D01*
G01*
G37*
G36*
G01*
X15060000Y-29110000D02*
X15060000Y-28960000D01*
G75*
G02*
X15135000Y-28885000I75000J0D01*
G01*
X15835000Y-28885000D01*
G75*
G02*
X15910000Y-28960000I0J-75000D01*
G01*
X15910000Y-29110000D01*
G75*
G02*
X15835000Y-29185000I-75000J0D01*
G01*
X15135000Y-29185000D01*
G75*
G02*
X15060000Y-29110000I0J75000D01*
G01*
G37*
G36*
G01*
X15060000Y-29610000D02*
X15060000Y-29460000D01*
G75*
G02*
X15135000Y-29385000I75000J0D01*
G01*
X15835000Y-29385000D01*
G75*
G02*
X15910000Y-29460000I0J-75000D01*
G01*
X15910000Y-29610000D01*
G75*
G02*
X15835000Y-29685000I-75000J0D01*
G01*
X15135000Y-29685000D01*
G75*
G02*
X15060000Y-29610000I0J75000D01*
G01*
G37*
G36*
G01*
X15060000Y-30110000D02*
X15060000Y-29960000D01*
G75*
G02*
X15135000Y-29885000I75000J0D01*
G01*
X15835000Y-29885000D01*
G75*
G02*
X15910000Y-29960000I0J-75000D01*
G01*
X15910000Y-30110000D01*
G75*
G02*
X15835000Y-30185000I-75000J0D01*
G01*
X15135000Y-30185000D01*
G75*
G02*
X15060000Y-30110000I0J75000D01*
G01*
G37*
G36*
G01*
X15060000Y-30610000D02*
X15060000Y-30460000D01*
G75*
G02*
X15135000Y-30385000I75000J0D01*
G01*
X15835000Y-30385000D01*
G75*
G02*
X15910000Y-30460000I0J-75000D01*
G01*
X15910000Y-30610000D01*
G75*
G02*
X15835000Y-30685000I-75000J0D01*
G01*
X15135000Y-30685000D01*
G75*
G02*
X15060000Y-30610000I0J75000D01*
G01*
G37*
G36*
G01*
X15060000Y-31110000D02*
X15060000Y-30960000D01*
G75*
G02*
X15135000Y-30885000I75000J0D01*
G01*
X15835000Y-30885000D01*
G75*
G02*
X15910000Y-30960000I0J-75000D01*
G01*
X15910000Y-31110000D01*
G75*
G02*
X15835000Y-31185000I-75000J0D01*
G01*
X15135000Y-31185000D01*
G75*
G02*
X15060000Y-31110000I0J75000D01*
G01*
G37*
G36*
G01*
X14710000Y-31310000D02*
X14860000Y-31310000D01*
G75*
G02*
X14935000Y-31385000I0J-75000D01*
G01*
X14935000Y-32085000D01*
G75*
G02*
X14860000Y-32160000I-75000J0D01*
G01*
X14710000Y-32160000D01*
G75*
G02*
X14635000Y-32085000I0J75000D01*
G01*
X14635000Y-31385000D01*
G75*
G02*
X14710000Y-31310000I75000J0D01*
G01*
G37*
G36*
G01*
X14210000Y-31310000D02*
X14360000Y-31310000D01*
G75*
G02*
X14435000Y-31385000I0J-75000D01*
G01*
X14435000Y-32085000D01*
G75*
G02*
X14360000Y-32160000I-75000J0D01*
G01*
X14210000Y-32160000D01*
G75*
G02*
X14135000Y-32085000I0J75000D01*
G01*
X14135000Y-31385000D01*
G75*
G02*
X14210000Y-31310000I75000J0D01*
G01*
G37*
G36*
G01*
X13710000Y-31310000D02*
X13860000Y-31310000D01*
G75*
G02*
X13935000Y-31385000I0J-75000D01*
G01*
X13935000Y-32085000D01*
G75*
G02*
X13860000Y-32160000I-75000J0D01*
G01*
X13710000Y-32160000D01*
G75*
G02*
X13635000Y-32085000I0J75000D01*
G01*
X13635000Y-31385000D01*
G75*
G02*
X13710000Y-31310000I75000J0D01*
G01*
G37*
G36*
G01*
X13210000Y-31310000D02*
X13360000Y-31310000D01*
G75*
G02*
X13435000Y-31385000I0J-75000D01*
G01*
X13435000Y-32085000D01*
G75*
G02*
X13360000Y-32160000I-75000J0D01*
G01*
X13210000Y-32160000D01*
G75*
G02*
X13135000Y-32085000I0J75000D01*
G01*
X13135000Y-31385000D01*
G75*
G02*
X13210000Y-31310000I75000J0D01*
G01*
G37*
G36*
G01*
X12710000Y-31310000D02*
X12860000Y-31310000D01*
G75*
G02*
X12935000Y-31385000I0J-75000D01*
G01*
X12935000Y-32085000D01*
G75*
G02*
X12860000Y-32160000I-75000J0D01*
G01*
X12710000Y-32160000D01*
G75*
G02*
X12635000Y-32085000I0J75000D01*
G01*
X12635000Y-31385000D01*
G75*
G02*
X12710000Y-31310000I75000J0D01*
G01*
G37*
G36*
G01*
X12210000Y-31310000D02*
X12360000Y-31310000D01*
G75*
G02*
X12435000Y-31385000I0J-75000D01*
G01*
X12435000Y-32085000D01*
G75*
G02*
X12360000Y-32160000I-75000J0D01*
G01*
X12210000Y-32160000D01*
G75*
G02*
X12135000Y-32085000I0J75000D01*
G01*
X12135000Y-31385000D01*
G75*
G02*
X12210000Y-31310000I75000J0D01*
G01*
G37*
G36*
G01*
X11160000Y-31110000D02*
X11160000Y-30960000D01*
G75*
G02*
X11235000Y-30885000I75000J0D01*
G01*
X11935000Y-30885000D01*
G75*
G02*
X12010000Y-30960000I0J-75000D01*
G01*
X12010000Y-31110000D01*
G75*
G02*
X11935000Y-31185000I-75000J0D01*
G01*
X11235000Y-31185000D01*
G75*
G02*
X11160000Y-31110000I0J75000D01*
G01*
G37*
G36*
G01*
X11160000Y-30610000D02*
X11160000Y-30460000D01*
G75*
G02*
X11235000Y-30385000I75000J0D01*
G01*
X11935000Y-30385000D01*
G75*
G02*
X12010000Y-30460000I0J-75000D01*
G01*
X12010000Y-30610000D01*
G75*
G02*
X11935000Y-30685000I-75000J0D01*
G01*
X11235000Y-30685000D01*
G75*
G02*
X11160000Y-30610000I0J75000D01*
G01*
G37*
G36*
G01*
X11160000Y-30110000D02*
X11160000Y-29960000D01*
G75*
G02*
X11235000Y-29885000I75000J0D01*
G01*
X11935000Y-29885000D01*
G75*
G02*
X12010000Y-29960000I0J-75000D01*
G01*
X12010000Y-30110000D01*
G75*
G02*
X11935000Y-30185000I-75000J0D01*
G01*
X11235000Y-30185000D01*
G75*
G02*
X11160000Y-30110000I0J75000D01*
G01*
G37*
G36*
G01*
X11160000Y-29610000D02*
X11160000Y-29460000D01*
G75*
G02*
X11235000Y-29385000I75000J0D01*
G01*
X11935000Y-29385000D01*
G75*
G02*
X12010000Y-29460000I0J-75000D01*
G01*
X12010000Y-29610000D01*
G75*
G02*
X11935000Y-29685000I-75000J0D01*
G01*
X11235000Y-29685000D01*
G75*
G02*
X11160000Y-29610000I0J75000D01*
G01*
G37*
G36*
G01*
X11160000Y-29110000D02*
X11160000Y-28960000D01*
G75*
G02*
X11235000Y-28885000I75000J0D01*
G01*
X11935000Y-28885000D01*
G75*
G02*
X12010000Y-28960000I0J-75000D01*
G01*
X12010000Y-29110000D01*
G75*
G02*
X11935000Y-29185000I-75000J0D01*
G01*
X11235000Y-29185000D01*
G75*
G02*
X11160000Y-29110000I0J75000D01*
G01*
G37*
G36*
G01*
X11160000Y-28610000D02*
X11160000Y-28460000D01*
G75*
G02*
X11235000Y-28385000I75000J0D01*
G01*
X11935000Y-28385000D01*
G75*
G02*
X12010000Y-28460000I0J-75000D01*
G01*
X12010000Y-28610000D01*
G75*
G02*
X11935000Y-28685000I-75000J0D01*
G01*
X11235000Y-28685000D01*
G75*
G02*
X11160000Y-28610000I0J75000D01*
G01*
G37*
G36*
G01*
X12210000Y-27410000D02*
X12360000Y-27410000D01*
G75*
G02*
X12435000Y-27485000I0J-75000D01*
G01*
X12435000Y-28185000D01*
G75*
G02*
X12360000Y-28260000I-75000J0D01*
G01*
X12210000Y-28260000D01*
G75*
G02*
X12135000Y-28185000I0J75000D01*
G01*
X12135000Y-27485000D01*
G75*
G02*
X12210000Y-27410000I75000J0D01*
G01*
G37*
G36*
G01*
X12710000Y-27410000D02*
X12860000Y-27410000D01*
G75*
G02*
X12935000Y-27485000I0J-75000D01*
G01*
X12935000Y-28185000D01*
G75*
G02*
X12860000Y-28260000I-75000J0D01*
G01*
X12710000Y-28260000D01*
G75*
G02*
X12635000Y-28185000I0J75000D01*
G01*
X12635000Y-27485000D01*
G75*
G02*
X12710000Y-27410000I75000J0D01*
G01*
G37*
G36*
G01*
X13210000Y-27410000D02*
X13360000Y-27410000D01*
G75*
G02*
X13435000Y-27485000I0J-75000D01*
G01*
X13435000Y-28185000D01*
G75*
G02*
X13360000Y-28260000I-75000J0D01*
G01*
X13210000Y-28260000D01*
G75*
G02*
X13135000Y-28185000I0J75000D01*
G01*
X13135000Y-27485000D01*
G75*
G02*
X13210000Y-27410000I75000J0D01*
G01*
G37*
G36*
G01*
X13710000Y-27410000D02*
X13860000Y-27410000D01*
G75*
G02*
X13935000Y-27485000I0J-75000D01*
G01*
X13935000Y-28185000D01*
G75*
G02*
X13860000Y-28260000I-75000J0D01*
G01*
X13710000Y-28260000D01*
G75*
G02*
X13635000Y-28185000I0J75000D01*
G01*
X13635000Y-27485000D01*
G75*
G02*
X13710000Y-27410000I75000J0D01*
G01*
G37*
G36*
G01*
X14210000Y-27410000D02*
X14360000Y-27410000D01*
G75*
G02*
X14435000Y-27485000I0J-75000D01*
G01*
X14435000Y-28185000D01*
G75*
G02*
X14360000Y-28260000I-75000J0D01*
G01*
X14210000Y-28260000D01*
G75*
G02*
X14135000Y-28185000I0J75000D01*
G01*
X14135000Y-27485000D01*
G75*
G02*
X14210000Y-27410000I75000J0D01*
G01*
G37*
G36*
G01*
X14710000Y-27410000D02*
X14860000Y-27410000D01*
G75*
G02*
X14935000Y-27485000I0J-75000D01*
G01*
X14935000Y-28185000D01*
G75*
G02*
X14860000Y-28260000I-75000J0D01*
G01*
X14710000Y-28260000D01*
G75*
G02*
X14635000Y-28185000I0J75000D01*
G01*
X14635000Y-27485000D01*
G75*
G02*
X14710000Y-27410000I75000J0D01*
G01*
G37*
D32*
X23187000Y-32452000D03*
G36*
G01*
X25074500Y-31077000D02*
X25949500Y-31077000D01*
G75*
G02*
X26037000Y-31164500I0J-87500D01*
G01*
X26037000Y-31339500D01*
G75*
G02*
X25949500Y-31427000I-87500J0D01*
G01*
X25074500Y-31427000D01*
G75*
G02*
X24987000Y-31339500I0J87500D01*
G01*
X24987000Y-31164500D01*
G75*
G02*
X25074500Y-31077000I87500J0D01*
G01*
G37*
G36*
G01*
X25074500Y-31877000D02*
X25949500Y-31877000D01*
G75*
G02*
X26037000Y-31964500I0J-87500D01*
G01*
X26037000Y-32139500D01*
G75*
G02*
X25949500Y-32227000I-87500J0D01*
G01*
X25074500Y-32227000D01*
G75*
G02*
X24987000Y-32139500I0J87500D01*
G01*
X24987000Y-31964500D01*
G75*
G02*
X25074500Y-31877000I87500J0D01*
G01*
G37*
G36*
G01*
X25074500Y-32677000D02*
X25949500Y-32677000D01*
G75*
G02*
X26037000Y-32764500I0J-87500D01*
G01*
X26037000Y-32939500D01*
G75*
G02*
X25949500Y-33027000I-87500J0D01*
G01*
X25074500Y-33027000D01*
G75*
G02*
X24987000Y-32939500I0J87500D01*
G01*
X24987000Y-32764500D01*
G75*
G02*
X25074500Y-32677000I87500J0D01*
G01*
G37*
G36*
G01*
X25074500Y-33477000D02*
X25949500Y-33477000D01*
G75*
G02*
X26037000Y-33564500I0J-87500D01*
G01*
X26037000Y-33739500D01*
G75*
G02*
X25949500Y-33827000I-87500J0D01*
G01*
X25074500Y-33827000D01*
G75*
G02*
X24987000Y-33739500I0J87500D01*
G01*
X24987000Y-33564500D01*
G75*
G02*
X25074500Y-33477000I87500J0D01*
G01*
G37*
G36*
G01*
X24299500Y-34252000D02*
X24474500Y-34252000D01*
G75*
G02*
X24562000Y-34339500I0J-87500D01*
G01*
X24562000Y-35214500D01*
G75*
G02*
X24474500Y-35302000I-87500J0D01*
G01*
X24299500Y-35302000D01*
G75*
G02*
X24212000Y-35214500I0J87500D01*
G01*
X24212000Y-34339500D01*
G75*
G02*
X24299500Y-34252000I87500J0D01*
G01*
G37*
G36*
G01*
X23499500Y-34252000D02*
X23674500Y-34252000D01*
G75*
G02*
X23762000Y-34339500I0J-87500D01*
G01*
X23762000Y-35214500D01*
G75*
G02*
X23674500Y-35302000I-87500J0D01*
G01*
X23499500Y-35302000D01*
G75*
G02*
X23412000Y-35214500I0J87500D01*
G01*
X23412000Y-34339500D01*
G75*
G02*
X23499500Y-34252000I87500J0D01*
G01*
G37*
G36*
G01*
X22699500Y-34252000D02*
X22874500Y-34252000D01*
G75*
G02*
X22962000Y-34339500I0J-87500D01*
G01*
X22962000Y-35214500D01*
G75*
G02*
X22874500Y-35302000I-87500J0D01*
G01*
X22699500Y-35302000D01*
G75*
G02*
X22612000Y-35214500I0J87500D01*
G01*
X22612000Y-34339500D01*
G75*
G02*
X22699500Y-34252000I87500J0D01*
G01*
G37*
G36*
G01*
X21899500Y-34252000D02*
X22074500Y-34252000D01*
G75*
G02*
X22162000Y-34339500I0J-87500D01*
G01*
X22162000Y-35214500D01*
G75*
G02*
X22074500Y-35302000I-87500J0D01*
G01*
X21899500Y-35302000D01*
G75*
G02*
X21812000Y-35214500I0J87500D01*
G01*
X21812000Y-34339500D01*
G75*
G02*
X21899500Y-34252000I87500J0D01*
G01*
G37*
G36*
G01*
X20424500Y-33477000D02*
X21299500Y-33477000D01*
G75*
G02*
X21387000Y-33564500I0J-87500D01*
G01*
X21387000Y-33739500D01*
G75*
G02*
X21299500Y-33827000I-87500J0D01*
G01*
X20424500Y-33827000D01*
G75*
G02*
X20337000Y-33739500I0J87500D01*
G01*
X20337000Y-33564500D01*
G75*
G02*
X20424500Y-33477000I87500J0D01*
G01*
G37*
G36*
G01*
X20424500Y-32677000D02*
X21299500Y-32677000D01*
G75*
G02*
X21387000Y-32764500I0J-87500D01*
G01*
X21387000Y-32939500D01*
G75*
G02*
X21299500Y-33027000I-87500J0D01*
G01*
X20424500Y-33027000D01*
G75*
G02*
X20337000Y-32939500I0J87500D01*
G01*
X20337000Y-32764500D01*
G75*
G02*
X20424500Y-32677000I87500J0D01*
G01*
G37*
G36*
G01*
X20424500Y-31877000D02*
X21299500Y-31877000D01*
G75*
G02*
X21387000Y-31964500I0J-87500D01*
G01*
X21387000Y-32139500D01*
G75*
G02*
X21299500Y-32227000I-87500J0D01*
G01*
X20424500Y-32227000D01*
G75*
G02*
X20337000Y-32139500I0J87500D01*
G01*
X20337000Y-31964500D01*
G75*
G02*
X20424500Y-31877000I87500J0D01*
G01*
G37*
G36*
G01*
X20424500Y-31077000D02*
X21299500Y-31077000D01*
G75*
G02*
X21387000Y-31164500I0J-87500D01*
G01*
X21387000Y-31339500D01*
G75*
G02*
X21299500Y-31427000I-87500J0D01*
G01*
X20424500Y-31427000D01*
G75*
G02*
X20337000Y-31339500I0J87500D01*
G01*
X20337000Y-31164500D01*
G75*
G02*
X20424500Y-31077000I87500J0D01*
G01*
G37*
G36*
G01*
X21899500Y-29602000D02*
X22074500Y-29602000D01*
G75*
G02*
X22162000Y-29689500I0J-87500D01*
G01*
X22162000Y-30564500D01*
G75*
G02*
X22074500Y-30652000I-87500J0D01*
G01*
X21899500Y-30652000D01*
G75*
G02*
X21812000Y-30564500I0J87500D01*
G01*
X21812000Y-29689500D01*
G75*
G02*
X21899500Y-29602000I87500J0D01*
G01*
G37*
G36*
G01*
X22699500Y-29602000D02*
X22874500Y-29602000D01*
G75*
G02*
X22962000Y-29689500I0J-87500D01*
G01*
X22962000Y-30564500D01*
G75*
G02*
X22874500Y-30652000I-87500J0D01*
G01*
X22699500Y-30652000D01*
G75*
G02*
X22612000Y-30564500I0J87500D01*
G01*
X22612000Y-29689500D01*
G75*
G02*
X22699500Y-29602000I87500J0D01*
G01*
G37*
G36*
G01*
X23499500Y-29602000D02*
X23674500Y-29602000D01*
G75*
G02*
X23762000Y-29689500I0J-87500D01*
G01*
X23762000Y-30564500D01*
G75*
G02*
X23674500Y-30652000I-87500J0D01*
G01*
X23499500Y-30652000D01*
G75*
G02*
X23412000Y-30564500I0J87500D01*
G01*
X23412000Y-29689500D01*
G75*
G02*
X23499500Y-29602000I87500J0D01*
G01*
G37*
G36*
G01*
X24299500Y-29602000D02*
X24474500Y-29602000D01*
G75*
G02*
X24562000Y-29689500I0J-87500D01*
G01*
X24562000Y-30564500D01*
G75*
G02*
X24474500Y-30652000I-87500J0D01*
G01*
X24299500Y-30652000D01*
G75*
G02*
X24212000Y-30564500I0J87500D01*
G01*
X24212000Y-29689500D01*
G75*
G02*
X24299500Y-29602000I87500J0D01*
G01*
G37*
M02*
