M48
; DRILL file {KiCad (5.1.10)-1} date 10/23/21 20:23:39
; FORMAT={-:-/ absolute / metric / decimal}
; #@! TF.CreationDate,2021-10-23T20:23:39-05:00
; #@! TF.GenerationSoftware,Kicad,Pcbnew,(5.1.10)-1
; #@! TF.FileFunction,Plated,1,4,PTH
FMAT,2
METRIC
T1C0.400
T2C1.000
T3C3.200
%
G90
G05
T1
X118.999Y-68.961
X119.253Y-84.328
X121.412Y-84.328
X122.682Y-84.328
X127.508Y-84.328
X127.762Y-68.199
X127.889Y-63.373
X128.524Y-94.488
X128.524Y-95.377
X128.524Y-103.759
X128.524Y-105.029
X128.905Y-84.328
X129.667Y-69.85
X131.445Y-68.199
X131.699Y-63.373
X133.096Y-74.803
X133.096Y-76.073
X133.2Y-91.5
X133.35Y-77.343
X133.35Y-78.867
X133.35Y-80.391
X134.27Y-92.36
X134.747Y-83.693
X135.255Y-75.692
X135.6Y-65.5
X136.398Y-66.929
X136.5Y-76.0
X136.6Y-92.3
X136.779Y-87.884
X137.36Y-91.513
X137.541Y-78.867
X137.944Y-66.444
X138.049Y-87.884
X138.811Y-82.931
X139.065Y-59.055
X140.335Y-86.868
X140.843Y-85.979
X141.097Y-76.962
X141.986Y-74.803
X142.24Y-85.217
X143.51Y-74.803
X143.637Y-86.36
X144.272Y-70.739
X144.665Y-81.562
X145.415Y-94.488
X145.415Y-95.377
X145.571Y-81.139
X145.669Y-70.739
X146.028Y-59.309
X146.05Y-103.759
X146.05Y-104.902
X146.591Y-80.923
X147.32Y-70.739
X148.01Y-91.766
X148.082Y-100.711
X148.336Y-97.409
X148.5Y-74.5
X148.717Y-91.059
X148.899Y-83.324
X149.213Y-80.037
X149.225Y-94.742
X149.225Y-102.616
X149.33Y-60.706
X149.33Y-62.611
X149.499Y-82.524
X149.534Y-79.09
X149.606Y-84.074
X149.99Y-91.1
X150.215Y-60.24
X150.368Y-93.218
X150.9Y-74.8
X151.003Y-76.2
X151.003Y-77.597
X151.003Y-87.757
X151.6Y-85.9
X151.892Y-92.468
X152.146Y-65.786
X153.1Y-88.0
X153.289Y-91.694
X153.4Y-84.0
X153.7Y-87.2
X154.15Y-91.62
X154.432Y-74.803
X154.432Y-76.327
X154.432Y-77.851
X155.194Y-90.932
X155.3Y-64.1
X157.7Y-64.1
X158.115Y-85.3
X158.4Y-102.4
X158.6Y-98.4
X158.6Y-99.6
X158.75Y-101.346
X158.75Y-103.378
X159.1Y-64.1
X159.131Y-84.455
X160.4Y-64.1
X160.528Y-87.63
X161.544Y-103.2
X161.6Y-98.6
X161.671Y-89.916
X162.4Y-102.8
X162.5Y-99.1
X163.1Y-100.7
X163.195Y-87.249
X163.195Y-92.202
X163.2Y-99.7
X163.2Y-102.6
X163.6Y-73.5
X163.8Y-103.3
X163.9Y-100.3
X164.1Y-83.693
X164.719Y-99.187
X164.719Y-104.013
X165.3Y-101.9
X165.608Y-99.187
X165.608Y-104.013
X166.0Y-101.3
X166.497Y-99.187
X166.497Y-104.013
X166.878Y-87.63
X167.513Y-72.263
X167.64Y-94.234
X168.275Y-101.219
X168.275Y-102.108
X169.418Y-61.341
X169.799Y-90.551
X169.799Y-92.075
X169.926Y-76.327
X170.815Y-76.327
X171.704Y-76.327
X172.085Y-83.82
T2
X132.337Y-104.775
X140.337Y-104.775
T3
X121.666Y-60.325
X121.666Y-103.378
X174.244Y-60.325
X174.244Y-103.378
T0
M30
