G04 #@! TF.GenerationSoftware,KiCad,Pcbnew,(5.1.10)-1*
G04 #@! TF.CreationDate,2021-10-27T16:42:24-05:00*
G04 #@! TF.ProjectId,Board,426f6172-642e-46b6-9963-61645f706362,rev?*
G04 #@! TF.SameCoordinates,PX88abcb0PY37c5580*
G04 #@! TF.FileFunction,Legend,Top*
G04 #@! TF.FilePolarity,Positive*
%FSLAX46Y46*%
G04 Gerber Fmt 4.6, Leading zero omitted, Abs format (unit mm)*
G04 Created by KiCad (PCBNEW (5.1.10)-1) date 2021-10-27 16:42:24*
%MOMM*%
%LPD*%
G01*
G04 APERTURE LIST*
%ADD10C,0.120000*%
%ADD11C,0.150000*%
%ADD12C,0.153000*%
%ADD13C,0.153300*%
%ADD14C,0.200000*%
%ADD15R,0.750000X2.400000*%
%ADD16R,2.400000X0.750000*%
%ADD17R,0.700000X1.600000*%
%ADD18R,1.200000X1.500000*%
%ADD19R,1.200000X2.200000*%
%ADD20R,1.600000X1.500000*%
%ADD21C,1.000000*%
%ADD22R,2.440000X1.120000*%
%ADD23R,0.740000X2.400000*%
%ADD24C,5.500000*%
%ADD25R,0.600000X0.450000*%
%ADD26R,0.500000X0.400000*%
%ADD27R,1.200000X1.400000*%
%ADD28R,1.900000X1.000000*%
%ADD29R,1.900000X1.800000*%
%ADD30R,1.300000X1.650000*%
%ADD31R,1.550000X1.425000*%
%ADD32R,1.380000X0.450000*%
%ADD33R,1.000000X1.000000*%
%ADD34R,2.200000X1.050000*%
%ADD35R,0.900000X0.800000*%
%ADD36R,1.060000X0.650000*%
%ADD37R,2.700000X2.700000*%
G04 APERTURE END LIST*
D10*
X29350000Y-15950000D02*
G75*
G03*
X29350000Y-15950000I-50000J0D01*
G01*
X28900000Y-27950000D02*
G75*
G03*
X28900000Y-27950000I-50000J0D01*
G01*
X-9450000Y-19750000D02*
G75*
G03*
X-9450000Y-19750000I-50000J0D01*
G01*
X24460000Y-29190000D02*
G75*
G03*
X24460000Y-29190000I-50000J0D01*
G01*
X21200000Y-23650000D02*
G75*
G03*
X21200000Y-23650000I-50000J0D01*
G01*
X19970000Y-43110000D02*
G75*
G03*
X19970000Y-43110000I-50000J0D01*
G01*
D11*
X-23022024Y-30099761D02*
X-22879167Y-30147380D01*
X-22641072Y-30147380D01*
X-22545834Y-30099761D01*
X-22498215Y-30052142D01*
X-22450596Y-29956904D01*
X-22450596Y-29861666D01*
X-22498215Y-29766428D01*
X-22545834Y-29718809D01*
X-22641072Y-29671190D01*
X-22831548Y-29623571D01*
X-22926786Y-29575952D01*
X-22974405Y-29528333D01*
X-23022024Y-29433095D01*
X-23022024Y-29337857D01*
X-22974405Y-29242619D01*
X-22926786Y-29195000D01*
X-22831548Y-29147380D01*
X-22593453Y-29147380D01*
X-22450596Y-29195000D01*
X-22164881Y-29147380D02*
X-21593453Y-29147380D01*
X-21879167Y-30147380D02*
X-21879167Y-29147380D01*
X-21307739Y-29861666D02*
X-20831548Y-29861666D01*
X-21402977Y-30147380D02*
X-21069643Y-29147380D01*
X-20736310Y-30147380D01*
X-20545834Y-29147380D02*
X-19974405Y-29147380D01*
X-20260120Y-30147380D02*
X-20260120Y-29147380D01*
X-19641072Y-29623571D02*
X-19307739Y-29623571D01*
X-19164881Y-30147380D02*
X-19641072Y-30147380D01*
X-19641072Y-29147380D01*
X-19164881Y-29147380D01*
X-17974405Y-29623571D02*
X-17641072Y-29623571D01*
X-17498215Y-30147380D02*
X-17974405Y-30147380D01*
X-17974405Y-29147380D01*
X-17498215Y-29147380D01*
X-17117262Y-30099761D02*
X-16974405Y-30147380D01*
X-16736310Y-30147380D01*
X-16641072Y-30099761D01*
X-16593453Y-30052142D01*
X-16545834Y-29956904D01*
X-16545834Y-29861666D01*
X-16593453Y-29766428D01*
X-16641072Y-29718809D01*
X-16736310Y-29671190D01*
X-16926786Y-29623571D01*
X-17022024Y-29575952D01*
X-17069643Y-29528333D01*
X-17117262Y-29433095D01*
X-17117262Y-29337857D01*
X-17069643Y-29242619D01*
X-17022024Y-29195000D01*
X-16926786Y-29147380D01*
X-16688691Y-29147380D01*
X-16545834Y-29195000D01*
X-16260120Y-29147380D02*
X-15688691Y-29147380D01*
X-15974405Y-30147380D02*
X-15974405Y-29147380D01*
X-15355358Y-30147380D02*
X-15355358Y-29147380D01*
X-14879167Y-30147380D02*
X-14879167Y-29147380D01*
X-14545834Y-29861666D01*
X-14212500Y-29147380D01*
X-14212500Y-30147380D01*
X-13783929Y-29861666D02*
X-13307739Y-29861666D01*
X-13879167Y-30147380D02*
X-13545834Y-29147380D01*
X-13212500Y-30147380D01*
X-13022024Y-29147380D02*
X-12450596Y-29147380D01*
X-12736310Y-30147380D02*
X-12736310Y-29147380D01*
X-11926786Y-29147380D02*
X-11736310Y-29147380D01*
X-11641072Y-29195000D01*
X-11545834Y-29290238D01*
X-11498215Y-29480714D01*
X-11498215Y-29814047D01*
X-11545834Y-30004523D01*
X-11641072Y-30099761D01*
X-11736310Y-30147380D01*
X-11926786Y-30147380D01*
X-12022024Y-30099761D01*
X-12117262Y-30004523D01*
X-12164881Y-29814047D01*
X-12164881Y-29480714D01*
X-12117262Y-29290238D01*
X-12022024Y-29195000D01*
X-11926786Y-29147380D01*
X-10498215Y-30147380D02*
X-10831548Y-29671190D01*
X-11069643Y-30147380D02*
X-11069643Y-29147380D01*
X-10688691Y-29147380D01*
X-10593453Y-29195000D01*
X-10545834Y-29242619D01*
X-10498215Y-29337857D01*
X-10498215Y-29480714D01*
X-10545834Y-29575952D01*
X-10593453Y-29623571D01*
X-10688691Y-29671190D01*
X-11069643Y-29671190D01*
X-23117262Y-30797380D02*
X-22783929Y-31797380D01*
X-22450596Y-30797380D01*
X-21926786Y-30797380D02*
X-21831548Y-30797380D01*
X-21736310Y-30845000D01*
X-21688691Y-30892619D01*
X-21641072Y-30987857D01*
X-21593453Y-31178333D01*
X-21593453Y-31416428D01*
X-21641072Y-31606904D01*
X-21688691Y-31702142D01*
X-21736310Y-31749761D01*
X-21831548Y-31797380D01*
X-21926786Y-31797380D01*
X-22022024Y-31749761D01*
X-22069643Y-31702142D01*
X-22117262Y-31606904D01*
X-22164881Y-31416428D01*
X-22164881Y-31178333D01*
X-22117262Y-30987857D01*
X-22069643Y-30892619D01*
X-22022024Y-30845000D01*
X-21926786Y-30797380D01*
X-21164881Y-31702142D02*
X-21117262Y-31749761D01*
X-21164881Y-31797380D01*
X-21212500Y-31749761D01*
X-21164881Y-31702142D01*
X-21164881Y-31797380D01*
X-20164881Y-31797380D02*
X-20736310Y-31797380D01*
X-20450596Y-31797380D02*
X-20450596Y-30797380D01*
X-20545834Y-30940238D01*
X-20641072Y-31035476D01*
X-20736310Y-31083095D01*
D12*
X24145238Y-20807142D02*
X24754761Y-20807142D01*
X24450000Y-21111904D02*
X24450000Y-20502380D01*
X29045238Y-8007142D02*
X29654761Y-8007142D01*
X29350000Y-8311904D02*
X29350000Y-7702380D01*
X-11454762Y-6007142D02*
X-10845239Y-6007142D01*
X-11150000Y-6311904D02*
X-11150000Y-5702380D01*
X-15204762Y-6207142D02*
X-14595239Y-6207142D01*
X-14900000Y-6511904D02*
X-14900000Y-5902380D01*
X-15004762Y-1357142D02*
X-14395239Y-1357142D01*
X-14700000Y-1661904D02*
X-14700000Y-1052380D01*
X-11254762Y-1407142D02*
X-10645239Y-1407142D01*
X-10950000Y-1711904D02*
X-10950000Y-1102380D01*
X18069523Y-5611904D02*
X18564761Y-5611904D01*
X18298095Y-5916666D01*
X18412380Y-5916666D01*
X18488571Y-5954761D01*
X18526666Y-5992857D01*
X18564761Y-6069047D01*
X18564761Y-6259523D01*
X18526666Y-6335714D01*
X18488571Y-6373809D01*
X18412380Y-6411904D01*
X18183809Y-6411904D01*
X18107619Y-6373809D01*
X18069523Y-6335714D01*
X18793333Y-5611904D02*
X19060000Y-6411904D01*
X19326666Y-5611904D01*
X19517142Y-5611904D02*
X20012380Y-5611904D01*
X19745714Y-5916666D01*
X19860000Y-5916666D01*
X19936190Y-5954761D01*
X19974285Y-5992857D01*
X20012380Y-6069047D01*
X20012380Y-6259523D01*
X19974285Y-6335714D01*
X19936190Y-6373809D01*
X19860000Y-6411904D01*
X19631428Y-6411904D01*
X19555238Y-6373809D01*
X19517142Y-6335714D01*
X11490000Y-4529523D02*
X11451904Y-4605714D01*
X11451904Y-4720000D01*
X11490000Y-4834285D01*
X11566190Y-4910476D01*
X11642380Y-4948571D01*
X11794761Y-4986666D01*
X11909047Y-4986666D01*
X12061428Y-4948571D01*
X12137619Y-4910476D01*
X12213809Y-4834285D01*
X12251904Y-4720000D01*
X12251904Y-4643809D01*
X12213809Y-4529523D01*
X12175714Y-4491428D01*
X11909047Y-4491428D01*
X11909047Y-4643809D01*
X12251904Y-4148571D02*
X11451904Y-4148571D01*
X12251904Y-3691428D01*
X11451904Y-3691428D01*
X12251904Y-3310476D02*
X11451904Y-3310476D01*
X11451904Y-3120000D01*
X11490000Y-3005714D01*
X11566190Y-2929523D01*
X11642380Y-2891428D01*
X11794761Y-2853333D01*
X11909047Y-2853333D01*
X12061428Y-2891428D01*
X12137619Y-2929523D01*
X12213809Y-3005714D01*
X12251904Y-3120000D01*
X12251904Y-3310476D01*
X17483809Y-16475238D02*
X17521904Y-16360952D01*
X17521904Y-16170476D01*
X17483809Y-16094285D01*
X17445714Y-16056190D01*
X17369523Y-16018095D01*
X17293333Y-16018095D01*
X17217142Y-16056190D01*
X17179047Y-16094285D01*
X17140952Y-16170476D01*
X17102857Y-16322857D01*
X17064761Y-16399047D01*
X17026666Y-16437142D01*
X16950476Y-16475238D01*
X16874285Y-16475238D01*
X16798095Y-16437142D01*
X16760000Y-16399047D01*
X16721904Y-16322857D01*
X16721904Y-16132380D01*
X16760000Y-16018095D01*
X16721904Y-15751428D02*
X17521904Y-15560952D01*
X16950476Y-15408571D01*
X17521904Y-15256190D01*
X16721904Y-15065714D01*
X17521904Y-14760952D02*
X16721904Y-14760952D01*
X16721904Y-14570476D01*
X16760000Y-14456190D01*
X16836190Y-14380000D01*
X16912380Y-14341904D01*
X17064761Y-14303809D01*
X17179047Y-14303809D01*
X17331428Y-14341904D01*
X17407619Y-14380000D01*
X17483809Y-14456190D01*
X17521904Y-14570476D01*
X17521904Y-14760952D01*
X17521904Y-13960952D02*
X16721904Y-13960952D01*
X16721904Y-13427619D02*
X16721904Y-13275238D01*
X16760000Y-13199047D01*
X16836190Y-13122857D01*
X16988571Y-13084761D01*
X17255238Y-13084761D01*
X17407619Y-13122857D01*
X17483809Y-13199047D01*
X17521904Y-13275238D01*
X17521904Y-13427619D01*
X17483809Y-13503809D01*
X17407619Y-13580000D01*
X17255238Y-13618095D01*
X16988571Y-13618095D01*
X16836190Y-13580000D01*
X16760000Y-13503809D01*
X16721904Y-13427619D01*
X16133809Y-16809523D02*
X16171904Y-16695238D01*
X16171904Y-16504761D01*
X16133809Y-16428571D01*
X16095714Y-16390476D01*
X16019523Y-16352380D01*
X15943333Y-16352380D01*
X15867142Y-16390476D01*
X15829047Y-16428571D01*
X15790952Y-16504761D01*
X15752857Y-16657142D01*
X15714761Y-16733333D01*
X15676666Y-16771428D01*
X15600476Y-16809523D01*
X15524285Y-16809523D01*
X15448095Y-16771428D01*
X15410000Y-16733333D01*
X15371904Y-16657142D01*
X15371904Y-16466666D01*
X15410000Y-16352380D01*
X15371904Y-16085714D02*
X16171904Y-15895238D01*
X15600476Y-15742857D01*
X16171904Y-15590476D01*
X15371904Y-15400000D01*
X16095714Y-14638095D02*
X16133809Y-14676190D01*
X16171904Y-14790476D01*
X16171904Y-14866666D01*
X16133809Y-14980952D01*
X16057619Y-15057142D01*
X15981428Y-15095238D01*
X15829047Y-15133333D01*
X15714761Y-15133333D01*
X15562380Y-15095238D01*
X15486190Y-15057142D01*
X15410000Y-14980952D01*
X15371904Y-14866666D01*
X15371904Y-14790476D01*
X15410000Y-14676190D01*
X15448095Y-14638095D01*
X16171904Y-13914285D02*
X16171904Y-14295238D01*
X15371904Y-14295238D01*
X16171904Y-13647619D02*
X15371904Y-13647619D01*
X16171904Y-13190476D02*
X15714761Y-13533333D01*
X15371904Y-13190476D02*
X15829047Y-13647619D01*
X14833809Y-15374761D02*
X14871904Y-15260476D01*
X14871904Y-15070000D01*
X14833809Y-14993809D01*
X14795714Y-14955714D01*
X14719523Y-14917619D01*
X14643333Y-14917619D01*
X14567142Y-14955714D01*
X14529047Y-14993809D01*
X14490952Y-15070000D01*
X14452857Y-15222380D01*
X14414761Y-15298571D01*
X14376666Y-15336666D01*
X14300476Y-15374761D01*
X14224285Y-15374761D01*
X14148095Y-15336666D01*
X14110000Y-15298571D01*
X14071904Y-15222380D01*
X14071904Y-15031904D01*
X14110000Y-14917619D01*
X14071904Y-14650952D02*
X14871904Y-14460476D01*
X14300476Y-14308095D01*
X14871904Y-14155714D01*
X14071904Y-13965238D01*
X14071904Y-13508095D02*
X14071904Y-13355714D01*
X14110000Y-13279523D01*
X14186190Y-13203333D01*
X14338571Y-13165238D01*
X14605238Y-13165238D01*
X14757619Y-13203333D01*
X14833809Y-13279523D01*
X14871904Y-13355714D01*
X14871904Y-13508095D01*
X14833809Y-13584285D01*
X14757619Y-13660476D01*
X14605238Y-13698571D01*
X14338571Y-13698571D01*
X14186190Y-13660476D01*
X14110000Y-13584285D01*
X14071904Y-13508095D01*
X12461904Y-15734285D02*
X11661904Y-15734285D01*
X12461904Y-15277142D01*
X11661904Y-15277142D01*
X12461904Y-14439047D02*
X12080952Y-14705714D01*
X12461904Y-14896190D02*
X11661904Y-14896190D01*
X11661904Y-14591428D01*
X11700000Y-14515238D01*
X11738095Y-14477142D01*
X11814285Y-14439047D01*
X11928571Y-14439047D01*
X12004761Y-14477142D01*
X12042857Y-14515238D01*
X12080952Y-14591428D01*
X12080952Y-14896190D01*
X12423809Y-14134285D02*
X12461904Y-14020000D01*
X12461904Y-13829523D01*
X12423809Y-13753333D01*
X12385714Y-13715238D01*
X12309523Y-13677142D01*
X12233333Y-13677142D01*
X12157142Y-13715238D01*
X12119047Y-13753333D01*
X12080952Y-13829523D01*
X12042857Y-13981904D01*
X12004761Y-14058095D01*
X11966666Y-14096190D01*
X11890476Y-14134285D01*
X11814285Y-14134285D01*
X11738095Y-14096190D01*
X11700000Y-14058095D01*
X11661904Y-13981904D01*
X11661904Y-13791428D01*
X11700000Y-13677142D01*
X11661904Y-13448571D02*
X11661904Y-12991428D01*
X12461904Y-13220000D02*
X11661904Y-13220000D01*
X10394761Y-10827142D02*
X10442380Y-10684285D01*
X10442380Y-10446190D01*
X10394761Y-10350952D01*
X10347142Y-10303333D01*
X10251904Y-10255714D01*
X10156666Y-10255714D01*
X10061428Y-10303333D01*
X10013809Y-10350952D01*
X9966190Y-10446190D01*
X9918571Y-10636666D01*
X9870952Y-10731904D01*
X9823333Y-10779523D01*
X9728095Y-10827142D01*
X9632857Y-10827142D01*
X9537619Y-10779523D01*
X9490000Y-10731904D01*
X9442380Y-10636666D01*
X9442380Y-10398571D01*
X9490000Y-10255714D01*
X9442380Y-9922380D02*
X10442380Y-9684285D01*
X9728095Y-9493809D01*
X10442380Y-9303333D01*
X9442380Y-9065238D01*
X10442380Y-8684285D02*
X9442380Y-8684285D01*
X9442380Y-8446190D01*
X9490000Y-8303333D01*
X9585238Y-8208095D01*
X9680476Y-8160476D01*
X9870952Y-8112857D01*
X10013809Y-8112857D01*
X10204285Y-8160476D01*
X10299523Y-8208095D01*
X10394761Y-8303333D01*
X10442380Y-8446190D01*
X10442380Y-8684285D01*
X22426666Y-292380D02*
X22426666Y707620D01*
X22807619Y707620D01*
X22902857Y660000D01*
X22950476Y612381D01*
X22998095Y517143D01*
X22998095Y374286D01*
X22950476Y279048D01*
X22902857Y231429D01*
X22807619Y183810D01*
X22426666Y183810D01*
X23331428Y707620D02*
X23569523Y-292380D01*
X23760000Y421905D01*
X23950476Y-292380D01*
X24188571Y707620D01*
X25140952Y-292380D02*
X24807619Y183810D01*
X24569523Y-292380D02*
X24569523Y707620D01*
X24950476Y707620D01*
X25045714Y660000D01*
X25093333Y612381D01*
X25140952Y517143D01*
X25140952Y374286D01*
X25093333Y279048D01*
X25045714Y231429D01*
X24950476Y183810D01*
X24569523Y183810D01*
D13*
X-23135715Y-9928571D02*
X-22992858Y-9976190D01*
X-22945239Y-10023809D01*
X-22897620Y-10119047D01*
X-22897620Y-10261904D01*
X-22945239Y-10357142D01*
X-22992858Y-10404761D01*
X-23088096Y-10452380D01*
X-23469048Y-10452380D01*
X-23469048Y-9452380D01*
X-23135715Y-9452380D01*
X-23040477Y-9500000D01*
X-22992858Y-9547619D01*
X-22945239Y-9642857D01*
X-22945239Y-9738095D01*
X-22992858Y-9833333D01*
X-23040477Y-9880952D01*
X-23135715Y-9928571D01*
X-23469048Y-9928571D01*
X-21992858Y-10452380D02*
X-22469048Y-10452380D01*
X-22469048Y-9452380D01*
X-21659524Y-9928571D02*
X-21326191Y-9928571D01*
X-21183334Y-10452380D02*
X-21659524Y-10452380D01*
X-21659524Y-9452380D01*
X-21183334Y-9452380D01*
D12*
X27919047Y-28711428D02*
X28680952Y-28711428D01*
X28300000Y-29092380D02*
X28300000Y-28330476D01*
X29249047Y-18201428D02*
X30010952Y-18201428D01*
X29301904Y-14315714D02*
X29301904Y-14982380D01*
X29063809Y-13934761D02*
X28825714Y-14649047D01*
X29444761Y-14649047D01*
X29682857Y-13982380D02*
X30016190Y-14982380D01*
X30349523Y-13982380D01*
X30900952Y-12548571D02*
X31043809Y-12596190D01*
X31091428Y-12643809D01*
X31139047Y-12739047D01*
X31139047Y-12881904D01*
X31091428Y-12977142D01*
X31043809Y-13024761D01*
X30948571Y-13072380D01*
X30567619Y-13072380D01*
X30567619Y-12072380D01*
X30900952Y-12072380D01*
X30996190Y-12120000D01*
X31043809Y-12167619D01*
X31091428Y-12262857D01*
X31091428Y-12358095D01*
X31043809Y-12453333D01*
X30996190Y-12500952D01*
X30900952Y-12548571D01*
X30567619Y-12548571D01*
X31520000Y-12786666D02*
X31996190Y-12786666D01*
X31424761Y-13072380D02*
X31758095Y-12072380D01*
X32091428Y-13072380D01*
X32281904Y-12072380D02*
X32853333Y-12072380D01*
X32567619Y-13072380D02*
X32567619Y-12072380D01*
X33043809Y-12072380D02*
X33615238Y-12072380D01*
X33329523Y-13072380D02*
X33329523Y-12072380D01*
X30308095Y-31732380D02*
X30308095Y-32541904D01*
X30355714Y-32637142D01*
X30403333Y-32684761D01*
X30498571Y-32732380D01*
X30689047Y-32732380D01*
X30784285Y-32684761D01*
X30831904Y-32637142D01*
X30879523Y-32541904D01*
X30879523Y-31732380D01*
X31308095Y-32684761D02*
X31450952Y-32732380D01*
X31689047Y-32732380D01*
X31784285Y-32684761D01*
X31831904Y-32637142D01*
X31879523Y-32541904D01*
X31879523Y-32446666D01*
X31831904Y-32351428D01*
X31784285Y-32303809D01*
X31689047Y-32256190D01*
X31498571Y-32208571D01*
X31403333Y-32160952D01*
X31355714Y-32113333D01*
X31308095Y-32018095D01*
X31308095Y-31922857D01*
X31355714Y-31827619D01*
X31403333Y-31780000D01*
X31498571Y-31732380D01*
X31736666Y-31732380D01*
X31879523Y-31780000D01*
X32641428Y-32208571D02*
X32784285Y-32256190D01*
X32831904Y-32303809D01*
X32879523Y-32399047D01*
X32879523Y-32541904D01*
X32831904Y-32637142D01*
X32784285Y-32684761D01*
X32689047Y-32732380D01*
X32308095Y-32732380D01*
X32308095Y-31732380D01*
X32641428Y-31732380D01*
X32736666Y-31780000D01*
X32784285Y-31827619D01*
X32831904Y-31922857D01*
X32831904Y-32018095D01*
X32784285Y-32113333D01*
X32736666Y-32160952D01*
X32641428Y-32208571D01*
X32308095Y-32208571D01*
X11135714Y-46400000D02*
X11040476Y-46352380D01*
X10897619Y-46352380D01*
X10754761Y-46400000D01*
X10659523Y-46495238D01*
X10611904Y-46590476D01*
X10564285Y-46780952D01*
X10564285Y-46923809D01*
X10611904Y-47114285D01*
X10659523Y-47209523D01*
X10754761Y-47304761D01*
X10897619Y-47352380D01*
X10992857Y-47352380D01*
X11135714Y-47304761D01*
X11183333Y-47257142D01*
X11183333Y-46923809D01*
X10992857Y-46923809D01*
X11611904Y-47352380D02*
X11611904Y-46352380D01*
X11992857Y-46352380D01*
X12088095Y-46400000D01*
X12135714Y-46447619D01*
X12183333Y-46542857D01*
X12183333Y-46685714D01*
X12135714Y-46780952D01*
X12088095Y-46828571D01*
X11992857Y-46876190D01*
X11611904Y-46876190D01*
X12564285Y-47304761D02*
X12707142Y-47352380D01*
X12945238Y-47352380D01*
X13040476Y-47304761D01*
X13088095Y-47257142D01*
X13135714Y-47161904D01*
X13135714Y-47066666D01*
X13088095Y-46971428D01*
X13040476Y-46923809D01*
X12945238Y-46876190D01*
X12754761Y-46828571D01*
X12659523Y-46780952D01*
X12611904Y-46733333D01*
X12564285Y-46638095D01*
X12564285Y-46542857D01*
X12611904Y-46447619D01*
X12659523Y-46400000D01*
X12754761Y-46352380D01*
X12992857Y-46352380D01*
X13135714Y-46400000D01*
X-23929048Y-17402380D02*
X-23929048Y-18116666D01*
X-23976667Y-18259523D01*
X-24071905Y-18354761D01*
X-24214762Y-18402380D01*
X-24310000Y-18402380D01*
X-22976667Y-18402380D02*
X-23452858Y-18402380D01*
X-23452858Y-17402380D01*
X-22071905Y-18307142D02*
X-22119524Y-18354761D01*
X-22262381Y-18402380D01*
X-22357620Y-18402380D01*
X-22500477Y-18354761D01*
X-22595715Y-18259523D01*
X-22643334Y-18164285D01*
X-22690953Y-17973809D01*
X-22690953Y-17830952D01*
X-22643334Y-17640476D01*
X-22595715Y-17545238D01*
X-22500477Y-17450000D01*
X-22357620Y-17402380D01*
X-22262381Y-17402380D01*
X-22119524Y-17450000D01*
X-22071905Y-17497619D01*
X-21357620Y-17402380D02*
X-21357620Y-18116666D01*
X-21405239Y-18259523D01*
X-21500477Y-18354761D01*
X-21643334Y-18402380D01*
X-21738572Y-18402380D01*
X-20405239Y-18402380D02*
X-20881429Y-18402380D01*
X-20881429Y-17402380D01*
X-19500477Y-18307142D02*
X-19548096Y-18354761D01*
X-19690953Y-18402380D01*
X-19786191Y-18402380D01*
X-19929048Y-18354761D01*
X-20024286Y-18259523D01*
X-20071905Y-18164285D01*
X-20119524Y-17973809D01*
X-20119524Y-17830952D01*
X-20071905Y-17640476D01*
X-20024286Y-17545238D01*
X-19929048Y-17450000D01*
X-19786191Y-17402380D01*
X-19690953Y-17402380D01*
X-19548096Y-17450000D01*
X-19500477Y-17497619D01*
X-18786191Y-17402380D02*
X-18786191Y-18116666D01*
X-18833810Y-18259523D01*
X-18929048Y-18354761D01*
X-19071905Y-18402380D01*
X-19167143Y-18402380D01*
X-17833810Y-18402380D02*
X-18310000Y-18402380D01*
X-18310000Y-17402380D01*
X-16929048Y-18307142D02*
X-16976667Y-18354761D01*
X-17119524Y-18402380D01*
X-17214762Y-18402380D01*
X-17357620Y-18354761D01*
X-17452858Y-18259523D01*
X-17500477Y-18164285D01*
X-17548096Y-17973809D01*
X-17548096Y-17830952D01*
X-17500477Y-17640476D01*
X-17452858Y-17545238D01*
X-17357620Y-17450000D01*
X-17214762Y-17402380D01*
X-17119524Y-17402380D01*
X-16976667Y-17450000D01*
X-16929048Y-17497619D01*
X-16214762Y-17402380D02*
X-16214762Y-18116666D01*
X-16262381Y-18259523D01*
X-16357620Y-18354761D01*
X-16500477Y-18402380D01*
X-16595715Y-18402380D01*
X-15262381Y-18402380D02*
X-15738572Y-18402380D01*
X-15738572Y-17402380D01*
X-14357620Y-18307142D02*
X-14405239Y-18354761D01*
X-14548096Y-18402380D01*
X-14643334Y-18402380D01*
X-14786191Y-18354761D01*
X-14881429Y-18259523D01*
X-14929048Y-18164285D01*
X-14976667Y-17973809D01*
X-14976667Y-17830952D01*
X-14929048Y-17640476D01*
X-14881429Y-17545238D01*
X-14786191Y-17450000D01*
X-14643334Y-17402380D01*
X-14548096Y-17402380D01*
X-14405239Y-17450000D01*
X-14357620Y-17497619D01*
X-16085239Y-41435238D02*
X-16037620Y-41292380D01*
X-16037620Y-41054285D01*
X-16085239Y-40959047D01*
X-16132858Y-40911428D01*
X-16228096Y-40863809D01*
X-16323334Y-40863809D01*
X-16418572Y-40911428D01*
X-16466191Y-40959047D01*
X-16513810Y-41054285D01*
X-16561429Y-41244761D01*
X-16609048Y-41340000D01*
X-16656667Y-41387619D01*
X-16751905Y-41435238D01*
X-16847143Y-41435238D01*
X-16942381Y-41387619D01*
X-16990000Y-41340000D01*
X-17037620Y-41244761D01*
X-17037620Y-41006666D01*
X-16990000Y-40863809D01*
X-16037620Y-40435238D02*
X-17037620Y-40435238D01*
X-17037620Y-40197142D01*
X-16990000Y-40054285D01*
X-16894762Y-39959047D01*
X-16799524Y-39911428D01*
X-16609048Y-39863809D01*
X-16466191Y-39863809D01*
X-16275715Y-39911428D01*
X-16180477Y-39959047D01*
X-16085239Y-40054285D01*
X-16037620Y-40197142D01*
X-16037620Y-40435238D01*
X-16132858Y-38101904D02*
X-16085239Y-38149523D01*
X-16037620Y-38292380D01*
X-16037620Y-38387619D01*
X-16085239Y-38530476D01*
X-16180477Y-38625714D01*
X-16275715Y-38673333D01*
X-16466191Y-38720952D01*
X-16609048Y-38720952D01*
X-16799524Y-38673333D01*
X-16894762Y-38625714D01*
X-16990000Y-38530476D01*
X-17037620Y-38387619D01*
X-17037620Y-38292380D01*
X-16990000Y-38149523D01*
X-16942381Y-38101904D01*
X-16323334Y-37720952D02*
X-16323334Y-37244761D01*
X-16037620Y-37816190D02*
X-17037620Y-37482857D01*
X-16037620Y-37149523D01*
X-16037620Y-36244761D02*
X-16513810Y-36578095D01*
X-16037620Y-36816190D02*
X-17037620Y-36816190D01*
X-17037620Y-36435238D01*
X-16990000Y-36340000D01*
X-16942381Y-36292380D01*
X-16847143Y-36244761D01*
X-16704286Y-36244761D01*
X-16609048Y-36292380D01*
X-16561429Y-36340000D01*
X-16513810Y-36435238D01*
X-16513810Y-36816190D01*
X-16037620Y-35816190D02*
X-17037620Y-35816190D01*
X-17037620Y-35578095D01*
X-16990000Y-35435238D01*
X-16894762Y-35340000D01*
X-16799524Y-35292380D01*
X-16609048Y-35244761D01*
X-16466191Y-35244761D01*
X-16275715Y-35292380D01*
X-16180477Y-35340000D01*
X-16085239Y-35435238D01*
X-16037620Y-35578095D01*
X-16037620Y-35816190D01*
D10*
X23900990Y-5250000D02*
G75*
G03*
X23900990Y-5250000I-50990J0D01*
G01*
X6030000Y-4760000D02*
G75*
G03*
X6030000Y-4760000I-50000J0D01*
G01*
X-4810000Y-850000D02*
G75*
G03*
X-4810000Y-850000I-50000J0D01*
G01*
X-1150000Y-20520000D02*
G75*
G03*
X-1150000Y-20520000I-50000J0D01*
G01*
X20020000Y-43110000D02*
G75*
G03*
X20020000Y-43110000I-50000J0D01*
G01*
X24460000Y-29240000D02*
G75*
G03*
X24460000Y-29240000I-50000J0D01*
G01*
X15290000Y-27270000D02*
G75*
G03*
X15290000Y-27270000I-50000J0D01*
G01*
X24486569Y-17950000D02*
G75*
G03*
X24486569Y-17950000I-56569J0D01*
G01*
X17100990Y-6150000D02*
G75*
G03*
X17100990Y-6150000I-50990J0D01*
G01*
X-24216148Y-26550000D02*
G75*
G03*
X-24216148Y-26550000I-53852J0D01*
G01*
X-3551690Y-33890000D02*
G75*
G03*
X-3551690Y-33890000I-58310J0D01*
G01*
X5890000Y-35510000D02*
G75*
G03*
X5890000Y-35510000I-50000J0D01*
G01*
X-15500000Y-34050000D02*
X3400000Y-34050000D01*
X3400000Y-34050000D02*
X3400000Y-48550000D01*
X3400000Y-48550000D02*
X-15500000Y-48550000D01*
X-15500000Y-48550000D02*
X-15500000Y-34050000D01*
X18193333Y-2155000D02*
X18193333Y-885000D01*
X19400000Y-955000D02*
X18193333Y-955000D01*
X19400000Y-1075000D02*
X18193333Y-1075000D01*
X19400000Y-1195000D02*
X18193333Y-1195000D01*
X19400000Y-1315000D02*
X18193333Y-1315000D01*
X19400000Y-1435000D02*
X18193333Y-1435000D01*
X19400000Y-1555000D02*
X18193333Y-1555000D01*
X19400000Y-1675000D02*
X18193333Y-1675000D01*
X19400000Y-1795000D02*
X18193333Y-1795000D01*
X19400000Y-1915000D02*
X18193333Y-1915000D01*
X19400000Y-2035000D02*
X18193333Y-2035000D01*
X15780000Y-2155000D02*
X19400000Y-2155000D01*
X15780000Y-885000D02*
X15780000Y-2155000D01*
X19400000Y-885000D02*
X15780000Y-885000D01*
X19400000Y-2155000D02*
X19400000Y-885000D01*
X21240000Y-3870000D02*
X21240000Y-2487000D01*
X21240000Y-3870000D02*
X19857000Y-3870000D01*
X14180000Y-720000D02*
X14180000Y590000D01*
X14180000Y-3630000D02*
X14180000Y-2320000D01*
X21000000Y-720000D02*
X21000000Y590000D01*
X21000000Y-3630000D02*
X21000000Y-2320000D01*
X21000000Y590000D02*
X14180000Y590000D01*
X21000000Y-3630000D02*
X14180000Y-3630000D01*
X11320000Y-11185000D02*
X11255000Y-11185000D01*
X11320000Y-7655000D02*
X11255000Y-7655000D01*
X17725000Y-11185000D02*
X17660000Y-11185000D01*
X17725000Y-7655000D02*
X17660000Y-7655000D01*
X17660000Y-6330000D02*
X17660000Y-7655000D01*
X11255000Y-7655000D02*
X11255000Y-11185000D01*
X17725000Y-7655000D02*
X17725000Y-11185000D01*
X7325500Y-26918000D02*
X7775500Y-26918000D01*
X7775500Y-26918000D02*
X7775500Y-26468000D01*
X1005500Y-26918000D02*
X555500Y-26918000D01*
X555500Y-26918000D02*
X555500Y-26468000D01*
X7325500Y-19698000D02*
X7775500Y-19698000D01*
X7775500Y-19698000D02*
X7775500Y-20148000D01*
X1005500Y-19698000D02*
X555500Y-19698000D01*
X555500Y-19698000D02*
X555500Y-20148000D01*
X555500Y-20148000D02*
X-734500Y-20148000D01*
X22344420Y-14680000D02*
X22625580Y-14680000D01*
X22344420Y-13660000D02*
X22625580Y-13660000D01*
X25602000Y-16195420D02*
X25602000Y-16476580D01*
X24582000Y-16195420D02*
X24582000Y-16476580D01*
X3749420Y-5310000D02*
X4030580Y-5310000D01*
X3749420Y-6330000D02*
X4030580Y-6330000D01*
X4509580Y-92000D02*
X4228420Y-92000D01*
X4509580Y-1112000D02*
X4228420Y-1112000D01*
X9317420Y-16833000D02*
X9598580Y-16833000D01*
X9317420Y-15813000D02*
X9598580Y-15813000D01*
X-7740580Y-18050000D02*
X-7459420Y-18050000D01*
X-7740580Y-19070000D02*
X-7459420Y-19070000D01*
X9317420Y-19881000D02*
X9598580Y-19881000D01*
X9317420Y-18861000D02*
X9598580Y-18861000D01*
X-7419420Y-23814000D02*
X-7700580Y-23814000D01*
X-7419420Y-24834000D02*
X-7700580Y-24834000D01*
X9317420Y-17337000D02*
X9598580Y-17337000D01*
X9317420Y-18357000D02*
X9598580Y-18357000D01*
X-814000Y-18127580D02*
X-814000Y-17846420D01*
X-1834000Y-18127580D02*
X-1834000Y-17846420D01*
X6703580Y-30676000D02*
X6422420Y-30676000D01*
X6703580Y-29656000D02*
X6422420Y-29656000D01*
X710000Y-18127580D02*
X710000Y-17846420D01*
X-310000Y-18127580D02*
X-310000Y-17846420D01*
X6703580Y-32200000D02*
X6422420Y-32200000D01*
X6703580Y-31180000D02*
X6422420Y-31180000D01*
X-2596000Y-25366580D02*
X-2596000Y-25085420D01*
X-1576000Y-25366580D02*
X-1576000Y-25085420D01*
X-4120000Y-25366580D02*
X-4120000Y-25085420D01*
X-3100000Y-25366580D02*
X-3100000Y-25085420D01*
X5830000Y-40810580D02*
X5830000Y-40529420D01*
X4810000Y-40810580D02*
X4810000Y-40529420D01*
X10616000Y-31409420D02*
X10616000Y-31690580D01*
X9596000Y-31409420D02*
X9596000Y-31690580D01*
X17598420Y-31057000D02*
X17879580Y-31057000D01*
X17598420Y-30037000D02*
X17879580Y-30037000D01*
X26132000Y-8234000D02*
X26132000Y-9934000D01*
X26132000Y-9934000D02*
X28682000Y-9934000D01*
X26132000Y-8234000D02*
X28682000Y-8234000D01*
X23631500Y-20922000D02*
X21346500Y-20922000D01*
X21346500Y-20922000D02*
X21346500Y-22392000D01*
X21346500Y-22392000D02*
X23631500Y-22392000D01*
X-17820500Y-2961000D02*
X-15535500Y-2961000D01*
X-17820500Y-1491000D02*
X-17820500Y-2961000D01*
X-15535500Y-1491000D02*
X-17820500Y-1491000D01*
X-11725500Y-1491000D02*
X-14010500Y-1491000D01*
X-14010500Y-1491000D02*
X-14010500Y-2961000D01*
X-14010500Y-2961000D02*
X-11725500Y-2961000D01*
X-4598000Y-2322000D02*
X-2398000Y-2322000D01*
X-2398000Y-2322000D02*
X-2398000Y-922000D01*
X-4598000Y-1122000D02*
X-4298000Y-922000D01*
X-4598000Y-1122000D02*
X-4598000Y-2322000D01*
X-4298000Y-922000D02*
X-2398000Y-922000D01*
X-18023500Y-7787000D02*
X-15738500Y-7787000D01*
X-18023500Y-6317000D02*
X-18023500Y-7787000D01*
X-15738500Y-6317000D02*
X-18023500Y-6317000D01*
X-11928500Y-6317000D02*
X-14213500Y-6317000D01*
X-14213500Y-6317000D02*
X-14213500Y-7787000D01*
X-14213500Y-7787000D02*
X-11928500Y-7787000D01*
X23092936Y-8301000D02*
X24297064Y-8301000D01*
X23092936Y-10121000D02*
X24297064Y-10121000D01*
X7687000Y-4202000D02*
X10372000Y-4202000D01*
X10372000Y-4202000D02*
X10372000Y-2282000D01*
X10372000Y-2282000D02*
X7687000Y-2282000D01*
X-4809000Y-29232500D02*
X-4809000Y-26547500D01*
X-6729000Y-29232500D02*
X-4809000Y-29232500D01*
X-6729000Y-26547500D02*
X-6729000Y-29232500D01*
X-6063000Y-19446000D02*
X-9363000Y-19446000D01*
X-9363000Y-19446000D02*
X-9363000Y-23446000D01*
X29732000Y-22800000D02*
X29732000Y-23180000D01*
X33782000Y-22800000D02*
X34042000Y-22800000D01*
X29732000Y-22800000D02*
X31502000Y-22800000D01*
X29732000Y-30420000D02*
X29732000Y-30040000D01*
X31502000Y-30420000D02*
X29732000Y-30420000D01*
X34042000Y-30420000D02*
X33782000Y-30420000D01*
X33910000Y-15480000D02*
X33910000Y-17360000D01*
X30790000Y-18530000D02*
X30790000Y-17480000D01*
X31940000Y-18530000D02*
X30790000Y-18530000D01*
X30790000Y-15360000D02*
X29800000Y-15360000D01*
X30790000Y-14310000D02*
X30790000Y-15360000D01*
X31940000Y-14310000D02*
X30790000Y-14310000D01*
X20798000Y-43820000D02*
X20298000Y-43820000D01*
X20798000Y-42420000D02*
X20298000Y-42420000D01*
X20798000Y-42420000D02*
X20798000Y-41820000D01*
X20798000Y-41820000D02*
X20998000Y-41620000D01*
X20998000Y-44620000D02*
X20798000Y-44620000D01*
X20798000Y-44620000D02*
X20798000Y-43820000D01*
X23798000Y-43820000D02*
X23798000Y-44620000D01*
X23798000Y-44620000D02*
X23598000Y-44620000D01*
X23598000Y-41620000D02*
X23798000Y-41620000D01*
X23798000Y-41620000D02*
X23798000Y-42420000D01*
X18232000Y-42647779D02*
X18232000Y-42322221D01*
X19252000Y-42647779D02*
X19252000Y-42322221D01*
X26360000Y-7870000D02*
X26360000Y-6940000D01*
X26360000Y-4710000D02*
X26360000Y-5640000D01*
X26360000Y-4710000D02*
X24200000Y-4710000D01*
X26360000Y-7870000D02*
X24900000Y-7870000D01*
X25044742Y-4272500D02*
X25519258Y-4272500D01*
X25044742Y-3227500D02*
X25519258Y-3227500D01*
X19137500Y-17137258D02*
X19137500Y-16662742D01*
X20182500Y-17137258D02*
X20182500Y-16662742D01*
X9102258Y-1742500D02*
X8627742Y-1742500D01*
X9102258Y-697500D02*
X8627742Y-697500D01*
X23043258Y-18848500D02*
X22568742Y-18848500D01*
X23043258Y-19893500D02*
X22568742Y-19893500D01*
X-16610258Y-4526500D02*
X-16135742Y-4526500D01*
X-16610258Y-3481500D02*
X-16135742Y-3481500D01*
X-6641258Y-3481500D02*
X-6166742Y-3481500D01*
X-6641258Y-4526500D02*
X-6166742Y-4526500D01*
X-12674258Y-3481500D02*
X-12199742Y-3481500D01*
X-12674258Y-4526500D02*
X-12199742Y-4526500D01*
X-3656258Y-4526500D02*
X-3181742Y-4526500D01*
X-3656258Y-3481500D02*
X-3181742Y-3481500D01*
X-627258Y-3481500D02*
X-152742Y-3481500D01*
X-627258Y-4526500D02*
X-152742Y-4526500D01*
X-16738258Y-9352500D02*
X-16263742Y-9352500D01*
X-16738258Y-8307500D02*
X-16263742Y-8307500D01*
X-3816742Y-23068500D02*
X-4291258Y-23068500D01*
X-3816742Y-22023500D02*
X-4291258Y-22023500D01*
X-12928258Y-8307500D02*
X-12453742Y-8307500D01*
X-12928258Y-9352500D02*
X-12453742Y-9352500D01*
X3487500Y-13736742D02*
X3487500Y-14211258D01*
X4532500Y-13736742D02*
X4532500Y-14211258D01*
X3008500Y-13736742D02*
X3008500Y-14211258D01*
X1963500Y-13736742D02*
X1963500Y-14211258D01*
X1484500Y-14211258D02*
X1484500Y-13736742D01*
X439500Y-14211258D02*
X439500Y-13736742D01*
X23282000Y-15155000D02*
X21482000Y-15155000D01*
X21482000Y-18375000D02*
X23932000Y-18375000D01*
X22160000Y-26823000D02*
X23960000Y-26823000D01*
X23960000Y-23603000D02*
X21510000Y-23603000D01*
X3355000Y-1662000D02*
X4815000Y-1662000D01*
X3355000Y-4822000D02*
X5515000Y-4822000D01*
X3355000Y-4822000D02*
X3355000Y-3892000D01*
X3355000Y-1662000D02*
X3355000Y-2592000D01*
X7051000Y-35420000D02*
X16971000Y-35420000D01*
X7051000Y-45740000D02*
X16971000Y-45740000D01*
X16971000Y-45590000D02*
X16971000Y-45740000D01*
X7051000Y-45590000D02*
X7051000Y-45740000D01*
X16971000Y-35420000D02*
X16971000Y-35570000D01*
X7051000Y-35420000D02*
X7051000Y-35570000D01*
X6361000Y-35570000D02*
X7051000Y-35570000D01*
D11*
X15685000Y-31935000D02*
X15160000Y-31935000D01*
X11385000Y-27635000D02*
X11910000Y-27635000D01*
X11385000Y-31935000D02*
X11910000Y-31935000D01*
X15685000Y-27635000D02*
X15685000Y-28160000D01*
X11385000Y-27635000D02*
X11385000Y-28160000D01*
X11385000Y-31935000D02*
X11385000Y-31410000D01*
X15685000Y-31935000D02*
X15685000Y-31410000D01*
D10*
X25797000Y-34087000D02*
X25797000Y-35062000D01*
X25797000Y-35062000D02*
X24822000Y-35062000D01*
X20577000Y-30817000D02*
X20577000Y-29842000D01*
X20577000Y-29842000D02*
X21552000Y-29842000D01*
X20577000Y-34087000D02*
X20577000Y-35062000D01*
X20577000Y-35062000D02*
X21552000Y-35062000D01*
X25797000Y-30817000D02*
X25797000Y-29842000D01*
D14*
X-22301905Y-19192380D02*
X-22301905Y-20001904D01*
X-22254286Y-20097142D01*
X-22206667Y-20144761D01*
X-22111429Y-20192380D01*
X-21920953Y-20192380D01*
X-21825715Y-20144761D01*
X-21778096Y-20097142D01*
X-21730477Y-20001904D01*
X-21730477Y-19192380D01*
X-20825715Y-19525714D02*
X-20825715Y-20192380D01*
X-21063810Y-19144761D02*
X-21301905Y-19859047D01*
X-20682858Y-19859047D01*
D11*
X-7088905Y-40737380D02*
X-7088905Y-41546904D01*
X-7041286Y-41642142D01*
X-6993667Y-41689761D01*
X-6898429Y-41737380D01*
X-6707953Y-41737380D01*
X-6612715Y-41689761D01*
X-6565096Y-41642142D01*
X-6517477Y-41546904D01*
X-6517477Y-40737380D01*
X-5898429Y-41165952D02*
X-5993667Y-41118333D01*
X-6041286Y-41070714D01*
X-6088905Y-40975476D01*
X-6088905Y-40927857D01*
X-6041286Y-40832619D01*
X-5993667Y-40785000D01*
X-5898429Y-40737380D01*
X-5707953Y-40737380D01*
X-5612715Y-40785000D01*
X-5565096Y-40832619D01*
X-5517477Y-40927857D01*
X-5517477Y-40975476D01*
X-5565096Y-41070714D01*
X-5612715Y-41118333D01*
X-5707953Y-41165952D01*
X-5898429Y-41165952D01*
X-5993667Y-41213571D01*
X-6041286Y-41261190D01*
X-6088905Y-41356428D01*
X-6088905Y-41546904D01*
X-6041286Y-41642142D01*
X-5993667Y-41689761D01*
X-5898429Y-41737380D01*
X-5707953Y-41737380D01*
X-5612715Y-41689761D01*
X-5565096Y-41642142D01*
X-5517477Y-41546904D01*
X-5517477Y-41356428D01*
X-5565096Y-41261190D01*
X-5612715Y-41213571D01*
X-5707953Y-41165952D01*
X16166666Y-604761D02*
X16309523Y-652380D01*
X16547619Y-652380D01*
X16642857Y-604761D01*
X16690476Y-557142D01*
X16738095Y-461904D01*
X16738095Y-366666D01*
X16690476Y-271428D01*
X16642857Y-223809D01*
X16547619Y-176190D01*
X16357142Y-128571D01*
X16261904Y-80952D01*
X16214285Y-33333D01*
X16166666Y61905D01*
X16166666Y157143D01*
X16214285Y252381D01*
X16261904Y300000D01*
X16357142Y347620D01*
X16595238Y347620D01*
X16738095Y300000D01*
X17071428Y347620D02*
X17309523Y-652380D01*
X17500000Y61905D01*
X17690476Y-652380D01*
X17928571Y347620D01*
X18833333Y-652380D02*
X18261904Y-652380D01*
X18547619Y-652380D02*
X18547619Y347620D01*
X18452380Y204762D01*
X18357142Y109524D01*
X18261904Y61905D01*
X14316666Y-8852380D02*
X14316666Y-9566666D01*
X14269047Y-9709523D01*
X14173809Y-9804761D01*
X14030952Y-9852380D01*
X13935714Y-9852380D01*
X15269047Y-8852380D02*
X14792857Y-8852380D01*
X14745238Y-9328571D01*
X14792857Y-9280952D01*
X14888095Y-9233333D01*
X15126190Y-9233333D01*
X15221428Y-9280952D01*
X15269047Y-9328571D01*
X15316666Y-9423809D01*
X15316666Y-9661904D01*
X15269047Y-9757142D01*
X15221428Y-9804761D01*
X15126190Y-9852380D01*
X14888095Y-9852380D01*
X14792857Y-9804761D01*
X14745238Y-9757142D01*
X4388095Y-22102380D02*
X4388095Y-22911904D01*
X4435714Y-23007142D01*
X4483333Y-23054761D01*
X4578571Y-23102380D01*
X4769047Y-23102380D01*
X4864285Y-23054761D01*
X4911904Y-23007142D01*
X4959523Y-22911904D01*
X4959523Y-22102380D01*
X5911904Y-22102380D02*
X5435714Y-22102380D01*
X5388095Y-22578571D01*
X5435714Y-22530952D01*
X5530952Y-22483333D01*
X5769047Y-22483333D01*
X5864285Y-22530952D01*
X5911904Y-22578571D01*
X5959523Y-22673809D01*
X5959523Y-22911904D01*
X5911904Y-23007142D01*
X5864285Y-23054761D01*
X5769047Y-23102380D01*
X5530952Y-23102380D01*
X5435714Y-23054761D01*
X5388095Y-23007142D01*
X22318333Y-13097142D02*
X22270714Y-13144761D01*
X22127857Y-13192380D01*
X22032619Y-13192380D01*
X21889761Y-13144761D01*
X21794523Y-13049523D01*
X21746904Y-12954285D01*
X21699285Y-12763809D01*
X21699285Y-12620952D01*
X21746904Y-12430476D01*
X21794523Y-12335238D01*
X21889761Y-12240000D01*
X22032619Y-12192380D01*
X22127857Y-12192380D01*
X22270714Y-12240000D01*
X22318333Y-12287619D01*
X23270714Y-13192380D02*
X22699285Y-13192380D01*
X22985000Y-13192380D02*
X22985000Y-12192380D01*
X22889761Y-12335238D01*
X22794523Y-12430476D01*
X22699285Y-12478095D01*
X26879142Y-16502666D02*
X26926761Y-16550285D01*
X26974380Y-16693142D01*
X26974380Y-16788380D01*
X26926761Y-16931238D01*
X26831523Y-17026476D01*
X26736285Y-17074095D01*
X26545809Y-17121714D01*
X26402952Y-17121714D01*
X26212476Y-17074095D01*
X26117238Y-17026476D01*
X26022000Y-16931238D01*
X25974380Y-16788380D01*
X25974380Y-16693142D01*
X26022000Y-16550285D01*
X26069619Y-16502666D01*
X26069619Y-16121714D02*
X26022000Y-16074095D01*
X25974380Y-15978857D01*
X25974380Y-15740761D01*
X26022000Y-15645523D01*
X26069619Y-15597904D01*
X26164857Y-15550285D01*
X26260095Y-15550285D01*
X26402952Y-15597904D01*
X26974380Y-16169333D01*
X26974380Y-15550285D01*
X3783333Y-7607142D02*
X3735714Y-7654761D01*
X3592857Y-7702380D01*
X3497619Y-7702380D01*
X3354761Y-7654761D01*
X3259523Y-7559523D01*
X3211904Y-7464285D01*
X3164285Y-7273809D01*
X3164285Y-7130952D01*
X3211904Y-6940476D01*
X3259523Y-6845238D01*
X3354761Y-6750000D01*
X3497619Y-6702380D01*
X3592857Y-6702380D01*
X3735714Y-6750000D01*
X3783333Y-6797619D01*
X4116666Y-6702380D02*
X4735714Y-6702380D01*
X4402380Y-7083333D01*
X4545238Y-7083333D01*
X4640476Y-7130952D01*
X4688095Y-7178571D01*
X4735714Y-7273809D01*
X4735714Y-7511904D01*
X4688095Y-7607142D01*
X4640476Y-7654761D01*
X4545238Y-7702380D01*
X4259523Y-7702380D01*
X4164285Y-7654761D01*
X4116666Y-7607142D01*
X4183333Y92858D02*
X4135714Y45239D01*
X3992857Y-2380D01*
X3897619Y-2380D01*
X3754761Y45239D01*
X3659523Y140477D01*
X3611904Y235715D01*
X3564285Y426191D01*
X3564285Y569048D01*
X3611904Y759524D01*
X3659523Y854762D01*
X3754761Y950000D01*
X3897619Y997620D01*
X3992857Y997620D01*
X4135714Y950000D01*
X4183333Y902381D01*
X5040476Y664286D02*
X5040476Y-2380D01*
X4802380Y1045239D02*
X4564285Y330953D01*
X5183333Y330953D01*
X9233333Y-15357142D02*
X9185714Y-15404761D01*
X9042857Y-15452380D01*
X8947619Y-15452380D01*
X8804761Y-15404761D01*
X8709523Y-15309523D01*
X8661904Y-15214285D01*
X8614285Y-15023809D01*
X8614285Y-14880952D01*
X8661904Y-14690476D01*
X8709523Y-14595238D01*
X8804761Y-14500000D01*
X8947619Y-14452380D01*
X9042857Y-14452380D01*
X9185714Y-14500000D01*
X9233333Y-14547619D01*
X10138095Y-14452380D02*
X9661904Y-14452380D01*
X9614285Y-14928571D01*
X9661904Y-14880952D01*
X9757142Y-14833333D01*
X9995238Y-14833333D01*
X10090476Y-14880952D01*
X10138095Y-14928571D01*
X10185714Y-15023809D01*
X10185714Y-15261904D01*
X10138095Y-15357142D01*
X10090476Y-15404761D01*
X9995238Y-15452380D01*
X9757142Y-15452380D01*
X9661904Y-15404761D01*
X9614285Y-15357142D01*
X-5316667Y-18907142D02*
X-5364286Y-18954761D01*
X-5507143Y-19002380D01*
X-5602381Y-19002380D01*
X-5745239Y-18954761D01*
X-5840477Y-18859523D01*
X-5888096Y-18764285D01*
X-5935715Y-18573809D01*
X-5935715Y-18430952D01*
X-5888096Y-18240476D01*
X-5840477Y-18145238D01*
X-5745239Y-18050000D01*
X-5602381Y-18002380D01*
X-5507143Y-18002380D01*
X-5364286Y-18050000D01*
X-5316667Y-18097619D01*
X-4459524Y-18002380D02*
X-4650000Y-18002380D01*
X-4745239Y-18050000D01*
X-4792858Y-18097619D01*
X-4888096Y-18240476D01*
X-4935715Y-18430952D01*
X-4935715Y-18811904D01*
X-4888096Y-18907142D01*
X-4840477Y-18954761D01*
X-4745239Y-19002380D01*
X-4554762Y-19002380D01*
X-4459524Y-18954761D01*
X-4411905Y-18907142D01*
X-4364286Y-18811904D01*
X-4364286Y-18573809D01*
X-4411905Y-18478571D01*
X-4459524Y-18430952D01*
X-4554762Y-18383333D01*
X-4745239Y-18383333D01*
X-4840477Y-18430952D01*
X-4888096Y-18478571D01*
X-4935715Y-18573809D01*
X12283333Y-19757142D02*
X12235714Y-19804761D01*
X12092857Y-19852380D01*
X11997619Y-19852380D01*
X11854761Y-19804761D01*
X11759523Y-19709523D01*
X11711904Y-19614285D01*
X11664285Y-19423809D01*
X11664285Y-19280952D01*
X11711904Y-19090476D01*
X11759523Y-18995238D01*
X11854761Y-18900000D01*
X11997619Y-18852380D01*
X12092857Y-18852380D01*
X12235714Y-18900000D01*
X12283333Y-18947619D01*
X12616666Y-18852380D02*
X13283333Y-18852380D01*
X12854761Y-19852380D01*
X-7726667Y-26111142D02*
X-7774286Y-26158761D01*
X-7917143Y-26206380D01*
X-8012381Y-26206380D01*
X-8155239Y-26158761D01*
X-8250477Y-26063523D01*
X-8298096Y-25968285D01*
X-8345715Y-25777809D01*
X-8345715Y-25634952D01*
X-8298096Y-25444476D01*
X-8250477Y-25349238D01*
X-8155239Y-25254000D01*
X-8012381Y-25206380D01*
X-7917143Y-25206380D01*
X-7774286Y-25254000D01*
X-7726667Y-25301619D01*
X-7155239Y-25634952D02*
X-7250477Y-25587333D01*
X-7298096Y-25539714D01*
X-7345715Y-25444476D01*
X-7345715Y-25396857D01*
X-7298096Y-25301619D01*
X-7250477Y-25254000D01*
X-7155239Y-25206380D01*
X-6964762Y-25206380D01*
X-6869524Y-25254000D01*
X-6821905Y-25301619D01*
X-6774286Y-25396857D01*
X-6774286Y-25444476D01*
X-6821905Y-25539714D01*
X-6869524Y-25587333D01*
X-6964762Y-25634952D01*
X-7155239Y-25634952D01*
X-7250477Y-25682571D01*
X-7298096Y-25730190D01*
X-7345715Y-25825428D01*
X-7345715Y-26015904D01*
X-7298096Y-26111142D01*
X-7250477Y-26158761D01*
X-7155239Y-26206380D01*
X-6964762Y-26206380D01*
X-6869524Y-26158761D01*
X-6821905Y-26111142D01*
X-6774286Y-26015904D01*
X-6774286Y-25825428D01*
X-6821905Y-25730190D01*
X-6869524Y-25682571D01*
X-6964762Y-25634952D01*
X12283333Y-18207142D02*
X12235714Y-18254761D01*
X12092857Y-18302380D01*
X11997619Y-18302380D01*
X11854761Y-18254761D01*
X11759523Y-18159523D01*
X11711904Y-18064285D01*
X11664285Y-17873809D01*
X11664285Y-17730952D01*
X11711904Y-17540476D01*
X11759523Y-17445238D01*
X11854761Y-17350000D01*
X11997619Y-17302380D01*
X12092857Y-17302380D01*
X12235714Y-17350000D01*
X12283333Y-17397619D01*
X12759523Y-18302380D02*
X12950000Y-18302380D01*
X13045238Y-18254761D01*
X13092857Y-18207142D01*
X13188095Y-18064285D01*
X13235714Y-17873809D01*
X13235714Y-17492857D01*
X13188095Y-17397619D01*
X13140476Y-17350000D01*
X13045238Y-17302380D01*
X12854761Y-17302380D01*
X12759523Y-17350000D01*
X12711904Y-17397619D01*
X12664285Y-17492857D01*
X12664285Y-17730952D01*
X12711904Y-17826190D01*
X12759523Y-17873809D01*
X12854761Y-17921428D01*
X13045238Y-17921428D01*
X13140476Y-17873809D01*
X13188095Y-17826190D01*
X13235714Y-17730952D01*
X-2396858Y-18629857D02*
X-2349239Y-18677476D01*
X-2301620Y-18820333D01*
X-2301620Y-18915571D01*
X-2349239Y-19058428D01*
X-2444477Y-19153666D01*
X-2539715Y-19201285D01*
X-2730191Y-19248904D01*
X-2873048Y-19248904D01*
X-3063524Y-19201285D01*
X-3158762Y-19153666D01*
X-3254000Y-19058428D01*
X-3301620Y-18915571D01*
X-3301620Y-18820333D01*
X-3254000Y-18677476D01*
X-3206381Y-18629857D01*
X-2301620Y-17677476D02*
X-2301620Y-18248904D01*
X-2301620Y-17963190D02*
X-3301620Y-17963190D01*
X-3158762Y-18058428D01*
X-3063524Y-18153666D01*
X-3015905Y-18248904D01*
X-3301620Y-17058428D02*
X-3301620Y-16963190D01*
X-3254000Y-16867952D01*
X-3206381Y-16820333D01*
X-3111143Y-16772714D01*
X-2920667Y-16725095D01*
X-2682572Y-16725095D01*
X-2492096Y-16772714D01*
X-2396858Y-16820333D01*
X-2349239Y-16867952D01*
X-2301620Y-16963190D01*
X-2301620Y-17058428D01*
X-2349239Y-17153666D01*
X-2396858Y-17201285D01*
X-2492096Y-17248904D01*
X-2682572Y-17296523D01*
X-2920667Y-17296523D01*
X-3111143Y-17248904D01*
X-3206381Y-17201285D01*
X-3254000Y-17153666D01*
X-3301620Y-17058428D01*
X3107142Y-30457142D02*
X3059523Y-30504761D01*
X2916666Y-30552380D01*
X2821428Y-30552380D01*
X2678571Y-30504761D01*
X2583333Y-30409523D01*
X2535714Y-30314285D01*
X2488095Y-30123809D01*
X2488095Y-29980952D01*
X2535714Y-29790476D01*
X2583333Y-29695238D01*
X2678571Y-29600000D01*
X2821428Y-29552380D01*
X2916666Y-29552380D01*
X3059523Y-29600000D01*
X3107142Y-29647619D01*
X4059523Y-30552380D02*
X3488095Y-30552380D01*
X3773809Y-30552380D02*
X3773809Y-29552380D01*
X3678571Y-29695238D01*
X3583333Y-29790476D01*
X3488095Y-29838095D01*
X5011904Y-30552380D02*
X4440476Y-30552380D01*
X4726190Y-30552380D02*
X4726190Y-29552380D01*
X4630952Y-29695238D01*
X4535714Y-29790476D01*
X4440476Y-29838095D01*
X1707142Y-17557142D02*
X1659523Y-17604761D01*
X1516666Y-17652380D01*
X1421428Y-17652380D01*
X1278571Y-17604761D01*
X1183333Y-17509523D01*
X1135714Y-17414285D01*
X1088095Y-17223809D01*
X1088095Y-17080952D01*
X1135714Y-16890476D01*
X1183333Y-16795238D01*
X1278571Y-16700000D01*
X1421428Y-16652380D01*
X1516666Y-16652380D01*
X1659523Y-16700000D01*
X1707142Y-16747619D01*
X2659523Y-17652380D02*
X2088095Y-17652380D01*
X2373809Y-17652380D02*
X2373809Y-16652380D01*
X2278571Y-16795238D01*
X2183333Y-16890476D01*
X2088095Y-16938095D01*
X3040476Y-16747619D02*
X3088095Y-16700000D01*
X3183333Y-16652380D01*
X3421428Y-16652380D01*
X3516666Y-16700000D01*
X3564285Y-16747619D01*
X3611904Y-16842857D01*
X3611904Y-16938095D01*
X3564285Y-17080952D01*
X2992857Y-17652380D01*
X3611904Y-17652380D01*
X3057142Y-32107142D02*
X3009523Y-32154761D01*
X2866666Y-32202380D01*
X2771428Y-32202380D01*
X2628571Y-32154761D01*
X2533333Y-32059523D01*
X2485714Y-31964285D01*
X2438095Y-31773809D01*
X2438095Y-31630952D01*
X2485714Y-31440476D01*
X2533333Y-31345238D01*
X2628571Y-31250000D01*
X2771428Y-31202380D01*
X2866666Y-31202380D01*
X3009523Y-31250000D01*
X3057142Y-31297619D01*
X4009523Y-32202380D02*
X3438095Y-32202380D01*
X3723809Y-32202380D02*
X3723809Y-31202380D01*
X3628571Y-31345238D01*
X3533333Y-31440476D01*
X3438095Y-31488095D01*
X4342857Y-31202380D02*
X4961904Y-31202380D01*
X4628571Y-31583333D01*
X4771428Y-31583333D01*
X4866666Y-31630952D01*
X4914285Y-31678571D01*
X4961904Y-31773809D01*
X4961904Y-32011904D01*
X4914285Y-32107142D01*
X4866666Y-32154761D01*
X4771428Y-32202380D01*
X4485714Y-32202380D01*
X4390476Y-32154761D01*
X4342857Y-32107142D01*
X-1542858Y-28642857D02*
X-1495239Y-28690476D01*
X-1447620Y-28833333D01*
X-1447620Y-28928571D01*
X-1495239Y-29071428D01*
X-1590477Y-29166666D01*
X-1685715Y-29214285D01*
X-1876191Y-29261904D01*
X-2019048Y-29261904D01*
X-2209524Y-29214285D01*
X-2304762Y-29166666D01*
X-2400000Y-29071428D01*
X-2447620Y-28928571D01*
X-2447620Y-28833333D01*
X-2400000Y-28690476D01*
X-2352381Y-28642857D01*
X-1447620Y-27690476D02*
X-1447620Y-28261904D01*
X-1447620Y-27976190D02*
X-2447620Y-27976190D01*
X-2304762Y-28071428D01*
X-2209524Y-28166666D01*
X-2161905Y-28261904D01*
X-2114286Y-26833333D02*
X-1447620Y-26833333D01*
X-2495239Y-27071428D02*
X-1780953Y-27309523D01*
X-1780953Y-26690476D01*
X-3392858Y-28692857D02*
X-3345239Y-28740476D01*
X-3297620Y-28883333D01*
X-3297620Y-28978571D01*
X-3345239Y-29121428D01*
X-3440477Y-29216666D01*
X-3535715Y-29264285D01*
X-3726191Y-29311904D01*
X-3869048Y-29311904D01*
X-4059524Y-29264285D01*
X-4154762Y-29216666D01*
X-4250000Y-29121428D01*
X-4297620Y-28978571D01*
X-4297620Y-28883333D01*
X-4250000Y-28740476D01*
X-4202381Y-28692857D01*
X-3297620Y-27740476D02*
X-3297620Y-28311904D01*
X-3297620Y-28026190D02*
X-4297620Y-28026190D01*
X-4154762Y-28121428D01*
X-4059524Y-28216666D01*
X-4011905Y-28311904D01*
X-4297620Y-26835714D02*
X-4297620Y-27311904D01*
X-3821429Y-27359523D01*
X-3869048Y-27311904D01*
X-3916667Y-27216666D01*
X-3916667Y-26978571D01*
X-3869048Y-26883333D01*
X-3821429Y-26835714D01*
X-3726191Y-26788095D01*
X-3488096Y-26788095D01*
X-3392858Y-26835714D01*
X-3345239Y-26883333D01*
X-3297620Y-26978571D01*
X-3297620Y-27216666D01*
X-3345239Y-27311904D01*
X-3392858Y-27359523D01*
X5307142Y-44692857D02*
X5354761Y-44740476D01*
X5402380Y-44883333D01*
X5402380Y-44978571D01*
X5354761Y-45121428D01*
X5259523Y-45216666D01*
X5164285Y-45264285D01*
X4973809Y-45311904D01*
X4830952Y-45311904D01*
X4640476Y-45264285D01*
X4545238Y-45216666D01*
X4450000Y-45121428D01*
X4402380Y-44978571D01*
X4402380Y-44883333D01*
X4450000Y-44740476D01*
X4497619Y-44692857D01*
X5402380Y-43740476D02*
X5402380Y-44311904D01*
X5402380Y-44026190D02*
X4402380Y-44026190D01*
X4545238Y-44121428D01*
X4640476Y-44216666D01*
X4688095Y-44311904D01*
X4402380Y-42883333D02*
X4402380Y-43073809D01*
X4450000Y-43169047D01*
X4497619Y-43216666D01*
X4640476Y-43311904D01*
X4830952Y-43359523D01*
X5211904Y-43359523D01*
X5307142Y-43311904D01*
X5354761Y-43264285D01*
X5402380Y-43169047D01*
X5402380Y-42978571D01*
X5354761Y-42883333D01*
X5307142Y-42835714D01*
X5211904Y-42788095D01*
X4973809Y-42788095D01*
X4878571Y-42835714D01*
X4830952Y-42883333D01*
X4783333Y-42978571D01*
X4783333Y-43169047D01*
X4830952Y-43264285D01*
X4878571Y-43311904D01*
X4973809Y-43359523D01*
X9257142Y-31942857D02*
X9304761Y-31990476D01*
X9352380Y-32133333D01*
X9352380Y-32228571D01*
X9304761Y-32371428D01*
X9209523Y-32466666D01*
X9114285Y-32514285D01*
X8923809Y-32561904D01*
X8780952Y-32561904D01*
X8590476Y-32514285D01*
X8495238Y-32466666D01*
X8400000Y-32371428D01*
X8352380Y-32228571D01*
X8352380Y-32133333D01*
X8400000Y-31990476D01*
X8447619Y-31942857D01*
X9352380Y-30990476D02*
X9352380Y-31561904D01*
X9352380Y-31276190D02*
X8352380Y-31276190D01*
X8495238Y-31371428D01*
X8590476Y-31466666D01*
X8638095Y-31561904D01*
X8352380Y-30657142D02*
X8352380Y-29990476D01*
X9352380Y-30419047D01*
X17096142Y-29474142D02*
X17048523Y-29521761D01*
X16905666Y-29569380D01*
X16810428Y-29569380D01*
X16667571Y-29521761D01*
X16572333Y-29426523D01*
X16524714Y-29331285D01*
X16477095Y-29140809D01*
X16477095Y-28997952D01*
X16524714Y-28807476D01*
X16572333Y-28712238D01*
X16667571Y-28617000D01*
X16810428Y-28569380D01*
X16905666Y-28569380D01*
X17048523Y-28617000D01*
X17096142Y-28664619D01*
X18048523Y-29569380D02*
X17477095Y-29569380D01*
X17762809Y-29569380D02*
X17762809Y-28569380D01*
X17667571Y-28712238D01*
X17572333Y-28807476D01*
X17477095Y-28855095D01*
X18619952Y-28997952D02*
X18524714Y-28950333D01*
X18477095Y-28902714D01*
X18429476Y-28807476D01*
X18429476Y-28759857D01*
X18477095Y-28664619D01*
X18524714Y-28617000D01*
X18619952Y-28569380D01*
X18810428Y-28569380D01*
X18905666Y-28617000D01*
X18953285Y-28664619D01*
X19000904Y-28759857D01*
X19000904Y-28807476D01*
X18953285Y-28902714D01*
X18905666Y-28950333D01*
X18810428Y-28997952D01*
X18619952Y-28997952D01*
X18524714Y-29045571D01*
X18477095Y-29093190D01*
X18429476Y-29188428D01*
X18429476Y-29378904D01*
X18477095Y-29474142D01*
X18524714Y-29521761D01*
X18619952Y-29569380D01*
X18810428Y-29569380D01*
X18905666Y-29521761D01*
X18953285Y-29474142D01*
X19000904Y-29378904D01*
X19000904Y-29188428D01*
X18953285Y-29093190D01*
X18905666Y-29045571D01*
X18810428Y-28997952D01*
X28052380Y-9688095D02*
X27052380Y-9688095D01*
X27052380Y-9450000D01*
X27100000Y-9307142D01*
X27195238Y-9211904D01*
X27290476Y-9164285D01*
X27480952Y-9116666D01*
X27623809Y-9116666D01*
X27814285Y-9164285D01*
X27909523Y-9211904D01*
X28004761Y-9307142D01*
X28052380Y-9450000D01*
X28052380Y-9688095D01*
X28052380Y-8164285D02*
X28052380Y-8735714D01*
X28052380Y-8450000D02*
X27052380Y-8450000D01*
X27195238Y-8545238D01*
X27290476Y-8640476D01*
X27338095Y-8735714D01*
X19611904Y-22102380D02*
X19611904Y-21102380D01*
X19850000Y-21102380D01*
X19992857Y-21150000D01*
X20088095Y-21245238D01*
X20135714Y-21340476D01*
X20183333Y-21530952D01*
X20183333Y-21673809D01*
X20135714Y-21864285D01*
X20088095Y-21959523D01*
X19992857Y-22054761D01*
X19850000Y-22102380D01*
X19611904Y-22102380D01*
X20564285Y-21197619D02*
X20611904Y-21150000D01*
X20707142Y-21102380D01*
X20945238Y-21102380D01*
X21040476Y-21150000D01*
X21088095Y-21197619D01*
X21135714Y-21292857D01*
X21135714Y-21388095D01*
X21088095Y-21530952D01*
X20516666Y-22102380D01*
X21135714Y-22102380D01*
X-18538096Y-1102380D02*
X-18538096Y-102380D01*
X-18300000Y-102380D01*
X-18157143Y-150000D01*
X-18061905Y-245238D01*
X-18014286Y-340476D01*
X-17966667Y-530952D01*
X-17966667Y-673809D01*
X-18014286Y-864285D01*
X-18061905Y-959523D01*
X-18157143Y-1054761D01*
X-18300000Y-1102380D01*
X-18538096Y-1102380D01*
X-17633334Y-102380D02*
X-17014286Y-102380D01*
X-17347620Y-483333D01*
X-17204762Y-483333D01*
X-17109524Y-530952D01*
X-17061905Y-578571D01*
X-17014286Y-673809D01*
X-17014286Y-911904D01*
X-17061905Y-1007142D01*
X-17109524Y-1054761D01*
X-17204762Y-1102380D01*
X-17490477Y-1102380D01*
X-17585715Y-1054761D01*
X-17633334Y-1007142D01*
X-10738096Y-2802380D02*
X-10738096Y-1802380D01*
X-10500000Y-1802380D01*
X-10357143Y-1850000D01*
X-10261905Y-1945238D01*
X-10214286Y-2040476D01*
X-10166667Y-2230952D01*
X-10166667Y-2373809D01*
X-10214286Y-2564285D01*
X-10261905Y-2659523D01*
X-10357143Y-2754761D01*
X-10500000Y-2802380D01*
X-10738096Y-2802380D01*
X-9309524Y-2135714D02*
X-9309524Y-2802380D01*
X-9547620Y-1754761D02*
X-9785715Y-2469047D01*
X-9166667Y-2469047D01*
X-3638096Y-702380D02*
X-3638096Y297620D01*
X-3400000Y297620D01*
X-3257143Y250000D01*
X-3161905Y154762D01*
X-3114286Y59524D01*
X-3066667Y-130952D01*
X-3066667Y-273809D01*
X-3114286Y-464285D01*
X-3161905Y-559523D01*
X-3257143Y-654761D01*
X-3400000Y-702380D01*
X-3638096Y-702380D01*
X-2161905Y297620D02*
X-2638096Y297620D01*
X-2685715Y-178571D01*
X-2638096Y-130952D01*
X-2542858Y-83333D01*
X-2304762Y-83333D01*
X-2209524Y-130952D01*
X-2161905Y-178571D01*
X-2114286Y-273809D01*
X-2114286Y-511904D01*
X-2161905Y-607142D01*
X-2209524Y-654761D01*
X-2304762Y-702380D01*
X-2542858Y-702380D01*
X-2638096Y-654761D01*
X-2685715Y-607142D01*
X-19738096Y-7552380D02*
X-19738096Y-6552380D01*
X-19500000Y-6552380D01*
X-19357143Y-6600000D01*
X-19261905Y-6695238D01*
X-19214286Y-6790476D01*
X-19166667Y-6980952D01*
X-19166667Y-7123809D01*
X-19214286Y-7314285D01*
X-19261905Y-7409523D01*
X-19357143Y-7504761D01*
X-19500000Y-7552380D01*
X-19738096Y-7552380D01*
X-18309524Y-6552380D02*
X-18500000Y-6552380D01*
X-18595239Y-6600000D01*
X-18642858Y-6647619D01*
X-18738096Y-6790476D01*
X-18785715Y-6980952D01*
X-18785715Y-7361904D01*
X-18738096Y-7457142D01*
X-18690477Y-7504761D01*
X-18595239Y-7552380D01*
X-18404762Y-7552380D01*
X-18309524Y-7504761D01*
X-18261905Y-7457142D01*
X-18214286Y-7361904D01*
X-18214286Y-7123809D01*
X-18261905Y-7028571D01*
X-18309524Y-6980952D01*
X-18404762Y-6933333D01*
X-18595239Y-6933333D01*
X-18690477Y-6980952D01*
X-18738096Y-7028571D01*
X-18785715Y-7123809D01*
X-11088096Y-7502380D02*
X-11088096Y-6502380D01*
X-10850000Y-6502380D01*
X-10707143Y-6550000D01*
X-10611905Y-6645238D01*
X-10564286Y-6740476D01*
X-10516667Y-6930952D01*
X-10516667Y-7073809D01*
X-10564286Y-7264285D01*
X-10611905Y-7359523D01*
X-10707143Y-7454761D01*
X-10850000Y-7502380D01*
X-11088096Y-7502380D01*
X-10183334Y-6502380D02*
X-9516667Y-6502380D01*
X-9945239Y-7502380D01*
X23578571Y-9683333D02*
X23578571Y-10016666D01*
X24102380Y-10016666D02*
X23102380Y-10016666D01*
X23102380Y-9540476D01*
X24102380Y-8635714D02*
X24102380Y-9207142D01*
X24102380Y-8921428D02*
X23102380Y-8921428D01*
X23245238Y-9016666D01*
X23340476Y-9111904D01*
X23388095Y-9207142D01*
X7916666Y-4928571D02*
X7583333Y-4928571D01*
X7583333Y-5452380D02*
X7583333Y-4452380D01*
X8059523Y-4452380D01*
X8773809Y-4928571D02*
X8916666Y-4976190D01*
X8964285Y-5023809D01*
X9011904Y-5119047D01*
X9011904Y-5261904D01*
X8964285Y-5357142D01*
X8916666Y-5404761D01*
X8821428Y-5452380D01*
X8440476Y-5452380D01*
X8440476Y-4452380D01*
X8773809Y-4452380D01*
X8869047Y-4500000D01*
X8916666Y-4547619D01*
X8964285Y-4642857D01*
X8964285Y-4738095D01*
X8916666Y-4833333D01*
X8869047Y-4880952D01*
X8773809Y-4928571D01*
X8440476Y-4928571D01*
X9964285Y-5452380D02*
X9392857Y-5452380D01*
X9678571Y-5452380D02*
X9678571Y-4452380D01*
X9583333Y-4595238D01*
X9488095Y-4690476D01*
X9392857Y-4738095D01*
X-7471429Y-28733333D02*
X-7471429Y-29066666D01*
X-6947620Y-29066666D02*
X-7947620Y-29066666D01*
X-7947620Y-28590476D01*
X-7471429Y-27876190D02*
X-7423810Y-27733333D01*
X-7376191Y-27685714D01*
X-7280953Y-27638095D01*
X-7138096Y-27638095D01*
X-7042858Y-27685714D01*
X-6995239Y-27733333D01*
X-6947620Y-27828571D01*
X-6947620Y-28209523D01*
X-7947620Y-28209523D01*
X-7947620Y-27876190D01*
X-7900000Y-27780952D01*
X-7852381Y-27733333D01*
X-7757143Y-27685714D01*
X-7661905Y-27685714D01*
X-7566667Y-27733333D01*
X-7519048Y-27780952D01*
X-7471429Y-27876190D01*
X-7471429Y-28209523D01*
X-7852381Y-27257142D02*
X-7900000Y-27209523D01*
X-7947620Y-27114285D01*
X-7947620Y-26876190D01*
X-7900000Y-26780952D01*
X-7852381Y-26733333D01*
X-7757143Y-26685714D01*
X-7661905Y-26685714D01*
X-7519048Y-26733333D01*
X-6947620Y-27304761D01*
X-6947620Y-26685714D01*
X-9497620Y-25890476D02*
X-10497620Y-25890476D01*
X-10021429Y-25890476D02*
X-10021429Y-25319047D01*
X-9497620Y-25319047D02*
X-10497620Y-25319047D01*
X-9545239Y-24890476D02*
X-9497620Y-24747619D01*
X-9497620Y-24509523D01*
X-9545239Y-24414285D01*
X-9592858Y-24366666D01*
X-9688096Y-24319047D01*
X-9783334Y-24319047D01*
X-9878572Y-24366666D01*
X-9926191Y-24414285D01*
X-9973810Y-24509523D01*
X-10021429Y-24700000D01*
X-10069048Y-24795238D01*
X-10116667Y-24842857D01*
X-10211905Y-24890476D01*
X-10307143Y-24890476D01*
X-10402381Y-24842857D01*
X-10450000Y-24795238D01*
X-10497620Y-24700000D01*
X-10497620Y-24461904D01*
X-10450000Y-24319047D01*
X-10021429Y-23890476D02*
X-10021429Y-23557142D01*
X-9497620Y-23414285D02*
X-9497620Y-23890476D01*
X-10497620Y-23890476D01*
X-10497620Y-23414285D01*
X-9497620Y-22461904D02*
X-9497620Y-23033333D01*
X-9497620Y-22747619D02*
X-10497620Y-22747619D01*
X-10354762Y-22842857D01*
X-10259524Y-22938095D01*
X-10211905Y-23033333D01*
X30316666Y-22102380D02*
X30316666Y-22816666D01*
X30269047Y-22959523D01*
X30173809Y-23054761D01*
X30030952Y-23102380D01*
X29935714Y-23102380D01*
X31316666Y-23102380D02*
X30745238Y-23102380D01*
X31030952Y-23102380D02*
X31030952Y-22102380D01*
X30935714Y-22245238D01*
X30840476Y-22340476D01*
X30745238Y-22388095D01*
X32316666Y-15872380D02*
X32316666Y-16586666D01*
X32269047Y-16729523D01*
X32173809Y-16824761D01*
X32030952Y-16872380D01*
X31935714Y-16872380D01*
X32745238Y-15967619D02*
X32792857Y-15920000D01*
X32888095Y-15872380D01*
X33126190Y-15872380D01*
X33221428Y-15920000D01*
X33269047Y-15967619D01*
X33316666Y-16062857D01*
X33316666Y-16158095D01*
X33269047Y-16300952D01*
X32697619Y-16872380D01*
X33316666Y-16872380D01*
X21816666Y-42602380D02*
X21816666Y-43316666D01*
X21769047Y-43459523D01*
X21673809Y-43554761D01*
X21530952Y-43602380D01*
X21435714Y-43602380D01*
X22721428Y-42935714D02*
X22721428Y-43602380D01*
X22483333Y-42554761D02*
X22245238Y-43269047D01*
X22864285Y-43269047D01*
X19402380Y-46016666D02*
X19402380Y-46492857D01*
X18402380Y-46492857D01*
X19402380Y-45159523D02*
X19402380Y-45730952D01*
X19402380Y-45445238D02*
X18402380Y-45445238D01*
X18545238Y-45540476D01*
X18640476Y-45635714D01*
X18688095Y-45730952D01*
X25904761Y-5847619D02*
X25809523Y-5800000D01*
X25714285Y-5704761D01*
X25571428Y-5561904D01*
X25476190Y-5514285D01*
X25380952Y-5514285D01*
X25428571Y-5752380D02*
X25333333Y-5704761D01*
X25238095Y-5609523D01*
X25190476Y-5419047D01*
X25190476Y-5085714D01*
X25238095Y-4895238D01*
X25333333Y-4800000D01*
X25428571Y-4752380D01*
X25619047Y-4752380D01*
X25714285Y-4800000D01*
X25809523Y-4895238D01*
X25857142Y-5085714D01*
X25857142Y-5419047D01*
X25809523Y-5609523D01*
X25714285Y-5704761D01*
X25619047Y-5752380D01*
X25428571Y-5752380D01*
X26809523Y-5752380D02*
X26238095Y-5752380D01*
X26523809Y-5752380D02*
X26523809Y-4752380D01*
X26428571Y-4895238D01*
X26333333Y-4990476D01*
X26238095Y-5038095D01*
X25115333Y-2772380D02*
X24782000Y-2296190D01*
X24543904Y-2772380D02*
X24543904Y-1772380D01*
X24924857Y-1772380D01*
X25020095Y-1820000D01*
X25067714Y-1867619D01*
X25115333Y-1962857D01*
X25115333Y-2105714D01*
X25067714Y-2200952D01*
X25020095Y-2248571D01*
X24924857Y-2296190D01*
X24543904Y-2296190D01*
X26067714Y-2772380D02*
X25496285Y-2772380D01*
X25782000Y-2772380D02*
X25782000Y-1772380D01*
X25686761Y-1915238D01*
X25591523Y-2010476D01*
X25496285Y-2058095D01*
X19702380Y-14416666D02*
X19226190Y-14750000D01*
X19702380Y-14988095D02*
X18702380Y-14988095D01*
X18702380Y-14607142D01*
X18750000Y-14511904D01*
X18797619Y-14464285D01*
X18892857Y-14416666D01*
X19035714Y-14416666D01*
X19130952Y-14464285D01*
X19178571Y-14511904D01*
X19226190Y-14607142D01*
X19226190Y-14988095D01*
X18797619Y-14035714D02*
X18750000Y-13988095D01*
X18702380Y-13892857D01*
X18702380Y-13654761D01*
X18750000Y-13559523D01*
X18797619Y-13511904D01*
X18892857Y-13464285D01*
X18988095Y-13464285D01*
X19130952Y-13511904D01*
X19702380Y-14083333D01*
X19702380Y-13464285D01*
X8733333Y-352380D02*
X8400000Y123810D01*
X8161904Y-352380D02*
X8161904Y647620D01*
X8542857Y647620D01*
X8638095Y600000D01*
X8685714Y552381D01*
X8733333Y457143D01*
X8733333Y314286D01*
X8685714Y219048D01*
X8638095Y171429D01*
X8542857Y123810D01*
X8161904Y123810D01*
X9066666Y647620D02*
X9685714Y647620D01*
X9352380Y266667D01*
X9495238Y266667D01*
X9590476Y219048D01*
X9638095Y171429D01*
X9685714Y76191D01*
X9685714Y-161904D01*
X9638095Y-257142D01*
X9590476Y-304761D01*
X9495238Y-352380D01*
X9209523Y-352380D01*
X9114285Y-304761D01*
X9066666Y-257142D01*
X20283333Y-19802380D02*
X19950000Y-19326190D01*
X19711904Y-19802380D02*
X19711904Y-18802380D01*
X20092857Y-18802380D01*
X20188095Y-18850000D01*
X20235714Y-18897619D01*
X20283333Y-18992857D01*
X20283333Y-19135714D01*
X20235714Y-19230952D01*
X20188095Y-19278571D01*
X20092857Y-19326190D01*
X19711904Y-19326190D01*
X21140476Y-19135714D02*
X21140476Y-19802380D01*
X20902380Y-18754761D02*
X20664285Y-19469047D01*
X21283333Y-19469047D01*
X-19016667Y-5352380D02*
X-19350000Y-4876190D01*
X-19588096Y-5352380D02*
X-19588096Y-4352380D01*
X-19207143Y-4352380D01*
X-19111905Y-4400000D01*
X-19064286Y-4447619D01*
X-19016667Y-4542857D01*
X-19016667Y-4685714D01*
X-19064286Y-4780952D01*
X-19111905Y-4828571D01*
X-19207143Y-4876190D01*
X-19588096Y-4876190D01*
X-18111905Y-4352380D02*
X-18588096Y-4352380D01*
X-18635715Y-4828571D01*
X-18588096Y-4780952D01*
X-18492858Y-4733333D01*
X-18254762Y-4733333D01*
X-18159524Y-4780952D01*
X-18111905Y-4828571D01*
X-18064286Y-4923809D01*
X-18064286Y-5161904D01*
X-18111905Y-5257142D01*
X-18159524Y-5304761D01*
X-18254762Y-5352380D01*
X-18492858Y-5352380D01*
X-18588096Y-5304761D01*
X-18635715Y-5257142D01*
X-6516667Y-5902380D02*
X-6850000Y-5426190D01*
X-7088096Y-5902380D02*
X-7088096Y-4902380D01*
X-6707143Y-4902380D01*
X-6611905Y-4950000D01*
X-6564286Y-4997619D01*
X-6516667Y-5092857D01*
X-6516667Y-5235714D01*
X-6564286Y-5330952D01*
X-6611905Y-5378571D01*
X-6707143Y-5426190D01*
X-7088096Y-5426190D01*
X-5659524Y-4902380D02*
X-5850000Y-4902380D01*
X-5945239Y-4950000D01*
X-5992858Y-4997619D01*
X-6088096Y-5140476D01*
X-6135715Y-5330952D01*
X-6135715Y-5711904D01*
X-6088096Y-5807142D01*
X-6040477Y-5854761D01*
X-5945239Y-5902380D01*
X-5754762Y-5902380D01*
X-5659524Y-5854761D01*
X-5611905Y-5807142D01*
X-5564286Y-5711904D01*
X-5564286Y-5473809D01*
X-5611905Y-5378571D01*
X-5659524Y-5330952D01*
X-5754762Y-5283333D01*
X-5945239Y-5283333D01*
X-6040477Y-5330952D01*
X-6088096Y-5378571D01*
X-6135715Y-5473809D01*
X-10166667Y-4502380D02*
X-10500000Y-4026190D01*
X-10738096Y-4502380D02*
X-10738096Y-3502380D01*
X-10357143Y-3502380D01*
X-10261905Y-3550000D01*
X-10214286Y-3597619D01*
X-10166667Y-3692857D01*
X-10166667Y-3835714D01*
X-10214286Y-3930952D01*
X-10261905Y-3978571D01*
X-10357143Y-4026190D01*
X-10738096Y-4026190D01*
X-9833334Y-3502380D02*
X-9166667Y-3502380D01*
X-9595239Y-4502380D01*
X-3616667Y-5852380D02*
X-3950000Y-5376190D01*
X-4188096Y-5852380D02*
X-4188096Y-4852380D01*
X-3807143Y-4852380D01*
X-3711905Y-4900000D01*
X-3664286Y-4947619D01*
X-3616667Y-5042857D01*
X-3616667Y-5185714D01*
X-3664286Y-5280952D01*
X-3711905Y-5328571D01*
X-3807143Y-5376190D01*
X-4188096Y-5376190D01*
X-3045239Y-5280952D02*
X-3140477Y-5233333D01*
X-3188096Y-5185714D01*
X-3235715Y-5090476D01*
X-3235715Y-5042857D01*
X-3188096Y-4947619D01*
X-3140477Y-4900000D01*
X-3045239Y-4852380D01*
X-2854762Y-4852380D01*
X-2759524Y-4900000D01*
X-2711905Y-4947619D01*
X-2664286Y-5042857D01*
X-2664286Y-5090476D01*
X-2711905Y-5185714D01*
X-2759524Y-5233333D01*
X-2854762Y-5280952D01*
X-3045239Y-5280952D01*
X-3140477Y-5328571D01*
X-3188096Y-5376190D01*
X-3235715Y-5471428D01*
X-3235715Y-5661904D01*
X-3188096Y-5757142D01*
X-3140477Y-5804761D01*
X-3045239Y-5852380D01*
X-2854762Y-5852380D01*
X-2759524Y-5804761D01*
X-2711905Y-5757142D01*
X-2664286Y-5661904D01*
X-2664286Y-5471428D01*
X-2711905Y-5376190D01*
X-2759524Y-5328571D01*
X-2854762Y-5280952D01*
X-566667Y-5852380D02*
X-900000Y-5376190D01*
X-1138096Y-5852380D02*
X-1138096Y-4852380D01*
X-757143Y-4852380D01*
X-661905Y-4900000D01*
X-614286Y-4947619D01*
X-566667Y-5042857D01*
X-566667Y-5185714D01*
X-614286Y-5280952D01*
X-661905Y-5328571D01*
X-757143Y-5376190D01*
X-1138096Y-5376190D01*
X-90477Y-5852380D02*
X100000Y-5852380D01*
X195238Y-5804761D01*
X242857Y-5757142D01*
X338095Y-5614285D01*
X385714Y-5423809D01*
X385714Y-5042857D01*
X338095Y-4947619D01*
X290476Y-4900000D01*
X195238Y-4852380D01*
X4761Y-4852380D01*
X-90477Y-4900000D01*
X-138096Y-4947619D01*
X-185715Y-5042857D01*
X-185715Y-5280952D01*
X-138096Y-5376190D01*
X-90477Y-5423809D01*
X4761Y-5471428D01*
X195238Y-5471428D01*
X290476Y-5423809D01*
X338095Y-5376190D01*
X385714Y-5280952D01*
X-19992858Y-9302380D02*
X-20326191Y-8826190D01*
X-20564286Y-9302380D02*
X-20564286Y-8302380D01*
X-20183334Y-8302380D01*
X-20088096Y-8350000D01*
X-20040477Y-8397619D01*
X-19992858Y-8492857D01*
X-19992858Y-8635714D01*
X-20040477Y-8730952D01*
X-20088096Y-8778571D01*
X-20183334Y-8826190D01*
X-20564286Y-8826190D01*
X-19040477Y-9302380D02*
X-19611905Y-9302380D01*
X-19326191Y-9302380D02*
X-19326191Y-8302380D01*
X-19421429Y-8445238D01*
X-19516667Y-8540476D01*
X-19611905Y-8588095D01*
X-18421429Y-8302380D02*
X-18326191Y-8302380D01*
X-18230953Y-8350000D01*
X-18183334Y-8397619D01*
X-18135715Y-8492857D01*
X-18088096Y-8683333D01*
X-18088096Y-8921428D01*
X-18135715Y-9111904D01*
X-18183334Y-9207142D01*
X-18230953Y-9254761D01*
X-18326191Y-9302380D01*
X-18421429Y-9302380D01*
X-18516667Y-9254761D01*
X-18564286Y-9207142D01*
X-18611905Y-9111904D01*
X-18659524Y-8921428D01*
X-18659524Y-8683333D01*
X-18611905Y-8492857D01*
X-18564286Y-8397619D01*
X-18516667Y-8350000D01*
X-18421429Y-8302380D01*
X-4692858Y-21702380D02*
X-5026191Y-21226190D01*
X-5264286Y-21702380D02*
X-5264286Y-20702380D01*
X-4883334Y-20702380D01*
X-4788096Y-20750000D01*
X-4740477Y-20797619D01*
X-4692858Y-20892857D01*
X-4692858Y-21035714D01*
X-4740477Y-21130952D01*
X-4788096Y-21178571D01*
X-4883334Y-21226190D01*
X-5264286Y-21226190D01*
X-3740477Y-21702380D02*
X-4311905Y-21702380D01*
X-4026191Y-21702380D02*
X-4026191Y-20702380D01*
X-4121429Y-20845238D01*
X-4216667Y-20940476D01*
X-4311905Y-20988095D01*
X-2788096Y-21702380D02*
X-3359524Y-21702380D01*
X-3073810Y-21702380D02*
X-3073810Y-20702380D01*
X-3169048Y-20845238D01*
X-3264286Y-20940476D01*
X-3359524Y-20988095D01*
X-10492858Y-9302380D02*
X-10826191Y-8826190D01*
X-11064286Y-9302380D02*
X-11064286Y-8302380D01*
X-10683334Y-8302380D01*
X-10588096Y-8350000D01*
X-10540477Y-8397619D01*
X-10492858Y-8492857D01*
X-10492858Y-8635714D01*
X-10540477Y-8730952D01*
X-10588096Y-8778571D01*
X-10683334Y-8826190D01*
X-11064286Y-8826190D01*
X-9540477Y-9302380D02*
X-10111905Y-9302380D01*
X-9826191Y-9302380D02*
X-9826191Y-8302380D01*
X-9921429Y-8445238D01*
X-10016667Y-8540476D01*
X-10111905Y-8588095D01*
X-9159524Y-8397619D02*
X-9111905Y-8350000D01*
X-9016667Y-8302380D01*
X-8778572Y-8302380D01*
X-8683334Y-8350000D01*
X-8635715Y-8397619D01*
X-8588096Y-8492857D01*
X-8588096Y-8588095D01*
X-8635715Y-8730952D01*
X-9207143Y-9302380D01*
X-8588096Y-9302380D01*
X4452380Y-11092857D02*
X3976190Y-11426190D01*
X4452380Y-11664285D02*
X3452380Y-11664285D01*
X3452380Y-11283333D01*
X3500000Y-11188095D01*
X3547619Y-11140476D01*
X3642857Y-11092857D01*
X3785714Y-11092857D01*
X3880952Y-11140476D01*
X3928571Y-11188095D01*
X3976190Y-11283333D01*
X3976190Y-11664285D01*
X4452380Y-10140476D02*
X4452380Y-10711904D01*
X4452380Y-10426190D02*
X3452380Y-10426190D01*
X3595238Y-10521428D01*
X3690476Y-10616666D01*
X3738095Y-10711904D01*
X3452380Y-9807142D02*
X3452380Y-9188095D01*
X3833333Y-9521428D01*
X3833333Y-9378571D01*
X3880952Y-9283333D01*
X3928571Y-9235714D01*
X4023809Y-9188095D01*
X4261904Y-9188095D01*
X4357142Y-9235714D01*
X4404761Y-9283333D01*
X4452380Y-9378571D01*
X4452380Y-9664285D01*
X4404761Y-9759523D01*
X4357142Y-9807142D01*
X2902380Y-11092857D02*
X2426190Y-11426190D01*
X2902380Y-11664285D02*
X1902380Y-11664285D01*
X1902380Y-11283333D01*
X1950000Y-11188095D01*
X1997619Y-11140476D01*
X2092857Y-11092857D01*
X2235714Y-11092857D01*
X2330952Y-11140476D01*
X2378571Y-11188095D01*
X2426190Y-11283333D01*
X2426190Y-11664285D01*
X2902380Y-10140476D02*
X2902380Y-10711904D01*
X2902380Y-10426190D02*
X1902380Y-10426190D01*
X2045238Y-10521428D01*
X2140476Y-10616666D01*
X2188095Y-10711904D01*
X2235714Y-9283333D02*
X2902380Y-9283333D01*
X1854761Y-9521428D02*
X2569047Y-9759523D01*
X2569047Y-9140476D01*
X1402380Y-11092857D02*
X926190Y-11426190D01*
X1402380Y-11664285D02*
X402380Y-11664285D01*
X402380Y-11283333D01*
X450000Y-11188095D01*
X497619Y-11140476D01*
X592857Y-11092857D01*
X735714Y-11092857D01*
X830952Y-11140476D01*
X878571Y-11188095D01*
X926190Y-11283333D01*
X926190Y-11664285D01*
X1402380Y-10140476D02*
X1402380Y-10711904D01*
X1402380Y-10426190D02*
X402380Y-10426190D01*
X545238Y-10521428D01*
X640476Y-10616666D01*
X688095Y-10711904D01*
X402380Y-9235714D02*
X402380Y-9711904D01*
X878571Y-9759523D01*
X830952Y-9711904D01*
X783333Y-9616666D01*
X783333Y-9378571D01*
X830952Y-9283333D01*
X878571Y-9235714D01*
X973809Y-9188095D01*
X1211904Y-9188095D01*
X1307142Y-9235714D01*
X1354761Y-9283333D01*
X1402380Y-9378571D01*
X1402380Y-9616666D01*
X1354761Y-9711904D01*
X1307142Y-9759523D01*
X21388095Y-16302380D02*
X21388095Y-17111904D01*
X21435714Y-17207142D01*
X21483333Y-17254761D01*
X21578571Y-17302380D01*
X21769047Y-17302380D01*
X21864285Y-17254761D01*
X21911904Y-17207142D01*
X21959523Y-17111904D01*
X21959523Y-16302380D01*
X22959523Y-17302380D02*
X22388095Y-17302380D01*
X22673809Y-17302380D02*
X22673809Y-16302380D01*
X22578571Y-16445238D01*
X22483333Y-16540476D01*
X22388095Y-16588095D01*
X22298095Y-27102380D02*
X22298095Y-27911904D01*
X22345714Y-28007142D01*
X22393333Y-28054761D01*
X22488571Y-28102380D01*
X22679047Y-28102380D01*
X22774285Y-28054761D01*
X22821904Y-28007142D01*
X22869523Y-27911904D01*
X22869523Y-27102380D01*
X23298095Y-27197619D02*
X23345714Y-27150000D01*
X23440952Y-27102380D01*
X23679047Y-27102380D01*
X23774285Y-27150000D01*
X23821904Y-27197619D01*
X23869523Y-27292857D01*
X23869523Y-27388095D01*
X23821904Y-27530952D01*
X23250476Y-28102380D01*
X23869523Y-28102380D01*
X2788095Y-1752380D02*
X2788095Y-2561904D01*
X2835714Y-2657142D01*
X2883333Y-2704761D01*
X2978571Y-2752380D01*
X3169047Y-2752380D01*
X3264285Y-2704761D01*
X3311904Y-2657142D01*
X3359523Y-2561904D01*
X3359523Y-1752380D01*
X3740476Y-1752380D02*
X4359523Y-1752380D01*
X4026190Y-2133333D01*
X4169047Y-2133333D01*
X4264285Y-2180952D01*
X4311904Y-2228571D01*
X4359523Y-2323809D01*
X4359523Y-2561904D01*
X4311904Y-2657142D01*
X4264285Y-2704761D01*
X4169047Y-2752380D01*
X3883333Y-2752380D01*
X3788095Y-2704761D01*
X3740476Y-2657142D01*
X11249095Y-38242380D02*
X11249095Y-39051904D01*
X11296714Y-39147142D01*
X11344333Y-39194761D01*
X11439571Y-39242380D01*
X11630047Y-39242380D01*
X11725285Y-39194761D01*
X11772904Y-39147142D01*
X11820523Y-39051904D01*
X11820523Y-38242380D01*
X12725285Y-38242380D02*
X12534809Y-38242380D01*
X12439571Y-38290000D01*
X12391952Y-38337619D01*
X12296714Y-38480476D01*
X12249095Y-38670952D01*
X12249095Y-39051904D01*
X12296714Y-39147142D01*
X12344333Y-39194761D01*
X12439571Y-39242380D01*
X12630047Y-39242380D01*
X12725285Y-39194761D01*
X12772904Y-39147142D01*
X12820523Y-39051904D01*
X12820523Y-38813809D01*
X12772904Y-38718571D01*
X12725285Y-38670952D01*
X12630047Y-38623333D01*
X12439571Y-38623333D01*
X12344333Y-38670952D01*
X12296714Y-38718571D01*
X12249095Y-38813809D01*
X12888095Y-32652380D02*
X12888095Y-33461904D01*
X12935714Y-33557142D01*
X12983333Y-33604761D01*
X13078571Y-33652380D01*
X13269047Y-33652380D01*
X13364285Y-33604761D01*
X13411904Y-33557142D01*
X13459523Y-33461904D01*
X13459523Y-32652380D01*
X13840476Y-32652380D02*
X14507142Y-32652380D01*
X14078571Y-33652380D01*
X21688095Y-35802380D02*
X21688095Y-36611904D01*
X21735714Y-36707142D01*
X21783333Y-36754761D01*
X21878571Y-36802380D01*
X22069047Y-36802380D01*
X22164285Y-36754761D01*
X22211904Y-36707142D01*
X22259523Y-36611904D01*
X22259523Y-35802380D01*
X22783333Y-36802380D02*
X22973809Y-36802380D01*
X23069047Y-36754761D01*
X23116666Y-36707142D01*
X23211904Y-36564285D01*
X23259523Y-36373809D01*
X23259523Y-35992857D01*
X23211904Y-35897619D01*
X23164285Y-35850000D01*
X23069047Y-35802380D01*
X22878571Y-35802380D01*
X22783333Y-35850000D01*
X22735714Y-35897619D01*
X22688095Y-35992857D01*
X22688095Y-36230952D01*
X22735714Y-36326190D01*
X22783333Y-36373809D01*
X22878571Y-36421428D01*
X23069047Y-36421428D01*
X23164285Y-36373809D01*
X23211904Y-36326190D01*
X23259523Y-36230952D01*
%LPC*%
D15*
X-24449000Y-12197000D03*
X-23199000Y-12197000D03*
X-21949000Y-12197000D03*
X-20699000Y-12197000D03*
X-19449000Y-12197000D03*
X-18199000Y-12197000D03*
X-16949000Y-12197000D03*
X-15699000Y-12197000D03*
X-14449000Y-24197000D03*
X-15699000Y-24197000D03*
X-16949000Y-24197000D03*
X-18199000Y-24197000D03*
X-19449000Y-24197000D03*
X-20699000Y-24197000D03*
X-21949000Y-24197000D03*
X-23199000Y-24197000D03*
D16*
X-11899000Y-13822000D03*
X-11899000Y-15072000D03*
X-11899000Y-16322000D03*
X-11899000Y-17572000D03*
X-11899000Y-18822000D03*
X-11899000Y-20072000D03*
X-11899000Y-21322000D03*
D15*
X-14449000Y-12197000D03*
D16*
X-11899000Y-22572000D03*
D15*
X-24449000Y-24197000D03*
D17*
X-3800000Y-35250000D03*
X-4900000Y-35250000D03*
X-6000000Y-35250000D03*
X-7100000Y-35250000D03*
X-8200000Y-35250000D03*
X-9300000Y-35250000D03*
X-10400000Y-35250000D03*
X-11500000Y-35250000D03*
D18*
X-13800000Y-36250000D03*
D19*
X-13800000Y-45850000D03*
X1700000Y-45850000D03*
D20*
X800000Y-36250000D03*
D21*
X-11000000Y-46250000D03*
X-3000000Y-46250000D03*
D17*
X-12600000Y-35250000D03*
D22*
X21895000Y-1520000D03*
X13285000Y-1520000D03*
D23*
X17030000Y-7470000D03*
X17030000Y-11370000D03*
X15760000Y-7470000D03*
X15760000Y-11370000D03*
X14490000Y-7470000D03*
X14490000Y-11370000D03*
X13220000Y-7470000D03*
X13220000Y-11370000D03*
X11950000Y-7470000D03*
X11950000Y-11370000D03*
G36*
G01*
X1265500Y-19808000D02*
X1265500Y-18483000D01*
G75*
G02*
X1340500Y-18408000I75000J0D01*
G01*
X1490500Y-18408000D01*
G75*
G02*
X1565500Y-18483000I0J-75000D01*
G01*
X1565500Y-19808000D01*
G75*
G02*
X1490500Y-19883000I-75000J0D01*
G01*
X1340500Y-19883000D01*
G75*
G02*
X1265500Y-19808000I0J75000D01*
G01*
G37*
G36*
G01*
X1765500Y-19808000D02*
X1765500Y-18483000D01*
G75*
G02*
X1840500Y-18408000I75000J0D01*
G01*
X1990500Y-18408000D01*
G75*
G02*
X2065500Y-18483000I0J-75000D01*
G01*
X2065500Y-19808000D01*
G75*
G02*
X1990500Y-19883000I-75000J0D01*
G01*
X1840500Y-19883000D01*
G75*
G02*
X1765500Y-19808000I0J75000D01*
G01*
G37*
G36*
G01*
X2265500Y-19808000D02*
X2265500Y-18483000D01*
G75*
G02*
X2340500Y-18408000I75000J0D01*
G01*
X2490500Y-18408000D01*
G75*
G02*
X2565500Y-18483000I0J-75000D01*
G01*
X2565500Y-19808000D01*
G75*
G02*
X2490500Y-19883000I-75000J0D01*
G01*
X2340500Y-19883000D01*
G75*
G02*
X2265500Y-19808000I0J75000D01*
G01*
G37*
G36*
G01*
X2765500Y-19808000D02*
X2765500Y-18483000D01*
G75*
G02*
X2840500Y-18408000I75000J0D01*
G01*
X2990500Y-18408000D01*
G75*
G02*
X3065500Y-18483000I0J-75000D01*
G01*
X3065500Y-19808000D01*
G75*
G02*
X2990500Y-19883000I-75000J0D01*
G01*
X2840500Y-19883000D01*
G75*
G02*
X2765500Y-19808000I0J75000D01*
G01*
G37*
G36*
G01*
X3265500Y-19808000D02*
X3265500Y-18483000D01*
G75*
G02*
X3340500Y-18408000I75000J0D01*
G01*
X3490500Y-18408000D01*
G75*
G02*
X3565500Y-18483000I0J-75000D01*
G01*
X3565500Y-19808000D01*
G75*
G02*
X3490500Y-19883000I-75000J0D01*
G01*
X3340500Y-19883000D01*
G75*
G02*
X3265500Y-19808000I0J75000D01*
G01*
G37*
G36*
G01*
X3765500Y-19808000D02*
X3765500Y-18483000D01*
G75*
G02*
X3840500Y-18408000I75000J0D01*
G01*
X3990500Y-18408000D01*
G75*
G02*
X4065500Y-18483000I0J-75000D01*
G01*
X4065500Y-19808000D01*
G75*
G02*
X3990500Y-19883000I-75000J0D01*
G01*
X3840500Y-19883000D01*
G75*
G02*
X3765500Y-19808000I0J75000D01*
G01*
G37*
G36*
G01*
X4265500Y-19808000D02*
X4265500Y-18483000D01*
G75*
G02*
X4340500Y-18408000I75000J0D01*
G01*
X4490500Y-18408000D01*
G75*
G02*
X4565500Y-18483000I0J-75000D01*
G01*
X4565500Y-19808000D01*
G75*
G02*
X4490500Y-19883000I-75000J0D01*
G01*
X4340500Y-19883000D01*
G75*
G02*
X4265500Y-19808000I0J75000D01*
G01*
G37*
G36*
G01*
X4765500Y-19808000D02*
X4765500Y-18483000D01*
G75*
G02*
X4840500Y-18408000I75000J0D01*
G01*
X4990500Y-18408000D01*
G75*
G02*
X5065500Y-18483000I0J-75000D01*
G01*
X5065500Y-19808000D01*
G75*
G02*
X4990500Y-19883000I-75000J0D01*
G01*
X4840500Y-19883000D01*
G75*
G02*
X4765500Y-19808000I0J75000D01*
G01*
G37*
G36*
G01*
X5265500Y-19808000D02*
X5265500Y-18483000D01*
G75*
G02*
X5340500Y-18408000I75000J0D01*
G01*
X5490500Y-18408000D01*
G75*
G02*
X5565500Y-18483000I0J-75000D01*
G01*
X5565500Y-19808000D01*
G75*
G02*
X5490500Y-19883000I-75000J0D01*
G01*
X5340500Y-19883000D01*
G75*
G02*
X5265500Y-19808000I0J75000D01*
G01*
G37*
G36*
G01*
X5765500Y-19808000D02*
X5765500Y-18483000D01*
G75*
G02*
X5840500Y-18408000I75000J0D01*
G01*
X5990500Y-18408000D01*
G75*
G02*
X6065500Y-18483000I0J-75000D01*
G01*
X6065500Y-19808000D01*
G75*
G02*
X5990500Y-19883000I-75000J0D01*
G01*
X5840500Y-19883000D01*
G75*
G02*
X5765500Y-19808000I0J75000D01*
G01*
G37*
G36*
G01*
X6265500Y-19808000D02*
X6265500Y-18483000D01*
G75*
G02*
X6340500Y-18408000I75000J0D01*
G01*
X6490500Y-18408000D01*
G75*
G02*
X6565500Y-18483000I0J-75000D01*
G01*
X6565500Y-19808000D01*
G75*
G02*
X6490500Y-19883000I-75000J0D01*
G01*
X6340500Y-19883000D01*
G75*
G02*
X6265500Y-19808000I0J75000D01*
G01*
G37*
G36*
G01*
X6765500Y-19808000D02*
X6765500Y-18483000D01*
G75*
G02*
X6840500Y-18408000I75000J0D01*
G01*
X6990500Y-18408000D01*
G75*
G02*
X7065500Y-18483000I0J-75000D01*
G01*
X7065500Y-19808000D01*
G75*
G02*
X6990500Y-19883000I-75000J0D01*
G01*
X6840500Y-19883000D01*
G75*
G02*
X6765500Y-19808000I0J75000D01*
G01*
G37*
G36*
G01*
X7590500Y-20633000D02*
X7590500Y-20483000D01*
G75*
G02*
X7665500Y-20408000I75000J0D01*
G01*
X8990500Y-20408000D01*
G75*
G02*
X9065500Y-20483000I0J-75000D01*
G01*
X9065500Y-20633000D01*
G75*
G02*
X8990500Y-20708000I-75000J0D01*
G01*
X7665500Y-20708000D01*
G75*
G02*
X7590500Y-20633000I0J75000D01*
G01*
G37*
G36*
G01*
X7590500Y-21133000D02*
X7590500Y-20983000D01*
G75*
G02*
X7665500Y-20908000I75000J0D01*
G01*
X8990500Y-20908000D01*
G75*
G02*
X9065500Y-20983000I0J-75000D01*
G01*
X9065500Y-21133000D01*
G75*
G02*
X8990500Y-21208000I-75000J0D01*
G01*
X7665500Y-21208000D01*
G75*
G02*
X7590500Y-21133000I0J75000D01*
G01*
G37*
G36*
G01*
X7590500Y-21633000D02*
X7590500Y-21483000D01*
G75*
G02*
X7665500Y-21408000I75000J0D01*
G01*
X8990500Y-21408000D01*
G75*
G02*
X9065500Y-21483000I0J-75000D01*
G01*
X9065500Y-21633000D01*
G75*
G02*
X8990500Y-21708000I-75000J0D01*
G01*
X7665500Y-21708000D01*
G75*
G02*
X7590500Y-21633000I0J75000D01*
G01*
G37*
G36*
G01*
X7590500Y-22133000D02*
X7590500Y-21983000D01*
G75*
G02*
X7665500Y-21908000I75000J0D01*
G01*
X8990500Y-21908000D01*
G75*
G02*
X9065500Y-21983000I0J-75000D01*
G01*
X9065500Y-22133000D01*
G75*
G02*
X8990500Y-22208000I-75000J0D01*
G01*
X7665500Y-22208000D01*
G75*
G02*
X7590500Y-22133000I0J75000D01*
G01*
G37*
G36*
G01*
X7590500Y-22633000D02*
X7590500Y-22483000D01*
G75*
G02*
X7665500Y-22408000I75000J0D01*
G01*
X8990500Y-22408000D01*
G75*
G02*
X9065500Y-22483000I0J-75000D01*
G01*
X9065500Y-22633000D01*
G75*
G02*
X8990500Y-22708000I-75000J0D01*
G01*
X7665500Y-22708000D01*
G75*
G02*
X7590500Y-22633000I0J75000D01*
G01*
G37*
G36*
G01*
X7590500Y-23133000D02*
X7590500Y-22983000D01*
G75*
G02*
X7665500Y-22908000I75000J0D01*
G01*
X8990500Y-22908000D01*
G75*
G02*
X9065500Y-22983000I0J-75000D01*
G01*
X9065500Y-23133000D01*
G75*
G02*
X8990500Y-23208000I-75000J0D01*
G01*
X7665500Y-23208000D01*
G75*
G02*
X7590500Y-23133000I0J75000D01*
G01*
G37*
G36*
G01*
X7590500Y-23633000D02*
X7590500Y-23483000D01*
G75*
G02*
X7665500Y-23408000I75000J0D01*
G01*
X8990500Y-23408000D01*
G75*
G02*
X9065500Y-23483000I0J-75000D01*
G01*
X9065500Y-23633000D01*
G75*
G02*
X8990500Y-23708000I-75000J0D01*
G01*
X7665500Y-23708000D01*
G75*
G02*
X7590500Y-23633000I0J75000D01*
G01*
G37*
G36*
G01*
X7590500Y-24133000D02*
X7590500Y-23983000D01*
G75*
G02*
X7665500Y-23908000I75000J0D01*
G01*
X8990500Y-23908000D01*
G75*
G02*
X9065500Y-23983000I0J-75000D01*
G01*
X9065500Y-24133000D01*
G75*
G02*
X8990500Y-24208000I-75000J0D01*
G01*
X7665500Y-24208000D01*
G75*
G02*
X7590500Y-24133000I0J75000D01*
G01*
G37*
G36*
G01*
X7590500Y-24633000D02*
X7590500Y-24483000D01*
G75*
G02*
X7665500Y-24408000I75000J0D01*
G01*
X8990500Y-24408000D01*
G75*
G02*
X9065500Y-24483000I0J-75000D01*
G01*
X9065500Y-24633000D01*
G75*
G02*
X8990500Y-24708000I-75000J0D01*
G01*
X7665500Y-24708000D01*
G75*
G02*
X7590500Y-24633000I0J75000D01*
G01*
G37*
G36*
G01*
X7590500Y-25133000D02*
X7590500Y-24983000D01*
G75*
G02*
X7665500Y-24908000I75000J0D01*
G01*
X8990500Y-24908000D01*
G75*
G02*
X9065500Y-24983000I0J-75000D01*
G01*
X9065500Y-25133000D01*
G75*
G02*
X8990500Y-25208000I-75000J0D01*
G01*
X7665500Y-25208000D01*
G75*
G02*
X7590500Y-25133000I0J75000D01*
G01*
G37*
G36*
G01*
X7590500Y-25633000D02*
X7590500Y-25483000D01*
G75*
G02*
X7665500Y-25408000I75000J0D01*
G01*
X8990500Y-25408000D01*
G75*
G02*
X9065500Y-25483000I0J-75000D01*
G01*
X9065500Y-25633000D01*
G75*
G02*
X8990500Y-25708000I-75000J0D01*
G01*
X7665500Y-25708000D01*
G75*
G02*
X7590500Y-25633000I0J75000D01*
G01*
G37*
G36*
G01*
X7590500Y-26133000D02*
X7590500Y-25983000D01*
G75*
G02*
X7665500Y-25908000I75000J0D01*
G01*
X8990500Y-25908000D01*
G75*
G02*
X9065500Y-25983000I0J-75000D01*
G01*
X9065500Y-26133000D01*
G75*
G02*
X8990500Y-26208000I-75000J0D01*
G01*
X7665500Y-26208000D01*
G75*
G02*
X7590500Y-26133000I0J75000D01*
G01*
G37*
G36*
G01*
X6765500Y-28133000D02*
X6765500Y-26808000D01*
G75*
G02*
X6840500Y-26733000I75000J0D01*
G01*
X6990500Y-26733000D01*
G75*
G02*
X7065500Y-26808000I0J-75000D01*
G01*
X7065500Y-28133000D01*
G75*
G02*
X6990500Y-28208000I-75000J0D01*
G01*
X6840500Y-28208000D01*
G75*
G02*
X6765500Y-28133000I0J75000D01*
G01*
G37*
G36*
G01*
X6265500Y-28133000D02*
X6265500Y-26808000D01*
G75*
G02*
X6340500Y-26733000I75000J0D01*
G01*
X6490500Y-26733000D01*
G75*
G02*
X6565500Y-26808000I0J-75000D01*
G01*
X6565500Y-28133000D01*
G75*
G02*
X6490500Y-28208000I-75000J0D01*
G01*
X6340500Y-28208000D01*
G75*
G02*
X6265500Y-28133000I0J75000D01*
G01*
G37*
G36*
G01*
X5765500Y-28133000D02*
X5765500Y-26808000D01*
G75*
G02*
X5840500Y-26733000I75000J0D01*
G01*
X5990500Y-26733000D01*
G75*
G02*
X6065500Y-26808000I0J-75000D01*
G01*
X6065500Y-28133000D01*
G75*
G02*
X5990500Y-28208000I-75000J0D01*
G01*
X5840500Y-28208000D01*
G75*
G02*
X5765500Y-28133000I0J75000D01*
G01*
G37*
G36*
G01*
X5265500Y-28133000D02*
X5265500Y-26808000D01*
G75*
G02*
X5340500Y-26733000I75000J0D01*
G01*
X5490500Y-26733000D01*
G75*
G02*
X5565500Y-26808000I0J-75000D01*
G01*
X5565500Y-28133000D01*
G75*
G02*
X5490500Y-28208000I-75000J0D01*
G01*
X5340500Y-28208000D01*
G75*
G02*
X5265500Y-28133000I0J75000D01*
G01*
G37*
G36*
G01*
X4765500Y-28133000D02*
X4765500Y-26808000D01*
G75*
G02*
X4840500Y-26733000I75000J0D01*
G01*
X4990500Y-26733000D01*
G75*
G02*
X5065500Y-26808000I0J-75000D01*
G01*
X5065500Y-28133000D01*
G75*
G02*
X4990500Y-28208000I-75000J0D01*
G01*
X4840500Y-28208000D01*
G75*
G02*
X4765500Y-28133000I0J75000D01*
G01*
G37*
G36*
G01*
X4265500Y-28133000D02*
X4265500Y-26808000D01*
G75*
G02*
X4340500Y-26733000I75000J0D01*
G01*
X4490500Y-26733000D01*
G75*
G02*
X4565500Y-26808000I0J-75000D01*
G01*
X4565500Y-28133000D01*
G75*
G02*
X4490500Y-28208000I-75000J0D01*
G01*
X4340500Y-28208000D01*
G75*
G02*
X4265500Y-28133000I0J75000D01*
G01*
G37*
G36*
G01*
X3765500Y-28133000D02*
X3765500Y-26808000D01*
G75*
G02*
X3840500Y-26733000I75000J0D01*
G01*
X3990500Y-26733000D01*
G75*
G02*
X4065500Y-26808000I0J-75000D01*
G01*
X4065500Y-28133000D01*
G75*
G02*
X3990500Y-28208000I-75000J0D01*
G01*
X3840500Y-28208000D01*
G75*
G02*
X3765500Y-28133000I0J75000D01*
G01*
G37*
G36*
G01*
X3265500Y-28133000D02*
X3265500Y-26808000D01*
G75*
G02*
X3340500Y-26733000I75000J0D01*
G01*
X3490500Y-26733000D01*
G75*
G02*
X3565500Y-26808000I0J-75000D01*
G01*
X3565500Y-28133000D01*
G75*
G02*
X3490500Y-28208000I-75000J0D01*
G01*
X3340500Y-28208000D01*
G75*
G02*
X3265500Y-28133000I0J75000D01*
G01*
G37*
G36*
G01*
X2765500Y-28133000D02*
X2765500Y-26808000D01*
G75*
G02*
X2840500Y-26733000I75000J0D01*
G01*
X2990500Y-26733000D01*
G75*
G02*
X3065500Y-26808000I0J-75000D01*
G01*
X3065500Y-28133000D01*
G75*
G02*
X2990500Y-28208000I-75000J0D01*
G01*
X2840500Y-28208000D01*
G75*
G02*
X2765500Y-28133000I0J75000D01*
G01*
G37*
G36*
G01*
X2265500Y-28133000D02*
X2265500Y-26808000D01*
G75*
G02*
X2340500Y-26733000I75000J0D01*
G01*
X2490500Y-26733000D01*
G75*
G02*
X2565500Y-26808000I0J-75000D01*
G01*
X2565500Y-28133000D01*
G75*
G02*
X2490500Y-28208000I-75000J0D01*
G01*
X2340500Y-28208000D01*
G75*
G02*
X2265500Y-28133000I0J75000D01*
G01*
G37*
G36*
G01*
X1765500Y-28133000D02*
X1765500Y-26808000D01*
G75*
G02*
X1840500Y-26733000I75000J0D01*
G01*
X1990500Y-26733000D01*
G75*
G02*
X2065500Y-26808000I0J-75000D01*
G01*
X2065500Y-28133000D01*
G75*
G02*
X1990500Y-28208000I-75000J0D01*
G01*
X1840500Y-28208000D01*
G75*
G02*
X1765500Y-28133000I0J75000D01*
G01*
G37*
G36*
G01*
X1265500Y-28133000D02*
X1265500Y-26808000D01*
G75*
G02*
X1340500Y-26733000I75000J0D01*
G01*
X1490500Y-26733000D01*
G75*
G02*
X1565500Y-26808000I0J-75000D01*
G01*
X1565500Y-28133000D01*
G75*
G02*
X1490500Y-28208000I-75000J0D01*
G01*
X1340500Y-28208000D01*
G75*
G02*
X1265500Y-28133000I0J75000D01*
G01*
G37*
G36*
G01*
X-734500Y-26133000D02*
X-734500Y-25983000D01*
G75*
G02*
X-659500Y-25908000I75000J0D01*
G01*
X665500Y-25908000D01*
G75*
G02*
X740500Y-25983000I0J-75000D01*
G01*
X740500Y-26133000D01*
G75*
G02*
X665500Y-26208000I-75000J0D01*
G01*
X-659500Y-26208000D01*
G75*
G02*
X-734500Y-26133000I0J75000D01*
G01*
G37*
G36*
G01*
X-734500Y-25633000D02*
X-734500Y-25483000D01*
G75*
G02*
X-659500Y-25408000I75000J0D01*
G01*
X665500Y-25408000D01*
G75*
G02*
X740500Y-25483000I0J-75000D01*
G01*
X740500Y-25633000D01*
G75*
G02*
X665500Y-25708000I-75000J0D01*
G01*
X-659500Y-25708000D01*
G75*
G02*
X-734500Y-25633000I0J75000D01*
G01*
G37*
G36*
G01*
X-734500Y-25133000D02*
X-734500Y-24983000D01*
G75*
G02*
X-659500Y-24908000I75000J0D01*
G01*
X665500Y-24908000D01*
G75*
G02*
X740500Y-24983000I0J-75000D01*
G01*
X740500Y-25133000D01*
G75*
G02*
X665500Y-25208000I-75000J0D01*
G01*
X-659500Y-25208000D01*
G75*
G02*
X-734500Y-25133000I0J75000D01*
G01*
G37*
G36*
G01*
X-734500Y-24633000D02*
X-734500Y-24483000D01*
G75*
G02*
X-659500Y-24408000I75000J0D01*
G01*
X665500Y-24408000D01*
G75*
G02*
X740500Y-24483000I0J-75000D01*
G01*
X740500Y-24633000D01*
G75*
G02*
X665500Y-24708000I-75000J0D01*
G01*
X-659500Y-24708000D01*
G75*
G02*
X-734500Y-24633000I0J75000D01*
G01*
G37*
G36*
G01*
X-734500Y-24133000D02*
X-734500Y-23983000D01*
G75*
G02*
X-659500Y-23908000I75000J0D01*
G01*
X665500Y-23908000D01*
G75*
G02*
X740500Y-23983000I0J-75000D01*
G01*
X740500Y-24133000D01*
G75*
G02*
X665500Y-24208000I-75000J0D01*
G01*
X-659500Y-24208000D01*
G75*
G02*
X-734500Y-24133000I0J75000D01*
G01*
G37*
G36*
G01*
X-734500Y-23633000D02*
X-734500Y-23483000D01*
G75*
G02*
X-659500Y-23408000I75000J0D01*
G01*
X665500Y-23408000D01*
G75*
G02*
X740500Y-23483000I0J-75000D01*
G01*
X740500Y-23633000D01*
G75*
G02*
X665500Y-23708000I-75000J0D01*
G01*
X-659500Y-23708000D01*
G75*
G02*
X-734500Y-23633000I0J75000D01*
G01*
G37*
G36*
G01*
X-734500Y-23133000D02*
X-734500Y-22983000D01*
G75*
G02*
X-659500Y-22908000I75000J0D01*
G01*
X665500Y-22908000D01*
G75*
G02*
X740500Y-22983000I0J-75000D01*
G01*
X740500Y-23133000D01*
G75*
G02*
X665500Y-23208000I-75000J0D01*
G01*
X-659500Y-23208000D01*
G75*
G02*
X-734500Y-23133000I0J75000D01*
G01*
G37*
G36*
G01*
X-734500Y-22633000D02*
X-734500Y-22483000D01*
G75*
G02*
X-659500Y-22408000I75000J0D01*
G01*
X665500Y-22408000D01*
G75*
G02*
X740500Y-22483000I0J-75000D01*
G01*
X740500Y-22633000D01*
G75*
G02*
X665500Y-22708000I-75000J0D01*
G01*
X-659500Y-22708000D01*
G75*
G02*
X-734500Y-22633000I0J75000D01*
G01*
G37*
G36*
G01*
X-734500Y-22133000D02*
X-734500Y-21983000D01*
G75*
G02*
X-659500Y-21908000I75000J0D01*
G01*
X665500Y-21908000D01*
G75*
G02*
X740500Y-21983000I0J-75000D01*
G01*
X740500Y-22133000D01*
G75*
G02*
X665500Y-22208000I-75000J0D01*
G01*
X-659500Y-22208000D01*
G75*
G02*
X-734500Y-22133000I0J75000D01*
G01*
G37*
G36*
G01*
X-734500Y-21633000D02*
X-734500Y-21483000D01*
G75*
G02*
X-659500Y-21408000I75000J0D01*
G01*
X665500Y-21408000D01*
G75*
G02*
X740500Y-21483000I0J-75000D01*
G01*
X740500Y-21633000D01*
G75*
G02*
X665500Y-21708000I-75000J0D01*
G01*
X-659500Y-21708000D01*
G75*
G02*
X-734500Y-21633000I0J75000D01*
G01*
G37*
G36*
G01*
X-734500Y-21133000D02*
X-734500Y-20983000D01*
G75*
G02*
X-659500Y-20908000I75000J0D01*
G01*
X665500Y-20908000D01*
G75*
G02*
X740500Y-20983000I0J-75000D01*
G01*
X740500Y-21133000D01*
G75*
G02*
X665500Y-21208000I-75000J0D01*
G01*
X-659500Y-21208000D01*
G75*
G02*
X-734500Y-21133000I0J75000D01*
G01*
G37*
G36*
G01*
X-734500Y-20633000D02*
X-734500Y-20483000D01*
G75*
G02*
X-659500Y-20408000I75000J0D01*
G01*
X665500Y-20408000D01*
G75*
G02*
X740500Y-20483000I0J-75000D01*
G01*
X740500Y-20633000D01*
G75*
G02*
X665500Y-20708000I-75000J0D01*
G01*
X-659500Y-20708000D01*
G75*
G02*
X-734500Y-20633000I0J75000D01*
G01*
G37*
D24*
X-21644000Y-1845000D03*
X30934000Y-1845000D03*
X30934000Y-44898000D03*
X-21644000Y-44898000D03*
G36*
G01*
X21260000Y-14420000D02*
X21260000Y-13920000D01*
G75*
G02*
X21485000Y-13695000I225000J0D01*
G01*
X21935000Y-13695000D01*
G75*
G02*
X22160000Y-13920000I0J-225000D01*
G01*
X22160000Y-14420000D01*
G75*
G02*
X21935000Y-14645000I-225000J0D01*
G01*
X21485000Y-14645000D01*
G75*
G02*
X21260000Y-14420000I0J225000D01*
G01*
G37*
G36*
G01*
X22810000Y-14420000D02*
X22810000Y-13920000D01*
G75*
G02*
X23035000Y-13695000I225000J0D01*
G01*
X23485000Y-13695000D01*
G75*
G02*
X23710000Y-13920000I0J-225000D01*
G01*
X23710000Y-14420000D01*
G75*
G02*
X23485000Y-14645000I-225000J0D01*
G01*
X23035000Y-14645000D01*
G75*
G02*
X22810000Y-14420000I0J225000D01*
G01*
G37*
G36*
G01*
X24842000Y-16661000D02*
X25342000Y-16661000D01*
G75*
G02*
X25567000Y-16886000I0J-225000D01*
G01*
X25567000Y-17336000D01*
G75*
G02*
X25342000Y-17561000I-225000J0D01*
G01*
X24842000Y-17561000D01*
G75*
G02*
X24617000Y-17336000I0J225000D01*
G01*
X24617000Y-16886000D01*
G75*
G02*
X24842000Y-16661000I225000J0D01*
G01*
G37*
G36*
G01*
X24842000Y-15111000D02*
X25342000Y-15111000D01*
G75*
G02*
X25567000Y-15336000I0J-225000D01*
G01*
X25567000Y-15786000D01*
G75*
G02*
X25342000Y-16011000I-225000J0D01*
G01*
X24842000Y-16011000D01*
G75*
G02*
X24617000Y-15786000I0J225000D01*
G01*
X24617000Y-15336000D01*
G75*
G02*
X24842000Y-15111000I225000J0D01*
G01*
G37*
G36*
G01*
X4215000Y-6070000D02*
X4215000Y-5570000D01*
G75*
G02*
X4440000Y-5345000I225000J0D01*
G01*
X4890000Y-5345000D01*
G75*
G02*
X5115000Y-5570000I0J-225000D01*
G01*
X5115000Y-6070000D01*
G75*
G02*
X4890000Y-6295000I-225000J0D01*
G01*
X4440000Y-6295000D01*
G75*
G02*
X4215000Y-6070000I0J225000D01*
G01*
G37*
G36*
G01*
X2665000Y-6070000D02*
X2665000Y-5570000D01*
G75*
G02*
X2890000Y-5345000I225000J0D01*
G01*
X3340000Y-5345000D01*
G75*
G02*
X3565000Y-5570000I0J-225000D01*
G01*
X3565000Y-6070000D01*
G75*
G02*
X3340000Y-6295000I-225000J0D01*
G01*
X2890000Y-6295000D01*
G75*
G02*
X2665000Y-6070000I0J225000D01*
G01*
G37*
G36*
G01*
X5594000Y-352000D02*
X5594000Y-852000D01*
G75*
G02*
X5369000Y-1077000I-225000J0D01*
G01*
X4919000Y-1077000D01*
G75*
G02*
X4694000Y-852000I0J225000D01*
G01*
X4694000Y-352000D01*
G75*
G02*
X4919000Y-127000I225000J0D01*
G01*
X5369000Y-127000D01*
G75*
G02*
X5594000Y-352000I0J-225000D01*
G01*
G37*
G36*
G01*
X4044000Y-352000D02*
X4044000Y-852000D01*
G75*
G02*
X3819000Y-1077000I-225000J0D01*
G01*
X3369000Y-1077000D01*
G75*
G02*
X3144000Y-852000I0J225000D01*
G01*
X3144000Y-352000D01*
G75*
G02*
X3369000Y-127000I225000J0D01*
G01*
X3819000Y-127000D01*
G75*
G02*
X4044000Y-352000I0J-225000D01*
G01*
G37*
G36*
G01*
X8233000Y-16573000D02*
X8233000Y-16073000D01*
G75*
G02*
X8458000Y-15848000I225000J0D01*
G01*
X8908000Y-15848000D01*
G75*
G02*
X9133000Y-16073000I0J-225000D01*
G01*
X9133000Y-16573000D01*
G75*
G02*
X8908000Y-16798000I-225000J0D01*
G01*
X8458000Y-16798000D01*
G75*
G02*
X8233000Y-16573000I0J225000D01*
G01*
G37*
G36*
G01*
X9783000Y-16573000D02*
X9783000Y-16073000D01*
G75*
G02*
X10008000Y-15848000I225000J0D01*
G01*
X10458000Y-15848000D01*
G75*
G02*
X10683000Y-16073000I0J-225000D01*
G01*
X10683000Y-16573000D01*
G75*
G02*
X10458000Y-16798000I-225000J0D01*
G01*
X10008000Y-16798000D01*
G75*
G02*
X9783000Y-16573000I0J225000D01*
G01*
G37*
G36*
G01*
X-7275000Y-18810000D02*
X-7275000Y-18310000D01*
G75*
G02*
X-7050000Y-18085000I225000J0D01*
G01*
X-6600000Y-18085000D01*
G75*
G02*
X-6375000Y-18310000I0J-225000D01*
G01*
X-6375000Y-18810000D01*
G75*
G02*
X-6600000Y-19035000I-225000J0D01*
G01*
X-7050000Y-19035000D01*
G75*
G02*
X-7275000Y-18810000I0J225000D01*
G01*
G37*
G36*
G01*
X-8825000Y-18810000D02*
X-8825000Y-18310000D01*
G75*
G02*
X-8600000Y-18085000I225000J0D01*
G01*
X-8150000Y-18085000D01*
G75*
G02*
X-7925000Y-18310000I0J-225000D01*
G01*
X-7925000Y-18810000D01*
G75*
G02*
X-8150000Y-19035000I-225000J0D01*
G01*
X-8600000Y-19035000D01*
G75*
G02*
X-8825000Y-18810000I0J225000D01*
G01*
G37*
G36*
G01*
X8233000Y-19621000D02*
X8233000Y-19121000D01*
G75*
G02*
X8458000Y-18896000I225000J0D01*
G01*
X8908000Y-18896000D01*
G75*
G02*
X9133000Y-19121000I0J-225000D01*
G01*
X9133000Y-19621000D01*
G75*
G02*
X8908000Y-19846000I-225000J0D01*
G01*
X8458000Y-19846000D01*
G75*
G02*
X8233000Y-19621000I0J225000D01*
G01*
G37*
G36*
G01*
X9783000Y-19621000D02*
X9783000Y-19121000D01*
G75*
G02*
X10008000Y-18896000I225000J0D01*
G01*
X10458000Y-18896000D01*
G75*
G02*
X10683000Y-19121000I0J-225000D01*
G01*
X10683000Y-19621000D01*
G75*
G02*
X10458000Y-19846000I-225000J0D01*
G01*
X10008000Y-19846000D01*
G75*
G02*
X9783000Y-19621000I0J225000D01*
G01*
G37*
G36*
G01*
X-6335000Y-24074000D02*
X-6335000Y-24574000D01*
G75*
G02*
X-6560000Y-24799000I-225000J0D01*
G01*
X-7010000Y-24799000D01*
G75*
G02*
X-7235000Y-24574000I0J225000D01*
G01*
X-7235000Y-24074000D01*
G75*
G02*
X-7010000Y-23849000I225000J0D01*
G01*
X-6560000Y-23849000D01*
G75*
G02*
X-6335000Y-24074000I0J-225000D01*
G01*
G37*
G36*
G01*
X-7885000Y-24074000D02*
X-7885000Y-24574000D01*
G75*
G02*
X-8110000Y-24799000I-225000J0D01*
G01*
X-8560000Y-24799000D01*
G75*
G02*
X-8785000Y-24574000I0J225000D01*
G01*
X-8785000Y-24074000D01*
G75*
G02*
X-8560000Y-23849000I225000J0D01*
G01*
X-8110000Y-23849000D01*
G75*
G02*
X-7885000Y-24074000I0J-225000D01*
G01*
G37*
G36*
G01*
X9783000Y-18097000D02*
X9783000Y-17597000D01*
G75*
G02*
X10008000Y-17372000I225000J0D01*
G01*
X10458000Y-17372000D01*
G75*
G02*
X10683000Y-17597000I0J-225000D01*
G01*
X10683000Y-18097000D01*
G75*
G02*
X10458000Y-18322000I-225000J0D01*
G01*
X10008000Y-18322000D01*
G75*
G02*
X9783000Y-18097000I0J225000D01*
G01*
G37*
G36*
G01*
X8233000Y-18097000D02*
X8233000Y-17597000D01*
G75*
G02*
X8458000Y-17372000I225000J0D01*
G01*
X8908000Y-17372000D01*
G75*
G02*
X9133000Y-17597000I0J-225000D01*
G01*
X9133000Y-18097000D01*
G75*
G02*
X8908000Y-18322000I-225000J0D01*
G01*
X8458000Y-18322000D01*
G75*
G02*
X8233000Y-18097000I0J225000D01*
G01*
G37*
G36*
G01*
X-1074000Y-19212000D02*
X-1574000Y-19212000D01*
G75*
G02*
X-1799000Y-18987000I0J225000D01*
G01*
X-1799000Y-18537000D01*
G75*
G02*
X-1574000Y-18312000I225000J0D01*
G01*
X-1074000Y-18312000D01*
G75*
G02*
X-849000Y-18537000I0J-225000D01*
G01*
X-849000Y-18987000D01*
G75*
G02*
X-1074000Y-19212000I-225000J0D01*
G01*
G37*
G36*
G01*
X-1074000Y-17662000D02*
X-1574000Y-17662000D01*
G75*
G02*
X-1799000Y-17437000I0J225000D01*
G01*
X-1799000Y-16987000D01*
G75*
G02*
X-1574000Y-16762000I225000J0D01*
G01*
X-1074000Y-16762000D01*
G75*
G02*
X-849000Y-16987000I0J-225000D01*
G01*
X-849000Y-17437000D01*
G75*
G02*
X-1074000Y-17662000I-225000J0D01*
G01*
G37*
G36*
G01*
X6238000Y-29916000D02*
X6238000Y-30416000D01*
G75*
G02*
X6013000Y-30641000I-225000J0D01*
G01*
X5563000Y-30641000D01*
G75*
G02*
X5338000Y-30416000I0J225000D01*
G01*
X5338000Y-29916000D01*
G75*
G02*
X5563000Y-29691000I225000J0D01*
G01*
X6013000Y-29691000D01*
G75*
G02*
X6238000Y-29916000I0J-225000D01*
G01*
G37*
G36*
G01*
X7788000Y-29916000D02*
X7788000Y-30416000D01*
G75*
G02*
X7563000Y-30641000I-225000J0D01*
G01*
X7113000Y-30641000D01*
G75*
G02*
X6888000Y-30416000I0J225000D01*
G01*
X6888000Y-29916000D01*
G75*
G02*
X7113000Y-29691000I225000J0D01*
G01*
X7563000Y-29691000D01*
G75*
G02*
X7788000Y-29916000I0J-225000D01*
G01*
G37*
G36*
G01*
X450000Y-19212000D02*
X-50000Y-19212000D01*
G75*
G02*
X-275000Y-18987000I0J225000D01*
G01*
X-275000Y-18537000D01*
G75*
G02*
X-50000Y-18312000I225000J0D01*
G01*
X450000Y-18312000D01*
G75*
G02*
X675000Y-18537000I0J-225000D01*
G01*
X675000Y-18987000D01*
G75*
G02*
X450000Y-19212000I-225000J0D01*
G01*
G37*
G36*
G01*
X450000Y-17662000D02*
X-50000Y-17662000D01*
G75*
G02*
X-275000Y-17437000I0J225000D01*
G01*
X-275000Y-16987000D01*
G75*
G02*
X-50000Y-16762000I225000J0D01*
G01*
X450000Y-16762000D01*
G75*
G02*
X675000Y-16987000I0J-225000D01*
G01*
X675000Y-17437000D01*
G75*
G02*
X450000Y-17662000I-225000J0D01*
G01*
G37*
G36*
G01*
X6238000Y-31440000D02*
X6238000Y-31940000D01*
G75*
G02*
X6013000Y-32165000I-225000J0D01*
G01*
X5563000Y-32165000D01*
G75*
G02*
X5338000Y-31940000I0J225000D01*
G01*
X5338000Y-31440000D01*
G75*
G02*
X5563000Y-31215000I225000J0D01*
G01*
X6013000Y-31215000D01*
G75*
G02*
X6238000Y-31440000I0J-225000D01*
G01*
G37*
G36*
G01*
X7788000Y-31440000D02*
X7788000Y-31940000D01*
G75*
G02*
X7563000Y-32165000I-225000J0D01*
G01*
X7113000Y-32165000D01*
G75*
G02*
X6888000Y-31940000I0J225000D01*
G01*
X6888000Y-31440000D01*
G75*
G02*
X7113000Y-31215000I225000J0D01*
G01*
X7563000Y-31215000D01*
G75*
G02*
X7788000Y-31440000I0J-225000D01*
G01*
G37*
G36*
G01*
X-1836000Y-24901000D02*
X-2336000Y-24901000D01*
G75*
G02*
X-2561000Y-24676000I0J225000D01*
G01*
X-2561000Y-24226000D01*
G75*
G02*
X-2336000Y-24001000I225000J0D01*
G01*
X-1836000Y-24001000D01*
G75*
G02*
X-1611000Y-24226000I0J-225000D01*
G01*
X-1611000Y-24676000D01*
G75*
G02*
X-1836000Y-24901000I-225000J0D01*
G01*
G37*
G36*
G01*
X-1836000Y-26451000D02*
X-2336000Y-26451000D01*
G75*
G02*
X-2561000Y-26226000I0J225000D01*
G01*
X-2561000Y-25776000D01*
G75*
G02*
X-2336000Y-25551000I225000J0D01*
G01*
X-1836000Y-25551000D01*
G75*
G02*
X-1611000Y-25776000I0J-225000D01*
G01*
X-1611000Y-26226000D01*
G75*
G02*
X-1836000Y-26451000I-225000J0D01*
G01*
G37*
G36*
G01*
X-3360000Y-24901000D02*
X-3860000Y-24901000D01*
G75*
G02*
X-4085000Y-24676000I0J225000D01*
G01*
X-4085000Y-24226000D01*
G75*
G02*
X-3860000Y-24001000I225000J0D01*
G01*
X-3360000Y-24001000D01*
G75*
G02*
X-3135000Y-24226000I0J-225000D01*
G01*
X-3135000Y-24676000D01*
G75*
G02*
X-3360000Y-24901000I-225000J0D01*
G01*
G37*
G36*
G01*
X-3360000Y-26451000D02*
X-3860000Y-26451000D01*
G75*
G02*
X-4085000Y-26226000I0J225000D01*
G01*
X-4085000Y-25776000D01*
G75*
G02*
X-3860000Y-25551000I225000J0D01*
G01*
X-3360000Y-25551000D01*
G75*
G02*
X-3135000Y-25776000I0J-225000D01*
G01*
X-3135000Y-26226000D01*
G75*
G02*
X-3360000Y-26451000I-225000J0D01*
G01*
G37*
G36*
G01*
X5570000Y-41895000D02*
X5070000Y-41895000D01*
G75*
G02*
X4845000Y-41670000I0J225000D01*
G01*
X4845000Y-41220000D01*
G75*
G02*
X5070000Y-40995000I225000J0D01*
G01*
X5570000Y-40995000D01*
G75*
G02*
X5795000Y-41220000I0J-225000D01*
G01*
X5795000Y-41670000D01*
G75*
G02*
X5570000Y-41895000I-225000J0D01*
G01*
G37*
G36*
G01*
X5570000Y-40345000D02*
X5070000Y-40345000D01*
G75*
G02*
X4845000Y-40120000I0J225000D01*
G01*
X4845000Y-39670000D01*
G75*
G02*
X5070000Y-39445000I225000J0D01*
G01*
X5570000Y-39445000D01*
G75*
G02*
X5795000Y-39670000I0J-225000D01*
G01*
X5795000Y-40120000D01*
G75*
G02*
X5570000Y-40345000I-225000J0D01*
G01*
G37*
G36*
G01*
X9856000Y-31875000D02*
X10356000Y-31875000D01*
G75*
G02*
X10581000Y-32100000I0J-225000D01*
G01*
X10581000Y-32550000D01*
G75*
G02*
X10356000Y-32775000I-225000J0D01*
G01*
X9856000Y-32775000D01*
G75*
G02*
X9631000Y-32550000I0J225000D01*
G01*
X9631000Y-32100000D01*
G75*
G02*
X9856000Y-31875000I225000J0D01*
G01*
G37*
G36*
G01*
X9856000Y-30325000D02*
X10356000Y-30325000D01*
G75*
G02*
X10581000Y-30550000I0J-225000D01*
G01*
X10581000Y-31000000D01*
G75*
G02*
X10356000Y-31225000I-225000J0D01*
G01*
X9856000Y-31225000D01*
G75*
G02*
X9631000Y-31000000I0J225000D01*
G01*
X9631000Y-30550000D01*
G75*
G02*
X9856000Y-30325000I225000J0D01*
G01*
G37*
G36*
G01*
X16514000Y-30797000D02*
X16514000Y-30297000D01*
G75*
G02*
X16739000Y-30072000I225000J0D01*
G01*
X17189000Y-30072000D01*
G75*
G02*
X17414000Y-30297000I0J-225000D01*
G01*
X17414000Y-30797000D01*
G75*
G02*
X17189000Y-31022000I-225000J0D01*
G01*
X16739000Y-31022000D01*
G75*
G02*
X16514000Y-30797000I0J225000D01*
G01*
G37*
G36*
G01*
X18064000Y-30797000D02*
X18064000Y-30297000D01*
G75*
G02*
X18289000Y-30072000I225000J0D01*
G01*
X18739000Y-30072000D01*
G75*
G02*
X18964000Y-30297000I0J-225000D01*
G01*
X18964000Y-30797000D01*
G75*
G02*
X18739000Y-31022000I-225000J0D01*
G01*
X18289000Y-31022000D01*
G75*
G02*
X18064000Y-30797000I0J225000D01*
G01*
G37*
D25*
X28682000Y-9084000D03*
X26582000Y-9084000D03*
G36*
G01*
X23181500Y-21913250D02*
X23181500Y-21400750D01*
G75*
G02*
X23400250Y-21182000I218750J0D01*
G01*
X23837750Y-21182000D01*
G75*
G02*
X24056500Y-21400750I0J-218750D01*
G01*
X24056500Y-21913250D01*
G75*
G02*
X23837750Y-22132000I-218750J0D01*
G01*
X23400250Y-22132000D01*
G75*
G02*
X23181500Y-21913250I0J218750D01*
G01*
G37*
G36*
G01*
X21606500Y-21913250D02*
X21606500Y-21400750D01*
G75*
G02*
X21825250Y-21182000I218750J0D01*
G01*
X22262750Y-21182000D01*
G75*
G02*
X22481500Y-21400750I0J-218750D01*
G01*
X22481500Y-21913250D01*
G75*
G02*
X22262750Y-22132000I-218750J0D01*
G01*
X21825250Y-22132000D01*
G75*
G02*
X21606500Y-21913250I0J218750D01*
G01*
G37*
G36*
G01*
X-17560500Y-2482250D02*
X-17560500Y-1969750D01*
G75*
G02*
X-17341750Y-1751000I218750J0D01*
G01*
X-16904250Y-1751000D01*
G75*
G02*
X-16685500Y-1969750I0J-218750D01*
G01*
X-16685500Y-2482250D01*
G75*
G02*
X-16904250Y-2701000I-218750J0D01*
G01*
X-17341750Y-2701000D01*
G75*
G02*
X-17560500Y-2482250I0J218750D01*
G01*
G37*
G36*
G01*
X-15985500Y-2482250D02*
X-15985500Y-1969750D01*
G75*
G02*
X-15766750Y-1751000I218750J0D01*
G01*
X-15329250Y-1751000D01*
G75*
G02*
X-15110500Y-1969750I0J-218750D01*
G01*
X-15110500Y-2482250D01*
G75*
G02*
X-15329250Y-2701000I-218750J0D01*
G01*
X-15766750Y-2701000D01*
G75*
G02*
X-15985500Y-2482250I0J218750D01*
G01*
G37*
G36*
G01*
X-12175500Y-2482250D02*
X-12175500Y-1969750D01*
G75*
G02*
X-11956750Y-1751000I218750J0D01*
G01*
X-11519250Y-1751000D01*
G75*
G02*
X-11300500Y-1969750I0J-218750D01*
G01*
X-11300500Y-2482250D01*
G75*
G02*
X-11519250Y-2701000I-218750J0D01*
G01*
X-11956750Y-2701000D01*
G75*
G02*
X-12175500Y-2482250I0J218750D01*
G01*
G37*
G36*
G01*
X-13750500Y-2482250D02*
X-13750500Y-1969750D01*
G75*
G02*
X-13531750Y-1751000I218750J0D01*
G01*
X-13094250Y-1751000D01*
G75*
G02*
X-12875500Y-1969750I0J-218750D01*
G01*
X-12875500Y-2482250D01*
G75*
G02*
X-13094250Y-2701000I-218750J0D01*
G01*
X-13531750Y-2701000D01*
G75*
G02*
X-13750500Y-2482250I0J218750D01*
G01*
G37*
D26*
X-2848000Y-1972000D03*
X-2848000Y-1272000D03*
X-4148000Y-1972000D03*
X-4148000Y-1272000D03*
G36*
G01*
X-17763500Y-7308250D02*
X-17763500Y-6795750D01*
G75*
G02*
X-17544750Y-6577000I218750J0D01*
G01*
X-17107250Y-6577000D01*
G75*
G02*
X-16888500Y-6795750I0J-218750D01*
G01*
X-16888500Y-7308250D01*
G75*
G02*
X-17107250Y-7527000I-218750J0D01*
G01*
X-17544750Y-7527000D01*
G75*
G02*
X-17763500Y-7308250I0J218750D01*
G01*
G37*
G36*
G01*
X-16188500Y-7308250D02*
X-16188500Y-6795750D01*
G75*
G02*
X-15969750Y-6577000I218750J0D01*
G01*
X-15532250Y-6577000D01*
G75*
G02*
X-15313500Y-6795750I0J-218750D01*
G01*
X-15313500Y-7308250D01*
G75*
G02*
X-15532250Y-7527000I-218750J0D01*
G01*
X-15969750Y-7527000D01*
G75*
G02*
X-16188500Y-7308250I0J218750D01*
G01*
G37*
G36*
G01*
X-12378500Y-7308250D02*
X-12378500Y-6795750D01*
G75*
G02*
X-12159750Y-6577000I218750J0D01*
G01*
X-11722250Y-6577000D01*
G75*
G02*
X-11503500Y-6795750I0J-218750D01*
G01*
X-11503500Y-7308250D01*
G75*
G02*
X-11722250Y-7527000I-218750J0D01*
G01*
X-12159750Y-7527000D01*
G75*
G02*
X-12378500Y-7308250I0J218750D01*
G01*
G37*
G36*
G01*
X-13953500Y-7308250D02*
X-13953500Y-6795750D01*
G75*
G02*
X-13734750Y-6577000I218750J0D01*
G01*
X-13297250Y-6577000D01*
G75*
G02*
X-13078500Y-6795750I0J-218750D01*
G01*
X-13078500Y-7308250D01*
G75*
G02*
X-13297250Y-7527000I-218750J0D01*
G01*
X-13734750Y-7527000D01*
G75*
G02*
X-13953500Y-7308250I0J218750D01*
G01*
G37*
G36*
G01*
X24470000Y-9836000D02*
X24470000Y-8586000D01*
G75*
G02*
X24720000Y-8336000I250000J0D01*
G01*
X25470000Y-8336000D01*
G75*
G02*
X25720000Y-8586000I0J-250000D01*
G01*
X25720000Y-9836000D01*
G75*
G02*
X25470000Y-10086000I-250000J0D01*
G01*
X24720000Y-10086000D01*
G75*
G02*
X24470000Y-9836000I0J250000D01*
G01*
G37*
G36*
G01*
X21670000Y-9836000D02*
X21670000Y-8586000D01*
G75*
G02*
X21920000Y-8336000I250000J0D01*
G01*
X22670000Y-8336000D01*
G75*
G02*
X22920000Y-8586000I0J-250000D01*
G01*
X22920000Y-9836000D01*
G75*
G02*
X22670000Y-10086000I-250000J0D01*
G01*
X21920000Y-10086000D01*
G75*
G02*
X21670000Y-9836000I0J250000D01*
G01*
G37*
G36*
G01*
X8237000Y-2785750D02*
X8237000Y-3698250D01*
G75*
G02*
X7993250Y-3942000I-243750J0D01*
G01*
X7505750Y-3942000D01*
G75*
G02*
X7262000Y-3698250I0J243750D01*
G01*
X7262000Y-2785750D01*
G75*
G02*
X7505750Y-2542000I243750J0D01*
G01*
X7993250Y-2542000D01*
G75*
G02*
X8237000Y-2785750I0J-243750D01*
G01*
G37*
G36*
G01*
X10112000Y-2785750D02*
X10112000Y-3698250D01*
G75*
G02*
X9868250Y-3942000I-243750J0D01*
G01*
X9380750Y-3942000D01*
G75*
G02*
X9137000Y-3698250I0J243750D01*
G01*
X9137000Y-2785750D01*
G75*
G02*
X9380750Y-2542000I243750J0D01*
G01*
X9868250Y-2542000D01*
G75*
G02*
X10112000Y-2785750I0J-243750D01*
G01*
G37*
G36*
G01*
X-5312750Y-28972500D02*
X-6225250Y-28972500D01*
G75*
G02*
X-6469000Y-28728750I0J243750D01*
G01*
X-6469000Y-28241250D01*
G75*
G02*
X-6225250Y-27997500I243750J0D01*
G01*
X-5312750Y-27997500D01*
G75*
G02*
X-5069000Y-28241250I0J-243750D01*
G01*
X-5069000Y-28728750D01*
G75*
G02*
X-5312750Y-28972500I-243750J0D01*
G01*
G37*
G36*
G01*
X-5312750Y-27097500D02*
X-6225250Y-27097500D01*
G75*
G02*
X-6469000Y-26853750I0J243750D01*
G01*
X-6469000Y-26366250D01*
G75*
G02*
X-6225250Y-26122500I243750J0D01*
G01*
X-5312750Y-26122500D01*
G75*
G02*
X-5069000Y-26366250I0J-243750D01*
G01*
X-5069000Y-26853750D01*
G75*
G02*
X-5312750Y-27097500I-243750J0D01*
G01*
G37*
D27*
X-6863000Y-20346000D03*
X-6863000Y-22546000D03*
X-8563000Y-22546000D03*
X-8563000Y-20346000D03*
D28*
X32642000Y-25060000D03*
D29*
X32642000Y-27760000D03*
D30*
X32642000Y-23235000D03*
X32642000Y-29985000D03*
D31*
X30067000Y-24122500D03*
X30067000Y-29097500D03*
D32*
X29982000Y-25310000D03*
X29982000Y-25960000D03*
X29982000Y-26610000D03*
X29982000Y-27260000D03*
X29982000Y-27910000D03*
G36*
G01*
X29950000Y-15620000D02*
X31200000Y-15620000D01*
G75*
G02*
X31350000Y-15770000I0J-150000D01*
G01*
X31350000Y-16070000D01*
G75*
G02*
X31200000Y-16220000I-150000J0D01*
G01*
X29950000Y-16220000D01*
G75*
G02*
X29800000Y-16070000I0J150000D01*
G01*
X29800000Y-15770000D01*
G75*
G02*
X29950000Y-15620000I150000J0D01*
G01*
G37*
G36*
G01*
X29950000Y-16620000D02*
X31200000Y-16620000D01*
G75*
G02*
X31350000Y-16770000I0J-150000D01*
G01*
X31350000Y-17070000D01*
G75*
G02*
X31200000Y-17220000I-150000J0D01*
G01*
X29950000Y-17220000D01*
G75*
G02*
X29800000Y-17070000I0J150000D01*
G01*
X29800000Y-16770000D01*
G75*
G02*
X29950000Y-16620000I150000J0D01*
G01*
G37*
G36*
G01*
X32449999Y-14020000D02*
X33750001Y-14020000D01*
G75*
G02*
X34000000Y-14269999I0J-249999D01*
G01*
X34000000Y-14970001D01*
G75*
G02*
X33750001Y-15220000I-249999J0D01*
G01*
X32449999Y-15220000D01*
G75*
G02*
X32200000Y-14970001I0J249999D01*
G01*
X32200000Y-14269999D01*
G75*
G02*
X32449999Y-14020000I249999J0D01*
G01*
G37*
G36*
G01*
X32449999Y-17620000D02*
X33750001Y-17620000D01*
G75*
G02*
X34000000Y-17869999I0J-249999D01*
G01*
X34000000Y-18570001D01*
G75*
G02*
X33750001Y-18820000I-249999J0D01*
G01*
X32449999Y-18820000D01*
G75*
G02*
X32200000Y-18570001I0J249999D01*
G01*
X32200000Y-17869999D01*
G75*
G02*
X32449999Y-17620000I249999J0D01*
G01*
G37*
D33*
X20798000Y-43120000D03*
X23798000Y-43120000D03*
D34*
X22298000Y-44595000D03*
X22298000Y-41645000D03*
G36*
G01*
X18998250Y-42135000D02*
X18485750Y-42135000D01*
G75*
G02*
X18267000Y-41916250I0J218750D01*
G01*
X18267000Y-41478750D01*
G75*
G02*
X18485750Y-41260000I218750J0D01*
G01*
X18998250Y-41260000D01*
G75*
G02*
X19217000Y-41478750I0J-218750D01*
G01*
X19217000Y-41916250D01*
G75*
G02*
X18998250Y-42135000I-218750J0D01*
G01*
G37*
G36*
G01*
X18998250Y-43710000D02*
X18485750Y-43710000D01*
G75*
G02*
X18267000Y-43491250I0J218750D01*
G01*
X18267000Y-43053750D01*
G75*
G02*
X18485750Y-42835000I218750J0D01*
G01*
X18998250Y-42835000D01*
G75*
G02*
X19217000Y-43053750I0J-218750D01*
G01*
X19217000Y-43491250D01*
G75*
G02*
X18998250Y-43710000I-218750J0D01*
G01*
G37*
D35*
X26600000Y-6290000D03*
X24600000Y-7240000D03*
X24600000Y-5340000D03*
G36*
G01*
X24057000Y-4025000D02*
X24057000Y-3475000D01*
G75*
G02*
X24257000Y-3275000I200000J0D01*
G01*
X24657000Y-3275000D01*
G75*
G02*
X24857000Y-3475000I0J-200000D01*
G01*
X24857000Y-4025000D01*
G75*
G02*
X24657000Y-4225000I-200000J0D01*
G01*
X24257000Y-4225000D01*
G75*
G02*
X24057000Y-4025000I0J200000D01*
G01*
G37*
G36*
G01*
X25707000Y-4025000D02*
X25707000Y-3475000D01*
G75*
G02*
X25907000Y-3275000I200000J0D01*
G01*
X26307000Y-3275000D01*
G75*
G02*
X26507000Y-3475000I0J-200000D01*
G01*
X26507000Y-4025000D01*
G75*
G02*
X26307000Y-4225000I-200000J0D01*
G01*
X25907000Y-4225000D01*
G75*
G02*
X25707000Y-4025000I0J200000D01*
G01*
G37*
G36*
G01*
X19935000Y-16475000D02*
X19385000Y-16475000D01*
G75*
G02*
X19185000Y-16275000I0J200000D01*
G01*
X19185000Y-15875000D01*
G75*
G02*
X19385000Y-15675000I200000J0D01*
G01*
X19935000Y-15675000D01*
G75*
G02*
X20135000Y-15875000I0J-200000D01*
G01*
X20135000Y-16275000D01*
G75*
G02*
X19935000Y-16475000I-200000J0D01*
G01*
G37*
G36*
G01*
X19935000Y-18125000D02*
X19385000Y-18125000D01*
G75*
G02*
X19185000Y-17925000I0J200000D01*
G01*
X19185000Y-17525000D01*
G75*
G02*
X19385000Y-17325000I200000J0D01*
G01*
X19935000Y-17325000D01*
G75*
G02*
X20135000Y-17525000I0J-200000D01*
G01*
X20135000Y-17925000D01*
G75*
G02*
X19935000Y-18125000I-200000J0D01*
G01*
G37*
G36*
G01*
X8440000Y-945000D02*
X8440000Y-1495000D01*
G75*
G02*
X8240000Y-1695000I-200000J0D01*
G01*
X7840000Y-1695000D01*
G75*
G02*
X7640000Y-1495000I0J200000D01*
G01*
X7640000Y-945000D01*
G75*
G02*
X7840000Y-745000I200000J0D01*
G01*
X8240000Y-745000D01*
G75*
G02*
X8440000Y-945000I0J-200000D01*
G01*
G37*
G36*
G01*
X10090000Y-945000D02*
X10090000Y-1495000D01*
G75*
G02*
X9890000Y-1695000I-200000J0D01*
G01*
X9490000Y-1695000D01*
G75*
G02*
X9290000Y-1495000I0J200000D01*
G01*
X9290000Y-945000D01*
G75*
G02*
X9490000Y-745000I200000J0D01*
G01*
X9890000Y-745000D01*
G75*
G02*
X10090000Y-945000I0J-200000D01*
G01*
G37*
G36*
G01*
X24031000Y-19096000D02*
X24031000Y-19646000D01*
G75*
G02*
X23831000Y-19846000I-200000J0D01*
G01*
X23431000Y-19846000D01*
G75*
G02*
X23231000Y-19646000I0J200000D01*
G01*
X23231000Y-19096000D01*
G75*
G02*
X23431000Y-18896000I200000J0D01*
G01*
X23831000Y-18896000D01*
G75*
G02*
X24031000Y-19096000I0J-200000D01*
G01*
G37*
G36*
G01*
X22381000Y-19096000D02*
X22381000Y-19646000D01*
G75*
G02*
X22181000Y-19846000I-200000J0D01*
G01*
X21781000Y-19846000D01*
G75*
G02*
X21581000Y-19646000I0J200000D01*
G01*
X21581000Y-19096000D01*
G75*
G02*
X21781000Y-18896000I200000J0D01*
G01*
X22181000Y-18896000D01*
G75*
G02*
X22381000Y-19096000I0J-200000D01*
G01*
G37*
G36*
G01*
X-17598000Y-4279000D02*
X-17598000Y-3729000D01*
G75*
G02*
X-17398000Y-3529000I200000J0D01*
G01*
X-16998000Y-3529000D01*
G75*
G02*
X-16798000Y-3729000I0J-200000D01*
G01*
X-16798000Y-4279000D01*
G75*
G02*
X-16998000Y-4479000I-200000J0D01*
G01*
X-17398000Y-4479000D01*
G75*
G02*
X-17598000Y-4279000I0J200000D01*
G01*
G37*
G36*
G01*
X-15948000Y-4279000D02*
X-15948000Y-3729000D01*
G75*
G02*
X-15748000Y-3529000I200000J0D01*
G01*
X-15348000Y-3529000D01*
G75*
G02*
X-15148000Y-3729000I0J-200000D01*
G01*
X-15148000Y-4279000D01*
G75*
G02*
X-15348000Y-4479000I-200000J0D01*
G01*
X-15748000Y-4479000D01*
G75*
G02*
X-15948000Y-4279000I0J200000D01*
G01*
G37*
G36*
G01*
X-5979000Y-4279000D02*
X-5979000Y-3729000D01*
G75*
G02*
X-5779000Y-3529000I200000J0D01*
G01*
X-5379000Y-3529000D01*
G75*
G02*
X-5179000Y-3729000I0J-200000D01*
G01*
X-5179000Y-4279000D01*
G75*
G02*
X-5379000Y-4479000I-200000J0D01*
G01*
X-5779000Y-4479000D01*
G75*
G02*
X-5979000Y-4279000I0J200000D01*
G01*
G37*
G36*
G01*
X-7629000Y-4279000D02*
X-7629000Y-3729000D01*
G75*
G02*
X-7429000Y-3529000I200000J0D01*
G01*
X-7029000Y-3529000D01*
G75*
G02*
X-6829000Y-3729000I0J-200000D01*
G01*
X-6829000Y-4279000D01*
G75*
G02*
X-7029000Y-4479000I-200000J0D01*
G01*
X-7429000Y-4479000D01*
G75*
G02*
X-7629000Y-4279000I0J200000D01*
G01*
G37*
G36*
G01*
X-12012000Y-4279000D02*
X-12012000Y-3729000D01*
G75*
G02*
X-11812000Y-3529000I200000J0D01*
G01*
X-11412000Y-3529000D01*
G75*
G02*
X-11212000Y-3729000I0J-200000D01*
G01*
X-11212000Y-4279000D01*
G75*
G02*
X-11412000Y-4479000I-200000J0D01*
G01*
X-11812000Y-4479000D01*
G75*
G02*
X-12012000Y-4279000I0J200000D01*
G01*
G37*
G36*
G01*
X-13662000Y-4279000D02*
X-13662000Y-3729000D01*
G75*
G02*
X-13462000Y-3529000I200000J0D01*
G01*
X-13062000Y-3529000D01*
G75*
G02*
X-12862000Y-3729000I0J-200000D01*
G01*
X-12862000Y-4279000D01*
G75*
G02*
X-13062000Y-4479000I-200000J0D01*
G01*
X-13462000Y-4479000D01*
G75*
G02*
X-13662000Y-4279000I0J200000D01*
G01*
G37*
G36*
G01*
X-4644000Y-4279000D02*
X-4644000Y-3729000D01*
G75*
G02*
X-4444000Y-3529000I200000J0D01*
G01*
X-4044000Y-3529000D01*
G75*
G02*
X-3844000Y-3729000I0J-200000D01*
G01*
X-3844000Y-4279000D01*
G75*
G02*
X-4044000Y-4479000I-200000J0D01*
G01*
X-4444000Y-4479000D01*
G75*
G02*
X-4644000Y-4279000I0J200000D01*
G01*
G37*
G36*
G01*
X-2994000Y-4279000D02*
X-2994000Y-3729000D01*
G75*
G02*
X-2794000Y-3529000I200000J0D01*
G01*
X-2394000Y-3529000D01*
G75*
G02*
X-2194000Y-3729000I0J-200000D01*
G01*
X-2194000Y-4279000D01*
G75*
G02*
X-2394000Y-4479000I-200000J0D01*
G01*
X-2794000Y-4479000D01*
G75*
G02*
X-2994000Y-4279000I0J200000D01*
G01*
G37*
G36*
G01*
X35000Y-4279000D02*
X35000Y-3729000D01*
G75*
G02*
X235000Y-3529000I200000J0D01*
G01*
X635000Y-3529000D01*
G75*
G02*
X835000Y-3729000I0J-200000D01*
G01*
X835000Y-4279000D01*
G75*
G02*
X635000Y-4479000I-200000J0D01*
G01*
X235000Y-4479000D01*
G75*
G02*
X35000Y-4279000I0J200000D01*
G01*
G37*
G36*
G01*
X-1615000Y-4279000D02*
X-1615000Y-3729000D01*
G75*
G02*
X-1415000Y-3529000I200000J0D01*
G01*
X-1015000Y-3529000D01*
G75*
G02*
X-815000Y-3729000I0J-200000D01*
G01*
X-815000Y-4279000D01*
G75*
G02*
X-1015000Y-4479000I-200000J0D01*
G01*
X-1415000Y-4479000D01*
G75*
G02*
X-1615000Y-4279000I0J200000D01*
G01*
G37*
G36*
G01*
X-17726000Y-9105000D02*
X-17726000Y-8555000D01*
G75*
G02*
X-17526000Y-8355000I200000J0D01*
G01*
X-17126000Y-8355000D01*
G75*
G02*
X-16926000Y-8555000I0J-200000D01*
G01*
X-16926000Y-9105000D01*
G75*
G02*
X-17126000Y-9305000I-200000J0D01*
G01*
X-17526000Y-9305000D01*
G75*
G02*
X-17726000Y-9105000I0J200000D01*
G01*
G37*
G36*
G01*
X-16076000Y-9105000D02*
X-16076000Y-8555000D01*
G75*
G02*
X-15876000Y-8355000I200000J0D01*
G01*
X-15476000Y-8355000D01*
G75*
G02*
X-15276000Y-8555000I0J-200000D01*
G01*
X-15276000Y-9105000D01*
G75*
G02*
X-15476000Y-9305000I-200000J0D01*
G01*
X-15876000Y-9305000D01*
G75*
G02*
X-16076000Y-9105000I0J200000D01*
G01*
G37*
G36*
G01*
X-4479000Y-22271000D02*
X-4479000Y-22821000D01*
G75*
G02*
X-4679000Y-23021000I-200000J0D01*
G01*
X-5079000Y-23021000D01*
G75*
G02*
X-5279000Y-22821000I0J200000D01*
G01*
X-5279000Y-22271000D01*
G75*
G02*
X-5079000Y-22071000I200000J0D01*
G01*
X-4679000Y-22071000D01*
G75*
G02*
X-4479000Y-22271000I0J-200000D01*
G01*
G37*
G36*
G01*
X-2829000Y-22271000D02*
X-2829000Y-22821000D01*
G75*
G02*
X-3029000Y-23021000I-200000J0D01*
G01*
X-3429000Y-23021000D01*
G75*
G02*
X-3629000Y-22821000I0J200000D01*
G01*
X-3629000Y-22271000D01*
G75*
G02*
X-3429000Y-22071000I200000J0D01*
G01*
X-3029000Y-22071000D01*
G75*
G02*
X-2829000Y-22271000I0J-200000D01*
G01*
G37*
G36*
G01*
X-12266000Y-9105000D02*
X-12266000Y-8555000D01*
G75*
G02*
X-12066000Y-8355000I200000J0D01*
G01*
X-11666000Y-8355000D01*
G75*
G02*
X-11466000Y-8555000I0J-200000D01*
G01*
X-11466000Y-9105000D01*
G75*
G02*
X-11666000Y-9305000I-200000J0D01*
G01*
X-12066000Y-9305000D01*
G75*
G02*
X-12266000Y-9105000I0J200000D01*
G01*
G37*
G36*
G01*
X-13916000Y-9105000D02*
X-13916000Y-8555000D01*
G75*
G02*
X-13716000Y-8355000I200000J0D01*
G01*
X-13316000Y-8355000D01*
G75*
G02*
X-13116000Y-8555000I0J-200000D01*
G01*
X-13116000Y-9105000D01*
G75*
G02*
X-13316000Y-9305000I-200000J0D01*
G01*
X-13716000Y-9305000D01*
G75*
G02*
X-13916000Y-9105000I0J200000D01*
G01*
G37*
G36*
G01*
X3735000Y-12749000D02*
X4285000Y-12749000D01*
G75*
G02*
X4485000Y-12949000I0J-200000D01*
G01*
X4485000Y-13349000D01*
G75*
G02*
X4285000Y-13549000I-200000J0D01*
G01*
X3735000Y-13549000D01*
G75*
G02*
X3535000Y-13349000I0J200000D01*
G01*
X3535000Y-12949000D01*
G75*
G02*
X3735000Y-12749000I200000J0D01*
G01*
G37*
G36*
G01*
X3735000Y-14399000D02*
X4285000Y-14399000D01*
G75*
G02*
X4485000Y-14599000I0J-200000D01*
G01*
X4485000Y-14999000D01*
G75*
G02*
X4285000Y-15199000I-200000J0D01*
G01*
X3735000Y-15199000D01*
G75*
G02*
X3535000Y-14999000I0J200000D01*
G01*
X3535000Y-14599000D01*
G75*
G02*
X3735000Y-14399000I200000J0D01*
G01*
G37*
G36*
G01*
X2211000Y-14399000D02*
X2761000Y-14399000D01*
G75*
G02*
X2961000Y-14599000I0J-200000D01*
G01*
X2961000Y-14999000D01*
G75*
G02*
X2761000Y-15199000I-200000J0D01*
G01*
X2211000Y-15199000D01*
G75*
G02*
X2011000Y-14999000I0J200000D01*
G01*
X2011000Y-14599000D01*
G75*
G02*
X2211000Y-14399000I200000J0D01*
G01*
G37*
G36*
G01*
X2211000Y-12749000D02*
X2761000Y-12749000D01*
G75*
G02*
X2961000Y-12949000I0J-200000D01*
G01*
X2961000Y-13349000D01*
G75*
G02*
X2761000Y-13549000I-200000J0D01*
G01*
X2211000Y-13549000D01*
G75*
G02*
X2011000Y-13349000I0J200000D01*
G01*
X2011000Y-12949000D01*
G75*
G02*
X2211000Y-12749000I200000J0D01*
G01*
G37*
G36*
G01*
X1237000Y-15199000D02*
X687000Y-15199000D01*
G75*
G02*
X487000Y-14999000I0J200000D01*
G01*
X487000Y-14599000D01*
G75*
G02*
X687000Y-14399000I200000J0D01*
G01*
X1237000Y-14399000D01*
G75*
G02*
X1437000Y-14599000I0J-200000D01*
G01*
X1437000Y-14999000D01*
G75*
G02*
X1237000Y-15199000I-200000J0D01*
G01*
G37*
G36*
G01*
X1237000Y-13549000D02*
X687000Y-13549000D01*
G75*
G02*
X487000Y-13349000I0J200000D01*
G01*
X487000Y-12949000D01*
G75*
G02*
X687000Y-12749000I200000J0D01*
G01*
X1237000Y-12749000D01*
G75*
G02*
X1437000Y-12949000I0J-200000D01*
G01*
X1437000Y-13349000D01*
G75*
G02*
X1237000Y-13549000I-200000J0D01*
G01*
G37*
D36*
X21282000Y-17715000D03*
X21282000Y-15815000D03*
X23482000Y-15815000D03*
X23482000Y-16765000D03*
X23482000Y-17715000D03*
X24160000Y-25213000D03*
X24160000Y-24263000D03*
X24160000Y-26163000D03*
X21960000Y-26163000D03*
X21960000Y-25213000D03*
X21960000Y-24263000D03*
D35*
X5115000Y-4192000D03*
X5115000Y-2292000D03*
X3115000Y-3242000D03*
G36*
G01*
X15861000Y-36355000D02*
X15861000Y-36005000D01*
G75*
G02*
X16036000Y-35830000I175000J0D01*
G01*
X17486000Y-35830000D01*
G75*
G02*
X17661000Y-36005000I0J-175000D01*
G01*
X17661000Y-36355000D01*
G75*
G02*
X17486000Y-36530000I-175000J0D01*
G01*
X16036000Y-36530000D01*
G75*
G02*
X15861000Y-36355000I0J175000D01*
G01*
G37*
G36*
G01*
X15861000Y-37480000D02*
X15861000Y-37080000D01*
G75*
G02*
X16061000Y-36880000I200000J0D01*
G01*
X17461000Y-36880000D01*
G75*
G02*
X17661000Y-37080000I0J-200000D01*
G01*
X17661000Y-37480000D01*
G75*
G02*
X17461000Y-37680000I-200000J0D01*
G01*
X16061000Y-37680000D01*
G75*
G02*
X15861000Y-37480000I0J200000D01*
G01*
G37*
G36*
G01*
X15861000Y-38580000D02*
X15861000Y-38180000D01*
G75*
G02*
X16061000Y-37980000I200000J0D01*
G01*
X17461000Y-37980000D01*
G75*
G02*
X17661000Y-38180000I0J-200000D01*
G01*
X17661000Y-38580000D01*
G75*
G02*
X17461000Y-38780000I-200000J0D01*
G01*
X16061000Y-38780000D01*
G75*
G02*
X15861000Y-38580000I0J200000D01*
G01*
G37*
G36*
G01*
X15861000Y-39680000D02*
X15861000Y-39280000D01*
G75*
G02*
X16061000Y-39080000I200000J0D01*
G01*
X17461000Y-39080000D01*
G75*
G02*
X17661000Y-39280000I0J-200000D01*
G01*
X17661000Y-39680000D01*
G75*
G02*
X17461000Y-39880000I-200000J0D01*
G01*
X16061000Y-39880000D01*
G75*
G02*
X15861000Y-39680000I0J200000D01*
G01*
G37*
G36*
G01*
X15861000Y-40780000D02*
X15861000Y-40380000D01*
G75*
G02*
X16061000Y-40180000I200000J0D01*
G01*
X17461000Y-40180000D01*
G75*
G02*
X17661000Y-40380000I0J-200000D01*
G01*
X17661000Y-40780000D01*
G75*
G02*
X17461000Y-40980000I-200000J0D01*
G01*
X16061000Y-40980000D01*
G75*
G02*
X15861000Y-40780000I0J200000D01*
G01*
G37*
G36*
G01*
X15861000Y-41880000D02*
X15861000Y-41480000D01*
G75*
G02*
X16061000Y-41280000I200000J0D01*
G01*
X17461000Y-41280000D01*
G75*
G02*
X17661000Y-41480000I0J-200000D01*
G01*
X17661000Y-41880000D01*
G75*
G02*
X17461000Y-42080000I-200000J0D01*
G01*
X16061000Y-42080000D01*
G75*
G02*
X15861000Y-41880000I0J200000D01*
G01*
G37*
G36*
G01*
X15861000Y-42980000D02*
X15861000Y-42580000D01*
G75*
G02*
X16061000Y-42380000I200000J0D01*
G01*
X17461000Y-42380000D01*
G75*
G02*
X17661000Y-42580000I0J-200000D01*
G01*
X17661000Y-42980000D01*
G75*
G02*
X17461000Y-43180000I-200000J0D01*
G01*
X16061000Y-43180000D01*
G75*
G02*
X15861000Y-42980000I0J200000D01*
G01*
G37*
G36*
G01*
X15861000Y-44080000D02*
X15861000Y-43680000D01*
G75*
G02*
X16061000Y-43480000I200000J0D01*
G01*
X17461000Y-43480000D01*
G75*
G02*
X17661000Y-43680000I0J-200000D01*
G01*
X17661000Y-44080000D01*
G75*
G02*
X17461000Y-44280000I-200000J0D01*
G01*
X16061000Y-44280000D01*
G75*
G02*
X15861000Y-44080000I0J200000D01*
G01*
G37*
G36*
G01*
X15861000Y-45155000D02*
X15861000Y-44805000D01*
G75*
G02*
X16036000Y-44630000I175000J0D01*
G01*
X17486000Y-44630000D01*
G75*
G02*
X17661000Y-44805000I0J-175000D01*
G01*
X17661000Y-45155000D01*
G75*
G02*
X17486000Y-45330000I-175000J0D01*
G01*
X16036000Y-45330000D01*
G75*
G02*
X15861000Y-45155000I0J175000D01*
G01*
G37*
G36*
G01*
X6361000Y-45155000D02*
X6361000Y-44805000D01*
G75*
G02*
X6536000Y-44630000I175000J0D01*
G01*
X7986000Y-44630000D01*
G75*
G02*
X8161000Y-44805000I0J-175000D01*
G01*
X8161000Y-45155000D01*
G75*
G02*
X7986000Y-45330000I-175000J0D01*
G01*
X6536000Y-45330000D01*
G75*
G02*
X6361000Y-45155000I0J175000D01*
G01*
G37*
G36*
G01*
X6361000Y-44080000D02*
X6361000Y-43680000D01*
G75*
G02*
X6561000Y-43480000I200000J0D01*
G01*
X7961000Y-43480000D01*
G75*
G02*
X8161000Y-43680000I0J-200000D01*
G01*
X8161000Y-44080000D01*
G75*
G02*
X7961000Y-44280000I-200000J0D01*
G01*
X6561000Y-44280000D01*
G75*
G02*
X6361000Y-44080000I0J200000D01*
G01*
G37*
G36*
G01*
X6361000Y-42980000D02*
X6361000Y-42580000D01*
G75*
G02*
X6561000Y-42380000I200000J0D01*
G01*
X7961000Y-42380000D01*
G75*
G02*
X8161000Y-42580000I0J-200000D01*
G01*
X8161000Y-42980000D01*
G75*
G02*
X7961000Y-43180000I-200000J0D01*
G01*
X6561000Y-43180000D01*
G75*
G02*
X6361000Y-42980000I0J200000D01*
G01*
G37*
G36*
G01*
X6361000Y-41880000D02*
X6361000Y-41480000D01*
G75*
G02*
X6561000Y-41280000I200000J0D01*
G01*
X7961000Y-41280000D01*
G75*
G02*
X8161000Y-41480000I0J-200000D01*
G01*
X8161000Y-41880000D01*
G75*
G02*
X7961000Y-42080000I-200000J0D01*
G01*
X6561000Y-42080000D01*
G75*
G02*
X6361000Y-41880000I0J200000D01*
G01*
G37*
G36*
G01*
X6361000Y-40780000D02*
X6361000Y-40380000D01*
G75*
G02*
X6561000Y-40180000I200000J0D01*
G01*
X7961000Y-40180000D01*
G75*
G02*
X8161000Y-40380000I0J-200000D01*
G01*
X8161000Y-40780000D01*
G75*
G02*
X7961000Y-40980000I-200000J0D01*
G01*
X6561000Y-40980000D01*
G75*
G02*
X6361000Y-40780000I0J200000D01*
G01*
G37*
G36*
G01*
X6361000Y-39680000D02*
X6361000Y-39280000D01*
G75*
G02*
X6561000Y-39080000I200000J0D01*
G01*
X7961000Y-39080000D01*
G75*
G02*
X8161000Y-39280000I0J-200000D01*
G01*
X8161000Y-39680000D01*
G75*
G02*
X7961000Y-39880000I-200000J0D01*
G01*
X6561000Y-39880000D01*
G75*
G02*
X6361000Y-39680000I0J200000D01*
G01*
G37*
G36*
G01*
X6361000Y-38580000D02*
X6361000Y-38180000D01*
G75*
G02*
X6561000Y-37980000I200000J0D01*
G01*
X7961000Y-37980000D01*
G75*
G02*
X8161000Y-38180000I0J-200000D01*
G01*
X8161000Y-38580000D01*
G75*
G02*
X7961000Y-38780000I-200000J0D01*
G01*
X6561000Y-38780000D01*
G75*
G02*
X6361000Y-38580000I0J200000D01*
G01*
G37*
G36*
G01*
X6361000Y-37480000D02*
X6361000Y-37080000D01*
G75*
G02*
X6561000Y-36880000I200000J0D01*
G01*
X7961000Y-36880000D01*
G75*
G02*
X8161000Y-37080000I0J-200000D01*
G01*
X8161000Y-37480000D01*
G75*
G02*
X7961000Y-37680000I-200000J0D01*
G01*
X6561000Y-37680000D01*
G75*
G02*
X6361000Y-37480000I0J200000D01*
G01*
G37*
G36*
G01*
X6361000Y-36355000D02*
X6361000Y-36005000D01*
G75*
G02*
X6536000Y-35830000I175000J0D01*
G01*
X7986000Y-35830000D01*
G75*
G02*
X8161000Y-36005000I0J-175000D01*
G01*
X8161000Y-36355000D01*
G75*
G02*
X7986000Y-36530000I-175000J0D01*
G01*
X6536000Y-36530000D01*
G75*
G02*
X6361000Y-36355000I0J175000D01*
G01*
G37*
G36*
G01*
X15060000Y-28610000D02*
X15060000Y-28460000D01*
G75*
G02*
X15135000Y-28385000I75000J0D01*
G01*
X15835000Y-28385000D01*
G75*
G02*
X15910000Y-28460000I0J-75000D01*
G01*
X15910000Y-28610000D01*
G75*
G02*
X15835000Y-28685000I-75000J0D01*
G01*
X15135000Y-28685000D01*
G75*
G02*
X15060000Y-28610000I0J75000D01*
G01*
G37*
G36*
G01*
X15060000Y-29110000D02*
X15060000Y-28960000D01*
G75*
G02*
X15135000Y-28885000I75000J0D01*
G01*
X15835000Y-28885000D01*
G75*
G02*
X15910000Y-28960000I0J-75000D01*
G01*
X15910000Y-29110000D01*
G75*
G02*
X15835000Y-29185000I-75000J0D01*
G01*
X15135000Y-29185000D01*
G75*
G02*
X15060000Y-29110000I0J75000D01*
G01*
G37*
G36*
G01*
X15060000Y-29610000D02*
X15060000Y-29460000D01*
G75*
G02*
X15135000Y-29385000I75000J0D01*
G01*
X15835000Y-29385000D01*
G75*
G02*
X15910000Y-29460000I0J-75000D01*
G01*
X15910000Y-29610000D01*
G75*
G02*
X15835000Y-29685000I-75000J0D01*
G01*
X15135000Y-29685000D01*
G75*
G02*
X15060000Y-29610000I0J75000D01*
G01*
G37*
G36*
G01*
X15060000Y-30110000D02*
X15060000Y-29960000D01*
G75*
G02*
X15135000Y-29885000I75000J0D01*
G01*
X15835000Y-29885000D01*
G75*
G02*
X15910000Y-29960000I0J-75000D01*
G01*
X15910000Y-30110000D01*
G75*
G02*
X15835000Y-30185000I-75000J0D01*
G01*
X15135000Y-30185000D01*
G75*
G02*
X15060000Y-30110000I0J75000D01*
G01*
G37*
G36*
G01*
X15060000Y-30610000D02*
X15060000Y-30460000D01*
G75*
G02*
X15135000Y-30385000I75000J0D01*
G01*
X15835000Y-30385000D01*
G75*
G02*
X15910000Y-30460000I0J-75000D01*
G01*
X15910000Y-30610000D01*
G75*
G02*
X15835000Y-30685000I-75000J0D01*
G01*
X15135000Y-30685000D01*
G75*
G02*
X15060000Y-30610000I0J75000D01*
G01*
G37*
G36*
G01*
X15060000Y-31110000D02*
X15060000Y-30960000D01*
G75*
G02*
X15135000Y-30885000I75000J0D01*
G01*
X15835000Y-30885000D01*
G75*
G02*
X15910000Y-30960000I0J-75000D01*
G01*
X15910000Y-31110000D01*
G75*
G02*
X15835000Y-31185000I-75000J0D01*
G01*
X15135000Y-31185000D01*
G75*
G02*
X15060000Y-31110000I0J75000D01*
G01*
G37*
G36*
G01*
X14710000Y-31310000D02*
X14860000Y-31310000D01*
G75*
G02*
X14935000Y-31385000I0J-75000D01*
G01*
X14935000Y-32085000D01*
G75*
G02*
X14860000Y-32160000I-75000J0D01*
G01*
X14710000Y-32160000D01*
G75*
G02*
X14635000Y-32085000I0J75000D01*
G01*
X14635000Y-31385000D01*
G75*
G02*
X14710000Y-31310000I75000J0D01*
G01*
G37*
G36*
G01*
X14210000Y-31310000D02*
X14360000Y-31310000D01*
G75*
G02*
X14435000Y-31385000I0J-75000D01*
G01*
X14435000Y-32085000D01*
G75*
G02*
X14360000Y-32160000I-75000J0D01*
G01*
X14210000Y-32160000D01*
G75*
G02*
X14135000Y-32085000I0J75000D01*
G01*
X14135000Y-31385000D01*
G75*
G02*
X14210000Y-31310000I75000J0D01*
G01*
G37*
G36*
G01*
X13710000Y-31310000D02*
X13860000Y-31310000D01*
G75*
G02*
X13935000Y-31385000I0J-75000D01*
G01*
X13935000Y-32085000D01*
G75*
G02*
X13860000Y-32160000I-75000J0D01*
G01*
X13710000Y-32160000D01*
G75*
G02*
X13635000Y-32085000I0J75000D01*
G01*
X13635000Y-31385000D01*
G75*
G02*
X13710000Y-31310000I75000J0D01*
G01*
G37*
G36*
G01*
X13210000Y-31310000D02*
X13360000Y-31310000D01*
G75*
G02*
X13435000Y-31385000I0J-75000D01*
G01*
X13435000Y-32085000D01*
G75*
G02*
X13360000Y-32160000I-75000J0D01*
G01*
X13210000Y-32160000D01*
G75*
G02*
X13135000Y-32085000I0J75000D01*
G01*
X13135000Y-31385000D01*
G75*
G02*
X13210000Y-31310000I75000J0D01*
G01*
G37*
G36*
G01*
X12710000Y-31310000D02*
X12860000Y-31310000D01*
G75*
G02*
X12935000Y-31385000I0J-75000D01*
G01*
X12935000Y-32085000D01*
G75*
G02*
X12860000Y-32160000I-75000J0D01*
G01*
X12710000Y-32160000D01*
G75*
G02*
X12635000Y-32085000I0J75000D01*
G01*
X12635000Y-31385000D01*
G75*
G02*
X12710000Y-31310000I75000J0D01*
G01*
G37*
G36*
G01*
X12210000Y-31310000D02*
X12360000Y-31310000D01*
G75*
G02*
X12435000Y-31385000I0J-75000D01*
G01*
X12435000Y-32085000D01*
G75*
G02*
X12360000Y-32160000I-75000J0D01*
G01*
X12210000Y-32160000D01*
G75*
G02*
X12135000Y-32085000I0J75000D01*
G01*
X12135000Y-31385000D01*
G75*
G02*
X12210000Y-31310000I75000J0D01*
G01*
G37*
G36*
G01*
X11160000Y-31110000D02*
X11160000Y-30960000D01*
G75*
G02*
X11235000Y-30885000I75000J0D01*
G01*
X11935000Y-30885000D01*
G75*
G02*
X12010000Y-30960000I0J-75000D01*
G01*
X12010000Y-31110000D01*
G75*
G02*
X11935000Y-31185000I-75000J0D01*
G01*
X11235000Y-31185000D01*
G75*
G02*
X11160000Y-31110000I0J75000D01*
G01*
G37*
G36*
G01*
X11160000Y-30610000D02*
X11160000Y-30460000D01*
G75*
G02*
X11235000Y-30385000I75000J0D01*
G01*
X11935000Y-30385000D01*
G75*
G02*
X12010000Y-30460000I0J-75000D01*
G01*
X12010000Y-30610000D01*
G75*
G02*
X11935000Y-30685000I-75000J0D01*
G01*
X11235000Y-30685000D01*
G75*
G02*
X11160000Y-30610000I0J75000D01*
G01*
G37*
G36*
G01*
X11160000Y-30110000D02*
X11160000Y-29960000D01*
G75*
G02*
X11235000Y-29885000I75000J0D01*
G01*
X11935000Y-29885000D01*
G75*
G02*
X12010000Y-29960000I0J-75000D01*
G01*
X12010000Y-30110000D01*
G75*
G02*
X11935000Y-30185000I-75000J0D01*
G01*
X11235000Y-30185000D01*
G75*
G02*
X11160000Y-30110000I0J75000D01*
G01*
G37*
G36*
G01*
X11160000Y-29610000D02*
X11160000Y-29460000D01*
G75*
G02*
X11235000Y-29385000I75000J0D01*
G01*
X11935000Y-29385000D01*
G75*
G02*
X12010000Y-29460000I0J-75000D01*
G01*
X12010000Y-29610000D01*
G75*
G02*
X11935000Y-29685000I-75000J0D01*
G01*
X11235000Y-29685000D01*
G75*
G02*
X11160000Y-29610000I0J75000D01*
G01*
G37*
G36*
G01*
X11160000Y-29110000D02*
X11160000Y-28960000D01*
G75*
G02*
X11235000Y-28885000I75000J0D01*
G01*
X11935000Y-28885000D01*
G75*
G02*
X12010000Y-28960000I0J-75000D01*
G01*
X12010000Y-29110000D01*
G75*
G02*
X11935000Y-29185000I-75000J0D01*
G01*
X11235000Y-29185000D01*
G75*
G02*
X11160000Y-29110000I0J75000D01*
G01*
G37*
G36*
G01*
X11160000Y-28610000D02*
X11160000Y-28460000D01*
G75*
G02*
X11235000Y-28385000I75000J0D01*
G01*
X11935000Y-28385000D01*
G75*
G02*
X12010000Y-28460000I0J-75000D01*
G01*
X12010000Y-28610000D01*
G75*
G02*
X11935000Y-28685000I-75000J0D01*
G01*
X11235000Y-28685000D01*
G75*
G02*
X11160000Y-28610000I0J75000D01*
G01*
G37*
G36*
G01*
X12210000Y-27410000D02*
X12360000Y-27410000D01*
G75*
G02*
X12435000Y-27485000I0J-75000D01*
G01*
X12435000Y-28185000D01*
G75*
G02*
X12360000Y-28260000I-75000J0D01*
G01*
X12210000Y-28260000D01*
G75*
G02*
X12135000Y-28185000I0J75000D01*
G01*
X12135000Y-27485000D01*
G75*
G02*
X12210000Y-27410000I75000J0D01*
G01*
G37*
G36*
G01*
X12710000Y-27410000D02*
X12860000Y-27410000D01*
G75*
G02*
X12935000Y-27485000I0J-75000D01*
G01*
X12935000Y-28185000D01*
G75*
G02*
X12860000Y-28260000I-75000J0D01*
G01*
X12710000Y-28260000D01*
G75*
G02*
X12635000Y-28185000I0J75000D01*
G01*
X12635000Y-27485000D01*
G75*
G02*
X12710000Y-27410000I75000J0D01*
G01*
G37*
G36*
G01*
X13210000Y-27410000D02*
X13360000Y-27410000D01*
G75*
G02*
X13435000Y-27485000I0J-75000D01*
G01*
X13435000Y-28185000D01*
G75*
G02*
X13360000Y-28260000I-75000J0D01*
G01*
X13210000Y-28260000D01*
G75*
G02*
X13135000Y-28185000I0J75000D01*
G01*
X13135000Y-27485000D01*
G75*
G02*
X13210000Y-27410000I75000J0D01*
G01*
G37*
G36*
G01*
X13710000Y-27410000D02*
X13860000Y-27410000D01*
G75*
G02*
X13935000Y-27485000I0J-75000D01*
G01*
X13935000Y-28185000D01*
G75*
G02*
X13860000Y-28260000I-75000J0D01*
G01*
X13710000Y-28260000D01*
G75*
G02*
X13635000Y-28185000I0J75000D01*
G01*
X13635000Y-27485000D01*
G75*
G02*
X13710000Y-27410000I75000J0D01*
G01*
G37*
G36*
G01*
X14210000Y-27410000D02*
X14360000Y-27410000D01*
G75*
G02*
X14435000Y-27485000I0J-75000D01*
G01*
X14435000Y-28185000D01*
G75*
G02*
X14360000Y-28260000I-75000J0D01*
G01*
X14210000Y-28260000D01*
G75*
G02*
X14135000Y-28185000I0J75000D01*
G01*
X14135000Y-27485000D01*
G75*
G02*
X14210000Y-27410000I75000J0D01*
G01*
G37*
G36*
G01*
X14710000Y-27410000D02*
X14860000Y-27410000D01*
G75*
G02*
X14935000Y-27485000I0J-75000D01*
G01*
X14935000Y-28185000D01*
G75*
G02*
X14860000Y-28260000I-75000J0D01*
G01*
X14710000Y-28260000D01*
G75*
G02*
X14635000Y-28185000I0J75000D01*
G01*
X14635000Y-27485000D01*
G75*
G02*
X14710000Y-27410000I75000J0D01*
G01*
G37*
D37*
X23187000Y-32452000D03*
G36*
G01*
X25074500Y-31077000D02*
X25949500Y-31077000D01*
G75*
G02*
X26037000Y-31164500I0J-87500D01*
G01*
X26037000Y-31339500D01*
G75*
G02*
X25949500Y-31427000I-87500J0D01*
G01*
X25074500Y-31427000D01*
G75*
G02*
X24987000Y-31339500I0J87500D01*
G01*
X24987000Y-31164500D01*
G75*
G02*
X25074500Y-31077000I87500J0D01*
G01*
G37*
G36*
G01*
X25074500Y-31877000D02*
X25949500Y-31877000D01*
G75*
G02*
X26037000Y-31964500I0J-87500D01*
G01*
X26037000Y-32139500D01*
G75*
G02*
X25949500Y-32227000I-87500J0D01*
G01*
X25074500Y-32227000D01*
G75*
G02*
X24987000Y-32139500I0J87500D01*
G01*
X24987000Y-31964500D01*
G75*
G02*
X25074500Y-31877000I87500J0D01*
G01*
G37*
G36*
G01*
X25074500Y-32677000D02*
X25949500Y-32677000D01*
G75*
G02*
X26037000Y-32764500I0J-87500D01*
G01*
X26037000Y-32939500D01*
G75*
G02*
X25949500Y-33027000I-87500J0D01*
G01*
X25074500Y-33027000D01*
G75*
G02*
X24987000Y-32939500I0J87500D01*
G01*
X24987000Y-32764500D01*
G75*
G02*
X25074500Y-32677000I87500J0D01*
G01*
G37*
G36*
G01*
X25074500Y-33477000D02*
X25949500Y-33477000D01*
G75*
G02*
X26037000Y-33564500I0J-87500D01*
G01*
X26037000Y-33739500D01*
G75*
G02*
X25949500Y-33827000I-87500J0D01*
G01*
X25074500Y-33827000D01*
G75*
G02*
X24987000Y-33739500I0J87500D01*
G01*
X24987000Y-33564500D01*
G75*
G02*
X25074500Y-33477000I87500J0D01*
G01*
G37*
G36*
G01*
X24299500Y-34252000D02*
X24474500Y-34252000D01*
G75*
G02*
X24562000Y-34339500I0J-87500D01*
G01*
X24562000Y-35214500D01*
G75*
G02*
X24474500Y-35302000I-87500J0D01*
G01*
X24299500Y-35302000D01*
G75*
G02*
X24212000Y-35214500I0J87500D01*
G01*
X24212000Y-34339500D01*
G75*
G02*
X24299500Y-34252000I87500J0D01*
G01*
G37*
G36*
G01*
X23499500Y-34252000D02*
X23674500Y-34252000D01*
G75*
G02*
X23762000Y-34339500I0J-87500D01*
G01*
X23762000Y-35214500D01*
G75*
G02*
X23674500Y-35302000I-87500J0D01*
G01*
X23499500Y-35302000D01*
G75*
G02*
X23412000Y-35214500I0J87500D01*
G01*
X23412000Y-34339500D01*
G75*
G02*
X23499500Y-34252000I87500J0D01*
G01*
G37*
G36*
G01*
X22699500Y-34252000D02*
X22874500Y-34252000D01*
G75*
G02*
X22962000Y-34339500I0J-87500D01*
G01*
X22962000Y-35214500D01*
G75*
G02*
X22874500Y-35302000I-87500J0D01*
G01*
X22699500Y-35302000D01*
G75*
G02*
X22612000Y-35214500I0J87500D01*
G01*
X22612000Y-34339500D01*
G75*
G02*
X22699500Y-34252000I87500J0D01*
G01*
G37*
G36*
G01*
X21899500Y-34252000D02*
X22074500Y-34252000D01*
G75*
G02*
X22162000Y-34339500I0J-87500D01*
G01*
X22162000Y-35214500D01*
G75*
G02*
X22074500Y-35302000I-87500J0D01*
G01*
X21899500Y-35302000D01*
G75*
G02*
X21812000Y-35214500I0J87500D01*
G01*
X21812000Y-34339500D01*
G75*
G02*
X21899500Y-34252000I87500J0D01*
G01*
G37*
G36*
G01*
X20424500Y-33477000D02*
X21299500Y-33477000D01*
G75*
G02*
X21387000Y-33564500I0J-87500D01*
G01*
X21387000Y-33739500D01*
G75*
G02*
X21299500Y-33827000I-87500J0D01*
G01*
X20424500Y-33827000D01*
G75*
G02*
X20337000Y-33739500I0J87500D01*
G01*
X20337000Y-33564500D01*
G75*
G02*
X20424500Y-33477000I87500J0D01*
G01*
G37*
G36*
G01*
X20424500Y-32677000D02*
X21299500Y-32677000D01*
G75*
G02*
X21387000Y-32764500I0J-87500D01*
G01*
X21387000Y-32939500D01*
G75*
G02*
X21299500Y-33027000I-87500J0D01*
G01*
X20424500Y-33027000D01*
G75*
G02*
X20337000Y-32939500I0J87500D01*
G01*
X20337000Y-32764500D01*
G75*
G02*
X20424500Y-32677000I87500J0D01*
G01*
G37*
G36*
G01*
X20424500Y-31877000D02*
X21299500Y-31877000D01*
G75*
G02*
X21387000Y-31964500I0J-87500D01*
G01*
X21387000Y-32139500D01*
G75*
G02*
X21299500Y-32227000I-87500J0D01*
G01*
X20424500Y-32227000D01*
G75*
G02*
X20337000Y-32139500I0J87500D01*
G01*
X20337000Y-31964500D01*
G75*
G02*
X20424500Y-31877000I87500J0D01*
G01*
G37*
G36*
G01*
X20424500Y-31077000D02*
X21299500Y-31077000D01*
G75*
G02*
X21387000Y-31164500I0J-87500D01*
G01*
X21387000Y-31339500D01*
G75*
G02*
X21299500Y-31427000I-87500J0D01*
G01*
X20424500Y-31427000D01*
G75*
G02*
X20337000Y-31339500I0J87500D01*
G01*
X20337000Y-31164500D01*
G75*
G02*
X20424500Y-31077000I87500J0D01*
G01*
G37*
G36*
G01*
X21899500Y-29602000D02*
X22074500Y-29602000D01*
G75*
G02*
X22162000Y-29689500I0J-87500D01*
G01*
X22162000Y-30564500D01*
G75*
G02*
X22074500Y-30652000I-87500J0D01*
G01*
X21899500Y-30652000D01*
G75*
G02*
X21812000Y-30564500I0J87500D01*
G01*
X21812000Y-29689500D01*
G75*
G02*
X21899500Y-29602000I87500J0D01*
G01*
G37*
G36*
G01*
X22699500Y-29602000D02*
X22874500Y-29602000D01*
G75*
G02*
X22962000Y-29689500I0J-87500D01*
G01*
X22962000Y-30564500D01*
G75*
G02*
X22874500Y-30652000I-87500J0D01*
G01*
X22699500Y-30652000D01*
G75*
G02*
X22612000Y-30564500I0J87500D01*
G01*
X22612000Y-29689500D01*
G75*
G02*
X22699500Y-29602000I87500J0D01*
G01*
G37*
G36*
G01*
X23499500Y-29602000D02*
X23674500Y-29602000D01*
G75*
G02*
X23762000Y-29689500I0J-87500D01*
G01*
X23762000Y-30564500D01*
G75*
G02*
X23674500Y-30652000I-87500J0D01*
G01*
X23499500Y-30652000D01*
G75*
G02*
X23412000Y-30564500I0J87500D01*
G01*
X23412000Y-29689500D01*
G75*
G02*
X23499500Y-29602000I87500J0D01*
G01*
G37*
G36*
G01*
X24299500Y-29602000D02*
X24474500Y-29602000D01*
G75*
G02*
X24562000Y-29689500I0J-87500D01*
G01*
X24562000Y-30564500D01*
G75*
G02*
X24474500Y-30652000I-87500J0D01*
G01*
X24299500Y-30652000D01*
G75*
G02*
X24212000Y-30564500I0J87500D01*
G01*
X24212000Y-29689500D01*
G75*
G02*
X24299500Y-29602000I87500J0D01*
G01*
G37*
M02*
