G04 #@! TF.GenerationSoftware,KiCad,Pcbnew,(5.1.10)-1*
G04 #@! TF.CreationDate,2021-10-27T16:42:24-05:00*
G04 #@! TF.ProjectId,Board,426f6172-642e-46b6-9963-61645f706362,rev?*
G04 #@! TF.SameCoordinates,PX88abcb0PY37c5580*
G04 #@! TF.FileFunction,Copper,L3,Inr*
G04 #@! TF.FilePolarity,Positive*
%FSLAX46Y46*%
G04 Gerber Fmt 4.6, Leading zero omitted, Abs format (unit mm)*
G04 Created by KiCad (PCBNEW (5.1.10)-1) date 2021-10-27 16:42:24*
%MOMM*%
%LPD*%
G01*
G04 APERTURE LIST*
G04 #@! TA.AperFunction,ComponentPad*
%ADD10C,1.000000*%
G04 #@! TD*
G04 #@! TA.AperFunction,ComponentPad*
%ADD11C,5.500000*%
G04 #@! TD*
G04 #@! TA.AperFunction,ViaPad*
%ADD12C,0.800000*%
G04 #@! TD*
G04 #@! TA.AperFunction,Conductor*
%ADD13C,0.254000*%
G04 #@! TD*
G04 #@! TA.AperFunction,Conductor*
%ADD14C,0.100000*%
G04 #@! TD*
G04 APERTURE END LIST*
D10*
X-11000000Y-46250000D03*
X-3000000Y-46250000D03*
D11*
X-21644000Y-1845000D03*
X30934000Y-1845000D03*
X30934000Y-44898000D03*
X-21644000Y-44898000D03*
D12*
X18361000Y-31436000D03*
X-15548000Y-9719000D03*
X-11865000Y-9719000D03*
X-13643000Y-11370000D03*
X-24311000Y-10481000D03*
X-24057000Y-25848000D03*
X-20628000Y-25848000D03*
X-21898000Y-25848000D03*
X-14405000Y-25848000D03*
X-8563000Y-25213000D03*
X-6810000Y-17520000D03*
X-15421000Y-4893000D03*
X-11611000Y-4893000D03*
X2718000Y-829000D03*
X6020000Y-4131000D03*
X26108000Y-2861000D03*
X26616000Y-17847000D03*
X27505000Y-17847000D03*
X28394000Y-17847000D03*
X28775000Y-25340000D03*
X24330000Y-35754000D03*
X21409000Y-40707000D03*
X23187000Y-40707000D03*
X24965000Y-42739000D03*
X24965000Y-43628000D03*
X23187000Y-45533000D03*
X22298000Y-45533000D03*
X21409000Y-45533000D03*
X22298000Y-40707000D03*
X15440000Y-42866000D03*
X15440000Y-44898000D03*
X5915000Y-36262000D03*
X2105000Y-36008000D03*
X2105000Y-36897000D03*
X-14786000Y-36008000D03*
X-14786000Y-36897000D03*
X2740000Y-45279000D03*
X2740000Y-46422000D03*
X-14786000Y-45279000D03*
X-14786000Y-46549000D03*
X11122000Y-17847000D03*
X11122000Y-19371000D03*
X11122000Y-16323000D03*
X962000Y-12259000D03*
X5026000Y-38929000D03*
X-9040000Y-33880000D03*
X-1324000Y-16323000D03*
X200000Y-16323000D03*
X-5769000Y-20387000D03*
X9979000Y-33214000D03*
X10840000Y-33140000D03*
X26489000Y-33595000D03*
X20790000Y-25213000D03*
X20290000Y-15020000D03*
X-4499000Y-24451000D03*
X14805000Y-26820000D03*
X5407000Y-32579000D03*
X18290000Y-40120000D03*
X19190000Y-40620000D03*
X18234000Y-44720000D03*
X19090000Y-44320000D03*
X19890000Y-44120000D03*
X19790000Y-42220000D03*
X19890000Y-41220000D03*
X15290000Y-39920000D03*
X15290000Y-41120000D03*
X20590000Y-41820000D03*
X20490000Y-44820000D03*
X22690000Y-42820000D03*
X21990000Y-43420000D03*
X24203000Y-13783000D03*
X15090000Y-43920000D03*
X9790000Y-29520000D03*
X15790000Y-5620000D03*
X14390000Y-5620000D03*
X11990000Y-5620000D03*
X17090000Y-5620000D03*
X-15802000Y-25848000D03*
X-4245000Y-575000D03*
X6020000Y-2226000D03*
X26489000Y-32071000D03*
X7693000Y-17720000D03*
X7693000Y-19117000D03*
X4010000Y-12259000D03*
X2359000Y-12259000D03*
X19885000Y-33722000D03*
X5915000Y-44136000D03*
X-5261000Y-29404000D03*
X-6710000Y-33820000D03*
X23568000Y-29150000D03*
X-2213000Y-18482000D03*
X10390000Y-28720000D03*
X11884000Y-32452000D03*
X-6531000Y-29404000D03*
X7693000Y-29277000D03*
X6680000Y-32620000D03*
X4772000Y-42231000D03*
X7590000Y-16320000D03*
X-7710000Y-7020000D03*
X10090000Y-25520000D03*
X5190000Y-16020000D03*
X1355126Y-23082397D03*
X-9960000Y-21911000D03*
X-2975000Y-28388000D03*
X-9960000Y-20387000D03*
X-2467000Y-27499000D03*
X5903000Y-21557215D03*
X15821000Y-25975000D03*
X17218000Y-29150000D03*
X19885000Y-28769000D03*
X6224440Y-20610284D03*
X6904571Y-1759590D03*
X2261236Y-22659350D03*
X-6912000Y-8449000D03*
X-1070000Y-26737000D03*
X327000Y-27880000D03*
X-5366332Y-7963994D03*
X-10214000Y-16323000D03*
X6188634Y-24043804D03*
X6296000Y-25594000D03*
X-10214000Y-17593000D03*
X5588892Y-24844000D03*
X-8055000Y-17212000D03*
X-9960000Y-18863000D03*
X8582000Y-33988000D03*
X8290000Y-27420000D03*
X4699892Y-33286108D03*
X7058000Y-34738000D03*
X-10110000Y-33020000D03*
X-5950169Y-33032831D03*
X3281257Y-22443000D03*
X8836000Y-7306000D03*
D13*
X29330601Y1154748D02*
X28776188Y784302D01*
X28304698Y312812D01*
X27934252Y-241601D01*
X27679083Y-857632D01*
X27549000Y-1511607D01*
X27549000Y-2178393D01*
X27679083Y-2832368D01*
X27934252Y-3448399D01*
X28304698Y-4002812D01*
X28776188Y-4474302D01*
X29330601Y-4844748D01*
X29946632Y-5099917D01*
X30600607Y-5230000D01*
X31267393Y-5230000D01*
X31921368Y-5099917D01*
X32537399Y-4844748D01*
X33091812Y-4474302D01*
X33563302Y-4002812D01*
X33933748Y-3448399D01*
X33957000Y-3392264D01*
X33957001Y-43350738D01*
X33933748Y-43294601D01*
X33563302Y-42740188D01*
X33091812Y-42268698D01*
X32537399Y-41898252D01*
X31921368Y-41643083D01*
X31267393Y-41513000D01*
X30600607Y-41513000D01*
X29946632Y-41643083D01*
X29330601Y-41898252D01*
X28776188Y-42268698D01*
X28304698Y-42740188D01*
X27934252Y-43294601D01*
X27679083Y-43910632D01*
X27549000Y-44564607D01*
X27549000Y-45231393D01*
X27679083Y-45885368D01*
X27934252Y-46501399D01*
X28304698Y-47055812D01*
X28776188Y-47527302D01*
X29330601Y-47897748D01*
X29386736Y-47921000D01*
X-20096736Y-47921000D01*
X-20040601Y-47897748D01*
X-19486188Y-47527302D01*
X-19014698Y-47055812D01*
X-18644252Y-46501399D01*
X-18389083Y-45885368D01*
X-18259000Y-45231393D01*
X-18259000Y-45177061D01*
X-15821000Y-45177061D01*
X-15821000Y-45380939D01*
X-15781226Y-45580898D01*
X-15703205Y-45769256D01*
X-15606490Y-45914000D01*
X-15703205Y-46058744D01*
X-15781226Y-46247102D01*
X-15821000Y-46447061D01*
X-15821000Y-46650939D01*
X-15781226Y-46850898D01*
X-15703205Y-47039256D01*
X-15589937Y-47208774D01*
X-15445774Y-47352937D01*
X-15276256Y-47466205D01*
X-15087898Y-47544226D01*
X-14887939Y-47584000D01*
X-14684061Y-47584000D01*
X-14484102Y-47544226D01*
X-14295744Y-47466205D01*
X-14126226Y-47352937D01*
X-13982063Y-47208774D01*
X-13868795Y-47039256D01*
X-13790774Y-46850898D01*
X-13751000Y-46650939D01*
X-13751000Y-46447061D01*
X-13790774Y-46247102D01*
X-13835878Y-46138212D01*
X-12135000Y-46138212D01*
X-12135000Y-46361788D01*
X-12091383Y-46581067D01*
X-12005824Y-46787624D01*
X-11881612Y-46973520D01*
X-11723520Y-47131612D01*
X-11537624Y-47255824D01*
X-11331067Y-47341383D01*
X-11111788Y-47385000D01*
X-10888212Y-47385000D01*
X-10668933Y-47341383D01*
X-10462376Y-47255824D01*
X-10276480Y-47131612D01*
X-10118388Y-46973520D01*
X-9994176Y-46787624D01*
X-9908617Y-46581067D01*
X-9865000Y-46361788D01*
X-9865000Y-46138212D01*
X-4135000Y-46138212D01*
X-4135000Y-46361788D01*
X-4091383Y-46581067D01*
X-4005824Y-46787624D01*
X-3881612Y-46973520D01*
X-3723520Y-47131612D01*
X-3537624Y-47255824D01*
X-3331067Y-47341383D01*
X-3111788Y-47385000D01*
X-2888212Y-47385000D01*
X-2668933Y-47341383D01*
X-2462376Y-47255824D01*
X-2276480Y-47131612D01*
X-2118388Y-46973520D01*
X-1994176Y-46787624D01*
X-1908617Y-46581067D01*
X-1865000Y-46361788D01*
X-1865000Y-46138212D01*
X-1908617Y-45918933D01*
X-1994176Y-45712376D01*
X-2118388Y-45526480D01*
X-2276480Y-45368388D01*
X-2462376Y-45244176D01*
X-2624405Y-45177061D01*
X1705000Y-45177061D01*
X1705000Y-45380939D01*
X1744774Y-45580898D01*
X1822795Y-45769256D01*
X1877080Y-45850500D01*
X1822795Y-45931744D01*
X1744774Y-46120102D01*
X1705000Y-46320061D01*
X1705000Y-46523939D01*
X1744774Y-46723898D01*
X1822795Y-46912256D01*
X1936063Y-47081774D01*
X2080226Y-47225937D01*
X2249744Y-47339205D01*
X2438102Y-47417226D01*
X2638061Y-47457000D01*
X2841939Y-47457000D01*
X3041898Y-47417226D01*
X3230256Y-47339205D01*
X3399774Y-47225937D01*
X3543937Y-47081774D01*
X3657205Y-46912256D01*
X3735226Y-46723898D01*
X3775000Y-46523939D01*
X3775000Y-46320061D01*
X3735226Y-46120102D01*
X3657205Y-45931744D01*
X3602920Y-45850500D01*
X3657205Y-45769256D01*
X3735226Y-45580898D01*
X3775000Y-45380939D01*
X3775000Y-45177061D01*
X3735226Y-44977102D01*
X3657205Y-44788744D01*
X3543937Y-44619226D01*
X3399774Y-44475063D01*
X3230256Y-44361795D01*
X3041898Y-44283774D01*
X2841939Y-44244000D01*
X2638061Y-44244000D01*
X2438102Y-44283774D01*
X2249744Y-44361795D01*
X2080226Y-44475063D01*
X1936063Y-44619226D01*
X1822795Y-44788744D01*
X1744774Y-44977102D01*
X1705000Y-45177061D01*
X-2624405Y-45177061D01*
X-2668933Y-45158617D01*
X-2888212Y-45115000D01*
X-3111788Y-45115000D01*
X-3331067Y-45158617D01*
X-3537624Y-45244176D01*
X-3723520Y-45368388D01*
X-3881612Y-45526480D01*
X-4005824Y-45712376D01*
X-4091383Y-45918933D01*
X-4135000Y-46138212D01*
X-9865000Y-46138212D01*
X-9908617Y-45918933D01*
X-9994176Y-45712376D01*
X-10118388Y-45526480D01*
X-10276480Y-45368388D01*
X-10462376Y-45244176D01*
X-10668933Y-45158617D01*
X-10888212Y-45115000D01*
X-11111788Y-45115000D01*
X-11331067Y-45158617D01*
X-11537624Y-45244176D01*
X-11723520Y-45368388D01*
X-11881612Y-45526480D01*
X-12005824Y-45712376D01*
X-12091383Y-45918933D01*
X-12135000Y-46138212D01*
X-13835878Y-46138212D01*
X-13868795Y-46058744D01*
X-13965510Y-45914000D01*
X-13868795Y-45769256D01*
X-13790774Y-45580898D01*
X-13751000Y-45380939D01*
X-13751000Y-45177061D01*
X-13790774Y-44977102D01*
X-13868795Y-44788744D01*
X-13982063Y-44619226D01*
X-14126226Y-44475063D01*
X-14295744Y-44361795D01*
X-14484102Y-44283774D01*
X-14684061Y-44244000D01*
X-14887939Y-44244000D01*
X-15087898Y-44283774D01*
X-15276256Y-44361795D01*
X-15445774Y-44475063D01*
X-15589937Y-44619226D01*
X-15703205Y-44788744D01*
X-15781226Y-44977102D01*
X-15821000Y-45177061D01*
X-18259000Y-45177061D01*
X-18259000Y-44564607D01*
X-18389083Y-43910632D01*
X-18427427Y-43818061D01*
X14055000Y-43818061D01*
X14055000Y-44021939D01*
X14094774Y-44221898D01*
X14172795Y-44410256D01*
X14286063Y-44579774D01*
X14421151Y-44714862D01*
X14405000Y-44796061D01*
X14405000Y-44999939D01*
X14444774Y-45199898D01*
X14522795Y-45388256D01*
X14636063Y-45557774D01*
X14780226Y-45701937D01*
X14949744Y-45815205D01*
X15138102Y-45893226D01*
X15338061Y-45933000D01*
X15541939Y-45933000D01*
X15741898Y-45893226D01*
X15930256Y-45815205D01*
X16099774Y-45701937D01*
X16243937Y-45557774D01*
X16357205Y-45388256D01*
X16435226Y-45199898D01*
X16475000Y-44999939D01*
X16475000Y-44796061D01*
X16439594Y-44618061D01*
X17199000Y-44618061D01*
X17199000Y-44821939D01*
X17238774Y-45021898D01*
X17316795Y-45210256D01*
X17430063Y-45379774D01*
X17574226Y-45523937D01*
X17743744Y-45637205D01*
X17932102Y-45715226D01*
X18132061Y-45755000D01*
X18335939Y-45755000D01*
X18535898Y-45715226D01*
X18724256Y-45637205D01*
X18893774Y-45523937D01*
X19037937Y-45379774D01*
X19054490Y-45355000D01*
X19191939Y-45355000D01*
X19391898Y-45315226D01*
X19548060Y-45250541D01*
X19572795Y-45310256D01*
X19686063Y-45479774D01*
X19830226Y-45623937D01*
X19999744Y-45737205D01*
X20188102Y-45815226D01*
X20388061Y-45855000D01*
X20422101Y-45855000D01*
X20491795Y-46023256D01*
X20605063Y-46192774D01*
X20749226Y-46336937D01*
X20918744Y-46450205D01*
X21107102Y-46528226D01*
X21307061Y-46568000D01*
X21510939Y-46568000D01*
X21710898Y-46528226D01*
X21853500Y-46469158D01*
X21996102Y-46528226D01*
X22196061Y-46568000D01*
X22399939Y-46568000D01*
X22599898Y-46528226D01*
X22742500Y-46469158D01*
X22885102Y-46528226D01*
X23085061Y-46568000D01*
X23288939Y-46568000D01*
X23488898Y-46528226D01*
X23677256Y-46450205D01*
X23846774Y-46336937D01*
X23990937Y-46192774D01*
X24104205Y-46023256D01*
X24182226Y-45834898D01*
X24222000Y-45634939D01*
X24222000Y-45431061D01*
X24182226Y-45231102D01*
X24104205Y-45042744D01*
X23990937Y-44873226D01*
X23846774Y-44729063D01*
X23677256Y-44615795D01*
X23488898Y-44537774D01*
X23288939Y-44498000D01*
X23085061Y-44498000D01*
X22885102Y-44537774D01*
X22742500Y-44596842D01*
X22599898Y-44537774D01*
X22399939Y-44498000D01*
X22196061Y-44498000D01*
X21996102Y-44537774D01*
X21853500Y-44596842D01*
X21710898Y-44537774D01*
X21510939Y-44498000D01*
X21476899Y-44498000D01*
X21407205Y-44329744D01*
X21341573Y-44231519D01*
X21499744Y-44337205D01*
X21688102Y-44415226D01*
X21888061Y-44455000D01*
X22091939Y-44455000D01*
X22291898Y-44415226D01*
X22480256Y-44337205D01*
X22649774Y-44223937D01*
X22793937Y-44079774D01*
X22907205Y-43910256D01*
X22942498Y-43825052D01*
X22991898Y-43815226D01*
X23180256Y-43737205D01*
X23349774Y-43623937D01*
X23493937Y-43479774D01*
X23607205Y-43310256D01*
X23685226Y-43121898D01*
X23725000Y-42921939D01*
X23725000Y-42718061D01*
X23708889Y-42637061D01*
X23930000Y-42637061D01*
X23930000Y-42840939D01*
X23969774Y-43040898D01*
X24028842Y-43183500D01*
X23969774Y-43326102D01*
X23930000Y-43526061D01*
X23930000Y-43729939D01*
X23969774Y-43929898D01*
X24047795Y-44118256D01*
X24161063Y-44287774D01*
X24305226Y-44431937D01*
X24474744Y-44545205D01*
X24663102Y-44623226D01*
X24863061Y-44663000D01*
X25066939Y-44663000D01*
X25266898Y-44623226D01*
X25455256Y-44545205D01*
X25624774Y-44431937D01*
X25768937Y-44287774D01*
X25882205Y-44118256D01*
X25960226Y-43929898D01*
X26000000Y-43729939D01*
X26000000Y-43526061D01*
X25960226Y-43326102D01*
X25901158Y-43183500D01*
X25960226Y-43040898D01*
X26000000Y-42840939D01*
X26000000Y-42637061D01*
X25960226Y-42437102D01*
X25882205Y-42248744D01*
X25768937Y-42079226D01*
X25624774Y-41935063D01*
X25455256Y-41821795D01*
X25266898Y-41743774D01*
X25066939Y-41704000D01*
X24863061Y-41704000D01*
X24663102Y-41743774D01*
X24474744Y-41821795D01*
X24305226Y-41935063D01*
X24161063Y-42079226D01*
X24047795Y-42248744D01*
X23969774Y-42437102D01*
X23930000Y-42637061D01*
X23708889Y-42637061D01*
X23685226Y-42518102D01*
X23607205Y-42329744D01*
X23493937Y-42160226D01*
X23349774Y-42016063D01*
X23180256Y-41902795D01*
X22991898Y-41824774D01*
X22791939Y-41785000D01*
X22588061Y-41785000D01*
X22388102Y-41824774D01*
X22199744Y-41902795D01*
X22030226Y-42016063D01*
X21886063Y-42160226D01*
X21772795Y-42329744D01*
X21737502Y-42414948D01*
X21688102Y-42424774D01*
X21499744Y-42502795D01*
X21330226Y-42616063D01*
X21186063Y-42760226D01*
X21072795Y-42929744D01*
X20994774Y-43118102D01*
X20955000Y-43318061D01*
X20955000Y-43521939D01*
X20994774Y-43721898D01*
X21072795Y-43910256D01*
X21138427Y-44008481D01*
X20980256Y-43902795D01*
X20895052Y-43867502D01*
X20885226Y-43818102D01*
X20807205Y-43629744D01*
X20693937Y-43460226D01*
X20549774Y-43316063D01*
X20380256Y-43202795D01*
X20251082Y-43149289D01*
X20280256Y-43137205D01*
X20449774Y-43023937D01*
X20593937Y-42879774D01*
X20610490Y-42855000D01*
X20691939Y-42855000D01*
X20891898Y-42815226D01*
X21080256Y-42737205D01*
X21249774Y-42623937D01*
X21393937Y-42479774D01*
X21507205Y-42310256D01*
X21585226Y-42121898D01*
X21625000Y-41921939D01*
X21625000Y-41719312D01*
X21710898Y-41702226D01*
X21853500Y-41643158D01*
X21996102Y-41702226D01*
X22196061Y-41742000D01*
X22399939Y-41742000D01*
X22599898Y-41702226D01*
X22742500Y-41643158D01*
X22885102Y-41702226D01*
X23085061Y-41742000D01*
X23288939Y-41742000D01*
X23488898Y-41702226D01*
X23677256Y-41624205D01*
X23846774Y-41510937D01*
X23990937Y-41366774D01*
X24104205Y-41197256D01*
X24182226Y-41008898D01*
X24222000Y-40808939D01*
X24222000Y-40605061D01*
X24182226Y-40405102D01*
X24178825Y-40396890D01*
X31440048Y-40396890D01*
X31440048Y-40643110D01*
X31488083Y-40884598D01*
X31582307Y-41112074D01*
X31719099Y-41316798D01*
X31893202Y-41490901D01*
X32097926Y-41627693D01*
X32325402Y-41721917D01*
X32566890Y-41769952D01*
X32813110Y-41769952D01*
X33054598Y-41721917D01*
X33282074Y-41627693D01*
X33486798Y-41490901D01*
X33660901Y-41316798D01*
X33797693Y-41112074D01*
X33891917Y-40884598D01*
X33939952Y-40643110D01*
X33939952Y-40396890D01*
X33891917Y-40155402D01*
X33797693Y-39927926D01*
X33660901Y-39723202D01*
X33486798Y-39549099D01*
X33282074Y-39412307D01*
X33054598Y-39318083D01*
X32813110Y-39270048D01*
X32566890Y-39270048D01*
X32325402Y-39318083D01*
X32097926Y-39412307D01*
X31893202Y-39549099D01*
X31719099Y-39723202D01*
X31582307Y-39927926D01*
X31488083Y-40155402D01*
X31440048Y-40396890D01*
X24178825Y-40396890D01*
X24104205Y-40216744D01*
X23990937Y-40047226D01*
X23846774Y-39903063D01*
X23677256Y-39789795D01*
X23488898Y-39711774D01*
X23288939Y-39672000D01*
X23085061Y-39672000D01*
X22885102Y-39711774D01*
X22742500Y-39770842D01*
X22599898Y-39711774D01*
X22399939Y-39672000D01*
X22196061Y-39672000D01*
X21996102Y-39711774D01*
X21853500Y-39770842D01*
X21710898Y-39711774D01*
X21510939Y-39672000D01*
X21307061Y-39672000D01*
X21107102Y-39711774D01*
X20918744Y-39789795D01*
X20749226Y-39903063D01*
X20605063Y-40047226D01*
X20491795Y-40216744D01*
X20439699Y-40342514D01*
X20380256Y-40302795D01*
X20191898Y-40224774D01*
X20142498Y-40214948D01*
X20107205Y-40129744D01*
X19993937Y-39960226D01*
X19849774Y-39816063D01*
X19680256Y-39702795D01*
X19491898Y-39624774D01*
X19291939Y-39585000D01*
X19177308Y-39585000D01*
X19093937Y-39460226D01*
X18949774Y-39316063D01*
X18780256Y-39202795D01*
X18591898Y-39124774D01*
X18391939Y-39085000D01*
X18188061Y-39085000D01*
X17988102Y-39124774D01*
X17799744Y-39202795D01*
X17630226Y-39316063D01*
X17486063Y-39460226D01*
X17372795Y-39629744D01*
X17294774Y-39818102D01*
X17255000Y-40018061D01*
X17255000Y-40221939D01*
X17294774Y-40421898D01*
X17372795Y-40610256D01*
X17486063Y-40779774D01*
X17630226Y-40923937D01*
X17799744Y-41037205D01*
X17988102Y-41115226D01*
X18188061Y-41155000D01*
X18302692Y-41155000D01*
X18386063Y-41279774D01*
X18530226Y-41423937D01*
X18699744Y-41537205D01*
X18888102Y-41615226D01*
X18937502Y-41625052D01*
X18939510Y-41629898D01*
X18872795Y-41729744D01*
X18794774Y-41918102D01*
X18755000Y-42118061D01*
X18755000Y-42321939D01*
X18794774Y-42521898D01*
X18872795Y-42710256D01*
X18986063Y-42879774D01*
X19130226Y-43023937D01*
X19299744Y-43137205D01*
X19428918Y-43190711D01*
X19399744Y-43202795D01*
X19257267Y-43297995D01*
X19191939Y-43285000D01*
X18988061Y-43285000D01*
X18788102Y-43324774D01*
X18599744Y-43402795D01*
X18430226Y-43516063D01*
X18286063Y-43660226D01*
X18269510Y-43685000D01*
X18132061Y-43685000D01*
X17932102Y-43724774D01*
X17743744Y-43802795D01*
X17574226Y-43916063D01*
X17430063Y-44060226D01*
X17316795Y-44229744D01*
X17238774Y-44418102D01*
X17199000Y-44618061D01*
X16439594Y-44618061D01*
X16435226Y-44596102D01*
X16357205Y-44407744D01*
X16243937Y-44238226D01*
X16108849Y-44103138D01*
X16125000Y-44021939D01*
X16125000Y-43818061D01*
X16096034Y-43672436D01*
X16099774Y-43669937D01*
X16243937Y-43525774D01*
X16357205Y-43356256D01*
X16435226Y-43167898D01*
X16475000Y-42967939D01*
X16475000Y-42764061D01*
X16435226Y-42564102D01*
X16357205Y-42375744D01*
X16243937Y-42206226D01*
X16099774Y-42062063D01*
X15930256Y-41948795D01*
X15919339Y-41944273D01*
X15949774Y-41923937D01*
X16093937Y-41779774D01*
X16207205Y-41610256D01*
X16285226Y-41421898D01*
X16325000Y-41221939D01*
X16325000Y-41018061D01*
X16285226Y-40818102D01*
X16207205Y-40629744D01*
X16133877Y-40520000D01*
X16207205Y-40410256D01*
X16285226Y-40221898D01*
X16325000Y-40021939D01*
X16325000Y-39818061D01*
X16285226Y-39618102D01*
X16207205Y-39429744D01*
X16093937Y-39260226D01*
X15949774Y-39116063D01*
X15780256Y-39002795D01*
X15591898Y-38924774D01*
X15391939Y-38885000D01*
X15188061Y-38885000D01*
X14988102Y-38924774D01*
X14799744Y-39002795D01*
X14630226Y-39116063D01*
X14486063Y-39260226D01*
X14372795Y-39429744D01*
X14294774Y-39618102D01*
X14255000Y-39818061D01*
X14255000Y-40021939D01*
X14294774Y-40221898D01*
X14372795Y-40410256D01*
X14446123Y-40520000D01*
X14372795Y-40629744D01*
X14294774Y-40818102D01*
X14255000Y-41018061D01*
X14255000Y-41221939D01*
X14294774Y-41421898D01*
X14372795Y-41610256D01*
X14486063Y-41779774D01*
X14630226Y-41923937D01*
X14799744Y-42037205D01*
X14810661Y-42041727D01*
X14780226Y-42062063D01*
X14636063Y-42206226D01*
X14522795Y-42375744D01*
X14444774Y-42564102D01*
X14405000Y-42764061D01*
X14405000Y-42967939D01*
X14433966Y-43113564D01*
X14430226Y-43116063D01*
X14286063Y-43260226D01*
X14172795Y-43429744D01*
X14094774Y-43618102D01*
X14055000Y-43818061D01*
X-18427427Y-43818061D01*
X-18644252Y-43294601D01*
X-19014698Y-42740188D01*
X-19486188Y-42268698D01*
X-20040601Y-41898252D01*
X-20656632Y-41643083D01*
X-21310607Y-41513000D01*
X-21977393Y-41513000D01*
X-22631368Y-41643083D01*
X-23247399Y-41898252D01*
X-23801812Y-42268698D01*
X-24273302Y-42740188D01*
X-24643748Y-43294601D01*
X-24667000Y-43350736D01*
X-24667000Y-40396890D01*
X-24559952Y-40396890D01*
X-24559952Y-40643110D01*
X-24511917Y-40884598D01*
X-24417693Y-41112074D01*
X-24280901Y-41316798D01*
X-24106798Y-41490901D01*
X-23902074Y-41627693D01*
X-23674598Y-41721917D01*
X-23433110Y-41769952D01*
X-23186890Y-41769952D01*
X-22945402Y-41721917D01*
X-22717926Y-41627693D01*
X-22513202Y-41490901D01*
X-22339099Y-41316798D01*
X-22202307Y-41112074D01*
X-22108083Y-40884598D01*
X-22060048Y-40643110D01*
X-22060048Y-40396890D01*
X-22108083Y-40155402D01*
X-22202307Y-39927926D01*
X-22339099Y-39723202D01*
X-22513202Y-39549099D01*
X-22717926Y-39412307D01*
X-22945402Y-39318083D01*
X-23186890Y-39270048D01*
X-23433110Y-39270048D01*
X-23674598Y-39318083D01*
X-23902074Y-39412307D01*
X-24106798Y-39549099D01*
X-24280901Y-39723202D01*
X-24417693Y-39927926D01*
X-24511917Y-40155402D01*
X-24559952Y-40396890D01*
X-24667000Y-40396890D01*
X-24667000Y-38827061D01*
X3991000Y-38827061D01*
X3991000Y-39030939D01*
X4030774Y-39230898D01*
X4108795Y-39419256D01*
X4222063Y-39588774D01*
X4366226Y-39732937D01*
X4535744Y-39846205D01*
X4724102Y-39924226D01*
X4924061Y-39964000D01*
X5127939Y-39964000D01*
X5327898Y-39924226D01*
X5516256Y-39846205D01*
X5685774Y-39732937D01*
X5829937Y-39588774D01*
X5943205Y-39419256D01*
X6021226Y-39230898D01*
X6061000Y-39030939D01*
X6061000Y-38827061D01*
X6021226Y-38627102D01*
X5943205Y-38438744D01*
X5829937Y-38269226D01*
X5685774Y-38125063D01*
X5516256Y-38011795D01*
X5327898Y-37933774D01*
X5127939Y-37894000D01*
X4924061Y-37894000D01*
X4724102Y-37933774D01*
X4535744Y-38011795D01*
X4366226Y-38125063D01*
X4222063Y-38269226D01*
X4108795Y-38438744D01*
X4030774Y-38627102D01*
X3991000Y-38827061D01*
X-24667000Y-38827061D01*
X-24667000Y-35906061D01*
X-15821000Y-35906061D01*
X-15821000Y-36109939D01*
X-15781226Y-36309898D01*
X-15722158Y-36452500D01*
X-15781226Y-36595102D01*
X-15821000Y-36795061D01*
X-15821000Y-36998939D01*
X-15781226Y-37198898D01*
X-15703205Y-37387256D01*
X-15589937Y-37556774D01*
X-15445774Y-37700937D01*
X-15276256Y-37814205D01*
X-15087898Y-37892226D01*
X-14887939Y-37932000D01*
X-14684061Y-37932000D01*
X-14484102Y-37892226D01*
X-14295744Y-37814205D01*
X-14126226Y-37700937D01*
X-13982063Y-37556774D01*
X-13868795Y-37387256D01*
X-13790774Y-37198898D01*
X-13751000Y-36998939D01*
X-13751000Y-36795061D01*
X-13790774Y-36595102D01*
X-13849842Y-36452500D01*
X-13790774Y-36309898D01*
X-13751000Y-36109939D01*
X-13751000Y-35906061D01*
X1070000Y-35906061D01*
X1070000Y-36109939D01*
X1109774Y-36309898D01*
X1168842Y-36452500D01*
X1109774Y-36595102D01*
X1070000Y-36795061D01*
X1070000Y-36998939D01*
X1109774Y-37198898D01*
X1187795Y-37387256D01*
X1301063Y-37556774D01*
X1445226Y-37700937D01*
X1614744Y-37814205D01*
X1803102Y-37892226D01*
X2003061Y-37932000D01*
X2206939Y-37932000D01*
X2406898Y-37892226D01*
X2595256Y-37814205D01*
X2764774Y-37700937D01*
X2908937Y-37556774D01*
X3022205Y-37387256D01*
X3100226Y-37198898D01*
X3140000Y-36998939D01*
X3140000Y-36795061D01*
X3100226Y-36595102D01*
X3041158Y-36452500D01*
X3100226Y-36309898D01*
X3130030Y-36160061D01*
X4880000Y-36160061D01*
X4880000Y-36363939D01*
X4919774Y-36563898D01*
X4997795Y-36752256D01*
X5111063Y-36921774D01*
X5255226Y-37065937D01*
X5424744Y-37179205D01*
X5613102Y-37257226D01*
X5813061Y-37297000D01*
X6016939Y-37297000D01*
X6216898Y-37257226D01*
X6405256Y-37179205D01*
X6574774Y-37065937D01*
X6718937Y-36921774D01*
X6832205Y-36752256D01*
X6910226Y-36563898D01*
X6950000Y-36363939D01*
X6950000Y-36160061D01*
X6910226Y-35960102D01*
X6832205Y-35771744D01*
X6814188Y-35744780D01*
X6956061Y-35773000D01*
X7159939Y-35773000D01*
X7359898Y-35733226D01*
X7548256Y-35655205D01*
X7552961Y-35652061D01*
X23295000Y-35652061D01*
X23295000Y-35855939D01*
X23334774Y-36055898D01*
X23412795Y-36244256D01*
X23526063Y-36413774D01*
X23670226Y-36557937D01*
X23839744Y-36671205D01*
X24028102Y-36749226D01*
X24228061Y-36789000D01*
X24431939Y-36789000D01*
X24631898Y-36749226D01*
X24820256Y-36671205D01*
X24989774Y-36557937D01*
X25133937Y-36413774D01*
X25247205Y-36244256D01*
X25325226Y-36055898D01*
X25365000Y-35855939D01*
X25365000Y-35652061D01*
X25325226Y-35452102D01*
X25247205Y-35263744D01*
X25133937Y-35094226D01*
X24989774Y-34950063D01*
X24820256Y-34836795D01*
X24631898Y-34758774D01*
X24431939Y-34719000D01*
X24228061Y-34719000D01*
X24028102Y-34758774D01*
X23839744Y-34836795D01*
X23670226Y-34950063D01*
X23526063Y-35094226D01*
X23412795Y-35263744D01*
X23334774Y-35452102D01*
X23295000Y-35652061D01*
X7552961Y-35652061D01*
X7717774Y-35541937D01*
X7861937Y-35397774D01*
X7975205Y-35228256D01*
X8053226Y-35039898D01*
X8081394Y-34898289D01*
X8091744Y-34905205D01*
X8280102Y-34983226D01*
X8480061Y-35023000D01*
X8683939Y-35023000D01*
X8883898Y-34983226D01*
X9072256Y-34905205D01*
X9241774Y-34791937D01*
X9385937Y-34647774D01*
X9499205Y-34478256D01*
X9577226Y-34289898D01*
X9599654Y-34177146D01*
X9677102Y-34209226D01*
X9877061Y-34249000D01*
X10080939Y-34249000D01*
X10280898Y-34209226D01*
X10469256Y-34131205D01*
X10491887Y-34116083D01*
X10538102Y-34135226D01*
X10738061Y-34175000D01*
X10941939Y-34175000D01*
X11141898Y-34135226D01*
X11330256Y-34057205D01*
X11499774Y-33943937D01*
X11643937Y-33799774D01*
X11757205Y-33630256D01*
X11814033Y-33493061D01*
X25454000Y-33493061D01*
X25454000Y-33696939D01*
X25493774Y-33896898D01*
X25571795Y-34085256D01*
X25685063Y-34254774D01*
X25829226Y-34398937D01*
X25998744Y-34512205D01*
X26187102Y-34590226D01*
X26387061Y-34630000D01*
X26590939Y-34630000D01*
X26790898Y-34590226D01*
X26979256Y-34512205D01*
X27148774Y-34398937D01*
X27292937Y-34254774D01*
X27406205Y-34085256D01*
X27484226Y-33896898D01*
X27524000Y-33696939D01*
X27524000Y-33493061D01*
X27484226Y-33293102D01*
X27406205Y-33104744D01*
X27292937Y-32935226D01*
X27148774Y-32791063D01*
X26979256Y-32677795D01*
X26790898Y-32599774D01*
X26590939Y-32560000D01*
X26387061Y-32560000D01*
X26187102Y-32599774D01*
X25998744Y-32677795D01*
X25829226Y-32791063D01*
X25685063Y-32935226D01*
X25571795Y-33104744D01*
X25493774Y-33293102D01*
X25454000Y-33493061D01*
X11814033Y-33493061D01*
X11835226Y-33441898D01*
X11875000Y-33241939D01*
X11875000Y-33038061D01*
X11835226Y-32838102D01*
X11757205Y-32649744D01*
X11643937Y-32480226D01*
X11499774Y-32336063D01*
X11330256Y-32222795D01*
X11141898Y-32144774D01*
X10941939Y-32105000D01*
X10738061Y-32105000D01*
X10538102Y-32144774D01*
X10349744Y-32222795D01*
X10327113Y-32237917D01*
X10280898Y-32218774D01*
X10080939Y-32179000D01*
X9877061Y-32179000D01*
X9677102Y-32218774D01*
X9488744Y-32296795D01*
X9319226Y-32410063D01*
X9175063Y-32554226D01*
X9061795Y-32723744D01*
X8983774Y-32912102D01*
X8961346Y-33024854D01*
X8883898Y-32992774D01*
X8683939Y-32953000D01*
X8480061Y-32953000D01*
X8280102Y-32992774D01*
X8091744Y-33070795D01*
X7922226Y-33184063D01*
X7778063Y-33328226D01*
X7664795Y-33497744D01*
X7586774Y-33686102D01*
X7558606Y-33827711D01*
X7548256Y-33820795D01*
X7359898Y-33742774D01*
X7159939Y-33703000D01*
X6956061Y-33703000D01*
X6756102Y-33742774D01*
X6567744Y-33820795D01*
X6398226Y-33934063D01*
X6254063Y-34078226D01*
X6140795Y-34247744D01*
X6062774Y-34436102D01*
X6023000Y-34636061D01*
X6023000Y-34839939D01*
X6062774Y-35039898D01*
X6140795Y-35228256D01*
X6158812Y-35255220D01*
X6016939Y-35227000D01*
X5813061Y-35227000D01*
X5613102Y-35266774D01*
X5424744Y-35344795D01*
X5255226Y-35458063D01*
X5111063Y-35602226D01*
X4997795Y-35771744D01*
X4919774Y-35960102D01*
X4880000Y-36160061D01*
X3130030Y-36160061D01*
X3140000Y-36109939D01*
X3140000Y-35906061D01*
X3100226Y-35706102D01*
X3022205Y-35517744D01*
X2908937Y-35348226D01*
X2764774Y-35204063D01*
X2595256Y-35090795D01*
X2406898Y-35012774D01*
X2206939Y-34973000D01*
X2003061Y-34973000D01*
X1803102Y-35012774D01*
X1614744Y-35090795D01*
X1445226Y-35204063D01*
X1301063Y-35348226D01*
X1187795Y-35517744D01*
X1109774Y-35706102D01*
X1070000Y-35906061D01*
X-13751000Y-35906061D01*
X-13790774Y-35706102D01*
X-13868795Y-35517744D01*
X-13982063Y-35348226D01*
X-14126226Y-35204063D01*
X-14295744Y-35090795D01*
X-14484102Y-35012774D01*
X-14684061Y-34973000D01*
X-14887939Y-34973000D01*
X-15087898Y-35012774D01*
X-15276256Y-35090795D01*
X-15445774Y-35204063D01*
X-15589937Y-35348226D01*
X-15703205Y-35517744D01*
X-15781226Y-35706102D01*
X-15821000Y-35906061D01*
X-24667000Y-35906061D01*
X-24667000Y-32918061D01*
X-11145000Y-32918061D01*
X-11145000Y-33121939D01*
X-11105226Y-33321898D01*
X-11027205Y-33510256D01*
X-10913937Y-33679774D01*
X-10769774Y-33823937D01*
X-10600256Y-33937205D01*
X-10411898Y-34015226D01*
X-10211939Y-34055000D01*
X-10060467Y-34055000D01*
X-10035226Y-34181898D01*
X-9957205Y-34370256D01*
X-9843937Y-34539774D01*
X-9699774Y-34683937D01*
X-9530256Y-34797205D01*
X-9341898Y-34875226D01*
X-9141939Y-34915000D01*
X-8938061Y-34915000D01*
X-8738102Y-34875226D01*
X-8549744Y-34797205D01*
X-8380226Y-34683937D01*
X-8236063Y-34539774D01*
X-8122795Y-34370256D01*
X-8044774Y-34181898D01*
X-8005000Y-33981939D01*
X-8005000Y-33778061D01*
X-8044774Y-33578102D01*
X-8122795Y-33389744D01*
X-8236063Y-33220226D01*
X-8380226Y-33076063D01*
X-8549744Y-32962795D01*
X-8626764Y-32930892D01*
X-6985169Y-32930892D01*
X-6985169Y-33134770D01*
X-6945395Y-33334729D01*
X-6867374Y-33523087D01*
X-6754106Y-33692605D01*
X-6609943Y-33836768D01*
X-6440425Y-33950036D01*
X-6252067Y-34028057D01*
X-6052108Y-34067831D01*
X-5848230Y-34067831D01*
X-5648271Y-34028057D01*
X-5459913Y-33950036D01*
X-5290395Y-33836768D01*
X-5146232Y-33692605D01*
X-5032964Y-33523087D01*
X-4954943Y-33334729D01*
X-4924995Y-33184169D01*
X3664892Y-33184169D01*
X3664892Y-33388047D01*
X3704666Y-33588006D01*
X3782687Y-33776364D01*
X3895955Y-33945882D01*
X4040118Y-34090045D01*
X4209636Y-34203313D01*
X4397994Y-34281334D01*
X4597953Y-34321108D01*
X4801831Y-34321108D01*
X5001790Y-34281334D01*
X5190148Y-34203313D01*
X5359666Y-34090045D01*
X5503829Y-33945882D01*
X5617097Y-33776364D01*
X5695118Y-33588006D01*
X5697404Y-33576512D01*
X5708898Y-33574226D01*
X5897256Y-33496205D01*
X6066774Y-33382937D01*
X6210937Y-33238774D01*
X6324205Y-33069256D01*
X6402226Y-32880898D01*
X6442000Y-32680939D01*
X6442000Y-32477061D01*
X6402226Y-32277102D01*
X6324205Y-32088744D01*
X6210937Y-31919226D01*
X6066774Y-31775063D01*
X5897256Y-31661795D01*
X5708898Y-31583774D01*
X5508939Y-31544000D01*
X5305061Y-31544000D01*
X5105102Y-31583774D01*
X4916744Y-31661795D01*
X4747226Y-31775063D01*
X4603063Y-31919226D01*
X4489795Y-32088744D01*
X4411774Y-32277102D01*
X4409488Y-32288596D01*
X4397994Y-32290882D01*
X4209636Y-32368903D01*
X4040118Y-32482171D01*
X3895955Y-32626334D01*
X3782687Y-32795852D01*
X3704666Y-32984210D01*
X3664892Y-33184169D01*
X-4924995Y-33184169D01*
X-4915169Y-33134770D01*
X-4915169Y-32930892D01*
X-4954943Y-32730933D01*
X-5032964Y-32542575D01*
X-5146232Y-32373057D01*
X-5290395Y-32228894D01*
X-5459913Y-32115626D01*
X-5648271Y-32037605D01*
X-5848230Y-31997831D01*
X-6052108Y-31997831D01*
X-6252067Y-32037605D01*
X-6440425Y-32115626D01*
X-6609943Y-32228894D01*
X-6754106Y-32373057D01*
X-6867374Y-32542575D01*
X-6945395Y-32730933D01*
X-6985169Y-32930892D01*
X-8626764Y-32930892D01*
X-8738102Y-32884774D01*
X-8938061Y-32845000D01*
X-9089533Y-32845000D01*
X-9114774Y-32718102D01*
X-9192795Y-32529744D01*
X-9306063Y-32360226D01*
X-9450226Y-32216063D01*
X-9619744Y-32102795D01*
X-9808102Y-32024774D01*
X-10008061Y-31985000D01*
X-10211939Y-31985000D01*
X-10411898Y-32024774D01*
X-10600256Y-32102795D01*
X-10769774Y-32216063D01*
X-10913937Y-32360226D01*
X-11027205Y-32529744D01*
X-11105226Y-32718102D01*
X-11145000Y-32918061D01*
X-24667000Y-32918061D01*
X-24667000Y-31334061D01*
X17326000Y-31334061D01*
X17326000Y-31537939D01*
X17365774Y-31737898D01*
X17443795Y-31926256D01*
X17557063Y-32095774D01*
X17701226Y-32239937D01*
X17870744Y-32353205D01*
X18059102Y-32431226D01*
X18259061Y-32471000D01*
X18462939Y-32471000D01*
X18662898Y-32431226D01*
X18851256Y-32353205D01*
X19020774Y-32239937D01*
X19164937Y-32095774D01*
X19278205Y-31926256D01*
X19356226Y-31737898D01*
X19396000Y-31537939D01*
X19396000Y-31334061D01*
X19356226Y-31134102D01*
X19278205Y-30945744D01*
X19164937Y-30776226D01*
X19020774Y-30632063D01*
X18851256Y-30518795D01*
X18662898Y-30440774D01*
X18462939Y-30401000D01*
X18259061Y-30401000D01*
X18059102Y-30440774D01*
X17870744Y-30518795D01*
X17701226Y-30632063D01*
X17557063Y-30776226D01*
X17443795Y-30945744D01*
X17365774Y-31134102D01*
X17326000Y-31334061D01*
X-24667000Y-31334061D01*
X-24667000Y-28286061D01*
X-4010000Y-28286061D01*
X-4010000Y-28489939D01*
X-3970226Y-28689898D01*
X-3892205Y-28878256D01*
X-3778937Y-29047774D01*
X-3634774Y-29191937D01*
X-3465256Y-29305205D01*
X-3276898Y-29383226D01*
X-3076939Y-29423000D01*
X-2873061Y-29423000D01*
X-2848231Y-29418061D01*
X8755000Y-29418061D01*
X8755000Y-29621939D01*
X8794774Y-29821898D01*
X8872795Y-30010256D01*
X8986063Y-30179774D01*
X9130226Y-30323937D01*
X9299744Y-30437205D01*
X9488102Y-30515226D01*
X9688061Y-30555000D01*
X9891939Y-30555000D01*
X10091898Y-30515226D01*
X10280256Y-30437205D01*
X10449774Y-30323937D01*
X10593937Y-30179774D01*
X10707205Y-30010256D01*
X10785226Y-29821898D01*
X10825000Y-29621939D01*
X10825000Y-29418061D01*
X10785226Y-29218102D01*
X10714793Y-29048061D01*
X16183000Y-29048061D01*
X16183000Y-29251939D01*
X16222774Y-29451898D01*
X16300795Y-29640256D01*
X16414063Y-29809774D01*
X16558226Y-29953937D01*
X16727744Y-30067205D01*
X16916102Y-30145226D01*
X17116061Y-30185000D01*
X17319939Y-30185000D01*
X17519898Y-30145226D01*
X17708256Y-30067205D01*
X17877774Y-29953937D01*
X18021937Y-29809774D01*
X18135205Y-29640256D01*
X18213226Y-29451898D01*
X18253000Y-29251939D01*
X18253000Y-29048061D01*
X18213226Y-28848102D01*
X18138236Y-28667061D01*
X18850000Y-28667061D01*
X18850000Y-28870939D01*
X18889774Y-29070898D01*
X18967795Y-29259256D01*
X19081063Y-29428774D01*
X19225226Y-29572937D01*
X19394744Y-29686205D01*
X19583102Y-29764226D01*
X19783061Y-29804000D01*
X19986939Y-29804000D01*
X20186898Y-29764226D01*
X20375256Y-29686205D01*
X20544774Y-29572937D01*
X20688937Y-29428774D01*
X20802205Y-29259256D01*
X20880226Y-29070898D01*
X20920000Y-28870939D01*
X20920000Y-28667061D01*
X20880226Y-28467102D01*
X20802205Y-28278744D01*
X20688937Y-28109226D01*
X20544774Y-27965063D01*
X20375256Y-27851795D01*
X20186898Y-27773774D01*
X19986939Y-27734000D01*
X19783061Y-27734000D01*
X19583102Y-27773774D01*
X19394744Y-27851795D01*
X19225226Y-27965063D01*
X19081063Y-28109226D01*
X18967795Y-28278744D01*
X18889774Y-28467102D01*
X18850000Y-28667061D01*
X18138236Y-28667061D01*
X18135205Y-28659744D01*
X18021937Y-28490226D01*
X17877774Y-28346063D01*
X17708256Y-28232795D01*
X17519898Y-28154774D01*
X17319939Y-28115000D01*
X17116061Y-28115000D01*
X16916102Y-28154774D01*
X16727744Y-28232795D01*
X16558226Y-28346063D01*
X16414063Y-28490226D01*
X16300795Y-28659744D01*
X16222774Y-28848102D01*
X16183000Y-29048061D01*
X10714793Y-29048061D01*
X10707205Y-29029744D01*
X10593937Y-28860226D01*
X10449774Y-28716063D01*
X10280256Y-28602795D01*
X10091898Y-28524774D01*
X9891939Y-28485000D01*
X9688061Y-28485000D01*
X9488102Y-28524774D01*
X9299744Y-28602795D01*
X9130226Y-28716063D01*
X8986063Y-28860226D01*
X8872795Y-29029744D01*
X8794774Y-29218102D01*
X8755000Y-29418061D01*
X-2848231Y-29418061D01*
X-2673102Y-29383226D01*
X-2484744Y-29305205D01*
X-2315226Y-29191937D01*
X-2171063Y-29047774D01*
X-2057795Y-28878256D01*
X-1979774Y-28689898D01*
X-1940000Y-28489939D01*
X-1940000Y-28391654D01*
X-1807226Y-28302937D01*
X-1663063Y-28158774D01*
X-1549795Y-27989256D01*
X-1471774Y-27800898D01*
X-1451552Y-27699232D01*
X-1371898Y-27732226D01*
X-1171939Y-27772000D01*
X-968061Y-27772000D01*
X-768102Y-27732226D01*
X-692668Y-27700980D01*
X-708000Y-27778061D01*
X-708000Y-27981939D01*
X-668226Y-28181898D01*
X-590205Y-28370256D01*
X-476937Y-28539774D01*
X-332774Y-28683937D01*
X-163256Y-28797205D01*
X25102Y-28875226D01*
X225061Y-28915000D01*
X428939Y-28915000D01*
X628898Y-28875226D01*
X817256Y-28797205D01*
X986774Y-28683937D01*
X1130937Y-28539774D01*
X1244205Y-28370256D01*
X1322226Y-28181898D01*
X1362000Y-27981939D01*
X1362000Y-27778061D01*
X1322226Y-27578102D01*
X1244205Y-27389744D01*
X1196309Y-27318061D01*
X7255000Y-27318061D01*
X7255000Y-27521939D01*
X7294774Y-27721898D01*
X7372795Y-27910256D01*
X7486063Y-28079774D01*
X7630226Y-28223937D01*
X7799744Y-28337205D01*
X7988102Y-28415226D01*
X8188061Y-28455000D01*
X8391939Y-28455000D01*
X8591898Y-28415226D01*
X8780256Y-28337205D01*
X8949774Y-28223937D01*
X9093937Y-28079774D01*
X9207205Y-27910256D01*
X9285226Y-27721898D01*
X9325000Y-27521939D01*
X9325000Y-27318061D01*
X9285226Y-27118102D01*
X9207205Y-26929744D01*
X9093937Y-26760226D01*
X9051772Y-26718061D01*
X13770000Y-26718061D01*
X13770000Y-26921939D01*
X13809774Y-27121898D01*
X13887795Y-27310256D01*
X14001063Y-27479774D01*
X14145226Y-27623937D01*
X14314744Y-27737205D01*
X14503102Y-27815226D01*
X14703061Y-27855000D01*
X14906939Y-27855000D01*
X15106898Y-27815226D01*
X15295256Y-27737205D01*
X15464774Y-27623937D01*
X15608937Y-27479774D01*
X15722205Y-27310256D01*
X15800226Y-27121898D01*
X15822484Y-27010000D01*
X15922939Y-27010000D01*
X16122898Y-26970226D01*
X16311256Y-26892205D01*
X16480774Y-26778937D01*
X16624937Y-26634774D01*
X16738205Y-26465256D01*
X16816226Y-26276898D01*
X16856000Y-26076939D01*
X16856000Y-25873061D01*
X16816226Y-25673102D01*
X16738205Y-25484744D01*
X16624937Y-25315226D01*
X16480774Y-25171063D01*
X16390975Y-25111061D01*
X19755000Y-25111061D01*
X19755000Y-25314939D01*
X19794774Y-25514898D01*
X19872795Y-25703256D01*
X19986063Y-25872774D01*
X20130226Y-26016937D01*
X20299744Y-26130205D01*
X20488102Y-26208226D01*
X20688061Y-26248000D01*
X20891939Y-26248000D01*
X21091898Y-26208226D01*
X21280256Y-26130205D01*
X21449774Y-26016937D01*
X21593937Y-25872774D01*
X21707205Y-25703256D01*
X21785226Y-25514898D01*
X21825000Y-25314939D01*
X21825000Y-25238061D01*
X27740000Y-25238061D01*
X27740000Y-25441939D01*
X27779774Y-25641898D01*
X27857795Y-25830256D01*
X27971063Y-25999774D01*
X28115226Y-26143937D01*
X28284744Y-26257205D01*
X28473102Y-26335226D01*
X28673061Y-26375000D01*
X28876939Y-26375000D01*
X29076898Y-26335226D01*
X29265256Y-26257205D01*
X29434774Y-26143937D01*
X29578937Y-25999774D01*
X29692205Y-25830256D01*
X29770226Y-25641898D01*
X29810000Y-25441939D01*
X29810000Y-25238061D01*
X29770226Y-25038102D01*
X29692205Y-24849744D01*
X29578937Y-24680226D01*
X29434774Y-24536063D01*
X29265256Y-24422795D01*
X29076898Y-24344774D01*
X28876939Y-24305000D01*
X28673061Y-24305000D01*
X28473102Y-24344774D01*
X28284744Y-24422795D01*
X28115226Y-24536063D01*
X27971063Y-24680226D01*
X27857795Y-24849744D01*
X27779774Y-25038102D01*
X27740000Y-25238061D01*
X21825000Y-25238061D01*
X21825000Y-25111061D01*
X21785226Y-24911102D01*
X21707205Y-24722744D01*
X21593937Y-24553226D01*
X21449774Y-24409063D01*
X21280256Y-24295795D01*
X21091898Y-24217774D01*
X20891939Y-24178000D01*
X20688061Y-24178000D01*
X20488102Y-24217774D01*
X20299744Y-24295795D01*
X20130226Y-24409063D01*
X19986063Y-24553226D01*
X19872795Y-24722744D01*
X19794774Y-24911102D01*
X19755000Y-25111061D01*
X16390975Y-25111061D01*
X16311256Y-25057795D01*
X16122898Y-24979774D01*
X15922939Y-24940000D01*
X15719061Y-24940000D01*
X15519102Y-24979774D01*
X15330744Y-25057795D01*
X15161226Y-25171063D01*
X15017063Y-25315226D01*
X14903795Y-25484744D01*
X14825774Y-25673102D01*
X14803516Y-25785000D01*
X14703061Y-25785000D01*
X14503102Y-25824774D01*
X14314744Y-25902795D01*
X14145226Y-26016063D01*
X14001063Y-26160226D01*
X13887795Y-26329744D01*
X13809774Y-26518102D01*
X13770000Y-26718061D01*
X9051772Y-26718061D01*
X8949774Y-26616063D01*
X8780256Y-26502795D01*
X8591898Y-26424774D01*
X8391939Y-26385000D01*
X8188061Y-26385000D01*
X7988102Y-26424774D01*
X7799744Y-26502795D01*
X7630226Y-26616063D01*
X7486063Y-26760226D01*
X7372795Y-26929744D01*
X7294774Y-27118102D01*
X7255000Y-27318061D01*
X1196309Y-27318061D01*
X1130937Y-27220226D01*
X986774Y-27076063D01*
X817256Y-26962795D01*
X628898Y-26884774D01*
X428939Y-26845000D01*
X225061Y-26845000D01*
X25102Y-26884774D01*
X-50332Y-26916020D01*
X-35000Y-26838939D01*
X-35000Y-26635061D01*
X-74774Y-26435102D01*
X-152795Y-26246744D01*
X-266063Y-26077226D01*
X-410226Y-25933063D01*
X-579744Y-25819795D01*
X-768102Y-25741774D01*
X-968061Y-25702000D01*
X-1171939Y-25702000D01*
X-1371898Y-25741774D01*
X-1560256Y-25819795D01*
X-1729774Y-25933063D01*
X-1873937Y-26077226D01*
X-1987205Y-26246744D01*
X-2065226Y-26435102D01*
X-2085448Y-26536768D01*
X-2165102Y-26503774D01*
X-2365061Y-26464000D01*
X-2568939Y-26464000D01*
X-2768898Y-26503774D01*
X-2957256Y-26581795D01*
X-3126774Y-26695063D01*
X-3270937Y-26839226D01*
X-3384205Y-27008744D01*
X-3462226Y-27197102D01*
X-3502000Y-27397061D01*
X-3502000Y-27495346D01*
X-3634774Y-27584063D01*
X-3778937Y-27728226D01*
X-3892205Y-27897744D01*
X-3970226Y-28086102D01*
X-4010000Y-28286061D01*
X-24667000Y-28286061D01*
X-24667000Y-26685195D01*
X-24547256Y-26765205D01*
X-24358898Y-26843226D01*
X-24158939Y-26883000D01*
X-23955061Y-26883000D01*
X-23755102Y-26843226D01*
X-23566744Y-26765205D01*
X-23397226Y-26651937D01*
X-23253063Y-26507774D01*
X-23139795Y-26338256D01*
X-23061774Y-26149898D01*
X-23022000Y-25949939D01*
X-23022000Y-25746061D01*
X-22933000Y-25746061D01*
X-22933000Y-25949939D01*
X-22893226Y-26149898D01*
X-22815205Y-26338256D01*
X-22701937Y-26507774D01*
X-22557774Y-26651937D01*
X-22388256Y-26765205D01*
X-22199898Y-26843226D01*
X-21999939Y-26883000D01*
X-21796061Y-26883000D01*
X-21596102Y-26843226D01*
X-21407744Y-26765205D01*
X-21263000Y-26668490D01*
X-21118256Y-26765205D01*
X-20929898Y-26843226D01*
X-20729939Y-26883000D01*
X-20526061Y-26883000D01*
X-20326102Y-26843226D01*
X-20137744Y-26765205D01*
X-19968226Y-26651937D01*
X-19824063Y-26507774D01*
X-19710795Y-26338256D01*
X-19632774Y-26149898D01*
X-19593000Y-25949939D01*
X-19593000Y-25746061D01*
X-15440000Y-25746061D01*
X-15440000Y-25949939D01*
X-15400226Y-26149898D01*
X-15322205Y-26338256D01*
X-15208937Y-26507774D01*
X-15064774Y-26651937D01*
X-14895256Y-26765205D01*
X-14706898Y-26843226D01*
X-14506939Y-26883000D01*
X-14303061Y-26883000D01*
X-14103102Y-26843226D01*
X-13914744Y-26765205D01*
X-13745226Y-26651937D01*
X-13601063Y-26507774D01*
X-13487795Y-26338256D01*
X-13409774Y-26149898D01*
X-13370000Y-25949939D01*
X-13370000Y-25746061D01*
X-13409774Y-25546102D01*
X-13487795Y-25357744D01*
X-13601063Y-25188226D01*
X-13678228Y-25111061D01*
X-9598000Y-25111061D01*
X-9598000Y-25314939D01*
X-9558226Y-25514898D01*
X-9480205Y-25703256D01*
X-9366937Y-25872774D01*
X-9222774Y-26016937D01*
X-9053256Y-26130205D01*
X-8864898Y-26208226D01*
X-8664939Y-26248000D01*
X-8461061Y-26248000D01*
X-8261102Y-26208226D01*
X-8072744Y-26130205D01*
X-7903226Y-26016937D01*
X-7759063Y-25872774D01*
X-7645795Y-25703256D01*
X-7567774Y-25514898D01*
X-7528000Y-25314939D01*
X-7528000Y-25111061D01*
X-7567774Y-24911102D01*
X-7645795Y-24722744D01*
X-7759063Y-24553226D01*
X-7903226Y-24409063D01*
X-7993025Y-24349061D01*
X-5534000Y-24349061D01*
X-5534000Y-24552939D01*
X-5494226Y-24752898D01*
X-5416205Y-24941256D01*
X-5302937Y-25110774D01*
X-5158774Y-25254937D01*
X-4989256Y-25368205D01*
X-4800898Y-25446226D01*
X-4600939Y-25486000D01*
X-4397061Y-25486000D01*
X-4197102Y-25446226D01*
X-4008744Y-25368205D01*
X-3839226Y-25254937D01*
X-3695063Y-25110774D01*
X-3581795Y-24941256D01*
X-3503774Y-24752898D01*
X-3501619Y-24742061D01*
X4553892Y-24742061D01*
X4553892Y-24945939D01*
X4593666Y-25145898D01*
X4671687Y-25334256D01*
X4784955Y-25503774D01*
X4929118Y-25647937D01*
X5098636Y-25761205D01*
X5286994Y-25839226D01*
X5289605Y-25839745D01*
X5300774Y-25895898D01*
X5378795Y-26084256D01*
X5492063Y-26253774D01*
X5636226Y-26397937D01*
X5805744Y-26511205D01*
X5994102Y-26589226D01*
X6194061Y-26629000D01*
X6397939Y-26629000D01*
X6597898Y-26589226D01*
X6786256Y-26511205D01*
X6955774Y-26397937D01*
X7099937Y-26253774D01*
X7213205Y-26084256D01*
X7291226Y-25895898D01*
X7331000Y-25695939D01*
X7331000Y-25492061D01*
X7316281Y-25418061D01*
X9055000Y-25418061D01*
X9055000Y-25621939D01*
X9094774Y-25821898D01*
X9172795Y-26010256D01*
X9286063Y-26179774D01*
X9430226Y-26323937D01*
X9599744Y-26437205D01*
X9788102Y-26515226D01*
X9988061Y-26555000D01*
X10191939Y-26555000D01*
X10391898Y-26515226D01*
X10580256Y-26437205D01*
X10749774Y-26323937D01*
X10893937Y-26179774D01*
X11007205Y-26010256D01*
X11085226Y-25821898D01*
X11125000Y-25621939D01*
X11125000Y-25418061D01*
X11085226Y-25218102D01*
X11007205Y-25029744D01*
X10893937Y-24860226D01*
X10749774Y-24716063D01*
X10580256Y-24602795D01*
X10391898Y-24524774D01*
X10191939Y-24485000D01*
X9988061Y-24485000D01*
X9788102Y-24524774D01*
X9599744Y-24602795D01*
X9430226Y-24716063D01*
X9286063Y-24860226D01*
X9172795Y-25029744D01*
X9094774Y-25218102D01*
X9055000Y-25418061D01*
X7316281Y-25418061D01*
X7291226Y-25292102D01*
X7213205Y-25103744D01*
X7099937Y-24934226D01*
X6955774Y-24790063D01*
X6925988Y-24770161D01*
X6992571Y-24703578D01*
X7105839Y-24534060D01*
X7183860Y-24345702D01*
X7223634Y-24145743D01*
X7223634Y-23941865D01*
X7183860Y-23741906D01*
X7105839Y-23553548D01*
X6992571Y-23384030D01*
X6848408Y-23239867D01*
X6678890Y-23126599D01*
X6490532Y-23048578D01*
X6290573Y-23008804D01*
X6086695Y-23008804D01*
X5886736Y-23048578D01*
X5698378Y-23126599D01*
X5528860Y-23239867D01*
X5384697Y-23384030D01*
X5271429Y-23553548D01*
X5193408Y-23741906D01*
X5161839Y-23900615D01*
X5098636Y-23926795D01*
X4929118Y-24040063D01*
X4784955Y-24184226D01*
X4671687Y-24353744D01*
X4593666Y-24542102D01*
X4553892Y-24742061D01*
X-3501619Y-24742061D01*
X-3464000Y-24552939D01*
X-3464000Y-24349061D01*
X-3503774Y-24149102D01*
X-3581795Y-23960744D01*
X-3695063Y-23791226D01*
X-3839226Y-23647063D01*
X-4008744Y-23533795D01*
X-4197102Y-23455774D01*
X-4397061Y-23416000D01*
X-4600939Y-23416000D01*
X-4800898Y-23455774D01*
X-4989256Y-23533795D01*
X-5158774Y-23647063D01*
X-5302937Y-23791226D01*
X-5416205Y-23960744D01*
X-5494226Y-24149102D01*
X-5534000Y-24349061D01*
X-7993025Y-24349061D01*
X-8072744Y-24295795D01*
X-8261102Y-24217774D01*
X-8461061Y-24178000D01*
X-8664939Y-24178000D01*
X-8864898Y-24217774D01*
X-9053256Y-24295795D01*
X-9222774Y-24409063D01*
X-9366937Y-24553226D01*
X-9480205Y-24722744D01*
X-9558226Y-24911102D01*
X-9598000Y-25111061D01*
X-13678228Y-25111061D01*
X-13745226Y-25044063D01*
X-13914744Y-24930795D01*
X-14103102Y-24852774D01*
X-14303061Y-24813000D01*
X-14506939Y-24813000D01*
X-14706898Y-24852774D01*
X-14895256Y-24930795D01*
X-15064774Y-25044063D01*
X-15208937Y-25188226D01*
X-15322205Y-25357744D01*
X-15400226Y-25546102D01*
X-15440000Y-25746061D01*
X-19593000Y-25746061D01*
X-19632774Y-25546102D01*
X-19710795Y-25357744D01*
X-19824063Y-25188226D01*
X-19968226Y-25044063D01*
X-20137744Y-24930795D01*
X-20326102Y-24852774D01*
X-20526061Y-24813000D01*
X-20729939Y-24813000D01*
X-20929898Y-24852774D01*
X-21118256Y-24930795D01*
X-21263000Y-25027510D01*
X-21407744Y-24930795D01*
X-21596102Y-24852774D01*
X-21796061Y-24813000D01*
X-21999939Y-24813000D01*
X-22199898Y-24852774D01*
X-22388256Y-24930795D01*
X-22557774Y-25044063D01*
X-22701937Y-25188226D01*
X-22815205Y-25357744D01*
X-22893226Y-25546102D01*
X-22933000Y-25746061D01*
X-23022000Y-25746061D01*
X-23061774Y-25546102D01*
X-23139795Y-25357744D01*
X-23253063Y-25188226D01*
X-23397226Y-25044063D01*
X-23566744Y-24930795D01*
X-23755102Y-24852774D01*
X-23955061Y-24813000D01*
X-24158939Y-24813000D01*
X-24358898Y-24852774D01*
X-24547256Y-24930795D01*
X-24667000Y-25010805D01*
X-24667000Y-22980458D01*
X320126Y-22980458D01*
X320126Y-23184336D01*
X359900Y-23384295D01*
X437921Y-23572653D01*
X551189Y-23742171D01*
X695352Y-23886334D01*
X864870Y-23999602D01*
X1053228Y-24077623D01*
X1253187Y-24117397D01*
X1457065Y-24117397D01*
X1657024Y-24077623D01*
X1845382Y-23999602D01*
X2014900Y-23886334D01*
X2159063Y-23742171D01*
X2191016Y-23694350D01*
X2363175Y-23694350D01*
X2563134Y-23654576D01*
X2751492Y-23576555D01*
X2921010Y-23463287D01*
X2955821Y-23428476D01*
X2979359Y-23438226D01*
X3179318Y-23478000D01*
X3383196Y-23478000D01*
X3583155Y-23438226D01*
X3771513Y-23360205D01*
X3941031Y-23246937D01*
X4085194Y-23102774D01*
X4198462Y-22933256D01*
X4276483Y-22744898D01*
X4316257Y-22544939D01*
X4316257Y-22341061D01*
X4276483Y-22141102D01*
X4198462Y-21952744D01*
X4085194Y-21783226D01*
X3941031Y-21639063D01*
X3771513Y-21525795D01*
X3601267Y-21455276D01*
X4868000Y-21455276D01*
X4868000Y-21659154D01*
X4907774Y-21859113D01*
X4985795Y-22047471D01*
X5099063Y-22216989D01*
X5243226Y-22361152D01*
X5412744Y-22474420D01*
X5601102Y-22552441D01*
X5801061Y-22592215D01*
X6004939Y-22592215D01*
X6204898Y-22552441D01*
X6393256Y-22474420D01*
X6562774Y-22361152D01*
X6706937Y-22216989D01*
X6820205Y-22047471D01*
X6898226Y-21859113D01*
X6938000Y-21659154D01*
X6938000Y-21455276D01*
X6922265Y-21376170D01*
X7028377Y-21270058D01*
X7141645Y-21100540D01*
X7219666Y-20912182D01*
X7259440Y-20712223D01*
X7259440Y-20508345D01*
X7219666Y-20308386D01*
X7141645Y-20120028D01*
X7028377Y-19950510D01*
X6884214Y-19806347D01*
X6714696Y-19693079D01*
X6526338Y-19615058D01*
X6326379Y-19575284D01*
X6122501Y-19575284D01*
X5922542Y-19615058D01*
X5734184Y-19693079D01*
X5564666Y-19806347D01*
X5420503Y-19950510D01*
X5307235Y-20120028D01*
X5229214Y-20308386D01*
X5189440Y-20508345D01*
X5189440Y-20712223D01*
X5205175Y-20791329D01*
X5099063Y-20897441D01*
X4985795Y-21066959D01*
X4907774Y-21255317D01*
X4868000Y-21455276D01*
X3601267Y-21455276D01*
X3583155Y-21447774D01*
X3383196Y-21408000D01*
X3179318Y-21408000D01*
X2979359Y-21447774D01*
X2791001Y-21525795D01*
X2621483Y-21639063D01*
X2586672Y-21673874D01*
X2563134Y-21664124D01*
X2363175Y-21624350D01*
X2159297Y-21624350D01*
X1959338Y-21664124D01*
X1770980Y-21742145D01*
X1601462Y-21855413D01*
X1457299Y-21999576D01*
X1425346Y-22047397D01*
X1253187Y-22047397D01*
X1053228Y-22087171D01*
X864870Y-22165192D01*
X695352Y-22278460D01*
X551189Y-22422623D01*
X437921Y-22592141D01*
X359900Y-22780499D01*
X320126Y-22980458D01*
X-24667000Y-22980458D01*
X-24667000Y-16221061D01*
X-11249000Y-16221061D01*
X-11249000Y-16424939D01*
X-11209226Y-16624898D01*
X-11131205Y-16813256D01*
X-11034490Y-16958000D01*
X-11131205Y-17102744D01*
X-11209226Y-17291102D01*
X-11249000Y-17491061D01*
X-11249000Y-17694939D01*
X-11209226Y-17894898D01*
X-11131205Y-18083256D01*
X-11017937Y-18252774D01*
X-10883286Y-18387425D01*
X-10955226Y-18561102D01*
X-10995000Y-18761061D01*
X-10995000Y-18964939D01*
X-10955226Y-19164898D01*
X-10877205Y-19353256D01*
X-10763937Y-19522774D01*
X-10661711Y-19625000D01*
X-10763937Y-19727226D01*
X-10877205Y-19896744D01*
X-10955226Y-20085102D01*
X-10995000Y-20285061D01*
X-10995000Y-20488939D01*
X-10955226Y-20688898D01*
X-10877205Y-20877256D01*
X-10763937Y-21046774D01*
X-10661711Y-21149000D01*
X-10763937Y-21251226D01*
X-10877205Y-21420744D01*
X-10955226Y-21609102D01*
X-10995000Y-21809061D01*
X-10995000Y-22012939D01*
X-10955226Y-22212898D01*
X-10877205Y-22401256D01*
X-10763937Y-22570774D01*
X-10619774Y-22714937D01*
X-10450256Y-22828205D01*
X-10261898Y-22906226D01*
X-10061939Y-22946000D01*
X-9858061Y-22946000D01*
X-9658102Y-22906226D01*
X-9469744Y-22828205D01*
X-9300226Y-22714937D01*
X-9156063Y-22570774D01*
X-9042795Y-22401256D01*
X-8964774Y-22212898D01*
X-8925000Y-22012939D01*
X-8925000Y-21809061D01*
X-8964774Y-21609102D01*
X-9042795Y-21420744D01*
X-9156063Y-21251226D01*
X-9258289Y-21149000D01*
X-9156063Y-21046774D01*
X-9042795Y-20877256D01*
X-8964774Y-20688898D01*
X-8925000Y-20488939D01*
X-8925000Y-20285061D01*
X-6804000Y-20285061D01*
X-6804000Y-20488939D01*
X-6764226Y-20688898D01*
X-6686205Y-20877256D01*
X-6572937Y-21046774D01*
X-6428774Y-21190937D01*
X-6259256Y-21304205D01*
X-6070898Y-21382226D01*
X-5870939Y-21422000D01*
X-5667061Y-21422000D01*
X-5467102Y-21382226D01*
X-5278744Y-21304205D01*
X-5109226Y-21190937D01*
X-4965063Y-21046774D01*
X-4851795Y-20877256D01*
X-4773774Y-20688898D01*
X-4734000Y-20488939D01*
X-4734000Y-20285061D01*
X-4773774Y-20085102D01*
X-4851795Y-19896744D01*
X-4965063Y-19727226D01*
X-5109226Y-19583063D01*
X-5278744Y-19469795D01*
X-5467102Y-19391774D01*
X-5667061Y-19352000D01*
X-5870939Y-19352000D01*
X-6070898Y-19391774D01*
X-6259256Y-19469795D01*
X-6428774Y-19583063D01*
X-6572937Y-19727226D01*
X-6686205Y-19896744D01*
X-6764226Y-20085102D01*
X-6804000Y-20285061D01*
X-8925000Y-20285061D01*
X-8964774Y-20085102D01*
X-9042795Y-19896744D01*
X-9156063Y-19727226D01*
X-9258289Y-19625000D01*
X-9156063Y-19522774D01*
X-9042795Y-19353256D01*
X-8964774Y-19164898D01*
X-8925000Y-18964939D01*
X-8925000Y-18761061D01*
X-8964774Y-18561102D01*
X-9042795Y-18372744D01*
X-9156063Y-18203226D01*
X-9290714Y-18068575D01*
X-9218774Y-17894898D01*
X-9179000Y-17694939D01*
X-9179000Y-17491061D01*
X-9218774Y-17291102D01*
X-9293764Y-17110061D01*
X-9090000Y-17110061D01*
X-9090000Y-17313939D01*
X-9050226Y-17513898D01*
X-8972205Y-17702256D01*
X-8858937Y-17871774D01*
X-8714774Y-18015937D01*
X-8545256Y-18129205D01*
X-8356898Y-18207226D01*
X-8156939Y-18247000D01*
X-7953061Y-18247000D01*
X-7753102Y-18207226D01*
X-7629738Y-18156126D01*
X-7613937Y-18179774D01*
X-7469774Y-18323937D01*
X-7300256Y-18437205D01*
X-7111898Y-18515226D01*
X-6911939Y-18555000D01*
X-6708061Y-18555000D01*
X-6508102Y-18515226D01*
X-6319744Y-18437205D01*
X-6150226Y-18323937D01*
X-6006063Y-18179774D01*
X-5892795Y-18010256D01*
X-5814774Y-17821898D01*
X-5775000Y-17621939D01*
X-5775000Y-17418061D01*
X-5814774Y-17218102D01*
X-5892795Y-17029744D01*
X-6006063Y-16860226D01*
X-6150226Y-16716063D01*
X-6319744Y-16602795D01*
X-6508102Y-16524774D01*
X-6708061Y-16485000D01*
X-6911939Y-16485000D01*
X-7111898Y-16524774D01*
X-7235262Y-16575874D01*
X-7251063Y-16552226D01*
X-7395226Y-16408063D01*
X-7564744Y-16294795D01*
X-7742752Y-16221061D01*
X-2359000Y-16221061D01*
X-2359000Y-16424939D01*
X-2319226Y-16624898D01*
X-2241205Y-16813256D01*
X-2127937Y-16982774D01*
X-1983774Y-17126937D01*
X-1814256Y-17240205D01*
X-1625898Y-17318226D01*
X-1425939Y-17358000D01*
X-1222061Y-17358000D01*
X-1022102Y-17318226D01*
X-833744Y-17240205D01*
X-664226Y-17126937D01*
X-562000Y-17024711D01*
X-459774Y-17126937D01*
X-290256Y-17240205D01*
X-101898Y-17318226D01*
X98061Y-17358000D01*
X301939Y-17358000D01*
X501898Y-17318226D01*
X690256Y-17240205D01*
X859774Y-17126937D01*
X1003937Y-16982774D01*
X1117205Y-16813256D01*
X1195226Y-16624898D01*
X1235000Y-16424939D01*
X1235000Y-16221061D01*
X1195226Y-16021102D01*
X1152545Y-15918061D01*
X4155000Y-15918061D01*
X4155000Y-16121939D01*
X4194774Y-16321898D01*
X4272795Y-16510256D01*
X4386063Y-16679774D01*
X4530226Y-16823937D01*
X4699744Y-16937205D01*
X4888102Y-17015226D01*
X5088061Y-17055000D01*
X5291939Y-17055000D01*
X5491898Y-17015226D01*
X5680256Y-16937205D01*
X5849774Y-16823937D01*
X5993937Y-16679774D01*
X6107205Y-16510256D01*
X6185226Y-16321898D01*
X6205283Y-16221061D01*
X10087000Y-16221061D01*
X10087000Y-16424939D01*
X10126774Y-16624898D01*
X10204795Y-16813256D01*
X10318063Y-16982774D01*
X10420289Y-17085000D01*
X10318063Y-17187226D01*
X10204795Y-17356744D01*
X10126774Y-17545102D01*
X10087000Y-17745061D01*
X10087000Y-17948939D01*
X10126774Y-18148898D01*
X10204795Y-18337256D01*
X10318063Y-18506774D01*
X10420289Y-18609000D01*
X10318063Y-18711226D01*
X10204795Y-18880744D01*
X10126774Y-19069102D01*
X10087000Y-19269061D01*
X10087000Y-19472939D01*
X10126774Y-19672898D01*
X10204795Y-19861256D01*
X10318063Y-20030774D01*
X10462226Y-20174937D01*
X10631744Y-20288205D01*
X10820102Y-20366226D01*
X11020061Y-20406000D01*
X11223939Y-20406000D01*
X11423898Y-20366226D01*
X11612256Y-20288205D01*
X11781774Y-20174937D01*
X11925937Y-20030774D01*
X12039205Y-19861256D01*
X12117226Y-19672898D01*
X12157000Y-19472939D01*
X12157000Y-19269061D01*
X12117226Y-19069102D01*
X12039205Y-18880744D01*
X11925937Y-18711226D01*
X11823711Y-18609000D01*
X11925937Y-18506774D01*
X12039205Y-18337256D01*
X12117226Y-18148898D01*
X12157000Y-17948939D01*
X12157000Y-17745061D01*
X25581000Y-17745061D01*
X25581000Y-17948939D01*
X25620774Y-18148898D01*
X25698795Y-18337256D01*
X25812063Y-18506774D01*
X25956226Y-18650937D01*
X26125744Y-18764205D01*
X26314102Y-18842226D01*
X26514061Y-18882000D01*
X26717939Y-18882000D01*
X26917898Y-18842226D01*
X27060500Y-18783158D01*
X27203102Y-18842226D01*
X27403061Y-18882000D01*
X27606939Y-18882000D01*
X27806898Y-18842226D01*
X27949500Y-18783158D01*
X28092102Y-18842226D01*
X28292061Y-18882000D01*
X28495939Y-18882000D01*
X28695898Y-18842226D01*
X28884256Y-18764205D01*
X29053774Y-18650937D01*
X29197937Y-18506774D01*
X29311205Y-18337256D01*
X29389226Y-18148898D01*
X29429000Y-17948939D01*
X29429000Y-17745061D01*
X29389226Y-17545102D01*
X29311205Y-17356744D01*
X29197937Y-17187226D01*
X29053774Y-17043063D01*
X28884256Y-16929795D01*
X28695898Y-16851774D01*
X28495939Y-16812000D01*
X28292061Y-16812000D01*
X28092102Y-16851774D01*
X27949500Y-16910842D01*
X27806898Y-16851774D01*
X27606939Y-16812000D01*
X27403061Y-16812000D01*
X27203102Y-16851774D01*
X27060500Y-16910842D01*
X26917898Y-16851774D01*
X26717939Y-16812000D01*
X26514061Y-16812000D01*
X26314102Y-16851774D01*
X26125744Y-16929795D01*
X25956226Y-17043063D01*
X25812063Y-17187226D01*
X25698795Y-17356744D01*
X25620774Y-17545102D01*
X25581000Y-17745061D01*
X12157000Y-17745061D01*
X12117226Y-17545102D01*
X12039205Y-17356744D01*
X11925937Y-17187226D01*
X11823711Y-17085000D01*
X11925937Y-16982774D01*
X12039205Y-16813256D01*
X12117226Y-16624898D01*
X12157000Y-16424939D01*
X12157000Y-16221061D01*
X12117226Y-16021102D01*
X12039205Y-15832744D01*
X11925937Y-15663226D01*
X11781774Y-15519063D01*
X11612256Y-15405795D01*
X11423898Y-15327774D01*
X11223939Y-15288000D01*
X11020061Y-15288000D01*
X10820102Y-15327774D01*
X10631744Y-15405795D01*
X10462226Y-15519063D01*
X10318063Y-15663226D01*
X10204795Y-15832744D01*
X10126774Y-16021102D01*
X10087000Y-16221061D01*
X6205283Y-16221061D01*
X6225000Y-16121939D01*
X6225000Y-15918061D01*
X6185226Y-15718102D01*
X6107205Y-15529744D01*
X5993937Y-15360226D01*
X5849774Y-15216063D01*
X5680256Y-15102795D01*
X5491898Y-15024774D01*
X5291939Y-14985000D01*
X5088061Y-14985000D01*
X4888102Y-15024774D01*
X4699744Y-15102795D01*
X4530226Y-15216063D01*
X4386063Y-15360226D01*
X4272795Y-15529744D01*
X4194774Y-15718102D01*
X4155000Y-15918061D01*
X1152545Y-15918061D01*
X1117205Y-15832744D01*
X1003937Y-15663226D01*
X859774Y-15519063D01*
X690256Y-15405795D01*
X501898Y-15327774D01*
X301939Y-15288000D01*
X98061Y-15288000D01*
X-101898Y-15327774D01*
X-290256Y-15405795D01*
X-459774Y-15519063D01*
X-562000Y-15621289D01*
X-664226Y-15519063D01*
X-833744Y-15405795D01*
X-1022102Y-15327774D01*
X-1222061Y-15288000D01*
X-1425939Y-15288000D01*
X-1625898Y-15327774D01*
X-1814256Y-15405795D01*
X-1983774Y-15519063D01*
X-2127937Y-15663226D01*
X-2241205Y-15832744D01*
X-2319226Y-16021102D01*
X-2359000Y-16221061D01*
X-7742752Y-16221061D01*
X-7753102Y-16216774D01*
X-7953061Y-16177000D01*
X-8156939Y-16177000D01*
X-8356898Y-16216774D01*
X-8545256Y-16294795D01*
X-8714774Y-16408063D01*
X-8858937Y-16552226D01*
X-8972205Y-16721744D01*
X-9050226Y-16910102D01*
X-9090000Y-17110061D01*
X-9293764Y-17110061D01*
X-9296795Y-17102744D01*
X-9393510Y-16958000D01*
X-9296795Y-16813256D01*
X-9218774Y-16624898D01*
X-9179000Y-16424939D01*
X-9179000Y-16221061D01*
X-9218774Y-16021102D01*
X-9296795Y-15832744D01*
X-9410063Y-15663226D01*
X-9554226Y-15519063D01*
X-9723744Y-15405795D01*
X-9912102Y-15327774D01*
X-10112061Y-15288000D01*
X-10315939Y-15288000D01*
X-10515898Y-15327774D01*
X-10704256Y-15405795D01*
X-10873774Y-15519063D01*
X-11017937Y-15663226D01*
X-11131205Y-15832744D01*
X-11209226Y-16021102D01*
X-11249000Y-16221061D01*
X-24667000Y-16221061D01*
X-24667000Y-14918061D01*
X19255000Y-14918061D01*
X19255000Y-15121939D01*
X19294774Y-15321898D01*
X19372795Y-15510256D01*
X19486063Y-15679774D01*
X19630226Y-15823937D01*
X19799744Y-15937205D01*
X19988102Y-16015226D01*
X20188061Y-16055000D01*
X20391939Y-16055000D01*
X20591898Y-16015226D01*
X20780256Y-15937205D01*
X20949774Y-15823937D01*
X21093937Y-15679774D01*
X21207205Y-15510256D01*
X21285226Y-15321898D01*
X21325000Y-15121939D01*
X21325000Y-14918061D01*
X21285226Y-14718102D01*
X21207205Y-14529744D01*
X21093937Y-14360226D01*
X20949774Y-14216063D01*
X20780256Y-14102795D01*
X20591898Y-14024774D01*
X20391939Y-13985000D01*
X20188061Y-13985000D01*
X19988102Y-14024774D01*
X19799744Y-14102795D01*
X19630226Y-14216063D01*
X19486063Y-14360226D01*
X19372795Y-14529744D01*
X19294774Y-14718102D01*
X19255000Y-14918061D01*
X-24667000Y-14918061D01*
X-24667000Y-13681061D01*
X23168000Y-13681061D01*
X23168000Y-13884939D01*
X23207774Y-14084898D01*
X23285795Y-14273256D01*
X23399063Y-14442774D01*
X23543226Y-14586937D01*
X23712744Y-14700205D01*
X23901102Y-14778226D01*
X24101061Y-14818000D01*
X24304939Y-14818000D01*
X24504898Y-14778226D01*
X24693256Y-14700205D01*
X24862774Y-14586937D01*
X25006937Y-14442774D01*
X25120205Y-14273256D01*
X25198226Y-14084898D01*
X25238000Y-13884939D01*
X25238000Y-13681061D01*
X25198226Y-13481102D01*
X25120205Y-13292744D01*
X25006937Y-13123226D01*
X24862774Y-12979063D01*
X24693256Y-12865795D01*
X24504898Y-12787774D01*
X24304939Y-12748000D01*
X24101061Y-12748000D01*
X23901102Y-12787774D01*
X23712744Y-12865795D01*
X23543226Y-12979063D01*
X23399063Y-13123226D01*
X23285795Y-13292744D01*
X23207774Y-13481102D01*
X23168000Y-13681061D01*
X-24667000Y-13681061D01*
X-24667000Y-11453816D01*
X-24612898Y-11476226D01*
X-24412939Y-11516000D01*
X-24209061Y-11516000D01*
X-24009102Y-11476226D01*
X-23820744Y-11398205D01*
X-23651226Y-11284937D01*
X-23634350Y-11268061D01*
X-14678000Y-11268061D01*
X-14678000Y-11471939D01*
X-14638226Y-11671898D01*
X-14560205Y-11860256D01*
X-14446937Y-12029774D01*
X-14302774Y-12173937D01*
X-14133256Y-12287205D01*
X-13944898Y-12365226D01*
X-13744939Y-12405000D01*
X-13541061Y-12405000D01*
X-13341102Y-12365226D01*
X-13152744Y-12287205D01*
X-12983226Y-12173937D01*
X-12966350Y-12157061D01*
X-73000Y-12157061D01*
X-73000Y-12360939D01*
X-33226Y-12560898D01*
X44795Y-12749256D01*
X158063Y-12918774D01*
X302226Y-13062937D01*
X471744Y-13176205D01*
X660102Y-13254226D01*
X860061Y-13294000D01*
X1063939Y-13294000D01*
X1263898Y-13254226D01*
X1452256Y-13176205D01*
X1621774Y-13062937D01*
X1765937Y-12918774D01*
X1879205Y-12749256D01*
X1957226Y-12560898D01*
X1997000Y-12360939D01*
X1997000Y-12157061D01*
X1957226Y-11957102D01*
X1879205Y-11768744D01*
X1765937Y-11599226D01*
X1621774Y-11455063D01*
X1452256Y-11341795D01*
X1263898Y-11263774D01*
X1063939Y-11224000D01*
X860061Y-11224000D01*
X660102Y-11263774D01*
X471744Y-11341795D01*
X302226Y-11455063D01*
X158063Y-11599226D01*
X44795Y-11768744D01*
X-33226Y-11957102D01*
X-73000Y-12157061D01*
X-12966350Y-12157061D01*
X-12839063Y-12029774D01*
X-12725795Y-11860256D01*
X-12647774Y-11671898D01*
X-12608000Y-11471939D01*
X-12608000Y-11268061D01*
X-12647774Y-11068102D01*
X-12725795Y-10879744D01*
X-12839063Y-10710226D01*
X-12983226Y-10566063D01*
X-13152744Y-10452795D01*
X-13341102Y-10374774D01*
X-13541061Y-10335000D01*
X-13744939Y-10335000D01*
X-13944898Y-10374774D01*
X-14133256Y-10452795D01*
X-14302774Y-10566063D01*
X-14446937Y-10710226D01*
X-14560205Y-10879744D01*
X-14638226Y-11068102D01*
X-14678000Y-11268061D01*
X-23634350Y-11268061D01*
X-23507063Y-11140774D01*
X-23393795Y-10971256D01*
X-23315774Y-10782898D01*
X-23276000Y-10582939D01*
X-23276000Y-10379061D01*
X-23315774Y-10179102D01*
X-23393795Y-9990744D01*
X-23507063Y-9821226D01*
X-23651226Y-9677063D01*
X-23741025Y-9617061D01*
X-16583000Y-9617061D01*
X-16583000Y-9820939D01*
X-16543226Y-10020898D01*
X-16465205Y-10209256D01*
X-16351937Y-10378774D01*
X-16207774Y-10522937D01*
X-16038256Y-10636205D01*
X-15849898Y-10714226D01*
X-15649939Y-10754000D01*
X-15446061Y-10754000D01*
X-15246102Y-10714226D01*
X-15057744Y-10636205D01*
X-14888226Y-10522937D01*
X-14744063Y-10378774D01*
X-14630795Y-10209256D01*
X-14552774Y-10020898D01*
X-14513000Y-9820939D01*
X-14513000Y-9617061D01*
X-12900000Y-9617061D01*
X-12900000Y-9820939D01*
X-12860226Y-10020898D01*
X-12782205Y-10209256D01*
X-12668937Y-10378774D01*
X-12524774Y-10522937D01*
X-12355256Y-10636205D01*
X-12166898Y-10714226D01*
X-11966939Y-10754000D01*
X-11763061Y-10754000D01*
X-11563102Y-10714226D01*
X-11374744Y-10636205D01*
X-11205226Y-10522937D01*
X-11061063Y-10378774D01*
X-10947795Y-10209256D01*
X-10869774Y-10020898D01*
X-10830000Y-9820939D01*
X-10830000Y-9617061D01*
X-10869774Y-9417102D01*
X-10947795Y-9228744D01*
X-11061063Y-9059226D01*
X-11205226Y-8915063D01*
X-11374744Y-8801795D01*
X-11563102Y-8723774D01*
X-11763061Y-8684000D01*
X-11966939Y-8684000D01*
X-12166898Y-8723774D01*
X-12355256Y-8801795D01*
X-12524774Y-8915063D01*
X-12668937Y-9059226D01*
X-12782205Y-9228744D01*
X-12860226Y-9417102D01*
X-12900000Y-9617061D01*
X-14513000Y-9617061D01*
X-14552774Y-9417102D01*
X-14630795Y-9228744D01*
X-14744063Y-9059226D01*
X-14888226Y-8915063D01*
X-15057744Y-8801795D01*
X-15246102Y-8723774D01*
X-15446061Y-8684000D01*
X-15649939Y-8684000D01*
X-15849898Y-8723774D01*
X-16038256Y-8801795D01*
X-16207774Y-8915063D01*
X-16351937Y-9059226D01*
X-16465205Y-9228744D01*
X-16543226Y-9417102D01*
X-16583000Y-9617061D01*
X-23741025Y-9617061D01*
X-23820744Y-9563795D01*
X-24009102Y-9485774D01*
X-24209061Y-9446000D01*
X-24412939Y-9446000D01*
X-24612898Y-9485774D01*
X-24667000Y-9508184D01*
X-24667000Y-7086890D01*
X-24559952Y-7086890D01*
X-24559952Y-7333110D01*
X-24511917Y-7574598D01*
X-24417693Y-7802074D01*
X-24280901Y-8006798D01*
X-24106798Y-8180901D01*
X-23902074Y-8317693D01*
X-23674598Y-8411917D01*
X-23433110Y-8459952D01*
X-23186890Y-8459952D01*
X-22945402Y-8411917D01*
X-22717926Y-8317693D01*
X-22513202Y-8180901D01*
X-22339099Y-8006798D01*
X-22202307Y-7802074D01*
X-22108083Y-7574598D01*
X-22060048Y-7333110D01*
X-22060048Y-7086890D01*
X-22093630Y-6918061D01*
X-8745000Y-6918061D01*
X-8745000Y-7121939D01*
X-8705226Y-7321898D01*
X-8627205Y-7510256D01*
X-8513937Y-7679774D01*
X-8369774Y-7823937D01*
X-8200256Y-7937205D01*
X-8011898Y-8015226D01*
X-7864727Y-8044500D01*
X-7907226Y-8147102D01*
X-7947000Y-8347061D01*
X-7947000Y-8550939D01*
X-7907226Y-8750898D01*
X-7829205Y-8939256D01*
X-7715937Y-9108774D01*
X-7571774Y-9252937D01*
X-7402256Y-9366205D01*
X-7213898Y-9444226D01*
X-7013939Y-9484000D01*
X-6810061Y-9484000D01*
X-6610102Y-9444226D01*
X-6421744Y-9366205D01*
X-6252226Y-9252937D01*
X-6108063Y-9108774D01*
X-5994795Y-8939256D01*
X-5946000Y-8821456D01*
X-5856588Y-8881199D01*
X-5668230Y-8959220D01*
X-5468271Y-8998994D01*
X-5264393Y-8998994D01*
X-5064434Y-8959220D01*
X-4876076Y-8881199D01*
X-4706558Y-8767931D01*
X-4562395Y-8623768D01*
X-4449127Y-8454250D01*
X-4371106Y-8265892D01*
X-4331332Y-8065933D01*
X-4331332Y-7862055D01*
X-4371106Y-7662096D01*
X-4449127Y-7473738D01*
X-4562395Y-7304220D01*
X-4662554Y-7204061D01*
X7801000Y-7204061D01*
X7801000Y-7407939D01*
X7840774Y-7607898D01*
X7918795Y-7796256D01*
X8032063Y-7965774D01*
X8176226Y-8109937D01*
X8345744Y-8223205D01*
X8534102Y-8301226D01*
X8734061Y-8341000D01*
X8937939Y-8341000D01*
X9137898Y-8301226D01*
X9326256Y-8223205D01*
X9495774Y-8109937D01*
X9639937Y-7965774D01*
X9753205Y-7796256D01*
X9831226Y-7607898D01*
X9871000Y-7407939D01*
X9871000Y-7204061D01*
X9847694Y-7086890D01*
X31080048Y-7086890D01*
X31080048Y-7333110D01*
X31128083Y-7574598D01*
X31222307Y-7802074D01*
X31359099Y-8006798D01*
X31533202Y-8180901D01*
X31737926Y-8317693D01*
X31965402Y-8411917D01*
X32206890Y-8459952D01*
X32453110Y-8459952D01*
X32694598Y-8411917D01*
X32922074Y-8317693D01*
X33126798Y-8180901D01*
X33300901Y-8006798D01*
X33437693Y-7802074D01*
X33531917Y-7574598D01*
X33579952Y-7333110D01*
X33579952Y-7086890D01*
X33531917Y-6845402D01*
X33437693Y-6617926D01*
X33300901Y-6413202D01*
X33126798Y-6239099D01*
X32922074Y-6102307D01*
X32694598Y-6008083D01*
X32453110Y-5960048D01*
X32206890Y-5960048D01*
X31965402Y-6008083D01*
X31737926Y-6102307D01*
X31533202Y-6239099D01*
X31359099Y-6413202D01*
X31222307Y-6617926D01*
X31128083Y-6845402D01*
X31080048Y-7086890D01*
X9847694Y-7086890D01*
X9831226Y-7004102D01*
X9753205Y-6815744D01*
X9639937Y-6646226D01*
X9495774Y-6502063D01*
X9326256Y-6388795D01*
X9137898Y-6310774D01*
X8937939Y-6271000D01*
X8734061Y-6271000D01*
X8534102Y-6310774D01*
X8345744Y-6388795D01*
X8176226Y-6502063D01*
X8032063Y-6646226D01*
X7918795Y-6815744D01*
X7840774Y-7004102D01*
X7801000Y-7204061D01*
X-4662554Y-7204061D01*
X-4706558Y-7160057D01*
X-4876076Y-7046789D01*
X-5064434Y-6968768D01*
X-5264393Y-6928994D01*
X-5468271Y-6928994D01*
X-5668230Y-6968768D01*
X-5856588Y-7046789D01*
X-6026106Y-7160057D01*
X-6170269Y-7304220D01*
X-6283537Y-7473738D01*
X-6332332Y-7591538D01*
X-6421744Y-7531795D01*
X-6610102Y-7453774D01*
X-6757273Y-7424500D01*
X-6714774Y-7321898D01*
X-6675000Y-7121939D01*
X-6675000Y-6918061D01*
X-6714774Y-6718102D01*
X-6792795Y-6529744D01*
X-6906063Y-6360226D01*
X-7050226Y-6216063D01*
X-7219744Y-6102795D01*
X-7408102Y-6024774D01*
X-7608061Y-5985000D01*
X-7811939Y-5985000D01*
X-8011898Y-6024774D01*
X-8200256Y-6102795D01*
X-8369774Y-6216063D01*
X-8513937Y-6360226D01*
X-8627205Y-6529744D01*
X-8705226Y-6718102D01*
X-8745000Y-6918061D01*
X-22093630Y-6918061D01*
X-22108083Y-6845402D01*
X-22202307Y-6617926D01*
X-22339099Y-6413202D01*
X-22513202Y-6239099D01*
X-22717926Y-6102307D01*
X-22945402Y-6008083D01*
X-23186890Y-5960048D01*
X-23433110Y-5960048D01*
X-23674598Y-6008083D01*
X-23902074Y-6102307D01*
X-24106798Y-6239099D01*
X-24280901Y-6413202D01*
X-24417693Y-6617926D01*
X-24511917Y-6845402D01*
X-24559952Y-7086890D01*
X-24667000Y-7086890D01*
X-24667000Y-3392264D01*
X-24643748Y-3448399D01*
X-24273302Y-4002812D01*
X-23801812Y-4474302D01*
X-23247399Y-4844748D01*
X-22631368Y-5099917D01*
X-21977393Y-5230000D01*
X-21310607Y-5230000D01*
X-20656632Y-5099917D01*
X-20040601Y-4844748D01*
X-19960253Y-4791061D01*
X-16456000Y-4791061D01*
X-16456000Y-4994939D01*
X-16416226Y-5194898D01*
X-16338205Y-5383256D01*
X-16224937Y-5552774D01*
X-16080774Y-5696937D01*
X-15911256Y-5810205D01*
X-15722898Y-5888226D01*
X-15522939Y-5928000D01*
X-15319061Y-5928000D01*
X-15119102Y-5888226D01*
X-14930744Y-5810205D01*
X-14761226Y-5696937D01*
X-14617063Y-5552774D01*
X-14503795Y-5383256D01*
X-14425774Y-5194898D01*
X-14386000Y-4994939D01*
X-14386000Y-4791061D01*
X-12646000Y-4791061D01*
X-12646000Y-4994939D01*
X-12606226Y-5194898D01*
X-12528205Y-5383256D01*
X-12414937Y-5552774D01*
X-12270774Y-5696937D01*
X-12101256Y-5810205D01*
X-11912898Y-5888226D01*
X-11712939Y-5928000D01*
X-11509061Y-5928000D01*
X-11309102Y-5888226D01*
X-11120744Y-5810205D01*
X-10951226Y-5696937D01*
X-10807063Y-5552774D01*
X-10783869Y-5518061D01*
X10955000Y-5518061D01*
X10955000Y-5721939D01*
X10994774Y-5921898D01*
X11072795Y-6110256D01*
X11186063Y-6279774D01*
X11330226Y-6423937D01*
X11499744Y-6537205D01*
X11688102Y-6615226D01*
X11888061Y-6655000D01*
X12091939Y-6655000D01*
X12291898Y-6615226D01*
X12480256Y-6537205D01*
X12649774Y-6423937D01*
X12793937Y-6279774D01*
X12907205Y-6110256D01*
X12985226Y-5921898D01*
X13025000Y-5721939D01*
X13025000Y-5518061D01*
X13355000Y-5518061D01*
X13355000Y-5721939D01*
X13394774Y-5921898D01*
X13472795Y-6110256D01*
X13586063Y-6279774D01*
X13730226Y-6423937D01*
X13899744Y-6537205D01*
X14088102Y-6615226D01*
X14288061Y-6655000D01*
X14491939Y-6655000D01*
X14691898Y-6615226D01*
X14880256Y-6537205D01*
X15049774Y-6423937D01*
X15090000Y-6383711D01*
X15130226Y-6423937D01*
X15299744Y-6537205D01*
X15488102Y-6615226D01*
X15688061Y-6655000D01*
X15891939Y-6655000D01*
X16091898Y-6615226D01*
X16280256Y-6537205D01*
X16449774Y-6423937D01*
X16593937Y-6279774D01*
X16707205Y-6110256D01*
X16785226Y-5921898D01*
X16825000Y-5721939D01*
X16825000Y-5518061D01*
X16785226Y-5318102D01*
X16707205Y-5129744D01*
X16593937Y-4960226D01*
X16449774Y-4816063D01*
X16280256Y-4702795D01*
X16091898Y-4624774D01*
X15891939Y-4585000D01*
X15688061Y-4585000D01*
X15488102Y-4624774D01*
X15299744Y-4702795D01*
X15130226Y-4816063D01*
X15090000Y-4856289D01*
X15049774Y-4816063D01*
X14880256Y-4702795D01*
X14691898Y-4624774D01*
X14491939Y-4585000D01*
X14288061Y-4585000D01*
X14088102Y-4624774D01*
X13899744Y-4702795D01*
X13730226Y-4816063D01*
X13586063Y-4960226D01*
X13472795Y-5129744D01*
X13394774Y-5318102D01*
X13355000Y-5518061D01*
X13025000Y-5518061D01*
X12985226Y-5318102D01*
X12907205Y-5129744D01*
X12793937Y-4960226D01*
X12649774Y-4816063D01*
X12480256Y-4702795D01*
X12291898Y-4624774D01*
X12091939Y-4585000D01*
X11888061Y-4585000D01*
X11688102Y-4624774D01*
X11499744Y-4702795D01*
X11330226Y-4816063D01*
X11186063Y-4960226D01*
X11072795Y-5129744D01*
X10994774Y-5318102D01*
X10955000Y-5518061D01*
X-10783869Y-5518061D01*
X-10693795Y-5383256D01*
X-10615774Y-5194898D01*
X-10576000Y-4994939D01*
X-10576000Y-4791061D01*
X-10615774Y-4591102D01*
X-10693795Y-4402744D01*
X-10807063Y-4233226D01*
X-10951226Y-4089063D01*
X-11041025Y-4029061D01*
X4985000Y-4029061D01*
X4985000Y-4232939D01*
X5024774Y-4432898D01*
X5102795Y-4621256D01*
X5216063Y-4790774D01*
X5360226Y-4934937D01*
X5529744Y-5048205D01*
X5718102Y-5126226D01*
X5918061Y-5166000D01*
X6121939Y-5166000D01*
X6321898Y-5126226D01*
X6510256Y-5048205D01*
X6679774Y-4934937D01*
X6823937Y-4790774D01*
X6937205Y-4621256D01*
X7015226Y-4432898D01*
X7055000Y-4232939D01*
X7055000Y-4029061D01*
X7015226Y-3829102D01*
X6937205Y-3640744D01*
X6823937Y-3471226D01*
X6679774Y-3327063D01*
X6510256Y-3213795D01*
X6321898Y-3135774D01*
X6121939Y-3096000D01*
X5918061Y-3096000D01*
X5718102Y-3135774D01*
X5529744Y-3213795D01*
X5360226Y-3327063D01*
X5216063Y-3471226D01*
X5102795Y-3640744D01*
X5024774Y-3829102D01*
X4985000Y-4029061D01*
X-11041025Y-4029061D01*
X-11120744Y-3975795D01*
X-11309102Y-3897774D01*
X-11509061Y-3858000D01*
X-11712939Y-3858000D01*
X-11912898Y-3897774D01*
X-12101256Y-3975795D01*
X-12270774Y-4089063D01*
X-12414937Y-4233226D01*
X-12528205Y-4402744D01*
X-12606226Y-4591102D01*
X-12646000Y-4791061D01*
X-14386000Y-4791061D01*
X-14425774Y-4591102D01*
X-14503795Y-4402744D01*
X-14617063Y-4233226D01*
X-14761226Y-4089063D01*
X-14930744Y-3975795D01*
X-15119102Y-3897774D01*
X-15319061Y-3858000D01*
X-15522939Y-3858000D01*
X-15722898Y-3897774D01*
X-15911256Y-3975795D01*
X-16080774Y-4089063D01*
X-16224937Y-4233226D01*
X-16338205Y-4402744D01*
X-16416226Y-4591102D01*
X-16456000Y-4791061D01*
X-19960253Y-4791061D01*
X-19486188Y-4474302D01*
X-19014698Y-4002812D01*
X-18644252Y-3448399D01*
X-18389083Y-2832368D01*
X-18259000Y-2178393D01*
X-18259000Y-1511607D01*
X-18389083Y-857632D01*
X-18443167Y-727061D01*
X1683000Y-727061D01*
X1683000Y-930939D01*
X1722774Y-1130898D01*
X1800795Y-1319256D01*
X1914063Y-1488774D01*
X2058226Y-1632937D01*
X2227744Y-1746205D01*
X2416102Y-1824226D01*
X2616061Y-1864000D01*
X2819939Y-1864000D01*
X3019898Y-1824226D01*
X3208256Y-1746205D01*
X3340786Y-1657651D01*
X5869571Y-1657651D01*
X5869571Y-1861529D01*
X5909345Y-2061488D01*
X5987366Y-2249846D01*
X6100634Y-2419364D01*
X6244797Y-2563527D01*
X6414315Y-2676795D01*
X6602673Y-2754816D01*
X6802632Y-2794590D01*
X7006510Y-2794590D01*
X7185127Y-2759061D01*
X25073000Y-2759061D01*
X25073000Y-2962939D01*
X25112774Y-3162898D01*
X25190795Y-3351256D01*
X25304063Y-3520774D01*
X25448226Y-3664937D01*
X25617744Y-3778205D01*
X25806102Y-3856226D01*
X26006061Y-3896000D01*
X26209939Y-3896000D01*
X26409898Y-3856226D01*
X26598256Y-3778205D01*
X26767774Y-3664937D01*
X26911937Y-3520774D01*
X27025205Y-3351256D01*
X27103226Y-3162898D01*
X27143000Y-2962939D01*
X27143000Y-2759061D01*
X27103226Y-2559102D01*
X27025205Y-2370744D01*
X26911937Y-2201226D01*
X26767774Y-2057063D01*
X26598256Y-1943795D01*
X26409898Y-1865774D01*
X26209939Y-1826000D01*
X26006061Y-1826000D01*
X25806102Y-1865774D01*
X25617744Y-1943795D01*
X25448226Y-2057063D01*
X25304063Y-2201226D01*
X25190795Y-2370744D01*
X25112774Y-2559102D01*
X25073000Y-2759061D01*
X7185127Y-2759061D01*
X7206469Y-2754816D01*
X7394827Y-2676795D01*
X7564345Y-2563527D01*
X7708508Y-2419364D01*
X7821776Y-2249846D01*
X7899797Y-2061488D01*
X7939571Y-1861529D01*
X7939571Y-1657651D01*
X7899797Y-1457692D01*
X7821776Y-1269334D01*
X7708508Y-1099816D01*
X7564345Y-955653D01*
X7394827Y-842385D01*
X7206469Y-764364D01*
X7006510Y-724590D01*
X6802632Y-724590D01*
X6602673Y-764364D01*
X6414315Y-842385D01*
X6244797Y-955653D01*
X6100634Y-1099816D01*
X5987366Y-1269334D01*
X5909345Y-1457692D01*
X5869571Y-1657651D01*
X3340786Y-1657651D01*
X3377774Y-1632937D01*
X3521937Y-1488774D01*
X3635205Y-1319256D01*
X3713226Y-1130898D01*
X3753000Y-930939D01*
X3753000Y-727061D01*
X3713226Y-527102D01*
X3635205Y-338744D01*
X3521937Y-169226D01*
X3377774Y-25063D01*
X3208256Y88205D01*
X3019898Y166226D01*
X2819939Y206000D01*
X2616061Y206000D01*
X2416102Y166226D01*
X2227744Y88205D01*
X2058226Y-25063D01*
X1914063Y-169226D01*
X1800795Y-338744D01*
X1722774Y-527102D01*
X1683000Y-727061D01*
X-18443167Y-727061D01*
X-18644252Y-241601D01*
X-19014698Y312812D01*
X-19486188Y784302D01*
X-20040601Y1154748D01*
X-20096736Y1178000D01*
X29386736Y1178000D01*
X29330601Y1154748D01*
G04 #@! TA.AperFunction,Conductor*
D14*
G36*
X29330601Y1154748D02*
G01*
X28776188Y784302D01*
X28304698Y312812D01*
X27934252Y-241601D01*
X27679083Y-857632D01*
X27549000Y-1511607D01*
X27549000Y-2178393D01*
X27679083Y-2832368D01*
X27934252Y-3448399D01*
X28304698Y-4002812D01*
X28776188Y-4474302D01*
X29330601Y-4844748D01*
X29946632Y-5099917D01*
X30600607Y-5230000D01*
X31267393Y-5230000D01*
X31921368Y-5099917D01*
X32537399Y-4844748D01*
X33091812Y-4474302D01*
X33563302Y-4002812D01*
X33933748Y-3448399D01*
X33957000Y-3392264D01*
X33957001Y-43350738D01*
X33933748Y-43294601D01*
X33563302Y-42740188D01*
X33091812Y-42268698D01*
X32537399Y-41898252D01*
X31921368Y-41643083D01*
X31267393Y-41513000D01*
X30600607Y-41513000D01*
X29946632Y-41643083D01*
X29330601Y-41898252D01*
X28776188Y-42268698D01*
X28304698Y-42740188D01*
X27934252Y-43294601D01*
X27679083Y-43910632D01*
X27549000Y-44564607D01*
X27549000Y-45231393D01*
X27679083Y-45885368D01*
X27934252Y-46501399D01*
X28304698Y-47055812D01*
X28776188Y-47527302D01*
X29330601Y-47897748D01*
X29386736Y-47921000D01*
X-20096736Y-47921000D01*
X-20040601Y-47897748D01*
X-19486188Y-47527302D01*
X-19014698Y-47055812D01*
X-18644252Y-46501399D01*
X-18389083Y-45885368D01*
X-18259000Y-45231393D01*
X-18259000Y-45177061D01*
X-15821000Y-45177061D01*
X-15821000Y-45380939D01*
X-15781226Y-45580898D01*
X-15703205Y-45769256D01*
X-15606490Y-45914000D01*
X-15703205Y-46058744D01*
X-15781226Y-46247102D01*
X-15821000Y-46447061D01*
X-15821000Y-46650939D01*
X-15781226Y-46850898D01*
X-15703205Y-47039256D01*
X-15589937Y-47208774D01*
X-15445774Y-47352937D01*
X-15276256Y-47466205D01*
X-15087898Y-47544226D01*
X-14887939Y-47584000D01*
X-14684061Y-47584000D01*
X-14484102Y-47544226D01*
X-14295744Y-47466205D01*
X-14126226Y-47352937D01*
X-13982063Y-47208774D01*
X-13868795Y-47039256D01*
X-13790774Y-46850898D01*
X-13751000Y-46650939D01*
X-13751000Y-46447061D01*
X-13790774Y-46247102D01*
X-13835878Y-46138212D01*
X-12135000Y-46138212D01*
X-12135000Y-46361788D01*
X-12091383Y-46581067D01*
X-12005824Y-46787624D01*
X-11881612Y-46973520D01*
X-11723520Y-47131612D01*
X-11537624Y-47255824D01*
X-11331067Y-47341383D01*
X-11111788Y-47385000D01*
X-10888212Y-47385000D01*
X-10668933Y-47341383D01*
X-10462376Y-47255824D01*
X-10276480Y-47131612D01*
X-10118388Y-46973520D01*
X-9994176Y-46787624D01*
X-9908617Y-46581067D01*
X-9865000Y-46361788D01*
X-9865000Y-46138212D01*
X-4135000Y-46138212D01*
X-4135000Y-46361788D01*
X-4091383Y-46581067D01*
X-4005824Y-46787624D01*
X-3881612Y-46973520D01*
X-3723520Y-47131612D01*
X-3537624Y-47255824D01*
X-3331067Y-47341383D01*
X-3111788Y-47385000D01*
X-2888212Y-47385000D01*
X-2668933Y-47341383D01*
X-2462376Y-47255824D01*
X-2276480Y-47131612D01*
X-2118388Y-46973520D01*
X-1994176Y-46787624D01*
X-1908617Y-46581067D01*
X-1865000Y-46361788D01*
X-1865000Y-46138212D01*
X-1908617Y-45918933D01*
X-1994176Y-45712376D01*
X-2118388Y-45526480D01*
X-2276480Y-45368388D01*
X-2462376Y-45244176D01*
X-2624405Y-45177061D01*
X1705000Y-45177061D01*
X1705000Y-45380939D01*
X1744774Y-45580898D01*
X1822795Y-45769256D01*
X1877080Y-45850500D01*
X1822795Y-45931744D01*
X1744774Y-46120102D01*
X1705000Y-46320061D01*
X1705000Y-46523939D01*
X1744774Y-46723898D01*
X1822795Y-46912256D01*
X1936063Y-47081774D01*
X2080226Y-47225937D01*
X2249744Y-47339205D01*
X2438102Y-47417226D01*
X2638061Y-47457000D01*
X2841939Y-47457000D01*
X3041898Y-47417226D01*
X3230256Y-47339205D01*
X3399774Y-47225937D01*
X3543937Y-47081774D01*
X3657205Y-46912256D01*
X3735226Y-46723898D01*
X3775000Y-46523939D01*
X3775000Y-46320061D01*
X3735226Y-46120102D01*
X3657205Y-45931744D01*
X3602920Y-45850500D01*
X3657205Y-45769256D01*
X3735226Y-45580898D01*
X3775000Y-45380939D01*
X3775000Y-45177061D01*
X3735226Y-44977102D01*
X3657205Y-44788744D01*
X3543937Y-44619226D01*
X3399774Y-44475063D01*
X3230256Y-44361795D01*
X3041898Y-44283774D01*
X2841939Y-44244000D01*
X2638061Y-44244000D01*
X2438102Y-44283774D01*
X2249744Y-44361795D01*
X2080226Y-44475063D01*
X1936063Y-44619226D01*
X1822795Y-44788744D01*
X1744774Y-44977102D01*
X1705000Y-45177061D01*
X-2624405Y-45177061D01*
X-2668933Y-45158617D01*
X-2888212Y-45115000D01*
X-3111788Y-45115000D01*
X-3331067Y-45158617D01*
X-3537624Y-45244176D01*
X-3723520Y-45368388D01*
X-3881612Y-45526480D01*
X-4005824Y-45712376D01*
X-4091383Y-45918933D01*
X-4135000Y-46138212D01*
X-9865000Y-46138212D01*
X-9908617Y-45918933D01*
X-9994176Y-45712376D01*
X-10118388Y-45526480D01*
X-10276480Y-45368388D01*
X-10462376Y-45244176D01*
X-10668933Y-45158617D01*
X-10888212Y-45115000D01*
X-11111788Y-45115000D01*
X-11331067Y-45158617D01*
X-11537624Y-45244176D01*
X-11723520Y-45368388D01*
X-11881612Y-45526480D01*
X-12005824Y-45712376D01*
X-12091383Y-45918933D01*
X-12135000Y-46138212D01*
X-13835878Y-46138212D01*
X-13868795Y-46058744D01*
X-13965510Y-45914000D01*
X-13868795Y-45769256D01*
X-13790774Y-45580898D01*
X-13751000Y-45380939D01*
X-13751000Y-45177061D01*
X-13790774Y-44977102D01*
X-13868795Y-44788744D01*
X-13982063Y-44619226D01*
X-14126226Y-44475063D01*
X-14295744Y-44361795D01*
X-14484102Y-44283774D01*
X-14684061Y-44244000D01*
X-14887939Y-44244000D01*
X-15087898Y-44283774D01*
X-15276256Y-44361795D01*
X-15445774Y-44475063D01*
X-15589937Y-44619226D01*
X-15703205Y-44788744D01*
X-15781226Y-44977102D01*
X-15821000Y-45177061D01*
X-18259000Y-45177061D01*
X-18259000Y-44564607D01*
X-18389083Y-43910632D01*
X-18427427Y-43818061D01*
X14055000Y-43818061D01*
X14055000Y-44021939D01*
X14094774Y-44221898D01*
X14172795Y-44410256D01*
X14286063Y-44579774D01*
X14421151Y-44714862D01*
X14405000Y-44796061D01*
X14405000Y-44999939D01*
X14444774Y-45199898D01*
X14522795Y-45388256D01*
X14636063Y-45557774D01*
X14780226Y-45701937D01*
X14949744Y-45815205D01*
X15138102Y-45893226D01*
X15338061Y-45933000D01*
X15541939Y-45933000D01*
X15741898Y-45893226D01*
X15930256Y-45815205D01*
X16099774Y-45701937D01*
X16243937Y-45557774D01*
X16357205Y-45388256D01*
X16435226Y-45199898D01*
X16475000Y-44999939D01*
X16475000Y-44796061D01*
X16439594Y-44618061D01*
X17199000Y-44618061D01*
X17199000Y-44821939D01*
X17238774Y-45021898D01*
X17316795Y-45210256D01*
X17430063Y-45379774D01*
X17574226Y-45523937D01*
X17743744Y-45637205D01*
X17932102Y-45715226D01*
X18132061Y-45755000D01*
X18335939Y-45755000D01*
X18535898Y-45715226D01*
X18724256Y-45637205D01*
X18893774Y-45523937D01*
X19037937Y-45379774D01*
X19054490Y-45355000D01*
X19191939Y-45355000D01*
X19391898Y-45315226D01*
X19548060Y-45250541D01*
X19572795Y-45310256D01*
X19686063Y-45479774D01*
X19830226Y-45623937D01*
X19999744Y-45737205D01*
X20188102Y-45815226D01*
X20388061Y-45855000D01*
X20422101Y-45855000D01*
X20491795Y-46023256D01*
X20605063Y-46192774D01*
X20749226Y-46336937D01*
X20918744Y-46450205D01*
X21107102Y-46528226D01*
X21307061Y-46568000D01*
X21510939Y-46568000D01*
X21710898Y-46528226D01*
X21853500Y-46469158D01*
X21996102Y-46528226D01*
X22196061Y-46568000D01*
X22399939Y-46568000D01*
X22599898Y-46528226D01*
X22742500Y-46469158D01*
X22885102Y-46528226D01*
X23085061Y-46568000D01*
X23288939Y-46568000D01*
X23488898Y-46528226D01*
X23677256Y-46450205D01*
X23846774Y-46336937D01*
X23990937Y-46192774D01*
X24104205Y-46023256D01*
X24182226Y-45834898D01*
X24222000Y-45634939D01*
X24222000Y-45431061D01*
X24182226Y-45231102D01*
X24104205Y-45042744D01*
X23990937Y-44873226D01*
X23846774Y-44729063D01*
X23677256Y-44615795D01*
X23488898Y-44537774D01*
X23288939Y-44498000D01*
X23085061Y-44498000D01*
X22885102Y-44537774D01*
X22742500Y-44596842D01*
X22599898Y-44537774D01*
X22399939Y-44498000D01*
X22196061Y-44498000D01*
X21996102Y-44537774D01*
X21853500Y-44596842D01*
X21710898Y-44537774D01*
X21510939Y-44498000D01*
X21476899Y-44498000D01*
X21407205Y-44329744D01*
X21341573Y-44231519D01*
X21499744Y-44337205D01*
X21688102Y-44415226D01*
X21888061Y-44455000D01*
X22091939Y-44455000D01*
X22291898Y-44415226D01*
X22480256Y-44337205D01*
X22649774Y-44223937D01*
X22793937Y-44079774D01*
X22907205Y-43910256D01*
X22942498Y-43825052D01*
X22991898Y-43815226D01*
X23180256Y-43737205D01*
X23349774Y-43623937D01*
X23493937Y-43479774D01*
X23607205Y-43310256D01*
X23685226Y-43121898D01*
X23725000Y-42921939D01*
X23725000Y-42718061D01*
X23708889Y-42637061D01*
X23930000Y-42637061D01*
X23930000Y-42840939D01*
X23969774Y-43040898D01*
X24028842Y-43183500D01*
X23969774Y-43326102D01*
X23930000Y-43526061D01*
X23930000Y-43729939D01*
X23969774Y-43929898D01*
X24047795Y-44118256D01*
X24161063Y-44287774D01*
X24305226Y-44431937D01*
X24474744Y-44545205D01*
X24663102Y-44623226D01*
X24863061Y-44663000D01*
X25066939Y-44663000D01*
X25266898Y-44623226D01*
X25455256Y-44545205D01*
X25624774Y-44431937D01*
X25768937Y-44287774D01*
X25882205Y-44118256D01*
X25960226Y-43929898D01*
X26000000Y-43729939D01*
X26000000Y-43526061D01*
X25960226Y-43326102D01*
X25901158Y-43183500D01*
X25960226Y-43040898D01*
X26000000Y-42840939D01*
X26000000Y-42637061D01*
X25960226Y-42437102D01*
X25882205Y-42248744D01*
X25768937Y-42079226D01*
X25624774Y-41935063D01*
X25455256Y-41821795D01*
X25266898Y-41743774D01*
X25066939Y-41704000D01*
X24863061Y-41704000D01*
X24663102Y-41743774D01*
X24474744Y-41821795D01*
X24305226Y-41935063D01*
X24161063Y-42079226D01*
X24047795Y-42248744D01*
X23969774Y-42437102D01*
X23930000Y-42637061D01*
X23708889Y-42637061D01*
X23685226Y-42518102D01*
X23607205Y-42329744D01*
X23493937Y-42160226D01*
X23349774Y-42016063D01*
X23180256Y-41902795D01*
X22991898Y-41824774D01*
X22791939Y-41785000D01*
X22588061Y-41785000D01*
X22388102Y-41824774D01*
X22199744Y-41902795D01*
X22030226Y-42016063D01*
X21886063Y-42160226D01*
X21772795Y-42329744D01*
X21737502Y-42414948D01*
X21688102Y-42424774D01*
X21499744Y-42502795D01*
X21330226Y-42616063D01*
X21186063Y-42760226D01*
X21072795Y-42929744D01*
X20994774Y-43118102D01*
X20955000Y-43318061D01*
X20955000Y-43521939D01*
X20994774Y-43721898D01*
X21072795Y-43910256D01*
X21138427Y-44008481D01*
X20980256Y-43902795D01*
X20895052Y-43867502D01*
X20885226Y-43818102D01*
X20807205Y-43629744D01*
X20693937Y-43460226D01*
X20549774Y-43316063D01*
X20380256Y-43202795D01*
X20251082Y-43149289D01*
X20280256Y-43137205D01*
X20449774Y-43023937D01*
X20593937Y-42879774D01*
X20610490Y-42855000D01*
X20691939Y-42855000D01*
X20891898Y-42815226D01*
X21080256Y-42737205D01*
X21249774Y-42623937D01*
X21393937Y-42479774D01*
X21507205Y-42310256D01*
X21585226Y-42121898D01*
X21625000Y-41921939D01*
X21625000Y-41719312D01*
X21710898Y-41702226D01*
X21853500Y-41643158D01*
X21996102Y-41702226D01*
X22196061Y-41742000D01*
X22399939Y-41742000D01*
X22599898Y-41702226D01*
X22742500Y-41643158D01*
X22885102Y-41702226D01*
X23085061Y-41742000D01*
X23288939Y-41742000D01*
X23488898Y-41702226D01*
X23677256Y-41624205D01*
X23846774Y-41510937D01*
X23990937Y-41366774D01*
X24104205Y-41197256D01*
X24182226Y-41008898D01*
X24222000Y-40808939D01*
X24222000Y-40605061D01*
X24182226Y-40405102D01*
X24178825Y-40396890D01*
X31440048Y-40396890D01*
X31440048Y-40643110D01*
X31488083Y-40884598D01*
X31582307Y-41112074D01*
X31719099Y-41316798D01*
X31893202Y-41490901D01*
X32097926Y-41627693D01*
X32325402Y-41721917D01*
X32566890Y-41769952D01*
X32813110Y-41769952D01*
X33054598Y-41721917D01*
X33282074Y-41627693D01*
X33486798Y-41490901D01*
X33660901Y-41316798D01*
X33797693Y-41112074D01*
X33891917Y-40884598D01*
X33939952Y-40643110D01*
X33939952Y-40396890D01*
X33891917Y-40155402D01*
X33797693Y-39927926D01*
X33660901Y-39723202D01*
X33486798Y-39549099D01*
X33282074Y-39412307D01*
X33054598Y-39318083D01*
X32813110Y-39270048D01*
X32566890Y-39270048D01*
X32325402Y-39318083D01*
X32097926Y-39412307D01*
X31893202Y-39549099D01*
X31719099Y-39723202D01*
X31582307Y-39927926D01*
X31488083Y-40155402D01*
X31440048Y-40396890D01*
X24178825Y-40396890D01*
X24104205Y-40216744D01*
X23990937Y-40047226D01*
X23846774Y-39903063D01*
X23677256Y-39789795D01*
X23488898Y-39711774D01*
X23288939Y-39672000D01*
X23085061Y-39672000D01*
X22885102Y-39711774D01*
X22742500Y-39770842D01*
X22599898Y-39711774D01*
X22399939Y-39672000D01*
X22196061Y-39672000D01*
X21996102Y-39711774D01*
X21853500Y-39770842D01*
X21710898Y-39711774D01*
X21510939Y-39672000D01*
X21307061Y-39672000D01*
X21107102Y-39711774D01*
X20918744Y-39789795D01*
X20749226Y-39903063D01*
X20605063Y-40047226D01*
X20491795Y-40216744D01*
X20439699Y-40342514D01*
X20380256Y-40302795D01*
X20191898Y-40224774D01*
X20142498Y-40214948D01*
X20107205Y-40129744D01*
X19993937Y-39960226D01*
X19849774Y-39816063D01*
X19680256Y-39702795D01*
X19491898Y-39624774D01*
X19291939Y-39585000D01*
X19177308Y-39585000D01*
X19093937Y-39460226D01*
X18949774Y-39316063D01*
X18780256Y-39202795D01*
X18591898Y-39124774D01*
X18391939Y-39085000D01*
X18188061Y-39085000D01*
X17988102Y-39124774D01*
X17799744Y-39202795D01*
X17630226Y-39316063D01*
X17486063Y-39460226D01*
X17372795Y-39629744D01*
X17294774Y-39818102D01*
X17255000Y-40018061D01*
X17255000Y-40221939D01*
X17294774Y-40421898D01*
X17372795Y-40610256D01*
X17486063Y-40779774D01*
X17630226Y-40923937D01*
X17799744Y-41037205D01*
X17988102Y-41115226D01*
X18188061Y-41155000D01*
X18302692Y-41155000D01*
X18386063Y-41279774D01*
X18530226Y-41423937D01*
X18699744Y-41537205D01*
X18888102Y-41615226D01*
X18937502Y-41625052D01*
X18939510Y-41629898D01*
X18872795Y-41729744D01*
X18794774Y-41918102D01*
X18755000Y-42118061D01*
X18755000Y-42321939D01*
X18794774Y-42521898D01*
X18872795Y-42710256D01*
X18986063Y-42879774D01*
X19130226Y-43023937D01*
X19299744Y-43137205D01*
X19428918Y-43190711D01*
X19399744Y-43202795D01*
X19257267Y-43297995D01*
X19191939Y-43285000D01*
X18988061Y-43285000D01*
X18788102Y-43324774D01*
X18599744Y-43402795D01*
X18430226Y-43516063D01*
X18286063Y-43660226D01*
X18269510Y-43685000D01*
X18132061Y-43685000D01*
X17932102Y-43724774D01*
X17743744Y-43802795D01*
X17574226Y-43916063D01*
X17430063Y-44060226D01*
X17316795Y-44229744D01*
X17238774Y-44418102D01*
X17199000Y-44618061D01*
X16439594Y-44618061D01*
X16435226Y-44596102D01*
X16357205Y-44407744D01*
X16243937Y-44238226D01*
X16108849Y-44103138D01*
X16125000Y-44021939D01*
X16125000Y-43818061D01*
X16096034Y-43672436D01*
X16099774Y-43669937D01*
X16243937Y-43525774D01*
X16357205Y-43356256D01*
X16435226Y-43167898D01*
X16475000Y-42967939D01*
X16475000Y-42764061D01*
X16435226Y-42564102D01*
X16357205Y-42375744D01*
X16243937Y-42206226D01*
X16099774Y-42062063D01*
X15930256Y-41948795D01*
X15919339Y-41944273D01*
X15949774Y-41923937D01*
X16093937Y-41779774D01*
X16207205Y-41610256D01*
X16285226Y-41421898D01*
X16325000Y-41221939D01*
X16325000Y-41018061D01*
X16285226Y-40818102D01*
X16207205Y-40629744D01*
X16133877Y-40520000D01*
X16207205Y-40410256D01*
X16285226Y-40221898D01*
X16325000Y-40021939D01*
X16325000Y-39818061D01*
X16285226Y-39618102D01*
X16207205Y-39429744D01*
X16093937Y-39260226D01*
X15949774Y-39116063D01*
X15780256Y-39002795D01*
X15591898Y-38924774D01*
X15391939Y-38885000D01*
X15188061Y-38885000D01*
X14988102Y-38924774D01*
X14799744Y-39002795D01*
X14630226Y-39116063D01*
X14486063Y-39260226D01*
X14372795Y-39429744D01*
X14294774Y-39618102D01*
X14255000Y-39818061D01*
X14255000Y-40021939D01*
X14294774Y-40221898D01*
X14372795Y-40410256D01*
X14446123Y-40520000D01*
X14372795Y-40629744D01*
X14294774Y-40818102D01*
X14255000Y-41018061D01*
X14255000Y-41221939D01*
X14294774Y-41421898D01*
X14372795Y-41610256D01*
X14486063Y-41779774D01*
X14630226Y-41923937D01*
X14799744Y-42037205D01*
X14810661Y-42041727D01*
X14780226Y-42062063D01*
X14636063Y-42206226D01*
X14522795Y-42375744D01*
X14444774Y-42564102D01*
X14405000Y-42764061D01*
X14405000Y-42967939D01*
X14433966Y-43113564D01*
X14430226Y-43116063D01*
X14286063Y-43260226D01*
X14172795Y-43429744D01*
X14094774Y-43618102D01*
X14055000Y-43818061D01*
X-18427427Y-43818061D01*
X-18644252Y-43294601D01*
X-19014698Y-42740188D01*
X-19486188Y-42268698D01*
X-20040601Y-41898252D01*
X-20656632Y-41643083D01*
X-21310607Y-41513000D01*
X-21977393Y-41513000D01*
X-22631368Y-41643083D01*
X-23247399Y-41898252D01*
X-23801812Y-42268698D01*
X-24273302Y-42740188D01*
X-24643748Y-43294601D01*
X-24667000Y-43350736D01*
X-24667000Y-40396890D01*
X-24559952Y-40396890D01*
X-24559952Y-40643110D01*
X-24511917Y-40884598D01*
X-24417693Y-41112074D01*
X-24280901Y-41316798D01*
X-24106798Y-41490901D01*
X-23902074Y-41627693D01*
X-23674598Y-41721917D01*
X-23433110Y-41769952D01*
X-23186890Y-41769952D01*
X-22945402Y-41721917D01*
X-22717926Y-41627693D01*
X-22513202Y-41490901D01*
X-22339099Y-41316798D01*
X-22202307Y-41112074D01*
X-22108083Y-40884598D01*
X-22060048Y-40643110D01*
X-22060048Y-40396890D01*
X-22108083Y-40155402D01*
X-22202307Y-39927926D01*
X-22339099Y-39723202D01*
X-22513202Y-39549099D01*
X-22717926Y-39412307D01*
X-22945402Y-39318083D01*
X-23186890Y-39270048D01*
X-23433110Y-39270048D01*
X-23674598Y-39318083D01*
X-23902074Y-39412307D01*
X-24106798Y-39549099D01*
X-24280901Y-39723202D01*
X-24417693Y-39927926D01*
X-24511917Y-40155402D01*
X-24559952Y-40396890D01*
X-24667000Y-40396890D01*
X-24667000Y-38827061D01*
X3991000Y-38827061D01*
X3991000Y-39030939D01*
X4030774Y-39230898D01*
X4108795Y-39419256D01*
X4222063Y-39588774D01*
X4366226Y-39732937D01*
X4535744Y-39846205D01*
X4724102Y-39924226D01*
X4924061Y-39964000D01*
X5127939Y-39964000D01*
X5327898Y-39924226D01*
X5516256Y-39846205D01*
X5685774Y-39732937D01*
X5829937Y-39588774D01*
X5943205Y-39419256D01*
X6021226Y-39230898D01*
X6061000Y-39030939D01*
X6061000Y-38827061D01*
X6021226Y-38627102D01*
X5943205Y-38438744D01*
X5829937Y-38269226D01*
X5685774Y-38125063D01*
X5516256Y-38011795D01*
X5327898Y-37933774D01*
X5127939Y-37894000D01*
X4924061Y-37894000D01*
X4724102Y-37933774D01*
X4535744Y-38011795D01*
X4366226Y-38125063D01*
X4222063Y-38269226D01*
X4108795Y-38438744D01*
X4030774Y-38627102D01*
X3991000Y-38827061D01*
X-24667000Y-38827061D01*
X-24667000Y-35906061D01*
X-15821000Y-35906061D01*
X-15821000Y-36109939D01*
X-15781226Y-36309898D01*
X-15722158Y-36452500D01*
X-15781226Y-36595102D01*
X-15821000Y-36795061D01*
X-15821000Y-36998939D01*
X-15781226Y-37198898D01*
X-15703205Y-37387256D01*
X-15589937Y-37556774D01*
X-15445774Y-37700937D01*
X-15276256Y-37814205D01*
X-15087898Y-37892226D01*
X-14887939Y-37932000D01*
X-14684061Y-37932000D01*
X-14484102Y-37892226D01*
X-14295744Y-37814205D01*
X-14126226Y-37700937D01*
X-13982063Y-37556774D01*
X-13868795Y-37387256D01*
X-13790774Y-37198898D01*
X-13751000Y-36998939D01*
X-13751000Y-36795061D01*
X-13790774Y-36595102D01*
X-13849842Y-36452500D01*
X-13790774Y-36309898D01*
X-13751000Y-36109939D01*
X-13751000Y-35906061D01*
X1070000Y-35906061D01*
X1070000Y-36109939D01*
X1109774Y-36309898D01*
X1168842Y-36452500D01*
X1109774Y-36595102D01*
X1070000Y-36795061D01*
X1070000Y-36998939D01*
X1109774Y-37198898D01*
X1187795Y-37387256D01*
X1301063Y-37556774D01*
X1445226Y-37700937D01*
X1614744Y-37814205D01*
X1803102Y-37892226D01*
X2003061Y-37932000D01*
X2206939Y-37932000D01*
X2406898Y-37892226D01*
X2595256Y-37814205D01*
X2764774Y-37700937D01*
X2908937Y-37556774D01*
X3022205Y-37387256D01*
X3100226Y-37198898D01*
X3140000Y-36998939D01*
X3140000Y-36795061D01*
X3100226Y-36595102D01*
X3041158Y-36452500D01*
X3100226Y-36309898D01*
X3130030Y-36160061D01*
X4880000Y-36160061D01*
X4880000Y-36363939D01*
X4919774Y-36563898D01*
X4997795Y-36752256D01*
X5111063Y-36921774D01*
X5255226Y-37065937D01*
X5424744Y-37179205D01*
X5613102Y-37257226D01*
X5813061Y-37297000D01*
X6016939Y-37297000D01*
X6216898Y-37257226D01*
X6405256Y-37179205D01*
X6574774Y-37065937D01*
X6718937Y-36921774D01*
X6832205Y-36752256D01*
X6910226Y-36563898D01*
X6950000Y-36363939D01*
X6950000Y-36160061D01*
X6910226Y-35960102D01*
X6832205Y-35771744D01*
X6814188Y-35744780D01*
X6956061Y-35773000D01*
X7159939Y-35773000D01*
X7359898Y-35733226D01*
X7548256Y-35655205D01*
X7552961Y-35652061D01*
X23295000Y-35652061D01*
X23295000Y-35855939D01*
X23334774Y-36055898D01*
X23412795Y-36244256D01*
X23526063Y-36413774D01*
X23670226Y-36557937D01*
X23839744Y-36671205D01*
X24028102Y-36749226D01*
X24228061Y-36789000D01*
X24431939Y-36789000D01*
X24631898Y-36749226D01*
X24820256Y-36671205D01*
X24989774Y-36557937D01*
X25133937Y-36413774D01*
X25247205Y-36244256D01*
X25325226Y-36055898D01*
X25365000Y-35855939D01*
X25365000Y-35652061D01*
X25325226Y-35452102D01*
X25247205Y-35263744D01*
X25133937Y-35094226D01*
X24989774Y-34950063D01*
X24820256Y-34836795D01*
X24631898Y-34758774D01*
X24431939Y-34719000D01*
X24228061Y-34719000D01*
X24028102Y-34758774D01*
X23839744Y-34836795D01*
X23670226Y-34950063D01*
X23526063Y-35094226D01*
X23412795Y-35263744D01*
X23334774Y-35452102D01*
X23295000Y-35652061D01*
X7552961Y-35652061D01*
X7717774Y-35541937D01*
X7861937Y-35397774D01*
X7975205Y-35228256D01*
X8053226Y-35039898D01*
X8081394Y-34898289D01*
X8091744Y-34905205D01*
X8280102Y-34983226D01*
X8480061Y-35023000D01*
X8683939Y-35023000D01*
X8883898Y-34983226D01*
X9072256Y-34905205D01*
X9241774Y-34791937D01*
X9385937Y-34647774D01*
X9499205Y-34478256D01*
X9577226Y-34289898D01*
X9599654Y-34177146D01*
X9677102Y-34209226D01*
X9877061Y-34249000D01*
X10080939Y-34249000D01*
X10280898Y-34209226D01*
X10469256Y-34131205D01*
X10491887Y-34116083D01*
X10538102Y-34135226D01*
X10738061Y-34175000D01*
X10941939Y-34175000D01*
X11141898Y-34135226D01*
X11330256Y-34057205D01*
X11499774Y-33943937D01*
X11643937Y-33799774D01*
X11757205Y-33630256D01*
X11814033Y-33493061D01*
X25454000Y-33493061D01*
X25454000Y-33696939D01*
X25493774Y-33896898D01*
X25571795Y-34085256D01*
X25685063Y-34254774D01*
X25829226Y-34398937D01*
X25998744Y-34512205D01*
X26187102Y-34590226D01*
X26387061Y-34630000D01*
X26590939Y-34630000D01*
X26790898Y-34590226D01*
X26979256Y-34512205D01*
X27148774Y-34398937D01*
X27292937Y-34254774D01*
X27406205Y-34085256D01*
X27484226Y-33896898D01*
X27524000Y-33696939D01*
X27524000Y-33493061D01*
X27484226Y-33293102D01*
X27406205Y-33104744D01*
X27292937Y-32935226D01*
X27148774Y-32791063D01*
X26979256Y-32677795D01*
X26790898Y-32599774D01*
X26590939Y-32560000D01*
X26387061Y-32560000D01*
X26187102Y-32599774D01*
X25998744Y-32677795D01*
X25829226Y-32791063D01*
X25685063Y-32935226D01*
X25571795Y-33104744D01*
X25493774Y-33293102D01*
X25454000Y-33493061D01*
X11814033Y-33493061D01*
X11835226Y-33441898D01*
X11875000Y-33241939D01*
X11875000Y-33038061D01*
X11835226Y-32838102D01*
X11757205Y-32649744D01*
X11643937Y-32480226D01*
X11499774Y-32336063D01*
X11330256Y-32222795D01*
X11141898Y-32144774D01*
X10941939Y-32105000D01*
X10738061Y-32105000D01*
X10538102Y-32144774D01*
X10349744Y-32222795D01*
X10327113Y-32237917D01*
X10280898Y-32218774D01*
X10080939Y-32179000D01*
X9877061Y-32179000D01*
X9677102Y-32218774D01*
X9488744Y-32296795D01*
X9319226Y-32410063D01*
X9175063Y-32554226D01*
X9061795Y-32723744D01*
X8983774Y-32912102D01*
X8961346Y-33024854D01*
X8883898Y-32992774D01*
X8683939Y-32953000D01*
X8480061Y-32953000D01*
X8280102Y-32992774D01*
X8091744Y-33070795D01*
X7922226Y-33184063D01*
X7778063Y-33328226D01*
X7664795Y-33497744D01*
X7586774Y-33686102D01*
X7558606Y-33827711D01*
X7548256Y-33820795D01*
X7359898Y-33742774D01*
X7159939Y-33703000D01*
X6956061Y-33703000D01*
X6756102Y-33742774D01*
X6567744Y-33820795D01*
X6398226Y-33934063D01*
X6254063Y-34078226D01*
X6140795Y-34247744D01*
X6062774Y-34436102D01*
X6023000Y-34636061D01*
X6023000Y-34839939D01*
X6062774Y-35039898D01*
X6140795Y-35228256D01*
X6158812Y-35255220D01*
X6016939Y-35227000D01*
X5813061Y-35227000D01*
X5613102Y-35266774D01*
X5424744Y-35344795D01*
X5255226Y-35458063D01*
X5111063Y-35602226D01*
X4997795Y-35771744D01*
X4919774Y-35960102D01*
X4880000Y-36160061D01*
X3130030Y-36160061D01*
X3140000Y-36109939D01*
X3140000Y-35906061D01*
X3100226Y-35706102D01*
X3022205Y-35517744D01*
X2908937Y-35348226D01*
X2764774Y-35204063D01*
X2595256Y-35090795D01*
X2406898Y-35012774D01*
X2206939Y-34973000D01*
X2003061Y-34973000D01*
X1803102Y-35012774D01*
X1614744Y-35090795D01*
X1445226Y-35204063D01*
X1301063Y-35348226D01*
X1187795Y-35517744D01*
X1109774Y-35706102D01*
X1070000Y-35906061D01*
X-13751000Y-35906061D01*
X-13790774Y-35706102D01*
X-13868795Y-35517744D01*
X-13982063Y-35348226D01*
X-14126226Y-35204063D01*
X-14295744Y-35090795D01*
X-14484102Y-35012774D01*
X-14684061Y-34973000D01*
X-14887939Y-34973000D01*
X-15087898Y-35012774D01*
X-15276256Y-35090795D01*
X-15445774Y-35204063D01*
X-15589937Y-35348226D01*
X-15703205Y-35517744D01*
X-15781226Y-35706102D01*
X-15821000Y-35906061D01*
X-24667000Y-35906061D01*
X-24667000Y-32918061D01*
X-11145000Y-32918061D01*
X-11145000Y-33121939D01*
X-11105226Y-33321898D01*
X-11027205Y-33510256D01*
X-10913937Y-33679774D01*
X-10769774Y-33823937D01*
X-10600256Y-33937205D01*
X-10411898Y-34015226D01*
X-10211939Y-34055000D01*
X-10060467Y-34055000D01*
X-10035226Y-34181898D01*
X-9957205Y-34370256D01*
X-9843937Y-34539774D01*
X-9699774Y-34683937D01*
X-9530256Y-34797205D01*
X-9341898Y-34875226D01*
X-9141939Y-34915000D01*
X-8938061Y-34915000D01*
X-8738102Y-34875226D01*
X-8549744Y-34797205D01*
X-8380226Y-34683937D01*
X-8236063Y-34539774D01*
X-8122795Y-34370256D01*
X-8044774Y-34181898D01*
X-8005000Y-33981939D01*
X-8005000Y-33778061D01*
X-8044774Y-33578102D01*
X-8122795Y-33389744D01*
X-8236063Y-33220226D01*
X-8380226Y-33076063D01*
X-8549744Y-32962795D01*
X-8626764Y-32930892D01*
X-6985169Y-32930892D01*
X-6985169Y-33134770D01*
X-6945395Y-33334729D01*
X-6867374Y-33523087D01*
X-6754106Y-33692605D01*
X-6609943Y-33836768D01*
X-6440425Y-33950036D01*
X-6252067Y-34028057D01*
X-6052108Y-34067831D01*
X-5848230Y-34067831D01*
X-5648271Y-34028057D01*
X-5459913Y-33950036D01*
X-5290395Y-33836768D01*
X-5146232Y-33692605D01*
X-5032964Y-33523087D01*
X-4954943Y-33334729D01*
X-4924995Y-33184169D01*
X3664892Y-33184169D01*
X3664892Y-33388047D01*
X3704666Y-33588006D01*
X3782687Y-33776364D01*
X3895955Y-33945882D01*
X4040118Y-34090045D01*
X4209636Y-34203313D01*
X4397994Y-34281334D01*
X4597953Y-34321108D01*
X4801831Y-34321108D01*
X5001790Y-34281334D01*
X5190148Y-34203313D01*
X5359666Y-34090045D01*
X5503829Y-33945882D01*
X5617097Y-33776364D01*
X5695118Y-33588006D01*
X5697404Y-33576512D01*
X5708898Y-33574226D01*
X5897256Y-33496205D01*
X6066774Y-33382937D01*
X6210937Y-33238774D01*
X6324205Y-33069256D01*
X6402226Y-32880898D01*
X6442000Y-32680939D01*
X6442000Y-32477061D01*
X6402226Y-32277102D01*
X6324205Y-32088744D01*
X6210937Y-31919226D01*
X6066774Y-31775063D01*
X5897256Y-31661795D01*
X5708898Y-31583774D01*
X5508939Y-31544000D01*
X5305061Y-31544000D01*
X5105102Y-31583774D01*
X4916744Y-31661795D01*
X4747226Y-31775063D01*
X4603063Y-31919226D01*
X4489795Y-32088744D01*
X4411774Y-32277102D01*
X4409488Y-32288596D01*
X4397994Y-32290882D01*
X4209636Y-32368903D01*
X4040118Y-32482171D01*
X3895955Y-32626334D01*
X3782687Y-32795852D01*
X3704666Y-32984210D01*
X3664892Y-33184169D01*
X-4924995Y-33184169D01*
X-4915169Y-33134770D01*
X-4915169Y-32930892D01*
X-4954943Y-32730933D01*
X-5032964Y-32542575D01*
X-5146232Y-32373057D01*
X-5290395Y-32228894D01*
X-5459913Y-32115626D01*
X-5648271Y-32037605D01*
X-5848230Y-31997831D01*
X-6052108Y-31997831D01*
X-6252067Y-32037605D01*
X-6440425Y-32115626D01*
X-6609943Y-32228894D01*
X-6754106Y-32373057D01*
X-6867374Y-32542575D01*
X-6945395Y-32730933D01*
X-6985169Y-32930892D01*
X-8626764Y-32930892D01*
X-8738102Y-32884774D01*
X-8938061Y-32845000D01*
X-9089533Y-32845000D01*
X-9114774Y-32718102D01*
X-9192795Y-32529744D01*
X-9306063Y-32360226D01*
X-9450226Y-32216063D01*
X-9619744Y-32102795D01*
X-9808102Y-32024774D01*
X-10008061Y-31985000D01*
X-10211939Y-31985000D01*
X-10411898Y-32024774D01*
X-10600256Y-32102795D01*
X-10769774Y-32216063D01*
X-10913937Y-32360226D01*
X-11027205Y-32529744D01*
X-11105226Y-32718102D01*
X-11145000Y-32918061D01*
X-24667000Y-32918061D01*
X-24667000Y-31334061D01*
X17326000Y-31334061D01*
X17326000Y-31537939D01*
X17365774Y-31737898D01*
X17443795Y-31926256D01*
X17557063Y-32095774D01*
X17701226Y-32239937D01*
X17870744Y-32353205D01*
X18059102Y-32431226D01*
X18259061Y-32471000D01*
X18462939Y-32471000D01*
X18662898Y-32431226D01*
X18851256Y-32353205D01*
X19020774Y-32239937D01*
X19164937Y-32095774D01*
X19278205Y-31926256D01*
X19356226Y-31737898D01*
X19396000Y-31537939D01*
X19396000Y-31334061D01*
X19356226Y-31134102D01*
X19278205Y-30945744D01*
X19164937Y-30776226D01*
X19020774Y-30632063D01*
X18851256Y-30518795D01*
X18662898Y-30440774D01*
X18462939Y-30401000D01*
X18259061Y-30401000D01*
X18059102Y-30440774D01*
X17870744Y-30518795D01*
X17701226Y-30632063D01*
X17557063Y-30776226D01*
X17443795Y-30945744D01*
X17365774Y-31134102D01*
X17326000Y-31334061D01*
X-24667000Y-31334061D01*
X-24667000Y-28286061D01*
X-4010000Y-28286061D01*
X-4010000Y-28489939D01*
X-3970226Y-28689898D01*
X-3892205Y-28878256D01*
X-3778937Y-29047774D01*
X-3634774Y-29191937D01*
X-3465256Y-29305205D01*
X-3276898Y-29383226D01*
X-3076939Y-29423000D01*
X-2873061Y-29423000D01*
X-2848231Y-29418061D01*
X8755000Y-29418061D01*
X8755000Y-29621939D01*
X8794774Y-29821898D01*
X8872795Y-30010256D01*
X8986063Y-30179774D01*
X9130226Y-30323937D01*
X9299744Y-30437205D01*
X9488102Y-30515226D01*
X9688061Y-30555000D01*
X9891939Y-30555000D01*
X10091898Y-30515226D01*
X10280256Y-30437205D01*
X10449774Y-30323937D01*
X10593937Y-30179774D01*
X10707205Y-30010256D01*
X10785226Y-29821898D01*
X10825000Y-29621939D01*
X10825000Y-29418061D01*
X10785226Y-29218102D01*
X10714793Y-29048061D01*
X16183000Y-29048061D01*
X16183000Y-29251939D01*
X16222774Y-29451898D01*
X16300795Y-29640256D01*
X16414063Y-29809774D01*
X16558226Y-29953937D01*
X16727744Y-30067205D01*
X16916102Y-30145226D01*
X17116061Y-30185000D01*
X17319939Y-30185000D01*
X17519898Y-30145226D01*
X17708256Y-30067205D01*
X17877774Y-29953937D01*
X18021937Y-29809774D01*
X18135205Y-29640256D01*
X18213226Y-29451898D01*
X18253000Y-29251939D01*
X18253000Y-29048061D01*
X18213226Y-28848102D01*
X18138236Y-28667061D01*
X18850000Y-28667061D01*
X18850000Y-28870939D01*
X18889774Y-29070898D01*
X18967795Y-29259256D01*
X19081063Y-29428774D01*
X19225226Y-29572937D01*
X19394744Y-29686205D01*
X19583102Y-29764226D01*
X19783061Y-29804000D01*
X19986939Y-29804000D01*
X20186898Y-29764226D01*
X20375256Y-29686205D01*
X20544774Y-29572937D01*
X20688937Y-29428774D01*
X20802205Y-29259256D01*
X20880226Y-29070898D01*
X20920000Y-28870939D01*
X20920000Y-28667061D01*
X20880226Y-28467102D01*
X20802205Y-28278744D01*
X20688937Y-28109226D01*
X20544774Y-27965063D01*
X20375256Y-27851795D01*
X20186898Y-27773774D01*
X19986939Y-27734000D01*
X19783061Y-27734000D01*
X19583102Y-27773774D01*
X19394744Y-27851795D01*
X19225226Y-27965063D01*
X19081063Y-28109226D01*
X18967795Y-28278744D01*
X18889774Y-28467102D01*
X18850000Y-28667061D01*
X18138236Y-28667061D01*
X18135205Y-28659744D01*
X18021937Y-28490226D01*
X17877774Y-28346063D01*
X17708256Y-28232795D01*
X17519898Y-28154774D01*
X17319939Y-28115000D01*
X17116061Y-28115000D01*
X16916102Y-28154774D01*
X16727744Y-28232795D01*
X16558226Y-28346063D01*
X16414063Y-28490226D01*
X16300795Y-28659744D01*
X16222774Y-28848102D01*
X16183000Y-29048061D01*
X10714793Y-29048061D01*
X10707205Y-29029744D01*
X10593937Y-28860226D01*
X10449774Y-28716063D01*
X10280256Y-28602795D01*
X10091898Y-28524774D01*
X9891939Y-28485000D01*
X9688061Y-28485000D01*
X9488102Y-28524774D01*
X9299744Y-28602795D01*
X9130226Y-28716063D01*
X8986063Y-28860226D01*
X8872795Y-29029744D01*
X8794774Y-29218102D01*
X8755000Y-29418061D01*
X-2848231Y-29418061D01*
X-2673102Y-29383226D01*
X-2484744Y-29305205D01*
X-2315226Y-29191937D01*
X-2171063Y-29047774D01*
X-2057795Y-28878256D01*
X-1979774Y-28689898D01*
X-1940000Y-28489939D01*
X-1940000Y-28391654D01*
X-1807226Y-28302937D01*
X-1663063Y-28158774D01*
X-1549795Y-27989256D01*
X-1471774Y-27800898D01*
X-1451552Y-27699232D01*
X-1371898Y-27732226D01*
X-1171939Y-27772000D01*
X-968061Y-27772000D01*
X-768102Y-27732226D01*
X-692668Y-27700980D01*
X-708000Y-27778061D01*
X-708000Y-27981939D01*
X-668226Y-28181898D01*
X-590205Y-28370256D01*
X-476937Y-28539774D01*
X-332774Y-28683937D01*
X-163256Y-28797205D01*
X25102Y-28875226D01*
X225061Y-28915000D01*
X428939Y-28915000D01*
X628898Y-28875226D01*
X817256Y-28797205D01*
X986774Y-28683937D01*
X1130937Y-28539774D01*
X1244205Y-28370256D01*
X1322226Y-28181898D01*
X1362000Y-27981939D01*
X1362000Y-27778061D01*
X1322226Y-27578102D01*
X1244205Y-27389744D01*
X1196309Y-27318061D01*
X7255000Y-27318061D01*
X7255000Y-27521939D01*
X7294774Y-27721898D01*
X7372795Y-27910256D01*
X7486063Y-28079774D01*
X7630226Y-28223937D01*
X7799744Y-28337205D01*
X7988102Y-28415226D01*
X8188061Y-28455000D01*
X8391939Y-28455000D01*
X8591898Y-28415226D01*
X8780256Y-28337205D01*
X8949774Y-28223937D01*
X9093937Y-28079774D01*
X9207205Y-27910256D01*
X9285226Y-27721898D01*
X9325000Y-27521939D01*
X9325000Y-27318061D01*
X9285226Y-27118102D01*
X9207205Y-26929744D01*
X9093937Y-26760226D01*
X9051772Y-26718061D01*
X13770000Y-26718061D01*
X13770000Y-26921939D01*
X13809774Y-27121898D01*
X13887795Y-27310256D01*
X14001063Y-27479774D01*
X14145226Y-27623937D01*
X14314744Y-27737205D01*
X14503102Y-27815226D01*
X14703061Y-27855000D01*
X14906939Y-27855000D01*
X15106898Y-27815226D01*
X15295256Y-27737205D01*
X15464774Y-27623937D01*
X15608937Y-27479774D01*
X15722205Y-27310256D01*
X15800226Y-27121898D01*
X15822484Y-27010000D01*
X15922939Y-27010000D01*
X16122898Y-26970226D01*
X16311256Y-26892205D01*
X16480774Y-26778937D01*
X16624937Y-26634774D01*
X16738205Y-26465256D01*
X16816226Y-26276898D01*
X16856000Y-26076939D01*
X16856000Y-25873061D01*
X16816226Y-25673102D01*
X16738205Y-25484744D01*
X16624937Y-25315226D01*
X16480774Y-25171063D01*
X16390975Y-25111061D01*
X19755000Y-25111061D01*
X19755000Y-25314939D01*
X19794774Y-25514898D01*
X19872795Y-25703256D01*
X19986063Y-25872774D01*
X20130226Y-26016937D01*
X20299744Y-26130205D01*
X20488102Y-26208226D01*
X20688061Y-26248000D01*
X20891939Y-26248000D01*
X21091898Y-26208226D01*
X21280256Y-26130205D01*
X21449774Y-26016937D01*
X21593937Y-25872774D01*
X21707205Y-25703256D01*
X21785226Y-25514898D01*
X21825000Y-25314939D01*
X21825000Y-25238061D01*
X27740000Y-25238061D01*
X27740000Y-25441939D01*
X27779774Y-25641898D01*
X27857795Y-25830256D01*
X27971063Y-25999774D01*
X28115226Y-26143937D01*
X28284744Y-26257205D01*
X28473102Y-26335226D01*
X28673061Y-26375000D01*
X28876939Y-26375000D01*
X29076898Y-26335226D01*
X29265256Y-26257205D01*
X29434774Y-26143937D01*
X29578937Y-25999774D01*
X29692205Y-25830256D01*
X29770226Y-25641898D01*
X29810000Y-25441939D01*
X29810000Y-25238061D01*
X29770226Y-25038102D01*
X29692205Y-24849744D01*
X29578937Y-24680226D01*
X29434774Y-24536063D01*
X29265256Y-24422795D01*
X29076898Y-24344774D01*
X28876939Y-24305000D01*
X28673061Y-24305000D01*
X28473102Y-24344774D01*
X28284744Y-24422795D01*
X28115226Y-24536063D01*
X27971063Y-24680226D01*
X27857795Y-24849744D01*
X27779774Y-25038102D01*
X27740000Y-25238061D01*
X21825000Y-25238061D01*
X21825000Y-25111061D01*
X21785226Y-24911102D01*
X21707205Y-24722744D01*
X21593937Y-24553226D01*
X21449774Y-24409063D01*
X21280256Y-24295795D01*
X21091898Y-24217774D01*
X20891939Y-24178000D01*
X20688061Y-24178000D01*
X20488102Y-24217774D01*
X20299744Y-24295795D01*
X20130226Y-24409063D01*
X19986063Y-24553226D01*
X19872795Y-24722744D01*
X19794774Y-24911102D01*
X19755000Y-25111061D01*
X16390975Y-25111061D01*
X16311256Y-25057795D01*
X16122898Y-24979774D01*
X15922939Y-24940000D01*
X15719061Y-24940000D01*
X15519102Y-24979774D01*
X15330744Y-25057795D01*
X15161226Y-25171063D01*
X15017063Y-25315226D01*
X14903795Y-25484744D01*
X14825774Y-25673102D01*
X14803516Y-25785000D01*
X14703061Y-25785000D01*
X14503102Y-25824774D01*
X14314744Y-25902795D01*
X14145226Y-26016063D01*
X14001063Y-26160226D01*
X13887795Y-26329744D01*
X13809774Y-26518102D01*
X13770000Y-26718061D01*
X9051772Y-26718061D01*
X8949774Y-26616063D01*
X8780256Y-26502795D01*
X8591898Y-26424774D01*
X8391939Y-26385000D01*
X8188061Y-26385000D01*
X7988102Y-26424774D01*
X7799744Y-26502795D01*
X7630226Y-26616063D01*
X7486063Y-26760226D01*
X7372795Y-26929744D01*
X7294774Y-27118102D01*
X7255000Y-27318061D01*
X1196309Y-27318061D01*
X1130937Y-27220226D01*
X986774Y-27076063D01*
X817256Y-26962795D01*
X628898Y-26884774D01*
X428939Y-26845000D01*
X225061Y-26845000D01*
X25102Y-26884774D01*
X-50332Y-26916020D01*
X-35000Y-26838939D01*
X-35000Y-26635061D01*
X-74774Y-26435102D01*
X-152795Y-26246744D01*
X-266063Y-26077226D01*
X-410226Y-25933063D01*
X-579744Y-25819795D01*
X-768102Y-25741774D01*
X-968061Y-25702000D01*
X-1171939Y-25702000D01*
X-1371898Y-25741774D01*
X-1560256Y-25819795D01*
X-1729774Y-25933063D01*
X-1873937Y-26077226D01*
X-1987205Y-26246744D01*
X-2065226Y-26435102D01*
X-2085448Y-26536768D01*
X-2165102Y-26503774D01*
X-2365061Y-26464000D01*
X-2568939Y-26464000D01*
X-2768898Y-26503774D01*
X-2957256Y-26581795D01*
X-3126774Y-26695063D01*
X-3270937Y-26839226D01*
X-3384205Y-27008744D01*
X-3462226Y-27197102D01*
X-3502000Y-27397061D01*
X-3502000Y-27495346D01*
X-3634774Y-27584063D01*
X-3778937Y-27728226D01*
X-3892205Y-27897744D01*
X-3970226Y-28086102D01*
X-4010000Y-28286061D01*
X-24667000Y-28286061D01*
X-24667000Y-26685195D01*
X-24547256Y-26765205D01*
X-24358898Y-26843226D01*
X-24158939Y-26883000D01*
X-23955061Y-26883000D01*
X-23755102Y-26843226D01*
X-23566744Y-26765205D01*
X-23397226Y-26651937D01*
X-23253063Y-26507774D01*
X-23139795Y-26338256D01*
X-23061774Y-26149898D01*
X-23022000Y-25949939D01*
X-23022000Y-25746061D01*
X-22933000Y-25746061D01*
X-22933000Y-25949939D01*
X-22893226Y-26149898D01*
X-22815205Y-26338256D01*
X-22701937Y-26507774D01*
X-22557774Y-26651937D01*
X-22388256Y-26765205D01*
X-22199898Y-26843226D01*
X-21999939Y-26883000D01*
X-21796061Y-26883000D01*
X-21596102Y-26843226D01*
X-21407744Y-26765205D01*
X-21263000Y-26668490D01*
X-21118256Y-26765205D01*
X-20929898Y-26843226D01*
X-20729939Y-26883000D01*
X-20526061Y-26883000D01*
X-20326102Y-26843226D01*
X-20137744Y-26765205D01*
X-19968226Y-26651937D01*
X-19824063Y-26507774D01*
X-19710795Y-26338256D01*
X-19632774Y-26149898D01*
X-19593000Y-25949939D01*
X-19593000Y-25746061D01*
X-15440000Y-25746061D01*
X-15440000Y-25949939D01*
X-15400226Y-26149898D01*
X-15322205Y-26338256D01*
X-15208937Y-26507774D01*
X-15064774Y-26651937D01*
X-14895256Y-26765205D01*
X-14706898Y-26843226D01*
X-14506939Y-26883000D01*
X-14303061Y-26883000D01*
X-14103102Y-26843226D01*
X-13914744Y-26765205D01*
X-13745226Y-26651937D01*
X-13601063Y-26507774D01*
X-13487795Y-26338256D01*
X-13409774Y-26149898D01*
X-13370000Y-25949939D01*
X-13370000Y-25746061D01*
X-13409774Y-25546102D01*
X-13487795Y-25357744D01*
X-13601063Y-25188226D01*
X-13678228Y-25111061D01*
X-9598000Y-25111061D01*
X-9598000Y-25314939D01*
X-9558226Y-25514898D01*
X-9480205Y-25703256D01*
X-9366937Y-25872774D01*
X-9222774Y-26016937D01*
X-9053256Y-26130205D01*
X-8864898Y-26208226D01*
X-8664939Y-26248000D01*
X-8461061Y-26248000D01*
X-8261102Y-26208226D01*
X-8072744Y-26130205D01*
X-7903226Y-26016937D01*
X-7759063Y-25872774D01*
X-7645795Y-25703256D01*
X-7567774Y-25514898D01*
X-7528000Y-25314939D01*
X-7528000Y-25111061D01*
X-7567774Y-24911102D01*
X-7645795Y-24722744D01*
X-7759063Y-24553226D01*
X-7903226Y-24409063D01*
X-7993025Y-24349061D01*
X-5534000Y-24349061D01*
X-5534000Y-24552939D01*
X-5494226Y-24752898D01*
X-5416205Y-24941256D01*
X-5302937Y-25110774D01*
X-5158774Y-25254937D01*
X-4989256Y-25368205D01*
X-4800898Y-25446226D01*
X-4600939Y-25486000D01*
X-4397061Y-25486000D01*
X-4197102Y-25446226D01*
X-4008744Y-25368205D01*
X-3839226Y-25254937D01*
X-3695063Y-25110774D01*
X-3581795Y-24941256D01*
X-3503774Y-24752898D01*
X-3501619Y-24742061D01*
X4553892Y-24742061D01*
X4553892Y-24945939D01*
X4593666Y-25145898D01*
X4671687Y-25334256D01*
X4784955Y-25503774D01*
X4929118Y-25647937D01*
X5098636Y-25761205D01*
X5286994Y-25839226D01*
X5289605Y-25839745D01*
X5300774Y-25895898D01*
X5378795Y-26084256D01*
X5492063Y-26253774D01*
X5636226Y-26397937D01*
X5805744Y-26511205D01*
X5994102Y-26589226D01*
X6194061Y-26629000D01*
X6397939Y-26629000D01*
X6597898Y-26589226D01*
X6786256Y-26511205D01*
X6955774Y-26397937D01*
X7099937Y-26253774D01*
X7213205Y-26084256D01*
X7291226Y-25895898D01*
X7331000Y-25695939D01*
X7331000Y-25492061D01*
X7316281Y-25418061D01*
X9055000Y-25418061D01*
X9055000Y-25621939D01*
X9094774Y-25821898D01*
X9172795Y-26010256D01*
X9286063Y-26179774D01*
X9430226Y-26323937D01*
X9599744Y-26437205D01*
X9788102Y-26515226D01*
X9988061Y-26555000D01*
X10191939Y-26555000D01*
X10391898Y-26515226D01*
X10580256Y-26437205D01*
X10749774Y-26323937D01*
X10893937Y-26179774D01*
X11007205Y-26010256D01*
X11085226Y-25821898D01*
X11125000Y-25621939D01*
X11125000Y-25418061D01*
X11085226Y-25218102D01*
X11007205Y-25029744D01*
X10893937Y-24860226D01*
X10749774Y-24716063D01*
X10580256Y-24602795D01*
X10391898Y-24524774D01*
X10191939Y-24485000D01*
X9988061Y-24485000D01*
X9788102Y-24524774D01*
X9599744Y-24602795D01*
X9430226Y-24716063D01*
X9286063Y-24860226D01*
X9172795Y-25029744D01*
X9094774Y-25218102D01*
X9055000Y-25418061D01*
X7316281Y-25418061D01*
X7291226Y-25292102D01*
X7213205Y-25103744D01*
X7099937Y-24934226D01*
X6955774Y-24790063D01*
X6925988Y-24770161D01*
X6992571Y-24703578D01*
X7105839Y-24534060D01*
X7183860Y-24345702D01*
X7223634Y-24145743D01*
X7223634Y-23941865D01*
X7183860Y-23741906D01*
X7105839Y-23553548D01*
X6992571Y-23384030D01*
X6848408Y-23239867D01*
X6678890Y-23126599D01*
X6490532Y-23048578D01*
X6290573Y-23008804D01*
X6086695Y-23008804D01*
X5886736Y-23048578D01*
X5698378Y-23126599D01*
X5528860Y-23239867D01*
X5384697Y-23384030D01*
X5271429Y-23553548D01*
X5193408Y-23741906D01*
X5161839Y-23900615D01*
X5098636Y-23926795D01*
X4929118Y-24040063D01*
X4784955Y-24184226D01*
X4671687Y-24353744D01*
X4593666Y-24542102D01*
X4553892Y-24742061D01*
X-3501619Y-24742061D01*
X-3464000Y-24552939D01*
X-3464000Y-24349061D01*
X-3503774Y-24149102D01*
X-3581795Y-23960744D01*
X-3695063Y-23791226D01*
X-3839226Y-23647063D01*
X-4008744Y-23533795D01*
X-4197102Y-23455774D01*
X-4397061Y-23416000D01*
X-4600939Y-23416000D01*
X-4800898Y-23455774D01*
X-4989256Y-23533795D01*
X-5158774Y-23647063D01*
X-5302937Y-23791226D01*
X-5416205Y-23960744D01*
X-5494226Y-24149102D01*
X-5534000Y-24349061D01*
X-7993025Y-24349061D01*
X-8072744Y-24295795D01*
X-8261102Y-24217774D01*
X-8461061Y-24178000D01*
X-8664939Y-24178000D01*
X-8864898Y-24217774D01*
X-9053256Y-24295795D01*
X-9222774Y-24409063D01*
X-9366937Y-24553226D01*
X-9480205Y-24722744D01*
X-9558226Y-24911102D01*
X-9598000Y-25111061D01*
X-13678228Y-25111061D01*
X-13745226Y-25044063D01*
X-13914744Y-24930795D01*
X-14103102Y-24852774D01*
X-14303061Y-24813000D01*
X-14506939Y-24813000D01*
X-14706898Y-24852774D01*
X-14895256Y-24930795D01*
X-15064774Y-25044063D01*
X-15208937Y-25188226D01*
X-15322205Y-25357744D01*
X-15400226Y-25546102D01*
X-15440000Y-25746061D01*
X-19593000Y-25746061D01*
X-19632774Y-25546102D01*
X-19710795Y-25357744D01*
X-19824063Y-25188226D01*
X-19968226Y-25044063D01*
X-20137744Y-24930795D01*
X-20326102Y-24852774D01*
X-20526061Y-24813000D01*
X-20729939Y-24813000D01*
X-20929898Y-24852774D01*
X-21118256Y-24930795D01*
X-21263000Y-25027510D01*
X-21407744Y-24930795D01*
X-21596102Y-24852774D01*
X-21796061Y-24813000D01*
X-21999939Y-24813000D01*
X-22199898Y-24852774D01*
X-22388256Y-24930795D01*
X-22557774Y-25044063D01*
X-22701937Y-25188226D01*
X-22815205Y-25357744D01*
X-22893226Y-25546102D01*
X-22933000Y-25746061D01*
X-23022000Y-25746061D01*
X-23061774Y-25546102D01*
X-23139795Y-25357744D01*
X-23253063Y-25188226D01*
X-23397226Y-25044063D01*
X-23566744Y-24930795D01*
X-23755102Y-24852774D01*
X-23955061Y-24813000D01*
X-24158939Y-24813000D01*
X-24358898Y-24852774D01*
X-24547256Y-24930795D01*
X-24667000Y-25010805D01*
X-24667000Y-22980458D01*
X320126Y-22980458D01*
X320126Y-23184336D01*
X359900Y-23384295D01*
X437921Y-23572653D01*
X551189Y-23742171D01*
X695352Y-23886334D01*
X864870Y-23999602D01*
X1053228Y-24077623D01*
X1253187Y-24117397D01*
X1457065Y-24117397D01*
X1657024Y-24077623D01*
X1845382Y-23999602D01*
X2014900Y-23886334D01*
X2159063Y-23742171D01*
X2191016Y-23694350D01*
X2363175Y-23694350D01*
X2563134Y-23654576D01*
X2751492Y-23576555D01*
X2921010Y-23463287D01*
X2955821Y-23428476D01*
X2979359Y-23438226D01*
X3179318Y-23478000D01*
X3383196Y-23478000D01*
X3583155Y-23438226D01*
X3771513Y-23360205D01*
X3941031Y-23246937D01*
X4085194Y-23102774D01*
X4198462Y-22933256D01*
X4276483Y-22744898D01*
X4316257Y-22544939D01*
X4316257Y-22341061D01*
X4276483Y-22141102D01*
X4198462Y-21952744D01*
X4085194Y-21783226D01*
X3941031Y-21639063D01*
X3771513Y-21525795D01*
X3601267Y-21455276D01*
X4868000Y-21455276D01*
X4868000Y-21659154D01*
X4907774Y-21859113D01*
X4985795Y-22047471D01*
X5099063Y-22216989D01*
X5243226Y-22361152D01*
X5412744Y-22474420D01*
X5601102Y-22552441D01*
X5801061Y-22592215D01*
X6004939Y-22592215D01*
X6204898Y-22552441D01*
X6393256Y-22474420D01*
X6562774Y-22361152D01*
X6706937Y-22216989D01*
X6820205Y-22047471D01*
X6898226Y-21859113D01*
X6938000Y-21659154D01*
X6938000Y-21455276D01*
X6922265Y-21376170D01*
X7028377Y-21270058D01*
X7141645Y-21100540D01*
X7219666Y-20912182D01*
X7259440Y-20712223D01*
X7259440Y-20508345D01*
X7219666Y-20308386D01*
X7141645Y-20120028D01*
X7028377Y-19950510D01*
X6884214Y-19806347D01*
X6714696Y-19693079D01*
X6526338Y-19615058D01*
X6326379Y-19575284D01*
X6122501Y-19575284D01*
X5922542Y-19615058D01*
X5734184Y-19693079D01*
X5564666Y-19806347D01*
X5420503Y-19950510D01*
X5307235Y-20120028D01*
X5229214Y-20308386D01*
X5189440Y-20508345D01*
X5189440Y-20712223D01*
X5205175Y-20791329D01*
X5099063Y-20897441D01*
X4985795Y-21066959D01*
X4907774Y-21255317D01*
X4868000Y-21455276D01*
X3601267Y-21455276D01*
X3583155Y-21447774D01*
X3383196Y-21408000D01*
X3179318Y-21408000D01*
X2979359Y-21447774D01*
X2791001Y-21525795D01*
X2621483Y-21639063D01*
X2586672Y-21673874D01*
X2563134Y-21664124D01*
X2363175Y-21624350D01*
X2159297Y-21624350D01*
X1959338Y-21664124D01*
X1770980Y-21742145D01*
X1601462Y-21855413D01*
X1457299Y-21999576D01*
X1425346Y-22047397D01*
X1253187Y-22047397D01*
X1053228Y-22087171D01*
X864870Y-22165192D01*
X695352Y-22278460D01*
X551189Y-22422623D01*
X437921Y-22592141D01*
X359900Y-22780499D01*
X320126Y-22980458D01*
X-24667000Y-22980458D01*
X-24667000Y-16221061D01*
X-11249000Y-16221061D01*
X-11249000Y-16424939D01*
X-11209226Y-16624898D01*
X-11131205Y-16813256D01*
X-11034490Y-16958000D01*
X-11131205Y-17102744D01*
X-11209226Y-17291102D01*
X-11249000Y-17491061D01*
X-11249000Y-17694939D01*
X-11209226Y-17894898D01*
X-11131205Y-18083256D01*
X-11017937Y-18252774D01*
X-10883286Y-18387425D01*
X-10955226Y-18561102D01*
X-10995000Y-18761061D01*
X-10995000Y-18964939D01*
X-10955226Y-19164898D01*
X-10877205Y-19353256D01*
X-10763937Y-19522774D01*
X-10661711Y-19625000D01*
X-10763937Y-19727226D01*
X-10877205Y-19896744D01*
X-10955226Y-20085102D01*
X-10995000Y-20285061D01*
X-10995000Y-20488939D01*
X-10955226Y-20688898D01*
X-10877205Y-20877256D01*
X-10763937Y-21046774D01*
X-10661711Y-21149000D01*
X-10763937Y-21251226D01*
X-10877205Y-21420744D01*
X-10955226Y-21609102D01*
X-10995000Y-21809061D01*
X-10995000Y-22012939D01*
X-10955226Y-22212898D01*
X-10877205Y-22401256D01*
X-10763937Y-22570774D01*
X-10619774Y-22714937D01*
X-10450256Y-22828205D01*
X-10261898Y-22906226D01*
X-10061939Y-22946000D01*
X-9858061Y-22946000D01*
X-9658102Y-22906226D01*
X-9469744Y-22828205D01*
X-9300226Y-22714937D01*
X-9156063Y-22570774D01*
X-9042795Y-22401256D01*
X-8964774Y-22212898D01*
X-8925000Y-22012939D01*
X-8925000Y-21809061D01*
X-8964774Y-21609102D01*
X-9042795Y-21420744D01*
X-9156063Y-21251226D01*
X-9258289Y-21149000D01*
X-9156063Y-21046774D01*
X-9042795Y-20877256D01*
X-8964774Y-20688898D01*
X-8925000Y-20488939D01*
X-8925000Y-20285061D01*
X-6804000Y-20285061D01*
X-6804000Y-20488939D01*
X-6764226Y-20688898D01*
X-6686205Y-20877256D01*
X-6572937Y-21046774D01*
X-6428774Y-21190937D01*
X-6259256Y-21304205D01*
X-6070898Y-21382226D01*
X-5870939Y-21422000D01*
X-5667061Y-21422000D01*
X-5467102Y-21382226D01*
X-5278744Y-21304205D01*
X-5109226Y-21190937D01*
X-4965063Y-21046774D01*
X-4851795Y-20877256D01*
X-4773774Y-20688898D01*
X-4734000Y-20488939D01*
X-4734000Y-20285061D01*
X-4773774Y-20085102D01*
X-4851795Y-19896744D01*
X-4965063Y-19727226D01*
X-5109226Y-19583063D01*
X-5278744Y-19469795D01*
X-5467102Y-19391774D01*
X-5667061Y-19352000D01*
X-5870939Y-19352000D01*
X-6070898Y-19391774D01*
X-6259256Y-19469795D01*
X-6428774Y-19583063D01*
X-6572937Y-19727226D01*
X-6686205Y-19896744D01*
X-6764226Y-20085102D01*
X-6804000Y-20285061D01*
X-8925000Y-20285061D01*
X-8964774Y-20085102D01*
X-9042795Y-19896744D01*
X-9156063Y-19727226D01*
X-9258289Y-19625000D01*
X-9156063Y-19522774D01*
X-9042795Y-19353256D01*
X-8964774Y-19164898D01*
X-8925000Y-18964939D01*
X-8925000Y-18761061D01*
X-8964774Y-18561102D01*
X-9042795Y-18372744D01*
X-9156063Y-18203226D01*
X-9290714Y-18068575D01*
X-9218774Y-17894898D01*
X-9179000Y-17694939D01*
X-9179000Y-17491061D01*
X-9218774Y-17291102D01*
X-9293764Y-17110061D01*
X-9090000Y-17110061D01*
X-9090000Y-17313939D01*
X-9050226Y-17513898D01*
X-8972205Y-17702256D01*
X-8858937Y-17871774D01*
X-8714774Y-18015937D01*
X-8545256Y-18129205D01*
X-8356898Y-18207226D01*
X-8156939Y-18247000D01*
X-7953061Y-18247000D01*
X-7753102Y-18207226D01*
X-7629738Y-18156126D01*
X-7613937Y-18179774D01*
X-7469774Y-18323937D01*
X-7300256Y-18437205D01*
X-7111898Y-18515226D01*
X-6911939Y-18555000D01*
X-6708061Y-18555000D01*
X-6508102Y-18515226D01*
X-6319744Y-18437205D01*
X-6150226Y-18323937D01*
X-6006063Y-18179774D01*
X-5892795Y-18010256D01*
X-5814774Y-17821898D01*
X-5775000Y-17621939D01*
X-5775000Y-17418061D01*
X-5814774Y-17218102D01*
X-5892795Y-17029744D01*
X-6006063Y-16860226D01*
X-6150226Y-16716063D01*
X-6319744Y-16602795D01*
X-6508102Y-16524774D01*
X-6708061Y-16485000D01*
X-6911939Y-16485000D01*
X-7111898Y-16524774D01*
X-7235262Y-16575874D01*
X-7251063Y-16552226D01*
X-7395226Y-16408063D01*
X-7564744Y-16294795D01*
X-7742752Y-16221061D01*
X-2359000Y-16221061D01*
X-2359000Y-16424939D01*
X-2319226Y-16624898D01*
X-2241205Y-16813256D01*
X-2127937Y-16982774D01*
X-1983774Y-17126937D01*
X-1814256Y-17240205D01*
X-1625898Y-17318226D01*
X-1425939Y-17358000D01*
X-1222061Y-17358000D01*
X-1022102Y-17318226D01*
X-833744Y-17240205D01*
X-664226Y-17126937D01*
X-562000Y-17024711D01*
X-459774Y-17126937D01*
X-290256Y-17240205D01*
X-101898Y-17318226D01*
X98061Y-17358000D01*
X301939Y-17358000D01*
X501898Y-17318226D01*
X690256Y-17240205D01*
X859774Y-17126937D01*
X1003937Y-16982774D01*
X1117205Y-16813256D01*
X1195226Y-16624898D01*
X1235000Y-16424939D01*
X1235000Y-16221061D01*
X1195226Y-16021102D01*
X1152545Y-15918061D01*
X4155000Y-15918061D01*
X4155000Y-16121939D01*
X4194774Y-16321898D01*
X4272795Y-16510256D01*
X4386063Y-16679774D01*
X4530226Y-16823937D01*
X4699744Y-16937205D01*
X4888102Y-17015226D01*
X5088061Y-17055000D01*
X5291939Y-17055000D01*
X5491898Y-17015226D01*
X5680256Y-16937205D01*
X5849774Y-16823937D01*
X5993937Y-16679774D01*
X6107205Y-16510256D01*
X6185226Y-16321898D01*
X6205283Y-16221061D01*
X10087000Y-16221061D01*
X10087000Y-16424939D01*
X10126774Y-16624898D01*
X10204795Y-16813256D01*
X10318063Y-16982774D01*
X10420289Y-17085000D01*
X10318063Y-17187226D01*
X10204795Y-17356744D01*
X10126774Y-17545102D01*
X10087000Y-17745061D01*
X10087000Y-17948939D01*
X10126774Y-18148898D01*
X10204795Y-18337256D01*
X10318063Y-18506774D01*
X10420289Y-18609000D01*
X10318063Y-18711226D01*
X10204795Y-18880744D01*
X10126774Y-19069102D01*
X10087000Y-19269061D01*
X10087000Y-19472939D01*
X10126774Y-19672898D01*
X10204795Y-19861256D01*
X10318063Y-20030774D01*
X10462226Y-20174937D01*
X10631744Y-20288205D01*
X10820102Y-20366226D01*
X11020061Y-20406000D01*
X11223939Y-20406000D01*
X11423898Y-20366226D01*
X11612256Y-20288205D01*
X11781774Y-20174937D01*
X11925937Y-20030774D01*
X12039205Y-19861256D01*
X12117226Y-19672898D01*
X12157000Y-19472939D01*
X12157000Y-19269061D01*
X12117226Y-19069102D01*
X12039205Y-18880744D01*
X11925937Y-18711226D01*
X11823711Y-18609000D01*
X11925937Y-18506774D01*
X12039205Y-18337256D01*
X12117226Y-18148898D01*
X12157000Y-17948939D01*
X12157000Y-17745061D01*
X25581000Y-17745061D01*
X25581000Y-17948939D01*
X25620774Y-18148898D01*
X25698795Y-18337256D01*
X25812063Y-18506774D01*
X25956226Y-18650937D01*
X26125744Y-18764205D01*
X26314102Y-18842226D01*
X26514061Y-18882000D01*
X26717939Y-18882000D01*
X26917898Y-18842226D01*
X27060500Y-18783158D01*
X27203102Y-18842226D01*
X27403061Y-18882000D01*
X27606939Y-18882000D01*
X27806898Y-18842226D01*
X27949500Y-18783158D01*
X28092102Y-18842226D01*
X28292061Y-18882000D01*
X28495939Y-18882000D01*
X28695898Y-18842226D01*
X28884256Y-18764205D01*
X29053774Y-18650937D01*
X29197937Y-18506774D01*
X29311205Y-18337256D01*
X29389226Y-18148898D01*
X29429000Y-17948939D01*
X29429000Y-17745061D01*
X29389226Y-17545102D01*
X29311205Y-17356744D01*
X29197937Y-17187226D01*
X29053774Y-17043063D01*
X28884256Y-16929795D01*
X28695898Y-16851774D01*
X28495939Y-16812000D01*
X28292061Y-16812000D01*
X28092102Y-16851774D01*
X27949500Y-16910842D01*
X27806898Y-16851774D01*
X27606939Y-16812000D01*
X27403061Y-16812000D01*
X27203102Y-16851774D01*
X27060500Y-16910842D01*
X26917898Y-16851774D01*
X26717939Y-16812000D01*
X26514061Y-16812000D01*
X26314102Y-16851774D01*
X26125744Y-16929795D01*
X25956226Y-17043063D01*
X25812063Y-17187226D01*
X25698795Y-17356744D01*
X25620774Y-17545102D01*
X25581000Y-17745061D01*
X12157000Y-17745061D01*
X12117226Y-17545102D01*
X12039205Y-17356744D01*
X11925937Y-17187226D01*
X11823711Y-17085000D01*
X11925937Y-16982774D01*
X12039205Y-16813256D01*
X12117226Y-16624898D01*
X12157000Y-16424939D01*
X12157000Y-16221061D01*
X12117226Y-16021102D01*
X12039205Y-15832744D01*
X11925937Y-15663226D01*
X11781774Y-15519063D01*
X11612256Y-15405795D01*
X11423898Y-15327774D01*
X11223939Y-15288000D01*
X11020061Y-15288000D01*
X10820102Y-15327774D01*
X10631744Y-15405795D01*
X10462226Y-15519063D01*
X10318063Y-15663226D01*
X10204795Y-15832744D01*
X10126774Y-16021102D01*
X10087000Y-16221061D01*
X6205283Y-16221061D01*
X6225000Y-16121939D01*
X6225000Y-15918061D01*
X6185226Y-15718102D01*
X6107205Y-15529744D01*
X5993937Y-15360226D01*
X5849774Y-15216063D01*
X5680256Y-15102795D01*
X5491898Y-15024774D01*
X5291939Y-14985000D01*
X5088061Y-14985000D01*
X4888102Y-15024774D01*
X4699744Y-15102795D01*
X4530226Y-15216063D01*
X4386063Y-15360226D01*
X4272795Y-15529744D01*
X4194774Y-15718102D01*
X4155000Y-15918061D01*
X1152545Y-15918061D01*
X1117205Y-15832744D01*
X1003937Y-15663226D01*
X859774Y-15519063D01*
X690256Y-15405795D01*
X501898Y-15327774D01*
X301939Y-15288000D01*
X98061Y-15288000D01*
X-101898Y-15327774D01*
X-290256Y-15405795D01*
X-459774Y-15519063D01*
X-562000Y-15621289D01*
X-664226Y-15519063D01*
X-833744Y-15405795D01*
X-1022102Y-15327774D01*
X-1222061Y-15288000D01*
X-1425939Y-15288000D01*
X-1625898Y-15327774D01*
X-1814256Y-15405795D01*
X-1983774Y-15519063D01*
X-2127937Y-15663226D01*
X-2241205Y-15832744D01*
X-2319226Y-16021102D01*
X-2359000Y-16221061D01*
X-7742752Y-16221061D01*
X-7753102Y-16216774D01*
X-7953061Y-16177000D01*
X-8156939Y-16177000D01*
X-8356898Y-16216774D01*
X-8545256Y-16294795D01*
X-8714774Y-16408063D01*
X-8858937Y-16552226D01*
X-8972205Y-16721744D01*
X-9050226Y-16910102D01*
X-9090000Y-17110061D01*
X-9293764Y-17110061D01*
X-9296795Y-17102744D01*
X-9393510Y-16958000D01*
X-9296795Y-16813256D01*
X-9218774Y-16624898D01*
X-9179000Y-16424939D01*
X-9179000Y-16221061D01*
X-9218774Y-16021102D01*
X-9296795Y-15832744D01*
X-9410063Y-15663226D01*
X-9554226Y-15519063D01*
X-9723744Y-15405795D01*
X-9912102Y-15327774D01*
X-10112061Y-15288000D01*
X-10315939Y-15288000D01*
X-10515898Y-15327774D01*
X-10704256Y-15405795D01*
X-10873774Y-15519063D01*
X-11017937Y-15663226D01*
X-11131205Y-15832744D01*
X-11209226Y-16021102D01*
X-11249000Y-16221061D01*
X-24667000Y-16221061D01*
X-24667000Y-14918061D01*
X19255000Y-14918061D01*
X19255000Y-15121939D01*
X19294774Y-15321898D01*
X19372795Y-15510256D01*
X19486063Y-15679774D01*
X19630226Y-15823937D01*
X19799744Y-15937205D01*
X19988102Y-16015226D01*
X20188061Y-16055000D01*
X20391939Y-16055000D01*
X20591898Y-16015226D01*
X20780256Y-15937205D01*
X20949774Y-15823937D01*
X21093937Y-15679774D01*
X21207205Y-15510256D01*
X21285226Y-15321898D01*
X21325000Y-15121939D01*
X21325000Y-14918061D01*
X21285226Y-14718102D01*
X21207205Y-14529744D01*
X21093937Y-14360226D01*
X20949774Y-14216063D01*
X20780256Y-14102795D01*
X20591898Y-14024774D01*
X20391939Y-13985000D01*
X20188061Y-13985000D01*
X19988102Y-14024774D01*
X19799744Y-14102795D01*
X19630226Y-14216063D01*
X19486063Y-14360226D01*
X19372795Y-14529744D01*
X19294774Y-14718102D01*
X19255000Y-14918061D01*
X-24667000Y-14918061D01*
X-24667000Y-13681061D01*
X23168000Y-13681061D01*
X23168000Y-13884939D01*
X23207774Y-14084898D01*
X23285795Y-14273256D01*
X23399063Y-14442774D01*
X23543226Y-14586937D01*
X23712744Y-14700205D01*
X23901102Y-14778226D01*
X24101061Y-14818000D01*
X24304939Y-14818000D01*
X24504898Y-14778226D01*
X24693256Y-14700205D01*
X24862774Y-14586937D01*
X25006937Y-14442774D01*
X25120205Y-14273256D01*
X25198226Y-14084898D01*
X25238000Y-13884939D01*
X25238000Y-13681061D01*
X25198226Y-13481102D01*
X25120205Y-13292744D01*
X25006937Y-13123226D01*
X24862774Y-12979063D01*
X24693256Y-12865795D01*
X24504898Y-12787774D01*
X24304939Y-12748000D01*
X24101061Y-12748000D01*
X23901102Y-12787774D01*
X23712744Y-12865795D01*
X23543226Y-12979063D01*
X23399063Y-13123226D01*
X23285795Y-13292744D01*
X23207774Y-13481102D01*
X23168000Y-13681061D01*
X-24667000Y-13681061D01*
X-24667000Y-11453816D01*
X-24612898Y-11476226D01*
X-24412939Y-11516000D01*
X-24209061Y-11516000D01*
X-24009102Y-11476226D01*
X-23820744Y-11398205D01*
X-23651226Y-11284937D01*
X-23634350Y-11268061D01*
X-14678000Y-11268061D01*
X-14678000Y-11471939D01*
X-14638226Y-11671898D01*
X-14560205Y-11860256D01*
X-14446937Y-12029774D01*
X-14302774Y-12173937D01*
X-14133256Y-12287205D01*
X-13944898Y-12365226D01*
X-13744939Y-12405000D01*
X-13541061Y-12405000D01*
X-13341102Y-12365226D01*
X-13152744Y-12287205D01*
X-12983226Y-12173937D01*
X-12966350Y-12157061D01*
X-73000Y-12157061D01*
X-73000Y-12360939D01*
X-33226Y-12560898D01*
X44795Y-12749256D01*
X158063Y-12918774D01*
X302226Y-13062937D01*
X471744Y-13176205D01*
X660102Y-13254226D01*
X860061Y-13294000D01*
X1063939Y-13294000D01*
X1263898Y-13254226D01*
X1452256Y-13176205D01*
X1621774Y-13062937D01*
X1765937Y-12918774D01*
X1879205Y-12749256D01*
X1957226Y-12560898D01*
X1997000Y-12360939D01*
X1997000Y-12157061D01*
X1957226Y-11957102D01*
X1879205Y-11768744D01*
X1765937Y-11599226D01*
X1621774Y-11455063D01*
X1452256Y-11341795D01*
X1263898Y-11263774D01*
X1063939Y-11224000D01*
X860061Y-11224000D01*
X660102Y-11263774D01*
X471744Y-11341795D01*
X302226Y-11455063D01*
X158063Y-11599226D01*
X44795Y-11768744D01*
X-33226Y-11957102D01*
X-73000Y-12157061D01*
X-12966350Y-12157061D01*
X-12839063Y-12029774D01*
X-12725795Y-11860256D01*
X-12647774Y-11671898D01*
X-12608000Y-11471939D01*
X-12608000Y-11268061D01*
X-12647774Y-11068102D01*
X-12725795Y-10879744D01*
X-12839063Y-10710226D01*
X-12983226Y-10566063D01*
X-13152744Y-10452795D01*
X-13341102Y-10374774D01*
X-13541061Y-10335000D01*
X-13744939Y-10335000D01*
X-13944898Y-10374774D01*
X-14133256Y-10452795D01*
X-14302774Y-10566063D01*
X-14446937Y-10710226D01*
X-14560205Y-10879744D01*
X-14638226Y-11068102D01*
X-14678000Y-11268061D01*
X-23634350Y-11268061D01*
X-23507063Y-11140774D01*
X-23393795Y-10971256D01*
X-23315774Y-10782898D01*
X-23276000Y-10582939D01*
X-23276000Y-10379061D01*
X-23315774Y-10179102D01*
X-23393795Y-9990744D01*
X-23507063Y-9821226D01*
X-23651226Y-9677063D01*
X-23741025Y-9617061D01*
X-16583000Y-9617061D01*
X-16583000Y-9820939D01*
X-16543226Y-10020898D01*
X-16465205Y-10209256D01*
X-16351937Y-10378774D01*
X-16207774Y-10522937D01*
X-16038256Y-10636205D01*
X-15849898Y-10714226D01*
X-15649939Y-10754000D01*
X-15446061Y-10754000D01*
X-15246102Y-10714226D01*
X-15057744Y-10636205D01*
X-14888226Y-10522937D01*
X-14744063Y-10378774D01*
X-14630795Y-10209256D01*
X-14552774Y-10020898D01*
X-14513000Y-9820939D01*
X-14513000Y-9617061D01*
X-12900000Y-9617061D01*
X-12900000Y-9820939D01*
X-12860226Y-10020898D01*
X-12782205Y-10209256D01*
X-12668937Y-10378774D01*
X-12524774Y-10522937D01*
X-12355256Y-10636205D01*
X-12166898Y-10714226D01*
X-11966939Y-10754000D01*
X-11763061Y-10754000D01*
X-11563102Y-10714226D01*
X-11374744Y-10636205D01*
X-11205226Y-10522937D01*
X-11061063Y-10378774D01*
X-10947795Y-10209256D01*
X-10869774Y-10020898D01*
X-10830000Y-9820939D01*
X-10830000Y-9617061D01*
X-10869774Y-9417102D01*
X-10947795Y-9228744D01*
X-11061063Y-9059226D01*
X-11205226Y-8915063D01*
X-11374744Y-8801795D01*
X-11563102Y-8723774D01*
X-11763061Y-8684000D01*
X-11966939Y-8684000D01*
X-12166898Y-8723774D01*
X-12355256Y-8801795D01*
X-12524774Y-8915063D01*
X-12668937Y-9059226D01*
X-12782205Y-9228744D01*
X-12860226Y-9417102D01*
X-12900000Y-9617061D01*
X-14513000Y-9617061D01*
X-14552774Y-9417102D01*
X-14630795Y-9228744D01*
X-14744063Y-9059226D01*
X-14888226Y-8915063D01*
X-15057744Y-8801795D01*
X-15246102Y-8723774D01*
X-15446061Y-8684000D01*
X-15649939Y-8684000D01*
X-15849898Y-8723774D01*
X-16038256Y-8801795D01*
X-16207774Y-8915063D01*
X-16351937Y-9059226D01*
X-16465205Y-9228744D01*
X-16543226Y-9417102D01*
X-16583000Y-9617061D01*
X-23741025Y-9617061D01*
X-23820744Y-9563795D01*
X-24009102Y-9485774D01*
X-24209061Y-9446000D01*
X-24412939Y-9446000D01*
X-24612898Y-9485774D01*
X-24667000Y-9508184D01*
X-24667000Y-7086890D01*
X-24559952Y-7086890D01*
X-24559952Y-7333110D01*
X-24511917Y-7574598D01*
X-24417693Y-7802074D01*
X-24280901Y-8006798D01*
X-24106798Y-8180901D01*
X-23902074Y-8317693D01*
X-23674598Y-8411917D01*
X-23433110Y-8459952D01*
X-23186890Y-8459952D01*
X-22945402Y-8411917D01*
X-22717926Y-8317693D01*
X-22513202Y-8180901D01*
X-22339099Y-8006798D01*
X-22202307Y-7802074D01*
X-22108083Y-7574598D01*
X-22060048Y-7333110D01*
X-22060048Y-7086890D01*
X-22093630Y-6918061D01*
X-8745000Y-6918061D01*
X-8745000Y-7121939D01*
X-8705226Y-7321898D01*
X-8627205Y-7510256D01*
X-8513937Y-7679774D01*
X-8369774Y-7823937D01*
X-8200256Y-7937205D01*
X-8011898Y-8015226D01*
X-7864727Y-8044500D01*
X-7907226Y-8147102D01*
X-7947000Y-8347061D01*
X-7947000Y-8550939D01*
X-7907226Y-8750898D01*
X-7829205Y-8939256D01*
X-7715937Y-9108774D01*
X-7571774Y-9252937D01*
X-7402256Y-9366205D01*
X-7213898Y-9444226D01*
X-7013939Y-9484000D01*
X-6810061Y-9484000D01*
X-6610102Y-9444226D01*
X-6421744Y-9366205D01*
X-6252226Y-9252937D01*
X-6108063Y-9108774D01*
X-5994795Y-8939256D01*
X-5946000Y-8821456D01*
X-5856588Y-8881199D01*
X-5668230Y-8959220D01*
X-5468271Y-8998994D01*
X-5264393Y-8998994D01*
X-5064434Y-8959220D01*
X-4876076Y-8881199D01*
X-4706558Y-8767931D01*
X-4562395Y-8623768D01*
X-4449127Y-8454250D01*
X-4371106Y-8265892D01*
X-4331332Y-8065933D01*
X-4331332Y-7862055D01*
X-4371106Y-7662096D01*
X-4449127Y-7473738D01*
X-4562395Y-7304220D01*
X-4662554Y-7204061D01*
X7801000Y-7204061D01*
X7801000Y-7407939D01*
X7840774Y-7607898D01*
X7918795Y-7796256D01*
X8032063Y-7965774D01*
X8176226Y-8109937D01*
X8345744Y-8223205D01*
X8534102Y-8301226D01*
X8734061Y-8341000D01*
X8937939Y-8341000D01*
X9137898Y-8301226D01*
X9326256Y-8223205D01*
X9495774Y-8109937D01*
X9639937Y-7965774D01*
X9753205Y-7796256D01*
X9831226Y-7607898D01*
X9871000Y-7407939D01*
X9871000Y-7204061D01*
X9847694Y-7086890D01*
X31080048Y-7086890D01*
X31080048Y-7333110D01*
X31128083Y-7574598D01*
X31222307Y-7802074D01*
X31359099Y-8006798D01*
X31533202Y-8180901D01*
X31737926Y-8317693D01*
X31965402Y-8411917D01*
X32206890Y-8459952D01*
X32453110Y-8459952D01*
X32694598Y-8411917D01*
X32922074Y-8317693D01*
X33126798Y-8180901D01*
X33300901Y-8006798D01*
X33437693Y-7802074D01*
X33531917Y-7574598D01*
X33579952Y-7333110D01*
X33579952Y-7086890D01*
X33531917Y-6845402D01*
X33437693Y-6617926D01*
X33300901Y-6413202D01*
X33126798Y-6239099D01*
X32922074Y-6102307D01*
X32694598Y-6008083D01*
X32453110Y-5960048D01*
X32206890Y-5960048D01*
X31965402Y-6008083D01*
X31737926Y-6102307D01*
X31533202Y-6239099D01*
X31359099Y-6413202D01*
X31222307Y-6617926D01*
X31128083Y-6845402D01*
X31080048Y-7086890D01*
X9847694Y-7086890D01*
X9831226Y-7004102D01*
X9753205Y-6815744D01*
X9639937Y-6646226D01*
X9495774Y-6502063D01*
X9326256Y-6388795D01*
X9137898Y-6310774D01*
X8937939Y-6271000D01*
X8734061Y-6271000D01*
X8534102Y-6310774D01*
X8345744Y-6388795D01*
X8176226Y-6502063D01*
X8032063Y-6646226D01*
X7918795Y-6815744D01*
X7840774Y-7004102D01*
X7801000Y-7204061D01*
X-4662554Y-7204061D01*
X-4706558Y-7160057D01*
X-4876076Y-7046789D01*
X-5064434Y-6968768D01*
X-5264393Y-6928994D01*
X-5468271Y-6928994D01*
X-5668230Y-6968768D01*
X-5856588Y-7046789D01*
X-6026106Y-7160057D01*
X-6170269Y-7304220D01*
X-6283537Y-7473738D01*
X-6332332Y-7591538D01*
X-6421744Y-7531795D01*
X-6610102Y-7453774D01*
X-6757273Y-7424500D01*
X-6714774Y-7321898D01*
X-6675000Y-7121939D01*
X-6675000Y-6918061D01*
X-6714774Y-6718102D01*
X-6792795Y-6529744D01*
X-6906063Y-6360226D01*
X-7050226Y-6216063D01*
X-7219744Y-6102795D01*
X-7408102Y-6024774D01*
X-7608061Y-5985000D01*
X-7811939Y-5985000D01*
X-8011898Y-6024774D01*
X-8200256Y-6102795D01*
X-8369774Y-6216063D01*
X-8513937Y-6360226D01*
X-8627205Y-6529744D01*
X-8705226Y-6718102D01*
X-8745000Y-6918061D01*
X-22093630Y-6918061D01*
X-22108083Y-6845402D01*
X-22202307Y-6617926D01*
X-22339099Y-6413202D01*
X-22513202Y-6239099D01*
X-22717926Y-6102307D01*
X-22945402Y-6008083D01*
X-23186890Y-5960048D01*
X-23433110Y-5960048D01*
X-23674598Y-6008083D01*
X-23902074Y-6102307D01*
X-24106798Y-6239099D01*
X-24280901Y-6413202D01*
X-24417693Y-6617926D01*
X-24511917Y-6845402D01*
X-24559952Y-7086890D01*
X-24667000Y-7086890D01*
X-24667000Y-3392264D01*
X-24643748Y-3448399D01*
X-24273302Y-4002812D01*
X-23801812Y-4474302D01*
X-23247399Y-4844748D01*
X-22631368Y-5099917D01*
X-21977393Y-5230000D01*
X-21310607Y-5230000D01*
X-20656632Y-5099917D01*
X-20040601Y-4844748D01*
X-19960253Y-4791061D01*
X-16456000Y-4791061D01*
X-16456000Y-4994939D01*
X-16416226Y-5194898D01*
X-16338205Y-5383256D01*
X-16224937Y-5552774D01*
X-16080774Y-5696937D01*
X-15911256Y-5810205D01*
X-15722898Y-5888226D01*
X-15522939Y-5928000D01*
X-15319061Y-5928000D01*
X-15119102Y-5888226D01*
X-14930744Y-5810205D01*
X-14761226Y-5696937D01*
X-14617063Y-5552774D01*
X-14503795Y-5383256D01*
X-14425774Y-5194898D01*
X-14386000Y-4994939D01*
X-14386000Y-4791061D01*
X-12646000Y-4791061D01*
X-12646000Y-4994939D01*
X-12606226Y-5194898D01*
X-12528205Y-5383256D01*
X-12414937Y-5552774D01*
X-12270774Y-5696937D01*
X-12101256Y-5810205D01*
X-11912898Y-5888226D01*
X-11712939Y-5928000D01*
X-11509061Y-5928000D01*
X-11309102Y-5888226D01*
X-11120744Y-5810205D01*
X-10951226Y-5696937D01*
X-10807063Y-5552774D01*
X-10783869Y-5518061D01*
X10955000Y-5518061D01*
X10955000Y-5721939D01*
X10994774Y-5921898D01*
X11072795Y-6110256D01*
X11186063Y-6279774D01*
X11330226Y-6423937D01*
X11499744Y-6537205D01*
X11688102Y-6615226D01*
X11888061Y-6655000D01*
X12091939Y-6655000D01*
X12291898Y-6615226D01*
X12480256Y-6537205D01*
X12649774Y-6423937D01*
X12793937Y-6279774D01*
X12907205Y-6110256D01*
X12985226Y-5921898D01*
X13025000Y-5721939D01*
X13025000Y-5518061D01*
X13355000Y-5518061D01*
X13355000Y-5721939D01*
X13394774Y-5921898D01*
X13472795Y-6110256D01*
X13586063Y-6279774D01*
X13730226Y-6423937D01*
X13899744Y-6537205D01*
X14088102Y-6615226D01*
X14288061Y-6655000D01*
X14491939Y-6655000D01*
X14691898Y-6615226D01*
X14880256Y-6537205D01*
X15049774Y-6423937D01*
X15090000Y-6383711D01*
X15130226Y-6423937D01*
X15299744Y-6537205D01*
X15488102Y-6615226D01*
X15688061Y-6655000D01*
X15891939Y-6655000D01*
X16091898Y-6615226D01*
X16280256Y-6537205D01*
X16449774Y-6423937D01*
X16593937Y-6279774D01*
X16707205Y-6110256D01*
X16785226Y-5921898D01*
X16825000Y-5721939D01*
X16825000Y-5518061D01*
X16785226Y-5318102D01*
X16707205Y-5129744D01*
X16593937Y-4960226D01*
X16449774Y-4816063D01*
X16280256Y-4702795D01*
X16091898Y-4624774D01*
X15891939Y-4585000D01*
X15688061Y-4585000D01*
X15488102Y-4624774D01*
X15299744Y-4702795D01*
X15130226Y-4816063D01*
X15090000Y-4856289D01*
X15049774Y-4816063D01*
X14880256Y-4702795D01*
X14691898Y-4624774D01*
X14491939Y-4585000D01*
X14288061Y-4585000D01*
X14088102Y-4624774D01*
X13899744Y-4702795D01*
X13730226Y-4816063D01*
X13586063Y-4960226D01*
X13472795Y-5129744D01*
X13394774Y-5318102D01*
X13355000Y-5518061D01*
X13025000Y-5518061D01*
X12985226Y-5318102D01*
X12907205Y-5129744D01*
X12793937Y-4960226D01*
X12649774Y-4816063D01*
X12480256Y-4702795D01*
X12291898Y-4624774D01*
X12091939Y-4585000D01*
X11888061Y-4585000D01*
X11688102Y-4624774D01*
X11499744Y-4702795D01*
X11330226Y-4816063D01*
X11186063Y-4960226D01*
X11072795Y-5129744D01*
X10994774Y-5318102D01*
X10955000Y-5518061D01*
X-10783869Y-5518061D01*
X-10693795Y-5383256D01*
X-10615774Y-5194898D01*
X-10576000Y-4994939D01*
X-10576000Y-4791061D01*
X-10615774Y-4591102D01*
X-10693795Y-4402744D01*
X-10807063Y-4233226D01*
X-10951226Y-4089063D01*
X-11041025Y-4029061D01*
X4985000Y-4029061D01*
X4985000Y-4232939D01*
X5024774Y-4432898D01*
X5102795Y-4621256D01*
X5216063Y-4790774D01*
X5360226Y-4934937D01*
X5529744Y-5048205D01*
X5718102Y-5126226D01*
X5918061Y-5166000D01*
X6121939Y-5166000D01*
X6321898Y-5126226D01*
X6510256Y-5048205D01*
X6679774Y-4934937D01*
X6823937Y-4790774D01*
X6937205Y-4621256D01*
X7015226Y-4432898D01*
X7055000Y-4232939D01*
X7055000Y-4029061D01*
X7015226Y-3829102D01*
X6937205Y-3640744D01*
X6823937Y-3471226D01*
X6679774Y-3327063D01*
X6510256Y-3213795D01*
X6321898Y-3135774D01*
X6121939Y-3096000D01*
X5918061Y-3096000D01*
X5718102Y-3135774D01*
X5529744Y-3213795D01*
X5360226Y-3327063D01*
X5216063Y-3471226D01*
X5102795Y-3640744D01*
X5024774Y-3829102D01*
X4985000Y-4029061D01*
X-11041025Y-4029061D01*
X-11120744Y-3975795D01*
X-11309102Y-3897774D01*
X-11509061Y-3858000D01*
X-11712939Y-3858000D01*
X-11912898Y-3897774D01*
X-12101256Y-3975795D01*
X-12270774Y-4089063D01*
X-12414937Y-4233226D01*
X-12528205Y-4402744D01*
X-12606226Y-4591102D01*
X-12646000Y-4791061D01*
X-14386000Y-4791061D01*
X-14425774Y-4591102D01*
X-14503795Y-4402744D01*
X-14617063Y-4233226D01*
X-14761226Y-4089063D01*
X-14930744Y-3975795D01*
X-15119102Y-3897774D01*
X-15319061Y-3858000D01*
X-15522939Y-3858000D01*
X-15722898Y-3897774D01*
X-15911256Y-3975795D01*
X-16080774Y-4089063D01*
X-16224937Y-4233226D01*
X-16338205Y-4402744D01*
X-16416226Y-4591102D01*
X-16456000Y-4791061D01*
X-19960253Y-4791061D01*
X-19486188Y-4474302D01*
X-19014698Y-4002812D01*
X-18644252Y-3448399D01*
X-18389083Y-2832368D01*
X-18259000Y-2178393D01*
X-18259000Y-1511607D01*
X-18389083Y-857632D01*
X-18443167Y-727061D01*
X1683000Y-727061D01*
X1683000Y-930939D01*
X1722774Y-1130898D01*
X1800795Y-1319256D01*
X1914063Y-1488774D01*
X2058226Y-1632937D01*
X2227744Y-1746205D01*
X2416102Y-1824226D01*
X2616061Y-1864000D01*
X2819939Y-1864000D01*
X3019898Y-1824226D01*
X3208256Y-1746205D01*
X3340786Y-1657651D01*
X5869571Y-1657651D01*
X5869571Y-1861529D01*
X5909345Y-2061488D01*
X5987366Y-2249846D01*
X6100634Y-2419364D01*
X6244797Y-2563527D01*
X6414315Y-2676795D01*
X6602673Y-2754816D01*
X6802632Y-2794590D01*
X7006510Y-2794590D01*
X7185127Y-2759061D01*
X25073000Y-2759061D01*
X25073000Y-2962939D01*
X25112774Y-3162898D01*
X25190795Y-3351256D01*
X25304063Y-3520774D01*
X25448226Y-3664937D01*
X25617744Y-3778205D01*
X25806102Y-3856226D01*
X26006061Y-3896000D01*
X26209939Y-3896000D01*
X26409898Y-3856226D01*
X26598256Y-3778205D01*
X26767774Y-3664937D01*
X26911937Y-3520774D01*
X27025205Y-3351256D01*
X27103226Y-3162898D01*
X27143000Y-2962939D01*
X27143000Y-2759061D01*
X27103226Y-2559102D01*
X27025205Y-2370744D01*
X26911937Y-2201226D01*
X26767774Y-2057063D01*
X26598256Y-1943795D01*
X26409898Y-1865774D01*
X26209939Y-1826000D01*
X26006061Y-1826000D01*
X25806102Y-1865774D01*
X25617744Y-1943795D01*
X25448226Y-2057063D01*
X25304063Y-2201226D01*
X25190795Y-2370744D01*
X25112774Y-2559102D01*
X25073000Y-2759061D01*
X7185127Y-2759061D01*
X7206469Y-2754816D01*
X7394827Y-2676795D01*
X7564345Y-2563527D01*
X7708508Y-2419364D01*
X7821776Y-2249846D01*
X7899797Y-2061488D01*
X7939571Y-1861529D01*
X7939571Y-1657651D01*
X7899797Y-1457692D01*
X7821776Y-1269334D01*
X7708508Y-1099816D01*
X7564345Y-955653D01*
X7394827Y-842385D01*
X7206469Y-764364D01*
X7006510Y-724590D01*
X6802632Y-724590D01*
X6602673Y-764364D01*
X6414315Y-842385D01*
X6244797Y-955653D01*
X6100634Y-1099816D01*
X5987366Y-1269334D01*
X5909345Y-1457692D01*
X5869571Y-1657651D01*
X3340786Y-1657651D01*
X3377774Y-1632937D01*
X3521937Y-1488774D01*
X3635205Y-1319256D01*
X3713226Y-1130898D01*
X3753000Y-930939D01*
X3753000Y-727061D01*
X3713226Y-527102D01*
X3635205Y-338744D01*
X3521937Y-169226D01*
X3377774Y-25063D01*
X3208256Y88205D01*
X3019898Y166226D01*
X2819939Y206000D01*
X2616061Y206000D01*
X2416102Y166226D01*
X2227744Y88205D01*
X2058226Y-25063D01*
X1914063Y-169226D01*
X1800795Y-338744D01*
X1722774Y-527102D01*
X1683000Y-727061D01*
X-18443167Y-727061D01*
X-18644252Y-241601D01*
X-19014698Y312812D01*
X-19486188Y784302D01*
X-20040601Y1154748D01*
X-20096736Y1178000D01*
X29386736Y1178000D01*
X29330601Y1154748D01*
G37*
G04 #@! TD.AperFunction*
M02*
