G04 #@! TF.GenerationSoftware,KiCad,Pcbnew,(5.1.10)-1*
G04 #@! TF.CreationDate,2021-10-23T20:23:30-05:00*
G04 #@! TF.ProjectId,Board,426f6172-642e-46b6-9963-61645f706362,rev?*
G04 #@! TF.SameCoordinates,Original*
G04 #@! TF.FileFunction,Copper,L4,Bot*
G04 #@! TF.FilePolarity,Positive*
%FSLAX46Y46*%
G04 Gerber Fmt 4.6, Leading zero omitted, Abs format (unit mm)*
G04 Created by KiCad (PCBNEW (5.1.10)-1) date 2021-10-23 20:23:30*
%MOMM*%
%LPD*%
G01*
G04 APERTURE LIST*
G04 #@! TA.AperFunction,ComponentPad*
%ADD10C,1.000000*%
G04 #@! TD*
G04 #@! TA.AperFunction,ComponentPad*
%ADD11C,5.500000*%
G04 #@! TD*
G04 #@! TA.AperFunction,ViaPad*
%ADD12C,0.800000*%
G04 #@! TD*
G04 #@! TA.AperFunction,Conductor*
%ADD13C,0.300000*%
G04 #@! TD*
G04 #@! TA.AperFunction,Conductor*
%ADD14C,0.500000*%
G04 #@! TD*
G04 APERTURE END LIST*
D10*
X140337000Y-104775000D03*
X132337000Y-104775000D03*
D11*
X121666000Y-60325000D03*
X174244000Y-60325000D03*
X174244000Y-103378000D03*
X121666000Y-103378000D03*
D12*
X161671000Y-89916000D03*
X127762000Y-68199000D03*
X131445000Y-68199000D03*
X129667000Y-69850000D03*
X118999000Y-68961000D03*
X119253000Y-84328000D03*
X122682000Y-84328000D03*
X121412000Y-84328000D03*
X128905000Y-84328000D03*
X134747000Y-83693000D03*
X136500000Y-76000000D03*
X127889000Y-63373000D03*
X131699000Y-63373000D03*
X146028000Y-59309000D03*
X149330000Y-62611000D03*
X169418000Y-61341000D03*
X169926000Y-76327000D03*
X170815000Y-76327000D03*
X171704000Y-76327000D03*
X172085000Y-83820000D03*
X167640000Y-94234000D03*
X164719000Y-99187000D03*
X166497000Y-99187000D03*
X168275000Y-101219000D03*
X168275000Y-102108000D03*
X166497000Y-104013000D03*
X165608000Y-104013000D03*
X164719000Y-104013000D03*
X165608000Y-99187000D03*
X158750000Y-101346000D03*
X158750000Y-103378000D03*
X149225000Y-94742000D03*
X145415000Y-94488000D03*
X145415000Y-95377000D03*
X128524000Y-94488000D03*
X128524000Y-95377000D03*
X146050000Y-103759000D03*
X146050000Y-104902000D03*
X128524000Y-103759000D03*
X128524000Y-105029000D03*
X154432000Y-76327000D03*
X154432000Y-77851000D03*
X154432000Y-74803000D03*
X144272000Y-70739000D03*
X148336000Y-97409000D03*
X134270000Y-92360000D03*
X141986000Y-74803000D03*
X143510000Y-74803000D03*
X137541000Y-78867000D03*
X153289000Y-91694000D03*
X154150000Y-91620000D03*
X169799000Y-92075000D03*
X164100000Y-83693000D03*
X163600000Y-73500000D03*
X138811000Y-82931000D03*
X158115000Y-85300000D03*
X148717000Y-91059000D03*
X161600000Y-98600000D03*
X162500000Y-99100000D03*
X161544000Y-103200000D03*
X162400000Y-102800000D03*
X163200000Y-102600000D03*
X163100000Y-100700000D03*
X163200000Y-99700000D03*
X158600000Y-98400000D03*
X158600000Y-99600000D03*
X163900000Y-100300000D03*
X163800000Y-103300000D03*
X166000000Y-101300000D03*
X165300000Y-101900000D03*
X167513000Y-72263000D03*
X158400000Y-102400000D03*
X153100000Y-88000000D03*
X159100000Y-64100000D03*
X157700000Y-64100000D03*
X155300000Y-64100000D03*
X160400000Y-64100000D03*
X127508000Y-84328000D03*
X139065000Y-59055000D03*
X149330000Y-60706000D03*
X169799000Y-90551000D03*
X151003000Y-76200000D03*
X151003000Y-77597000D03*
X147320000Y-70739000D03*
X145669000Y-70739000D03*
X163195000Y-92202000D03*
X149225000Y-102616000D03*
X138049000Y-87884000D03*
X136600000Y-92300000D03*
X166878000Y-87630000D03*
X141097000Y-76962000D03*
X153700000Y-87200000D03*
X155194000Y-90932000D03*
X136779000Y-87884000D03*
X151003000Y-87757000D03*
X149990000Y-91100000D03*
X148082000Y-100711000D03*
X150900000Y-74800000D03*
X135600000Y-65500000D03*
X153400000Y-84000000D03*
X148500000Y-74500000D03*
X144665126Y-81562397D03*
X133350000Y-80391000D03*
X140335000Y-86868000D03*
X133350000Y-78867000D03*
X140843000Y-85979000D03*
X149213000Y-80037215D03*
X159131000Y-84455000D03*
X160528000Y-87630000D03*
X163195000Y-87249000D03*
X149534440Y-79090284D03*
X150214571Y-60239590D03*
X145571236Y-81139350D03*
X136398000Y-66929000D03*
X142240000Y-85217000D03*
X143637000Y-86360000D03*
X137943668Y-66443994D03*
X133096000Y-74803000D03*
X149498634Y-82523804D03*
X149606000Y-84074000D03*
X133096000Y-76073000D03*
X148898892Y-83324000D03*
X135255000Y-75692000D03*
X133350000Y-77343000D03*
X151892000Y-92468000D03*
X151600000Y-85900000D03*
X148009892Y-91766108D03*
X150368000Y-93218000D03*
X133200000Y-91500000D03*
X137359831Y-91512831D03*
X146591257Y-80923000D03*
X152146000Y-65786000D03*
D13*
X135600000Y-65500000D02*
X130952980Y-70147020D01*
X136397778Y-90027020D02*
X146362978Y-90027020D01*
X130952980Y-70147020D02*
X130952980Y-84582222D01*
X130952980Y-84582222D02*
X136397778Y-90027020D01*
X146362978Y-90027020D02*
X146372980Y-90027020D01*
X152400000Y-84000000D02*
X153400000Y-84000000D01*
X146372980Y-90027020D02*
X152400000Y-84000000D01*
X144665126Y-81562397D02*
X144775729Y-81673000D01*
X148201010Y-81922990D02*
X148463000Y-81661000D01*
X148463000Y-79121000D02*
X148463000Y-74803000D01*
X145041990Y-81922990D02*
X148201010Y-81922990D01*
X144681397Y-81562397D02*
X145041990Y-81922990D01*
X148463000Y-81661000D02*
X148463000Y-79121000D01*
X144665126Y-81562397D02*
X144681397Y-81562397D01*
X139827000Y-86868000D02*
X140335000Y-86868000D01*
X133350000Y-80391000D02*
X139827000Y-86868000D01*
X140462000Y-85979000D02*
X140843000Y-85979000D01*
X133350000Y-78867000D02*
X140462000Y-85979000D01*
X149213000Y-80037215D02*
X150395215Y-80037215D01*
X150395215Y-80037215D02*
X153035000Y-82677000D01*
X157353000Y-82677000D02*
X159131000Y-84455000D01*
X153035000Y-82677000D02*
X157353000Y-82677000D01*
X162814000Y-87630000D02*
X163195000Y-87249000D01*
X160528000Y-87630000D02*
X162814000Y-87630000D01*
X149534440Y-79090284D02*
X150591284Y-79090284D01*
X150591284Y-79090284D02*
X153416000Y-81915000D01*
X157861000Y-81915000D02*
X163195000Y-87249000D01*
X153416000Y-81915000D02*
X157861000Y-81915000D01*
X146431000Y-65659000D02*
X148341000Y-65659000D01*
X150214571Y-63785429D02*
X150214571Y-60239590D01*
X148341000Y-65659000D02*
X149900000Y-64100000D01*
X149900000Y-64100000D02*
X150214571Y-63785429D01*
X142494000Y-70866000D02*
X142494000Y-69596000D01*
X146200490Y-74572490D02*
X142494000Y-70866000D01*
X146200490Y-80207512D02*
X146200490Y-74572490D01*
X145571236Y-80836766D02*
X146200490Y-80207512D01*
X145571236Y-81139350D02*
X145571236Y-80836766D01*
X142494000Y-69596000D02*
X146431000Y-65659000D01*
X131953000Y-71374000D02*
X136398000Y-66929000D01*
X131953000Y-84168002D02*
X131953000Y-71374000D01*
X140716000Y-89027000D02*
X136811998Y-89027000D01*
X136811998Y-89027000D02*
X131953000Y-84168002D01*
X142240000Y-87503000D02*
X142113000Y-87630000D01*
X142240000Y-85217000D02*
X142240000Y-87503000D01*
X142113000Y-87630000D02*
X140716000Y-89027000D01*
X143637000Y-86360000D02*
X143002000Y-86995000D01*
X143002000Y-86995000D02*
X143002000Y-87448120D01*
X143002000Y-87448120D02*
X140923110Y-89527010D01*
X136604888Y-89527010D02*
X136604886Y-89527008D01*
X140923110Y-89527010D02*
X136604888Y-89527010D01*
X131452990Y-84375112D02*
X131452990Y-71166890D01*
X136604886Y-89527008D02*
X131452990Y-84375112D01*
X137678673Y-66178999D02*
X137943668Y-66443994D01*
X136037999Y-66178999D02*
X137678673Y-66178999D01*
X131452990Y-70764008D02*
X136037999Y-66178999D01*
X131452990Y-71166890D02*
X131452990Y-70764008D01*
X136365002Y-74803000D02*
X143985002Y-82423000D01*
X133096000Y-74803000D02*
X136365002Y-74803000D01*
X149397830Y-82423000D02*
X149498634Y-82523804D01*
X143985002Y-82423000D02*
X149397830Y-82423000D01*
X133350000Y-76327000D02*
X133096000Y-76073000D01*
X133890998Y-76327000D02*
X133350000Y-76327000D01*
X141388008Y-83824010D02*
X133890998Y-76327000D01*
X148538891Y-84074001D02*
X148288900Y-83824010D01*
X149606000Y-84074000D02*
X148538891Y-84074001D01*
X148288900Y-83824010D02*
X141388008Y-83824010D01*
X135255000Y-75913002D02*
X135255000Y-75692000D01*
X137458997Y-78116999D02*
X135255000Y-75913002D01*
X137901001Y-78116999D02*
X137458997Y-78116999D01*
X143108002Y-83324000D02*
X137901001Y-78116999D01*
X148898892Y-83324000D02*
X143108002Y-83324000D01*
X151892000Y-90043000D02*
X151892000Y-92468000D01*
X151892000Y-86192000D02*
X151600000Y-85900000D01*
X151892000Y-90043000D02*
X151892000Y-86192000D01*
X149461784Y-93218000D02*
X150368000Y-93218000D01*
X148009892Y-91766108D02*
X149461784Y-93218000D01*
X137287000Y-91440000D02*
X137359831Y-91512831D01*
D14*
X136947001Y-91100001D02*
X137359831Y-91512831D01*
X133599999Y-91100001D02*
X136947001Y-91100001D01*
X133200000Y-91500000D02*
X133599999Y-91100001D01*
D13*
X146700500Y-80813757D02*
X146591257Y-80923000D01*
X146700500Y-74627300D02*
X146700500Y-80813757D01*
X143002000Y-70579002D02*
X143002000Y-69795120D01*
X146700500Y-74277502D02*
X143002000Y-70579002D01*
X146700500Y-74627300D02*
X146700500Y-74277502D01*
X143002000Y-69795120D02*
X146638110Y-66159010D01*
X146638110Y-66159010D02*
X151210110Y-66159010D01*
X151772990Y-66159010D02*
X152146000Y-65786000D01*
X151210110Y-66159010D02*
X151772990Y-66159010D01*
M02*
