G04 #@! TF.GenerationSoftware,KiCad,Pcbnew,(5.1.10)-1*
G04 #@! TF.CreationDate,2021-10-23T20:23:30-05:00*
G04 #@! TF.ProjectId,Board,426f6172-642e-46b6-9963-61645f706362,rev?*
G04 #@! TF.SameCoordinates,Original*
G04 #@! TF.FileFunction,Legend,Top*
G04 #@! TF.FilePolarity,Positive*
%FSLAX46Y46*%
G04 Gerber Fmt 4.6, Leading zero omitted, Abs format (unit mm)*
G04 Created by KiCad (PCBNEW (5.1.10)-1) date 2021-10-23 20:23:30*
%MOMM*%
%LPD*%
G01*
G04 APERTURE LIST*
%ADD10C,0.150000*%
%ADD11C,0.153000*%
%ADD12C,0.153300*%
%ADD13C,0.120000*%
%ADD14C,0.100000*%
%ADD15R,0.700000X1.600000*%
%ADD16C,1.000000*%
%ADD17R,1.600000X1.500000*%
%ADD18R,1.200000X2.200000*%
%ADD19R,1.200000X1.500000*%
%ADD20R,2.440000X1.120000*%
%ADD21R,0.740000X2.400000*%
%ADD22R,0.750000X2.400000*%
%ADD23R,2.400000X0.750000*%
%ADD24C,5.500000*%
%ADD25R,0.600000X0.450000*%
%ADD26R,0.500000X0.400000*%
%ADD27R,1.200000X1.400000*%
%ADD28R,1.380000X0.450000*%
%ADD29R,1.550000X1.425000*%
%ADD30R,1.300000X1.650000*%
%ADD31R,1.900000X1.800000*%
%ADD32R,1.900000X1.000000*%
%ADD33R,2.200000X1.050000*%
%ADD34R,1.000000X1.000000*%
%ADD35R,0.900000X0.800000*%
%ADD36R,1.060000X0.650000*%
%ADD37R,2.700000X2.700000*%
G04 APERTURE END LIST*
D10*
X120287976Y-88579761D02*
X120430833Y-88627380D01*
X120668928Y-88627380D01*
X120764166Y-88579761D01*
X120811785Y-88532142D01*
X120859404Y-88436904D01*
X120859404Y-88341666D01*
X120811785Y-88246428D01*
X120764166Y-88198809D01*
X120668928Y-88151190D01*
X120478452Y-88103571D01*
X120383214Y-88055952D01*
X120335595Y-88008333D01*
X120287976Y-87913095D01*
X120287976Y-87817857D01*
X120335595Y-87722619D01*
X120383214Y-87675000D01*
X120478452Y-87627380D01*
X120716547Y-87627380D01*
X120859404Y-87675000D01*
X121145119Y-87627380D02*
X121716547Y-87627380D01*
X121430833Y-88627380D02*
X121430833Y-87627380D01*
X122002261Y-88341666D02*
X122478452Y-88341666D01*
X121907023Y-88627380D02*
X122240357Y-87627380D01*
X122573690Y-88627380D01*
X122764166Y-87627380D02*
X123335595Y-87627380D01*
X123049880Y-88627380D02*
X123049880Y-87627380D01*
X123668928Y-88103571D02*
X124002261Y-88103571D01*
X124145119Y-88627380D02*
X123668928Y-88627380D01*
X123668928Y-87627380D01*
X124145119Y-87627380D01*
X125335595Y-88103571D02*
X125668928Y-88103571D01*
X125811785Y-88627380D02*
X125335595Y-88627380D01*
X125335595Y-87627380D01*
X125811785Y-87627380D01*
X126192738Y-88579761D02*
X126335595Y-88627380D01*
X126573690Y-88627380D01*
X126668928Y-88579761D01*
X126716547Y-88532142D01*
X126764166Y-88436904D01*
X126764166Y-88341666D01*
X126716547Y-88246428D01*
X126668928Y-88198809D01*
X126573690Y-88151190D01*
X126383214Y-88103571D01*
X126287976Y-88055952D01*
X126240357Y-88008333D01*
X126192738Y-87913095D01*
X126192738Y-87817857D01*
X126240357Y-87722619D01*
X126287976Y-87675000D01*
X126383214Y-87627380D01*
X126621309Y-87627380D01*
X126764166Y-87675000D01*
X127049880Y-87627380D02*
X127621309Y-87627380D01*
X127335595Y-88627380D02*
X127335595Y-87627380D01*
X127954642Y-88627380D02*
X127954642Y-87627380D01*
X128430833Y-88627380D02*
X128430833Y-87627380D01*
X128764166Y-88341666D01*
X129097500Y-87627380D01*
X129097500Y-88627380D01*
X129526071Y-88341666D02*
X130002261Y-88341666D01*
X129430833Y-88627380D02*
X129764166Y-87627380D01*
X130097500Y-88627380D01*
X130287976Y-87627380D02*
X130859404Y-87627380D01*
X130573690Y-88627380D02*
X130573690Y-87627380D01*
X131383214Y-87627380D02*
X131573690Y-87627380D01*
X131668928Y-87675000D01*
X131764166Y-87770238D01*
X131811785Y-87960714D01*
X131811785Y-88294047D01*
X131764166Y-88484523D01*
X131668928Y-88579761D01*
X131573690Y-88627380D01*
X131383214Y-88627380D01*
X131287976Y-88579761D01*
X131192738Y-88484523D01*
X131145119Y-88294047D01*
X131145119Y-87960714D01*
X131192738Y-87770238D01*
X131287976Y-87675000D01*
X131383214Y-87627380D01*
X132811785Y-88627380D02*
X132478452Y-88151190D01*
X132240357Y-88627380D02*
X132240357Y-87627380D01*
X132621309Y-87627380D01*
X132716547Y-87675000D01*
X132764166Y-87722619D01*
X132811785Y-87817857D01*
X132811785Y-87960714D01*
X132764166Y-88055952D01*
X132716547Y-88103571D01*
X132621309Y-88151190D01*
X132240357Y-88151190D01*
X120192738Y-89277380D02*
X120526071Y-90277380D01*
X120859404Y-89277380D01*
X121383214Y-89277380D02*
X121478452Y-89277380D01*
X121573690Y-89325000D01*
X121621309Y-89372619D01*
X121668928Y-89467857D01*
X121716547Y-89658333D01*
X121716547Y-89896428D01*
X121668928Y-90086904D01*
X121621309Y-90182142D01*
X121573690Y-90229761D01*
X121478452Y-90277380D01*
X121383214Y-90277380D01*
X121287976Y-90229761D01*
X121240357Y-90182142D01*
X121192738Y-90086904D01*
X121145119Y-89896428D01*
X121145119Y-89658333D01*
X121192738Y-89467857D01*
X121240357Y-89372619D01*
X121287976Y-89325000D01*
X121383214Y-89277380D01*
X122145119Y-90182142D02*
X122192738Y-90229761D01*
X122145119Y-90277380D01*
X122097500Y-90229761D01*
X122145119Y-90182142D01*
X122145119Y-90277380D01*
X123145119Y-90277380D02*
X122573690Y-90277380D01*
X122859404Y-90277380D02*
X122859404Y-89277380D01*
X122764166Y-89420238D01*
X122668928Y-89515476D01*
X122573690Y-89563095D01*
D11*
X167675238Y-80147142D02*
X168284761Y-80147142D01*
X167980000Y-80451904D02*
X167980000Y-79842380D01*
X172445238Y-68217142D02*
X173054761Y-68217142D01*
X172750000Y-68521904D02*
X172750000Y-67912380D01*
X128755238Y-64337142D02*
X129364761Y-64337142D01*
X129060000Y-64641904D02*
X129060000Y-64032380D01*
X125155238Y-64367142D02*
X125764761Y-64367142D01*
X125460000Y-64671904D02*
X125460000Y-64062380D01*
X125275238Y-59527142D02*
X125884761Y-59527142D01*
X125580000Y-59831904D02*
X125580000Y-59222380D01*
X129165238Y-59487142D02*
X129774761Y-59487142D01*
X129470000Y-59791904D02*
X129470000Y-59182380D01*
X138941904Y-79321428D02*
X138141904Y-79321428D01*
X138522857Y-79321428D02*
X138522857Y-78864285D01*
X138941904Y-78864285D02*
X138141904Y-78864285D01*
X138903809Y-78521428D02*
X138941904Y-78407142D01*
X138941904Y-78216666D01*
X138903809Y-78140476D01*
X138865714Y-78102380D01*
X138789523Y-78064285D01*
X138713333Y-78064285D01*
X138637142Y-78102380D01*
X138599047Y-78140476D01*
X138560952Y-78216666D01*
X138522857Y-78369047D01*
X138484761Y-78445238D01*
X138446666Y-78483333D01*
X138370476Y-78521428D01*
X138294285Y-78521428D01*
X138218095Y-78483333D01*
X138180000Y-78445238D01*
X138141904Y-78369047D01*
X138141904Y-78178571D01*
X138180000Y-78064285D01*
X138522857Y-77721428D02*
X138522857Y-77454761D01*
X138941904Y-77340476D02*
X138941904Y-77721428D01*
X138141904Y-77721428D01*
X138141904Y-77340476D01*
X161379523Y-64091904D02*
X161874761Y-64091904D01*
X161608095Y-64396666D01*
X161722380Y-64396666D01*
X161798571Y-64434761D01*
X161836666Y-64472857D01*
X161874761Y-64549047D01*
X161874761Y-64739523D01*
X161836666Y-64815714D01*
X161798571Y-64853809D01*
X161722380Y-64891904D01*
X161493809Y-64891904D01*
X161417619Y-64853809D01*
X161379523Y-64815714D01*
X162103333Y-64091904D02*
X162370000Y-64891904D01*
X162636666Y-64091904D01*
X162827142Y-64091904D02*
X163322380Y-64091904D01*
X163055714Y-64396666D01*
X163170000Y-64396666D01*
X163246190Y-64434761D01*
X163284285Y-64472857D01*
X163322380Y-64549047D01*
X163322380Y-64739523D01*
X163284285Y-64815714D01*
X163246190Y-64853809D01*
X163170000Y-64891904D01*
X162941428Y-64891904D01*
X162865238Y-64853809D01*
X162827142Y-64815714D01*
X154800000Y-63009523D02*
X154761904Y-63085714D01*
X154761904Y-63200000D01*
X154800000Y-63314285D01*
X154876190Y-63390476D01*
X154952380Y-63428571D01*
X155104761Y-63466666D01*
X155219047Y-63466666D01*
X155371428Y-63428571D01*
X155447619Y-63390476D01*
X155523809Y-63314285D01*
X155561904Y-63200000D01*
X155561904Y-63123809D01*
X155523809Y-63009523D01*
X155485714Y-62971428D01*
X155219047Y-62971428D01*
X155219047Y-63123809D01*
X155561904Y-62628571D02*
X154761904Y-62628571D01*
X155561904Y-62171428D01*
X154761904Y-62171428D01*
X155561904Y-61790476D02*
X154761904Y-61790476D01*
X154761904Y-61600000D01*
X154800000Y-61485714D01*
X154876190Y-61409523D01*
X154952380Y-61371428D01*
X155104761Y-61333333D01*
X155219047Y-61333333D01*
X155371428Y-61371428D01*
X155447619Y-61409523D01*
X155523809Y-61485714D01*
X155561904Y-61600000D01*
X155561904Y-61790476D01*
X160793809Y-74955238D02*
X160831904Y-74840952D01*
X160831904Y-74650476D01*
X160793809Y-74574285D01*
X160755714Y-74536190D01*
X160679523Y-74498095D01*
X160603333Y-74498095D01*
X160527142Y-74536190D01*
X160489047Y-74574285D01*
X160450952Y-74650476D01*
X160412857Y-74802857D01*
X160374761Y-74879047D01*
X160336666Y-74917142D01*
X160260476Y-74955238D01*
X160184285Y-74955238D01*
X160108095Y-74917142D01*
X160070000Y-74879047D01*
X160031904Y-74802857D01*
X160031904Y-74612380D01*
X160070000Y-74498095D01*
X160031904Y-74231428D02*
X160831904Y-74040952D01*
X160260476Y-73888571D01*
X160831904Y-73736190D01*
X160031904Y-73545714D01*
X160831904Y-73240952D02*
X160031904Y-73240952D01*
X160031904Y-73050476D01*
X160070000Y-72936190D01*
X160146190Y-72860000D01*
X160222380Y-72821904D01*
X160374761Y-72783809D01*
X160489047Y-72783809D01*
X160641428Y-72821904D01*
X160717619Y-72860000D01*
X160793809Y-72936190D01*
X160831904Y-73050476D01*
X160831904Y-73240952D01*
X160831904Y-72440952D02*
X160031904Y-72440952D01*
X160031904Y-71907619D02*
X160031904Y-71755238D01*
X160070000Y-71679047D01*
X160146190Y-71602857D01*
X160298571Y-71564761D01*
X160565238Y-71564761D01*
X160717619Y-71602857D01*
X160793809Y-71679047D01*
X160831904Y-71755238D01*
X160831904Y-71907619D01*
X160793809Y-71983809D01*
X160717619Y-72060000D01*
X160565238Y-72098095D01*
X160298571Y-72098095D01*
X160146190Y-72060000D01*
X160070000Y-71983809D01*
X160031904Y-71907619D01*
X159443809Y-75289523D02*
X159481904Y-75175238D01*
X159481904Y-74984761D01*
X159443809Y-74908571D01*
X159405714Y-74870476D01*
X159329523Y-74832380D01*
X159253333Y-74832380D01*
X159177142Y-74870476D01*
X159139047Y-74908571D01*
X159100952Y-74984761D01*
X159062857Y-75137142D01*
X159024761Y-75213333D01*
X158986666Y-75251428D01*
X158910476Y-75289523D01*
X158834285Y-75289523D01*
X158758095Y-75251428D01*
X158720000Y-75213333D01*
X158681904Y-75137142D01*
X158681904Y-74946666D01*
X158720000Y-74832380D01*
X158681904Y-74565714D02*
X159481904Y-74375238D01*
X158910476Y-74222857D01*
X159481904Y-74070476D01*
X158681904Y-73880000D01*
X159405714Y-73118095D02*
X159443809Y-73156190D01*
X159481904Y-73270476D01*
X159481904Y-73346666D01*
X159443809Y-73460952D01*
X159367619Y-73537142D01*
X159291428Y-73575238D01*
X159139047Y-73613333D01*
X159024761Y-73613333D01*
X158872380Y-73575238D01*
X158796190Y-73537142D01*
X158720000Y-73460952D01*
X158681904Y-73346666D01*
X158681904Y-73270476D01*
X158720000Y-73156190D01*
X158758095Y-73118095D01*
X159481904Y-72394285D02*
X159481904Y-72775238D01*
X158681904Y-72775238D01*
X159481904Y-72127619D02*
X158681904Y-72127619D01*
X159481904Y-71670476D02*
X159024761Y-72013333D01*
X158681904Y-71670476D02*
X159139047Y-72127619D01*
X158143809Y-73854761D02*
X158181904Y-73740476D01*
X158181904Y-73550000D01*
X158143809Y-73473809D01*
X158105714Y-73435714D01*
X158029523Y-73397619D01*
X157953333Y-73397619D01*
X157877142Y-73435714D01*
X157839047Y-73473809D01*
X157800952Y-73550000D01*
X157762857Y-73702380D01*
X157724761Y-73778571D01*
X157686666Y-73816666D01*
X157610476Y-73854761D01*
X157534285Y-73854761D01*
X157458095Y-73816666D01*
X157420000Y-73778571D01*
X157381904Y-73702380D01*
X157381904Y-73511904D01*
X157420000Y-73397619D01*
X157381904Y-73130952D02*
X158181904Y-72940476D01*
X157610476Y-72788095D01*
X158181904Y-72635714D01*
X157381904Y-72445238D01*
X157381904Y-71988095D02*
X157381904Y-71835714D01*
X157420000Y-71759523D01*
X157496190Y-71683333D01*
X157648571Y-71645238D01*
X157915238Y-71645238D01*
X158067619Y-71683333D01*
X158143809Y-71759523D01*
X158181904Y-71835714D01*
X158181904Y-71988095D01*
X158143809Y-72064285D01*
X158067619Y-72140476D01*
X157915238Y-72178571D01*
X157648571Y-72178571D01*
X157496190Y-72140476D01*
X157420000Y-72064285D01*
X157381904Y-71988095D01*
X155771904Y-74214285D02*
X154971904Y-74214285D01*
X155771904Y-73757142D01*
X154971904Y-73757142D01*
X155771904Y-72919047D02*
X155390952Y-73185714D01*
X155771904Y-73376190D02*
X154971904Y-73376190D01*
X154971904Y-73071428D01*
X155010000Y-72995238D01*
X155048095Y-72957142D01*
X155124285Y-72919047D01*
X155238571Y-72919047D01*
X155314761Y-72957142D01*
X155352857Y-72995238D01*
X155390952Y-73071428D01*
X155390952Y-73376190D01*
X155733809Y-72614285D02*
X155771904Y-72500000D01*
X155771904Y-72309523D01*
X155733809Y-72233333D01*
X155695714Y-72195238D01*
X155619523Y-72157142D01*
X155543333Y-72157142D01*
X155467142Y-72195238D01*
X155429047Y-72233333D01*
X155390952Y-72309523D01*
X155352857Y-72461904D01*
X155314761Y-72538095D01*
X155276666Y-72576190D01*
X155200476Y-72614285D01*
X155124285Y-72614285D01*
X155048095Y-72576190D01*
X155010000Y-72538095D01*
X154971904Y-72461904D01*
X154971904Y-72271428D01*
X155010000Y-72157142D01*
X154971904Y-71928571D02*
X154971904Y-71471428D01*
X155771904Y-71700000D02*
X154971904Y-71700000D01*
X153704761Y-69307142D02*
X153752380Y-69164285D01*
X153752380Y-68926190D01*
X153704761Y-68830952D01*
X153657142Y-68783333D01*
X153561904Y-68735714D01*
X153466666Y-68735714D01*
X153371428Y-68783333D01*
X153323809Y-68830952D01*
X153276190Y-68926190D01*
X153228571Y-69116666D01*
X153180952Y-69211904D01*
X153133333Y-69259523D01*
X153038095Y-69307142D01*
X152942857Y-69307142D01*
X152847619Y-69259523D01*
X152800000Y-69211904D01*
X152752380Y-69116666D01*
X152752380Y-68878571D01*
X152800000Y-68735714D01*
X152752380Y-68402380D02*
X153752380Y-68164285D01*
X153038095Y-67973809D01*
X153752380Y-67783333D01*
X152752380Y-67545238D01*
X153752380Y-67164285D02*
X152752380Y-67164285D01*
X152752380Y-66926190D01*
X152800000Y-66783333D01*
X152895238Y-66688095D01*
X152990476Y-66640476D01*
X153180952Y-66592857D01*
X153323809Y-66592857D01*
X153514285Y-66640476D01*
X153609523Y-66688095D01*
X153704761Y-66783333D01*
X153752380Y-66926190D01*
X153752380Y-67164285D01*
X165736666Y-58772380D02*
X165736666Y-57772380D01*
X166117619Y-57772380D01*
X166212857Y-57820000D01*
X166260476Y-57867619D01*
X166308095Y-57962857D01*
X166308095Y-58105714D01*
X166260476Y-58200952D01*
X166212857Y-58248571D01*
X166117619Y-58296190D01*
X165736666Y-58296190D01*
X166641428Y-57772380D02*
X166879523Y-58772380D01*
X167070000Y-58058095D01*
X167260476Y-58772380D01*
X167498571Y-57772380D01*
X168450952Y-58772380D02*
X168117619Y-58296190D01*
X167879523Y-58772380D02*
X167879523Y-57772380D01*
X168260476Y-57772380D01*
X168355714Y-57820000D01*
X168403333Y-57867619D01*
X168450952Y-57962857D01*
X168450952Y-58105714D01*
X168403333Y-58200952D01*
X168355714Y-58248571D01*
X168260476Y-58296190D01*
X167879523Y-58296190D01*
D12*
X120884285Y-68258571D02*
X121027142Y-68306190D01*
X121074761Y-68353809D01*
X121122380Y-68449047D01*
X121122380Y-68591904D01*
X121074761Y-68687142D01*
X121027142Y-68734761D01*
X120931904Y-68782380D01*
X120550952Y-68782380D01*
X120550952Y-67782380D01*
X120884285Y-67782380D01*
X120979523Y-67830000D01*
X121027142Y-67877619D01*
X121074761Y-67972857D01*
X121074761Y-68068095D01*
X121027142Y-68163333D01*
X120979523Y-68210952D01*
X120884285Y-68258571D01*
X120550952Y-68258571D01*
X122027142Y-68782380D02*
X121550952Y-68782380D01*
X121550952Y-67782380D01*
X122360476Y-68258571D02*
X122693809Y-68258571D01*
X122836666Y-68782380D02*
X122360476Y-68782380D01*
X122360476Y-67782380D01*
X122836666Y-67782380D01*
D11*
X156044761Y-92112380D02*
X156044761Y-91112380D01*
X156520952Y-92112380D02*
X156520952Y-91112380D01*
X156854285Y-91826666D01*
X157187619Y-91112380D01*
X157187619Y-92112380D01*
X157663809Y-91112380D02*
X157663809Y-91921904D01*
X157711428Y-92017142D01*
X157759047Y-92064761D01*
X157854285Y-92112380D01*
X158044761Y-92112380D01*
X158140000Y-92064761D01*
X158187619Y-92017142D01*
X158235238Y-91921904D01*
X158235238Y-91112380D01*
X164498095Y-95322380D02*
X164498095Y-94322380D01*
X164831428Y-95036666D01*
X165164761Y-94322380D01*
X165164761Y-95322380D01*
X165593333Y-95036666D02*
X166069523Y-95036666D01*
X165498095Y-95322380D02*
X165831428Y-94322380D01*
X166164761Y-95322380D01*
X167021904Y-94370000D02*
X166926666Y-94322380D01*
X166783809Y-94322380D01*
X166640952Y-94370000D01*
X166545714Y-94465238D01*
X166498095Y-94560476D01*
X166450476Y-94750952D01*
X166450476Y-94893809D01*
X166498095Y-95084285D01*
X166545714Y-95179523D01*
X166640952Y-95274761D01*
X166783809Y-95322380D01*
X166879047Y-95322380D01*
X167021904Y-95274761D01*
X167069523Y-95227142D01*
X167069523Y-94893809D01*
X166879047Y-94893809D01*
X171229047Y-87191428D02*
X171990952Y-87191428D01*
X171610000Y-87572380D02*
X171610000Y-86810476D01*
X172559047Y-76681428D02*
X173320952Y-76681428D01*
X172611904Y-72795714D02*
X172611904Y-73462380D01*
X172373809Y-72414761D02*
X172135714Y-73129047D01*
X172754761Y-73129047D01*
X172992857Y-72462380D02*
X173326190Y-73462380D01*
X173659523Y-72462380D01*
X174210952Y-71028571D02*
X174353809Y-71076190D01*
X174401428Y-71123809D01*
X174449047Y-71219047D01*
X174449047Y-71361904D01*
X174401428Y-71457142D01*
X174353809Y-71504761D01*
X174258571Y-71552380D01*
X173877619Y-71552380D01*
X173877619Y-70552380D01*
X174210952Y-70552380D01*
X174306190Y-70600000D01*
X174353809Y-70647619D01*
X174401428Y-70742857D01*
X174401428Y-70838095D01*
X174353809Y-70933333D01*
X174306190Y-70980952D01*
X174210952Y-71028571D01*
X173877619Y-71028571D01*
X174830000Y-71266666D02*
X175306190Y-71266666D01*
X174734761Y-71552380D02*
X175068095Y-70552380D01*
X175401428Y-71552380D01*
X175591904Y-70552380D02*
X176163333Y-70552380D01*
X175877619Y-71552380D02*
X175877619Y-70552380D01*
X176353809Y-70552380D02*
X176925238Y-70552380D01*
X176639523Y-71552380D02*
X176639523Y-70552380D01*
X173618095Y-90212380D02*
X173618095Y-91021904D01*
X173665714Y-91117142D01*
X173713333Y-91164761D01*
X173808571Y-91212380D01*
X173999047Y-91212380D01*
X174094285Y-91164761D01*
X174141904Y-91117142D01*
X174189523Y-91021904D01*
X174189523Y-90212380D01*
X174618095Y-91164761D02*
X174760952Y-91212380D01*
X174999047Y-91212380D01*
X175094285Y-91164761D01*
X175141904Y-91117142D01*
X175189523Y-91021904D01*
X175189523Y-90926666D01*
X175141904Y-90831428D01*
X175094285Y-90783809D01*
X174999047Y-90736190D01*
X174808571Y-90688571D01*
X174713333Y-90640952D01*
X174665714Y-90593333D01*
X174618095Y-90498095D01*
X174618095Y-90402857D01*
X174665714Y-90307619D01*
X174713333Y-90260000D01*
X174808571Y-90212380D01*
X175046666Y-90212380D01*
X175189523Y-90260000D01*
X175951428Y-90688571D02*
X176094285Y-90736190D01*
X176141904Y-90783809D01*
X176189523Y-90879047D01*
X176189523Y-91021904D01*
X176141904Y-91117142D01*
X176094285Y-91164761D01*
X175999047Y-91212380D01*
X175618095Y-91212380D01*
X175618095Y-90212380D01*
X175951428Y-90212380D01*
X176046666Y-90260000D01*
X176094285Y-90307619D01*
X176141904Y-90402857D01*
X176141904Y-90498095D01*
X176094285Y-90593333D01*
X176046666Y-90640952D01*
X175951428Y-90688571D01*
X175618095Y-90688571D01*
X154445714Y-104880000D02*
X154350476Y-104832380D01*
X154207619Y-104832380D01*
X154064761Y-104880000D01*
X153969523Y-104975238D01*
X153921904Y-105070476D01*
X153874285Y-105260952D01*
X153874285Y-105403809D01*
X153921904Y-105594285D01*
X153969523Y-105689523D01*
X154064761Y-105784761D01*
X154207619Y-105832380D01*
X154302857Y-105832380D01*
X154445714Y-105784761D01*
X154493333Y-105737142D01*
X154493333Y-105403809D01*
X154302857Y-105403809D01*
X154921904Y-105832380D02*
X154921904Y-104832380D01*
X155302857Y-104832380D01*
X155398095Y-104880000D01*
X155445714Y-104927619D01*
X155493333Y-105022857D01*
X155493333Y-105165714D01*
X155445714Y-105260952D01*
X155398095Y-105308571D01*
X155302857Y-105356190D01*
X154921904Y-105356190D01*
X155874285Y-105784761D02*
X156017142Y-105832380D01*
X156255238Y-105832380D01*
X156350476Y-105784761D01*
X156398095Y-105737142D01*
X156445714Y-105641904D01*
X156445714Y-105546666D01*
X156398095Y-105451428D01*
X156350476Y-105403809D01*
X156255238Y-105356190D01*
X156064761Y-105308571D01*
X155969523Y-105260952D01*
X155921904Y-105213333D01*
X155874285Y-105118095D01*
X155874285Y-105022857D01*
X155921904Y-104927619D01*
X155969523Y-104880000D01*
X156064761Y-104832380D01*
X156302857Y-104832380D01*
X156445714Y-104880000D01*
X119380952Y-75882380D02*
X119380952Y-76596666D01*
X119333333Y-76739523D01*
X119238095Y-76834761D01*
X119095238Y-76882380D01*
X119000000Y-76882380D01*
X120333333Y-76882380D02*
X119857142Y-76882380D01*
X119857142Y-75882380D01*
X121238095Y-76787142D02*
X121190476Y-76834761D01*
X121047619Y-76882380D01*
X120952380Y-76882380D01*
X120809523Y-76834761D01*
X120714285Y-76739523D01*
X120666666Y-76644285D01*
X120619047Y-76453809D01*
X120619047Y-76310952D01*
X120666666Y-76120476D01*
X120714285Y-76025238D01*
X120809523Y-75930000D01*
X120952380Y-75882380D01*
X121047619Y-75882380D01*
X121190476Y-75930000D01*
X121238095Y-75977619D01*
X121952380Y-75882380D02*
X121952380Y-76596666D01*
X121904761Y-76739523D01*
X121809523Y-76834761D01*
X121666666Y-76882380D01*
X121571428Y-76882380D01*
X122904761Y-76882380D02*
X122428571Y-76882380D01*
X122428571Y-75882380D01*
X123809523Y-76787142D02*
X123761904Y-76834761D01*
X123619047Y-76882380D01*
X123523809Y-76882380D01*
X123380952Y-76834761D01*
X123285714Y-76739523D01*
X123238095Y-76644285D01*
X123190476Y-76453809D01*
X123190476Y-76310952D01*
X123238095Y-76120476D01*
X123285714Y-76025238D01*
X123380952Y-75930000D01*
X123523809Y-75882380D01*
X123619047Y-75882380D01*
X123761904Y-75930000D01*
X123809523Y-75977619D01*
X124523809Y-75882380D02*
X124523809Y-76596666D01*
X124476190Y-76739523D01*
X124380952Y-76834761D01*
X124238095Y-76882380D01*
X124142857Y-76882380D01*
X125476190Y-76882380D02*
X125000000Y-76882380D01*
X125000000Y-75882380D01*
X126380952Y-76787142D02*
X126333333Y-76834761D01*
X126190476Y-76882380D01*
X126095238Y-76882380D01*
X125952380Y-76834761D01*
X125857142Y-76739523D01*
X125809523Y-76644285D01*
X125761904Y-76453809D01*
X125761904Y-76310952D01*
X125809523Y-76120476D01*
X125857142Y-76025238D01*
X125952380Y-75930000D01*
X126095238Y-75882380D01*
X126190476Y-75882380D01*
X126333333Y-75930000D01*
X126380952Y-75977619D01*
X127095238Y-75882380D02*
X127095238Y-76596666D01*
X127047619Y-76739523D01*
X126952380Y-76834761D01*
X126809523Y-76882380D01*
X126714285Y-76882380D01*
X128047619Y-76882380D02*
X127571428Y-76882380D01*
X127571428Y-75882380D01*
X128952380Y-76787142D02*
X128904761Y-76834761D01*
X128761904Y-76882380D01*
X128666666Y-76882380D01*
X128523809Y-76834761D01*
X128428571Y-76739523D01*
X128380952Y-76644285D01*
X128333333Y-76453809D01*
X128333333Y-76310952D01*
X128380952Y-76120476D01*
X128428571Y-76025238D01*
X128523809Y-75930000D01*
X128666666Y-75882380D01*
X128761904Y-75882380D01*
X128904761Y-75930000D01*
X128952380Y-75977619D01*
X127224761Y-99915238D02*
X127272380Y-99772380D01*
X127272380Y-99534285D01*
X127224761Y-99439047D01*
X127177142Y-99391428D01*
X127081904Y-99343809D01*
X126986666Y-99343809D01*
X126891428Y-99391428D01*
X126843809Y-99439047D01*
X126796190Y-99534285D01*
X126748571Y-99724761D01*
X126700952Y-99820000D01*
X126653333Y-99867619D01*
X126558095Y-99915238D01*
X126462857Y-99915238D01*
X126367619Y-99867619D01*
X126320000Y-99820000D01*
X126272380Y-99724761D01*
X126272380Y-99486666D01*
X126320000Y-99343809D01*
X127272380Y-98915238D02*
X126272380Y-98915238D01*
X126272380Y-98677142D01*
X126320000Y-98534285D01*
X126415238Y-98439047D01*
X126510476Y-98391428D01*
X126700952Y-98343809D01*
X126843809Y-98343809D01*
X127034285Y-98391428D01*
X127129523Y-98439047D01*
X127224761Y-98534285D01*
X127272380Y-98677142D01*
X127272380Y-98915238D01*
X127177142Y-96581904D02*
X127224761Y-96629523D01*
X127272380Y-96772380D01*
X127272380Y-96867619D01*
X127224761Y-97010476D01*
X127129523Y-97105714D01*
X127034285Y-97153333D01*
X126843809Y-97200952D01*
X126700952Y-97200952D01*
X126510476Y-97153333D01*
X126415238Y-97105714D01*
X126320000Y-97010476D01*
X126272380Y-96867619D01*
X126272380Y-96772380D01*
X126320000Y-96629523D01*
X126367619Y-96581904D01*
X126986666Y-96200952D02*
X126986666Y-95724761D01*
X127272380Y-96296190D02*
X126272380Y-95962857D01*
X127272380Y-95629523D01*
X127272380Y-94724761D02*
X126796190Y-95058095D01*
X127272380Y-95296190D02*
X126272380Y-95296190D01*
X126272380Y-94915238D01*
X126320000Y-94820000D01*
X126367619Y-94772380D01*
X126462857Y-94724761D01*
X126605714Y-94724761D01*
X126700952Y-94772380D01*
X126748571Y-94820000D01*
X126796190Y-94915238D01*
X126796190Y-95296190D01*
X127272380Y-94296190D02*
X126272380Y-94296190D01*
X126272380Y-94058095D01*
X126320000Y-93915238D01*
X126415238Y-93820000D01*
X126510476Y-93772380D01*
X126700952Y-93724761D01*
X126843809Y-93724761D01*
X127034285Y-93772380D01*
X127129523Y-93820000D01*
X127224761Y-93915238D01*
X127272380Y-94058095D01*
X127272380Y-94296190D01*
D13*
X167070990Y-63300000D02*
G75*
G03*
X167070990Y-63300000I-50990J0D01*
G01*
X149340000Y-63240000D02*
G75*
G03*
X149340000Y-63240000I-50000J0D01*
G01*
X138500000Y-59330000D02*
G75*
G03*
X138500000Y-59330000I-50000J0D01*
G01*
X142160000Y-79000000D02*
G75*
G03*
X142160000Y-79000000I-50000J0D01*
G01*
X163330000Y-101590000D02*
G75*
G03*
X163330000Y-101590000I-50000J0D01*
G01*
X167770000Y-87720000D02*
G75*
G03*
X167770000Y-87720000I-50000J0D01*
G01*
X158600000Y-85750000D02*
G75*
G03*
X158600000Y-85750000I-50000J0D01*
G01*
X171790000Y-86340000D02*
G75*
G03*
X171790000Y-86340000I-50000J0D01*
G01*
X167796569Y-76740000D02*
G75*
G03*
X167796569Y-76740000I-56569J0D01*
G01*
X161010990Y-64010000D02*
G75*
G03*
X161010990Y-64010000I-50990J0D01*
G01*
X119093852Y-85030000D02*
G75*
G03*
X119093852Y-85030000I-53852J0D01*
G01*
X139758310Y-92370000D02*
G75*
G03*
X139758310Y-92370000I-58310J0D01*
G01*
X149200000Y-93990000D02*
G75*
G03*
X149200000Y-93990000I-50000J0D01*
G01*
X127837000Y-107075000D02*
X127837000Y-92575000D01*
X146737000Y-107075000D02*
X127837000Y-107075000D01*
X146737000Y-92575000D02*
X146737000Y-107075000D01*
X127837000Y-92575000D02*
X146737000Y-92575000D01*
X164310000Y-62110000D02*
X157490000Y-62110000D01*
X164310000Y-57890000D02*
X157490000Y-57890000D01*
X164310000Y-62110000D02*
X164310000Y-60800000D01*
X164310000Y-59200000D02*
X164310000Y-57890000D01*
X157490000Y-62110000D02*
X157490000Y-60800000D01*
X157490000Y-59200000D02*
X157490000Y-57890000D01*
X164550000Y-62350000D02*
X163167000Y-62350000D01*
X164550000Y-62350000D02*
X164550000Y-60967000D01*
X162710000Y-60635000D02*
X162710000Y-59365000D01*
X162710000Y-59365000D02*
X159090000Y-59365000D01*
X159090000Y-59365000D02*
X159090000Y-60635000D01*
X159090000Y-60635000D02*
X162710000Y-60635000D01*
X162710000Y-60515000D02*
X161503333Y-60515000D01*
X162710000Y-60395000D02*
X161503333Y-60395000D01*
X162710000Y-60275000D02*
X161503333Y-60275000D01*
X162710000Y-60155000D02*
X161503333Y-60155000D01*
X162710000Y-60035000D02*
X161503333Y-60035000D01*
X162710000Y-59915000D02*
X161503333Y-59915000D01*
X162710000Y-59795000D02*
X161503333Y-59795000D01*
X162710000Y-59675000D02*
X161503333Y-59675000D01*
X162710000Y-59555000D02*
X161503333Y-59555000D01*
X162710000Y-59435000D02*
X161503333Y-59435000D01*
X161503333Y-60635000D02*
X161503333Y-59365000D01*
X161035000Y-66135000D02*
X161035000Y-69665000D01*
X154565000Y-66135000D02*
X154565000Y-69665000D01*
X160970000Y-64810000D02*
X160970000Y-66135000D01*
X161035000Y-66135000D02*
X160970000Y-66135000D01*
X161035000Y-69665000D02*
X160970000Y-69665000D01*
X154630000Y-66135000D02*
X154565000Y-66135000D01*
X154630000Y-69665000D02*
X154565000Y-69665000D01*
X143865500Y-78628000D02*
X142575500Y-78628000D01*
X143865500Y-78178000D02*
X143865500Y-78628000D01*
X144315500Y-78178000D02*
X143865500Y-78178000D01*
X151085500Y-78178000D02*
X151085500Y-78628000D01*
X150635500Y-78178000D02*
X151085500Y-78178000D01*
X143865500Y-85398000D02*
X143865500Y-84948000D01*
X144315500Y-85398000D02*
X143865500Y-85398000D01*
X151085500Y-85398000D02*
X151085500Y-84948000D01*
X150635500Y-85398000D02*
X151085500Y-85398000D01*
D14*
G36*
X117911000Y-70677000D02*
G01*
X117911000Y-82677000D01*
X113411000Y-82677000D01*
X113411000Y-70677000D01*
X117911000Y-70677000D01*
G37*
X117911000Y-70677000D02*
X117911000Y-82677000D01*
X113411000Y-82677000D01*
X113411000Y-70677000D01*
X117911000Y-70677000D01*
D13*
X113411000Y-82677000D02*
X113411000Y-70667000D01*
X131411000Y-70677000D02*
X113411000Y-70677000D01*
X131411000Y-82677000D02*
X131411000Y-70677000D01*
X113411000Y-82677000D02*
X131411000Y-82677000D01*
X165654420Y-72140000D02*
X165935580Y-72140000D01*
X165654420Y-73160000D02*
X165935580Y-73160000D01*
X167892000Y-74675420D02*
X167892000Y-74956580D01*
X168912000Y-74675420D02*
X168912000Y-74956580D01*
X147059420Y-64810000D02*
X147340580Y-64810000D01*
X147059420Y-63790000D02*
X147340580Y-63790000D01*
X147819580Y-59592000D02*
X147538420Y-59592000D01*
X147819580Y-58572000D02*
X147538420Y-58572000D01*
X152627420Y-74293000D02*
X152908580Y-74293000D01*
X152627420Y-75313000D02*
X152908580Y-75313000D01*
X135569420Y-77550000D02*
X135850580Y-77550000D01*
X135569420Y-76530000D02*
X135850580Y-76530000D01*
X152627420Y-77341000D02*
X152908580Y-77341000D01*
X152627420Y-78361000D02*
X152908580Y-78361000D01*
X135890580Y-83314000D02*
X135609420Y-83314000D01*
X135890580Y-82294000D02*
X135609420Y-82294000D01*
X152627420Y-76837000D02*
X152908580Y-76837000D01*
X152627420Y-75817000D02*
X152908580Y-75817000D01*
X141476000Y-76607580D02*
X141476000Y-76326420D01*
X142496000Y-76607580D02*
X142496000Y-76326420D01*
X150013580Y-88136000D02*
X149732420Y-88136000D01*
X150013580Y-89156000D02*
X149732420Y-89156000D01*
X143000000Y-76607580D02*
X143000000Y-76326420D01*
X144020000Y-76607580D02*
X144020000Y-76326420D01*
X150013580Y-89660000D02*
X149732420Y-89660000D01*
X150013580Y-90680000D02*
X149732420Y-90680000D01*
X141734000Y-83846580D02*
X141734000Y-83565420D01*
X140714000Y-83846580D02*
X140714000Y-83565420D01*
X140210000Y-83846580D02*
X140210000Y-83565420D01*
X139190000Y-83846580D02*
X139190000Y-83565420D01*
X148120000Y-99290580D02*
X148120000Y-99009420D01*
X149140000Y-99290580D02*
X149140000Y-99009420D01*
X152906000Y-89889420D02*
X152906000Y-90170580D01*
X153926000Y-89889420D02*
X153926000Y-90170580D01*
X160908420Y-88517000D02*
X161189580Y-88517000D01*
X160908420Y-89537000D02*
X161189580Y-89537000D01*
X169442000Y-66714000D02*
X171992000Y-66714000D01*
X169442000Y-68414000D02*
X171992000Y-68414000D01*
X169442000Y-66714000D02*
X169442000Y-68414000D01*
X164656500Y-80872000D02*
X166941500Y-80872000D01*
X164656500Y-79402000D02*
X164656500Y-80872000D01*
X166941500Y-79402000D02*
X164656500Y-79402000D01*
X127774500Y-59971000D02*
X125489500Y-59971000D01*
X125489500Y-59971000D02*
X125489500Y-61441000D01*
X125489500Y-61441000D02*
X127774500Y-61441000D01*
X129299500Y-61441000D02*
X131584500Y-61441000D01*
X129299500Y-59971000D02*
X129299500Y-61441000D01*
X131584500Y-59971000D02*
X129299500Y-59971000D01*
X139012000Y-59402000D02*
X140912000Y-59402000D01*
X138712000Y-59602000D02*
X138712000Y-60802000D01*
X138712000Y-59602000D02*
X139012000Y-59402000D01*
X140912000Y-60802000D02*
X140912000Y-59402000D01*
X138712000Y-60802000D02*
X140912000Y-60802000D01*
X127571500Y-64797000D02*
X125286500Y-64797000D01*
X125286500Y-64797000D02*
X125286500Y-66267000D01*
X125286500Y-66267000D02*
X127571500Y-66267000D01*
X129096500Y-66267000D02*
X131381500Y-66267000D01*
X129096500Y-64797000D02*
X129096500Y-66267000D01*
X131381500Y-64797000D02*
X129096500Y-64797000D01*
X166402936Y-68601000D02*
X167607064Y-68601000D01*
X166402936Y-66781000D02*
X167607064Y-66781000D01*
X153682000Y-60762000D02*
X150997000Y-60762000D01*
X153682000Y-62682000D02*
X153682000Y-60762000D01*
X150997000Y-62682000D02*
X153682000Y-62682000D01*
X136581000Y-85027500D02*
X136581000Y-87712500D01*
X136581000Y-87712500D02*
X138501000Y-87712500D01*
X138501000Y-87712500D02*
X138501000Y-85027500D01*
X133947000Y-77926000D02*
X133947000Y-81926000D01*
X137247000Y-77926000D02*
X133947000Y-77926000D01*
X177352000Y-88900000D02*
X177092000Y-88900000D01*
X174812000Y-88900000D02*
X173042000Y-88900000D01*
X173042000Y-88900000D02*
X173042000Y-88520000D01*
X173042000Y-81280000D02*
X174812000Y-81280000D01*
X177092000Y-81280000D02*
X177352000Y-81280000D01*
X173042000Y-81280000D02*
X173042000Y-81660000D01*
X177220000Y-73960000D02*
X177220000Y-75840000D01*
X174100000Y-77010000D02*
X174100000Y-75960000D01*
X175250000Y-77010000D02*
X174100000Y-77010000D01*
X174100000Y-73840000D02*
X173110000Y-73840000D01*
X174100000Y-72790000D02*
X174100000Y-73840000D01*
X175250000Y-72790000D02*
X174100000Y-72790000D01*
X167108000Y-100100000D02*
X167108000Y-100900000D01*
X166908000Y-100100000D02*
X167108000Y-100100000D01*
X167108000Y-103100000D02*
X166908000Y-103100000D01*
X167108000Y-102300000D02*
X167108000Y-103100000D01*
X164108000Y-103100000D02*
X164108000Y-102300000D01*
X164308000Y-103100000D02*
X164108000Y-103100000D01*
X164108000Y-100300000D02*
X164308000Y-100100000D01*
X164108000Y-100900000D02*
X164108000Y-100300000D01*
X164108000Y-100900000D02*
X163608000Y-100900000D01*
X164108000Y-102300000D02*
X163608000Y-102300000D01*
X162562000Y-101127779D02*
X162562000Y-100802221D01*
X161542000Y-101127779D02*
X161542000Y-100802221D01*
X169670000Y-66350000D02*
X168210000Y-66350000D01*
X169670000Y-63190000D02*
X167510000Y-63190000D01*
X169670000Y-63190000D02*
X169670000Y-64120000D01*
X169670000Y-66350000D02*
X169670000Y-65420000D01*
X168354742Y-61707500D02*
X168829258Y-61707500D01*
X168354742Y-62752500D02*
X168829258Y-62752500D01*
X163492500Y-75617258D02*
X163492500Y-75142742D01*
X162447500Y-75617258D02*
X162447500Y-75142742D01*
X152412258Y-59177500D02*
X151937742Y-59177500D01*
X152412258Y-60222500D02*
X151937742Y-60222500D01*
X166353258Y-78373500D02*
X165878742Y-78373500D01*
X166353258Y-77328500D02*
X165878742Y-77328500D01*
X126699742Y-61961500D02*
X127174258Y-61961500D01*
X126699742Y-63006500D02*
X127174258Y-63006500D01*
X136668742Y-63006500D02*
X137143258Y-63006500D01*
X136668742Y-61961500D02*
X137143258Y-61961500D01*
X130635742Y-63006500D02*
X131110258Y-63006500D01*
X130635742Y-61961500D02*
X131110258Y-61961500D01*
X139653742Y-61961500D02*
X140128258Y-61961500D01*
X139653742Y-63006500D02*
X140128258Y-63006500D01*
X142682742Y-63006500D02*
X143157258Y-63006500D01*
X142682742Y-61961500D02*
X143157258Y-61961500D01*
X126571742Y-66787500D02*
X127046258Y-66787500D01*
X126571742Y-67832500D02*
X127046258Y-67832500D01*
X139493258Y-80503500D02*
X139018742Y-80503500D01*
X139493258Y-81548500D02*
X139018742Y-81548500D01*
X130381742Y-67832500D02*
X130856258Y-67832500D01*
X130381742Y-66787500D02*
X130856258Y-66787500D01*
X147842500Y-72216742D02*
X147842500Y-72691258D01*
X146797500Y-72216742D02*
X146797500Y-72691258D01*
X145273500Y-72216742D02*
X145273500Y-72691258D01*
X146318500Y-72216742D02*
X146318500Y-72691258D01*
X143749500Y-72691258D02*
X143749500Y-72216742D01*
X144794500Y-72691258D02*
X144794500Y-72216742D01*
X164792000Y-76855000D02*
X167242000Y-76855000D01*
X166592000Y-73635000D02*
X164792000Y-73635000D01*
X167270000Y-82083000D02*
X164820000Y-82083000D01*
X165470000Y-85303000D02*
X167270000Y-85303000D01*
X146665000Y-60142000D02*
X146665000Y-61072000D01*
X146665000Y-63302000D02*
X146665000Y-62372000D01*
X146665000Y-63302000D02*
X148825000Y-63302000D01*
X146665000Y-60142000D02*
X148125000Y-60142000D01*
X149671000Y-94050000D02*
X150361000Y-94050000D01*
X150361000Y-93900000D02*
X150361000Y-94050000D01*
X160281000Y-93900000D02*
X160281000Y-94050000D01*
X150361000Y-104070000D02*
X150361000Y-104220000D01*
X160281000Y-104070000D02*
X160281000Y-104220000D01*
X150361000Y-104220000D02*
X160281000Y-104220000D01*
X150361000Y-93900000D02*
X160281000Y-93900000D01*
D10*
X158995000Y-90415000D02*
X158995000Y-89890000D01*
X154695000Y-90415000D02*
X154695000Y-89890000D01*
X154695000Y-86115000D02*
X154695000Y-86640000D01*
X158995000Y-86115000D02*
X158995000Y-86640000D01*
X154695000Y-90415000D02*
X155220000Y-90415000D01*
X154695000Y-86115000D02*
X155220000Y-86115000D01*
X158995000Y-90415000D02*
X158470000Y-90415000D01*
D13*
X169107000Y-89297000D02*
X169107000Y-88322000D01*
X163887000Y-93542000D02*
X164862000Y-93542000D01*
X163887000Y-92567000D02*
X163887000Y-93542000D01*
X163887000Y-88322000D02*
X164862000Y-88322000D01*
X163887000Y-89297000D02*
X163887000Y-88322000D01*
X169107000Y-93542000D02*
X168132000Y-93542000D01*
X169107000Y-92567000D02*
X169107000Y-93542000D01*
%LPC*%
D15*
X130737000Y-93775000D03*
D16*
X140337000Y-104775000D03*
X132337000Y-104775000D03*
D17*
X144137000Y-94775000D03*
D18*
X145037000Y-104375000D03*
X129537000Y-104375000D03*
D19*
X129537000Y-94775000D03*
D15*
X131837000Y-93775000D03*
X132937000Y-93775000D03*
X134037000Y-93775000D03*
X135137000Y-93775000D03*
X136237000Y-93775000D03*
X137337000Y-93775000D03*
X138437000Y-93775000D03*
X139537000Y-93775000D03*
D20*
X156595000Y-60000000D03*
X165205000Y-60000000D03*
D21*
X155260000Y-69850000D03*
X155260000Y-65950000D03*
X156530000Y-69850000D03*
X156530000Y-65950000D03*
X157800000Y-69850000D03*
X157800000Y-65950000D03*
X159070000Y-69850000D03*
X159070000Y-65950000D03*
X160340000Y-69850000D03*
X160340000Y-65950000D03*
G36*
G01*
X142575500Y-79113000D02*
X142575500Y-78963000D01*
G75*
G02*
X142650500Y-78888000I75000J0D01*
G01*
X143975500Y-78888000D01*
G75*
G02*
X144050500Y-78963000I0J-75000D01*
G01*
X144050500Y-79113000D01*
G75*
G02*
X143975500Y-79188000I-75000J0D01*
G01*
X142650500Y-79188000D01*
G75*
G02*
X142575500Y-79113000I0J75000D01*
G01*
G37*
G36*
G01*
X142575500Y-79613000D02*
X142575500Y-79463000D01*
G75*
G02*
X142650500Y-79388000I75000J0D01*
G01*
X143975500Y-79388000D01*
G75*
G02*
X144050500Y-79463000I0J-75000D01*
G01*
X144050500Y-79613000D01*
G75*
G02*
X143975500Y-79688000I-75000J0D01*
G01*
X142650500Y-79688000D01*
G75*
G02*
X142575500Y-79613000I0J75000D01*
G01*
G37*
G36*
G01*
X142575500Y-80113000D02*
X142575500Y-79963000D01*
G75*
G02*
X142650500Y-79888000I75000J0D01*
G01*
X143975500Y-79888000D01*
G75*
G02*
X144050500Y-79963000I0J-75000D01*
G01*
X144050500Y-80113000D01*
G75*
G02*
X143975500Y-80188000I-75000J0D01*
G01*
X142650500Y-80188000D01*
G75*
G02*
X142575500Y-80113000I0J75000D01*
G01*
G37*
G36*
G01*
X142575500Y-80613000D02*
X142575500Y-80463000D01*
G75*
G02*
X142650500Y-80388000I75000J0D01*
G01*
X143975500Y-80388000D01*
G75*
G02*
X144050500Y-80463000I0J-75000D01*
G01*
X144050500Y-80613000D01*
G75*
G02*
X143975500Y-80688000I-75000J0D01*
G01*
X142650500Y-80688000D01*
G75*
G02*
X142575500Y-80613000I0J75000D01*
G01*
G37*
G36*
G01*
X142575500Y-81113000D02*
X142575500Y-80963000D01*
G75*
G02*
X142650500Y-80888000I75000J0D01*
G01*
X143975500Y-80888000D01*
G75*
G02*
X144050500Y-80963000I0J-75000D01*
G01*
X144050500Y-81113000D01*
G75*
G02*
X143975500Y-81188000I-75000J0D01*
G01*
X142650500Y-81188000D01*
G75*
G02*
X142575500Y-81113000I0J75000D01*
G01*
G37*
G36*
G01*
X142575500Y-81613000D02*
X142575500Y-81463000D01*
G75*
G02*
X142650500Y-81388000I75000J0D01*
G01*
X143975500Y-81388000D01*
G75*
G02*
X144050500Y-81463000I0J-75000D01*
G01*
X144050500Y-81613000D01*
G75*
G02*
X143975500Y-81688000I-75000J0D01*
G01*
X142650500Y-81688000D01*
G75*
G02*
X142575500Y-81613000I0J75000D01*
G01*
G37*
G36*
G01*
X142575500Y-82113000D02*
X142575500Y-81963000D01*
G75*
G02*
X142650500Y-81888000I75000J0D01*
G01*
X143975500Y-81888000D01*
G75*
G02*
X144050500Y-81963000I0J-75000D01*
G01*
X144050500Y-82113000D01*
G75*
G02*
X143975500Y-82188000I-75000J0D01*
G01*
X142650500Y-82188000D01*
G75*
G02*
X142575500Y-82113000I0J75000D01*
G01*
G37*
G36*
G01*
X142575500Y-82613000D02*
X142575500Y-82463000D01*
G75*
G02*
X142650500Y-82388000I75000J0D01*
G01*
X143975500Y-82388000D01*
G75*
G02*
X144050500Y-82463000I0J-75000D01*
G01*
X144050500Y-82613000D01*
G75*
G02*
X143975500Y-82688000I-75000J0D01*
G01*
X142650500Y-82688000D01*
G75*
G02*
X142575500Y-82613000I0J75000D01*
G01*
G37*
G36*
G01*
X142575500Y-83113000D02*
X142575500Y-82963000D01*
G75*
G02*
X142650500Y-82888000I75000J0D01*
G01*
X143975500Y-82888000D01*
G75*
G02*
X144050500Y-82963000I0J-75000D01*
G01*
X144050500Y-83113000D01*
G75*
G02*
X143975500Y-83188000I-75000J0D01*
G01*
X142650500Y-83188000D01*
G75*
G02*
X142575500Y-83113000I0J75000D01*
G01*
G37*
G36*
G01*
X142575500Y-83613000D02*
X142575500Y-83463000D01*
G75*
G02*
X142650500Y-83388000I75000J0D01*
G01*
X143975500Y-83388000D01*
G75*
G02*
X144050500Y-83463000I0J-75000D01*
G01*
X144050500Y-83613000D01*
G75*
G02*
X143975500Y-83688000I-75000J0D01*
G01*
X142650500Y-83688000D01*
G75*
G02*
X142575500Y-83613000I0J75000D01*
G01*
G37*
G36*
G01*
X142575500Y-84113000D02*
X142575500Y-83963000D01*
G75*
G02*
X142650500Y-83888000I75000J0D01*
G01*
X143975500Y-83888000D01*
G75*
G02*
X144050500Y-83963000I0J-75000D01*
G01*
X144050500Y-84113000D01*
G75*
G02*
X143975500Y-84188000I-75000J0D01*
G01*
X142650500Y-84188000D01*
G75*
G02*
X142575500Y-84113000I0J75000D01*
G01*
G37*
G36*
G01*
X142575500Y-84613000D02*
X142575500Y-84463000D01*
G75*
G02*
X142650500Y-84388000I75000J0D01*
G01*
X143975500Y-84388000D01*
G75*
G02*
X144050500Y-84463000I0J-75000D01*
G01*
X144050500Y-84613000D01*
G75*
G02*
X143975500Y-84688000I-75000J0D01*
G01*
X142650500Y-84688000D01*
G75*
G02*
X142575500Y-84613000I0J75000D01*
G01*
G37*
G36*
G01*
X144575500Y-86613000D02*
X144575500Y-85288000D01*
G75*
G02*
X144650500Y-85213000I75000J0D01*
G01*
X144800500Y-85213000D01*
G75*
G02*
X144875500Y-85288000I0J-75000D01*
G01*
X144875500Y-86613000D01*
G75*
G02*
X144800500Y-86688000I-75000J0D01*
G01*
X144650500Y-86688000D01*
G75*
G02*
X144575500Y-86613000I0J75000D01*
G01*
G37*
G36*
G01*
X145075500Y-86613000D02*
X145075500Y-85288000D01*
G75*
G02*
X145150500Y-85213000I75000J0D01*
G01*
X145300500Y-85213000D01*
G75*
G02*
X145375500Y-85288000I0J-75000D01*
G01*
X145375500Y-86613000D01*
G75*
G02*
X145300500Y-86688000I-75000J0D01*
G01*
X145150500Y-86688000D01*
G75*
G02*
X145075500Y-86613000I0J75000D01*
G01*
G37*
G36*
G01*
X145575500Y-86613000D02*
X145575500Y-85288000D01*
G75*
G02*
X145650500Y-85213000I75000J0D01*
G01*
X145800500Y-85213000D01*
G75*
G02*
X145875500Y-85288000I0J-75000D01*
G01*
X145875500Y-86613000D01*
G75*
G02*
X145800500Y-86688000I-75000J0D01*
G01*
X145650500Y-86688000D01*
G75*
G02*
X145575500Y-86613000I0J75000D01*
G01*
G37*
G36*
G01*
X146075500Y-86613000D02*
X146075500Y-85288000D01*
G75*
G02*
X146150500Y-85213000I75000J0D01*
G01*
X146300500Y-85213000D01*
G75*
G02*
X146375500Y-85288000I0J-75000D01*
G01*
X146375500Y-86613000D01*
G75*
G02*
X146300500Y-86688000I-75000J0D01*
G01*
X146150500Y-86688000D01*
G75*
G02*
X146075500Y-86613000I0J75000D01*
G01*
G37*
G36*
G01*
X146575500Y-86613000D02*
X146575500Y-85288000D01*
G75*
G02*
X146650500Y-85213000I75000J0D01*
G01*
X146800500Y-85213000D01*
G75*
G02*
X146875500Y-85288000I0J-75000D01*
G01*
X146875500Y-86613000D01*
G75*
G02*
X146800500Y-86688000I-75000J0D01*
G01*
X146650500Y-86688000D01*
G75*
G02*
X146575500Y-86613000I0J75000D01*
G01*
G37*
G36*
G01*
X147075500Y-86613000D02*
X147075500Y-85288000D01*
G75*
G02*
X147150500Y-85213000I75000J0D01*
G01*
X147300500Y-85213000D01*
G75*
G02*
X147375500Y-85288000I0J-75000D01*
G01*
X147375500Y-86613000D01*
G75*
G02*
X147300500Y-86688000I-75000J0D01*
G01*
X147150500Y-86688000D01*
G75*
G02*
X147075500Y-86613000I0J75000D01*
G01*
G37*
G36*
G01*
X147575500Y-86613000D02*
X147575500Y-85288000D01*
G75*
G02*
X147650500Y-85213000I75000J0D01*
G01*
X147800500Y-85213000D01*
G75*
G02*
X147875500Y-85288000I0J-75000D01*
G01*
X147875500Y-86613000D01*
G75*
G02*
X147800500Y-86688000I-75000J0D01*
G01*
X147650500Y-86688000D01*
G75*
G02*
X147575500Y-86613000I0J75000D01*
G01*
G37*
G36*
G01*
X148075500Y-86613000D02*
X148075500Y-85288000D01*
G75*
G02*
X148150500Y-85213000I75000J0D01*
G01*
X148300500Y-85213000D01*
G75*
G02*
X148375500Y-85288000I0J-75000D01*
G01*
X148375500Y-86613000D01*
G75*
G02*
X148300500Y-86688000I-75000J0D01*
G01*
X148150500Y-86688000D01*
G75*
G02*
X148075500Y-86613000I0J75000D01*
G01*
G37*
G36*
G01*
X148575500Y-86613000D02*
X148575500Y-85288000D01*
G75*
G02*
X148650500Y-85213000I75000J0D01*
G01*
X148800500Y-85213000D01*
G75*
G02*
X148875500Y-85288000I0J-75000D01*
G01*
X148875500Y-86613000D01*
G75*
G02*
X148800500Y-86688000I-75000J0D01*
G01*
X148650500Y-86688000D01*
G75*
G02*
X148575500Y-86613000I0J75000D01*
G01*
G37*
G36*
G01*
X149075500Y-86613000D02*
X149075500Y-85288000D01*
G75*
G02*
X149150500Y-85213000I75000J0D01*
G01*
X149300500Y-85213000D01*
G75*
G02*
X149375500Y-85288000I0J-75000D01*
G01*
X149375500Y-86613000D01*
G75*
G02*
X149300500Y-86688000I-75000J0D01*
G01*
X149150500Y-86688000D01*
G75*
G02*
X149075500Y-86613000I0J75000D01*
G01*
G37*
G36*
G01*
X149575500Y-86613000D02*
X149575500Y-85288000D01*
G75*
G02*
X149650500Y-85213000I75000J0D01*
G01*
X149800500Y-85213000D01*
G75*
G02*
X149875500Y-85288000I0J-75000D01*
G01*
X149875500Y-86613000D01*
G75*
G02*
X149800500Y-86688000I-75000J0D01*
G01*
X149650500Y-86688000D01*
G75*
G02*
X149575500Y-86613000I0J75000D01*
G01*
G37*
G36*
G01*
X150075500Y-86613000D02*
X150075500Y-85288000D01*
G75*
G02*
X150150500Y-85213000I75000J0D01*
G01*
X150300500Y-85213000D01*
G75*
G02*
X150375500Y-85288000I0J-75000D01*
G01*
X150375500Y-86613000D01*
G75*
G02*
X150300500Y-86688000I-75000J0D01*
G01*
X150150500Y-86688000D01*
G75*
G02*
X150075500Y-86613000I0J75000D01*
G01*
G37*
G36*
G01*
X150900500Y-84613000D02*
X150900500Y-84463000D01*
G75*
G02*
X150975500Y-84388000I75000J0D01*
G01*
X152300500Y-84388000D01*
G75*
G02*
X152375500Y-84463000I0J-75000D01*
G01*
X152375500Y-84613000D01*
G75*
G02*
X152300500Y-84688000I-75000J0D01*
G01*
X150975500Y-84688000D01*
G75*
G02*
X150900500Y-84613000I0J75000D01*
G01*
G37*
G36*
G01*
X150900500Y-84113000D02*
X150900500Y-83963000D01*
G75*
G02*
X150975500Y-83888000I75000J0D01*
G01*
X152300500Y-83888000D01*
G75*
G02*
X152375500Y-83963000I0J-75000D01*
G01*
X152375500Y-84113000D01*
G75*
G02*
X152300500Y-84188000I-75000J0D01*
G01*
X150975500Y-84188000D01*
G75*
G02*
X150900500Y-84113000I0J75000D01*
G01*
G37*
G36*
G01*
X150900500Y-83613000D02*
X150900500Y-83463000D01*
G75*
G02*
X150975500Y-83388000I75000J0D01*
G01*
X152300500Y-83388000D01*
G75*
G02*
X152375500Y-83463000I0J-75000D01*
G01*
X152375500Y-83613000D01*
G75*
G02*
X152300500Y-83688000I-75000J0D01*
G01*
X150975500Y-83688000D01*
G75*
G02*
X150900500Y-83613000I0J75000D01*
G01*
G37*
G36*
G01*
X150900500Y-83113000D02*
X150900500Y-82963000D01*
G75*
G02*
X150975500Y-82888000I75000J0D01*
G01*
X152300500Y-82888000D01*
G75*
G02*
X152375500Y-82963000I0J-75000D01*
G01*
X152375500Y-83113000D01*
G75*
G02*
X152300500Y-83188000I-75000J0D01*
G01*
X150975500Y-83188000D01*
G75*
G02*
X150900500Y-83113000I0J75000D01*
G01*
G37*
G36*
G01*
X150900500Y-82613000D02*
X150900500Y-82463000D01*
G75*
G02*
X150975500Y-82388000I75000J0D01*
G01*
X152300500Y-82388000D01*
G75*
G02*
X152375500Y-82463000I0J-75000D01*
G01*
X152375500Y-82613000D01*
G75*
G02*
X152300500Y-82688000I-75000J0D01*
G01*
X150975500Y-82688000D01*
G75*
G02*
X150900500Y-82613000I0J75000D01*
G01*
G37*
G36*
G01*
X150900500Y-82113000D02*
X150900500Y-81963000D01*
G75*
G02*
X150975500Y-81888000I75000J0D01*
G01*
X152300500Y-81888000D01*
G75*
G02*
X152375500Y-81963000I0J-75000D01*
G01*
X152375500Y-82113000D01*
G75*
G02*
X152300500Y-82188000I-75000J0D01*
G01*
X150975500Y-82188000D01*
G75*
G02*
X150900500Y-82113000I0J75000D01*
G01*
G37*
G36*
G01*
X150900500Y-81613000D02*
X150900500Y-81463000D01*
G75*
G02*
X150975500Y-81388000I75000J0D01*
G01*
X152300500Y-81388000D01*
G75*
G02*
X152375500Y-81463000I0J-75000D01*
G01*
X152375500Y-81613000D01*
G75*
G02*
X152300500Y-81688000I-75000J0D01*
G01*
X150975500Y-81688000D01*
G75*
G02*
X150900500Y-81613000I0J75000D01*
G01*
G37*
G36*
G01*
X150900500Y-81113000D02*
X150900500Y-80963000D01*
G75*
G02*
X150975500Y-80888000I75000J0D01*
G01*
X152300500Y-80888000D01*
G75*
G02*
X152375500Y-80963000I0J-75000D01*
G01*
X152375500Y-81113000D01*
G75*
G02*
X152300500Y-81188000I-75000J0D01*
G01*
X150975500Y-81188000D01*
G75*
G02*
X150900500Y-81113000I0J75000D01*
G01*
G37*
G36*
G01*
X150900500Y-80613000D02*
X150900500Y-80463000D01*
G75*
G02*
X150975500Y-80388000I75000J0D01*
G01*
X152300500Y-80388000D01*
G75*
G02*
X152375500Y-80463000I0J-75000D01*
G01*
X152375500Y-80613000D01*
G75*
G02*
X152300500Y-80688000I-75000J0D01*
G01*
X150975500Y-80688000D01*
G75*
G02*
X150900500Y-80613000I0J75000D01*
G01*
G37*
G36*
G01*
X150900500Y-80113000D02*
X150900500Y-79963000D01*
G75*
G02*
X150975500Y-79888000I75000J0D01*
G01*
X152300500Y-79888000D01*
G75*
G02*
X152375500Y-79963000I0J-75000D01*
G01*
X152375500Y-80113000D01*
G75*
G02*
X152300500Y-80188000I-75000J0D01*
G01*
X150975500Y-80188000D01*
G75*
G02*
X150900500Y-80113000I0J75000D01*
G01*
G37*
G36*
G01*
X150900500Y-79613000D02*
X150900500Y-79463000D01*
G75*
G02*
X150975500Y-79388000I75000J0D01*
G01*
X152300500Y-79388000D01*
G75*
G02*
X152375500Y-79463000I0J-75000D01*
G01*
X152375500Y-79613000D01*
G75*
G02*
X152300500Y-79688000I-75000J0D01*
G01*
X150975500Y-79688000D01*
G75*
G02*
X150900500Y-79613000I0J75000D01*
G01*
G37*
G36*
G01*
X150900500Y-79113000D02*
X150900500Y-78963000D01*
G75*
G02*
X150975500Y-78888000I75000J0D01*
G01*
X152300500Y-78888000D01*
G75*
G02*
X152375500Y-78963000I0J-75000D01*
G01*
X152375500Y-79113000D01*
G75*
G02*
X152300500Y-79188000I-75000J0D01*
G01*
X150975500Y-79188000D01*
G75*
G02*
X150900500Y-79113000I0J75000D01*
G01*
G37*
G36*
G01*
X150075500Y-78288000D02*
X150075500Y-76963000D01*
G75*
G02*
X150150500Y-76888000I75000J0D01*
G01*
X150300500Y-76888000D01*
G75*
G02*
X150375500Y-76963000I0J-75000D01*
G01*
X150375500Y-78288000D01*
G75*
G02*
X150300500Y-78363000I-75000J0D01*
G01*
X150150500Y-78363000D01*
G75*
G02*
X150075500Y-78288000I0J75000D01*
G01*
G37*
G36*
G01*
X149575500Y-78288000D02*
X149575500Y-76963000D01*
G75*
G02*
X149650500Y-76888000I75000J0D01*
G01*
X149800500Y-76888000D01*
G75*
G02*
X149875500Y-76963000I0J-75000D01*
G01*
X149875500Y-78288000D01*
G75*
G02*
X149800500Y-78363000I-75000J0D01*
G01*
X149650500Y-78363000D01*
G75*
G02*
X149575500Y-78288000I0J75000D01*
G01*
G37*
G36*
G01*
X149075500Y-78288000D02*
X149075500Y-76963000D01*
G75*
G02*
X149150500Y-76888000I75000J0D01*
G01*
X149300500Y-76888000D01*
G75*
G02*
X149375500Y-76963000I0J-75000D01*
G01*
X149375500Y-78288000D01*
G75*
G02*
X149300500Y-78363000I-75000J0D01*
G01*
X149150500Y-78363000D01*
G75*
G02*
X149075500Y-78288000I0J75000D01*
G01*
G37*
G36*
G01*
X148575500Y-78288000D02*
X148575500Y-76963000D01*
G75*
G02*
X148650500Y-76888000I75000J0D01*
G01*
X148800500Y-76888000D01*
G75*
G02*
X148875500Y-76963000I0J-75000D01*
G01*
X148875500Y-78288000D01*
G75*
G02*
X148800500Y-78363000I-75000J0D01*
G01*
X148650500Y-78363000D01*
G75*
G02*
X148575500Y-78288000I0J75000D01*
G01*
G37*
G36*
G01*
X148075500Y-78288000D02*
X148075500Y-76963000D01*
G75*
G02*
X148150500Y-76888000I75000J0D01*
G01*
X148300500Y-76888000D01*
G75*
G02*
X148375500Y-76963000I0J-75000D01*
G01*
X148375500Y-78288000D01*
G75*
G02*
X148300500Y-78363000I-75000J0D01*
G01*
X148150500Y-78363000D01*
G75*
G02*
X148075500Y-78288000I0J75000D01*
G01*
G37*
G36*
G01*
X147575500Y-78288000D02*
X147575500Y-76963000D01*
G75*
G02*
X147650500Y-76888000I75000J0D01*
G01*
X147800500Y-76888000D01*
G75*
G02*
X147875500Y-76963000I0J-75000D01*
G01*
X147875500Y-78288000D01*
G75*
G02*
X147800500Y-78363000I-75000J0D01*
G01*
X147650500Y-78363000D01*
G75*
G02*
X147575500Y-78288000I0J75000D01*
G01*
G37*
G36*
G01*
X147075500Y-78288000D02*
X147075500Y-76963000D01*
G75*
G02*
X147150500Y-76888000I75000J0D01*
G01*
X147300500Y-76888000D01*
G75*
G02*
X147375500Y-76963000I0J-75000D01*
G01*
X147375500Y-78288000D01*
G75*
G02*
X147300500Y-78363000I-75000J0D01*
G01*
X147150500Y-78363000D01*
G75*
G02*
X147075500Y-78288000I0J75000D01*
G01*
G37*
G36*
G01*
X146575500Y-78288000D02*
X146575500Y-76963000D01*
G75*
G02*
X146650500Y-76888000I75000J0D01*
G01*
X146800500Y-76888000D01*
G75*
G02*
X146875500Y-76963000I0J-75000D01*
G01*
X146875500Y-78288000D01*
G75*
G02*
X146800500Y-78363000I-75000J0D01*
G01*
X146650500Y-78363000D01*
G75*
G02*
X146575500Y-78288000I0J75000D01*
G01*
G37*
G36*
G01*
X146075500Y-78288000D02*
X146075500Y-76963000D01*
G75*
G02*
X146150500Y-76888000I75000J0D01*
G01*
X146300500Y-76888000D01*
G75*
G02*
X146375500Y-76963000I0J-75000D01*
G01*
X146375500Y-78288000D01*
G75*
G02*
X146300500Y-78363000I-75000J0D01*
G01*
X146150500Y-78363000D01*
G75*
G02*
X146075500Y-78288000I0J75000D01*
G01*
G37*
G36*
G01*
X145575500Y-78288000D02*
X145575500Y-76963000D01*
G75*
G02*
X145650500Y-76888000I75000J0D01*
G01*
X145800500Y-76888000D01*
G75*
G02*
X145875500Y-76963000I0J-75000D01*
G01*
X145875500Y-78288000D01*
G75*
G02*
X145800500Y-78363000I-75000J0D01*
G01*
X145650500Y-78363000D01*
G75*
G02*
X145575500Y-78288000I0J75000D01*
G01*
G37*
G36*
G01*
X145075500Y-78288000D02*
X145075500Y-76963000D01*
G75*
G02*
X145150500Y-76888000I75000J0D01*
G01*
X145300500Y-76888000D01*
G75*
G02*
X145375500Y-76963000I0J-75000D01*
G01*
X145375500Y-78288000D01*
G75*
G02*
X145300500Y-78363000I-75000J0D01*
G01*
X145150500Y-78363000D01*
G75*
G02*
X145075500Y-78288000I0J75000D01*
G01*
G37*
G36*
G01*
X144575500Y-78288000D02*
X144575500Y-76963000D01*
G75*
G02*
X144650500Y-76888000I75000J0D01*
G01*
X144800500Y-76888000D01*
G75*
G02*
X144875500Y-76963000I0J-75000D01*
G01*
X144875500Y-78288000D01*
G75*
G02*
X144800500Y-78363000I-75000J0D01*
G01*
X144650500Y-78363000D01*
G75*
G02*
X144575500Y-78288000I0J75000D01*
G01*
G37*
D22*
X118861000Y-82677000D03*
D23*
X131411000Y-81052000D03*
D22*
X128861000Y-70677000D03*
D23*
X131411000Y-79802000D03*
X131411000Y-78552000D03*
X131411000Y-77302000D03*
X131411000Y-76052000D03*
X131411000Y-74802000D03*
X131411000Y-73552000D03*
X131411000Y-72302000D03*
D22*
X120111000Y-82677000D03*
X121361000Y-82677000D03*
X122611000Y-82677000D03*
X123861000Y-82677000D03*
X125111000Y-82677000D03*
X126361000Y-82677000D03*
X127611000Y-82677000D03*
X128861000Y-82677000D03*
X127611000Y-70677000D03*
X126361000Y-70677000D03*
X125111000Y-70677000D03*
X123861000Y-70677000D03*
X122611000Y-70677000D03*
X121361000Y-70677000D03*
X120111000Y-70677000D03*
X118861000Y-70677000D03*
D24*
X121666000Y-60325000D03*
X174244000Y-60325000D03*
X174244000Y-103378000D03*
X121666000Y-103378000D03*
G36*
G01*
X166120000Y-72900000D02*
X166120000Y-72400000D01*
G75*
G02*
X166345000Y-72175000I225000J0D01*
G01*
X166795000Y-72175000D01*
G75*
G02*
X167020000Y-72400000I0J-225000D01*
G01*
X167020000Y-72900000D01*
G75*
G02*
X166795000Y-73125000I-225000J0D01*
G01*
X166345000Y-73125000D01*
G75*
G02*
X166120000Y-72900000I0J225000D01*
G01*
G37*
G36*
G01*
X164570000Y-72900000D02*
X164570000Y-72400000D01*
G75*
G02*
X164795000Y-72175000I225000J0D01*
G01*
X165245000Y-72175000D01*
G75*
G02*
X165470000Y-72400000I0J-225000D01*
G01*
X165470000Y-72900000D01*
G75*
G02*
X165245000Y-73125000I-225000J0D01*
G01*
X164795000Y-73125000D01*
G75*
G02*
X164570000Y-72900000I0J225000D01*
G01*
G37*
G36*
G01*
X168152000Y-73591000D02*
X168652000Y-73591000D01*
G75*
G02*
X168877000Y-73816000I0J-225000D01*
G01*
X168877000Y-74266000D01*
G75*
G02*
X168652000Y-74491000I-225000J0D01*
G01*
X168152000Y-74491000D01*
G75*
G02*
X167927000Y-74266000I0J225000D01*
G01*
X167927000Y-73816000D01*
G75*
G02*
X168152000Y-73591000I225000J0D01*
G01*
G37*
G36*
G01*
X168152000Y-75141000D02*
X168652000Y-75141000D01*
G75*
G02*
X168877000Y-75366000I0J-225000D01*
G01*
X168877000Y-75816000D01*
G75*
G02*
X168652000Y-76041000I-225000J0D01*
G01*
X168152000Y-76041000D01*
G75*
G02*
X167927000Y-75816000I0J225000D01*
G01*
X167927000Y-75366000D01*
G75*
G02*
X168152000Y-75141000I225000J0D01*
G01*
G37*
G36*
G01*
X145975000Y-64550000D02*
X145975000Y-64050000D01*
G75*
G02*
X146200000Y-63825000I225000J0D01*
G01*
X146650000Y-63825000D01*
G75*
G02*
X146875000Y-64050000I0J-225000D01*
G01*
X146875000Y-64550000D01*
G75*
G02*
X146650000Y-64775000I-225000J0D01*
G01*
X146200000Y-64775000D01*
G75*
G02*
X145975000Y-64550000I0J225000D01*
G01*
G37*
G36*
G01*
X147525000Y-64550000D02*
X147525000Y-64050000D01*
G75*
G02*
X147750000Y-63825000I225000J0D01*
G01*
X148200000Y-63825000D01*
G75*
G02*
X148425000Y-64050000I0J-225000D01*
G01*
X148425000Y-64550000D01*
G75*
G02*
X148200000Y-64775000I-225000J0D01*
G01*
X147750000Y-64775000D01*
G75*
G02*
X147525000Y-64550000I0J225000D01*
G01*
G37*
G36*
G01*
X147354000Y-58832000D02*
X147354000Y-59332000D01*
G75*
G02*
X147129000Y-59557000I-225000J0D01*
G01*
X146679000Y-59557000D01*
G75*
G02*
X146454000Y-59332000I0J225000D01*
G01*
X146454000Y-58832000D01*
G75*
G02*
X146679000Y-58607000I225000J0D01*
G01*
X147129000Y-58607000D01*
G75*
G02*
X147354000Y-58832000I0J-225000D01*
G01*
G37*
G36*
G01*
X148904000Y-58832000D02*
X148904000Y-59332000D01*
G75*
G02*
X148679000Y-59557000I-225000J0D01*
G01*
X148229000Y-59557000D01*
G75*
G02*
X148004000Y-59332000I0J225000D01*
G01*
X148004000Y-58832000D01*
G75*
G02*
X148229000Y-58607000I225000J0D01*
G01*
X148679000Y-58607000D01*
G75*
G02*
X148904000Y-58832000I0J-225000D01*
G01*
G37*
G36*
G01*
X153093000Y-75053000D02*
X153093000Y-74553000D01*
G75*
G02*
X153318000Y-74328000I225000J0D01*
G01*
X153768000Y-74328000D01*
G75*
G02*
X153993000Y-74553000I0J-225000D01*
G01*
X153993000Y-75053000D01*
G75*
G02*
X153768000Y-75278000I-225000J0D01*
G01*
X153318000Y-75278000D01*
G75*
G02*
X153093000Y-75053000I0J225000D01*
G01*
G37*
G36*
G01*
X151543000Y-75053000D02*
X151543000Y-74553000D01*
G75*
G02*
X151768000Y-74328000I225000J0D01*
G01*
X152218000Y-74328000D01*
G75*
G02*
X152443000Y-74553000I0J-225000D01*
G01*
X152443000Y-75053000D01*
G75*
G02*
X152218000Y-75278000I-225000J0D01*
G01*
X151768000Y-75278000D01*
G75*
G02*
X151543000Y-75053000I0J225000D01*
G01*
G37*
G36*
G01*
X134485000Y-77290000D02*
X134485000Y-76790000D01*
G75*
G02*
X134710000Y-76565000I225000J0D01*
G01*
X135160000Y-76565000D01*
G75*
G02*
X135385000Y-76790000I0J-225000D01*
G01*
X135385000Y-77290000D01*
G75*
G02*
X135160000Y-77515000I-225000J0D01*
G01*
X134710000Y-77515000D01*
G75*
G02*
X134485000Y-77290000I0J225000D01*
G01*
G37*
G36*
G01*
X136035000Y-77290000D02*
X136035000Y-76790000D01*
G75*
G02*
X136260000Y-76565000I225000J0D01*
G01*
X136710000Y-76565000D01*
G75*
G02*
X136935000Y-76790000I0J-225000D01*
G01*
X136935000Y-77290000D01*
G75*
G02*
X136710000Y-77515000I-225000J0D01*
G01*
X136260000Y-77515000D01*
G75*
G02*
X136035000Y-77290000I0J225000D01*
G01*
G37*
G36*
G01*
X153093000Y-78101000D02*
X153093000Y-77601000D01*
G75*
G02*
X153318000Y-77376000I225000J0D01*
G01*
X153768000Y-77376000D01*
G75*
G02*
X153993000Y-77601000I0J-225000D01*
G01*
X153993000Y-78101000D01*
G75*
G02*
X153768000Y-78326000I-225000J0D01*
G01*
X153318000Y-78326000D01*
G75*
G02*
X153093000Y-78101000I0J225000D01*
G01*
G37*
G36*
G01*
X151543000Y-78101000D02*
X151543000Y-77601000D01*
G75*
G02*
X151768000Y-77376000I225000J0D01*
G01*
X152218000Y-77376000D01*
G75*
G02*
X152443000Y-77601000I0J-225000D01*
G01*
X152443000Y-78101000D01*
G75*
G02*
X152218000Y-78326000I-225000J0D01*
G01*
X151768000Y-78326000D01*
G75*
G02*
X151543000Y-78101000I0J225000D01*
G01*
G37*
G36*
G01*
X135425000Y-82554000D02*
X135425000Y-83054000D01*
G75*
G02*
X135200000Y-83279000I-225000J0D01*
G01*
X134750000Y-83279000D01*
G75*
G02*
X134525000Y-83054000I0J225000D01*
G01*
X134525000Y-82554000D01*
G75*
G02*
X134750000Y-82329000I225000J0D01*
G01*
X135200000Y-82329000D01*
G75*
G02*
X135425000Y-82554000I0J-225000D01*
G01*
G37*
G36*
G01*
X136975000Y-82554000D02*
X136975000Y-83054000D01*
G75*
G02*
X136750000Y-83279000I-225000J0D01*
G01*
X136300000Y-83279000D01*
G75*
G02*
X136075000Y-83054000I0J225000D01*
G01*
X136075000Y-82554000D01*
G75*
G02*
X136300000Y-82329000I225000J0D01*
G01*
X136750000Y-82329000D01*
G75*
G02*
X136975000Y-82554000I0J-225000D01*
G01*
G37*
G36*
G01*
X151543000Y-76577000D02*
X151543000Y-76077000D01*
G75*
G02*
X151768000Y-75852000I225000J0D01*
G01*
X152218000Y-75852000D01*
G75*
G02*
X152443000Y-76077000I0J-225000D01*
G01*
X152443000Y-76577000D01*
G75*
G02*
X152218000Y-76802000I-225000J0D01*
G01*
X151768000Y-76802000D01*
G75*
G02*
X151543000Y-76577000I0J225000D01*
G01*
G37*
G36*
G01*
X153093000Y-76577000D02*
X153093000Y-76077000D01*
G75*
G02*
X153318000Y-75852000I225000J0D01*
G01*
X153768000Y-75852000D01*
G75*
G02*
X153993000Y-76077000I0J-225000D01*
G01*
X153993000Y-76577000D01*
G75*
G02*
X153768000Y-76802000I-225000J0D01*
G01*
X153318000Y-76802000D01*
G75*
G02*
X153093000Y-76577000I0J225000D01*
G01*
G37*
G36*
G01*
X142236000Y-76142000D02*
X141736000Y-76142000D01*
G75*
G02*
X141511000Y-75917000I0J225000D01*
G01*
X141511000Y-75467000D01*
G75*
G02*
X141736000Y-75242000I225000J0D01*
G01*
X142236000Y-75242000D01*
G75*
G02*
X142461000Y-75467000I0J-225000D01*
G01*
X142461000Y-75917000D01*
G75*
G02*
X142236000Y-76142000I-225000J0D01*
G01*
G37*
G36*
G01*
X142236000Y-77692000D02*
X141736000Y-77692000D01*
G75*
G02*
X141511000Y-77467000I0J225000D01*
G01*
X141511000Y-77017000D01*
G75*
G02*
X141736000Y-76792000I225000J0D01*
G01*
X142236000Y-76792000D01*
G75*
G02*
X142461000Y-77017000I0J-225000D01*
G01*
X142461000Y-77467000D01*
G75*
G02*
X142236000Y-77692000I-225000J0D01*
G01*
G37*
G36*
G01*
X151098000Y-88396000D02*
X151098000Y-88896000D01*
G75*
G02*
X150873000Y-89121000I-225000J0D01*
G01*
X150423000Y-89121000D01*
G75*
G02*
X150198000Y-88896000I0J225000D01*
G01*
X150198000Y-88396000D01*
G75*
G02*
X150423000Y-88171000I225000J0D01*
G01*
X150873000Y-88171000D01*
G75*
G02*
X151098000Y-88396000I0J-225000D01*
G01*
G37*
G36*
G01*
X149548000Y-88396000D02*
X149548000Y-88896000D01*
G75*
G02*
X149323000Y-89121000I-225000J0D01*
G01*
X148873000Y-89121000D01*
G75*
G02*
X148648000Y-88896000I0J225000D01*
G01*
X148648000Y-88396000D01*
G75*
G02*
X148873000Y-88171000I225000J0D01*
G01*
X149323000Y-88171000D01*
G75*
G02*
X149548000Y-88396000I0J-225000D01*
G01*
G37*
G36*
G01*
X143760000Y-76142000D02*
X143260000Y-76142000D01*
G75*
G02*
X143035000Y-75917000I0J225000D01*
G01*
X143035000Y-75467000D01*
G75*
G02*
X143260000Y-75242000I225000J0D01*
G01*
X143760000Y-75242000D01*
G75*
G02*
X143985000Y-75467000I0J-225000D01*
G01*
X143985000Y-75917000D01*
G75*
G02*
X143760000Y-76142000I-225000J0D01*
G01*
G37*
G36*
G01*
X143760000Y-77692000D02*
X143260000Y-77692000D01*
G75*
G02*
X143035000Y-77467000I0J225000D01*
G01*
X143035000Y-77017000D01*
G75*
G02*
X143260000Y-76792000I225000J0D01*
G01*
X143760000Y-76792000D01*
G75*
G02*
X143985000Y-77017000I0J-225000D01*
G01*
X143985000Y-77467000D01*
G75*
G02*
X143760000Y-77692000I-225000J0D01*
G01*
G37*
G36*
G01*
X151098000Y-89920000D02*
X151098000Y-90420000D01*
G75*
G02*
X150873000Y-90645000I-225000J0D01*
G01*
X150423000Y-90645000D01*
G75*
G02*
X150198000Y-90420000I0J225000D01*
G01*
X150198000Y-89920000D01*
G75*
G02*
X150423000Y-89695000I225000J0D01*
G01*
X150873000Y-89695000D01*
G75*
G02*
X151098000Y-89920000I0J-225000D01*
G01*
G37*
G36*
G01*
X149548000Y-89920000D02*
X149548000Y-90420000D01*
G75*
G02*
X149323000Y-90645000I-225000J0D01*
G01*
X148873000Y-90645000D01*
G75*
G02*
X148648000Y-90420000I0J225000D01*
G01*
X148648000Y-89920000D01*
G75*
G02*
X148873000Y-89695000I225000J0D01*
G01*
X149323000Y-89695000D01*
G75*
G02*
X149548000Y-89920000I0J-225000D01*
G01*
G37*
G36*
G01*
X141474000Y-84931000D02*
X140974000Y-84931000D01*
G75*
G02*
X140749000Y-84706000I0J225000D01*
G01*
X140749000Y-84256000D01*
G75*
G02*
X140974000Y-84031000I225000J0D01*
G01*
X141474000Y-84031000D01*
G75*
G02*
X141699000Y-84256000I0J-225000D01*
G01*
X141699000Y-84706000D01*
G75*
G02*
X141474000Y-84931000I-225000J0D01*
G01*
G37*
G36*
G01*
X141474000Y-83381000D02*
X140974000Y-83381000D01*
G75*
G02*
X140749000Y-83156000I0J225000D01*
G01*
X140749000Y-82706000D01*
G75*
G02*
X140974000Y-82481000I225000J0D01*
G01*
X141474000Y-82481000D01*
G75*
G02*
X141699000Y-82706000I0J-225000D01*
G01*
X141699000Y-83156000D01*
G75*
G02*
X141474000Y-83381000I-225000J0D01*
G01*
G37*
G36*
G01*
X139950000Y-84931000D02*
X139450000Y-84931000D01*
G75*
G02*
X139225000Y-84706000I0J225000D01*
G01*
X139225000Y-84256000D01*
G75*
G02*
X139450000Y-84031000I225000J0D01*
G01*
X139950000Y-84031000D01*
G75*
G02*
X140175000Y-84256000I0J-225000D01*
G01*
X140175000Y-84706000D01*
G75*
G02*
X139950000Y-84931000I-225000J0D01*
G01*
G37*
G36*
G01*
X139950000Y-83381000D02*
X139450000Y-83381000D01*
G75*
G02*
X139225000Y-83156000I0J225000D01*
G01*
X139225000Y-82706000D01*
G75*
G02*
X139450000Y-82481000I225000J0D01*
G01*
X139950000Y-82481000D01*
G75*
G02*
X140175000Y-82706000I0J-225000D01*
G01*
X140175000Y-83156000D01*
G75*
G02*
X139950000Y-83381000I-225000J0D01*
G01*
G37*
G36*
G01*
X148880000Y-98825000D02*
X148380000Y-98825000D01*
G75*
G02*
X148155000Y-98600000I0J225000D01*
G01*
X148155000Y-98150000D01*
G75*
G02*
X148380000Y-97925000I225000J0D01*
G01*
X148880000Y-97925000D01*
G75*
G02*
X149105000Y-98150000I0J-225000D01*
G01*
X149105000Y-98600000D01*
G75*
G02*
X148880000Y-98825000I-225000J0D01*
G01*
G37*
G36*
G01*
X148880000Y-100375000D02*
X148380000Y-100375000D01*
G75*
G02*
X148155000Y-100150000I0J225000D01*
G01*
X148155000Y-99700000D01*
G75*
G02*
X148380000Y-99475000I225000J0D01*
G01*
X148880000Y-99475000D01*
G75*
G02*
X149105000Y-99700000I0J-225000D01*
G01*
X149105000Y-100150000D01*
G75*
G02*
X148880000Y-100375000I-225000J0D01*
G01*
G37*
G36*
G01*
X153166000Y-88805000D02*
X153666000Y-88805000D01*
G75*
G02*
X153891000Y-89030000I0J-225000D01*
G01*
X153891000Y-89480000D01*
G75*
G02*
X153666000Y-89705000I-225000J0D01*
G01*
X153166000Y-89705000D01*
G75*
G02*
X152941000Y-89480000I0J225000D01*
G01*
X152941000Y-89030000D01*
G75*
G02*
X153166000Y-88805000I225000J0D01*
G01*
G37*
G36*
G01*
X153166000Y-90355000D02*
X153666000Y-90355000D01*
G75*
G02*
X153891000Y-90580000I0J-225000D01*
G01*
X153891000Y-91030000D01*
G75*
G02*
X153666000Y-91255000I-225000J0D01*
G01*
X153166000Y-91255000D01*
G75*
G02*
X152941000Y-91030000I0J225000D01*
G01*
X152941000Y-90580000D01*
G75*
G02*
X153166000Y-90355000I225000J0D01*
G01*
G37*
G36*
G01*
X161374000Y-89277000D02*
X161374000Y-88777000D01*
G75*
G02*
X161599000Y-88552000I225000J0D01*
G01*
X162049000Y-88552000D01*
G75*
G02*
X162274000Y-88777000I0J-225000D01*
G01*
X162274000Y-89277000D01*
G75*
G02*
X162049000Y-89502000I-225000J0D01*
G01*
X161599000Y-89502000D01*
G75*
G02*
X161374000Y-89277000I0J225000D01*
G01*
G37*
G36*
G01*
X159824000Y-89277000D02*
X159824000Y-88777000D01*
G75*
G02*
X160049000Y-88552000I225000J0D01*
G01*
X160499000Y-88552000D01*
G75*
G02*
X160724000Y-88777000I0J-225000D01*
G01*
X160724000Y-89277000D01*
G75*
G02*
X160499000Y-89502000I-225000J0D01*
G01*
X160049000Y-89502000D01*
G75*
G02*
X159824000Y-89277000I0J225000D01*
G01*
G37*
D25*
X169892000Y-67564000D03*
X171992000Y-67564000D03*
G36*
G01*
X164916500Y-80393250D02*
X164916500Y-79880750D01*
G75*
G02*
X165135250Y-79662000I218750J0D01*
G01*
X165572750Y-79662000D01*
G75*
G02*
X165791500Y-79880750I0J-218750D01*
G01*
X165791500Y-80393250D01*
G75*
G02*
X165572750Y-80612000I-218750J0D01*
G01*
X165135250Y-80612000D01*
G75*
G02*
X164916500Y-80393250I0J218750D01*
G01*
G37*
G36*
G01*
X166491500Y-80393250D02*
X166491500Y-79880750D01*
G75*
G02*
X166710250Y-79662000I218750J0D01*
G01*
X167147750Y-79662000D01*
G75*
G02*
X167366500Y-79880750I0J-218750D01*
G01*
X167366500Y-80393250D01*
G75*
G02*
X167147750Y-80612000I-218750J0D01*
G01*
X166710250Y-80612000D01*
G75*
G02*
X166491500Y-80393250I0J218750D01*
G01*
G37*
G36*
G01*
X127324500Y-60962250D02*
X127324500Y-60449750D01*
G75*
G02*
X127543250Y-60231000I218750J0D01*
G01*
X127980750Y-60231000D01*
G75*
G02*
X128199500Y-60449750I0J-218750D01*
G01*
X128199500Y-60962250D01*
G75*
G02*
X127980750Y-61181000I-218750J0D01*
G01*
X127543250Y-61181000D01*
G75*
G02*
X127324500Y-60962250I0J218750D01*
G01*
G37*
G36*
G01*
X125749500Y-60962250D02*
X125749500Y-60449750D01*
G75*
G02*
X125968250Y-60231000I218750J0D01*
G01*
X126405750Y-60231000D01*
G75*
G02*
X126624500Y-60449750I0J-218750D01*
G01*
X126624500Y-60962250D01*
G75*
G02*
X126405750Y-61181000I-218750J0D01*
G01*
X125968250Y-61181000D01*
G75*
G02*
X125749500Y-60962250I0J218750D01*
G01*
G37*
G36*
G01*
X129559500Y-60962250D02*
X129559500Y-60449750D01*
G75*
G02*
X129778250Y-60231000I218750J0D01*
G01*
X130215750Y-60231000D01*
G75*
G02*
X130434500Y-60449750I0J-218750D01*
G01*
X130434500Y-60962250D01*
G75*
G02*
X130215750Y-61181000I-218750J0D01*
G01*
X129778250Y-61181000D01*
G75*
G02*
X129559500Y-60962250I0J218750D01*
G01*
G37*
G36*
G01*
X131134500Y-60962250D02*
X131134500Y-60449750D01*
G75*
G02*
X131353250Y-60231000I218750J0D01*
G01*
X131790750Y-60231000D01*
G75*
G02*
X132009500Y-60449750I0J-218750D01*
G01*
X132009500Y-60962250D01*
G75*
G02*
X131790750Y-61181000I-218750J0D01*
G01*
X131353250Y-61181000D01*
G75*
G02*
X131134500Y-60962250I0J218750D01*
G01*
G37*
D26*
X139162000Y-59752000D03*
X139162000Y-60452000D03*
X140462000Y-59752000D03*
X140462000Y-60452000D03*
G36*
G01*
X127121500Y-65788250D02*
X127121500Y-65275750D01*
G75*
G02*
X127340250Y-65057000I218750J0D01*
G01*
X127777750Y-65057000D01*
G75*
G02*
X127996500Y-65275750I0J-218750D01*
G01*
X127996500Y-65788250D01*
G75*
G02*
X127777750Y-66007000I-218750J0D01*
G01*
X127340250Y-66007000D01*
G75*
G02*
X127121500Y-65788250I0J218750D01*
G01*
G37*
G36*
G01*
X125546500Y-65788250D02*
X125546500Y-65275750D01*
G75*
G02*
X125765250Y-65057000I218750J0D01*
G01*
X126202750Y-65057000D01*
G75*
G02*
X126421500Y-65275750I0J-218750D01*
G01*
X126421500Y-65788250D01*
G75*
G02*
X126202750Y-66007000I-218750J0D01*
G01*
X125765250Y-66007000D01*
G75*
G02*
X125546500Y-65788250I0J218750D01*
G01*
G37*
G36*
G01*
X129356500Y-65788250D02*
X129356500Y-65275750D01*
G75*
G02*
X129575250Y-65057000I218750J0D01*
G01*
X130012750Y-65057000D01*
G75*
G02*
X130231500Y-65275750I0J-218750D01*
G01*
X130231500Y-65788250D01*
G75*
G02*
X130012750Y-66007000I-218750J0D01*
G01*
X129575250Y-66007000D01*
G75*
G02*
X129356500Y-65788250I0J218750D01*
G01*
G37*
G36*
G01*
X130931500Y-65788250D02*
X130931500Y-65275750D01*
G75*
G02*
X131150250Y-65057000I218750J0D01*
G01*
X131587750Y-65057000D01*
G75*
G02*
X131806500Y-65275750I0J-218750D01*
G01*
X131806500Y-65788250D01*
G75*
G02*
X131587750Y-66007000I-218750J0D01*
G01*
X131150250Y-66007000D01*
G75*
G02*
X130931500Y-65788250I0J218750D01*
G01*
G37*
G36*
G01*
X164980000Y-68316000D02*
X164980000Y-67066000D01*
G75*
G02*
X165230000Y-66816000I250000J0D01*
G01*
X165980000Y-66816000D01*
G75*
G02*
X166230000Y-67066000I0J-250000D01*
G01*
X166230000Y-68316000D01*
G75*
G02*
X165980000Y-68566000I-250000J0D01*
G01*
X165230000Y-68566000D01*
G75*
G02*
X164980000Y-68316000I0J250000D01*
G01*
G37*
G36*
G01*
X167780000Y-68316000D02*
X167780000Y-67066000D01*
G75*
G02*
X168030000Y-66816000I250000J0D01*
G01*
X168780000Y-66816000D01*
G75*
G02*
X169030000Y-67066000I0J-250000D01*
G01*
X169030000Y-68316000D01*
G75*
G02*
X168780000Y-68566000I-250000J0D01*
G01*
X168030000Y-68566000D01*
G75*
G02*
X167780000Y-68316000I0J250000D01*
G01*
G37*
G36*
G01*
X153422000Y-61265750D02*
X153422000Y-62178250D01*
G75*
G02*
X153178250Y-62422000I-243750J0D01*
G01*
X152690750Y-62422000D01*
G75*
G02*
X152447000Y-62178250I0J243750D01*
G01*
X152447000Y-61265750D01*
G75*
G02*
X152690750Y-61022000I243750J0D01*
G01*
X153178250Y-61022000D01*
G75*
G02*
X153422000Y-61265750I0J-243750D01*
G01*
G37*
G36*
G01*
X151547000Y-61265750D02*
X151547000Y-62178250D01*
G75*
G02*
X151303250Y-62422000I-243750J0D01*
G01*
X150815750Y-62422000D01*
G75*
G02*
X150572000Y-62178250I0J243750D01*
G01*
X150572000Y-61265750D01*
G75*
G02*
X150815750Y-61022000I243750J0D01*
G01*
X151303250Y-61022000D01*
G75*
G02*
X151547000Y-61265750I0J-243750D01*
G01*
G37*
G36*
G01*
X137997250Y-85577500D02*
X137084750Y-85577500D01*
G75*
G02*
X136841000Y-85333750I0J243750D01*
G01*
X136841000Y-84846250D01*
G75*
G02*
X137084750Y-84602500I243750J0D01*
G01*
X137997250Y-84602500D01*
G75*
G02*
X138241000Y-84846250I0J-243750D01*
G01*
X138241000Y-85333750D01*
G75*
G02*
X137997250Y-85577500I-243750J0D01*
G01*
G37*
G36*
G01*
X137997250Y-87452500D02*
X137084750Y-87452500D01*
G75*
G02*
X136841000Y-87208750I0J243750D01*
G01*
X136841000Y-86721250D01*
G75*
G02*
X137084750Y-86477500I243750J0D01*
G01*
X137997250Y-86477500D01*
G75*
G02*
X138241000Y-86721250I0J-243750D01*
G01*
X138241000Y-87208750D01*
G75*
G02*
X137997250Y-87452500I-243750J0D01*
G01*
G37*
D27*
X134747000Y-78826000D03*
X134747000Y-81026000D03*
X136447000Y-81026000D03*
X136447000Y-78826000D03*
D28*
X173292000Y-86390000D03*
X173292000Y-85740000D03*
X173292000Y-85090000D03*
X173292000Y-84440000D03*
X173292000Y-83790000D03*
D29*
X173377000Y-87577500D03*
X173377000Y-82602500D03*
D30*
X175952000Y-88465000D03*
X175952000Y-81715000D03*
D31*
X175952000Y-86240000D03*
D32*
X175952000Y-83540000D03*
G36*
G01*
X173260000Y-74100000D02*
X174510000Y-74100000D01*
G75*
G02*
X174660000Y-74250000I0J-150000D01*
G01*
X174660000Y-74550000D01*
G75*
G02*
X174510000Y-74700000I-150000J0D01*
G01*
X173260000Y-74700000D01*
G75*
G02*
X173110000Y-74550000I0J150000D01*
G01*
X173110000Y-74250000D01*
G75*
G02*
X173260000Y-74100000I150000J0D01*
G01*
G37*
G36*
G01*
X173260000Y-75100000D02*
X174510000Y-75100000D01*
G75*
G02*
X174660000Y-75250000I0J-150000D01*
G01*
X174660000Y-75550000D01*
G75*
G02*
X174510000Y-75700000I-150000J0D01*
G01*
X173260000Y-75700000D01*
G75*
G02*
X173110000Y-75550000I0J150000D01*
G01*
X173110000Y-75250000D01*
G75*
G02*
X173260000Y-75100000I150000J0D01*
G01*
G37*
G36*
G01*
X175759999Y-72500000D02*
X177060001Y-72500000D01*
G75*
G02*
X177310000Y-72749999I0J-249999D01*
G01*
X177310000Y-73450001D01*
G75*
G02*
X177060001Y-73700000I-249999J0D01*
G01*
X175759999Y-73700000D01*
G75*
G02*
X175510000Y-73450001I0J249999D01*
G01*
X175510000Y-72749999D01*
G75*
G02*
X175759999Y-72500000I249999J0D01*
G01*
G37*
G36*
G01*
X175759999Y-76100000D02*
X177060001Y-76100000D01*
G75*
G02*
X177310000Y-76349999I0J-249999D01*
G01*
X177310000Y-77050001D01*
G75*
G02*
X177060001Y-77300000I-249999J0D01*
G01*
X175759999Y-77300000D01*
G75*
G02*
X175510000Y-77050001I0J249999D01*
G01*
X175510000Y-76349999D01*
G75*
G02*
X175759999Y-76100000I249999J0D01*
G01*
G37*
D33*
X165608000Y-100125000D03*
X165608000Y-103075000D03*
D34*
X167108000Y-101600000D03*
X164108000Y-101600000D03*
G36*
G01*
X162308250Y-102190000D02*
X161795750Y-102190000D01*
G75*
G02*
X161577000Y-101971250I0J218750D01*
G01*
X161577000Y-101533750D01*
G75*
G02*
X161795750Y-101315000I218750J0D01*
G01*
X162308250Y-101315000D01*
G75*
G02*
X162527000Y-101533750I0J-218750D01*
G01*
X162527000Y-101971250D01*
G75*
G02*
X162308250Y-102190000I-218750J0D01*
G01*
G37*
G36*
G01*
X162308250Y-100615000D02*
X161795750Y-100615000D01*
G75*
G02*
X161577000Y-100396250I0J218750D01*
G01*
X161577000Y-99958750D01*
G75*
G02*
X161795750Y-99740000I218750J0D01*
G01*
X162308250Y-99740000D01*
G75*
G02*
X162527000Y-99958750I0J-218750D01*
G01*
X162527000Y-100396250D01*
G75*
G02*
X162308250Y-100615000I-218750J0D01*
G01*
G37*
D35*
X167910000Y-63820000D03*
X167910000Y-65720000D03*
X169910000Y-64770000D03*
G36*
G01*
X169017000Y-62505000D02*
X169017000Y-61955000D01*
G75*
G02*
X169217000Y-61755000I200000J0D01*
G01*
X169617000Y-61755000D01*
G75*
G02*
X169817000Y-61955000I0J-200000D01*
G01*
X169817000Y-62505000D01*
G75*
G02*
X169617000Y-62705000I-200000J0D01*
G01*
X169217000Y-62705000D01*
G75*
G02*
X169017000Y-62505000I0J200000D01*
G01*
G37*
G36*
G01*
X167367000Y-62505000D02*
X167367000Y-61955000D01*
G75*
G02*
X167567000Y-61755000I200000J0D01*
G01*
X167967000Y-61755000D01*
G75*
G02*
X168167000Y-61955000I0J-200000D01*
G01*
X168167000Y-62505000D01*
G75*
G02*
X167967000Y-62705000I-200000J0D01*
G01*
X167567000Y-62705000D01*
G75*
G02*
X167367000Y-62505000I0J200000D01*
G01*
G37*
G36*
G01*
X163245000Y-76605000D02*
X162695000Y-76605000D01*
G75*
G02*
X162495000Y-76405000I0J200000D01*
G01*
X162495000Y-76005000D01*
G75*
G02*
X162695000Y-75805000I200000J0D01*
G01*
X163245000Y-75805000D01*
G75*
G02*
X163445000Y-76005000I0J-200000D01*
G01*
X163445000Y-76405000D01*
G75*
G02*
X163245000Y-76605000I-200000J0D01*
G01*
G37*
G36*
G01*
X163245000Y-74955000D02*
X162695000Y-74955000D01*
G75*
G02*
X162495000Y-74755000I0J200000D01*
G01*
X162495000Y-74355000D01*
G75*
G02*
X162695000Y-74155000I200000J0D01*
G01*
X163245000Y-74155000D01*
G75*
G02*
X163445000Y-74355000I0J-200000D01*
G01*
X163445000Y-74755000D01*
G75*
G02*
X163245000Y-74955000I-200000J0D01*
G01*
G37*
G36*
G01*
X153400000Y-59425000D02*
X153400000Y-59975000D01*
G75*
G02*
X153200000Y-60175000I-200000J0D01*
G01*
X152800000Y-60175000D01*
G75*
G02*
X152600000Y-59975000I0J200000D01*
G01*
X152600000Y-59425000D01*
G75*
G02*
X152800000Y-59225000I200000J0D01*
G01*
X153200000Y-59225000D01*
G75*
G02*
X153400000Y-59425000I0J-200000D01*
G01*
G37*
G36*
G01*
X151750000Y-59425000D02*
X151750000Y-59975000D01*
G75*
G02*
X151550000Y-60175000I-200000J0D01*
G01*
X151150000Y-60175000D01*
G75*
G02*
X150950000Y-59975000I0J200000D01*
G01*
X150950000Y-59425000D01*
G75*
G02*
X151150000Y-59225000I200000J0D01*
G01*
X151550000Y-59225000D01*
G75*
G02*
X151750000Y-59425000I0J-200000D01*
G01*
G37*
G36*
G01*
X165691000Y-77576000D02*
X165691000Y-78126000D01*
G75*
G02*
X165491000Y-78326000I-200000J0D01*
G01*
X165091000Y-78326000D01*
G75*
G02*
X164891000Y-78126000I0J200000D01*
G01*
X164891000Y-77576000D01*
G75*
G02*
X165091000Y-77376000I200000J0D01*
G01*
X165491000Y-77376000D01*
G75*
G02*
X165691000Y-77576000I0J-200000D01*
G01*
G37*
G36*
G01*
X167341000Y-77576000D02*
X167341000Y-78126000D01*
G75*
G02*
X167141000Y-78326000I-200000J0D01*
G01*
X166741000Y-78326000D01*
G75*
G02*
X166541000Y-78126000I0J200000D01*
G01*
X166541000Y-77576000D01*
G75*
G02*
X166741000Y-77376000I200000J0D01*
G01*
X167141000Y-77376000D01*
G75*
G02*
X167341000Y-77576000I0J-200000D01*
G01*
G37*
G36*
G01*
X127362000Y-62759000D02*
X127362000Y-62209000D01*
G75*
G02*
X127562000Y-62009000I200000J0D01*
G01*
X127962000Y-62009000D01*
G75*
G02*
X128162000Y-62209000I0J-200000D01*
G01*
X128162000Y-62759000D01*
G75*
G02*
X127962000Y-62959000I-200000J0D01*
G01*
X127562000Y-62959000D01*
G75*
G02*
X127362000Y-62759000I0J200000D01*
G01*
G37*
G36*
G01*
X125712000Y-62759000D02*
X125712000Y-62209000D01*
G75*
G02*
X125912000Y-62009000I200000J0D01*
G01*
X126312000Y-62009000D01*
G75*
G02*
X126512000Y-62209000I0J-200000D01*
G01*
X126512000Y-62759000D01*
G75*
G02*
X126312000Y-62959000I-200000J0D01*
G01*
X125912000Y-62959000D01*
G75*
G02*
X125712000Y-62759000I0J200000D01*
G01*
G37*
G36*
G01*
X135681000Y-62759000D02*
X135681000Y-62209000D01*
G75*
G02*
X135881000Y-62009000I200000J0D01*
G01*
X136281000Y-62009000D01*
G75*
G02*
X136481000Y-62209000I0J-200000D01*
G01*
X136481000Y-62759000D01*
G75*
G02*
X136281000Y-62959000I-200000J0D01*
G01*
X135881000Y-62959000D01*
G75*
G02*
X135681000Y-62759000I0J200000D01*
G01*
G37*
G36*
G01*
X137331000Y-62759000D02*
X137331000Y-62209000D01*
G75*
G02*
X137531000Y-62009000I200000J0D01*
G01*
X137931000Y-62009000D01*
G75*
G02*
X138131000Y-62209000I0J-200000D01*
G01*
X138131000Y-62759000D01*
G75*
G02*
X137931000Y-62959000I-200000J0D01*
G01*
X137531000Y-62959000D01*
G75*
G02*
X137331000Y-62759000I0J200000D01*
G01*
G37*
G36*
G01*
X129648000Y-62759000D02*
X129648000Y-62209000D01*
G75*
G02*
X129848000Y-62009000I200000J0D01*
G01*
X130248000Y-62009000D01*
G75*
G02*
X130448000Y-62209000I0J-200000D01*
G01*
X130448000Y-62759000D01*
G75*
G02*
X130248000Y-62959000I-200000J0D01*
G01*
X129848000Y-62959000D01*
G75*
G02*
X129648000Y-62759000I0J200000D01*
G01*
G37*
G36*
G01*
X131298000Y-62759000D02*
X131298000Y-62209000D01*
G75*
G02*
X131498000Y-62009000I200000J0D01*
G01*
X131898000Y-62009000D01*
G75*
G02*
X132098000Y-62209000I0J-200000D01*
G01*
X132098000Y-62759000D01*
G75*
G02*
X131898000Y-62959000I-200000J0D01*
G01*
X131498000Y-62959000D01*
G75*
G02*
X131298000Y-62759000I0J200000D01*
G01*
G37*
G36*
G01*
X140316000Y-62759000D02*
X140316000Y-62209000D01*
G75*
G02*
X140516000Y-62009000I200000J0D01*
G01*
X140916000Y-62009000D01*
G75*
G02*
X141116000Y-62209000I0J-200000D01*
G01*
X141116000Y-62759000D01*
G75*
G02*
X140916000Y-62959000I-200000J0D01*
G01*
X140516000Y-62959000D01*
G75*
G02*
X140316000Y-62759000I0J200000D01*
G01*
G37*
G36*
G01*
X138666000Y-62759000D02*
X138666000Y-62209000D01*
G75*
G02*
X138866000Y-62009000I200000J0D01*
G01*
X139266000Y-62009000D01*
G75*
G02*
X139466000Y-62209000I0J-200000D01*
G01*
X139466000Y-62759000D01*
G75*
G02*
X139266000Y-62959000I-200000J0D01*
G01*
X138866000Y-62959000D01*
G75*
G02*
X138666000Y-62759000I0J200000D01*
G01*
G37*
G36*
G01*
X141695000Y-62759000D02*
X141695000Y-62209000D01*
G75*
G02*
X141895000Y-62009000I200000J0D01*
G01*
X142295000Y-62009000D01*
G75*
G02*
X142495000Y-62209000I0J-200000D01*
G01*
X142495000Y-62759000D01*
G75*
G02*
X142295000Y-62959000I-200000J0D01*
G01*
X141895000Y-62959000D01*
G75*
G02*
X141695000Y-62759000I0J200000D01*
G01*
G37*
G36*
G01*
X143345000Y-62759000D02*
X143345000Y-62209000D01*
G75*
G02*
X143545000Y-62009000I200000J0D01*
G01*
X143945000Y-62009000D01*
G75*
G02*
X144145000Y-62209000I0J-200000D01*
G01*
X144145000Y-62759000D01*
G75*
G02*
X143945000Y-62959000I-200000J0D01*
G01*
X143545000Y-62959000D01*
G75*
G02*
X143345000Y-62759000I0J200000D01*
G01*
G37*
G36*
G01*
X127234000Y-67585000D02*
X127234000Y-67035000D01*
G75*
G02*
X127434000Y-66835000I200000J0D01*
G01*
X127834000Y-66835000D01*
G75*
G02*
X128034000Y-67035000I0J-200000D01*
G01*
X128034000Y-67585000D01*
G75*
G02*
X127834000Y-67785000I-200000J0D01*
G01*
X127434000Y-67785000D01*
G75*
G02*
X127234000Y-67585000I0J200000D01*
G01*
G37*
G36*
G01*
X125584000Y-67585000D02*
X125584000Y-67035000D01*
G75*
G02*
X125784000Y-66835000I200000J0D01*
G01*
X126184000Y-66835000D01*
G75*
G02*
X126384000Y-67035000I0J-200000D01*
G01*
X126384000Y-67585000D01*
G75*
G02*
X126184000Y-67785000I-200000J0D01*
G01*
X125784000Y-67785000D01*
G75*
G02*
X125584000Y-67585000I0J200000D01*
G01*
G37*
G36*
G01*
X140481000Y-80751000D02*
X140481000Y-81301000D01*
G75*
G02*
X140281000Y-81501000I-200000J0D01*
G01*
X139881000Y-81501000D01*
G75*
G02*
X139681000Y-81301000I0J200000D01*
G01*
X139681000Y-80751000D01*
G75*
G02*
X139881000Y-80551000I200000J0D01*
G01*
X140281000Y-80551000D01*
G75*
G02*
X140481000Y-80751000I0J-200000D01*
G01*
G37*
G36*
G01*
X138831000Y-80751000D02*
X138831000Y-81301000D01*
G75*
G02*
X138631000Y-81501000I-200000J0D01*
G01*
X138231000Y-81501000D01*
G75*
G02*
X138031000Y-81301000I0J200000D01*
G01*
X138031000Y-80751000D01*
G75*
G02*
X138231000Y-80551000I200000J0D01*
G01*
X138631000Y-80551000D01*
G75*
G02*
X138831000Y-80751000I0J-200000D01*
G01*
G37*
G36*
G01*
X129394000Y-67585000D02*
X129394000Y-67035000D01*
G75*
G02*
X129594000Y-66835000I200000J0D01*
G01*
X129994000Y-66835000D01*
G75*
G02*
X130194000Y-67035000I0J-200000D01*
G01*
X130194000Y-67585000D01*
G75*
G02*
X129994000Y-67785000I-200000J0D01*
G01*
X129594000Y-67785000D01*
G75*
G02*
X129394000Y-67585000I0J200000D01*
G01*
G37*
G36*
G01*
X131044000Y-67585000D02*
X131044000Y-67035000D01*
G75*
G02*
X131244000Y-66835000I200000J0D01*
G01*
X131644000Y-66835000D01*
G75*
G02*
X131844000Y-67035000I0J-200000D01*
G01*
X131844000Y-67585000D01*
G75*
G02*
X131644000Y-67785000I-200000J0D01*
G01*
X131244000Y-67785000D01*
G75*
G02*
X131044000Y-67585000I0J200000D01*
G01*
G37*
G36*
G01*
X147045000Y-72879000D02*
X147595000Y-72879000D01*
G75*
G02*
X147795000Y-73079000I0J-200000D01*
G01*
X147795000Y-73479000D01*
G75*
G02*
X147595000Y-73679000I-200000J0D01*
G01*
X147045000Y-73679000D01*
G75*
G02*
X146845000Y-73479000I0J200000D01*
G01*
X146845000Y-73079000D01*
G75*
G02*
X147045000Y-72879000I200000J0D01*
G01*
G37*
G36*
G01*
X147045000Y-71229000D02*
X147595000Y-71229000D01*
G75*
G02*
X147795000Y-71429000I0J-200000D01*
G01*
X147795000Y-71829000D01*
G75*
G02*
X147595000Y-72029000I-200000J0D01*
G01*
X147045000Y-72029000D01*
G75*
G02*
X146845000Y-71829000I0J200000D01*
G01*
X146845000Y-71429000D01*
G75*
G02*
X147045000Y-71229000I200000J0D01*
G01*
G37*
G36*
G01*
X145521000Y-71229000D02*
X146071000Y-71229000D01*
G75*
G02*
X146271000Y-71429000I0J-200000D01*
G01*
X146271000Y-71829000D01*
G75*
G02*
X146071000Y-72029000I-200000J0D01*
G01*
X145521000Y-72029000D01*
G75*
G02*
X145321000Y-71829000I0J200000D01*
G01*
X145321000Y-71429000D01*
G75*
G02*
X145521000Y-71229000I200000J0D01*
G01*
G37*
G36*
G01*
X145521000Y-72879000D02*
X146071000Y-72879000D01*
G75*
G02*
X146271000Y-73079000I0J-200000D01*
G01*
X146271000Y-73479000D01*
G75*
G02*
X146071000Y-73679000I-200000J0D01*
G01*
X145521000Y-73679000D01*
G75*
G02*
X145321000Y-73479000I0J200000D01*
G01*
X145321000Y-73079000D01*
G75*
G02*
X145521000Y-72879000I200000J0D01*
G01*
G37*
G36*
G01*
X144547000Y-72029000D02*
X143997000Y-72029000D01*
G75*
G02*
X143797000Y-71829000I0J200000D01*
G01*
X143797000Y-71429000D01*
G75*
G02*
X143997000Y-71229000I200000J0D01*
G01*
X144547000Y-71229000D01*
G75*
G02*
X144747000Y-71429000I0J-200000D01*
G01*
X144747000Y-71829000D01*
G75*
G02*
X144547000Y-72029000I-200000J0D01*
G01*
G37*
G36*
G01*
X144547000Y-73679000D02*
X143997000Y-73679000D01*
G75*
G02*
X143797000Y-73479000I0J200000D01*
G01*
X143797000Y-73079000D01*
G75*
G02*
X143997000Y-72879000I200000J0D01*
G01*
X144547000Y-72879000D01*
G75*
G02*
X144747000Y-73079000I0J-200000D01*
G01*
X144747000Y-73479000D01*
G75*
G02*
X144547000Y-73679000I-200000J0D01*
G01*
G37*
D36*
X166792000Y-76195000D03*
X166792000Y-75245000D03*
X166792000Y-74295000D03*
X164592000Y-74295000D03*
X164592000Y-76195000D03*
X165270000Y-82743000D03*
X165270000Y-83693000D03*
X165270000Y-84643000D03*
X167470000Y-84643000D03*
X167470000Y-82743000D03*
X167470000Y-83693000D03*
D35*
X146425000Y-61722000D03*
X148425000Y-60772000D03*
X148425000Y-62672000D03*
G36*
G01*
X149671000Y-94835000D02*
X149671000Y-94485000D01*
G75*
G02*
X149846000Y-94310000I175000J0D01*
G01*
X151296000Y-94310000D01*
G75*
G02*
X151471000Y-94485000I0J-175000D01*
G01*
X151471000Y-94835000D01*
G75*
G02*
X151296000Y-95010000I-175000J0D01*
G01*
X149846000Y-95010000D01*
G75*
G02*
X149671000Y-94835000I0J175000D01*
G01*
G37*
G36*
G01*
X149671000Y-95960000D02*
X149671000Y-95560000D01*
G75*
G02*
X149871000Y-95360000I200000J0D01*
G01*
X151271000Y-95360000D01*
G75*
G02*
X151471000Y-95560000I0J-200000D01*
G01*
X151471000Y-95960000D01*
G75*
G02*
X151271000Y-96160000I-200000J0D01*
G01*
X149871000Y-96160000D01*
G75*
G02*
X149671000Y-95960000I0J200000D01*
G01*
G37*
G36*
G01*
X149671000Y-97060000D02*
X149671000Y-96660000D01*
G75*
G02*
X149871000Y-96460000I200000J0D01*
G01*
X151271000Y-96460000D01*
G75*
G02*
X151471000Y-96660000I0J-200000D01*
G01*
X151471000Y-97060000D01*
G75*
G02*
X151271000Y-97260000I-200000J0D01*
G01*
X149871000Y-97260000D01*
G75*
G02*
X149671000Y-97060000I0J200000D01*
G01*
G37*
G36*
G01*
X149671000Y-98160000D02*
X149671000Y-97760000D01*
G75*
G02*
X149871000Y-97560000I200000J0D01*
G01*
X151271000Y-97560000D01*
G75*
G02*
X151471000Y-97760000I0J-200000D01*
G01*
X151471000Y-98160000D01*
G75*
G02*
X151271000Y-98360000I-200000J0D01*
G01*
X149871000Y-98360000D01*
G75*
G02*
X149671000Y-98160000I0J200000D01*
G01*
G37*
G36*
G01*
X149671000Y-99260000D02*
X149671000Y-98860000D01*
G75*
G02*
X149871000Y-98660000I200000J0D01*
G01*
X151271000Y-98660000D01*
G75*
G02*
X151471000Y-98860000I0J-200000D01*
G01*
X151471000Y-99260000D01*
G75*
G02*
X151271000Y-99460000I-200000J0D01*
G01*
X149871000Y-99460000D01*
G75*
G02*
X149671000Y-99260000I0J200000D01*
G01*
G37*
G36*
G01*
X149671000Y-100360000D02*
X149671000Y-99960000D01*
G75*
G02*
X149871000Y-99760000I200000J0D01*
G01*
X151271000Y-99760000D01*
G75*
G02*
X151471000Y-99960000I0J-200000D01*
G01*
X151471000Y-100360000D01*
G75*
G02*
X151271000Y-100560000I-200000J0D01*
G01*
X149871000Y-100560000D01*
G75*
G02*
X149671000Y-100360000I0J200000D01*
G01*
G37*
G36*
G01*
X149671000Y-101460000D02*
X149671000Y-101060000D01*
G75*
G02*
X149871000Y-100860000I200000J0D01*
G01*
X151271000Y-100860000D01*
G75*
G02*
X151471000Y-101060000I0J-200000D01*
G01*
X151471000Y-101460000D01*
G75*
G02*
X151271000Y-101660000I-200000J0D01*
G01*
X149871000Y-101660000D01*
G75*
G02*
X149671000Y-101460000I0J200000D01*
G01*
G37*
G36*
G01*
X149671000Y-102560000D02*
X149671000Y-102160000D01*
G75*
G02*
X149871000Y-101960000I200000J0D01*
G01*
X151271000Y-101960000D01*
G75*
G02*
X151471000Y-102160000I0J-200000D01*
G01*
X151471000Y-102560000D01*
G75*
G02*
X151271000Y-102760000I-200000J0D01*
G01*
X149871000Y-102760000D01*
G75*
G02*
X149671000Y-102560000I0J200000D01*
G01*
G37*
G36*
G01*
X149671000Y-103635000D02*
X149671000Y-103285000D01*
G75*
G02*
X149846000Y-103110000I175000J0D01*
G01*
X151296000Y-103110000D01*
G75*
G02*
X151471000Y-103285000I0J-175000D01*
G01*
X151471000Y-103635000D01*
G75*
G02*
X151296000Y-103810000I-175000J0D01*
G01*
X149846000Y-103810000D01*
G75*
G02*
X149671000Y-103635000I0J175000D01*
G01*
G37*
G36*
G01*
X159171000Y-103635000D02*
X159171000Y-103285000D01*
G75*
G02*
X159346000Y-103110000I175000J0D01*
G01*
X160796000Y-103110000D01*
G75*
G02*
X160971000Y-103285000I0J-175000D01*
G01*
X160971000Y-103635000D01*
G75*
G02*
X160796000Y-103810000I-175000J0D01*
G01*
X159346000Y-103810000D01*
G75*
G02*
X159171000Y-103635000I0J175000D01*
G01*
G37*
G36*
G01*
X159171000Y-102560000D02*
X159171000Y-102160000D01*
G75*
G02*
X159371000Y-101960000I200000J0D01*
G01*
X160771000Y-101960000D01*
G75*
G02*
X160971000Y-102160000I0J-200000D01*
G01*
X160971000Y-102560000D01*
G75*
G02*
X160771000Y-102760000I-200000J0D01*
G01*
X159371000Y-102760000D01*
G75*
G02*
X159171000Y-102560000I0J200000D01*
G01*
G37*
G36*
G01*
X159171000Y-101460000D02*
X159171000Y-101060000D01*
G75*
G02*
X159371000Y-100860000I200000J0D01*
G01*
X160771000Y-100860000D01*
G75*
G02*
X160971000Y-101060000I0J-200000D01*
G01*
X160971000Y-101460000D01*
G75*
G02*
X160771000Y-101660000I-200000J0D01*
G01*
X159371000Y-101660000D01*
G75*
G02*
X159171000Y-101460000I0J200000D01*
G01*
G37*
G36*
G01*
X159171000Y-100360000D02*
X159171000Y-99960000D01*
G75*
G02*
X159371000Y-99760000I200000J0D01*
G01*
X160771000Y-99760000D01*
G75*
G02*
X160971000Y-99960000I0J-200000D01*
G01*
X160971000Y-100360000D01*
G75*
G02*
X160771000Y-100560000I-200000J0D01*
G01*
X159371000Y-100560000D01*
G75*
G02*
X159171000Y-100360000I0J200000D01*
G01*
G37*
G36*
G01*
X159171000Y-99260000D02*
X159171000Y-98860000D01*
G75*
G02*
X159371000Y-98660000I200000J0D01*
G01*
X160771000Y-98660000D01*
G75*
G02*
X160971000Y-98860000I0J-200000D01*
G01*
X160971000Y-99260000D01*
G75*
G02*
X160771000Y-99460000I-200000J0D01*
G01*
X159371000Y-99460000D01*
G75*
G02*
X159171000Y-99260000I0J200000D01*
G01*
G37*
G36*
G01*
X159171000Y-98160000D02*
X159171000Y-97760000D01*
G75*
G02*
X159371000Y-97560000I200000J0D01*
G01*
X160771000Y-97560000D01*
G75*
G02*
X160971000Y-97760000I0J-200000D01*
G01*
X160971000Y-98160000D01*
G75*
G02*
X160771000Y-98360000I-200000J0D01*
G01*
X159371000Y-98360000D01*
G75*
G02*
X159171000Y-98160000I0J200000D01*
G01*
G37*
G36*
G01*
X159171000Y-97060000D02*
X159171000Y-96660000D01*
G75*
G02*
X159371000Y-96460000I200000J0D01*
G01*
X160771000Y-96460000D01*
G75*
G02*
X160971000Y-96660000I0J-200000D01*
G01*
X160971000Y-97060000D01*
G75*
G02*
X160771000Y-97260000I-200000J0D01*
G01*
X159371000Y-97260000D01*
G75*
G02*
X159171000Y-97060000I0J200000D01*
G01*
G37*
G36*
G01*
X159171000Y-95960000D02*
X159171000Y-95560000D01*
G75*
G02*
X159371000Y-95360000I200000J0D01*
G01*
X160771000Y-95360000D01*
G75*
G02*
X160971000Y-95560000I0J-200000D01*
G01*
X160971000Y-95960000D01*
G75*
G02*
X160771000Y-96160000I-200000J0D01*
G01*
X159371000Y-96160000D01*
G75*
G02*
X159171000Y-95960000I0J200000D01*
G01*
G37*
G36*
G01*
X159171000Y-94835000D02*
X159171000Y-94485000D01*
G75*
G02*
X159346000Y-94310000I175000J0D01*
G01*
X160796000Y-94310000D01*
G75*
G02*
X160971000Y-94485000I0J-175000D01*
G01*
X160971000Y-94835000D01*
G75*
G02*
X160796000Y-95010000I-175000J0D01*
G01*
X159346000Y-95010000D01*
G75*
G02*
X159171000Y-94835000I0J175000D01*
G01*
G37*
G36*
G01*
X158020000Y-85890000D02*
X158170000Y-85890000D01*
G75*
G02*
X158245000Y-85965000I0J-75000D01*
G01*
X158245000Y-86665000D01*
G75*
G02*
X158170000Y-86740000I-75000J0D01*
G01*
X158020000Y-86740000D01*
G75*
G02*
X157945000Y-86665000I0J75000D01*
G01*
X157945000Y-85965000D01*
G75*
G02*
X158020000Y-85890000I75000J0D01*
G01*
G37*
G36*
G01*
X157520000Y-85890000D02*
X157670000Y-85890000D01*
G75*
G02*
X157745000Y-85965000I0J-75000D01*
G01*
X157745000Y-86665000D01*
G75*
G02*
X157670000Y-86740000I-75000J0D01*
G01*
X157520000Y-86740000D01*
G75*
G02*
X157445000Y-86665000I0J75000D01*
G01*
X157445000Y-85965000D01*
G75*
G02*
X157520000Y-85890000I75000J0D01*
G01*
G37*
G36*
G01*
X157020000Y-85890000D02*
X157170000Y-85890000D01*
G75*
G02*
X157245000Y-85965000I0J-75000D01*
G01*
X157245000Y-86665000D01*
G75*
G02*
X157170000Y-86740000I-75000J0D01*
G01*
X157020000Y-86740000D01*
G75*
G02*
X156945000Y-86665000I0J75000D01*
G01*
X156945000Y-85965000D01*
G75*
G02*
X157020000Y-85890000I75000J0D01*
G01*
G37*
G36*
G01*
X156520000Y-85890000D02*
X156670000Y-85890000D01*
G75*
G02*
X156745000Y-85965000I0J-75000D01*
G01*
X156745000Y-86665000D01*
G75*
G02*
X156670000Y-86740000I-75000J0D01*
G01*
X156520000Y-86740000D01*
G75*
G02*
X156445000Y-86665000I0J75000D01*
G01*
X156445000Y-85965000D01*
G75*
G02*
X156520000Y-85890000I75000J0D01*
G01*
G37*
G36*
G01*
X156020000Y-85890000D02*
X156170000Y-85890000D01*
G75*
G02*
X156245000Y-85965000I0J-75000D01*
G01*
X156245000Y-86665000D01*
G75*
G02*
X156170000Y-86740000I-75000J0D01*
G01*
X156020000Y-86740000D01*
G75*
G02*
X155945000Y-86665000I0J75000D01*
G01*
X155945000Y-85965000D01*
G75*
G02*
X156020000Y-85890000I75000J0D01*
G01*
G37*
G36*
G01*
X155520000Y-85890000D02*
X155670000Y-85890000D01*
G75*
G02*
X155745000Y-85965000I0J-75000D01*
G01*
X155745000Y-86665000D01*
G75*
G02*
X155670000Y-86740000I-75000J0D01*
G01*
X155520000Y-86740000D01*
G75*
G02*
X155445000Y-86665000I0J75000D01*
G01*
X155445000Y-85965000D01*
G75*
G02*
X155520000Y-85890000I75000J0D01*
G01*
G37*
G36*
G01*
X154470000Y-87090000D02*
X154470000Y-86940000D01*
G75*
G02*
X154545000Y-86865000I75000J0D01*
G01*
X155245000Y-86865000D01*
G75*
G02*
X155320000Y-86940000I0J-75000D01*
G01*
X155320000Y-87090000D01*
G75*
G02*
X155245000Y-87165000I-75000J0D01*
G01*
X154545000Y-87165000D01*
G75*
G02*
X154470000Y-87090000I0J75000D01*
G01*
G37*
G36*
G01*
X154470000Y-87590000D02*
X154470000Y-87440000D01*
G75*
G02*
X154545000Y-87365000I75000J0D01*
G01*
X155245000Y-87365000D01*
G75*
G02*
X155320000Y-87440000I0J-75000D01*
G01*
X155320000Y-87590000D01*
G75*
G02*
X155245000Y-87665000I-75000J0D01*
G01*
X154545000Y-87665000D01*
G75*
G02*
X154470000Y-87590000I0J75000D01*
G01*
G37*
G36*
G01*
X154470000Y-88090000D02*
X154470000Y-87940000D01*
G75*
G02*
X154545000Y-87865000I75000J0D01*
G01*
X155245000Y-87865000D01*
G75*
G02*
X155320000Y-87940000I0J-75000D01*
G01*
X155320000Y-88090000D01*
G75*
G02*
X155245000Y-88165000I-75000J0D01*
G01*
X154545000Y-88165000D01*
G75*
G02*
X154470000Y-88090000I0J75000D01*
G01*
G37*
G36*
G01*
X154470000Y-88590000D02*
X154470000Y-88440000D01*
G75*
G02*
X154545000Y-88365000I75000J0D01*
G01*
X155245000Y-88365000D01*
G75*
G02*
X155320000Y-88440000I0J-75000D01*
G01*
X155320000Y-88590000D01*
G75*
G02*
X155245000Y-88665000I-75000J0D01*
G01*
X154545000Y-88665000D01*
G75*
G02*
X154470000Y-88590000I0J75000D01*
G01*
G37*
G36*
G01*
X154470000Y-89090000D02*
X154470000Y-88940000D01*
G75*
G02*
X154545000Y-88865000I75000J0D01*
G01*
X155245000Y-88865000D01*
G75*
G02*
X155320000Y-88940000I0J-75000D01*
G01*
X155320000Y-89090000D01*
G75*
G02*
X155245000Y-89165000I-75000J0D01*
G01*
X154545000Y-89165000D01*
G75*
G02*
X154470000Y-89090000I0J75000D01*
G01*
G37*
G36*
G01*
X154470000Y-89590000D02*
X154470000Y-89440000D01*
G75*
G02*
X154545000Y-89365000I75000J0D01*
G01*
X155245000Y-89365000D01*
G75*
G02*
X155320000Y-89440000I0J-75000D01*
G01*
X155320000Y-89590000D01*
G75*
G02*
X155245000Y-89665000I-75000J0D01*
G01*
X154545000Y-89665000D01*
G75*
G02*
X154470000Y-89590000I0J75000D01*
G01*
G37*
G36*
G01*
X155520000Y-89790000D02*
X155670000Y-89790000D01*
G75*
G02*
X155745000Y-89865000I0J-75000D01*
G01*
X155745000Y-90565000D01*
G75*
G02*
X155670000Y-90640000I-75000J0D01*
G01*
X155520000Y-90640000D01*
G75*
G02*
X155445000Y-90565000I0J75000D01*
G01*
X155445000Y-89865000D01*
G75*
G02*
X155520000Y-89790000I75000J0D01*
G01*
G37*
G36*
G01*
X156020000Y-89790000D02*
X156170000Y-89790000D01*
G75*
G02*
X156245000Y-89865000I0J-75000D01*
G01*
X156245000Y-90565000D01*
G75*
G02*
X156170000Y-90640000I-75000J0D01*
G01*
X156020000Y-90640000D01*
G75*
G02*
X155945000Y-90565000I0J75000D01*
G01*
X155945000Y-89865000D01*
G75*
G02*
X156020000Y-89790000I75000J0D01*
G01*
G37*
G36*
G01*
X156520000Y-89790000D02*
X156670000Y-89790000D01*
G75*
G02*
X156745000Y-89865000I0J-75000D01*
G01*
X156745000Y-90565000D01*
G75*
G02*
X156670000Y-90640000I-75000J0D01*
G01*
X156520000Y-90640000D01*
G75*
G02*
X156445000Y-90565000I0J75000D01*
G01*
X156445000Y-89865000D01*
G75*
G02*
X156520000Y-89790000I75000J0D01*
G01*
G37*
G36*
G01*
X157020000Y-89790000D02*
X157170000Y-89790000D01*
G75*
G02*
X157245000Y-89865000I0J-75000D01*
G01*
X157245000Y-90565000D01*
G75*
G02*
X157170000Y-90640000I-75000J0D01*
G01*
X157020000Y-90640000D01*
G75*
G02*
X156945000Y-90565000I0J75000D01*
G01*
X156945000Y-89865000D01*
G75*
G02*
X157020000Y-89790000I75000J0D01*
G01*
G37*
G36*
G01*
X157520000Y-89790000D02*
X157670000Y-89790000D01*
G75*
G02*
X157745000Y-89865000I0J-75000D01*
G01*
X157745000Y-90565000D01*
G75*
G02*
X157670000Y-90640000I-75000J0D01*
G01*
X157520000Y-90640000D01*
G75*
G02*
X157445000Y-90565000I0J75000D01*
G01*
X157445000Y-89865000D01*
G75*
G02*
X157520000Y-89790000I75000J0D01*
G01*
G37*
G36*
G01*
X158020000Y-89790000D02*
X158170000Y-89790000D01*
G75*
G02*
X158245000Y-89865000I0J-75000D01*
G01*
X158245000Y-90565000D01*
G75*
G02*
X158170000Y-90640000I-75000J0D01*
G01*
X158020000Y-90640000D01*
G75*
G02*
X157945000Y-90565000I0J75000D01*
G01*
X157945000Y-89865000D01*
G75*
G02*
X158020000Y-89790000I75000J0D01*
G01*
G37*
G36*
G01*
X158370000Y-89590000D02*
X158370000Y-89440000D01*
G75*
G02*
X158445000Y-89365000I75000J0D01*
G01*
X159145000Y-89365000D01*
G75*
G02*
X159220000Y-89440000I0J-75000D01*
G01*
X159220000Y-89590000D01*
G75*
G02*
X159145000Y-89665000I-75000J0D01*
G01*
X158445000Y-89665000D01*
G75*
G02*
X158370000Y-89590000I0J75000D01*
G01*
G37*
G36*
G01*
X158370000Y-89090000D02*
X158370000Y-88940000D01*
G75*
G02*
X158445000Y-88865000I75000J0D01*
G01*
X159145000Y-88865000D01*
G75*
G02*
X159220000Y-88940000I0J-75000D01*
G01*
X159220000Y-89090000D01*
G75*
G02*
X159145000Y-89165000I-75000J0D01*
G01*
X158445000Y-89165000D01*
G75*
G02*
X158370000Y-89090000I0J75000D01*
G01*
G37*
G36*
G01*
X158370000Y-88590000D02*
X158370000Y-88440000D01*
G75*
G02*
X158445000Y-88365000I75000J0D01*
G01*
X159145000Y-88365000D01*
G75*
G02*
X159220000Y-88440000I0J-75000D01*
G01*
X159220000Y-88590000D01*
G75*
G02*
X159145000Y-88665000I-75000J0D01*
G01*
X158445000Y-88665000D01*
G75*
G02*
X158370000Y-88590000I0J75000D01*
G01*
G37*
G36*
G01*
X158370000Y-88090000D02*
X158370000Y-87940000D01*
G75*
G02*
X158445000Y-87865000I75000J0D01*
G01*
X159145000Y-87865000D01*
G75*
G02*
X159220000Y-87940000I0J-75000D01*
G01*
X159220000Y-88090000D01*
G75*
G02*
X159145000Y-88165000I-75000J0D01*
G01*
X158445000Y-88165000D01*
G75*
G02*
X158370000Y-88090000I0J75000D01*
G01*
G37*
G36*
G01*
X158370000Y-87590000D02*
X158370000Y-87440000D01*
G75*
G02*
X158445000Y-87365000I75000J0D01*
G01*
X159145000Y-87365000D01*
G75*
G02*
X159220000Y-87440000I0J-75000D01*
G01*
X159220000Y-87590000D01*
G75*
G02*
X159145000Y-87665000I-75000J0D01*
G01*
X158445000Y-87665000D01*
G75*
G02*
X158370000Y-87590000I0J75000D01*
G01*
G37*
G36*
G01*
X158370000Y-87090000D02*
X158370000Y-86940000D01*
G75*
G02*
X158445000Y-86865000I75000J0D01*
G01*
X159145000Y-86865000D01*
G75*
G02*
X159220000Y-86940000I0J-75000D01*
G01*
X159220000Y-87090000D01*
G75*
G02*
X159145000Y-87165000I-75000J0D01*
G01*
X158445000Y-87165000D01*
G75*
G02*
X158370000Y-87090000I0J75000D01*
G01*
G37*
G36*
G01*
X167609500Y-88082000D02*
X167784500Y-88082000D01*
G75*
G02*
X167872000Y-88169500I0J-87500D01*
G01*
X167872000Y-89044500D01*
G75*
G02*
X167784500Y-89132000I-87500J0D01*
G01*
X167609500Y-89132000D01*
G75*
G02*
X167522000Y-89044500I0J87500D01*
G01*
X167522000Y-88169500D01*
G75*
G02*
X167609500Y-88082000I87500J0D01*
G01*
G37*
G36*
G01*
X166809500Y-88082000D02*
X166984500Y-88082000D01*
G75*
G02*
X167072000Y-88169500I0J-87500D01*
G01*
X167072000Y-89044500D01*
G75*
G02*
X166984500Y-89132000I-87500J0D01*
G01*
X166809500Y-89132000D01*
G75*
G02*
X166722000Y-89044500I0J87500D01*
G01*
X166722000Y-88169500D01*
G75*
G02*
X166809500Y-88082000I87500J0D01*
G01*
G37*
G36*
G01*
X166009500Y-88082000D02*
X166184500Y-88082000D01*
G75*
G02*
X166272000Y-88169500I0J-87500D01*
G01*
X166272000Y-89044500D01*
G75*
G02*
X166184500Y-89132000I-87500J0D01*
G01*
X166009500Y-89132000D01*
G75*
G02*
X165922000Y-89044500I0J87500D01*
G01*
X165922000Y-88169500D01*
G75*
G02*
X166009500Y-88082000I87500J0D01*
G01*
G37*
G36*
G01*
X165209500Y-88082000D02*
X165384500Y-88082000D01*
G75*
G02*
X165472000Y-88169500I0J-87500D01*
G01*
X165472000Y-89044500D01*
G75*
G02*
X165384500Y-89132000I-87500J0D01*
G01*
X165209500Y-89132000D01*
G75*
G02*
X165122000Y-89044500I0J87500D01*
G01*
X165122000Y-88169500D01*
G75*
G02*
X165209500Y-88082000I87500J0D01*
G01*
G37*
G36*
G01*
X163734500Y-89557000D02*
X164609500Y-89557000D01*
G75*
G02*
X164697000Y-89644500I0J-87500D01*
G01*
X164697000Y-89819500D01*
G75*
G02*
X164609500Y-89907000I-87500J0D01*
G01*
X163734500Y-89907000D01*
G75*
G02*
X163647000Y-89819500I0J87500D01*
G01*
X163647000Y-89644500D01*
G75*
G02*
X163734500Y-89557000I87500J0D01*
G01*
G37*
G36*
G01*
X163734500Y-90357000D02*
X164609500Y-90357000D01*
G75*
G02*
X164697000Y-90444500I0J-87500D01*
G01*
X164697000Y-90619500D01*
G75*
G02*
X164609500Y-90707000I-87500J0D01*
G01*
X163734500Y-90707000D01*
G75*
G02*
X163647000Y-90619500I0J87500D01*
G01*
X163647000Y-90444500D01*
G75*
G02*
X163734500Y-90357000I87500J0D01*
G01*
G37*
G36*
G01*
X163734500Y-91157000D02*
X164609500Y-91157000D01*
G75*
G02*
X164697000Y-91244500I0J-87500D01*
G01*
X164697000Y-91419500D01*
G75*
G02*
X164609500Y-91507000I-87500J0D01*
G01*
X163734500Y-91507000D01*
G75*
G02*
X163647000Y-91419500I0J87500D01*
G01*
X163647000Y-91244500D01*
G75*
G02*
X163734500Y-91157000I87500J0D01*
G01*
G37*
G36*
G01*
X163734500Y-91957000D02*
X164609500Y-91957000D01*
G75*
G02*
X164697000Y-92044500I0J-87500D01*
G01*
X164697000Y-92219500D01*
G75*
G02*
X164609500Y-92307000I-87500J0D01*
G01*
X163734500Y-92307000D01*
G75*
G02*
X163647000Y-92219500I0J87500D01*
G01*
X163647000Y-92044500D01*
G75*
G02*
X163734500Y-91957000I87500J0D01*
G01*
G37*
G36*
G01*
X165209500Y-92732000D02*
X165384500Y-92732000D01*
G75*
G02*
X165472000Y-92819500I0J-87500D01*
G01*
X165472000Y-93694500D01*
G75*
G02*
X165384500Y-93782000I-87500J0D01*
G01*
X165209500Y-93782000D01*
G75*
G02*
X165122000Y-93694500I0J87500D01*
G01*
X165122000Y-92819500D01*
G75*
G02*
X165209500Y-92732000I87500J0D01*
G01*
G37*
G36*
G01*
X166009500Y-92732000D02*
X166184500Y-92732000D01*
G75*
G02*
X166272000Y-92819500I0J-87500D01*
G01*
X166272000Y-93694500D01*
G75*
G02*
X166184500Y-93782000I-87500J0D01*
G01*
X166009500Y-93782000D01*
G75*
G02*
X165922000Y-93694500I0J87500D01*
G01*
X165922000Y-92819500D01*
G75*
G02*
X166009500Y-92732000I87500J0D01*
G01*
G37*
G36*
G01*
X166809500Y-92732000D02*
X166984500Y-92732000D01*
G75*
G02*
X167072000Y-92819500I0J-87500D01*
G01*
X167072000Y-93694500D01*
G75*
G02*
X166984500Y-93782000I-87500J0D01*
G01*
X166809500Y-93782000D01*
G75*
G02*
X166722000Y-93694500I0J87500D01*
G01*
X166722000Y-92819500D01*
G75*
G02*
X166809500Y-92732000I87500J0D01*
G01*
G37*
G36*
G01*
X167609500Y-92732000D02*
X167784500Y-92732000D01*
G75*
G02*
X167872000Y-92819500I0J-87500D01*
G01*
X167872000Y-93694500D01*
G75*
G02*
X167784500Y-93782000I-87500J0D01*
G01*
X167609500Y-93782000D01*
G75*
G02*
X167522000Y-93694500I0J87500D01*
G01*
X167522000Y-92819500D01*
G75*
G02*
X167609500Y-92732000I87500J0D01*
G01*
G37*
G36*
G01*
X168384500Y-91957000D02*
X169259500Y-91957000D01*
G75*
G02*
X169347000Y-92044500I0J-87500D01*
G01*
X169347000Y-92219500D01*
G75*
G02*
X169259500Y-92307000I-87500J0D01*
G01*
X168384500Y-92307000D01*
G75*
G02*
X168297000Y-92219500I0J87500D01*
G01*
X168297000Y-92044500D01*
G75*
G02*
X168384500Y-91957000I87500J0D01*
G01*
G37*
G36*
G01*
X168384500Y-91157000D02*
X169259500Y-91157000D01*
G75*
G02*
X169347000Y-91244500I0J-87500D01*
G01*
X169347000Y-91419500D01*
G75*
G02*
X169259500Y-91507000I-87500J0D01*
G01*
X168384500Y-91507000D01*
G75*
G02*
X168297000Y-91419500I0J87500D01*
G01*
X168297000Y-91244500D01*
G75*
G02*
X168384500Y-91157000I87500J0D01*
G01*
G37*
G36*
G01*
X168384500Y-90357000D02*
X169259500Y-90357000D01*
G75*
G02*
X169347000Y-90444500I0J-87500D01*
G01*
X169347000Y-90619500D01*
G75*
G02*
X169259500Y-90707000I-87500J0D01*
G01*
X168384500Y-90707000D01*
G75*
G02*
X168297000Y-90619500I0J87500D01*
G01*
X168297000Y-90444500D01*
G75*
G02*
X168384500Y-90357000I87500J0D01*
G01*
G37*
G36*
G01*
X168384500Y-89557000D02*
X169259500Y-89557000D01*
G75*
G02*
X169347000Y-89644500I0J-87500D01*
G01*
X169347000Y-89819500D01*
G75*
G02*
X169259500Y-89907000I-87500J0D01*
G01*
X168384500Y-89907000D01*
G75*
G02*
X168297000Y-89819500I0J87500D01*
G01*
X168297000Y-89644500D01*
G75*
G02*
X168384500Y-89557000I87500J0D01*
G01*
G37*
D37*
X166497000Y-90932000D03*
M02*
