G04 #@! TF.GenerationSoftware,KiCad,Pcbnew,(5.1.10)-1*
G04 #@! TF.CreationDate,2021-10-27T16:42:24-05:00*
G04 #@! TF.ProjectId,Board,426f6172-642e-46b6-9963-61645f706362,rev?*
G04 #@! TF.SameCoordinates,PX88abcb0PY37c5580*
G04 #@! TF.FileFunction,Legend,Bot*
G04 #@! TF.FilePolarity,Positive*
%FSLAX46Y46*%
G04 Gerber Fmt 4.6, Leading zero omitted, Abs format (unit mm)*
G04 Created by KiCad (PCBNEW (5.1.10)-1) date 2021-10-27 16:42:24*
%MOMM*%
%LPD*%
G01*
G04 APERTURE LIST*
%ADD10C,0.150000*%
%ADD11C,1.000000*%
%ADD12C,5.500000*%
G04 APERTURE END LIST*
D10*
X-19069405Y-34805714D02*
X-19026548Y-34843809D01*
X-18907500Y-34881904D01*
X-18831310Y-34881904D01*
X-18721786Y-34843809D01*
X-18655120Y-34767619D01*
X-18626548Y-34691428D01*
X-18607500Y-34539047D01*
X-18621786Y-34424761D01*
X-18678929Y-34272380D01*
X-18726548Y-34196190D01*
X-18812262Y-34120000D01*
X-18931310Y-34081904D01*
X-19007500Y-34081904D01*
X-19117024Y-34120000D01*
X-19150358Y-34158095D01*
X-19388453Y-34081904D02*
X-19845596Y-34081904D01*
X-19517024Y-34881904D02*
X-19617024Y-34081904D01*
X-20064643Y-34158095D02*
X-20107500Y-34120000D01*
X-20188453Y-34081904D01*
X-20378929Y-34081904D01*
X-20450358Y-34120000D01*
X-20483691Y-34158095D01*
X-20512262Y-34234285D01*
X-20502739Y-34310476D01*
X-20450358Y-34424761D01*
X-19936072Y-34881904D01*
X-20431310Y-34881904D01*
X-21026548Y-34081904D02*
X-21102739Y-34081904D01*
X-21174167Y-34120000D01*
X-21207500Y-34158095D01*
X-21236072Y-34234285D01*
X-21255120Y-34386666D01*
X-21231310Y-34577142D01*
X-21174167Y-34729523D01*
X-21126548Y-34805714D01*
X-21083691Y-34843809D01*
X-21002739Y-34881904D01*
X-20926548Y-34881904D01*
X-20855120Y-34843809D01*
X-20821786Y-34805714D01*
X-20793215Y-34729523D01*
X-20774167Y-34577142D01*
X-20797977Y-34386666D01*
X-20855120Y-34234285D01*
X-20902739Y-34158095D01*
X-20945596Y-34120000D01*
X-21026548Y-34081904D01*
X-21588453Y-34158095D02*
X-21631310Y-34120000D01*
X-21712262Y-34081904D01*
X-21902739Y-34081904D01*
X-21974167Y-34120000D01*
X-22007500Y-34158095D01*
X-22036072Y-34234285D01*
X-22026548Y-34310476D01*
X-21974167Y-34424761D01*
X-21459881Y-34881904D01*
X-21955120Y-34881904D01*
X-22717024Y-34881904D02*
X-22259881Y-34881904D01*
X-22488453Y-34881904D02*
X-22588453Y-34081904D01*
X-22497977Y-34196190D01*
X-22412262Y-34272380D01*
X-22331310Y-34310476D01*
%LPC*%
D11*
X-11000000Y-46250000D03*
X-3000000Y-46250000D03*
D12*
X-21644000Y-1845000D03*
X30934000Y-1845000D03*
X30934000Y-44898000D03*
X-21644000Y-44898000D03*
M02*
